<svg id="kity_svg_6" xmlns="http://www.w3.org/2000/svg" xmlns:xlink="http://www.w3.org/1999/xlink" version="1.1" width="801" height="654" style="background: rgb(251, 251, 251); visibility: visible;" viewBox="0 0 801 654"><defs id="kity_defs_7"><linearGradient id="kity_linearGradient_17" x1="0" y1="0" x2="0" y2="1"><stop id="kity_stop_18" offset="0" stop-color="rgb(255, 255, 255)"></stop><stop id="kity_stop_19" offset="1" stop-color="rgb(204, 204, 204)"></stop></linearGradient><marker id="kity_marker_2" orient="auto" refX="6" refY="0" viewBox="-7 -7 14 14" markerWidth="7" markerHeight="7" markerUnits="userSpaceOnUse"><path id="kity_path_3" fill="rgb(115, 161, 191)" stroke="none" d="M6,0A6,6,0,1,1,-6,0A6,6,0,1,1,6,0"></path></marker></defs><g id="kity_g_8"><g id="minder1" text-rendering="optimize-speed"><g id="minder_connect_group1"><path id="kity_path_31" fill="none" stroke="rgb(115, 161, 191)" stroke-width="1" d="M70,268.5A167.5,211,0,0,1,237.5,57.5"></path><path id="kity_path_33" fill="none" stroke="rgb(115, 161, 191)" stroke-width="1" d="M426.5,57.5C446.5,57.5,446.5,31.5,466.5,31.5"></path><path id="kity_path_35" fill="none" stroke="rgb(115, 161, 191)" stroke-width="1" d="M426.5,57.5C446.5,57.5,446.5,83.5,466.5,83.5"></path><path id="kity_path_37" fill="none" stroke="rgb(115, 161, 191)" stroke-width="1" d="M70,268.5A167.5,71,0,0,1,237.5,197.5"></path><path id="kity_path_39" fill="none" stroke="rgb(115, 161, 191)" stroke-width="1" d="M356.5,197.5C376.5,197.5,376.5,145.5,396.5,145.5"></path><path id="kity_path_41" fill="none" stroke="rgb(115, 161, 191)" stroke-width="1" d="M356.5,197.5C376.5,197.5,376.5,197.5,396.5,197.5"></path><path id="kity_path_43" fill="none" stroke="rgb(115, 161, 191)" stroke-width="1" d="M356.5,197.5C376.5,197.5,376.5,249.5,396.5,249.5"></path><path id="kity_path_45" fill="none" stroke="rgb(115, 161, 191)" stroke-width="1" d="M70,268.5A167.5,212,0,0,0,237.5,480.5"></path><path id="kity_path_47" fill="none" stroke="rgb(115, 161, 191)" stroke-width="1" d="M324.5,480.5C344.5,480.5,344.5,337.5,364.5,337.5"></path><path id="kity_path_49" fill="none" stroke="rgb(115, 161, 191)" stroke-width="1" d="M486.5,337.5C506.5,337.5,506.5,337.5,526.5,337.5"></path><path id="kity_path_51" fill="none" stroke="rgb(115, 161, 191)" stroke-width="1" d="M583.5,337.5C603.5,337.5,603.5,311.5,623.5,311.5"></path><path id="kity_path_53" fill="none" stroke="rgb(115, 161, 191)" stroke-width="1" d="M583.5,337.5C603.5,337.5,603.5,363.5,623.5,363.5"></path><path id="kity_path_55" fill="none" stroke="rgb(115, 161, 191)" stroke-width="1" d="M324.5,480.5C344.5,480.5,344.5,415.5,364.5,415.5"></path><path id="kity_path_57" fill="none" stroke="rgb(115, 161, 191)" stroke-width="1" d="M324.5,480.5C344.5,480.5,344.5,467.5,364.5,467.5"></path><path id="kity_path_59" fill="none" stroke="rgb(115, 161, 191)" stroke-width="1" d="M324.5,480.5C344.5,480.5,344.5,519.5,364.5,519.5"></path><path id="kity_path_61" fill="none" stroke="rgb(115, 161, 191)" stroke-width="1" d="M324.5,480.5C344.5,480.5,344.5,571.5,364.5,571.5"></path><path id="kity_path_63" fill="none" stroke="rgb(115, 161, 191)" stroke-width="1" d="M324.5,480.5C344.5,480.5,344.5,623.5,364.5,623.5"></path></g><g id="minder_node1"><path id="node_outline1" fill="rgb(115, 161, 191)" stroke="rgb(57, 80, 96)" d="M25.5,248.5h89a5,5,0,0,1,5,5v30a5,5,0,0,1,-5,5h-89a5,5,0,0,1,-5,-5v-30a5,5,0,0,1,5,-5z" stroke-width="3"></path><g id="node_text1" fill="white"><text id="kity_text_22" text-rendering="inherit" font-size="16" dy=".8em" y="258.09999990463257" x="44.5">sqlite3</text></g></g><g id="kity_g_12"><path id="kity_path_13" fill="none" stroke="none" d="M44.5,268.5h0v0h0z"></path></g><g id="kity_g_14"><path id="kity_path_15" fill="none" stroke="none" d="M44.5,268.5h0v0h0z"></path><path id="kity_path_16" fill="none" stroke="none"></path></g><g id="minder_node2"><g id="node_expander3" style="cursor: pointer;"><path id="kity_path_122" fill="white" stroke="gray" d="M238.5,57.5A6,6,0,1,1,226.5,57.5A6,6,0,1,1,238.5,57.5"></path><path id="kity_path_123" fill="none" stroke="gray" d="M228,57.5L237,57.5"></path></g><path id="node_outline4" fill="rgb(238, 243, 246)" stroke="rgb(115, 161, 191)" d="M242.5,44.5h181a3,3,0,0,1,3,3v20a3,3,0,0,1,-3,3h-181a3,3,0,0,1,-3,-3v-20a3,3,0,0,1,3,-3z" stroke-width="1"></path><g id="node_text4" fill="black"><text id="kity_text_69" text-rendering="inherit" font-size="14" dy=".8em" y="48.40000009536743" x="259.5">connect(): Connection</text></g></g><g id="minder_node3"><g id="node_expander1" display="none" style="cursor: pointer;"><path id="kity_path_116" fill="white" stroke="gray" d="M466.5,31.5A6,6,0,1,1,454.5,31.5A6,6,0,1,1,466.5,31.5"></path><path id="kity_path_117" fill="none" stroke="gray"></path></g><path id="node_outline2" fill="none" stroke="none" d="M471.5,20.5h77a5,5,0,0,1,5,5v12a5,5,0,0,1,-5,5h-77a5,5,0,0,1,-5,-5v-12a5,5,0,0,1,5,-5z"></path><g id="node_text2" fill="black"><text id="kity_text_65" text-rendering="inherit" font-size="12" dy=".8em" y="23.700000047683716" x="476.5">&lt;file_path&gt;</text></g></g><g id="minder_node4"><g id="node_expander2" display="none" style="cursor: pointer;"><path id="kity_path_119" fill="white" stroke="gray" d="M466.5,83.5A6,6,0,1,1,454.5,83.5A6,6,0,1,1,466.5,83.5"></path><path id="kity_path_120" fill="none" stroke="gray"></path></g><path id="node_outline3" fill="none" stroke="none" d="M471.5,72.5h74a5,5,0,0,1,5,5v12a5,5,0,0,1,-5,5h-74a5,5,0,0,1,-5,-5v-12a5,5,0,0,1,5,-5z"></path><g id="node_text3" fill="black"><text id="kity_text_67" text-rendering="inherit" font-size="12" dy=".8em" y="75.70000004768372" x="476.5">":memory:"</text></g></g><g id="minder_node5"><g id="node_expander7" style="cursor: pointer;"><path id="kity_path_134" fill="white" stroke="gray" d="M238.5,197.5A6,6,0,1,1,226.5,197.5A6,6,0,1,1,238.5,197.5"></path><path id="kity_path_135" fill="none" stroke="gray" d="M228,197.5L237,197.5"></path></g><path id="node_outline8" fill="rgb(238, 243, 246)" stroke="rgb(115, 161, 191)" d="M242.5,184.5h111a3,3,0,0,1,3,3v20a3,3,0,0,1,-3,3h-111a3,3,0,0,1,-3,-3v-20a3,3,0,0,1,3,-3z" stroke-width="1"></path><g id="node_text8" fill="black"><text id="kity_text_77" text-rendering="inherit" font-size="14" dy=".8em" y="188.40000009536743" x="259.5">Connection</text></g></g><g id="minder_node6"><g id="node_expander4" display="none" style="cursor: pointer;"><path id="kity_path_125" fill="white" stroke="gray" d="M396.5,145.5A6,6,0,1,1,384.5,145.5A6,6,0,1,1,396.5,145.5"></path><path id="kity_path_126" fill="none" stroke="gray"></path></g><path id="node_outline5" fill="none" stroke="none" d="M401.5,134.5h98a5,5,0,0,1,5,5v12a5,5,0,0,1,-5,5h-98a5,5,0,0,1,-5,-5v-12a5,5,0,0,1,5,-5z"></path><g id="node_text5" fill="black"><text id="kity_text_71" text-rendering="inherit" font-size="12" dy=".8em" y="137.70000004768372" x="406.5">cursor(): Cursor</text></g></g><g id="minder_node7"><g id="node_expander5" display="none" style="cursor: pointer;"><path id="kity_path_128" fill="white" stroke="gray" d="M396.5,197.5A6,6,0,1,1,384.5,197.5A6,6,0,1,1,396.5,197.5"></path><path id="kity_path_129" fill="none" stroke="gray"></path></g><path id="node_outline6" fill="none" stroke="none" d="M401.5,186.5h62a5,5,0,0,1,5,5v12a5,5,0,0,1,-5,5h-62a5,5,0,0,1,-5,-5v-12a5,5,0,0,1,5,-5z"></path><g id="node_text6" fill="black"><text id="kity_text_73" text-rendering="inherit" font-size="12" dy=".8em" y="189.70000004768372" x="406.5">commit()</text></g></g><g id="minder_node8"><g id="node_expander6" display="none" style="cursor: pointer;"><path id="kity_path_131" fill="white" stroke="gray" d="M396.5,249.5A6,6,0,1,1,384.5,249.5A6,6,0,1,1,396.5,249.5"></path><path id="kity_path_132" fill="none" stroke="gray"></path></g><path id="node_outline7" fill="none" stroke="none" d="M401.5,238.5h47a5,5,0,0,1,5,5v12a5,5,0,0,1,-5,5h-47a5,5,0,0,1,-5,-5v-12a5,5,0,0,1,5,-5z"></path><g id="node_text7" fill="black"><text id="kity_text_75" text-rendering="inherit" font-size="12" dy=".8em" y="241.70000004768372" x="406.5">close()</text></g></g><g id="minder_node9"><g id="node_expander17" style="cursor: pointer;"><path id="kity_path_164" fill="white" stroke="gray" d="M238.5,480.5A6,6,0,1,1,226.5,480.5A6,6,0,1,1,238.5,480.5"></path><path id="kity_path_165" fill="none" stroke="gray" d="M228,480.5L237,480.5"></path></g><path id="node_outline18" fill="rgb(238, 243, 246)" stroke="rgb(115, 161, 191)" d="M242.5,467.5h79a3,3,0,0,1,3,3v20a3,3,0,0,1,-3,3h-79a3,3,0,0,1,-3,-3v-20a3,3,0,0,1,3,-3z" stroke-width="1"></path><g id="node_text18" fill="black"><text id="kity_text_97" text-rendering="inherit" font-size="14" dy=".8em" y="471.40000009536743" x="259.5">Cursor</text></g></g><g id="minder_node10"><g id="node_expander11" style="cursor: pointer;"><path id="kity_path_146" fill="white" stroke="gray" d="M364.5,337.5A6,6,0,1,1,352.5,337.5A6,6,0,1,1,364.5,337.5"></path><path id="kity_path_147" fill="none" stroke="gray" d="M354,337.5L363,337.5"></path></g><path id="node_outline12" fill="none" stroke="none" d="M369.5,326.5h112a5,5,0,0,1,5,5v12a5,5,0,0,1,-5,5h-112a5,5,0,0,1,-5,-5v-12a5,5,0,0,1,5,-5z"></path><g id="node_text12" fill="black"><text id="kity_text_85" text-rendering="inherit" font-size="12" dy=".8em" y="329.7000000476837" x="374.5">execute(): Iterator</text></g></g><g id="minder_node11"><g id="node_expander10" style="cursor: pointer;"><path id="kity_path_143" fill="white" stroke="gray" d="M526.5,337.5A6,6,0,1,1,514.5,337.5A6,6,0,1,1,526.5,337.5"></path><path id="kity_path_144" fill="none" stroke="gray" d="M516,337.5L525,337.5"></path></g><path id="node_outline11" fill="none" stroke="none" d="M531.5,326.5h47a5,5,0,0,1,5,5v12a5,5,0,0,1,-5,5h-47a5,5,0,0,1,-5,-5v-12a5,5,0,0,1,5,-5z"></path><g id="node_text11" fill="black"><text id="kity_text_83" text-rendering="inherit" font-size="12" dy=".8em" y="329.7000000476837" x="536.5">占位符</text></g></g><g id="minder_node12"><g id="node_expander8" display="none" style="cursor: pointer;"><path id="kity_path_137" fill="white" stroke="gray" d="M623.5,311.5A6,6,0,1,1,611.5,311.5A6,6,0,1,1,623.5,311.5"></path><path id="kity_path_138" fill="none" stroke="gray"></path></g><path id="node_outline9" fill="none" stroke="none" d="M628.5,300.5h30a5,5,0,0,1,5,5v12a5,5,0,0,1,-5,5h-30a5,5,0,0,1,-5,-5v-12a5,5,0,0,1,5,-5z"></path><g id="node_text9" fill="black"><text id="kity_text_79" text-rendering="inherit" font-size="12" dy=".8em" y="303.7000000476837" x="633.5">?, ()</text></g></g><g id="minder_node13"><g id="node_expander9" display="none" style="cursor: pointer;"><path id="kity_path_140" fill="white" stroke="gray" d="M623.5,363.5A6,6,0,1,1,611.5,363.5A6,6,0,1,1,623.5,363.5"></path><path id="kity_path_141" fill="none" stroke="gray"></path></g><path id="node_outline10" fill="none" stroke="none" d="M628.5,352.5h148a5,5,0,0,1,5,5v12a5,5,0,0,1,-5,5h-148a5,5,0,0,1,-5,-5v-12a5,5,0,0,1,5,-5z"></path><g id="node_text10" fill="black"><text id="kity_text_81" text-rendering="inherit" font-size="12" dy=".8em" y="355.7000000476837" x="633.5">:param, {"param": value}</text></g></g><g id="minder_node14"><g id="node_expander12" display="none" style="cursor: pointer;"><path id="kity_path_149" fill="white" stroke="gray" d="M364.5,415.5A6,6,0,1,1,352.5,415.5A6,6,0,1,1,364.5,415.5"></path><path id="kity_path_150" fill="none" stroke="gray"></path></g><path id="node_outline13" fill="none" stroke="none" d="M369.5,404.5h95a5,5,0,0,1,5,5v12a5,5,0,0,1,-5,5h-95a5,5,0,0,1,-5,-5v-12a5,5,0,0,1,5,-5z"></path><g id="node_text13" fill="black"><text id="kity_text_87" text-rendering="inherit" font-size="12" dy=".8em" y="407.7000000476837" x="374.5">executeMany()</text></g></g><g id="minder_node15"><g id="node_expander13" display="none" style="cursor: pointer;"><path id="kity_path_152" fill="white" stroke="gray" d="M364.5,467.5A6,6,0,1,1,352.5,467.5A6,6,0,1,1,364.5,467.5"></path><path id="kity_path_153" fill="none" stroke="gray"></path></g><path id="node_outline14" fill="none" stroke="none" d="M369.5,456.5h69a5,5,0,0,1,5,5v12a5,5,0,0,1,-5,5h-69a5,5,0,0,1,-5,-5v-12a5,5,0,0,1,5,-5z"></path><g id="node_text14" fill="black"><text id="kity_text_89" text-rendering="inherit" font-size="12" dy=".8em" y="459.7000000476837" x="374.5">fetchone()</text></g></g><g id="minder_node16"><g id="node_expander14" display="none" style="cursor: pointer;"><path id="kity_path_155" fill="white" stroke="gray" d="M364.5,519.5A6,6,0,1,1,352.5,519.5A6,6,0,1,1,364.5,519.5"></path><path id="kity_path_156" fill="none" stroke="gray"></path></g><path id="node_outline15" fill="none" stroke="none" d="M369.5,508.5h60a5,5,0,0,1,5,5v12a5,5,0,0,1,-5,5h-60a5,5,0,0,1,-5,-5v-12a5,5,0,0,1,5,-5z"></path><g id="node_text15" fill="black"><text id="kity_text_91" text-rendering="inherit" font-size="12" dy=".8em" y="511.7000000476837" x="374.5">fetchall()</text></g></g><g id="minder_node17"><g id="node_expander15" display="none" style="cursor: pointer;"><path id="kity_path_158" fill="white" stroke="gray" d="M364.5,571.5A6,6,0,1,1,352.5,571.5A6,6,0,1,1,364.5,571.5"></path><path id="kity_path_159" fill="none" stroke="gray"></path></g><path id="node_outline16" fill="none" stroke="none" d="M369.5,560.5h62a5,5,0,0,1,5,5v12a5,5,0,0,1,-5,5h-62a5,5,0,0,1,-5,-5v-12a5,5,0,0,1,5,-5z"></path><g id="node_text16" fill="black"><text id="kity_text_93" text-rendering="inherit" font-size="12" dy=".8em" y="563.7000000476837" x="374.5">commit()</text></g></g><g id="minder_node18"><g id="node_expander16" display="none" style="cursor: pointer;"><path id="kity_path_161" fill="white" stroke="gray" d="M364.5,623.5A6,6,0,1,1,352.5,623.5A6,6,0,1,1,364.5,623.5"></path><path id="kity_path_162" fill="none" stroke="gray"></path></g><path id="node_outline17" fill="none" stroke="none" d="M369.5,612.5h63a5,5,0,0,1,5,5v12a5,5,0,0,1,-5,5h-63a5,5,0,0,1,-5,-5v-12a5,5,0,0,1,5,-5z"></path><g id="node_text17" fill="black"><text id="kity_text_95" text-rendering="inherit" font-size="12" dy=".8em" y="615.7000000476837" x="374.5">rollback()</text></g></g></g></g></svg>