<svg id="kity_svg_6" xmlns="http://www.w3.org/2000/svg" xmlns:xlink="http://www.w3.org/1999/xlink" version="1.1" width="912" height="1042" style="background: rgb(251, 251, 251); visibility: visible;" viewBox="0 0 912 1042"><defs id="kity_defs_7"><linearGradient id="kity_linearGradient_17" x1="0" y1="0" x2="0" y2="1"><stop id="kity_stop_18" offset="0" stop-color="rgb(255, 255, 255)"></stop><stop id="kity_stop_19" offset="1" stop-color="rgb(204, 204, 204)"></stop></linearGradient><marker id="kity_marker_2" orient="auto" refX="6" refY="0" viewBox="-7 -7 14 14" markerWidth="7" markerHeight="7" markerUnits="userSpaceOnUse"><path id="kity_path_3" fill="rgb(115, 161, 191)" stroke="none" d="M6,0A6,6,0,1,1,-6,0A6,6,0,1,1,6,0"></path></marker></defs><g id="kity_g_8"><g id="minder1" text-rendering="optimize-speed"><g id="minder_connect_group1"><path id="kity_path_31" fill="none" stroke="rgb(115, 161, 191)" stroke-width="1" d="M70,443.5A167.5,386,0,0,1,237.5,57.5"></path><path id="kity_path_33" fill="none" stroke="rgb(115, 161, 191)" stroke-width="1" d="M426.5,57.5C446.5,57.5,446.5,31.5,466.5,31.5"></path><path id="kity_path_35" fill="none" stroke="rgb(115, 161, 191)" stroke-width="1" d="M426.5,57.5C446.5,57.5,446.5,83.5,466.5,83.5"></path><path id="kity_path_37" fill="none" stroke="rgb(115, 161, 191)" stroke-width="1" d="M70,443.5A167.5,246,0,0,1,237.5,197.5"></path><path id="kity_path_39" fill="none" stroke="rgb(115, 161, 191)" stroke-width="1" d="M356.5,197.5C376.5,197.5,376.5,145.5,396.5,145.5"></path><path id="kity_path_41" fill="none" stroke="rgb(115, 161, 191)" stroke-width="1" d="M356.5,197.5C376.5,197.5,376.5,197.5,396.5,197.5"></path><path id="kity_path_43" fill="none" stroke="rgb(115, 161, 191)" stroke-width="1" d="M356.5,197.5C376.5,197.5,376.5,249.5,396.5,249.5"></path><path id="kity_path_45" fill="none" stroke="rgb(115, 161, 191)" stroke-width="1" d="M70,443.5A167.5,37,0,0,0,237.5,480.5"></path><path id="kity_path_47" fill="none" stroke="rgb(115, 161, 191)" stroke-width="1" d="M324.5,480.5C344.5,480.5,344.5,337.5,364.5,337.5"></path><path id="kity_path_49" fill="none" stroke="rgb(115, 161, 191)" stroke-width="1" d="M543.5,337.5C563.5,337.5,563.5,337.5,583.5,337.5"></path><path id="kity_path_51" fill="none" stroke="rgb(115, 161, 191)" stroke-width="1" d="M653.5,337.5C673.5,337.5,673.5,311.5,693.5,311.5"></path><path id="kity_path_53" fill="none" stroke="rgb(115, 161, 191)" stroke-width="1" d="M653.5,337.5C673.5,337.5,673.5,363.5,693.5,363.5"></path><path id="kity_path_55" fill="none" stroke="rgb(115, 161, 191)" stroke-width="1" d="M324.5,480.5C344.5,480.5,344.5,415.5,364.5,415.5"></path><path id="kity_path_57" fill="none" stroke="rgb(115, 161, 191)" stroke-width="1" d="M324.5,480.5C344.5,480.5,344.5,467.5,364.5,467.5"></path><path id="kity_path_59" fill="none" stroke="rgb(115, 161, 191)" stroke-width="1" d="M324.5,480.5C344.5,480.5,344.5,519.5,364.5,519.5"></path><path id="kity_path_61" fill="none" stroke="rgb(115, 161, 191)" stroke-width="1" d="M324.5,480.5C344.5,480.5,344.5,571.5,364.5,571.5"></path><path id="kity_path_63" fill="none" stroke="rgb(115, 161, 191)" stroke-width="1" d="M324.5,480.5C344.5,480.5,344.5,623.5,364.5,623.5"></path><path id="kity_path_65" fill="none" stroke="rgb(115, 161, 191)" stroke-width="1" d="M70,443.5A167.5,244,0,0,0,237.5,687.5"></path><path id="kity_path_67" fill="none" stroke="rgb(115, 161, 191)" stroke-width="1" d="M70,443.5A167.5,386,0,0,0,237.5,829.5"></path><path id="kity_path_69" fill="none" stroke="rgb(115, 161, 191)" stroke-width="1" d="M351.5,829.5C371.5,829.5,371.5,751.5,391.5,751.5"></path><path id="kity_path_71" fill="none" stroke="rgb(115, 161, 191)" stroke-width="1" d="M351.5,829.5C371.5,829.5,371.5,907.5,391.5,907.5"></path><path id="kity_path_73" fill="none" stroke="rgb(115, 161, 191)" stroke-width="1" d="M503.5,907.5C523.5,907.5,523.5,803.5,543.5,803.5"></path><path id="kity_path_75" fill="none" stroke="rgb(115, 161, 191)" stroke-width="1" d="M503.5,907.5C523.5,907.5,523.5,855.5,543.5,855.5"></path><path id="kity_path_77" fill="none" stroke="rgb(115, 161, 191)" stroke-width="1" d="M503.5,907.5C523.5,907.5,523.5,907.5,543.5,907.5"></path><path id="kity_path_79" fill="none" stroke="rgb(115, 161, 191)" stroke-width="1" d="M503.5,907.5C523.5,907.5,523.5,959.5,543.5,959.5"></path><path id="kity_path_81" fill="none" stroke="rgb(115, 161, 191)" stroke-width="1" d="M503.5,907.5C523.5,907.5,523.5,1011.5,543.5,1011.5"></path></g><g id="minder_node1"><path id="node_outline1" fill="rgb(115, 161, 191)" stroke="rgb(57, 80, 96)" d="M25.5,423.5h89a5,5,0,0,1,5,5v30a5,5,0,0,1,-5,5h-89a5,5,0,0,1,-5,-5v-30a5,5,0,0,1,5,-5z" stroke-width="3"></path><g id="node_text1" fill="white"><text id="kity_text_22" text-rendering="inherit" font-size="16" dy=".8em" y="433.09999990463257" x="44.5">sqlite3</text></g></g><g id="kity_g_12"><path id="kity_path_13" fill="none" stroke="none" d="M44.5,443.5h0v0h0z"></path></g><g id="kity_g_14"><path id="kity_path_15" fill="none" stroke="none" d="M44.5,443.5h0v0h0z"></path><path id="kity_path_16" fill="none" stroke="none"></path></g><g id="minder_node2"><g id="node_expander3" style="cursor: pointer;"><path id="kity_path_167" fill="white" stroke="gray" d="M238.5,57.5A6,6,0,1,1,226.5,57.5A6,6,0,1,1,238.5,57.5"></path><path id="kity_path_168" fill="none" stroke="gray" d="M228,57.5L237,57.5"></path></g><path id="node_outline4" fill="rgb(238, 243, 246)" stroke="rgb(115, 161, 191)" d="M242.5,44.5h181a3,3,0,0,1,3,3v20a3,3,0,0,1,-3,3h-181a3,3,0,0,1,-3,-3v-20a3,3,0,0,1,3,-3z" stroke-width="1"></path><g id="node_text4" fill="black"><text id="kity_text_87" text-rendering="inherit" font-size="14" dy=".8em" y="48.40000009536743" x="259.5">connect(): Connection</text></g></g><g id="minder_node3"><g id="node_expander1" display="none" style="cursor: pointer;"><path id="kity_path_161" fill="white" stroke="gray" d="M466.5,31.5A6,6,0,1,1,454.5,31.5A6,6,0,1,1,466.5,31.5"></path><path id="kity_path_162" fill="none" stroke="gray"></path></g><path id="node_outline2" fill="none" stroke="none" d="M471.5,20.5h77a5,5,0,0,1,5,5v12a5,5,0,0,1,-5,5h-77a5,5,0,0,1,-5,-5v-12a5,5,0,0,1,5,-5z"></path><g id="node_text2" fill="black"><text id="kity_text_83" text-rendering="inherit" font-size="12" dy=".8em" y="23.700000047683716" x="476.5">&lt;file_path&gt;</text></g></g><g id="minder_node4"><g id="node_expander2" display="none" style="cursor: pointer;"><path id="kity_path_164" fill="white" stroke="gray" d="M466.5,83.5A6,6,0,1,1,454.5,83.5A6,6,0,1,1,466.5,83.5"></path><path id="kity_path_165" fill="none" stroke="gray"></path></g><path id="node_outline3" fill="none" stroke="none" d="M471.5,72.5h74a5,5,0,0,1,5,5v12a5,5,0,0,1,-5,5h-74a5,5,0,0,1,-5,-5v-12a5,5,0,0,1,5,-5z"></path><g id="node_text3" fill="black"><text id="kity_text_85" text-rendering="inherit" font-size="12" dy=".8em" y="75.70000004768372" x="476.5">":memory:"</text></g></g><g id="minder_node5"><g id="node_expander7" style="cursor: pointer;"><path id="kity_path_179" fill="white" stroke="gray" d="M238.5,197.5A6,6,0,1,1,226.5,197.5A6,6,0,1,1,238.5,197.5"></path><path id="kity_path_180" fill="none" stroke="gray" d="M228,197.5L237,197.5"></path></g><path id="node_outline8" fill="rgb(238, 243, 246)" stroke="rgb(115, 161, 191)" d="M242.5,184.5h111a3,3,0,0,1,3,3v20a3,3,0,0,1,-3,3h-111a3,3,0,0,1,-3,-3v-20a3,3,0,0,1,3,-3z" stroke-width="1"></path><g id="node_text8" fill="black"><text id="kity_text_95" text-rendering="inherit" font-size="14" dy=".8em" y="188.40000009536743" x="259.5">Connection</text></g></g><g id="minder_node6"><g id="node_expander4" display="none" style="cursor: pointer;"><path id="kity_path_170" fill="white" stroke="gray" d="M396.5,145.5A6,6,0,1,1,384.5,145.5A6,6,0,1,1,396.5,145.5"></path><path id="kity_path_171" fill="none" stroke="gray"></path></g><path id="node_outline5" fill="none" stroke="none" d="M401.5,134.5h98a5,5,0,0,1,5,5v12a5,5,0,0,1,-5,5h-98a5,5,0,0,1,-5,-5v-12a5,5,0,0,1,5,-5z"></path><g id="node_text5" fill="black"><text id="kity_text_89" text-rendering="inherit" font-size="12" dy=".8em" y="137.70000004768372" x="406.5">cursor(): Cursor</text></g></g><g id="minder_node7"><g id="node_expander5" display="none" style="cursor: pointer;"><path id="kity_path_173" fill="white" stroke="gray" d="M396.5,197.5A6,6,0,1,1,384.5,197.5A6,6,0,1,1,396.5,197.5"></path><path id="kity_path_174" fill="none" stroke="gray"></path></g><path id="node_outline6" fill="none" stroke="none" d="M401.5,186.5h62a5,5,0,0,1,5,5v12a5,5,0,0,1,-5,5h-62a5,5,0,0,1,-5,-5v-12a5,5,0,0,1,5,-5z"></path><g id="node_text6" fill="black"><text id="kity_text_91" text-rendering="inherit" font-size="12" dy=".8em" y="189.70000004768372" x="406.5">commit()</text></g></g><g id="minder_node8"><g id="node_expander6" display="none" style="cursor: pointer;"><path id="kity_path_176" fill="white" stroke="gray" d="M396.5,249.5A6,6,0,1,1,384.5,249.5A6,6,0,1,1,396.5,249.5"></path><path id="kity_path_177" fill="none" stroke="gray"></path></g><path id="node_outline7" fill="none" stroke="none" d="M401.5,238.5h47a5,5,0,0,1,5,5v12a5,5,0,0,1,-5,5h-47a5,5,0,0,1,-5,-5v-12a5,5,0,0,1,5,-5z"></path><g id="node_text7" fill="black"><text id="kity_text_93" text-rendering="inherit" font-size="12" dy=".8em" y="241.70000004768372" x="406.5">close()</text></g></g><g id="minder_node9"><g id="node_expander17" style="cursor: pointer;"><path id="kity_path_209" fill="white" stroke="gray" d="M238.5,480.5A6,6,0,1,1,226.5,480.5A6,6,0,1,1,238.5,480.5"></path><path id="kity_path_210" fill="none" stroke="gray" d="M228,480.5L237,480.5"></path></g><path id="node_outline18" fill="rgb(238, 243, 246)" stroke="rgb(115, 161, 191)" d="M242.5,467.5h79a3,3,0,0,1,3,3v20a3,3,0,0,1,-3,3h-79a3,3,0,0,1,-3,-3v-20a3,3,0,0,1,3,-3z" stroke-width="1"></path><g id="node_text18" fill="black"><text id="kity_text_115" text-rendering="inherit" font-size="14" dy=".8em" y="471.40000009536743" x="259.5">Cursor</text></g></g><g id="minder_node10"><g id="node_expander11" style="cursor: pointer;"><path id="kity_path_191" fill="white" stroke="gray" d="M364.5,337.5A6,6,0,1,1,352.5,337.5A6,6,0,1,1,364.5,337.5"></path><path id="kity_path_192" fill="none" stroke="gray" d="M354,337.5L363,337.5"></path></g><path id="node_outline12" fill="none" stroke="none" d="M369.5,326.5h169a5,5,0,0,1,5,5v12a5,5,0,0,1,-5,5h-169a5,5,0,0,1,-5,-5v-12a5,5,0,0,1,5,-5z"></path><g id="node_text12" fill="black"><text id="kity_text_103" text-rendering="inherit" font-size="12" dy=".8em" y="329.7000000476837" x="374.5">execute(stmt, args): Iterator</text></g></g><g id="minder_node11"><g id="node_expander10" style="cursor: pointer;"><path id="kity_path_188" fill="white" stroke="gray" d="M583.5,337.5A6,6,0,1,1,571.5,337.5A6,6,0,1,1,583.5,337.5"></path><path id="kity_path_189" fill="none" stroke="gray" d="M573,337.5L582,337.5"></path></g><path id="node_outline11" fill="none" stroke="none" d="M588.5,326.5h60a5,5,0,0,1,5,5v12a5,5,0,0,1,-5,5h-60a5,5,0,0,1,-5,-5v-12a5,5,0,0,1,5,-5z"></path><g id="node_text11" fill="black"><text id="kity_text_101" text-rendering="inherit" font-size="12" dy=".8em" y="329.7000000476837" x="593.5">变量替换</text></g></g><g id="minder_node12"><g id="node_expander8" display="none" style="cursor: pointer;"><path id="kity_path_182" fill="white" stroke="gray" d="M693.5,311.5A6,6,0,1,1,681.5,311.5A6,6,0,1,1,693.5,311.5"></path><path id="kity_path_183" fill="none" stroke="gray"></path></g><path id="node_outline9" fill="none" stroke="none" d="M698.5,300.5h92a5,5,0,0,1,5,5v12a5,5,0,0,1,-5,5h-92a5,5,0,0,1,-5,-5v-12a5,5,0,0,1,5,-5z"></path><g id="node_text9" fill="black"><text id="kity_text_97" text-rendering="inherit" font-size="12" dy=".8em" y="303.7000000476837" x="703.5">"column=?", ()</text></g></g><g id="minder_node13"><g id="node_expander9" display="none" style="cursor: pointer;"><path id="kity_path_185" fill="white" stroke="gray" d="M693.5,363.5A6,6,0,1,1,681.5,363.5A6,6,0,1,1,693.5,363.5"></path><path id="kity_path_186" fill="none" stroke="gray"></path></g><path id="node_outline10" fill="none" stroke="none" d="M698.5,352.5h189a5,5,0,0,1,5,5v12a5,5,0,0,1,-5,5h-189a5,5,0,0,1,-5,-5v-12a5,5,0,0,1,5,-5z"></path><g id="node_text10" fill="black"><text id="kity_text_99" text-rendering="inherit" font-size="12" dy=".8em" y="355.7000000476837" x="703.5">"column=:arg1", {"arg1": value}</text></g></g><g id="minder_node14"><g id="node_expander12" display="none" style="cursor: pointer;"><path id="kity_path_194" fill="white" stroke="gray" d="M364.5,415.5A6,6,0,1,1,352.5,415.5A6,6,0,1,1,364.5,415.5"></path><path id="kity_path_195" fill="none" stroke="gray"></path></g><path id="node_outline13" fill="none" stroke="none" d="M369.5,404.5h143a5,5,0,0,1,5,5v12a5,5,0,0,1,-5,5h-143a5,5,0,0,1,-5,-5v-12a5,5,0,0,1,5,-5z"></path><g id="node_text13" fill="black"><text id="kity_text_105" text-rendering="inherit" font-size="12" dy=".8em" y="407.7000000476837" x="374.5">executeMany(stmt, [...])</text></g></g><g id="minder_node15"><g id="node_expander13" display="none" style="cursor: pointer;"><path id="kity_path_197" fill="white" stroke="gray" d="M364.5,467.5A6,6,0,1,1,352.5,467.5A6,6,0,1,1,364.5,467.5"></path><path id="kity_path_198" fill="none" stroke="gray"></path></g><path id="node_outline14" fill="none" stroke="none" d="M369.5,456.5h101a5,5,0,0,1,5,5v12a5,5,0,0,1,-5,5h-101a5,5,0,0,1,-5,-5v-12a5,5,0,0,1,5,-5z"></path><g id="node_text14" fill="black"><text id="kity_text_107" text-rendering="inherit" font-size="12" dy=".8em" y="459.7000000476837" x="374.5">fetchone(): Row</text></g></g><g id="minder_node16"><g id="node_expander14" display="none" style="cursor: pointer;"><path id="kity_path_200" fill="white" stroke="gray" d="M364.5,519.5A6,6,0,1,1,352.5,519.5A6,6,0,1,1,364.5,519.5"></path><path id="kity_path_201" fill="none" stroke="gray"></path></g><path id="node_outline15" fill="none" stroke="none" d="M369.5,508.5h99a5,5,0,0,1,5,5v12a5,5,0,0,1,-5,5h-99a5,5,0,0,1,-5,-5v-12a5,5,0,0,1,5,-5z"></path><g id="node_text15" fill="black"><text id="kity_text_109" text-rendering="inherit" font-size="12" dy=".8em" y="511.7000000476837" x="374.5">fetchall(): [Row]</text></g></g><g id="minder_node17"><g id="node_expander15" display="none" style="cursor: pointer;"><path id="kity_path_203" fill="white" stroke="gray" d="M364.5,571.5A6,6,0,1,1,352.5,571.5A6,6,0,1,1,364.5,571.5"></path><path id="kity_path_204" fill="none" stroke="gray"></path></g><path id="node_outline16" fill="none" stroke="none" d="M369.5,560.5h62a5,5,0,0,1,5,5v12a5,5,0,0,1,-5,5h-62a5,5,0,0,1,-5,-5v-12a5,5,0,0,1,5,-5z"></path><g id="node_text16" fill="black"><text id="kity_text_111" text-rendering="inherit" font-size="12" dy=".8em" y="563.7000000476837" x="374.5">commit()</text></g></g><g id="minder_node18"><g id="node_expander16" display="none" style="cursor: pointer;"><path id="kity_path_206" fill="white" stroke="gray" d="M364.5,623.5A6,6,0,1,1,352.5,623.5A6,6,0,1,1,364.5,623.5"></path><path id="kity_path_207" fill="none" stroke="gray"></path></g><path id="node_outline17" fill="none" stroke="none" d="M369.5,612.5h63a5,5,0,0,1,5,5v12a5,5,0,0,1,-5,5h-63a5,5,0,0,1,-5,-5v-12a5,5,0,0,1,5,-5z"></path><g id="node_text17" fill="black"><text id="kity_text_113" text-rendering="inherit" font-size="12" dy=".8em" y="615.7000000476837" x="374.5">rollback()</text></g></g><g id="minder_node19"><g id="node_expander18" display="none" style="cursor: pointer;"><path id="kity_path_212" fill="white" stroke="gray" d="M238.5,687.5A6,6,0,1,1,226.5,687.5A6,6,0,1,1,238.5,687.5"></path><path id="kity_path_213" fill="none" stroke="gray"></path></g><path id="node_outline19" fill="rgb(238, 243, 246)" stroke="rgb(115, 161, 191)" d="M242.5,674.5h64a3,3,0,0,1,3,3v20a3,3,0,0,1,-3,3h-64a3,3,0,0,1,-3,-3v-20a3,3,0,0,1,3,-3z" stroke-width="1"></path><g id="node_text19" fill="black"><text id="kity_text_117" text-rendering="inherit" font-size="14" dy=".8em" y="678.4000000953674" x="259.5">Row</text></g></g><g id="minder_node20"><g id="node_expander26" style="cursor: pointer;"><path id="kity_path_236" fill="white" stroke="gray" d="M238.5,829.5A6,6,0,1,1,226.5,829.5A6,6,0,1,1,238.5,829.5"></path><path id="kity_path_237" fill="none" stroke="gray" d="M228,829.5L237,829.5"></path></g><path id="node_outline27" fill="rgb(238, 243, 246)" stroke="rgb(115, 161, 191)" d="M242.5,816.5h106a3,3,0,0,1,3,3v20a3,3,0,0,1,-3,3h-106a3,3,0,0,1,-3,-3v-20a3,3,0,0,1,3,-3z" stroke-width="1"></path><g id="node_text27" fill="black"><text id="kity_text_133" text-rendering="inherit" font-size="14" dy=".8em" y="820.4000000953674" x="259.5">Exceptions</text></g></g><g id="minder_node21"><g id="node_expander19" display="none" style="cursor: pointer;"><path id="kity_path_215" fill="white" stroke="gray" d="M391.5,751.5A6,6,0,1,1,379.5,751.5A6,6,0,1,1,391.5,751.5"></path><path id="kity_path_216" fill="none" stroke="gray"></path></g><path id="node_outline20" fill="none" stroke="none" d="M396.5,740.5h124a5,5,0,0,1,5,5v12a5,5,0,0,1,-5,5h-124a5,5,0,0,1,-5,-5v-12a5,5,0,0,1,5,-5z"></path><g id="node_text20" fill="black"><text id="kity_text_119" text-rendering="inherit" font-size="12" dy=".8em" y="743.7000000476837" x="401.5">Warning(Exception)</text></g></g><g id="minder_node22"><g id="node_expander25" style="cursor: pointer;"><path id="kity_path_233" fill="white" stroke="gray" d="M391.5,907.5A6,6,0,1,1,379.5,907.5A6,6,0,1,1,391.5,907.5"></path><path id="kity_path_234" fill="none" stroke="gray" d="M381,907.5L390,907.5"></path></g><path id="node_outline26" fill="none" stroke="none" d="M396.5,896.5h102a5,5,0,0,1,5,5v12a5,5,0,0,1,-5,5h-102a5,5,0,0,1,-5,-5v-12a5,5,0,0,1,5,-5z"></path><g id="node_text26" fill="black"><text id="kity_text_131" text-rendering="inherit" font-size="12" dy=".8em" y="899.7000000476837" x="401.5">Error(Exception)</text></g></g><g id="minder_node23"><g id="node_expander20" display="none" style="cursor: pointer;"><path id="kity_path_218" fill="white" stroke="gray" d="M543.5,803.5A6,6,0,1,1,531.5,803.5A6,6,0,1,1,543.5,803.5"></path><path id="kity_path_219" fill="none" stroke="gray"></path></g><path id="node_outline21" fill="none" stroke="none" d="M548.5,792.5h92a5,5,0,0,1,5,5v12a5,5,0,0,1,-5,5h-92a5,5,0,0,1,-5,-5v-12a5,5,0,0,1,5,-5z"></path><g id="node_text21" fill="black"><text id="kity_text_121" text-rendering="inherit" font-size="12" dy=".8em" y="795.7000000476837" x="553.5">DatabaseError</text></g></g><g id="minder_node24"><g id="node_expander21" display="none" style="cursor: pointer;"><path id="kity_path_221" fill="white" stroke="gray" d="M543.5,855.5A6,6,0,1,1,531.5,855.5A6,6,0,1,1,543.5,855.5"></path><path id="kity_path_222" fill="none" stroke="gray"></path></g><path id="node_outline22" fill="none" stroke="none" d="M548.5,844.5h87a5,5,0,0,1,5,5v12a5,5,0,0,1,-5,5h-87a5,5,0,0,1,-5,-5v-12a5,5,0,0,1,5,-5z"></path><g id="node_text22" fill="black"><text id="kity_text_123" text-rendering="inherit" font-size="12" dy=".8em" y="847.7000000476837" x="553.5">IntegrityError</text></g></g><g id="minder_node25"><g id="node_expander22" display="none" style="cursor: pointer;"><path id="kity_path_224" fill="white" stroke="gray" d="M543.5,907.5A6,6,0,1,1,531.5,907.5A6,6,0,1,1,543.5,907.5"></path><path id="kity_path_225" fill="none" stroke="gray"></path></g><path id="node_outline23" fill="none" stroke="none" d="M548.5,896.5h118a5,5,0,0,1,5,5v12a5,5,0,0,1,-5,5h-118a5,5,0,0,1,-5,-5v-12a5,5,0,0,1,5,-5z"></path><g id="node_text23" fill="black"><text id="kity_text_125" text-rendering="inherit" font-size="12" dy=".8em" y="899.7000000476837" x="553.5">ProgrammingError</text></g></g><g id="minder_node26"><g id="node_expander23" display="none" style="cursor: pointer;"><path id="kity_path_227" fill="white" stroke="gray" d="M543.5,959.5A6,6,0,1,1,531.5,959.5A6,6,0,1,1,543.5,959.5"></path><path id="kity_path_228" fill="none" stroke="gray"></path></g><path id="node_outline24" fill="none" stroke="none" d="M548.5,948.5h106a5,5,0,0,1,5,5v12a5,5,0,0,1,-5,5h-106a5,5,0,0,1,-5,-5v-12a5,5,0,0,1,5,-5z"></path><g id="node_text24" fill="black"><text id="kity_text_127" text-rendering="inherit" font-size="12" dy=".8em" y="951.7000000476837" x="553.5">OperationalError</text></g></g><g id="minder_node27"><g id="node_expander24" display="none" style="cursor: pointer;"><path id="kity_path_230" fill="white" stroke="gray" d="M543.5,1011.5A6,6,0,1,1,531.5,1011.5A6,6,0,1,1,543.5,1011.5"></path><path id="kity_path_231" fill="none" stroke="gray"></path></g><path id="node_outline25" fill="none" stroke="none" d="M548.5,1000.5h121a5,5,0,0,1,5,5v12a5,5,0,0,1,-5,5h-121a5,5,0,0,1,-5,-5v-12a5,5,0,0,1,5,-5z"></path><g id="node_text25" fill="black"><text id="kity_text_129" text-rendering="inherit" font-size="12" dy=".8em" y="1003.7000000476837" x="553.5">NotSupportedError</text></g></g></g></g></svg>