<svg id="kity_svg_6" xmlns="http://www.w3.org/2000/svg" xmlns:xlink="http://www.w3.org/1999/xlink" version="1.1" width="1130" height="1129" style="background: rgb(251, 251, 251); visibility: visible;" viewBox="0 0 1130 1129"><defs id="kity_defs_7"><linearGradient id="kity_linearGradient_17" x1="0" y1="0" x2="0" y2="1"><stop id="kity_stop_18" offset="0" stop-color="rgb(255, 255, 255)"></stop><stop id="kity_stop_19" offset="1" stop-color="rgb(204, 204, 204)"></stop></linearGradient><marker id="kity_marker_2" orient="auto" refX="6" refY="0" viewBox="-7 -7 14 14" markerWidth="7" markerHeight="7" markerUnits="userSpaceOnUse"><path id="kity_path_3" fill="rgb(115, 161, 191)" stroke="none" d="M6,0A6,6,0,1,1,-6,0A6,6,0,1,1,6,0"></path></marker></defs><g id="kity_g_8"><g id="minder1" text-rendering="optimize-speed"><g id="minder_connect_group1"><path id="kity_path_31" fill="none" stroke="rgb(115, 161, 191)" stroke-width="1" d="M543.0000165734971,525.4999861478799A196.5,91,0,0,1,739.5000165734971,434.4999861478799"></path><path id="kity_path_33" fill="none" stroke="rgb(115, 161, 191)" stroke-width="1" d="M809.5000165734971,434.4999861478799C824.5000165734971,434.4999861478799,824.5000165734971,396.4999861478799,839.5000165734971,396.4999861478799L945.5000165734971,396.4999861478799"></path><path id="kity_path_35" fill="none" stroke="rgb(115, 161, 191)" stroke-width="1" d="M809.5000165734971,434.4999861478799C824.5000165734971,434.4999861478799,824.5000165734971,448.4999861478799,839.5000165734971,448.4999861478799L980.5000165734971,448.4999861478799"></path><path id="kity_path_37" fill="none" stroke="rgb(115, 161, 191)" stroke-width="1" d="M809.5000165734971,434.4999861478799C824.5000165734971,434.4999861478799,824.5000165734971,500.4999861478799,839.5000165734971,500.4999861478799L937.5000165734971,500.4999861478799"></path><path id="kity_path_39" fill="none" stroke="rgb(115, 161, 191)" stroke-width="1" d="M543.0000165734971,525.4999861478799A196.5,25,0,0,0,739.5000165734971,550.4999861478799"></path><path id="kity_path_41" fill="none" stroke="rgb(115, 161, 191)" stroke-width="1" d="M810.5000165734971,550.4999861478799C825.5000165734971,550.4999861478799,825.5000165734971,564.4999861478799,840.5000165734971,564.4999861478799L1030.500016573497,564.4999861478799"></path><path id="kity_path_43" fill="none" stroke="rgb(115, 161, 191)" stroke-width="1" d="M543.0000165734971,525.4999861478799A196.5,91,0,0,0,739.5000165734971,616.4999861478799"></path><path id="kity_path_45" fill="none" stroke="rgb(115, 161, 191)" stroke-width="1" d="M809.5000165734971,616.4999861478799C824.5000165734971,616.4999861478799,824.5000165734971,630.4999861478799,839.5000165734971,630.4999861478799L919.5000165734971,630.4999861478799"></path><path id="kity_path_47" fill="none" stroke="rgb(115, 161, 191)" stroke-width="1" d="M919.5000165734971,630.4999861478799C934.5000165734971,630.4999861478799,934.5000165734971,630.4999861478799,949.5000165734971,630.4999861478799L1110.500016573497,630.4999861478799"></path><path id="kity_path_49" fill="none" stroke="rgb(115, 161, 191)" stroke-width="1" d="M543.0000165734971,525.4999861478799A196.5,492,0,0,0,346.5000165734971,33.499986147879895"></path><path id="kity_path_51" fill="none" stroke="rgb(115, 161, 191)" stroke-width="1" d="M275.5000165734971,33.499986147879895C260.5000165734971,33.499986147879895,260.5000165734971,47.499986147879895,245.50001657349708,47.499986147879895L141.50001657349708,47.499986147879895"></path><path id="kity_path_53" fill="none" stroke="rgb(115, 161, 191)" stroke-width="1" d="M543.0000165734971,525.4999861478799A196.5,38,0,0,0,346.5000165734971,487.4999861478799"></path><path id="kity_path_55" fill="none" stroke="rgb(115, 161, 191)" stroke-width="1" d="M275.5000165734971,487.4999861478799C260.5000165734971,487.4999861478799,260.5000165734971,111.4999861478799,245.50001657349708,111.4999861478799L121.50001657349708,111.4999861478799"></path><path id="kity_path_57" fill="none" stroke="rgb(115, 161, 191)" stroke-width="1" d="M275.5000165734971,487.4999861478799C260.5000165734971,487.4999861478799,260.5000165734971,215.4999861478799,245.50001657349708,215.4999861478799L146.50001657349708,215.4999861478799"></path><path id="kity_path_59" fill="none" stroke="rgb(115, 161, 191)" stroke-width="1" d="M275.5000165734971,487.4999861478799C260.5000165734971,487.4999861478799,260.5000165734971,267.4999861478799,245.50001657349708,267.4999861478799L136.50001657349708,267.4999861478799"></path><path id="kity_path_61" fill="none" stroke="rgb(115, 161, 191)" stroke-width="1" d="M275.5000165734971,487.4999861478799C260.5000165734971,487.4999861478799,260.5000165734971,319.4999861478799,245.50001657349708,319.4999861478799L111.50001657349708,319.4999861478799"></path><path id="kity_path_63" fill="none" stroke="rgb(115, 161, 191)" stroke-width="1" d="M275.5000165734971,487.4999861478799C260.5000165734971,487.4999861478799,260.5000165734971,371.4999861478799,245.50001657349708,371.4999861478799L122.50001657349708,371.4999861478799"></path><path id="kity_path_65" fill="none" stroke="rgb(115, 161, 191)" stroke-width="1" d="M275.5000165734971,487.4999861478799C260.5000165734971,487.4999861478799,260.5000165734971,423.4999861478799,245.50001657349708,423.4999861478799L190.50001657349708,423.4999861478799"></path><path id="kity_path_67" fill="none" stroke="rgb(115, 161, 191)" stroke-width="1" d="M275.5000165734971,487.4999861478799C260.5000165734971,487.4999861478799,260.5000165734971,475.4999861478799,245.50001657349708,475.4999861478799L115.50001657349708,475.4999861478799"></path><path id="kity_path_69" fill="none" stroke="rgb(115, 161, 191)" stroke-width="1" d="M275.5000165734971,487.4999861478799C260.5000165734971,487.4999861478799,260.5000165734971,527.4999861478799,245.50001657349708,527.4999861478799L91.50001657349708,527.4999861478799"></path><path id="kity_path_71" fill="none" stroke="rgb(115, 161, 191)" stroke-width="1" d="M275.5000165734971,487.4999861478799C260.5000165734971,487.4999861478799,260.5000165734971,579.4999861478799,245.50001657349708,579.4999861478799L117.50001657349708,579.4999861478799"></path><path id="kity_path_73" fill="none" stroke="rgb(115, 161, 191)" stroke-width="1" d="M275.5000165734971,487.4999861478799C260.5000165734971,487.4999861478799,260.5000165734971,631.4999861478799,245.50001657349708,631.4999861478799L156.50001657349708,631.4999861478799"></path><path id="kity_path_75" fill="none" stroke="rgb(115, 161, 191)" stroke-width="1" d="M275.5000165734971,487.4999861478799C260.5000165734971,487.4999861478799,260.5000165734971,683.4999861478799,245.50001657349708,683.4999861478799L107.50001657349708,683.4999861478799"></path><path id="kity_path_77" fill="none" stroke="rgb(115, 161, 191)" stroke-width="1" d="M275.5000165734971,487.4999861478799C260.5000165734971,487.4999861478799,260.5000165734971,735.4999861478799,245.50001657349708,735.4999861478799L66.50001657349708,735.4999861478799"></path><path id="kity_path_79" fill="none" stroke="rgb(115, 161, 191)" stroke-width="1" d="M275.5000165734971,487.4999861478799C260.5000165734971,487.4999861478799,260.5000165734971,787.4999861478799,245.50001657349708,787.4999861478799L159.50001657349708,787.4999861478799"></path><path id="kity_path_81" fill="none" stroke="rgb(115, 161, 191)" stroke-width="1" d="M275.5000165734971,487.4999861478799C260.5000165734971,487.4999861478799,260.5000165734971,839.4999861478799,245.50001657349708,839.4999861478799L156.50001657349708,839.4999861478799"></path><path id="kity_path_83" fill="none" stroke="rgb(115, 161, 191)" stroke-width="1" d="M275.5000165734971,487.4999861478799C260.5000165734971,487.4999861478799,260.5000165734971,891.4999861478799,245.50001657349708,891.4999861478799L80.50001657349708,891.4999861478799"></path><path id="kity_path_85" fill="none" stroke="rgb(115, 161, 191)" stroke-width="1" d="M543.0000165734971,525.4999861478799A196.5,492,0,0,1,346.5000165734971,1017.4999861478799"></path><path id="kity_path_87" fill="none" stroke="rgb(115, 161, 191)" stroke-width="1" d="M275.5000165734971,1017.4999861478799C260.5000165734971,1017.4999861478799,260.5000165734971,953.4999861478799,245.50001657349708,953.4999861478799L94.50001657349708,953.4999861478799"></path><path id="kity_path_89" fill="none" stroke="rgb(115, 161, 191)" stroke-width="1" d="M275.5000165734971,1017.4999861478799C260.5000165734971,1017.4999861478799,260.5000165734971,1005.4999861478799,245.50001657349708,1005.4999861478799L74.50001657349708,1005.4999861478799"></path><path id="kity_path_91" fill="none" stroke="rgb(115, 161, 191)" stroke-width="1" d="M275.5000165734971,1017.4999861478799C260.5000165734971,1017.4999861478799,260.5000165734971,1057.49998614788,245.50001657349708,1057.49998614788L20.500016573497078,1057.49998614788"></path><path id="kity_path_93" fill="none" stroke="rgb(115, 161, 191)" stroke-width="1" d="M275.5000165734971,1017.4999861478799C260.5000165734971,1017.4999861478799,260.5000165734971,1109.49998614788,245.50001657349708,1109.49998614788L181.50001657349708,1109.49998614788"></path><path id="kity_path_287" fill="none" stroke="rgb(115, 161, 191)" stroke-width="1" d="M275.5000165734971,487.4999861478799C260.5000165734971,487.4999861478799,260.5000165734971,163.4999861478799,245.50001657349708,163.4999861478799L73.50001657349708,163.4999861478799"></path></g><g id="minder_node1"><path id="node_outline1" fill="rgb(115, 161, 191)" stroke="rgb(115, 161, 191)" d="M469.5000165734971,505.4999861478799h147a5,5,0,0,1,5,5v30a5,5,0,0,1,-5,5h-147a5,5,0,0,1,-5,-5v-30a5,5,0,0,1,5,-5z" stroke-width="3"></path><g id="node_text1" fill="white"><text id="kity_text_22" text-rendering="inherit" font-size="16" dy=".8em" y="517.4999861478799" x="488.5000165734971">lightyears1998</text></g></g><g id="kity_g_12"><path id="kity_path_13" fill="none" stroke="none" d="M488.5000165734971,525.4999861478799h0v0h0z"></path></g><g id="kity_g_14"><path id="kity_path_15" fill="none" stroke="none" d="M488.5000165734971,525.4999861478799h0v0h0z"></path><path id="kity_path_16" fill="none" stroke="none"></path></g><g id="minder_node2"><g id="node_expander4" style="cursor: pointer;"><path id="kity_path_200" fill="white" stroke="gray" d="M740.5000183343884,434.4999855279916A6,6,0,1,1,728.5000183343884,434.4999855279916A6,6,0,1,1,740.5000183343884,434.4999855279916"></path><path id="kity_path_201" fill="none" stroke="gray" d="M730.0000183343884,434.4999855279916L739.0000183343884,434.4999855279916"></path></g><path id="node_outline5" fill="rgb(238, 243, 246)" stroke="rgb(115, 161, 191)" d="M744.5000184331618,421.4999855279916h62a3,3,0,0,1,3,3v20a3,3,0,0,1,-3,3h-62a3,3,0,0,1,-3,-3v-20a3,3,0,0,1,3,-3z" stroke-width="1"></path><g id="node_text5" fill="black"><text id="kity_text_101" text-rendering="inherit" font-size="14" dy=".8em" y="427.4999855279916" x="761.5000184331618">工具</text></g></g><g id="minder_node3"><g id="node_expander1" style="cursor: pointer;" display="none"><path id="kity_path_191" fill="white" stroke="gray" d="M849.5000189917425,382.4999851737698A6,6,0,1,1,837.5000189917425,382.4999851737698A6,6,0,1,1,849.5000189917425,382.4999851737698"></path><path id="kity_path_192" fill="none" stroke="gray"></path></g><path id="node_outline2" fill="none" stroke="none" d="M854.5000191007339,371.4999851737698h86a5,5,0,0,1,5,5v12a5,5,0,0,1,-5,5h-86a5,5,0,0,1,-5,-5v-12a5,5,0,0,1,5,-5z"></path><g id="node_text2" fill="black"><text id="kity_text_95" text-rendering="inherit" font-size="12" dy=".8em" y="376.4999851737698" x="859.5000191007339">react-scaffold</text></g></g><g id="minder_node4"><g id="node_expander2" style="cursor: pointer;" display="none"><path id="kity_path_194" fill="white" stroke="gray" d="M849.5000189917425,434.4999855279916A6,6,0,1,1,837.5000189917425,434.4999855279916A6,6,0,1,1,849.5000189917425,434.4999855279916"></path><path id="kity_path_195" fill="none" stroke="gray"></path></g><path id="node_outline3" fill="none" stroke="none" d="M854.5000191007339,423.4999855279916h121a5,5,0,0,1,5,5v12a5,5,0,0,1,-5,5h-121a5,5,0,0,1,-5,-5v-12a5,5,0,0,1,5,-5z"></path><g id="node_text3" fill="black"><text id="kity_text_97" text-rendering="inherit" font-size="12" dy=".8em" y="428.4999855279916" x="859.5000191007339">[undergo] typestore</text></g></g><g id="minder_node5"><g id="node_expander3" style="cursor: pointer;" display="none"><path id="kity_path_197" fill="white" stroke="gray" d="M849.5000189917425,486.4999858822135A6,6,0,1,1,837.5000189917425,486.4999858822135A6,6,0,1,1,849.5000189917425,486.4999858822135"></path><path id="kity_path_198" fill="none" stroke="gray"></path></g><path id="node_outline4" fill="none" stroke="none" d="M854.5000191007339,475.4999858822135h78a5,5,0,0,1,5,5v12a5,5,0,0,1,-5,5h-78a5,5,0,0,1,-5,-5v-12a5,5,0,0,1,5,-5z"></path><g id="node_text4" fill="black"><text id="kity_text_99" text-rendering="inherit" font-size="12" dy=".8em" y="480.4999858822135" x="859.5000191007339">aliyun-ddns</text></g></g><g id="minder_node6"><g id="node_expander6" style="cursor: pointer;"><path id="kity_path_206" fill="white" stroke="gray" d="M740.5000183343884,550.4999863181789A6,6,0,1,1,728.5000183343884,550.4999863181789A6,6,0,1,1,740.5000183343884,550.4999863181789"></path><path id="kity_path_207" fill="none" stroke="gray" d="M730.0000183343884,550.4999863181789L739.0000183343884,550.4999863181789"></path></g><path id="node_outline7" fill="rgb(238, 243, 246)" stroke="rgb(115, 161, 191)" d="M744.5000184331618,537.4999863181789h63a3,3,0,0,1,3,3v20a3,3,0,0,1,-3,3h-63a3,3,0,0,1,-3,-3v-20a3,3,0,0,1,3,-3z" stroke-width="1"></path><g id="node_text7" fill="black"><text id="kity_text_105" text-rendering="inherit" font-size="14" dy=".8em" y="543.4999863181789" x="761.5000184331618">规范</text></g></g><g id="minder_node7"><g id="node_expander5" style="cursor: pointer;" display="none"><path id="kity_path_203" fill="white" stroke="gray" d="M850.5000189985544,550.4999863181789A6,6,0,1,1,838.5000189985544,550.4999863181789A6,6,0,1,1,850.5000189985544,550.4999863181789"></path><path id="kity_path_204" fill="none" stroke="gray"></path></g><path id="node_outline6" fill="none" stroke="none" d="M855.5000191075458,539.4999863181789h170a5,5,0,0,1,5,5v12a5,5,0,0,1,-5,5h-170a5,5,0,0,1,-5,-5v-12a5,5,0,0,1,5,-5z"></path><g id="node_text6" fill="black"><text id="kity_text_103" text-rendering="inherit" font-size="12" dy=".8em" y="544.4999863181789" x="860.5000191075458">eslint-config-lightyears-style</text></g></g><g id="minder_node8"><g id="node_expander9" style="cursor: pointer;"><path id="kity_path_215" fill="white" stroke="gray" d="M740.5000183343884,616.4999867677682A6,6,0,1,1,728.5000183343884,616.4999867677682A6,6,0,1,1,740.5000183343884,616.4999867677682"></path><path id="kity_path_216" fill="none" stroke="gray" d="M730.0000183343884,616.4999867677682L739.0000183343884,616.4999867677682"></path></g><path id="node_outline10" fill="rgb(238, 243, 246)" stroke="rgb(115, 161, 191)" d="M744.5000184331618,603.4999867677682h62a3,3,0,0,1,3,3v20a3,3,0,0,1,-3,3h-62a3,3,0,0,1,-3,-3v-20a3,3,0,0,1,3,-3z" stroke-width="1"></path><g id="node_text10" fill="black"><text id="kity_text_111" text-rendering="inherit" font-size="14" dy=".8em" y="609.4999867677682" x="761.5000184331618">前端</text></g></g><g id="minder_node9"><g id="node_expander8" style="cursor: pointer;"><path id="kity_path_212" fill="white" stroke="gray" d="M849.5000189917425,616.4999867677682A6,6,0,1,1,837.5000189917425,616.4999867677682A6,6,0,1,1,849.5000189917425,616.4999867677682"></path><path id="kity_path_213" fill="none" stroke="gray" d="M839.0000189917425,616.4999867677682L848.0000189917425,616.4999867677682"></path></g><path id="node_outline9" fill="none" stroke="none" d="M854.5000191007339,605.4999867677682h60a5,5,0,0,1,5,5v12a5,5,0,0,1,-5,5h-60a5,5,0,0,1,-5,-5v-12a5,5,0,0,1,5,-5z"></path><g id="node_text9" fill="black"><text id="kity_text_109" text-rendering="inherit" font-size="12" dy=".8em" y="610.4999867677682" x="859.5000191007339">分支主题</text></g></g><g id="minder_node10"><g id="node_expander7" style="cursor: pointer;" display="none"><path id="kity_path_209" fill="white" stroke="gray" d="M959.5000197410579,616.4999867677682A6,6,0,1,1,947.5000197410579,616.4999867677682A6,6,0,1,1,959.5000197410579,616.4999867677682"></path><path id="kity_path_210" fill="none" stroke="gray"></path></g><path id="node_outline8" fill="none" stroke="none" d="M964.5000198500493,605.4999867677682h141a5,5,0,0,1,5,5v12a5,5,0,0,1,-5,5h-141a5,5,0,0,1,-5,-5v-12a5,5,0,0,1,5,-5z"></path><g id="node_text8" fill="black"><text id="kity_text_107" text-rendering="inherit" font-size="12" dy=".8em" y="610.4999867677682" x="969.5000198500493">wordpress-theme-erica</text></g></g><g id="minder_node11"><g id="node_expander11" style="cursor: pointer;"><path id="kity_path_221" fill="white" stroke="gray" d="M357.5000176838466,33.499982796396125A6,6,0,1,1,345.5000176838466,33.499982796396125A6,6,0,1,1,357.5000176838466,33.499982796396125"></path><path id="kity_path_222" fill="none" stroke="gray" d="M347.0000176838466,33.499982796396125L356.0000176838466,33.499982796396125"></path></g><path id="node_outline12" fill="rgb(238, 243, 246)" stroke="rgb(115, 161, 191)" d="M278.500015258789,20.499982796396125h63a3,3,0,0,1,3,3v20a3,3,0,0,1,-3,3h-63a3,3,0,0,1,-3,-3v-20a3,3,0,0,1,3,-3z" stroke-width="1"></path><g id="node_text12" fill="black"><text id="kity_text_115" text-rendering="inherit" font-size="14" dy=".8em" y="26.499982796396125" x="295.500015258789">游戏</text></g></g><g id="minder_node12"><g id="node_expander10" style="cursor: pointer;" display="none"><path id="kity_path_218" fill="white" stroke="gray" d="M247.50001642363412,33.499982796396125A6,6,0,1,1,235.50001642363412,33.499982796396125A6,6,0,1,1,247.50001642363412,33.499982796396125"></path><path id="kity_path_219" fill="none" stroke="gray"></path></g><path id="node_outline11" fill="none" stroke="none" d="M146.5000142778669,22.499982796396125h84a5,5,0,0,1,5,5v12a5,5,0,0,1,-5,5h-84a5,5,0,0,1,-5,-5v-12a5,5,0,0,1,5,-5z"></path><g id="node_text11" fill="black"><text id="kity_text_113" text-rendering="inherit" font-size="12" dy=".8em" y="27.499982796396125" x="151.5000142778669">[undergo] ltk</text></g></g><g id="minder_node13"><g id="node_expander27" style="cursor: pointer;"><path id="kity_path_269" fill="white" stroke="gray" d="M357.5000176838466,487.4999858890254A6,6,0,1,1,345.5000176838466,487.4999858890254A6,6,0,1,1,357.5000176838466,487.4999858890254"></path><path id="kity_path_270" fill="none" stroke="gray" d="M347.0000176838466,487.4999858890254L356.0000176838466,487.4999858890254"></path></g><path id="node_outline28" fill="rgb(238, 243, 246)" stroke="rgb(115, 161, 191)" d="M278.500015258789,474.4999858890254h63a3,3,0,0,1,3,3v20a3,3,0,0,1,-3,3h-63a3,3,0,0,1,-3,-3v-20a3,3,0,0,1,3,-3z" stroke-width="1"></path><g id="node_text28" fill="black"><text id="kity_text_147" text-rendering="inherit" font-size="14" dy=".8em" y="480.4999858890254" x="295.500015258789">玩具</text></g></g><g id="minder_node14"><g id="node_expander12" style="cursor: pointer;" display="none"><path id="kity_path_224" fill="white" stroke="gray" d="M247.50001676423216,97.49998323236144A6,6,0,1,1,235.50001676423216,97.49998323236144A6,6,0,1,1,247.50001676423216,97.49998323236144"></path><path id="kity_path_225" fill="none" stroke="gray"></path></g><path id="node_outline13" fill="none" stroke="none" d="M126.50001414162779,86.49998323236144h104a5,5,0,0,1,5,5v12a5,5,0,0,1,-5,5h-104a5,5,0,0,1,-5,-5v-12a5,5,0,0,1,5,-5z" stroke-width="3"></path><g id="node_text13" fill="black"><text id="kity_text_117" text-rendering="inherit" font-size="12" dy=".8em" y="91.49998323236144" x="131.5000141416278">ts-rotate-backup</text></g></g><g id="minder_node15"><g id="node_expander13" style="cursor: pointer;" display="none"><path id="kity_path_227" fill="white" stroke="gray" d="M247.5000163384846,201.49998394080518A6,6,0,1,1,235.5000163384846,201.49998394080518A6,6,0,1,1,247.5000163384846,201.49998394080518"></path><path id="kity_path_228" fill="none" stroke="gray"></path></g><path id="node_outline14" fill="none" stroke="none" d="M151.5000143119267,190.49998394080518h79a5,5,0,0,1,5,5v12a5,5,0,0,1,-5,5h-79a5,5,0,0,1,-5,-5v-12a5,5,0,0,1,5,-5z"></path><g id="node_text14" fill="black"><text id="kity_text_119" text-rendering="inherit" font-size="12" dy=".8em" y="195.49998394080518" x="156.5000143119267">relay-socket</text></g></g><g id="minder_node16"><g id="node_expander14" style="cursor: pointer;" display="none"><path id="kity_path_230" fill="white" stroke="gray" d="M247.50001650878357,253.49998429502705A6,6,0,1,1,235.50001650878357,253.49998429502705A6,6,0,1,1,247.50001650878357,253.49998429502705"></path><path id="kity_path_231" fill="none" stroke="gray"></path></g><path id="node_outline15" fill="none" stroke="none" d="M141.50001424380707,242.49998429502705h89a5,5,0,0,1,5,5v12a5,5,0,0,1,-5,5h-89a5,5,0,0,1,-5,-5v-12a5,5,0,0,1,5,-5z"></path><g id="node_text15" fill="black"><text id="kity_text_121" text-rendering="inherit" font-size="12" dy=".8em" y="247.49998429502705" x="146.50001424380707">hitokoto-shell</text></g></g><g id="minder_node17"><g id="node_expander15" style="cursor: pointer;" display="none"><path id="kity_path_233" fill="white" stroke="gray" d="M247.50001693453106,305.4999846492489A6,6,0,1,1,235.50001693453106,305.4999846492489A6,6,0,1,1,247.50001693453106,305.4999846492489"></path><path id="kity_path_234" fill="none" stroke="gray"></path></g><path id="node_outline16" fill="none" stroke="none" d="M116.50001407350811,294.4999846492489h114a5,5,0,0,1,5,5v12a5,5,0,0,1,-5,5h-114a5,5,0,0,1,-5,-5v-12a5,5,0,0,1,5,-5z"></path><g id="node_text16" fill="black"><text id="kity_text_123" text-rendering="inherit" font-size="12" dy=".8em" y="299.4999846492489" x="121.50001407350811">Markov-passphase</text></g></g><g id="minder_node18"><g id="node_expander16" style="cursor: pointer;" display="none"><path id="kity_path_236" fill="white" stroke="gray" d="M247.500010207721,357.4999850034708A6,6,0,1,1,235.500010207721,357.4999850034708A6,6,0,1,1,247.500010207721,357.4999850034708"></path><path id="kity_path_237" fill="none" stroke="gray"></path></g><path id="node_outline17" fill="none" stroke="none" d="M127.50001414843967,346.4999850034708h103a5,5,0,0,1,5,5v12a5,5,0,0,1,-5,5h-103a5,5,0,0,1,-5,-5v-12a5,5,0,0,1,5,-5z"></path><g id="node_text17" fill="black"><text id="kity_text_125" text-rendering="inherit" font-size="12" dy=".8em" y="351.4999850034708" x="132.50001414843967">MotionDetection</text></g></g><g id="minder_node19"><g id="node_expander17" style="cursor: pointer;" display="none"><path id="kity_path_239" fill="white" stroke="gray" d="M247.50001395429877,409.49998535769265A6,6,0,1,1,235.50001395429877,409.49998535769265A6,6,0,1,1,247.50001395429877,409.49998535769265"></path><path id="kity_path_240" fill="none" stroke="gray"></path></g><path id="node_outline18" fill="none" stroke="none" d="M195.5000146116529,398.49998535769265h35a5,5,0,0,1,5,5v12a5,5,0,0,1,-5,5h-35a5,5,0,0,1,-5,-5v-12a5,5,0,0,1,5,-5z"></path><g id="node_text18" fill="black"><text id="kity_text_127" text-rendering="inherit" font-size="12" dy=".8em" y="403.49998535769265" x="200.5000146116529">Tick</text></g></g><g id="minder_node20"><g id="node_expander18" style="cursor: pointer;" display="none"><path id="kity_path_242" fill="white" stroke="gray" d="M247.50001250675734,461.4999857119145A6,6,0,1,1,235.50001250675734,461.4999857119145A6,6,0,1,1,247.50001250675734,461.4999857119145"></path><path id="kity_path_243" fill="none" stroke="gray"></path></g><path id="node_outline19" fill="none" stroke="none" d="M120.50001410075595,450.4999857119145h110a5,5,0,0,1,5,5v12a5,5,0,0,1,-5,5h-110a5,5,0,0,1,-5,-5v-12a5,5,0,0,1,5,-5z"></path><g id="node_text19" fill="black"><text id="kity_text_129" text-rendering="inherit" font-size="12" dy=".8em" y="455.4999857119145" x="125.50001410075595">Wenku8-collector</text></g></g><g id="minder_node21"><g id="node_expander19" style="cursor: pointer;" display="none"><path id="kity_path_245" fill="white" stroke="gray" d="M247.50001727512904,513.4999860661364A6,6,0,1,1,235.50001727512904,513.4999860661364A6,6,0,1,1,247.50001727512904,513.4999860661364"></path><path id="kity_path_246" fill="none" stroke="gray"></path></g><path id="node_outline20" fill="none" stroke="none" d="M96.50001393726893,502.49998606613644h134a5,5,0,0,1,5,5v12a5,5,0,0,1,-5,5h-134a5,5,0,0,1,-5,-5v-12a5,5,0,0,1,5,-5z"></path><g id="node_text20" fill="black"><text id="kity_text_131" text-rendering="inherit" font-size="12" dy=".8em" y="507.49998606613644" x="101.50001393726893">gzhu-schedule-export</text></g></g><g id="minder_node22"><g id="node_expander20" style="cursor: pointer;" display="none"><path id="kity_path_248" fill="white" stroke="gray" d="M247.5000102928705,565.4999864203583A6,6,0,1,1,235.5000102928705,565.4999864203583A6,6,0,1,1,247.5000102928705,565.4999864203583"></path><path id="kity_path_249" fill="none" stroke="gray"></path></g><path id="node_outline21" fill="none" stroke="none" d="M122.5000141143799,554.4999864203583h108a5,5,0,0,1,5,5v12a5,5,0,0,1,-5,5h-108a5,5,0,0,1,-5,-5v-12a5,5,0,0,1,5,-5z"></path><g id="node_text21" fill="black"><text id="kity_text_133" text-rendering="inherit" font-size="12" dy=".8em" y="559.4999864203583" x="127.5000141143799">college-life-game</text></g></g><g id="minder_node23"><g id="node_expander21" style="cursor: pointer;" display="none"><path id="kity_path_251" fill="white" stroke="gray" d="M247.50001616818565,617.4999867745801A6,6,0,1,1,235.50001616818565,617.4999867745801A6,6,0,1,1,247.50001616818565,617.4999867745801"></path><path id="kity_path_252" fill="none" stroke="gray"></path></g><path id="node_outline22" fill="none" stroke="none" d="M161.5000143800463,606.4999867745801h69a5,5,0,0,1,5,5v12a5,5,0,0,1,-5,5h-69a5,5,0,0,1,-5,-5v-12a5,5,0,0,1,5,-5z"></path><g id="node_text22" fill="black"><text id="kity_text_135" text-rendering="inherit" font-size="12" dy=".8em" y="611.4999867745801" x="166.5000143800463">angelica-c</text></g></g><g id="minder_node24"><g id="node_expander22" style="cursor: pointer;" display="none"><path id="kity_path_254" fill="white" stroke="gray" d="M247.50001046316947,669.499987128802A6,6,0,1,1,235.50001046316947,669.499987128802A6,6,0,1,1,247.50001046316947,669.499987128802"></path><path id="kity_path_255" fill="none" stroke="gray"></path></g><path id="node_outline23" fill="none" stroke="none" d="M112.50001404626028,658.499987128802h118a5,5,0,0,1,5,5v12a5,5,0,0,1,-5,5h-118a5,5,0,0,1,-5,-5v-12a5,5,0,0,1,5,-5z"></path><g id="node_text23" fill="black"><text id="kity_text_137" text-rendering="inherit" font-size="12" dy=".8em" y="663.499987128802" x="117.50001404626028">509-network-traffic</text></g></g><g id="minder_node25"><g id="node_expander23" style="cursor: pointer;" display="none"><path id="kity_path_257" fill="white" stroke="gray" d="M247.5000177008765,721.4999874830239A6,6,0,1,1,235.5000177008765,721.4999874830239A6,6,0,1,1,247.5000177008765,721.4999874830239"></path><path id="kity_path_258" fill="none" stroke="gray"></path></g><path id="node_outline24" fill="none" stroke="none" d="M71.50001376696997,710.4999874830239h159a5,5,0,0,1,5,5v12a5,5,0,0,1,-5,5h-159a5,5,0,0,1,-5,-5v-12a5,5,0,0,1,5,-5z"></path><g id="node_text24" fill="black"><text id="kity_text_139" text-rendering="inherit" font-size="12" dy=".8em" y="715.4999874830239" x="76.50001376696997">student-info-management</text></g></g><g id="minder_node26"><g id="node_expander24" style="cursor: pointer;" display="none"><path id="kity_path_260" fill="white" stroke="gray" d="M247.50001284735532,773.4999878372457A6,6,0,1,1,235.50001284735532,773.4999878372457A6,6,0,1,1,247.50001284735532,773.4999878372457"></path><path id="kity_path_261" fill="none" stroke="gray"></path></g><path id="node_outline25" fill="none" stroke="none" d="M164.50001440048214,762.4999878372457h66a5,5,0,0,1,5,5v12a5,5,0,0,1,-5,5h-66a5,5,0,0,1,-5,-5v-12a5,5,0,0,1,5,-5z"></path><g id="node_text25" fill="black"><text id="kity_text_141" text-rendering="inherit" font-size="12" dy=".8em" y="767.4999878372457" x="169.50001440048214">kana-anki</text></g></g><g id="minder_node27"><g id="node_expander25" style="cursor: pointer;" display="none"><path id="kity_path_263" fill="white" stroke="gray" d="M247.50001616818565,825.4999881914675A6,6,0,1,1,235.50001616818565,825.4999881914675A6,6,0,1,1,247.50001616818565,825.4999881914675"></path><path id="kity_path_264" fill="none" stroke="gray"></path></g><path id="node_outline26" fill="none" stroke="none" d="M161.5000143800463,814.4999881914675h69a5,5,0,0,1,5,5v12a5,5,0,0,1,-5,5h-69a5,5,0,0,1,-5,-5v-12a5,5,0,0,1,5,-5z"></path><g id="node_text26" fill="black"><text id="kity_text_143" text-rendering="inherit" font-size="12" dy=".8em" y="819.4999881914675" x="166.5000143800463">chat-room</text></g></g><g id="minder_node28"><g id="node_expander26" style="cursor: pointer;" display="none"><path id="kity_path_266" fill="white" stroke="gray" d="M247.50001310280376,877.4999885456895A6,6,0,1,1,235.50001310280376,877.4999885456895A6,6,0,1,1,247.50001310280376,877.4999885456895"></path><path id="kity_path_267" fill="none" stroke="gray"></path></g><path id="node_outline27" fill="none" stroke="none" d="M85.50001386233737,866.4999885456895h145a5,5,0,0,1,5,5v12a5,5,0,0,1,-5,5h-145a5,5,0,0,1,-5,-5v-12a5,5,0,0,1,5,-5z" stroke-width="3"></path><g id="node_text27" fill="black"><text id="kity_text_145" text-rendering="inherit" font-size="12" dy=".8em" y="871.4999885456895" x="90.50001386233737">[broken] livere-collector</text></g></g><g id="minder_node29"><g id="node_expander32" style="cursor: pointer;"><path id="kity_path_284" fill="white" stroke="gray" d="M357.5000176838466,1017.4999894993637A6,6,0,1,1,345.5000176838466,1017.4999894993637A6,6,0,1,1,357.5000176838466,1017.4999894993637"></path><path id="kity_path_285" fill="none" stroke="gray" d="M347.0000176838466,1017.4999894993637L356.0000176838466,1017.4999894993637"></path></g><path id="node_outline33" fill="rgb(238, 243, 246)" stroke="rgb(115, 161, 191)" d="M278.500015258789,1004.4999894993637h63a3,3,0,0,1,3,3v20a3,3,0,0,1,-3,3h-63a3,3,0,0,1,-3,-3v-20a3,3,0,0,1,3,-3z" stroke-width="1"></path><g id="node_text33" fill="black"><text id="kity_text_157" text-rendering="inherit" font-size="14" dy=".8em" y="1010.4999894993637" x="295.500015258789">制品</text></g></g><g id="minder_node30"><g id="node_expander28" style="cursor: pointer;" display="none"><path id="kity_path_272" fill="white" stroke="gray" d="M247.50001940386642,939.499988968031A6,6,0,1,1,235.50001940386642,939.499988968031A6,6,0,1,1,247.50001940386642,939.499988968031"></path><path id="kity_path_273" fill="none" stroke="gray"></path></g><path id="node_outline29" fill="none" stroke="none" d="M99.50001395770482,928.499988968031h131a5,5,0,0,1,5,5v12a5,5,0,0,1,-5,5h-131a5,5,0,0,1,-5,-5v-12a5,5,0,0,1,5,-5z"></path><g id="node_text29" fill="black"><text id="kity_text_149" text-rendering="inherit" font-size="12" dy=".8em" y="933.499988968031" x="104.50001395770482">[undergo] day-primer</text></g></g><g id="minder_node31"><g id="node_expander29" style="cursor: pointer;" display="none"><path id="kity_path_275" fill="white" stroke="gray" d="M247.50001974446445,991.4999893222528A6,6,0,1,1,235.50001974446445,991.4999893222528A6,6,0,1,1,247.50001974446445,991.4999893222528"></path><path id="kity_path_276" fill="none" stroke="gray"></path></g><path id="node_outline30" fill="none" stroke="none" d="M79.5000138214657,980.4999893222528h151a5,5,0,0,1,5,5v12a5,5,0,0,1,-5,5h-151a5,5,0,0,1,-5,-5v-12a5,5,0,0,1,5,-5z"></path><g id="node_text30" fill="black"><text id="kity_text_151" text-rendering="inherit" font-size="12" dy=".8em" y="985.4999893222528" x="84.5000138214657">[incomplete] cool-corpus</text></g></g><g id="minder_node32"><g id="node_expander30" style="cursor: pointer;" display="none"><path id="kity_path_278" fill="white" stroke="gray" d="M247.50001412459775,1043.4999896764748A6,6,0,1,1,235.50001412459775,1043.4999896764748A6,6,0,1,1,247.50001412459775,1043.4999896764748"></path><path id="kity_path_279" fill="none" stroke="gray"></path></g><path id="node_outline31" fill="none" stroke="none" d="M25.500013453619886,1032.4999896764748h205a5,5,0,0,1,5,5v12a5,5,0,0,1,-5,5h-205a5,5,0,0,1,-5,-5v-12a5,5,0,0,1,5,-5z"></path><g id="node_text31" fill="black"><text id="kity_text_153" text-rendering="inherit" font-size="12" dy=".8em" y="1037.4999896764748" x="30.500013453619886">[incomplete] 简易学生信息管理系统</text></g></g><g id="minder_node33"><g id="node_expander31" style="cursor: pointer;" display="none"><path id="kity_path_281" fill="white" stroke="gray" d="M247.50001574243817,1095.4999900306964A6,6,0,1,1,235.50001574243817,1095.4999900306964A6,6,0,1,1,247.50001574243817,1095.4999900306964"></path><path id="kity_path_282" fill="none" stroke="gray"></path></g><path id="node_outline32" fill="none" stroke="none" d="M186.50001455034527,1084.4999900306964h44a5,5,0,0,1,5,5v12a5,5,0,0,1,-5,5h-44a5,5,0,0,1,-5,-5v-12a5,5,0,0,1,5,-5z"></path><g id="node_text32" fill="black"><text id="kity_text_155" text-rendering="inherit" font-size="12" dy=".8em" y="1089.4999900306964" x="191.50001455034527">qnote</text></g></g><g id="minder_node34"><g id="node_expander33" style="cursor: pointer;" display="none"><path id="kity_path_292" fill="white" stroke="gray" d="M247.5000154018402,149.49998358658337A6,6,0,1,1,235.5000154018402,149.49998358658337A6,6,0,1,1,247.5000154018402,149.49998358658337"></path><path id="kity_path_293" fill="none" stroke="gray"></path></g><path id="node_outline34" fill="none" stroke="rgb(57, 80, 96)" d="M78.5000138146537,138.49998358658337h152a5,5,0,0,1,5,5v12a5,5,0,0,1,-5,5h-152a5,5,0,0,1,-5,-5v-12a5,5,0,0,1,5,-5z" stroke-width="3"></path><g id="node_text34" fill="black"><text id="kity_text_289" text-rendering="inherit" font-size="12" dy=".8em" y="143.49998358658337" x="83.5000138146537">[undergo] cross-eastward</text></g></g></g></g></svg>