<svg id="kity_svg_6" xmlns="http://www.w3.org/2000/svg" xmlns:xlink="http://www.w3.org/1999/xlink" version="1.1" width="747" height="1568" style="background: rgb(251, 251, 251); visibility: visible;" viewBox="0 0 747 1568"><defs id="kity_defs_7"><linearGradient id="kity_linearGradient_17" x1="0" y1="0" x2="0" y2="1"><stop id="kity_stop_18" offset="0" stop-color="rgb(255, 255, 255)"></stop><stop id="kity_stop_19" offset="1" stop-color="rgb(204, 204, 204)"></stop></linearGradient><marker id="kity_marker_2" orient="auto" refX="6" refY="0" viewBox="-7 -7 14 14" markerWidth="7" markerHeight="7" markerUnits="userSpaceOnUse"><path id="kity_path_3" fill="rgb(115, 161, 191)" stroke="none" d="M6,0A6,6,0,1,1,-6,0A6,6,0,1,1,6,0"></path></marker></defs><g id="kity_g_8"><g id="minder1" text-rendering="geometricPrecision"><g id="minder_connect_group1"><path id="kity_path_31" fill="none" stroke="rgb(115, 161, 191)" stroke-width="1" d="M92.50000800192356,758.5000254064798A190,701,0,0,1,282.50000800192356,57.500025406479836"></path><path id="kity_path_33" fill="none" stroke="rgb(115, 161, 191)" stroke-width="1" d="M353.50000800192356,57.500025406479836C373.50000800192356,57.500025406479836,373.50000800192356,31.500025406479836,393.50000800192356,31.500025406479836"></path><path id="kity_path_35" fill="none" stroke="rgb(115, 161, 191)" stroke-width="1" d="M462.50000800192356,31.500025406479836C482.50000800192356,31.500025406479836,482.50000800192356,31.500025406479836,502.50000800192356,31.500025406479836"></path><path id="kity_path_37" fill="none" stroke="rgb(115, 161, 191)" stroke-width="1" d="M92.50000800192356,758.5000254064798A190,405,0,0,1,282.50000800192356,353.50002540647984"></path><path id="kity_path_39" fill="none" stroke="rgb(115, 161, 191)" stroke-width="1" d="M352.50000800192356,353.50002540647984C372.50000800192356,353.50002540647984,372.50000800192356,145.50002540647984,392.50000800192356,145.50002540647984"></path><path id="kity_path_41" fill="none" stroke="rgb(115, 161, 191)" stroke-width="1" d="M352.50000800192356,353.50002540647984C372.50000800192356,353.50002540647984,372.50000800192356,197.50002540647984,392.50000800192356,197.50002540647984"></path><path id="kity_path_43" fill="none" stroke="rgb(115, 161, 191)" stroke-width="1" d="M352.50000800192356,353.50002540647984C372.50000800192356,353.50002540647984,372.50000800192356,340.50002540647984,392.50000800192356,340.50002540647984"></path><path id="kity_path_45" fill="none" stroke="rgb(115, 161, 191)" stroke-width="1" d="M485.50000800192356,340.50002540647984C505.50000800192356,340.50002540647984,505.50000800192356,249.50002540647984,525.5000080019236,249.50002540647984"></path><path id="kity_path_47" fill="none" stroke="rgb(115, 161, 191)" stroke-width="1" d="M485.50000800192356,340.50002540647984C505.50000800192356,340.50002540647984,505.50000800192356,301.50002540647984,525.5000080019236,301.50002540647984"></path><path id="kity_path_49" fill="none" stroke="rgb(115, 161, 191)" stroke-width="1" d="M485.50000800192356,340.50002540647984C505.50000800192356,340.50002540647984,505.50000800192356,353.50002540647984,525.5000080019236,353.50002540647984"></path><path id="kity_path_51" fill="none" stroke="rgb(115, 161, 191)" stroke-width="1" d="M485.50000800192356,340.50002540647984C505.50000800192356,340.50002540647984,505.50000800192356,431.50002540647984,525.5000080019236,431.50002540647984"></path><path id="kity_path_53" fill="none" stroke="rgb(115, 161, 191)" stroke-width="1" d="M594.5000080019236,431.50002540647984C614.5000080019236,431.50002540647984,614.5000080019236,405.50002540647984,634.5000080019236,405.50002540647984"></path><path id="kity_path_55" fill="none" stroke="rgb(115, 161, 191)" stroke-width="1" d="M594.5000080019236,431.50002540647984C614.5000080019236,431.50002540647984,614.5000080019236,457.50002540647984,634.5000080019236,457.50002540647984"></path><path id="kity_path_57" fill="none" stroke="rgb(115, 161, 191)" stroke-width="1" d="M352.50000800192356,353.50002540647984C372.50000800192356,353.50002540647984,372.50000800192356,561.5000254064798,392.50000800192356,561.5000254064798"></path><path id="kity_path_59" fill="none" stroke="rgb(115, 161, 191)" stroke-width="1" d="M485.50000800192356,561.5000254064798C505.50000800192356,561.5000254064798,505.50000800192356,509.50002540647984,525.5000080019236,509.50002540647984"></path><path id="kity_path_61" fill="none" stroke="rgb(115, 161, 191)" stroke-width="1" d="M485.50000800192356,561.5000254064798C505.50000800192356,561.5000254064798,505.50000800192356,561.5000254064798,525.5000080019236,561.5000254064798"></path><path id="kity_path_63" fill="none" stroke="rgb(115, 161, 191)" stroke-width="1" d="M485.50000800192356,561.5000254064798C505.50000800192356,561.5000254064798,505.50000800192356,613.5000254064798,525.5000080019236,613.5000254064798"></path><path id="kity_path_65" fill="none" stroke="rgb(115, 161, 191)" stroke-width="1" d="M92.50000800192356,758.5000254064798A190,34,0,0,0,282.50000800192356,792.5000254064798"></path><path id="kity_path_67" fill="none" stroke="rgb(115, 161, 191)" stroke-width="1" d="M352.50000800192356,792.5000254064798C372.50000800192356,792.5000254064798,372.50000800192356,701.5000254064798,392.50000800192356,701.5000254064798"></path><path id="kity_path_69" fill="none" stroke="rgb(115, 161, 191)" stroke-width="1" d="M461.50000800192356,701.5000254064798C481.50000800192356,701.5000254064798,481.50000800192356,675.5000254064798,501.50000800192356,675.5000254064798"></path><path id="kity_path_71" fill="none" stroke="rgb(115, 161, 191)" stroke-width="1" d="M461.50000800192356,701.5000254064798C481.50000800192356,701.5000254064798,481.50000800192356,727.5000254064798,501.50000800192356,727.5000254064798"></path><path id="kity_path_73" fill="none" stroke="rgb(115, 161, 191)" stroke-width="1" d="M352.50000800192356,792.5000254064798C372.50000800192356,792.5000254064798,372.50000800192356,779.5000254064798,392.50000800192356,779.5000254064798"></path><path id="kity_path_75" fill="none" stroke="rgb(115, 161, 191)" stroke-width="1" d="M352.50000800192356,792.5000254064798C372.50000800192356,792.5000254064798,372.50000800192356,831.5000254064798,392.50000800192356,831.5000254064798"></path><path id="kity_path_77" fill="none" stroke="rgb(115, 161, 191)" stroke-width="1" d="M352.50000800192356,792.5000254064798C372.50000800192356,792.5000254064798,372.50000800192356,883.5000254064798,392.50000800192356,883.5000254064798"></path><path id="kity_path_79" fill="none" stroke="rgb(115, 161, 191)" stroke-width="1" d="M92.50000800192356,758.5000254064798A190,317,0,0,0,282.50000800192356,1075.5000254064798"></path><path id="kity_path_81" fill="none" stroke="rgb(115, 161, 191)" stroke-width="1" d="M353.50000800192356,1075.5000254064798C373.50000800192356,1075.5000254064798,373.50000800192356,997.5000254064798,393.50000800192356,997.5000254064798"></path><path id="kity_path_83" fill="none" stroke="rgb(115, 161, 191)" stroke-width="1" d="M462.50000800192356,997.5000254064798C482.50000800192356,997.5000254064798,482.50000800192356,945.5000254064798,502.50000800192356,945.5000254064798"></path><path id="kity_path_85" fill="none" stroke="rgb(115, 161, 191)" stroke-width="1" d="M462.50000800192356,997.5000254064798C482.50000800192356,997.5000254064798,482.50000800192356,997.5000254064798,502.50000800192356,997.5000254064798"></path><path id="kity_path_87" fill="none" stroke="rgb(115, 161, 191)" stroke-width="1" d="M462.50000800192356,997.5000254064798C482.50000800192356,997.5000254064798,482.50000800192356,1049.5000254064798,502.50000800192356,1049.5000254064798"></path><path id="kity_path_89" fill="none" stroke="rgb(115, 161, 191)" stroke-width="1" d="M353.50000800192356,1075.5000254064798C373.50000800192356,1075.5000254064798,373.50000800192356,1101.5000254064798,393.50000800192356,1101.5000254064798"></path><path id="kity_path_91" fill="none" stroke="rgb(115, 161, 191)" stroke-width="1" d="M353.50000800192356,1075.5000254064798C373.50000800192356,1075.5000254064798,373.50000800192356,1153.5000254064798,393.50000800192356,1153.5000254064798"></path><path id="kity_path_93" fill="none" stroke="rgb(115, 161, 191)" stroke-width="1" d="M92.50000800192356,758.5000254064798A190,509,0,0,0,282.50000800192356,1267.5000254064798"></path><path id="kity_path_95" fill="none" stroke="rgb(115, 161, 191)" stroke-width="1" d="M352.50000800192356,1267.5000254064798C372.50000800192356,1267.5000254064798,372.50000800192356,1215.5000254064798,392.50000800192356,1215.5000254064798"></path><path id="kity_path_97" fill="none" stroke="rgb(115, 161, 191)" stroke-width="1" d="M352.50000800192356,1267.5000254064798C372.50000800192356,1267.5000254064798,372.50000800192356,1267.5000254064798,392.50000800192356,1267.5000254064798"></path><path id="kity_path_99" fill="none" stroke="rgb(115, 161, 191)" stroke-width="1" d="M352.50000800192356,1267.5000254064798C372.50000800192356,1267.5000254064798,372.50000800192356,1319.5000254064798,392.50000800192356,1319.5000254064798"></path><path id="kity_path_101" fill="none" stroke="rgb(115, 161, 191)" stroke-width="1" d="M92.50000800192356,758.5000254064798A190,701,0,0,0,282.50000800192356,1459.5000254064798"></path><path id="kity_path_103" fill="none" stroke="rgb(115, 161, 191)" stroke-width="1" d="M353.50000800192356,1459.5000254064798C373.50000800192356,1459.5000254064798,373.50000800192356,1381.5000254064798,393.50000800192356,1381.5000254064798"></path><path id="kity_path_105" fill="none" stroke="rgb(115, 161, 191)" stroke-width="1" d="M438.50000800192356,1381.5000254064798C458.50000800192356,1381.5000254064798,458.50000800192356,1381.5000254064798,478.50000800192356,1381.5000254064798"></path><path id="kity_path_107" fill="none" stroke="rgb(115, 161, 191)" stroke-width="1" d="M353.50000800192356,1459.5000254064798C373.50000800192356,1459.5000254064798,373.50000800192356,1433.5000254064798,393.50000800192356,1433.5000254064798"></path><path id="kity_path_109" fill="none" stroke="rgb(115, 161, 191)" stroke-width="1" d="M353.50000800192356,1459.5000254064798C373.50000800192356,1459.5000254064798,373.50000800192356,1485.5000254064798,393.50000800192356,1485.5000254064798"></path><path id="kity_path_111" fill="none" stroke="rgb(115, 161, 191)" stroke-width="1" d="M353.50000800192356,1459.5000254064798C373.50000800192356,1459.5000254064798,373.50000800192356,1537.5000254064798,393.50000800192356,1537.5000254064798"></path><path id="kity_path_359" fill="none" stroke="rgb(115, 161, 191)" stroke-width="1" d="M353.50000800192356,57.500025406479836C373.50000800192356,57.500025406479836,373.50000800192356,83.50002540647984,393.50000800192356,83.50002540647984"></path></g><g id="minder_node1"><path id="node_outline1" fill="rgb(115, 161, 191)" stroke="rgb(115, 161, 191)" d="M25.50000800192356,738.5000254064798h134a5,5,0,0,1,5,5v30a5,5,0,0,1,-5,5h-134a5,5,0,0,1,-5,-5v-30a5,5,0,0,1,5,-5z" stroke-width="3"></path><g id="node_text1" fill="white"><text id="kity_text_22" text-rendering="inherit" font-size="16" dy=".8em" y="748.1000252395868" x="44.50000800192356">编程语言导图</text></g></g><g id="kity_g_12"><path id="kity_path_13" fill="none" stroke="none" d="M44.50000800192356,758.5000254064798h0v0h0z"></path></g><g id="kity_g_14"><path id="kity_path_15" fill="none" stroke="none" d="M44.50000800192356,758.5000254064798h0v0h0z"></path><path id="kity_path_16" fill="none" stroke="none"></path></g><g id="minder_node2"><g id="node_expander3" style="cursor: pointer;"><path id="kity_path_242" fill="white" stroke="gray" d="M283.5000149458647,57.50000451505184A6,6,0,1,1,271.5000149458647,57.50000451505184A6,6,0,1,1,283.5000149458647,57.50000451505184"></path><path id="kity_path_243" fill="none" stroke="gray" d="M273.0000149458647,57.50000451505184L282.0000149458647,57.50000451505184"></path></g><path id="node_outline4" fill="rgb(238, 243, 246)" stroke="rgb(115, 161, 191)" d="M287.5000157505274,44.50000451505184h63a3,3,0,0,1,3,3v20a3,3,0,0,1,-3,3h-63a3,3,0,0,1,-3,-3v-20a3,3,0,0,1,3,-3z" stroke-width="1"></path><g id="node_text4" fill="black"><text id="kity_text_117" text-rendering="inherit" font-size="14" dy=".8em" y="48.4000045478344" x="304.5000157505274">常识</text></g></g><g id="minder_node3"><g id="node_expander2" style="cursor: pointer;"><path id="kity_path_239" fill="white" stroke="gray" d="M393.50001822412014,31.50000374019146A6,6,0,1,1,381.50001822412014,31.50000374019146A6,6,0,1,1,393.50001822412014,31.50000374019146"></path><path id="kity_path_240" fill="none" stroke="gray" d="M383.00001822412014,31.50000374019146L392.00001822412014,31.50000374019146"></path></g><path id="node_outline3" fill="none" stroke="none" d="M398.5000187009573,20.50000374019146h59a5,5,0,0,1,5,5v12a5,5,0,0,1,-5,5h-59a5,5,0,0,1,-5,-5v-12a5,5,0,0,1,5,-5z" stroke-width="3"></path><g id="node_text3" fill="black"><text id="kity_text_115" text-rendering="inherit" font-size="12" dy=".8em" y="23.70000381370386" x="403.5000187009573">编程原则</text></g></g><g id="minder_node4"><g id="node_expander1" style="cursor: pointer;" display="none"><path id="kity_path_236" fill="white" stroke="gray" d="M502.5000214725733,31.50000374019146A6,6,0,1,1,490.5000214725733,31.50000374019146A6,6,0,1,1,502.5000214725733,31.50000374019146"></path><path id="kity_path_237" fill="none" stroke="gray"></path></g><path id="node_outline2" fill="none" stroke="none" d="M507.50002194941044,20.50000374019146h83a5,5,0,0,1,5,5v12a5,5,0,0,1,-5,5h-83a5,5,0,0,1,-5,-5v-12a5,5,0,0,1,5,-5z"></path><g id="node_text2" fill="black"><text id="kity_text_113" text-rendering="inherit" font-size="12" dy=".8em" y="23.70000381370386" x="512.5000219494104">开放闭合原则</text></g></g><g id="minder_node5"><g id="node_expander17" style="cursor: pointer;"><path id="kity_path_284" fill="white" stroke="gray" d="M283.5000149458647,353.50001333653927A6,6,0,1,1,271.5000149458647,353.50001333653927A6,6,0,1,1,283.5000149458647,353.50001333653927"></path><path id="kity_path_285" fill="none" stroke="gray" d="M273.0000149458647,353.50001333653927L282.0000149458647,353.50001333653927"></path></g><path id="node_outline18" fill="rgb(238, 243, 246)" stroke="rgb(115, 161, 191)" d="M287.5000157505274,340.50001333653927h62a3,3,0,0,1,3,3v20a3,3,0,0,1,-3,3h-62a3,3,0,0,1,-3,-3v-20a3,3,0,0,1,3,-3z" stroke-width="1"></path><g id="node_text18" fill="black"><text id="kity_text_145" text-rendering="inherit" font-size="14" dy=".8em" y="344.4000133693218" x="304.5000157505274">基础</text></g></g><g id="minder_node6"><g id="node_expander4" style="cursor: pointer;" display="none"><path id="kity_path_245" fill="white" stroke="gray" d="M392.5000181943178,145.5000071376562A6,6,0,1,1,380.5000181943178,145.5000071376562A6,6,0,1,1,392.5000181943178,145.5000071376562"></path><path id="kity_path_246" fill="none" stroke="gray"></path></g><path id="node_outline5" fill="none" stroke="none" d="M397.500018671155,134.5000071376562h59a5,5,0,0,1,5,5v12a5,5,0,0,1,-5,5h-59a5,5,0,0,1,-5,-5v-12a5,5,0,0,1,5,-5z"></path><g id="node_text5" fill="black"><text id="kity_text_119" text-rendering="inherit" font-size="12" dy=".8em" y="137.7000072111686" x="402.500018671155">命名规范</text></g></g><g id="minder_node7"><g id="node_expander5" style="cursor: pointer;" display="none"><path id="kity_path_248" fill="white" stroke="gray" d="M392.5000181943178,197.50000868737698A6,6,0,1,1,380.5000181943178,197.50000868737698A6,6,0,1,1,392.5000181943178,197.50000868737698"></path><path id="kity_path_249" fill="none" stroke="gray"></path></g><path id="node_outline6" fill="none" stroke="none" d="M397.500018671155,186.50000868737698h35a5,5,0,0,1,5,5v12a5,5,0,0,1,-5,5h-35a5,5,0,0,1,-5,-5v-12a5,5,0,0,1,5,-5z"></path><g id="node_text6" fill="black"><text id="kity_text_121" text-rendering="inherit" font-size="12" dy=".8em" y="189.70000876088938" x="402.500018671155">注释</text></g></g><g id="minder_node8"><g id="node_expander12" style="cursor: pointer;"><path id="kity_path_269" fill="white" stroke="gray" d="M392.5000181943178,340.5000129491091A6,6,0,1,1,380.5000181943178,340.5000129491091A6,6,0,1,1,392.5000181943178,340.5000129491091"></path><path id="kity_path_270" fill="none" stroke="gray" d="M382.0000181943178,340.5000129491091L391.0000181943178,340.5000129491091"></path></g><path id="node_outline13" fill="none" stroke="none" d="M397.500018671155,329.5000129491091h83a5,5,0,0,1,5,5v12a5,5,0,0,1,-5,5h-83a5,5,0,0,1,-5,-5v-12a5,5,0,0,1,5,-5z"></path><g id="node_text13" fill="black"><text id="kity_text_135" text-rendering="inherit" font-size="12" dy=".8em" y="332.7000130226215" x="402.500018671155">基本数据类型</text></g></g><g id="minder_node9"><g id="node_expander6" style="cursor: pointer;" display="none"><path id="kity_path_251" fill="white" stroke="gray" d="M525.5000221580267,249.50001023709774A6,6,0,1,1,513.5000221580267,249.50001023709774A6,6,0,1,1,525.5000221580267,249.50001023709774"></path><path id="kity_path_252" fill="none" stroke="gray"></path></g><path id="node_outline7" fill="none" stroke="none" d="M530.5000226348639,238.50001023709774h47a5,5,0,0,1,5,5v12a5,5,0,0,1,-5,5h-47a5,5,0,0,1,-5,-5v-12a5,5,0,0,1,5,-5z"></path><g id="node_text7" fill="black"><text id="kity_text_123" text-rendering="inherit" font-size="12" dy=".8em" y="241.70001031061014" x="535.5000226348639">字面值</text></g></g><g id="minder_node10"><g id="node_expander7" style="cursor: pointer;" display="none"><path id="kity_path_254" fill="white" stroke="gray" d="M525.5000221580267,301.5000117868185A6,6,0,1,1,513.5000221580267,301.5000117868185A6,6,0,1,1,525.5000221580267,301.5000117868185"></path><path id="kity_path_255" fill="none" stroke="gray"></path></g><path id="node_outline8" fill="none" stroke="none" d="M530.5000226348639,290.5000117868185h35a5,5,0,0,1,5,5v12a5,5,0,0,1,-5,5h-35a5,5,0,0,1,-5,-5v-12a5,5,0,0,1,5,-5z"></path><g id="node_text8" fill="black"><text id="kity_text_125" text-rendering="inherit" font-size="12" dy=".8em" y="293.7000118603309" x="535.5000226348639">值域</text></g></g><g id="minder_node11"><g id="node_expander8" style="cursor: pointer;" display="none"><path id="kity_path_257" fill="white" stroke="gray" d="M525.5000221580267,353.50001333653927A6,6,0,1,1,513.5000221580267,353.50001333653927A6,6,0,1,1,525.5000221580267,353.50001333653927"></path><path id="kity_path_258" fill="none" stroke="gray"></path></g><path id="node_outline9" fill="none" stroke="none" d="M530.5000226348639,342.50001333653927h35a5,5,0,0,1,5,5v12a5,5,0,0,1,-5,5h-35a5,5,0,0,1,-5,-5v-12a5,5,0,0,1,5,-5z"></path><g id="node_text9" fill="black"><text id="kity_text_127" text-rendering="inherit" font-size="12" dy=".8em" y="345.70001341005167" x="535.5000226348639">运算</text></g></g><g id="minder_node12"><g id="node_expander11" style="cursor: pointer;"><path id="kity_path_266" fill="white" stroke="gray" d="M525.5000221580267,431.5000156611204A6,6,0,1,1,513.5000221580267,431.5000156611204A6,6,0,1,1,525.5000221580267,431.5000156611204"></path><path id="kity_path_267" fill="none" stroke="gray" d="M515.0000221580267,431.5000156611204L524.0000221580267,431.5000156611204"></path></g><path id="node_outline12" fill="none" stroke="none" d="M530.5000226348639,420.5000156611204h59a5,5,0,0,1,5,5v12a5,5,0,0,1,-5,5h-59a5,5,0,0,1,-5,-5v-12a5,5,0,0,1,5,-5z"></path><g id="node_text12" fill="black"><text id="kity_text_133" text-rendering="inherit" font-size="12" dy=".8em" y="423.7000157346328" x="535.5000226348639">类型转换</text></g></g><g id="minder_node13"><g id="node_expander9" style="cursor: pointer;" display="none"><path id="kity_path_260" fill="white" stroke="gray" d="M634.5000254064798,405.50001488626003A6,6,0,1,1,622.5000254064798,405.50001488626003A6,6,0,1,1,634.5000254064798,405.50001488626003"></path><path id="kity_path_261" fill="none" stroke="gray"></path></g><path id="node_outline10" fill="none" stroke="none" d="M639.500025883317,394.50001488626003h83a5,5,0,0,1,5,5v12a5,5,0,0,1,-5,5h-83a5,5,0,0,1,-5,-5v-12a5,5,0,0,1,5,-5z"></path><g id="node_text10" fill="black"><text id="kity_text_129" text-rendering="inherit" font-size="12" dy=".8em" y="397.70001495977243" x="644.500025883317">自动类型转换</text></g></g><g id="minder_node14"><g id="node_expander10" style="cursor: pointer;" display="none"><path id="kity_path_263" fill="white" stroke="gray" d="M634.5000254064798,457.5000164359808A6,6,0,1,1,622.5000254064798,457.5000164359808A6,6,0,1,1,634.5000254064798,457.5000164359808"></path><path id="kity_path_264" fill="none" stroke="gray"></path></g><path id="node_outline11" fill="none" stroke="none" d="M639.500025883317,446.5000164359808h83a5,5,0,0,1,5,5v12a5,5,0,0,1,-5,5h-83a5,5,0,0,1,-5,-5v-12a5,5,0,0,1,5,-5z"></path><g id="node_text11" fill="black"><text id="kity_text_131" text-rendering="inherit" font-size="12" dy=".8em" y="449.7000165094932" x="644.500025883317">强制类型转换</text></g></g><g id="minder_node15"><g id="node_expander16" style="cursor: pointer;"><path id="kity_path_281" fill="white" stroke="gray" d="M392.5000181943178,561.5000195354223A6,6,0,1,1,380.5000181943178,561.5000195354223A6,6,0,1,1,392.5000181943178,561.5000195354223"></path><path id="kity_path_282" fill="none" stroke="gray" d="M382.0000181943178,561.5000195354223L391.0000181943178,561.5000195354223"></path></g><path id="node_outline17" fill="none" stroke="none" d="M397.500018671155,550.5000195354223h83a5,5,0,0,1,5,5v12a5,5,0,0,1,-5,5h-83a5,5,0,0,1,-5,-5v-12a5,5,0,0,1,5,-5z"></path><g id="node_text17" fill="black"><text id="kity_text_143" text-rendering="inherit" font-size="12" dy=".8em" y="553.7000196089348" x="402.500018671155">复合数据类型</text></g></g><g id="minder_node16"><g id="node_expander13" style="cursor: pointer;" display="none"><path id="kity_path_272" fill="white" stroke="gray" d="M525.5000221580267,509.50001798570156A6,6,0,1,1,513.5000221580267,509.50001798570156A6,6,0,1,1,525.5000221580267,509.50001798570156"></path><path id="kity_path_273" fill="none" stroke="gray"></path></g><path id="node_outline14" fill="none" stroke="none" d="M530.5000226348639,498.50001798570156h35a5,5,0,0,1,5,5v12a5,5,0,0,1,-5,5h-35a5,5,0,0,1,-5,-5v-12a5,5,0,0,1,5,-5z" stroke-width="3"></path><g id="node_text14" fill="black"><text id="kity_text_137" text-rendering="inherit" font-size="12" dy=".8em" y="501.70001805921396" x="535.5000226348639">数组</text></g></g><g id="minder_node17"><g id="node_expander14" style="cursor: pointer;" display="none"><path id="kity_path_275" fill="white" stroke="gray" d="M525.5000221580267,561.5000195354223A6,6,0,1,1,513.5000221580267,561.5000195354223A6,6,0,1,1,525.5000221580267,561.5000195354223"></path><path id="kity_path_276" fill="none" stroke="gray"></path></g><path id="node_outline15" fill="none" stroke="none" d="M530.5000226348639,550.5000195354223h35a5,5,0,0,1,5,5v12a5,5,0,0,1,-5,5h-35a5,5,0,0,1,-5,-5v-12a5,5,0,0,1,5,-5z" stroke-width="3"></path><g id="node_text15" fill="black"><text id="kity_text_139" text-rendering="inherit" font-size="12" dy=".8em" y="553.7000196089348" x="535.5000226348639">枚举</text></g></g><g id="minder_node18"><g id="node_expander15" style="cursor: pointer;" display="none"><path id="kity_path_278" fill="white" stroke="gray" d="M525.5000221580267,613.5000210851431A6,6,0,1,1,513.5000221580267,613.5000210851431A6,6,0,1,1,525.5000221580267,613.5000210851431"></path><path id="kity_path_279" fill="none" stroke="gray"></path></g><path id="node_outline16" fill="none" stroke="none" d="M530.5000226348639,602.5000210851431h35a5,5,0,0,1,5,5v12a5,5,0,0,1,-5,5h-35a5,5,0,0,1,-5,-5v-12a5,5,0,0,1,5,-5z" stroke-width="3"></path><g id="node_text16" fill="black"><text id="kity_text_141" text-rendering="inherit" font-size="12" dy=".8em" y="605.7000211586555" x="535.5000226348639">元组</text></g></g><g id="minder_node19"><g id="node_expander24" style="cursor: pointer;"><path id="kity_path_305" fill="white" stroke="gray" d="M283.5000149458647,792.5000264197588A6,6,0,1,1,271.5000149458647,792.5000264197588A6,6,0,1,1,283.5000149458647,792.5000264197588"></path><path id="kity_path_306" fill="none" stroke="gray" d="M273.0000149458647,792.5000264197588L282.0000149458647,792.5000264197588"></path></g><path id="node_outline25" fill="rgb(238, 243, 246)" stroke="rgb(115, 161, 191)" d="M287.5000157505274,779.5000264197588h62a3,3,0,0,1,3,3v20a3,3,0,0,1,-3,3h-62a3,3,0,0,1,-3,-3v-20a3,3,0,0,1,3,-3z" stroke-width="1"></path><g id="node_text25" fill="black"><text id="kity_text_159" text-rendering="inherit" font-size="14" dy=".8em" y="783.4000264525414" x="304.5000157505274">语句</text></g></g><g id="minder_node20"><g id="node_expander20" style="cursor: pointer;"><path id="kity_path_293" fill="white" stroke="gray" d="M392.5000181943178,701.5000237077475A6,6,0,1,1,380.5000181943178,701.5000237077475A6,6,0,1,1,392.5000181943178,701.5000237077475"></path><path id="kity_path_294" fill="none" stroke="gray" d="M382.0000181943178,701.5000237077475L391.0000181943178,701.5000237077475"></path></g><path id="node_outline21" fill="none" stroke="none" d="M397.500018671155,690.5000237077475h59a5,5,0,0,1,5,5v12a5,5,0,0,1,-5,5h-59a5,5,0,0,1,-5,-5v-12a5,5,0,0,1,5,-5z"></path><g id="node_text21" fill="black"><text id="kity_text_151" text-rendering="inherit" font-size="12" dy=".8em" y="693.7000237812599" x="402.500018671155">顺序语句</text></g></g><g id="minder_node21"><g id="node_expander18" style="cursor: pointer;" display="none"><path id="kity_path_287" fill="white" stroke="gray" d="M501.50002144277096,675.5000229328871A6,6,0,1,1,489.50002144277096,675.5000229328871A6,6,0,1,1,501.50002144277096,675.5000229328871"></path><path id="kity_path_288" fill="none" stroke="gray"></path></g><path id="node_outline19" fill="none" stroke="none" d="M506.5000219196081,664.5000229328871h58a5,5,0,0,1,5,5v12a5,5,0,0,1,-5,5h-58a5,5,0,0,1,-5,-5v-12a5,5,0,0,1,5,-5z"></path><g id="node_text19" fill="black"><text id="kity_text_147" text-rendering="inherit" font-size="12" dy=".8em" y="667.7000230063995" x="511.5000219196081">声明语句</text></g></g><g id="minder_node22"><g id="node_expander19" style="cursor: pointer;" display="none"><path id="kity_path_290" fill="white" stroke="gray" d="M501.50002144277096,727.5000244826078A6,6,0,1,1,489.50002144277096,727.5000244826078A6,6,0,1,1,501.50002144277096,727.5000244826078"></path><path id="kity_path_291" fill="none" stroke="gray"></path></g><path id="node_outline20" fill="none" stroke="none" d="M506.5000219196081,716.5000244826078h58a5,5,0,0,1,5,5v12a5,5,0,0,1,-5,5h-58a5,5,0,0,1,-5,-5v-12a5,5,0,0,1,5,-5z"></path><g id="node_text20" fill="black"><text id="kity_text_149" text-rendering="inherit" font-size="12" dy=".8em" y="719.7000245561203" x="511.5000219196081">赋值语句</text></g></g><g id="minder_node23"><g id="node_expander21" style="cursor: pointer;" display="none"><path id="kity_path_296" fill="white" stroke="gray" d="M392.5000181943178,779.5000260323286A6,6,0,1,1,380.5000181943178,779.5000260323286A6,6,0,1,1,392.5000181943178,779.5000260323286"></path><path id="kity_path_297" fill="none" stroke="gray"></path></g><path id="node_outline22" fill="none" stroke="none" d="M397.500018671155,768.5000260323286h59a5,5,0,0,1,5,5v12a5,5,0,0,1,-5,5h-59a5,5,0,0,1,-5,-5v-12a5,5,0,0,1,5,-5z"></path><g id="node_text22" fill="black"><text id="kity_text_153" text-rendering="inherit" font-size="12" dy=".8em" y="771.7000261058411" x="402.500018671155">分支语句</text></g></g><g id="minder_node24"><g id="node_expander22" style="cursor: pointer;" display="none"><path id="kity_path_299" fill="white" stroke="gray" d="M392.5000181943178,831.5000275820494A6,6,0,1,1,380.5000181943178,831.5000275820494A6,6,0,1,1,392.5000181943178,831.5000275820494"></path><path id="kity_path_300" fill="none" stroke="gray"></path></g><path id="node_outline23" fill="none" stroke="none" d="M397.500018671155,820.5000275820494h59a5,5,0,0,1,5,5v12a5,5,0,0,1,-5,5h-59a5,5,0,0,1,-5,-5v-12a5,5,0,0,1,5,-5z"></path><g id="node_text23" fill="black"><text id="kity_text_155" text-rendering="inherit" font-size="12" dy=".8em" y="823.7000276555618" x="402.500018671155">循环语句</text></g></g><g id="minder_node25"><g id="node_expander23" style="cursor: pointer;" display="none"><path id="kity_path_302" fill="white" stroke="gray" d="M392.5000181943178,883.5000291317701A6,6,0,1,1,380.5000181943178,883.5000291317701A6,6,0,1,1,392.5000181943178,883.5000291317701"></path><path id="kity_path_303" fill="none" stroke="gray"></path></g><path id="node_outline24" fill="none" stroke="none" d="M397.500018671155,872.5000291317701h58a5,5,0,0,1,5,5v12a5,5,0,0,1,-5,5h-58a5,5,0,0,1,-5,-5v-12a5,5,0,0,1,5,-5z"></path><g id="node_text24" fill="black"><text id="kity_text_157" text-rendering="inherit" font-size="12" dy=".8em" y="875.7000292052826" x="402.500018671155">异常控制</text></g></g><g id="minder_node26"><g id="node_expander31" style="cursor: pointer;"><path id="kity_path_326" fill="white" stroke="gray" d="M283.5000149458647,1075.500034853816A6,6,0,1,1,271.5000149458647,1075.500034853816A6,6,0,1,1,283.5000149458647,1075.500034853816"></path><path id="kity_path_327" fill="none" stroke="gray" d="M273.0000149458647,1075.500034853816L282.0000149458647,1075.500034853816"></path></g><path id="node_outline32" fill="rgb(238, 243, 246)" stroke="rgb(115, 161, 191)" d="M287.5000157505274,1062.500034853816h63a3,3,0,0,1,3,3v20a3,3,0,0,1,-3,3h-63a3,3,0,0,1,-3,-3v-20a3,3,0,0,1,3,-3z" stroke-width="1"></path><g id="node_text32" fill="black"><text id="kity_text_173" text-rendering="inherit" font-size="14" dy=".8em" y="1066.4000348865986" x="304.5000157505274">模块</text></g></g><g id="minder_node27"><g id="node_expander28" style="cursor: pointer;"><path id="kity_path_317" fill="white" stroke="gray" d="M393.50001822412014,997.5000325292349A6,6,0,1,1,381.50001822412014,997.5000325292349A6,6,0,1,1,393.50001822412014,997.5000325292349"></path><path id="kity_path_318" fill="none" stroke="gray" d="M383.00001822412014,997.5000325292349L392.00001822412014,997.5000325292349"></path></g><path id="node_outline29" fill="none" stroke="none" d="M398.5000187009573,986.5000325292349h59a5,5,0,0,1,5,5v12a5,5,0,0,1,-5,5h-59a5,5,0,0,1,-5,-5v-12a5,5,0,0,1,5,-5z"></path><g id="node_text29" fill="black"><text id="kity_text_167" text-rendering="inherit" font-size="12" dy=".8em" y="989.7000326027473" x="403.5000187009573">命名空间</text></g></g><g id="minder_node28"><g id="node_expander25" style="cursor: pointer;" display="none"><path id="kity_path_308" fill="white" stroke="gray" d="M502.5000214725733,945.5000309795141A6,6,0,1,1,490.5000214725733,945.5000309795141A6,6,0,1,1,502.5000214725733,945.5000309795141"></path><path id="kity_path_309" fill="none" stroke="gray"></path></g><path id="node_outline26" fill="none" stroke="none" d="M507.50002194941044,934.5000309795141h58a5,5,0,0,1,5,5v12a5,5,0,0,1,-5,5h-58a5,5,0,0,1,-5,-5v-12a5,5,0,0,1,5,-5z"></path><g id="node_text26" fill="black"><text id="kity_text_161" text-rendering="inherit" font-size="12" dy=".8em" y="937.7000310530266" x="512.5000219494104">组织模块</text></g></g><g id="minder_node29"><g id="node_expander26" style="cursor: pointer;" display="none"><path id="kity_path_311" fill="white" stroke="gray" d="M502.5000214725733,997.5000325292349A6,6,0,1,1,490.5000214725733,997.5000325292349A6,6,0,1,1,502.5000214725733,997.5000325292349"></path><path id="kity_path_312" fill="none" stroke="gray"></path></g><path id="node_outline27" fill="none" stroke="none" d="M507.50002194941044,986.5000325292349h59a5,5,0,0,1,5,5v12a5,5,0,0,1,-5,5h-59a5,5,0,0,1,-5,-5v-12a5,5,0,0,1,5,-5z"></path><g id="node_text27" fill="black"><text id="kity_text_163" text-rendering="inherit" font-size="12" dy=".8em" y="989.7000326027473" x="512.5000219494104">导入名称</text></g></g><g id="minder_node30"><g id="node_expander27" style="cursor: pointer;" display="none"><path id="kity_path_314" fill="white" stroke="gray" d="M502.5000214725733,1049.5000340789557A6,6,0,1,1,490.5000214725733,1049.5000340789557A6,6,0,1,1,502.5000214725733,1049.5000340789557"></path><path id="kity_path_315" fill="none" stroke="gray"></path></g><path id="node_outline28" fill="none" stroke="none" d="M507.50002194941044,1038.5000340789557h59a5,5,0,0,1,5,5v12a5,5,0,0,1,-5,5h-59a5,5,0,0,1,-5,-5v-12a5,5,0,0,1,5,-5z"></path><g id="node_text28" fill="black"><text id="kity_text_165" text-rendering="inherit" font-size="12" dy=".8em" y="1041.700034152468" x="512.5000219494104">导出名称</text></g></g><g id="minder_node31"><g id="node_expander29" style="cursor: pointer;" display="none"><path id="kity_path_320" fill="white" stroke="gray" d="M393.50001822412014,1101.5000356286764A6,6,0,1,1,381.50001822412014,1101.5000356286764A6,6,0,1,1,393.50001822412014,1101.5000356286764"></path><path id="kity_path_321" fill="none" stroke="gray"></path></g><path id="node_outline30" fill="none" stroke="none" d="M398.5000187009573,1090.5000356286764h35a5,5,0,0,1,5,5v12a5,5,0,0,1,-5,5h-35a5,5,0,0,1,-5,-5v-12a5,5,0,0,1,5,-5z"></path><g id="node_text30" fill="black"><text id="kity_text_169" text-rendering="inherit" font-size="12" dy=".8em" y="1093.7000357021889" x="403.5000187009573">函数</text></g></g><g id="minder_node32"><g id="node_expander30" style="cursor: pointer;" display="none"><path id="kity_path_323" fill="white" stroke="gray" d="M393.50001822412014,1153.5000371783972A6,6,0,1,1,381.50001822412014,1153.5000371783972A6,6,0,1,1,393.50001822412014,1153.5000371783972"></path><path id="kity_path_324" fill="none" stroke="gray"></path></g><path id="node_outline31" fill="none" stroke="none" d="M398.5000187009573,1142.5000371783972h23a5,5,0,0,1,5,5v12a5,5,0,0,1,-5,5h-23a5,5,0,0,1,-5,-5v-12a5,5,0,0,1,5,-5z"></path><g id="node_text31" fill="black"><text id="kity_text_171" text-rendering="inherit" font-size="12" dy=".8em" y="1145.7000372519096" x="403.5000187009573">类</text></g></g><g id="minder_node33"><g id="node_expander35" style="cursor: pointer;"><path id="kity_path_338" fill="white" stroke="gray" d="M283.5000149458647,1267.500040575862A6,6,0,1,1,271.5000149458647,1267.500040575862A6,6,0,1,1,283.5000149458647,1267.500040575862"></path><path id="kity_path_339" fill="none" stroke="gray" d="M273.0000149458647,1267.500040575862L282.0000149458647,1267.500040575862"></path></g><path id="node_outline36" fill="rgb(238, 243, 246)" stroke="rgb(115, 161, 191)" d="M287.5000157505274,1254.500040575862h62a3,3,0,0,1,3,3v20a3,3,0,0,1,-3,3h-62a3,3,0,0,1,-3,-3v-20a3,3,0,0,1,3,-3z" stroke-width="1"></path><g id="node_text36" fill="black"><text id="kity_text_181" text-rendering="inherit" font-size="14" dy=".8em" y="1258.4000406086445" x="304.5000157505274">工具</text></g></g><g id="minder_node34"><g id="node_expander32" style="cursor: pointer;" display="none"><path id="kity_path_329" fill="white" stroke="gray" d="M392.5000181943178,1215.5000390261412A6,6,0,1,1,380.5000181943178,1215.5000390261412A6,6,0,1,1,392.5000181943178,1215.5000390261412"></path><path id="kity_path_330" fill="none" stroke="gray"></path></g><path id="node_outline33" fill="none" stroke="none" d="M397.500018671155,1204.5000390261412h82a5,5,0,0,1,5,5v12a5,5,0,0,1,-5,5h-82a5,5,0,0,1,-5,-5v-12a5,5,0,0,1,5,-5z"></path><g id="node_text33" fill="black"><text id="kity_text_175" text-rendering="inherit" font-size="12" dy=".8em" y="1207.7000390996536" x="402.500018671155">输入输出工具</text></g></g><g id="minder_node35"><g id="node_expander33" style="cursor: pointer;" display="none"><path id="kity_path_332" fill="white" stroke="gray" d="M392.5000181943178,1267.500040575862A6,6,0,1,1,380.5000181943178,1267.500040575862A6,6,0,1,1,392.5000181943178,1267.500040575862"></path><path id="kity_path_333" fill="none" stroke="gray"></path></g><path id="node_outline34" fill="none" stroke="none" d="M397.500018671155,1256.500040575862h70a5,5,0,0,1,5,5v12a5,5,0,0,1,-5,5h-70a5,5,0,0,1,-5,-5v-12a5,5,0,0,1,5,-5z"></path><g id="node_text34" fill="black"><text id="kity_text_177" text-rendering="inherit" font-size="12" dy=".8em" y="1259.7000406493744" x="402.500018671155">字符串工具</text></g></g><g id="minder_node36"><g id="node_expander34" style="cursor: pointer;" display="none"><path id="kity_path_335" fill="white" stroke="gray" d="M392.5000181943178,1319.5000421255827A6,6,0,1,1,380.5000181943178,1319.5000421255827A6,6,0,1,1,392.5000181943178,1319.5000421255827"></path><path id="kity_path_336" fill="none" stroke="gray"></path></g><path id="node_outline35" fill="none" stroke="none" d="M397.500018671155,1308.5000421255827h59a5,5,0,0,1,5,5v12a5,5,0,0,1,-5,5h-59a5,5,0,0,1,-5,-5v-12a5,5,0,0,1,5,-5z"></path><g id="node_text35" fill="black"><text id="kity_text_179" text-rendering="inherit" font-size="12" dy=".8em" y="1311.7000421990952" x="402.500018671155">数据结构</text></g></g><g id="minder_node37"><g id="node_expander41" style="cursor: pointer;"><path id="kity_path_356" fill="white" stroke="gray" d="M283.5000149458647,1459.5000462979078A6,6,0,1,1,271.5000149458647,1459.5000462979078A6,6,0,1,1,283.5000149458647,1459.5000462979078"></path><path id="kity_path_357" fill="none" stroke="gray" d="M273.0000149458647,1459.5000462979078L282.0000149458647,1459.5000462979078"></path></g><path id="node_outline42" fill="rgb(238, 243, 246)" stroke="rgb(115, 161, 191)" d="M287.5000157505274,1446.5000462979078h63a3,3,0,0,1,3,3v20a3,3,0,0,1,-3,3h-63a3,3,0,0,1,-3,-3v-20a3,3,0,0,1,3,-3z" stroke-width="1"></path><g id="node_text42" fill="black"><text id="kity_text_193" text-rendering="inherit" font-size="14" dy=".8em" y="1450.4000463306904" x="304.5000157505274">类库</text></g></g><g id="minder_node38"><g id="node_expander37" style="cursor: pointer;"><path id="kity_path_344" fill="white" stroke="gray" d="M393.50001822412014,1381.5000439733267A6,6,0,1,1,381.50001822412014,1381.5000439733267A6,6,0,1,1,393.50001822412014,1381.5000439733267"></path><path id="kity_path_345" fill="none" stroke="gray" d="M383.00001822412014,1381.5000439733267L392.00001822412014,1381.5000439733267"></path></g><path id="node_outline38" fill="none" stroke="none" d="M398.5000187009573,1370.5000439733267h35a5,5,0,0,1,5,5v12a5,5,0,0,1,-5,5h-35a5,5,0,0,1,-5,-5v-12a5,5,0,0,1,5,-5z"></path><g id="node_text38" fill="black"><text id="kity_text_185" text-rendering="inherit" font-size="12" dy=".8em" y="1373.7000440468391" x="403.5000187009573">数学</text></g></g><g id="minder_node39"><g id="node_expander36" style="cursor: pointer;" display="none"><path id="kity_path_341" fill="white" stroke="gray" d="M478.50002075731754,1381.5000439733267A6,6,0,1,1,466.50002075731754,1381.5000439733267A6,6,0,1,1,478.50002075731754,1381.5000439733267"></path><path id="kity_path_342" fill="none" stroke="gray"></path></g><path id="node_outline37" fill="none" stroke="none" d="M483.5000212341547,1370.5000439733267h71a5,5,0,0,1,5,5v12a5,5,0,0,1,-5,5h-71a5,5,0,0,1,-5,-5v-12a5,5,0,0,1,5,-5z"></path><g id="node_text37" fill="black"><text id="kity_text_183" text-rendering="inherit" font-size="12" dy=".8em" y="1373.7000440468391" x="488.5000212341547">高精度运算</text></g></g><g id="minder_node40"><g id="node_expander38" style="cursor: pointer;" display="none"><path id="kity_path_347" fill="white" stroke="gray" d="M393.50001822412014,1433.5000455230474A6,6,0,1,1,381.50001822412014,1433.5000455230474A6,6,0,1,1,393.50001822412014,1433.5000455230474"></path><path id="kity_path_348" fill="none" stroke="gray"></path></g><path id="node_outline39" fill="none" stroke="none" d="M398.5000187009573,1422.5000455230474h70a5,5,0,0,1,5,5v12a5,5,0,0,1,-5,5h-70a5,5,0,0,1,-5,-5v-12a5,5,0,0,1,5,-5z"></path><g id="node_text39" fill="black"><text id="kity_text_187" text-rendering="inherit" font-size="12" dy=".8em" y="1425.70004559656" x="403.5000187009573">日期和时间</text></g></g><g id="minder_node41"><g id="node_expander39" style="cursor: pointer;" display="none"><path id="kity_path_350" fill="white" stroke="gray" d="M393.50001822412014,1485.5000470727682A6,6,0,1,1,381.50001822412014,1485.5000470727682A6,6,0,1,1,393.50001822412014,1485.5000470727682"></path><path id="kity_path_351" fill="none" stroke="gray"></path></g><path id="node_outline40" fill="none" stroke="none" d="M398.5000187009573,1474.5000470727682h35a5,5,0,0,1,5,5v12a5,5,0,0,1,-5,5h-35a5,5,0,0,1,-5,-5v-12a5,5,0,0,1,5,-5z"></path><g id="node_text40" fill="black"><text id="kity_text_189" text-rendering="inherit" font-size="12" dy=".8em" y="1477.7000471462807" x="403.5000187009573">文件</text></g></g><g id="minder_node42"><g id="node_expander40" style="cursor: pointer;" display="none"><path id="kity_path_353" fill="white" stroke="gray" d="M393.50001822412014,1537.500048622489A6,6,0,1,1,381.50001822412014,1537.500048622489A6,6,0,1,1,393.50001822412014,1537.500048622489"></path><path id="kity_path_354" fill="none" stroke="gray"></path></g><path id="node_outline41" fill="none" stroke="none" d="M398.5000187009573,1526.500048622489h35a5,5,0,0,1,5,5v12a5,5,0,0,1,-5,5h-35a5,5,0,0,1,-5,-5v-12a5,5,0,0,1,5,-5z"></path><g id="node_text41" fill="black"><text id="kity_text_191" text-rendering="inherit" font-size="12" dy=".8em" y="1529.7000486960014" x="403.5000187009573">网络</text></g></g><g id="minder_node43"><g id="node_expander42" style="cursor: pointer;" display="none"><path id="kity_path_364" fill="white" stroke="gray" d="M393.50001822412014,83.50000528991222A6,6,0,1,1,381.50001822412014,83.50000528991222A6,6,0,1,1,393.50001822412014,83.50000528991222"></path><path id="kity_path_365" fill="none" stroke="gray"></path></g><path id="node_outline43" fill="none" stroke="none" d="M398.5000187009573,72.50000528991222h84a5,5,0,0,1,5,5v12a5,5,0,0,1,-5,5h-84a5,5,0,0,1,-5,-5v-12a5,5,0,0,1,5,-5z" stroke-width="3"></path><g id="node_text43" fill="black"><text id="kity_text_361" text-rendering="inherit" font-size="12" dy=".8em" y="75.70000536342462" x="403.5000187009573">编程环境配置</text></g></g></g></g></svg>