<svg id="kity_svg_6" xmlns="http://www.w3.org/2000/svg" xmlns:xlink="http://www.w3.org/1999/xlink" version="1.1" width="751" height="1620" style="background: rgb(251, 251, 251); visibility: visible;" viewBox="0 0 751 1620"><defs id="kity_defs_7"><linearGradient id="kity_linearGradient_17" x1="0" y1="0" x2="0" y2="1"><stop id="kity_stop_18" offset="0" stop-color="rgb(255, 255, 255)"></stop><stop id="kity_stop_19" offset="1" stop-color="rgb(204, 204, 204)"></stop></linearGradient><marker id="kity_marker_2" orient="auto" refX="6" refY="0" viewBox="-7 -7 14 14" markerWidth="7" markerHeight="7" markerUnits="userSpaceOnUse"><path id="kity_path_3" fill="rgb(115, 161, 191)" stroke="none" d="M6,0A6,6,0,1,1,-6,0A6,6,0,1,1,6,0"></path></marker></defs><g id="kity_g_8"><g id="minder1" text-rendering="optimize-speed"><g id="minder_connect_group1"><path id="kity_path_31" fill="none" stroke="rgb(115, 161, 191)" stroke-width="1" d="M93.99999570505943,783.5000060830797A190.5,727,0,0,1,284.49999570505946,56.50000608307971"></path><path id="kity_path_33" fill="none" stroke="rgb(115, 161, 191)" stroke-width="1" d="M354.49999570505946,56.50000608307971C374.49999570505946,56.50000608307971,374.49999570505946,30.50000608307971,394.49999570505946,30.50000608307971"></path><path id="kity_path_35" fill="none" stroke="rgb(115, 161, 191)" stroke-width="1" d="M464.49999570505946,30.50000608307971C484.49999570505946,30.50000608307971,484.49999570505946,30.50000608307971,504.49999570505946,30.50000608307971"></path><path id="kity_path_37" fill="none" stroke="rgb(115, 161, 191)" stroke-width="1" d="M573.4999957050594,30.50000608307971C593.4999957050594,30.50000608307971,593.4999957050594,30.50000608307971,613.4999957050594,30.50000608307971"></path><path id="kity_path_39" fill="none" stroke="rgb(115, 161, 191)" stroke-width="1" d="M354.49999570505946,56.50000608307971C374.49999570505946,56.50000608307971,374.49999570505946,82.50000608307971,394.49999570505946,82.50000608307971"></path><path id="kity_path_41" fill="none" stroke="rgb(115, 161, 191)" stroke-width="1" d="M93.99999570505943,783.5000060830797A190.5,457,0,0,1,284.49999570505946,326.5000060830797"></path><path id="kity_path_43" fill="none" stroke="rgb(115, 161, 191)" stroke-width="1" d="M355.49999570505946,326.5000060830797C375.49999570505946,326.5000060830797,375.49999570505946,144.5000060830797,395.49999570505946,144.5000060830797"></path><path id="kity_path_45" fill="none" stroke="rgb(115, 161, 191)" stroke-width="1" d="M355.49999570505946,326.5000060830797C375.49999570505946,326.5000060830797,375.49999570505946,196.5000060830797,395.49999570505946,196.5000060830797"></path><path id="kity_path_47" fill="none" stroke="rgb(115, 161, 191)" stroke-width="1" d="M355.49999570505946,326.5000060830797C375.49999570505946,326.5000060830797,375.49999570505946,313.5000060830797,395.49999570505946,313.5000060830797"></path><path id="kity_path_49" fill="none" stroke="rgb(115, 161, 191)" stroke-width="1" d="M488.49999570505946,313.5000060830797C508.49999570505946,313.5000060830797,508.49999570505946,248.5000060830797,528.4999957050594,248.5000060830797"></path><path id="kity_path_51" fill="none" stroke="rgb(115, 161, 191)" stroke-width="1" d="M488.49999570505946,313.5000060830797C508.49999570505946,313.5000060830797,508.49999570505946,300.5000060830797,528.4999957050594,300.5000060830797"></path><path id="kity_path_53" fill="none" stroke="rgb(115, 161, 191)" stroke-width="1" d="M488.49999570505946,313.5000060830797C508.49999570505946,313.5000060830797,508.49999570505946,378.5000060830797,528.4999957050594,378.5000060830797"></path><path id="kity_path_55" fill="none" stroke="rgb(115, 161, 191)" stroke-width="1" d="M598.4999957050594,378.5000060830797C618.4999957050594,378.5000060830797,618.4999957050594,352.5000060830797,638.4999957050594,352.5000060830797"></path><path id="kity_path_57" fill="none" stroke="rgb(115, 161, 191)" stroke-width="1" d="M598.4999957050594,378.5000060830797C618.4999957050594,378.5000060830797,618.4999957050594,404.5000060830797,638.4999957050594,404.5000060830797"></path><path id="kity_path_59" fill="none" stroke="rgb(115, 161, 191)" stroke-width="1" d="M355.49999570505946,326.5000060830797C375.49999570505946,326.5000060830797,375.49999570505946,508.5000060830797,395.49999570505946,508.5000060830797"></path><path id="kity_path_61" fill="none" stroke="rgb(115, 161, 191)" stroke-width="1" d="M488.49999570505946,508.5000060830797C508.49999570505946,508.5000060830797,508.49999570505946,456.5000060830797,528.4999957050594,456.5000060830797"></path><path id="kity_path_63" fill="none" stroke="rgb(115, 161, 191)" stroke-width="1" d="M488.49999570505946,508.5000060830797C508.49999570505946,508.5000060830797,508.49999570505946,508.5000060830797,528.4999957050594,508.5000060830797"></path><path id="kity_path_65" fill="none" stroke="rgb(115, 161, 191)" stroke-width="1" d="M488.49999570505946,508.5000060830797C508.49999570505946,508.5000060830797,508.49999570505946,560.5000060830797,528.4999957050594,560.5000060830797"></path><path id="kity_path_67" fill="none" stroke="rgb(115, 161, 191)" stroke-width="1" d="M93.99999570505943,783.5000060830797A190.5,21,0,0,0,284.49999570505946,804.5000060830797"></path><path id="kity_path_69" fill="none" stroke="rgb(115, 161, 191)" stroke-width="1" d="M355.49999570505946,804.5000060830797C375.49999570505946,804.5000060830797,375.49999570505946,674.5000060830797,395.49999570505946,674.5000060830797"></path><path id="kity_path_71" fill="none" stroke="rgb(115, 161, 191)" stroke-width="1" d="M453.49999570505946,674.5000060830797C473.49999570505946,674.5000060830797,473.49999570505946,622.5000060830797,493.49999570505946,622.5000060830797"></path><path id="kity_path_73" fill="none" stroke="rgb(115, 161, 191)" stroke-width="1" d="M453.49999570505946,674.5000060830797C473.49999570505946,674.5000060830797,473.49999570505946,674.5000060830797,493.49999570505946,674.5000060830797"></path><path id="kity_path_75" fill="none" stroke="rgb(115, 161, 191)" stroke-width="1" d="M453.49999570505946,674.5000060830797C473.49999570505946,674.5000060830797,473.49999570505946,726.5000060830797,493.49999570505946,726.5000060830797"></path><path id="kity_path_77" fill="none" stroke="rgb(115, 161, 191)" stroke-width="1" d="M355.49999570505946,804.5000060830797C375.49999570505946,804.5000060830797,375.49999570505946,830.5000060830797,395.49999570505946,830.5000060830797"></path><path id="kity_path_79" fill="none" stroke="rgb(115, 161, 191)" stroke-width="1" d="M355.49999570505946,804.5000060830797C375.49999570505946,804.5000060830797,375.49999570505946,882.5000060830797,395.49999570505946,882.5000060830797"></path><path id="kity_path_81" fill="none" stroke="rgb(115, 161, 191)" stroke-width="1" d="M355.49999570505946,804.5000060830797C375.49999570505946,804.5000060830797,375.49999570505946,934.5000060830797,395.49999570505946,934.5000060830797"></path><path id="kity_path_83" fill="none" stroke="rgb(115, 161, 191)" stroke-width="1" d="M93.99999570505943,783.5000060830797A190.5,343,0,0,0,284.49999570505946,1126.5000060830798"></path><path id="kity_path_85" fill="none" stroke="rgb(115, 161, 191)" stroke-width="1" d="M355.49999570505946,1126.5000060830798C375.49999570505946,1126.5000060830798,375.49999570505946,1048.5000060830798,395.49999570505946,1048.5000060830798"></path><path id="kity_path_87" fill="none" stroke="rgb(115, 161, 191)" stroke-width="1" d="M464.49999570505946,1048.5000060830798C484.49999570505946,1048.5000060830798,484.49999570505946,996.5000060830797,504.49999570505946,996.5000060830797"></path><path id="kity_path_89" fill="none" stroke="rgb(115, 161, 191)" stroke-width="1" d="M464.49999570505946,1048.5000060830798C484.49999570505946,1048.5000060830798,484.49999570505946,1048.5000060830798,504.49999570505946,1048.5000060830798"></path><path id="kity_path_91" fill="none" stroke="rgb(115, 161, 191)" stroke-width="1" d="M464.49999570505946,1048.5000060830798C484.49999570505946,1048.5000060830798,484.49999570505946,1100.5000060830798,504.49999570505946,1100.5000060830798"></path><path id="kity_path_93" fill="none" stroke="rgb(115, 161, 191)" stroke-width="1" d="M355.49999570505946,1126.5000060830798C375.49999570505946,1126.5000060830798,375.49999570505946,1152.5000060830798,395.49999570505946,1152.5000060830798"></path><path id="kity_path_95" fill="none" stroke="rgb(115, 161, 191)" stroke-width="1" d="M355.49999570505946,1126.5000060830798C375.49999570505946,1126.5000060830798,375.49999570505946,1204.5000060830798,395.49999570505946,1204.5000060830798"></path><path id="kity_path_97" fill="none" stroke="rgb(115, 161, 191)" stroke-width="1" d="M93.99999570505943,783.5000060830797A190.5,535,0,0,0,284.49999570505946,1318.5000060830798"></path><path id="kity_path_99" fill="none" stroke="rgb(115, 161, 191)" stroke-width="1" d="M354.49999570505946,1318.5000060830798C374.49999570505946,1318.5000060830798,374.49999570505946,1266.5000060830798,394.49999570505946,1266.5000060830798"></path><path id="kity_path_101" fill="none" stroke="rgb(115, 161, 191)" stroke-width="1" d="M354.49999570505946,1318.5000060830798C374.49999570505946,1318.5000060830798,374.49999570505946,1318.5000060830798,394.49999570505946,1318.5000060830798"></path><path id="kity_path_103" fill="none" stroke="rgb(115, 161, 191)" stroke-width="1" d="M354.49999570505946,1318.5000060830798C374.49999570505946,1318.5000060830798,374.49999570505946,1370.5000060830798,394.49999570505946,1370.5000060830798"></path><path id="kity_path_105" fill="none" stroke="rgb(115, 161, 191)" stroke-width="1" d="M93.99999570505943,783.5000060830797A190.5,727,0,0,0,284.49999570505946,1510.5000060830798"></path><path id="kity_path_107" fill="none" stroke="rgb(115, 161, 191)" stroke-width="1" d="M355.49999570505946,1510.5000060830798C375.49999570505946,1510.5000060830798,375.49999570505946,1432.5000060830798,395.49999570505946,1432.5000060830798"></path><path id="kity_path_109" fill="none" stroke="rgb(115, 161, 191)" stroke-width="1" d="M440.49999570505946,1432.5000060830798C460.49999570505946,1432.5000060830798,460.49999570505946,1432.5000060830798,480.49999570505946,1432.5000060830798"></path><path id="kity_path_111" fill="none" stroke="rgb(115, 161, 191)" stroke-width="1" d="M355.49999570505946,1510.5000060830798C375.49999570505946,1510.5000060830798,375.49999570505946,1484.5000060830798,395.49999570505946,1484.5000060830798"></path><path id="kity_path_113" fill="none" stroke="rgb(115, 161, 191)" stroke-width="1" d="M355.49999570505946,1510.5000060830798C375.49999570505946,1510.5000060830798,375.49999570505946,1536.5000060830798,395.49999570505946,1536.5000060830798"></path><path id="kity_path_115" fill="none" stroke="rgb(115, 161, 191)" stroke-width="1" d="M355.49999570505946,1510.5000060830798C375.49999570505946,1510.5000060830798,375.49999570505946,1588.5000060830798,395.49999570505946,1588.5000060830798"></path><path id="kity_path_375" fill="none" stroke="rgb(115, 161, 191)" stroke-width="1" d="M355.49999570505946,804.5000060830797C375.49999570505946,804.5000060830797,375.49999570505946,778.5000060830797,395.49999570505946,778.5000060830797"></path></g><g id="minder_node1"><path id="node_outline1" fill="rgb(115, 161, 191)" stroke="rgb(115, 161, 191)" d="M26.49999570505944,763.5000060830797h135a5,5,0,0,1,5,5v30a5,5,0,0,1,-5,5h-135a5,5,0,0,1,-5,-5v-30a5,5,0,0,1,5,-5z" stroke-width="3"></path><g id="node_text1" fill="white"><text id="kity_text_22" text-rendering="inherit" font-size="16" dy=".8em" y="775.5000060830797" x="45.49999570505944">编程语言导图</text></g></g><g id="kity_g_12"><path id="kity_path_13" fill="none" stroke="none" d="M45.49999570505944,783.5000060830797h0v0h0z"></path></g><g id="kity_g_14"><path id="kity_path_15" fill="none" stroke="none" d="M45.49999570505944,783.5000060830797h0v0h0z"></path><path id="kity_path_16" fill="none" stroke="none"></path></g><g id="minder_node2"><g id="node_expander5" style="cursor: pointer;"><path id="kity_path_258" fill="white" stroke="gray" d="M285.49999738420735,56.50000113078556A6,6,0,1,1,273.49999738420735,56.50000113078556A6,6,0,1,1,285.49999738420735,56.50000113078556"></path><path id="kity_path_259" fill="none" stroke="gray" d="M274.99999738420735,56.50000113078556L283.99999738420735,56.50000113078556"></path></g><path id="node_outline6" fill="rgb(238, 243, 246)" stroke="rgb(115, 161, 191)" d="M289.49999748298075,43.50000113078556h62a3,3,0,0,1,3,3v20a3,3,0,0,1,-3,3h-62a3,3,0,0,1,-3,-3v-20a3,3,0,0,1,3,-3z" stroke-width="1"></path><g id="node_text6" fill="black"><text id="kity_text_125" text-rendering="inherit" font-size="14" dy=".8em" y="49.50000113078556" x="306.49999748298075">常识</text></g></g><g id="minder_node3"><g id="node_expander3" style="cursor: pointer;"><path id="kity_path_252" fill="white" stroke="gray" d="M394.49999804156147,30.500000953674544A6,6,0,1,1,382.49999804156147,30.500000953674544A6,6,0,1,1,394.49999804156147,30.500000953674544"></path><path id="kity_path_253" fill="none" stroke="gray" d="M383.99999804156147,30.500000953674544L392.99999804156147,30.500000953674544"></path></g><path id="node_outline4" fill="none" stroke="none" d="M399.4999981505528,19.500000953674544h60a5,5,0,0,1,5,5v12a5,5,0,0,1,-5,5h-60a5,5,0,0,1,-5,-5v-12a5,5,0,0,1,5,-5z"></path><g id="node_text4" fill="black"><text id="kity_text_121" text-rendering="inherit" font-size="12" dy=".8em" y="24.500000953674544" x="404.4999981505528">通用模式</text></g></g><g id="minder_node4"><g id="node_expander2" style="cursor: pointer;"><path id="kity_path_249" fill="white" stroke="gray" d="M504.4999987908768,30.500000953674544A6,6,0,1,1,492.4999987908768,30.500000953674544A6,6,0,1,1,504.4999987908768,30.500000953674544"></path><path id="kity_path_250" fill="none" stroke="gray" d="M493.9999987908768,30.500000953674544L502.9999987908768,30.500000953674544"></path></g><path id="node_outline3" fill="none" stroke="none" d="M509.49999889986816,19.500000953674544h59a5,5,0,0,1,5,5v12a5,5,0,0,1,-5,5h-59a5,5,0,0,1,-5,-5v-12a5,5,0,0,1,5,-5z"></path><g id="node_text3" fill="black"><text id="kity_text_119" text-rendering="inherit" font-size="12" dy=".8em" y="24.500000953674544" x="514.4999988998682">编程原则</text></g></g><g id="minder_node5"><g id="node_expander1" style="cursor: pointer;" display="none"><path id="kity_path_246" fill="white" stroke="gray" d="M613.4999995333803,30.500000953674544A6,6,0,1,1,601.4999995333803,30.500000953674544A6,6,0,1,1,613.4999995333803,30.500000953674544"></path><path id="kity_path_247" fill="none" stroke="gray"></path></g><path id="node_outline2" fill="none" stroke="none" d="M618.4999996423717,19.500000953674544h83a5,5,0,0,1,5,5v12a5,5,0,0,1,-5,5h-83a5,5,0,0,1,-5,-5v-12a5,5,0,0,1,5,-5z"></path><g id="node_text2" fill="black"><text id="kity_text_117" text-rendering="inherit" font-size="12" dy=".8em" y="24.500000953674544" x="623.4999996423717">开放闭合原则</text></g></g><g id="minder_node6"><g id="node_expander4" style="cursor: pointer;" display="none"><path id="kity_path_255" fill="white" stroke="gray" d="M394.49999804156147,82.50000130789647A6,6,0,1,1,382.49999804156147,82.50000130789647A6,6,0,1,1,394.49999804156147,82.50000130789647"></path><path id="kity_path_256" fill="none" stroke="gray"></path></g><path id="node_outline5" fill="none" stroke="none" d="M399.4999981505528,71.50000130789647h95a5,5,0,0,1,5,5v12a5,5,0,0,1,-5,5h-95a5,5,0,0,1,-5,-5v-12a5,5,0,0,1,5,-5z"></path><g id="node_text5" fill="black"><text id="kity_text_123" text-rendering="inherit" font-size="12" dy=".8em" y="76.50000130789647" x="404.4999981505528">特定语言的规范</text></g></g><g id="minder_node7"><g id="node_expander18" style="cursor: pointer;"><path id="kity_path_297" fill="white" stroke="gray" d="M285.49999738420735,326.50000297001446A6,6,0,1,1,273.49999738420735,326.50000297001446A6,6,0,1,1,285.49999738420735,326.50000297001446"></path><path id="kity_path_298" fill="none" stroke="gray" d="M274.99999738420735,326.50000297001446L283.99999738420735,326.50000297001446"></path></g><path id="node_outline19" fill="rgb(238, 243, 246)" stroke="rgb(115, 161, 191)" d="M289.49999748298075,313.50000297001446h63a3,3,0,0,1,3,3v20a3,3,0,0,1,-3,3h-63a3,3,0,0,1,-3,-3v-20a3,3,0,0,1,3,-3z" stroke-width="1"></path><g id="node_text19" fill="black"><text id="kity_text_151" text-rendering="inherit" font-size="14" dy=".8em" y="319.50000297001446" x="306.49999748298075">基础</text></g></g><g id="minder_node8"><g id="node_expander6" style="cursor: pointer;" display="none"><path id="kity_path_261" fill="white" stroke="gray" d="M395.49999804837336,144.50000173023795A6,6,0,1,1,383.49999804837336,144.50000173023795A6,6,0,1,1,395.49999804837336,144.50000173023795"></path><path id="kity_path_262" fill="none" stroke="gray"></path></g><path id="node_outline7" fill="none" stroke="none" d="M400.4999981573647,133.50000173023795h60a5,5,0,0,1,5,5v12a5,5,0,0,1,-5,5h-60a5,5,0,0,1,-5,-5v-12a5,5,0,0,1,5,-5z"></path><g id="node_text7" fill="black"><text id="kity_text_127" text-rendering="inherit" font-size="12" dy=".8em" y="138.50000173023795" x="405.4999981573647">命名规范</text></g></g><g id="minder_node9"><g id="node_expander7" style="cursor: pointer;" display="none"><path id="kity_path_264" fill="white" stroke="gray" d="M395.49999804837336,196.50000208445977A6,6,0,1,1,383.49999804837336,196.50000208445977A6,6,0,1,1,395.49999804837336,196.50000208445977"></path><path id="kity_path_265" fill="none" stroke="gray"></path></g><path id="node_outline8" fill="none" stroke="none" d="M400.4999981573647,185.50000208445977h36a5,5,0,0,1,5,5v12a5,5,0,0,1,-5,5h-36a5,5,0,0,1,-5,-5v-12a5,5,0,0,1,5,-5z"></path><g id="node_text8" fill="black"><text id="kity_text_129" text-rendering="inherit" font-size="12" dy=".8em" y="190.50000208445977" x="405.4999981573647">注释</text></g></g><g id="minder_node10"><g id="node_expander13" style="cursor: pointer;"><path id="kity_path_282" fill="white" stroke="gray" d="M395.49999804837336,313.50000288145895A6,6,0,1,1,383.49999804837336,313.50000288145895A6,6,0,1,1,395.49999804837336,313.50000288145895"></path><path id="kity_path_283" fill="none" stroke="gray" d="M384.99999804837336,313.50000288145895L393.99999804837336,313.50000288145895"></path></g><path id="node_outline14" fill="none" stroke="none" d="M400.4999981573647,302.50000288145895h83a5,5,0,0,1,5,5v12a5,5,0,0,1,-5,5h-83a5,5,0,0,1,-5,-5v-12a5,5,0,0,1,5,-5z"></path><g id="node_text14" fill="black"><text id="kity_text_141" text-rendering="inherit" font-size="12" dy=".8em" y="307.50000288145895" x="405.4999981573647">基本数据类型</text></g></g><g id="minder_node11"><g id="node_expander8" style="cursor: pointer;" display="none"><path id="kity_path_267" fill="white" stroke="gray" d="M528.4999989543638,248.5000024386818A6,6,0,1,1,516.4999989543638,248.5000024386818A6,6,0,1,1,528.4999989543638,248.5000024386818"></path><path id="kity_path_268" fill="none" stroke="gray"></path></g><path id="node_outline9" fill="none" stroke="none" d="M533.4999990633552,237.5000024386818h47a5,5,0,0,1,5,5v12a5,5,0,0,1,-5,5h-47a5,5,0,0,1,-5,-5v-12a5,5,0,0,1,5,-5z"></path><g id="node_text9" fill="black"><text id="kity_text_131" text-rendering="inherit" font-size="12" dy=".8em" y="242.5000024386818" x="538.4999990633552">字面值</text></g></g><g id="minder_node12"><g id="node_expander9" style="cursor: pointer;" display="none"><path id="kity_path_270" fill="white" stroke="gray" d="M528.4999989543638,300.5000027929035A6,6,0,1,1,516.4999989543638,300.5000027929035A6,6,0,1,1,528.4999989543638,300.5000027929035"></path><path id="kity_path_271" fill="none" stroke="gray"></path></g><path id="node_outline10" fill="none" stroke="none" d="M533.4999990633552,289.5000027929035h36a5,5,0,0,1,5,5v12a5,5,0,0,1,-5,5h-36a5,5,0,0,1,-5,-5v-12a5,5,0,0,1,5,-5z"></path><g id="node_text10" fill="black"><text id="kity_text_133" text-rendering="inherit" font-size="12" dy=".8em" y="294.5000027929035" x="538.4999990633552">值域</text></g></g><g id="minder_node13"><g id="node_expander12" style="cursor: pointer;"><path id="kity_path_279" fill="white" stroke="gray" d="M528.4999989543638,378.50000332423633A6,6,0,1,1,516.4999989543638,378.50000332423633A6,6,0,1,1,528.4999989543638,378.50000332423633"></path><path id="kity_path_280" fill="none" stroke="gray" d="M517.9999989543638,378.50000332423633L526.9999989543638,378.50000332423633"></path></g><path id="node_outline13" fill="none" stroke="none" d="M533.4999990633552,367.50000332423633h60a5,5,0,0,1,5,5v12a5,5,0,0,1,-5,5h-60a5,5,0,0,1,-5,-5v-12a5,5,0,0,1,5,-5z"></path><g id="node_text13" fill="black"><text id="kity_text_139" text-rendering="inherit" font-size="12" dy=".8em" y="372.50000332423633" x="538.4999990633552">类型转换</text></g></g><g id="minder_node14"><g id="node_expander10" style="cursor: pointer;" display="none"><path id="kity_path_273" fill="white" stroke="gray" d="M638.4999997036795,352.50000314712537A6,6,0,1,1,626.4999997036795,352.50000314712537A6,6,0,1,1,638.4999997036795,352.50000314712537"></path><path id="kity_path_274" fill="none" stroke="gray"></path></g><path id="node_outline11" fill="none" stroke="none" d="M643.4999998126708,341.50000314712537h83a5,5,0,0,1,5,5v12a5,5,0,0,1,-5,5h-83a5,5,0,0,1,-5,-5v-12a5,5,0,0,1,5,-5z"></path><g id="node_text11" fill="black"><text id="kity_text_135" text-rendering="inherit" font-size="12" dy=".8em" y="346.50000314712537" x="648.4999998126708">自动类型转换</text></g></g><g id="minder_node15"><g id="node_expander11" style="cursor: pointer;" display="none"><path id="kity_path_276" fill="white" stroke="gray" d="M638.4999997036795,404.50000350134724A6,6,0,1,1,626.4999997036795,404.50000350134724A6,6,0,1,1,638.4999997036795,404.50000350134724"></path><path id="kity_path_277" fill="none" stroke="gray"></path></g><path id="node_outline12" fill="none" stroke="none" d="M643.4999998126708,393.50000350134724h84a5,5,0,0,1,5,5v12a5,5,0,0,1,-5,5h-84a5,5,0,0,1,-5,-5v-12a5,5,0,0,1,5,-5z"></path><g id="node_text12" fill="black"><text id="kity_text_137" text-rendering="inherit" font-size="12" dy=".8em" y="398.50000350134724" x="648.4999998126708">强制类型转换</text></g></g><g id="minder_node16"><g id="node_expander17" style="cursor: pointer;"><path id="kity_path_294" fill="white" stroke="gray" d="M395.49999804837336,508.50000420979103A6,6,0,1,1,383.49999804837336,508.50000420979103A6,6,0,1,1,395.49999804837336,508.50000420979103"></path><path id="kity_path_295" fill="none" stroke="gray" d="M384.99999804837336,508.50000420979103L393.99999804837336,508.50000420979103"></path></g><path id="node_outline18" fill="none" stroke="none" d="M400.4999981573647,497.50000420979103h83a5,5,0,0,1,5,5v12a5,5,0,0,1,-5,5h-83a5,5,0,0,1,-5,-5v-12a5,5,0,0,1,5,-5z"></path><g id="node_text18" fill="black"><text id="kity_text_149" text-rendering="inherit" font-size="12" dy=".8em" y="502.50000420979103" x="405.4999981573647">复合数据类型</text></g></g><g id="minder_node17"><g id="node_expander14" style="cursor: pointer;" display="none"><path id="kity_path_285" fill="white" stroke="gray" d="M528.4999989543638,456.50000385556916A6,6,0,1,1,516.4999989543638,456.50000385556916A6,6,0,1,1,528.4999989543638,456.50000385556916"></path><path id="kity_path_286" fill="none" stroke="gray"></path></g><path id="node_outline15" fill="none" stroke="none" d="M533.4999990633552,445.50000385556916h36a5,5,0,0,1,5,5v12a5,5,0,0,1,-5,5h-36a5,5,0,0,1,-5,-5v-12a5,5,0,0,1,5,-5z"></path><g id="node_text15" fill="black"><text id="kity_text_143" text-rendering="inherit" font-size="12" dy=".8em" y="450.50000385556916" x="538.4999990633552">数组</text></g></g><g id="minder_node18"><g id="node_expander15" style="cursor: pointer;" display="none"><path id="kity_path_288" fill="white" stroke="gray" d="M528.4999989543638,508.50000420979103A6,6,0,1,1,516.4999989543638,508.50000420979103A6,6,0,1,1,528.4999989543638,508.50000420979103"></path><path id="kity_path_289" fill="none" stroke="gray"></path></g><path id="node_outline16" fill="none" stroke="none" d="M533.4999990633552,497.50000420979103h36a5,5,0,0,1,5,5v12a5,5,0,0,1,-5,5h-36a5,5,0,0,1,-5,-5v-12a5,5,0,0,1,5,-5z"></path><g id="node_text16" fill="black"><text id="kity_text_145" text-rendering="inherit" font-size="12" dy=".8em" y="502.50000420979103" x="538.4999990633552">枚举</text></g></g><g id="minder_node19"><g id="node_expander16" style="cursor: pointer;" display="none"><path id="kity_path_291" fill="white" stroke="gray" d="M528.4999989543638,560.5000045640129A6,6,0,1,1,516.4999989543638,560.5000045640129A6,6,0,1,1,528.4999989543638,560.5000045640129"></path><path id="kity_path_292" fill="none" stroke="gray"></path></g><path id="node_outline17" fill="none" stroke="none" d="M533.4999990633552,549.5000045640129h36a5,5,0,0,1,5,5v12a5,5,0,0,1,-5,5h-36a5,5,0,0,1,-5,-5v-12a5,5,0,0,1,5,-5z"></path><g id="node_text17" fill="black"><text id="kity_text_147" text-rendering="inherit" font-size="12" dy=".8em" y="554.5000045640129" x="538.4999990633552">元组</text></g></g><g id="minder_node20"><g id="node_expander26" style="cursor: pointer;"><path id="kity_path_321" fill="white" stroke="gray" d="M285.49999738420735,804.5000062261308A6,6,0,1,1,273.49999738420735,804.5000062261308A6,6,0,1,1,285.49999738420735,804.5000062261308"></path><path id="kity_path_322" fill="none" stroke="gray" d="M274.99999738420735,804.5000062261308L283.99999738420735,804.5000062261308"></path></g><path id="node_outline27" fill="rgb(238, 243, 246)" stroke="rgb(115, 161, 191)" d="M289.49999748298075,791.5000062261308h63a3,3,0,0,1,3,3v20a3,3,0,0,1,-3,3h-63a3,3,0,0,1,-3,-3v-20a3,3,0,0,1,3,-3z" stroke-width="1"></path><g id="node_text27" fill="black"><text id="kity_text_167" text-rendering="inherit" font-size="14" dy=".8em" y="797.5000062261308" x="306.49999748298075">语句</text></g></g><g id="minder_node21"><g id="node_expander22" style="cursor: pointer;"><path id="kity_path_309" fill="white" stroke="gray" d="M395.49999804837336,674.5000053405762A6,6,0,1,1,383.49999804837336,674.5000053405762A6,6,0,1,1,395.49999804837336,674.5000053405762"></path><path id="kity_path_310" fill="none" stroke="gray" d="M384.99999804837336,674.5000053405762L393.99999804837336,674.5000053405762"></path></g><path id="node_outline23" fill="none" stroke="none" d="M400.4999981573647,663.5000053405762h48a5,5,0,0,1,5,5v12a5,5,0,0,1,-5,5h-48a5,5,0,0,1,-5,-5v-12a5,5,0,0,1,5,-5z" stroke-width="3"></path><g id="node_text23" fill="black"><text id="kity_text_159" text-rendering="inherit" font-size="12" dy=".8em" y="668.5000053405762" x="405.4999981573647">表达式</text></g></g><g id="minder_node22"><g id="node_expander19" style="cursor: pointer;" display="none"><path id="kity_path_300" fill="white" stroke="gray" d="M493.4999987159453,622.5000049863543A6,6,0,1,1,481.4999987159453,622.5000049863543A6,6,0,1,1,493.4999987159453,622.5000049863543"></path><path id="kity_path_301" fill="none" stroke="gray"></path></g><path id="node_outline20" fill="none" stroke="none" d="M498.49999882493665,611.5000049863543h35a5,5,0,0,1,5,5v12a5,5,0,0,1,-5,5h-35a5,5,0,0,1,-5,-5v-12a5,5,0,0,1,5,-5z" stroke-width="3"></path><g id="node_text20" fill="black"><text id="kity_text_153" text-rendering="inherit" font-size="12" dy=".8em" y="616.5000049863543" x="503.49999882493665">声明</text></g></g><g id="minder_node23"><g id="node_expander20" style="cursor: pointer;" display="none"><path id="kity_path_303" fill="white" stroke="gray" d="M493.4999987159453,674.5000053405762A6,6,0,1,1,481.4999987159453,674.5000053405762A6,6,0,1,1,493.4999987159453,674.5000053405762"></path><path id="kity_path_304" fill="none" stroke="gray"></path></g><path id="node_outline21" fill="none" stroke="none" d="M498.49999882493665,663.5000053405762h35a5,5,0,0,1,5,5v12a5,5,0,0,1,-5,5h-35a5,5,0,0,1,-5,-5v-12a5,5,0,0,1,5,-5z" stroke-width="3"></path><g id="node_text21" fill="black"><text id="kity_text_155" text-rendering="inherit" font-size="12" dy=".8em" y="668.5000053405762" x="503.49999882493665">计算</text></g></g><g id="minder_node24"><g id="node_expander21" style="cursor: pointer;" display="none"><path id="kity_path_306" fill="white" stroke="gray" d="M493.4999987159453,726.500005694798A6,6,0,1,1,481.4999987159453,726.500005694798A6,6,0,1,1,493.4999987159453,726.500005694798"></path><path id="kity_path_307" fill="none" stroke="gray"></path></g><path id="node_outline22" fill="none" stroke="none" d="M498.49999882493665,715.500005694798h36a5,5,0,0,1,5,5v12a5,5,0,0,1,-5,5h-36a5,5,0,0,1,-5,-5v-12a5,5,0,0,1,5,-5z" stroke-width="3"></path><g id="node_text22" fill="black"><text id="kity_text_157" text-rendering="inherit" font-size="12" dy=".8em" y="720.500005694798" x="503.49999882493665">赋值</text></g></g><g id="minder_node25"><g id="node_expander23" style="cursor: pointer;" display="none"><path id="kity_path_312" fill="white" stroke="gray" d="M395.49999804837336,830.5000064032417A6,6,0,1,1,383.49999804837336,830.5000064032417A6,6,0,1,1,395.49999804837336,830.5000064032417"></path><path id="kity_path_313" fill="none" stroke="gray"></path></g><path id="node_outline24" fill="none" stroke="none" d="M400.4999981573647,819.5000064032417h59a5,5,0,0,1,5,5v12a5,5,0,0,1,-5,5h-59a5,5,0,0,1,-5,-5v-12a5,5,0,0,1,5,-5z"></path><g id="node_text24" fill="black"><text id="kity_text_161" text-rendering="inherit" font-size="12" dy=".8em" y="824.5000064032417" x="405.4999981573647">分支语句</text></g></g><g id="minder_node26"><g id="node_expander24" style="cursor: pointer;" display="none"><path id="kity_path_315" fill="white" stroke="gray" d="M395.49999804837336,882.5000067574637A6,6,0,1,1,383.49999804837336,882.5000067574637A6,6,0,1,1,395.49999804837336,882.5000067574637"></path><path id="kity_path_316" fill="none" stroke="gray"></path></g><path id="node_outline25" fill="none" stroke="none" d="M400.4999981573647,871.5000067574637h59a5,5,0,0,1,5,5v12a5,5,0,0,1,-5,5h-59a5,5,0,0,1,-5,-5v-12a5,5,0,0,1,5,-5z"></path><g id="node_text25" fill="black"><text id="kity_text_163" text-rendering="inherit" font-size="12" dy=".8em" y="876.5000067574637" x="405.4999981573647">循环语句</text></g></g><g id="minder_node27"><g id="node_expander25" style="cursor: pointer;" display="none"><path id="kity_path_318" fill="white" stroke="gray" d="M395.49999804837336,934.5000071116856A6,6,0,1,1,383.49999804837336,934.5000071116856A6,6,0,1,1,395.49999804837336,934.5000071116856"></path><path id="kity_path_319" fill="none" stroke="gray"></path></g><path id="node_outline26" fill="none" stroke="none" d="M400.4999981573647,923.5000071116856h59a5,5,0,0,1,5,5v12a5,5,0,0,1,-5,5h-59a5,5,0,0,1,-5,-5v-12a5,5,0,0,1,5,-5z"></path><g id="node_text26" fill="black"><text id="kity_text_165" text-rendering="inherit" font-size="12" dy=".8em" y="928.5000071116856" x="405.4999981573647">异常控制</text></g></g><g id="minder_node28"><g id="node_expander33" style="cursor: pointer;"><path id="kity_path_342" fill="white" stroke="gray" d="M285.49999738420735,1126.5000084195817A6,6,0,1,1,273.49999738420735,1126.5000084195817A6,6,0,1,1,285.49999738420735,1126.5000084195817"></path><path id="kity_path_343" fill="none" stroke="gray" d="M274.99999738420735,1126.5000084195817L283.99999738420735,1126.5000084195817"></path></g><path id="node_outline34" fill="rgb(238, 243, 246)" stroke="rgb(115, 161, 191)" d="M289.49999748298075,1113.5000084195817h63a3,3,0,0,1,3,3v20a3,3,0,0,1,-3,3h-63a3,3,0,0,1,-3,-3v-20a3,3,0,0,1,3,-3z" stroke-width="1"></path><g id="node_text34" fill="black"><text id="kity_text_181" text-rendering="inherit" font-size="14" dy=".8em" y="1119.5000084195817" x="306.49999748298075">模块</text></g></g><g id="minder_node29"><g id="node_expander30" style="cursor: pointer;"><path id="kity_path_333" fill="white" stroke="gray" d="M395.49999804837336,1048.5000078882488A6,6,0,1,1,383.49999804837336,1048.5000078882488A6,6,0,1,1,395.49999804837336,1048.5000078882488"></path><path id="kity_path_334" fill="none" stroke="gray" d="M384.99999804837336,1048.5000078882488L393.99999804837336,1048.5000078882488"></path></g><path id="node_outline31" fill="none" stroke="none" d="M400.4999981573647,1037.5000078882488h59a5,5,0,0,1,5,5v12a5,5,0,0,1,-5,5h-59a5,5,0,0,1,-5,-5v-12a5,5,0,0,1,5,-5z"></path><g id="node_text31" fill="black"><text id="kity_text_175" text-rendering="inherit" font-size="12" dy=".8em" y="1042.5000078882488" x="405.4999981573647">命名空间</text></g></g><g id="minder_node30"><g id="node_expander27" style="cursor: pointer;" display="none"><path id="kity_path_324" fill="white" stroke="gray" d="M504.4999987908768,996.500007534027A6,6,0,1,1,492.4999987908768,996.500007534027A6,6,0,1,1,504.4999987908768,996.500007534027"></path><path id="kity_path_325" fill="none" stroke="gray"></path></g><path id="node_outline28" fill="none" stroke="none" d="M509.49999889986816,985.500007534027h60a5,5,0,0,1,5,5v12a5,5,0,0,1,-5,5h-60a5,5,0,0,1,-5,-5v-12a5,5,0,0,1,5,-5z"></path><g id="node_text28" fill="black"><text id="kity_text_169" text-rendering="inherit" font-size="12" dy=".8em" y="990.500007534027" x="514.4999988998682">组织模块</text></g></g><g id="minder_node31"><g id="node_expander28" style="cursor: pointer;" display="none"><path id="kity_path_327" fill="white" stroke="gray" d="M504.4999987908768,1048.5000078882488A6,6,0,1,1,492.4999987908768,1048.5000078882488A6,6,0,1,1,504.4999987908768,1048.5000078882488"></path><path id="kity_path_328" fill="none" stroke="gray"></path></g><path id="node_outline29" fill="none" stroke="none" d="M509.49999889986816,1037.5000078882488h59a5,5,0,0,1,5,5v12a5,5,0,0,1,-5,5h-59a5,5,0,0,1,-5,-5v-12a5,5,0,0,1,5,-5z"></path><g id="node_text29" fill="black"><text id="kity_text_171" text-rendering="inherit" font-size="12" dy=".8em" y="1042.5000078882488" x="514.4999988998682">导入名称</text></g></g><g id="minder_node32"><g id="node_expander29" style="cursor: pointer;" display="none"><path id="kity_path_330" fill="white" stroke="gray" d="M504.4999987908768,1100.5000082424708A6,6,0,1,1,492.4999987908768,1100.5000082424708A6,6,0,1,1,504.4999987908768,1100.5000082424708"></path><path id="kity_path_331" fill="none" stroke="gray"></path></g><path id="node_outline30" fill="none" stroke="none" d="M509.49999889986816,1089.5000082424708h59a5,5,0,0,1,5,5v12a5,5,0,0,1,-5,5h-59a5,5,0,0,1,-5,-5v-12a5,5,0,0,1,5,-5z"></path><g id="node_text30" fill="black"><text id="kity_text_173" text-rendering="inherit" font-size="12" dy=".8em" y="1094.5000082424708" x="514.4999988998682">导出名称</text></g></g><g id="minder_node33"><g id="node_expander31" style="cursor: pointer;" display="none"><path id="kity_path_336" fill="white" stroke="gray" d="M395.49999804837336,1152.5000085966926A6,6,0,1,1,383.49999804837336,1152.5000085966926A6,6,0,1,1,395.49999804837336,1152.5000085966926"></path><path id="kity_path_337" fill="none" stroke="gray"></path></g><path id="node_outline32" fill="none" stroke="none" d="M400.4999981573647,1141.5000085966926h35a5,5,0,0,1,5,5v12a5,5,0,0,1,-5,5h-35a5,5,0,0,1,-5,-5v-12a5,5,0,0,1,5,-5z"></path><g id="node_text32" fill="black"><text id="kity_text_177" text-rendering="inherit" font-size="12" dy=".8em" y="1146.5000085966926" x="405.4999981573647">函数</text></g></g><g id="minder_node34"><g id="node_expander32" style="cursor: pointer;" display="none"><path id="kity_path_339" fill="white" stroke="gray" d="M395.49999804837336,1204.5000089509144A6,6,0,1,1,383.49999804837336,1204.5000089509144A6,6,0,1,1,395.49999804837336,1204.5000089509144"></path><path id="kity_path_340" fill="none" stroke="gray"></path></g><path id="node_outline33" fill="none" stroke="none" d="M400.4999981573647,1193.5000089509144h24a5,5,0,0,1,5,5v12a5,5,0,0,1,-5,5h-24a5,5,0,0,1,-5,-5v-12a5,5,0,0,1,5,-5z"></path><g id="node_text33" fill="black"><text id="kity_text_179" text-rendering="inherit" font-size="12" dy=".8em" y="1198.5000089509144" x="405.4999981573647">类</text></g></g><g id="minder_node35"><g id="node_expander37" style="cursor: pointer;"><path id="kity_path_354" fill="white" stroke="gray" d="M285.49999738420735,1318.5000097274778A6,6,0,1,1,273.49999738420735,1318.5000097274778A6,6,0,1,1,285.49999738420735,1318.5000097274778"></path><path id="kity_path_355" fill="none" stroke="gray" d="M274.99999738420735,1318.5000097274778L283.99999738420735,1318.5000097274778"></path></g><path id="node_outline38" fill="rgb(238, 243, 246)" stroke="rgb(115, 161, 191)" d="M289.49999748298075,1305.5000097274778h62a3,3,0,0,1,3,3v20a3,3,0,0,1,-3,3h-62a3,3,0,0,1,-3,-3v-20a3,3,0,0,1,3,-3z" stroke-width="1"></path><g id="node_text38" fill="black"><text id="kity_text_189" text-rendering="inherit" font-size="14" dy=".8em" y="1311.5000097274778" x="306.49999748298075">工具</text></g></g><g id="minder_node36"><g id="node_expander34" style="cursor: pointer;" display="none"><path id="kity_path_345" fill="white" stroke="gray" d="M394.49999804156147,1266.500009373256A6,6,0,1,1,382.49999804156147,1266.500009373256A6,6,0,1,1,394.49999804156147,1266.500009373256"></path><path id="kity_path_346" fill="none" stroke="gray"></path></g><path id="node_outline35" fill="none" stroke="none" d="M399.4999981505528,1255.500009373256h84a5,5,0,0,1,5,5v12a5,5,0,0,1,-5,5h-84a5,5,0,0,1,-5,-5v-12a5,5,0,0,1,5,-5z"></path><g id="node_text35" fill="black"><text id="kity_text_183" text-rendering="inherit" font-size="12" dy=".8em" y="1260.500009373256" x="404.4999981505528">输入输出工具</text></g></g><g id="minder_node37"><g id="node_expander35" style="cursor: pointer;" display="none"><path id="kity_path_348" fill="white" stroke="gray" d="M394.49999804156147,1318.5000097274778A6,6,0,1,1,382.49999804156147,1318.5000097274778A6,6,0,1,1,394.49999804156147,1318.5000097274778"></path><path id="kity_path_349" fill="none" stroke="gray"></path></g><path id="node_outline36" fill="none" stroke="none" d="M399.4999981505528,1307.5000097274778h71a5,5,0,0,1,5,5v12a5,5,0,0,1,-5,5h-71a5,5,0,0,1,-5,-5v-12a5,5,0,0,1,5,-5z"></path><g id="node_text36" fill="black"><text id="kity_text_185" text-rendering="inherit" font-size="12" dy=".8em" y="1312.5000097274778" x="404.4999981505528">字符串工具</text></g></g><g id="minder_node38"><g id="node_expander36" style="cursor: pointer;" display="none"><path id="kity_path_351" fill="white" stroke="gray" d="M394.49999804156147,1370.5000100816997A6,6,0,1,1,382.49999804156147,1370.5000100816997A6,6,0,1,1,394.49999804156147,1370.5000100816997"></path><path id="kity_path_352" fill="none" stroke="gray"></path></g><path id="node_outline37" fill="none" stroke="none" d="M399.4999981505528,1359.5000100816997h59a5,5,0,0,1,5,5v12a5,5,0,0,1,-5,5h-59a5,5,0,0,1,-5,-5v-12a5,5,0,0,1,5,-5z"></path><g id="node_text37" fill="black"><text id="kity_text_187" text-rendering="inherit" font-size="12" dy=".8em" y="1364.5000100816997" x="404.4999981505528">数据结构</text></g></g><g id="minder_node39"><g id="node_expander43" style="cursor: pointer;"><path id="kity_path_372" fill="white" stroke="gray" d="M285.49999738420735,1510.500011035374A6,6,0,1,1,273.49999738420735,1510.500011035374A6,6,0,1,1,285.49999738420735,1510.500011035374"></path><path id="kity_path_373" fill="none" stroke="gray" d="M274.99999738420735,1510.500011035374L283.99999738420735,1510.500011035374"></path></g><path id="node_outline44" fill="rgb(238, 243, 246)" stroke="rgb(115, 161, 191)" d="M289.49999748298075,1497.500011035374h63a3,3,0,0,1,3,3v20a3,3,0,0,1,-3,3h-63a3,3,0,0,1,-3,-3v-20a3,3,0,0,1,3,-3z" stroke-width="1"></path><g id="node_text44" fill="black"><text id="kity_text_201" text-rendering="inherit" font-size="14" dy=".8em" y="1503.500011035374" x="306.49999748298075">类库</text></g></g><g id="minder_node40"><g id="node_expander39" style="cursor: pointer;"><path id="kity_path_360" fill="white" stroke="gray" d="M395.49999804837336,1432.5000105040413A6,6,0,1,1,383.49999804837336,1432.5000105040413A6,6,0,1,1,395.49999804837336,1432.5000105040413"></path><path id="kity_path_361" fill="none" stroke="gray" d="M384.99999804837336,1432.5000105040413L393.99999804837336,1432.5000105040413"></path></g><path id="node_outline40" fill="none" stroke="none" d="M400.4999981573647,1421.5000105040413h35a5,5,0,0,1,5,5v12a5,5,0,0,1,-5,5h-35a5,5,0,0,1,-5,-5v-12a5,5,0,0,1,5,-5z"></path><g id="node_text40" fill="black"><text id="kity_text_193" text-rendering="inherit" font-size="12" dy=".8em" y="1426.5000105040413" x="405.4999981573647">数学</text></g></g><g id="minder_node41"><g id="node_expander38" style="cursor: pointer;" display="none"><path id="kity_path_357" fill="white" stroke="gray" d="M480.4999986273899,1432.5000105040413A6,6,0,1,1,468.4999986273899,1432.5000105040413A6,6,0,1,1,480.4999986273899,1432.5000105040413"></path><path id="kity_path_358" fill="none" stroke="gray"></path></g><path id="node_outline39" fill="none" stroke="none" d="M485.49999873638126,1421.5000105040413h70a5,5,0,0,1,5,5v12a5,5,0,0,1,-5,5h-70a5,5,0,0,1,-5,-5v-12a5,5,0,0,1,5,-5z"></path><g id="node_text39" fill="black"><text id="kity_text_191" text-rendering="inherit" font-size="12" dy=".8em" y="1426.5000105040413" x="490.49999873638126">高精度运算</text></g></g><g id="minder_node42"><g id="node_expander40" style="cursor: pointer;" display="none"><path id="kity_path_363" fill="white" stroke="gray" d="M395.49999804837336,1484.500010858263A6,6,0,1,1,383.49999804837336,1484.500010858263A6,6,0,1,1,395.49999804837336,1484.500010858263"></path><path id="kity_path_364" fill="none" stroke="gray"></path></g><path id="node_outline41" fill="none" stroke="none" d="M400.4999981573647,1473.500010858263h70a5,5,0,0,1,5,5v12a5,5,0,0,1,-5,5h-70a5,5,0,0,1,-5,-5v-12a5,5,0,0,1,5,-5z"></path><g id="node_text41" fill="black"><text id="kity_text_195" text-rendering="inherit" font-size="12" dy=".8em" y="1478.500010858263" x="405.4999981573647">日期和时间</text></g></g><g id="minder_node43"><g id="node_expander41" style="cursor: pointer;" display="none"><path id="kity_path_366" fill="white" stroke="gray" d="M395.49999804837336,1536.5000112124849A6,6,0,1,1,383.49999804837336,1536.5000112124849A6,6,0,1,1,395.49999804837336,1536.5000112124849"></path><path id="kity_path_367" fill="none" stroke="gray"></path></g><path id="node_outline42" fill="none" stroke="none" d="M400.4999981573647,1525.5000112124849h35a5,5,0,0,1,5,5v12a5,5,0,0,1,-5,5h-35a5,5,0,0,1,-5,-5v-12a5,5,0,0,1,5,-5z"></path><g id="node_text42" fill="black"><text id="kity_text_197" text-rendering="inherit" font-size="12" dy=".8em" y="1530.5000112124849" x="405.4999981573647">文件</text></g></g><g id="minder_node44"><g id="node_expander42" style="cursor: pointer;" display="none"><path id="kity_path_369" fill="white" stroke="gray" d="M395.49999804837336,1588.5000115667067A6,6,0,1,1,383.49999804837336,1588.5000115667067A6,6,0,1,1,395.49999804837336,1588.5000115667067"></path><path id="kity_path_370" fill="none" stroke="gray"></path></g><path id="node_outline43" fill="none" stroke="none" d="M400.4999981573647,1577.5000115667067h35a5,5,0,0,1,5,5v12a5,5,0,0,1,-5,5h-35a5,5,0,0,1,-5,-5v-12a5,5,0,0,1,5,-5z"></path><g id="node_text43" fill="black"><text id="kity_text_199" text-rendering="inherit" font-size="12" dy=".8em" y="1582.5000115667067" x="405.4999981573647">网络</text></g></g><g id="minder_node45"><g id="node_expander44" style="cursor: pointer;" display="none"><path id="kity_path_380" fill="white" stroke="gray" d="M395.49999804837336,778.5000060490199A6,6,0,1,1,383.49999804837336,778.5000060490199A6,6,0,1,1,395.49999804837336,778.5000060490199"></path><path id="kity_path_381" fill="none" stroke="gray"></path></g><path id="node_outline45" fill="none" stroke="none" d="M400.4999981573647,767.5000060490199h59a5,5,0,0,1,5,5v12a5,5,0,0,1,-5,5h-59a5,5,0,0,1,-5,-5v-12a5,5,0,0,1,5,-5z" stroke-width="3"></path><g id="node_text45" fill="black"><text id="kity_text_377" text-rendering="inherit" font-size="12" dy=".8em" y="772.5000060490199" x="405.4999981573647">顺序语句</text></g></g></g></g></svg>