<svg id="kity_svg_6" xmlns="http://www.w3.org/2000/svg" xmlns:xlink="http://www.w3.org/1999/xlink" version="1.1" width="751" height="1568" style="background: rgb(251, 251, 251); visibility: visible;" viewBox="0 0 751 1568"><defs id="kity_defs_7"><linearGradient id="kity_linearGradient_17" x1="0" y1="0" x2="0" y2="1"><stop id="kity_stop_18" offset="0" stop-color="rgb(255, 255, 255)"></stop><stop id="kity_stop_19" offset="1" stop-color="rgb(204, 204, 204)"></stop></linearGradient><marker id="kity_marker_2" orient="auto" refX="6" refY="0" viewBox="-7 -7 14 14" markerWidth="7" markerHeight="7" markerUnits="userSpaceOnUse"><path id="kity_path_3" fill="rgb(115, 161, 191)" stroke="none" d="M6,0A6,6,0,1,1,-6,0A6,6,0,1,1,6,0"></path></marker></defs><g id="kity_g_8"><g id="minder1" text-rendering="optimize-speed"><g id="minder_connect_group1"><path id="kity_path_31" fill="none" stroke="rgb(115, 161, 191)" stroke-width="1" d="M93.99999864782596,758.4999946253638A190.5,701,0,0,1,284.499998647826,57.4999946253638"></path><path id="kity_path_33" fill="none" stroke="rgb(115, 161, 191)" stroke-width="1" d="M354.499998647826,57.4999946253638C374.499998647826,57.4999946253638,374.499998647826,31.499994625363797,394.499998647826,31.499994625363797"></path><path id="kity_path_35" fill="none" stroke="rgb(115, 161, 191)" stroke-width="1" d="M464.499998647826,31.499994625363797C484.499998647826,31.499994625363797,484.499998647826,31.499994625363797,504.499998647826,31.499994625363797"></path><path id="kity_path_37" fill="none" stroke="rgb(115, 161, 191)" stroke-width="1" d="M573.4999986478259,31.499994625363797C593.4999986478259,31.499994625363797,593.4999986478259,31.499994625363797,613.4999986478259,31.499994625363797"></path><path id="kity_path_39" fill="none" stroke="rgb(115, 161, 191)" stroke-width="1" d="M354.499998647826,57.4999946253638C374.499998647826,57.4999946253638,374.499998647826,83.4999946253638,394.499998647826,83.4999946253638"></path><path id="kity_path_41" fill="none" stroke="rgb(115, 161, 191)" stroke-width="1" d="M93.99999864782596,758.4999946253638A190.5,431,0,0,1,284.499998647826,327.4999946253638"></path><path id="kity_path_43" fill="none" stroke="rgb(115, 161, 191)" stroke-width="1" d="M355.499998647826,327.4999946253638C375.499998647826,327.4999946253638,375.499998647826,145.4999946253638,395.499998647826,145.4999946253638"></path><path id="kity_path_45" fill="none" stroke="rgb(115, 161, 191)" stroke-width="1" d="M355.499998647826,327.4999946253638C375.499998647826,327.4999946253638,375.499998647826,197.4999946253638,395.499998647826,197.4999946253638"></path><path id="kity_path_47" fill="none" stroke="rgb(115, 161, 191)" stroke-width="1" d="M355.499998647826,327.4999946253638C375.499998647826,327.4999946253638,375.499998647826,314.4999946253638,395.499998647826,314.4999946253638"></path><path id="kity_path_49" fill="none" stroke="rgb(115, 161, 191)" stroke-width="1" d="M488.499998647826,314.4999946253638C508.499998647826,314.4999946253638,508.499998647826,249.4999946253638,528.4999986478259,249.4999946253638"></path><path id="kity_path_51" fill="none" stroke="rgb(115, 161, 191)" stroke-width="1" d="M488.499998647826,314.4999946253638C508.499998647826,314.4999946253638,508.499998647826,301.4999946253638,528.4999986478259,301.4999946253638"></path><path id="kity_path_55" fill="none" stroke="rgb(115, 161, 191)" stroke-width="1" d="M488.499998647826,314.4999946253638C508.499998647826,314.4999946253638,508.499998647826,379.4999946253638,528.4999986478259,379.4999946253638"></path><path id="kity_path_57" fill="none" stroke="rgb(115, 161, 191)" stroke-width="1" d="M598.4999986478259,379.4999946253638C618.4999986478259,379.4999946253638,618.4999986478259,353.4999946253638,638.4999986478259,353.4999946253638"></path><path id="kity_path_59" fill="none" stroke="rgb(115, 161, 191)" stroke-width="1" d="M598.4999986478259,379.4999946253638C618.4999986478259,379.4999946253638,618.4999986478259,405.4999946253638,638.4999986478259,405.4999946253638"></path><path id="kity_path_61" fill="none" stroke="rgb(115, 161, 191)" stroke-width="1" d="M355.499998647826,327.4999946253638C375.499998647826,327.4999946253638,375.499998647826,509.4999946253638,395.499998647826,509.4999946253638"></path><path id="kity_path_63" fill="none" stroke="rgb(115, 161, 191)" stroke-width="1" d="M488.499998647826,509.4999946253638C508.499998647826,509.4999946253638,508.499998647826,457.4999946253638,528.4999986478259,457.4999946253638"></path><path id="kity_path_65" fill="none" stroke="rgb(115, 161, 191)" stroke-width="1" d="M488.499998647826,509.4999946253638C508.499998647826,509.4999946253638,508.499998647826,509.4999946253638,528.4999986478259,509.4999946253638"></path><path id="kity_path_67" fill="none" stroke="rgb(115, 161, 191)" stroke-width="1" d="M488.499998647826,509.4999946253638C508.499998647826,509.4999946253638,508.499998647826,561.4999946253638,528.4999986478259,561.4999946253638"></path><path id="kity_path_69" fill="none" stroke="rgb(115, 161, 191)" stroke-width="1" d="M93.99999864782596,758.4999946253638A190.5,21,0,0,0,284.499998647826,779.4999946253638"></path><path id="kity_path_71" fill="none" stroke="rgb(115, 161, 191)" stroke-width="1" d="M476.499998647826,675.4999946253638C496.499998647826,675.4999946253638,496.499998647826,675.4999946253638,516.4999986478259,675.4999946253638"></path><path id="kity_path_73" fill="none" stroke="rgb(115, 161, 191)" stroke-width="1" d="M476.499998647826,675.4999946253638C496.499998647826,675.4999946253638,496.499998647826,623.4999946253638,516.4999986478259,623.4999946253638"></path><path id="kity_path_75" fill="none" stroke="rgb(115, 161, 191)" stroke-width="1" d="M476.499998647826,675.4999946253638C496.499998647826,675.4999946253638,496.499998647826,727.4999946253638,516.4999986478259,727.4999946253638"></path><path id="kity_path_77" fill="none" stroke="rgb(115, 161, 191)" stroke-width="1" d="M355.499998647826,779.4999946253638C375.499998647826,779.4999946253638,375.499998647826,779.4999946253638,395.499998647826,779.4999946253638"></path><path id="kity_path_79" fill="none" stroke="rgb(115, 161, 191)" stroke-width="1" d="M355.499998647826,779.4999946253638C375.499998647826,779.4999946253638,375.499998647826,831.4999946253638,395.499998647826,831.4999946253638"></path><path id="kity_path_81" fill="none" stroke="rgb(115, 161, 191)" stroke-width="1" d="M355.499998647826,779.4999946253638C375.499998647826,779.4999946253638,375.499998647826,883.4999946253638,395.499998647826,883.4999946253638"></path><path id="kity_path_83" fill="none" stroke="rgb(115, 161, 191)" stroke-width="1" d="M93.99999864782596,758.4999946253638A190.5,317,0,0,0,284.499998647826,1075.4999946253638"></path><path id="kity_path_85" fill="none" stroke="rgb(115, 161, 191)" stroke-width="1" d="M355.499998647826,1075.4999946253638C375.499998647826,1075.4999946253638,375.499998647826,997.4999946253638,395.499998647826,997.4999946253638"></path><path id="kity_path_87" fill="none" stroke="rgb(115, 161, 191)" stroke-width="1" d="M464.499998647826,997.4999946253638C484.499998647826,997.4999946253638,484.499998647826,945.4999946253638,504.499998647826,945.4999946253638"></path><path id="kity_path_89" fill="none" stroke="rgb(115, 161, 191)" stroke-width="1" d="M464.499998647826,997.4999946253638C484.499998647826,997.4999946253638,484.499998647826,997.4999946253638,504.499998647826,997.4999946253638"></path><path id="kity_path_91" fill="none" stroke="rgb(115, 161, 191)" stroke-width="1" d="M464.499998647826,997.4999946253638C484.499998647826,997.4999946253638,484.499998647826,1049.4999946253638,504.499998647826,1049.4999946253638"></path><path id="kity_path_93" fill="none" stroke="rgb(115, 161, 191)" stroke-width="1" d="M355.499998647826,1075.4999946253638C375.499998647826,1075.4999946253638,375.499998647826,1101.4999946253638,395.499998647826,1101.4999946253638"></path><path id="kity_path_95" fill="none" stroke="rgb(115, 161, 191)" stroke-width="1" d="M355.499998647826,1075.4999946253638C375.499998647826,1075.4999946253638,375.499998647826,1153.4999946253638,395.499998647826,1153.4999946253638"></path><path id="kity_path_97" fill="none" stroke="rgb(115, 161, 191)" stroke-width="1" d="M93.99999864782596,758.4999946253638A190.5,509,0,0,0,284.499998647826,1267.4999946253638"></path><path id="kity_path_99" fill="none" stroke="rgb(115, 161, 191)" stroke-width="1" d="M354.499998647826,1267.4999946253638C374.499998647826,1267.4999946253638,374.499998647826,1215.4999946253638,394.499998647826,1215.4999946253638"></path><path id="kity_path_101" fill="none" stroke="rgb(115, 161, 191)" stroke-width="1" d="M354.499998647826,1267.4999946253638C374.499998647826,1267.4999946253638,374.499998647826,1267.4999946253638,394.499998647826,1267.4999946253638"></path><path id="kity_path_103" fill="none" stroke="rgb(115, 161, 191)" stroke-width="1" d="M354.499998647826,1267.4999946253638C374.499998647826,1267.4999946253638,374.499998647826,1319.4999946253638,394.499998647826,1319.4999946253638"></path><path id="kity_path_105" fill="none" stroke="rgb(115, 161, 191)" stroke-width="1" d="M93.99999864782596,758.4999946253638A190.5,701,0,0,0,284.499998647826,1459.4999946253638"></path><path id="kity_path_107" fill="none" stroke="rgb(115, 161, 191)" stroke-width="1" d="M355.499998647826,1459.4999946253638C375.499998647826,1459.4999946253638,375.499998647826,1381.4999946253638,395.499998647826,1381.4999946253638"></path><path id="kity_path_109" fill="none" stroke="rgb(115, 161, 191)" stroke-width="1" d="M440.499998647826,1381.4999946253638C460.499998647826,1381.4999946253638,460.499998647826,1381.4999946253638,480.499998647826,1381.4999946253638"></path><path id="kity_path_111" fill="none" stroke="rgb(115, 161, 191)" stroke-width="1" d="M355.499998647826,1459.4999946253638C375.499998647826,1459.4999946253638,375.499998647826,1433.4999946253638,395.499998647826,1433.4999946253638"></path><path id="kity_path_113" fill="none" stroke="rgb(115, 161, 191)" stroke-width="1" d="M355.499998647826,1459.4999946253638C375.499998647826,1459.4999946253638,375.499998647826,1485.4999946253638,395.499998647826,1485.4999946253638"></path><path id="kity_path_115" fill="none" stroke="rgb(115, 161, 191)" stroke-width="1" d="M355.499998647826,1459.4999946253638C375.499998647826,1459.4999946253638,375.499998647826,1537.4999946253638,395.499998647826,1537.4999946253638"></path><path id="kity_path_375" fill="none" stroke="rgb(115, 161, 191)" stroke-width="1" d="M355.499998647826,779.4999946253638C375.499998647826,779.4999946253638,375.499998647826,675.4999946253638,395.499998647826,675.4999946253638"></path></g><g id="minder_node1"><path id="node_outline1" fill="rgb(115, 161, 191)" stroke="rgb(115, 161, 191)" d="M26.49999864782596,738.4999946253638h135a5,5,0,0,1,5,5v30a5,5,0,0,1,-5,5h-135a5,5,0,0,1,-5,-5v-30a5,5,0,0,1,5,-5z" stroke-width="3"></path><g id="node_text1" fill="white"><text id="kity_text_22" text-rendering="inherit" font-size="16" dy=".8em" y="750.4999946253638" x="45.49999864782596">编程语言导图</text></g></g><g id="kity_g_14" display="none"><path id="kity_path_15" fill="rgba(0, 92, 153, 0.5)" stroke="none" d="M395.499998647826,665.4999946253638h81v15h-81z"></path><path id="kity_path_16" fill="none" stroke="rgb(0, 76, 128)" d="M395.499998647826,665.4999946253638L476.499998647826,665.4999946253638" stroke-width="1"></path></g><g id="minder_node2"><g id="node_expander5" style="cursor: pointer;"><path id="kity_path_258" fill="white" stroke="gray" d="M285.50000032697386,57.499989850180555A6,6,0,1,1,273.50000032697386,57.499989850180555A6,6,0,1,1,285.50000032697386,57.499989850180555"></path><path id="kity_path_259" fill="none" stroke="gray" d="M275.00000032697386,57.499989850180555L284.00000032697386,57.499989850180555"></path></g><path id="node_outline6" fill="rgb(238, 243, 246)" stroke="rgb(115, 161, 191)" d="M289.50000042574726,44.499989850180555h62a3,3,0,0,1,3,3v20a3,3,0,0,1,-3,3h-62a3,3,0,0,1,-3,-3v-20a3,3,0,0,1,3,-3z" stroke-width="1"></path><g id="node_text6" fill="black"><text id="kity_text_125" text-rendering="inherit" font-size="14" dy=".8em" y="50.499989850180555" x="306.50000042574726">常识</text></g></g><g id="minder_node3"><g id="node_expander3" style="cursor: pointer;"><path id="kity_path_252" fill="white" stroke="gray" d="M394.500000984328,31.499989673069535A6,6,0,1,1,382.500000984328,31.499989673069535A6,6,0,1,1,394.500000984328,31.499989673069535"></path><path id="kity_path_253" fill="none" stroke="gray" d="M384.000000984328,31.499989673069535L393.000000984328,31.499989673069535"></path></g><path id="node_outline4" fill="none" stroke="none" d="M399.5000010933193,20.499989673069535h60a5,5,0,0,1,5,5v12a5,5,0,0,1,-5,5h-60a5,5,0,0,1,-5,-5v-12a5,5,0,0,1,5,-5z"></path><g id="node_text4" fill="black"><text id="kity_text_121" text-rendering="inherit" font-size="12" dy=".8em" y="25.499989673069535" x="404.5000010933193">通用模式</text></g></g><g id="minder_node4"><g id="node_expander2" style="cursor: pointer;"><path id="kity_path_249" fill="white" stroke="gray" d="M504.50000173364333,31.499989673069535A6,6,0,1,1,492.50000173364333,31.499989673069535A6,6,0,1,1,504.50000173364333,31.499989673069535"></path><path id="kity_path_250" fill="none" stroke="gray" d="M494.00000173364333,31.499989673069535L503.00000173364333,31.499989673069535"></path></g><path id="node_outline3" fill="none" stroke="none" d="M509.5000018426347,20.499989673069535h59a5,5,0,0,1,5,5v12a5,5,0,0,1,-5,5h-59a5,5,0,0,1,-5,-5v-12a5,5,0,0,1,5,-5z"></path><g id="node_text3" fill="black"><text id="kity_text_119" text-rendering="inherit" font-size="12" dy=".8em" y="25.499989673069535" x="514.5000018426347">编程原则</text></g></g><g id="minder_node5"><g id="node_expander1" style="cursor: pointer;" display="none"><path id="kity_path_246" fill="white" stroke="gray" d="M613.5000024761468,31.499989673069535A6,6,0,1,1,601.5000024761468,31.499989673069535A6,6,0,1,1,613.5000024761468,31.499989673069535"></path><path id="kity_path_247" fill="none" stroke="gray"></path></g><path id="node_outline2" fill="none" stroke="none" d="M618.5000025851382,20.499989673069535h83a5,5,0,0,1,5,5v12a5,5,0,0,1,-5,5h-83a5,5,0,0,1,-5,-5v-12a5,5,0,0,1,5,-5z"></path><g id="node_text2" fill="black"><text id="kity_text_117" text-rendering="inherit" font-size="12" dy=".8em" y="25.499989673069535" x="623.5000025851382">开放闭合原则</text></g></g><g id="minder_node6"><g id="node_expander4" style="cursor: pointer;" display="none"><path id="kity_path_255" fill="white" stroke="gray" d="M394.500000984328,83.49999002729146A6,6,0,1,1,382.500000984328,83.49999002729146A6,6,0,1,1,394.500000984328,83.49999002729146"></path><path id="kity_path_256" fill="none" stroke="gray"></path></g><path id="node_outline5" fill="none" stroke="none" d="M399.5000010933193,72.49999002729146h95a5,5,0,0,1,5,5v12a5,5,0,0,1,-5,5h-95a5,5,0,0,1,-5,-5v-12a5,5,0,0,1,5,-5z"></path><g id="node_text5" fill="black"><text id="kity_text_123" text-rendering="inherit" font-size="12" dy=".8em" y="77.49999002729146" x="404.5000010933193">特定语言的规范</text></g></g><g id="minder_node7"><g id="node_expander19" style="cursor: pointer;"><path id="kity_path_300" fill="white" stroke="gray" d="M285.50000032697386,327.49999168940946A6,6,0,1,1,273.50000032697386,327.49999168940946A6,6,0,1,1,285.50000032697386,327.49999168940946"></path><path id="kity_path_301" fill="none" stroke="gray" d="M275.00000032697386,327.49999168940946L284.00000032697386,327.49999168940946"></path></g><path id="node_outline20" fill="rgb(238, 243, 246)" stroke="rgb(115, 161, 191)" d="M289.50000042574726,314.49999168940946h63a3,3,0,0,1,3,3v20a3,3,0,0,1,-3,3h-63a3,3,0,0,1,-3,-3v-20a3,3,0,0,1,3,-3z" stroke-width="1"></path><g id="node_text20" fill="black"><text id="kity_text_153" text-rendering="inherit" font-size="14" dy=".8em" y="320.49999168940946" x="306.50000042574726">基础</text></g></g><g id="minder_node8"><g id="node_expander6" style="cursor: pointer;" display="none"><path id="kity_path_261" fill="white" stroke="gray" d="M395.50000099113987,145.49999044963295A6,6,0,1,1,383.50000099113987,145.49999044963295A6,6,0,1,1,395.50000099113987,145.49999044963295"></path><path id="kity_path_262" fill="none" stroke="gray"></path></g><path id="node_outline7" fill="none" stroke="none" d="M400.5000011001312,134.49999044963295h60a5,5,0,0,1,5,5v12a5,5,0,0,1,-5,5h-60a5,5,0,0,1,-5,-5v-12a5,5,0,0,1,5,-5z"></path><g id="node_text7" fill="black"><text id="kity_text_127" text-rendering="inherit" font-size="12" dy=".8em" y="139.49999044963295" x="405.5000011001312">命名规范</text></g></g><g id="minder_node9"><g id="node_expander7" style="cursor: pointer;" display="none"><path id="kity_path_264" fill="white" stroke="gray" d="M395.50000099113987,197.49999080385476A6,6,0,1,1,383.50000099113987,197.49999080385476A6,6,0,1,1,395.50000099113987,197.49999080385476"></path><path id="kity_path_265" fill="none" stroke="gray"></path></g><path id="node_outline8" fill="none" stroke="none" d="M400.5000011001312,186.49999080385476h36a5,5,0,0,1,5,5v12a5,5,0,0,1,-5,5h-36a5,5,0,0,1,-5,-5v-12a5,5,0,0,1,5,-5z"></path><g id="node_text8" fill="black"><text id="kity_text_129" text-rendering="inherit" font-size="12" dy=".8em" y="191.49999080385476" x="405.5000011001312">注释</text></g></g><g id="minder_node10"><g id="node_expander14" style="cursor: pointer;"><path id="kity_path_285" fill="white" stroke="gray" d="M395.50000099113987,314.499991600854A6,6,0,1,1,383.50000099113987,314.499991600854A6,6,0,1,1,395.50000099113987,314.499991600854"></path><path id="kity_path_286" fill="none" stroke="gray" d="M385.00000099113987,314.499991600854L394.00000099113987,314.499991600854"></path></g><path id="node_outline15" fill="none" stroke="none" d="M400.5000011001312,303.499991600854h83a5,5,0,0,1,5,5v12a5,5,0,0,1,-5,5h-83a5,5,0,0,1,-5,-5v-12a5,5,0,0,1,5,-5z"></path><g id="node_text15" fill="black"><text id="kity_text_143" text-rendering="inherit" font-size="12" dy=".8em" y="308.499991600854" x="405.5000011001312">基本数据类型</text></g></g><g id="minder_node11"><g id="node_expander8" style="cursor: pointer;" display="none"><path id="kity_path_267" fill="white" stroke="gray" d="M528.5000018971303,249.49999115807663A6,6,0,1,1,516.5000018971303,249.49999115807663A6,6,0,1,1,528.5000018971303,249.49999115807663"></path><path id="kity_path_268" fill="none" stroke="gray"></path></g><path id="node_outline9" fill="none" stroke="none" d="M533.5000020061217,238.49999115807663h47a5,5,0,0,1,5,5v12a5,5,0,0,1,-5,5h-47a5,5,0,0,1,-5,-5v-12a5,5,0,0,1,5,-5z"></path><g id="node_text9" fill="black"><text id="kity_text_131" text-rendering="inherit" font-size="12" dy=".8em" y="243.49999115807663" x="538.5000020061217">字面值</text></g></g><g id="minder_node12"><g id="node_expander9" style="cursor: pointer;" display="none"><path id="kity_path_270" fill="white" stroke="gray" d="M528.5000018971303,301.4999915122985A6,6,0,1,1,516.5000018971303,301.4999915122985A6,6,0,1,1,528.5000018971303,301.4999915122985"></path><path id="kity_path_271" fill="none" stroke="gray"></path></g><path id="node_outline10" fill="none" stroke="none" d="M533.5000020061217,290.4999915122985h36a5,5,0,0,1,5,5v12a5,5,0,0,1,-5,5h-36a5,5,0,0,1,-5,-5v-12a5,5,0,0,1,5,-5z" stroke-width="3"></path><g id="node_text10" fill="black"><text id="kity_text_133" text-rendering="inherit" font-size="12" dy=".8em" y="295.4999915122985" x="538.5000020061217">值域</text></g></g><g id="minder_node14"><g id="node_expander13" style="cursor: pointer;"><path id="kity_path_282" fill="white" stroke="gray" d="M528.5000018971303,379.4999920436313A6,6,0,1,1,516.5000018971303,379.4999920436313A6,6,0,1,1,528.5000018971303,379.4999920436313"></path><path id="kity_path_283" fill="none" stroke="gray" d="M518.0000018971303,379.4999920436313L527.0000018971303,379.4999920436313"></path></g><path id="node_outline14" fill="none" stroke="none" d="M533.5000020061217,368.4999920436313h60a5,5,0,0,1,5,5v12a5,5,0,0,1,-5,5h-60a5,5,0,0,1,-5,-5v-12a5,5,0,0,1,5,-5z"></path><g id="node_text14" fill="black"><text id="kity_text_141" text-rendering="inherit" font-size="12" dy=".8em" y="373.4999920436313" x="538.5000020061217">类型转换</text></g></g><g id="minder_node15"><g id="node_expander11" style="cursor: pointer;" display="none"><path id="kity_path_276" fill="white" stroke="gray" d="M638.500002646446,353.49999186652036A6,6,0,1,1,626.500002646446,353.49999186652036A6,6,0,1,1,638.500002646446,353.49999186652036"></path><path id="kity_path_277" fill="none" stroke="gray"></path></g><path id="node_outline12" fill="none" stroke="none" d="M643.5000027554373,342.49999186652036h83a5,5,0,0,1,5,5v12a5,5,0,0,1,-5,5h-83a5,5,0,0,1,-5,-5v-12a5,5,0,0,1,5,-5z"></path><g id="node_text12" fill="black"><text id="kity_text_137" text-rendering="inherit" font-size="12" dy=".8em" y="347.49999186652036" x="648.5000027554373">自动类型转换</text></g></g><g id="minder_node16"><g id="node_expander12" style="cursor: pointer;" display="none"><path id="kity_path_279" fill="white" stroke="gray" d="M638.500002646446,405.4999922207423A6,6,0,1,1,626.500002646446,405.4999922207423A6,6,0,1,1,638.500002646446,405.4999922207423"></path><path id="kity_path_280" fill="none" stroke="gray"></path></g><path id="node_outline13" fill="none" stroke="none" d="M643.5000027554373,394.4999922207423h84a5,5,0,0,1,5,5v12a5,5,0,0,1,-5,5h-84a5,5,0,0,1,-5,-5v-12a5,5,0,0,1,5,-5z"></path><g id="node_text13" fill="black"><text id="kity_text_139" text-rendering="inherit" font-size="12" dy=".8em" y="399.4999922207423" x="648.5000027554373">强制类型转换</text></g></g><g id="minder_node17"><g id="node_expander18" style="cursor: pointer;"><path id="kity_path_297" fill="white" stroke="gray" d="M395.50000099113987,509.499992929186A6,6,0,1,1,383.50000099113987,509.499992929186A6,6,0,1,1,395.50000099113987,509.499992929186"></path><path id="kity_path_298" fill="none" stroke="gray" d="M385.00000099113987,509.499992929186L394.00000099113987,509.499992929186"></path></g><path id="node_outline19" fill="none" stroke="none" d="M400.5000011001312,498.499992929186h83a5,5,0,0,1,5,5v12a5,5,0,0,1,-5,5h-83a5,5,0,0,1,-5,-5v-12a5,5,0,0,1,5,-5z"></path><g id="node_text19" fill="black"><text id="kity_text_151" text-rendering="inherit" font-size="12" dy=".8em" y="503.499992929186" x="405.5000011001312">复合数据类型</text></g></g><g id="minder_node18"><g id="node_expander15" style="cursor: pointer;" display="none"><path id="kity_path_288" fill="white" stroke="gray" d="M528.5000018971303,457.49999257496415A6,6,0,1,1,516.5000018971303,457.49999257496415A6,6,0,1,1,528.5000018971303,457.49999257496415"></path><path id="kity_path_289" fill="none" stroke="gray"></path></g><path id="node_outline16" fill="none" stroke="none" d="M533.5000020061217,446.49999257496415h36a5,5,0,0,1,5,5v12a5,5,0,0,1,-5,5h-36a5,5,0,0,1,-5,-5v-12a5,5,0,0,1,5,-5z"></path><g id="node_text16" fill="black"><text id="kity_text_145" text-rendering="inherit" font-size="12" dy=".8em" y="451.49999257496415" x="538.5000020061217">数组</text></g></g><g id="minder_node19"><g id="node_expander16" style="cursor: pointer;" display="none"><path id="kity_path_291" fill="white" stroke="gray" d="M528.5000018971303,509.499992929186A6,6,0,1,1,516.5000018971303,509.499992929186A6,6,0,1,1,528.5000018971303,509.499992929186"></path><path id="kity_path_292" fill="none" stroke="gray"></path></g><path id="node_outline17" fill="none" stroke="none" d="M533.5000020061217,498.499992929186h36a5,5,0,0,1,5,5v12a5,5,0,0,1,-5,5h-36a5,5,0,0,1,-5,-5v-12a5,5,0,0,1,5,-5z"></path><g id="node_text17" fill="black"><text id="kity_text_147" text-rendering="inherit" font-size="12" dy=".8em" y="503.499992929186" x="538.5000020061217">枚举</text></g></g><g id="minder_node20"><g id="node_expander17" style="cursor: pointer;" display="none"><path id="kity_path_294" fill="white" stroke="gray" d="M528.5000018971303,561.4999932834079A6,6,0,1,1,516.5000018971303,561.4999932834079A6,6,0,1,1,528.5000018971303,561.4999932834079"></path><path id="kity_path_295" fill="none" stroke="gray"></path></g><path id="node_outline18" fill="none" stroke="none" d="M533.5000020061217,550.4999932834079h36a5,5,0,0,1,5,5v12a5,5,0,0,1,-5,5h-36a5,5,0,0,1,-5,-5v-12a5,5,0,0,1,5,-5z"></path><g id="node_text18" fill="black"><text id="kity_text_149" text-rendering="inherit" font-size="12" dy=".8em" y="555.4999932834079" x="538.5000020061217">元组</text></g></g><g id="minder_node21"><g id="node_expander26" style="cursor: pointer;"><path id="kity_path_321" fill="white" stroke="gray" d="M285.50000032697386,779.4999947684149A6,6,0,1,1,273.50000032697386,779.4999947684149A6,6,0,1,1,285.50000032697386,779.4999947684149"></path><path id="kity_path_322" fill="none" stroke="gray" d="M275.00000032697386,779.4999947684149L284.00000032697386,779.4999947684149"></path></g><path id="node_outline27" fill="rgb(238, 243, 246)" stroke="rgb(115, 161, 191)" d="M289.50000042574726,766.4999947684149h63a3,3,0,0,1,3,3v20a3,3,0,0,1,-3,3h-63a3,3,0,0,1,-3,-3v-20a3,3,0,0,1,3,-3z" stroke-width="1"></path><g id="node_text27" fill="black"><text id="kity_text_167" text-rendering="inherit" font-size="14" dy=".8em" y="772.4999947684149" x="306.50000042574726">语句</text></g></g><g id="minder_node22" opacity="1"><g id="node_expander22" style="cursor: pointer;" display="none"><path id="kity_path_309" fill="white" stroke="gray" d="M516.5000018153869,675.4999940599712A6,6,0,1,1,504.5000018153869,675.4999940599712A6,6,0,1,1,516.5000018153869,675.4999940599712"></path><path id="kity_path_310" fill="none" stroke="gray" d="M506.0000018153869,675.4999940599712L515.0000018153869,675.4999940599712"></path></g><path id="node_outline23" fill="none" stroke="none" d="M521.5000019243782,664.4999940599712h59a5,5,0,0,1,5,5v12a5,5,0,0,1,-5,5h-59a5,5,0,0,1,-5,-5v-12a5,5,0,0,1,5,-5z" stroke-width="3"></path><g id="node_text23" fill="black"><text id="kity_text_159" text-rendering="inherit" font-size="12" dy=".8em" y="669.4999940599712" x="526.5000019243782">计算语句</text></g></g><g id="minder_node23" opacity="1"><g id="node_expander20" style="cursor: pointer;" display="none"><path id="kity_path_303" fill="white" stroke="gray" d="M516.5000018153869,623.4999937057494A6,6,0,1,1,504.5000018153869,623.4999937057494A6,6,0,1,1,516.5000018153869,623.4999937057494"></path><path id="kity_path_304" fill="none" stroke="gray"></path></g><path id="node_outline21" fill="none" stroke="none" d="M521.5000019243782,612.4999937057494h59a5,5,0,0,1,5,5v12a5,5,0,0,1,-5,5h-59a5,5,0,0,1,-5,-5v-12a5,5,0,0,1,5,-5z" stroke-width="3"></path><g id="node_text21" fill="black"><text id="kity_text_155" text-rendering="inherit" font-size="12" dy=".8em" y="617.4999937057494" x="526.5000019243782">声明语句</text></g></g><g id="minder_node24" opacity="1"><g id="node_expander21" style="cursor: pointer;" display="none"><path id="kity_path_306" fill="white" stroke="gray" d="M516.5000018153869,727.4999944141931A6,6,0,1,1,504.5000018153869,727.4999944141931A6,6,0,1,1,516.5000018153869,727.4999944141931"></path><path id="kity_path_307" fill="none" stroke="gray"></path></g><path id="node_outline22" fill="none" stroke="none" d="M521.5000019243782,716.4999944141931h59a5,5,0,0,1,5,5v12a5,5,0,0,1,-5,5h-59a5,5,0,0,1,-5,-5v-12a5,5,0,0,1,5,-5z" stroke-width="3"></path><g id="node_text22" fill="black"><text id="kity_text_157" text-rendering="inherit" font-size="12" dy=".8em" y="721.4999944141931" x="526.5000019243782">赋值语句</text></g></g><g id="minder_node25"><g id="node_expander23" style="cursor: pointer;" display="none"><path id="kity_path_312" fill="white" stroke="gray" d="M395.50000099113987,779.4999947684149A6,6,0,1,1,383.50000099113987,779.4999947684149A6,6,0,1,1,395.50000099113987,779.4999947684149"></path><path id="kity_path_313" fill="none" stroke="gray"></path></g><path id="node_outline24" fill="none" stroke="none" d="M400.5000011001312,768.4999947684149h59a5,5,0,0,1,5,5v12a5,5,0,0,1,-5,5h-59a5,5,0,0,1,-5,-5v-12a5,5,0,0,1,5,-5z" stroke-width="3"></path><g id="node_text24" fill="black"><text id="kity_text_161" text-rendering="inherit" font-size="12" dy=".8em" y="773.4999947684149" x="405.5000011001312">分支语句</text></g></g><g id="minder_node26"><g id="node_expander24" style="cursor: pointer;" display="none"><path id="kity_path_315" fill="white" stroke="gray" d="M395.50000099113987,831.4999951226368A6,6,0,1,1,383.50000099113987,831.4999951226368A6,6,0,1,1,395.50000099113987,831.4999951226368"></path><path id="kity_path_316" fill="none" stroke="gray"></path></g><path id="node_outline25" fill="none" stroke="none" d="M400.5000011001312,820.4999951226368h59a5,5,0,0,1,5,5v12a5,5,0,0,1,-5,5h-59a5,5,0,0,1,-5,-5v-12a5,5,0,0,1,5,-5z" stroke-width="3"></path><g id="node_text25" fill="black"><text id="kity_text_163" text-rendering="inherit" font-size="12" dy=".8em" y="825.4999951226368" x="405.5000011001312">循环语句</text></g></g><g id="minder_node27"><g id="node_expander25" style="cursor: pointer;" display="none"><path id="kity_path_318" fill="white" stroke="gray" d="M395.50000099113987,883.4999954768587A6,6,0,1,1,383.50000099113987,883.4999954768587A6,6,0,1,1,395.50000099113987,883.4999954768587"></path><path id="kity_path_319" fill="none" stroke="gray"></path></g><path id="node_outline26" fill="none" stroke="none" d="M400.5000011001312,872.4999954768587h59a5,5,0,0,1,5,5v12a5,5,0,0,1,-5,5h-59a5,5,0,0,1,-5,-5v-12a5,5,0,0,1,5,-5z" stroke-width="3"></path><g id="node_text26" fill="black"><text id="kity_text_165" text-rendering="inherit" font-size="12" dy=".8em" y="877.4999954768587" x="405.5000011001312">异常控制</text></g></g><g id="minder_node28"><g id="node_expander33" style="cursor: pointer;"><path id="kity_path_342" fill="white" stroke="gray" d="M285.50000032697386,1075.4999967847548A6,6,0,1,1,273.50000032697386,1075.4999967847548A6,6,0,1,1,285.50000032697386,1075.4999967847548"></path><path id="kity_path_343" fill="none" stroke="gray" d="M275.00000032697386,1075.4999967847548L284.00000032697386,1075.4999967847548"></path></g><path id="node_outline34" fill="rgb(238, 243, 246)" stroke="rgb(115, 161, 191)" d="M289.50000042574726,1062.4999967847548h63a3,3,0,0,1,3,3v20a3,3,0,0,1,-3,3h-63a3,3,0,0,1,-3,-3v-20a3,3,0,0,1,3,-3z" stroke-width="1"></path><g id="node_text34" fill="black"><text id="kity_text_181" text-rendering="inherit" font-size="14" dy=".8em" y="1068.4999967847548" x="306.50000042574726">模块</text></g></g><g id="minder_node29"><g id="node_expander30" style="cursor: pointer;"><path id="kity_path_333" fill="white" stroke="gray" d="M395.50000099113987,997.4999962534221A6,6,0,1,1,383.50000099113987,997.4999962534221A6,6,0,1,1,395.50000099113987,997.4999962534221"></path><path id="kity_path_334" fill="none" stroke="gray" d="M385.00000099113987,997.4999962534221L394.00000099113987,997.4999962534221"></path></g><path id="node_outline31" fill="none" stroke="none" d="M400.5000011001312,986.4999962534221h59a5,5,0,0,1,5,5v12a5,5,0,0,1,-5,5h-59a5,5,0,0,1,-5,-5v-12a5,5,0,0,1,5,-5z"></path><g id="node_text31" fill="black"><text id="kity_text_175" text-rendering="inherit" font-size="12" dy=".8em" y="991.4999962534221" x="405.5000011001312">命名空间</text></g></g><g id="minder_node30"><g id="node_expander27" style="cursor: pointer;" display="none"><path id="kity_path_324" fill="white" stroke="gray" d="M504.50000173364333,945.4999958992001A6,6,0,1,1,492.50000173364333,945.4999958992001A6,6,0,1,1,504.50000173364333,945.4999958992001"></path><path id="kity_path_325" fill="none" stroke="gray"></path></g><path id="node_outline28" fill="none" stroke="none" d="M509.5000018426347,934.4999958992001h60a5,5,0,0,1,5,5v12a5,5,0,0,1,-5,5h-60a5,5,0,0,1,-5,-5v-12a5,5,0,0,1,5,-5z"></path><g id="node_text28" fill="black"><text id="kity_text_169" text-rendering="inherit" font-size="12" dy=".8em" y="939.4999958992001" x="514.5000018426347">组织模块</text></g></g><g id="minder_node31"><g id="node_expander28" style="cursor: pointer;" display="none"><path id="kity_path_327" fill="white" stroke="gray" d="M504.50000173364333,997.4999962534221A6,6,0,1,1,492.50000173364333,997.4999962534221A6,6,0,1,1,504.50000173364333,997.4999962534221"></path><path id="kity_path_328" fill="none" stroke="gray"></path></g><path id="node_outline29" fill="none" stroke="none" d="M509.5000018426347,986.4999962534221h59a5,5,0,0,1,5,5v12a5,5,0,0,1,-5,5h-59a5,5,0,0,1,-5,-5v-12a5,5,0,0,1,5,-5z"></path><g id="node_text29" fill="black"><text id="kity_text_171" text-rendering="inherit" font-size="12" dy=".8em" y="991.4999962534221" x="514.5000018426347">导入名称</text></g></g><g id="minder_node32"><g id="node_expander29" style="cursor: pointer;" display="none"><path id="kity_path_330" fill="white" stroke="gray" d="M504.50000173364333,1049.4999966076439A6,6,0,1,1,492.50000173364333,1049.4999966076439A6,6,0,1,1,504.50000173364333,1049.4999966076439"></path><path id="kity_path_331" fill="none" stroke="gray"></path></g><path id="node_outline30" fill="none" stroke="none" d="M509.5000018426347,1038.4999966076439h59a5,5,0,0,1,5,5v12a5,5,0,0,1,-5,5h-59a5,5,0,0,1,-5,-5v-12a5,5,0,0,1,5,-5z"></path><g id="node_text30" fill="black"><text id="kity_text_173" text-rendering="inherit" font-size="12" dy=".8em" y="1043.4999966076439" x="514.5000018426347">导出名称</text></g></g><g id="minder_node33"><g id="node_expander31" style="cursor: pointer;" display="none"><path id="kity_path_336" fill="white" stroke="gray" d="M395.50000099113987,1101.4999969618657A6,6,0,1,1,383.50000099113987,1101.4999969618657A6,6,0,1,1,395.50000099113987,1101.4999969618657"></path><path id="kity_path_337" fill="none" stroke="gray"></path></g><path id="node_outline32" fill="none" stroke="none" d="M400.5000011001312,1090.4999969618657h35a5,5,0,0,1,5,5v12a5,5,0,0,1,-5,5h-35a5,5,0,0,1,-5,-5v-12a5,5,0,0,1,5,-5z"></path><g id="node_text32" fill="black"><text id="kity_text_177" text-rendering="inherit" font-size="12" dy=".8em" y="1095.4999969618657" x="405.5000011001312">函数</text></g></g><g id="minder_node34"><g id="node_expander32" style="cursor: pointer;" display="none"><path id="kity_path_339" fill="white" stroke="gray" d="M395.50000099113987,1153.4999973160875A6,6,0,1,1,383.50000099113987,1153.4999973160875A6,6,0,1,1,395.50000099113987,1153.4999973160875"></path><path id="kity_path_340" fill="none" stroke="gray"></path></g><path id="node_outline33" fill="none" stroke="none" d="M400.5000011001312,1142.4999973160875h24a5,5,0,0,1,5,5v12a5,5,0,0,1,-5,5h-24a5,5,0,0,1,-5,-5v-12a5,5,0,0,1,5,-5z"></path><g id="node_text33" fill="black"><text id="kity_text_179" text-rendering="inherit" font-size="12" dy=".8em" y="1147.4999973160875" x="405.5000011001312">类</text></g></g><g id="minder_node35"><g id="node_expander37" style="cursor: pointer;"><path id="kity_path_354" fill="white" stroke="gray" d="M285.50000032697386,1267.499998092651A6,6,0,1,1,273.50000032697386,1267.499998092651A6,6,0,1,1,285.50000032697386,1267.499998092651"></path><path id="kity_path_355" fill="none" stroke="gray" d="M275.00000032697386,1267.499998092651L284.00000032697386,1267.499998092651"></path></g><path id="node_outline38" fill="rgb(238, 243, 246)" stroke="rgb(115, 161, 191)" d="M289.50000042574726,1254.499998092651h62a3,3,0,0,1,3,3v20a3,3,0,0,1,-3,3h-62a3,3,0,0,1,-3,-3v-20a3,3,0,0,1,3,-3z" stroke-width="1"></path><g id="node_text38" fill="black"><text id="kity_text_189" text-rendering="inherit" font-size="14" dy=".8em" y="1260.499998092651" x="306.50000042574726">工具</text></g></g><g id="minder_node36"><g id="node_expander34" style="cursor: pointer;" display="none"><path id="kity_path_345" fill="white" stroke="gray" d="M394.500000984328,1215.499997738429A6,6,0,1,1,382.500000984328,1215.499997738429A6,6,0,1,1,394.500000984328,1215.499997738429"></path><path id="kity_path_346" fill="none" stroke="gray"></path></g><path id="node_outline35" fill="none" stroke="none" d="M399.5000010933193,1204.499997738429h84a5,5,0,0,1,5,5v12a5,5,0,0,1,-5,5h-84a5,5,0,0,1,-5,-5v-12a5,5,0,0,1,5,-5z"></path><g id="node_text35" fill="black"><text id="kity_text_183" text-rendering="inherit" font-size="12" dy=".8em" y="1209.499997738429" x="404.5000010933193">输入输出工具</text></g></g><g id="minder_node37"><g id="node_expander35" style="cursor: pointer;" display="none"><path id="kity_path_348" fill="white" stroke="gray" d="M394.500000984328,1267.499998092651A6,6,0,1,1,382.500000984328,1267.499998092651A6,6,0,1,1,394.500000984328,1267.499998092651"></path><path id="kity_path_349" fill="none" stroke="gray"></path></g><path id="node_outline36" fill="none" stroke="none" d="M399.5000010933193,1256.499998092651h71a5,5,0,0,1,5,5v12a5,5,0,0,1,-5,5h-71a5,5,0,0,1,-5,-5v-12a5,5,0,0,1,5,-5z"></path><g id="node_text36" fill="black"><text id="kity_text_185" text-rendering="inherit" font-size="12" dy=".8em" y="1261.499998092651" x="404.5000010933193">字符串工具</text></g></g><g id="minder_node38"><g id="node_expander36" style="cursor: pointer;" display="none"><path id="kity_path_351" fill="white" stroke="gray" d="M394.500000984328,1319.499998446873A6,6,0,1,1,382.500000984328,1319.499998446873A6,6,0,1,1,394.500000984328,1319.499998446873"></path><path id="kity_path_352" fill="none" stroke="gray"></path></g><path id="node_outline37" fill="none" stroke="none" d="M399.5000010933193,1308.499998446873h59a5,5,0,0,1,5,5v12a5,5,0,0,1,-5,5h-59a5,5,0,0,1,-5,-5v-12a5,5,0,0,1,5,-5z"></path><g id="node_text37" fill="black"><text id="kity_text_187" text-rendering="inherit" font-size="12" dy=".8em" y="1313.499998446873" x="404.5000010933193">数据结构</text></g></g><g id="minder_node39"><g id="node_expander43" style="cursor: pointer;"><path id="kity_path_372" fill="white" stroke="gray" d="M285.50000032697386,1459.499999400547A6,6,0,1,1,273.50000032697386,1459.499999400547A6,6,0,1,1,285.50000032697386,1459.499999400547"></path><path id="kity_path_373" fill="none" stroke="gray" d="M275.00000032697386,1459.499999400547L284.00000032697386,1459.499999400547"></path></g><path id="node_outline44" fill="rgb(238, 243, 246)" stroke="rgb(115, 161, 191)" d="M289.50000042574726,1446.499999400547h63a3,3,0,0,1,3,3v20a3,3,0,0,1,-3,3h-63a3,3,0,0,1,-3,-3v-20a3,3,0,0,1,3,-3z" stroke-width="1"></path><g id="node_text44" fill="black"><text id="kity_text_201" text-rendering="inherit" font-size="14" dy=".8em" y="1452.499999400547" x="306.50000042574726">类库</text></g></g><g id="minder_node40"><g id="node_expander39" style="cursor: pointer;"><path id="kity_path_360" fill="white" stroke="gray" d="M395.50000099113987,1381.4999988692143A6,6,0,1,1,383.50000099113987,1381.4999988692143A6,6,0,1,1,395.50000099113987,1381.4999988692143"></path><path id="kity_path_361" fill="none" stroke="gray" d="M385.00000099113987,1381.4999988692143L394.00000099113987,1381.4999988692143"></path></g><path id="node_outline40" fill="none" stroke="none" d="M400.5000011001312,1370.4999988692143h35a5,5,0,0,1,5,5v12a5,5,0,0,1,-5,5h-35a5,5,0,0,1,-5,-5v-12a5,5,0,0,1,5,-5z"></path><g id="node_text40" fill="black"><text id="kity_text_193" text-rendering="inherit" font-size="12" dy=".8em" y="1375.4999988692143" x="405.5000011001312">数学</text></g></g><g id="minder_node41"><g id="node_expander38" style="cursor: pointer;" display="none"><path id="kity_path_357" fill="white" stroke="gray" d="M480.5000015701564,1381.4999988692143A6,6,0,1,1,468.5000015701564,1381.4999988692143A6,6,0,1,1,480.5000015701564,1381.4999988692143"></path><path id="kity_path_358" fill="none" stroke="gray"></path></g><path id="node_outline39" fill="none" stroke="none" d="M485.5000016791478,1370.4999988692143h70a5,5,0,0,1,5,5v12a5,5,0,0,1,-5,5h-70a5,5,0,0,1,-5,-5v-12a5,5,0,0,1,5,-5z"></path><g id="node_text39" fill="black"><text id="kity_text_191" text-rendering="inherit" font-size="12" dy=".8em" y="1375.4999988692143" x="490.5000016791478">高精度运算</text></g></g><g id="minder_node42"><g id="node_expander40" style="cursor: pointer;" display="none"><path id="kity_path_363" fill="white" stroke="gray" d="M395.50000099113987,1433.4999992234361A6,6,0,1,1,383.50000099113987,1433.4999992234361A6,6,0,1,1,395.50000099113987,1433.4999992234361"></path><path id="kity_path_364" fill="none" stroke="gray"></path></g><path id="node_outline41" fill="none" stroke="none" d="M400.5000011001312,1422.4999992234361h70a5,5,0,0,1,5,5v12a5,5,0,0,1,-5,5h-70a5,5,0,0,1,-5,-5v-12a5,5,0,0,1,5,-5z"></path><g id="node_text41" fill="black"><text id="kity_text_195" text-rendering="inherit" font-size="12" dy=".8em" y="1427.4999992234361" x="405.5000011001312">日期和时间</text></g></g><g id="minder_node43"><g id="node_expander41" style="cursor: pointer;" display="none"><path id="kity_path_366" fill="white" stroke="gray" d="M395.50000099113987,1485.499999577658A6,6,0,1,1,383.50000099113987,1485.499999577658A6,6,0,1,1,395.50000099113987,1485.499999577658"></path><path id="kity_path_367" fill="none" stroke="gray"></path></g><path id="node_outline42" fill="none" stroke="none" d="M400.5000011001312,1474.499999577658h35a5,5,0,0,1,5,5v12a5,5,0,0,1,-5,5h-35a5,5,0,0,1,-5,-5v-12a5,5,0,0,1,5,-5z"></path><g id="node_text42" fill="black"><text id="kity_text_197" text-rendering="inherit" font-size="12" dy=".8em" y="1479.499999577658" x="405.5000011001312">文件</text></g></g><g id="minder_node44"><g id="node_expander42" style="cursor: pointer;" display="none"><path id="kity_path_369" fill="white" stroke="gray" d="M395.50000099113987,1537.4999999318798A6,6,0,1,1,383.50000099113987,1537.4999999318798A6,6,0,1,1,395.50000099113987,1537.4999999318798"></path><path id="kity_path_370" fill="none" stroke="gray"></path></g><path id="node_outline43" fill="none" stroke="none" d="M400.5000011001312,1526.4999999318798h35a5,5,0,0,1,5,5v12a5,5,0,0,1,-5,5h-35a5,5,0,0,1,-5,-5v-12a5,5,0,0,1,5,-5z"></path><g id="node_text43" fill="black"><text id="kity_text_199" text-rendering="inherit" font-size="12" dy=".8em" y="1531.4999999318798" x="405.5000011001312">网络</text></g></g><g id="minder_node45" opacity="1"><g id="node_expander44" style="cursor: pointer;"><path id="kity_path_380" fill="white" stroke="gray" d="M395.50000099113987,675.4999940599712A6,6,0,1,1,383.50000099113987,675.4999940599712A6,6,0,1,1,395.50000099113987,675.4999940599712"></path><path id="kity_path_381" fill="none" stroke="gray" d="M385.00000099113987,675.4999940599712L394.00000099113987,675.4999940599712"></path></g><path id="node_outline45" fill="none" stroke="none" d="M400.5000011001312,664.4999940599712h71a5,5,0,0,1,5,5v12a5,5,0,0,1,-5,5h-71a5,5,0,0,1,-5,-5v-12a5,5,0,0,1,5,-5z" stroke-width="3"></path><g id="node_text45" fill="black"><text id="kity_text_377" text-rendering="inherit" font-size="12" dy=".8em" y="669.4999940599712" x="405.5000011001312">表达式语句</text></g></g><g id="kity_g_12" display="none"><path id="kity_path_13" fill="none" stroke="rgb(66, 94, 112)" d="M400.499998647826,638.4999946253638h71a5,5,0,0,1,5,5v12a5,5,0,0,1,-5,5h-71a5,5,0,0,1,-5,-5v-12a5,5,0,0,1,5,-5z" stroke-width="5"></path></g></g></g></svg>