<svg id="kity_svg_6" xmlns="http://www.w3.org/2000/svg" xmlns:xlink="http://www.w3.org/1999/xlink" version="1.1" width="747" height="1568" style="background: rgb(251, 251, 251); visibility: visible;" viewBox="0 0 747 1568"><defs id="kity_defs_7"><linearGradient id="kity_linearGradient_17" x1="0" y1="0" x2="0" y2="1"><stop id="kity_stop_18" offset="0" stop-color="rgb(255, 255, 255)"></stop><stop id="kity_stop_19" offset="1" stop-color="rgb(204, 204, 204)"></stop></linearGradient><marker id="kity_marker_2" orient="auto" refX="6" refY="0" viewBox="-7 -7 14 14" markerWidth="7" markerHeight="7" markerUnits="userSpaceOnUse"><path id="kity_path_3" fill="rgb(115, 161, 191)" stroke="none" d="M6,0A6,6,0,1,1,-6,0A6,6,0,1,1,6,0"></path></marker></defs><g id="kity_g_8"><g id="minder1" text-rendering="optimize-speed"><g id="minder_connect_group1"><path id="kity_path_31" fill="none" stroke="rgb(115, 161, 191)" stroke-width="1" d="M92.500004991889,757.5000192970037A190,701,0,0,1,282.500004991889,56.500019297003746"></path><path id="kity_path_37" fill="none" stroke="rgb(115, 161, 191)" stroke-width="1" d="M353.500004991889,56.500019297003746C373.500004991889,56.500019297003746,373.500004991889,82.50001929700375,393.500004991889,82.50001929700375"></path><path id="kity_path_39" fill="none" stroke="rgb(115, 161, 191)" stroke-width="1" d="M92.500004991889,757.5000192970037A190,405,0,0,1,282.500004991889,352.50001929700375"></path><path id="kity_path_41" fill="none" stroke="rgb(115, 161, 191)" stroke-width="1" d="M352.500004991889,352.50001929700375C372.500004991889,352.50001929700375,372.500004991889,144.50001929700375,392.500004991889,144.50001929700375"></path><path id="kity_path_43" fill="none" stroke="rgb(115, 161, 191)" stroke-width="1" d="M352.500004991889,352.50001929700375C372.500004991889,352.50001929700375,372.500004991889,196.50001929700375,392.500004991889,196.50001929700375"></path><path id="kity_path_45" fill="none" stroke="rgb(115, 161, 191)" stroke-width="1" d="M352.500004991889,352.50001929700375C372.500004991889,352.50001929700375,372.500004991889,339.50001929700375,392.500004991889,339.50001929700375"></path><path id="kity_path_47" fill="none" stroke="rgb(115, 161, 191)" stroke-width="1" d="M485.500004991889,339.50001929700375C505.500004991889,339.50001929700375,505.500004991889,248.50001929700375,525.500004991889,248.50001929700375"></path><path id="kity_path_49" fill="none" stroke="rgb(115, 161, 191)" stroke-width="1" d="M485.500004991889,339.50001929700375C505.500004991889,339.50001929700375,505.500004991889,300.50001929700375,525.500004991889,300.50001929700375"></path><path id="kity_path_51" fill="none" stroke="rgb(115, 161, 191)" stroke-width="1" d="M485.500004991889,339.50001929700375C505.500004991889,339.50001929700375,505.500004991889,352.50001929700375,525.500004991889,352.50001929700375"></path><path id="kity_path_53" fill="none" stroke="rgb(115, 161, 191)" stroke-width="1" d="M485.500004991889,339.50001929700375C505.500004991889,339.50001929700375,505.500004991889,430.50001929700375,525.500004991889,430.50001929700375"></path><path id="kity_path_55" fill="none" stroke="rgb(115, 161, 191)" stroke-width="1" d="M594.500004991889,430.50001929700375C614.500004991889,430.50001929700375,614.500004991889,404.50001929700375,634.500004991889,404.50001929700375"></path><path id="kity_path_57" fill="none" stroke="rgb(115, 161, 191)" stroke-width="1" d="M594.500004991889,430.50001929700375C614.500004991889,430.50001929700375,614.500004991889,456.50001929700375,634.500004991889,456.50001929700375"></path><path id="kity_path_59" fill="none" stroke="rgb(115, 161, 191)" stroke-width="1" d="M352.500004991889,352.50001929700375C372.500004991889,352.50001929700375,372.500004991889,560.5000192970037,392.500004991889,560.5000192970037"></path><path id="kity_path_61" fill="none" stroke="rgb(115, 161, 191)" stroke-width="1" d="M485.500004991889,560.5000192970037C505.500004991889,560.5000192970037,505.500004991889,508.50001929700375,525.500004991889,508.50001929700375"></path><path id="kity_path_63" fill="none" stroke="rgb(115, 161, 191)" stroke-width="1" d="M485.500004991889,560.5000192970037C505.500004991889,560.5000192970037,505.500004991889,560.5000192970037,525.500004991889,560.5000192970037"></path><path id="kity_path_65" fill="none" stroke="rgb(115, 161, 191)" stroke-width="1" d="M485.500004991889,560.5000192970037C505.500004991889,560.5000192970037,505.500004991889,612.5000192970037,525.500004991889,612.5000192970037"></path><path id="kity_path_67" fill="none" stroke="rgb(115, 161, 191)" stroke-width="1" d="M92.500004991889,757.5000192970037A190,34,0,0,0,282.500004991889,791.5000192970037"></path><path id="kity_path_69" fill="none" stroke="rgb(115, 161, 191)" stroke-width="1" d="M352.500004991889,791.5000192970037C372.500004991889,791.5000192970037,372.500004991889,700.5000192970037,392.500004991889,700.5000192970037"></path><path id="kity_path_71" fill="none" stroke="rgb(115, 161, 191)" stroke-width="1" d="M461.500004991889,700.5000192970037C481.500004991889,700.5000192970037,481.500004991889,674.5000192970037,501.500004991889,674.5000192970037"></path><path id="kity_path_73" fill="none" stroke="rgb(115, 161, 191)" stroke-width="1" d="M461.500004991889,700.5000192970037C481.500004991889,700.5000192970037,481.500004991889,726.5000192970037,501.500004991889,726.5000192970037"></path><path id="kity_path_75" fill="none" stroke="rgb(115, 161, 191)" stroke-width="1" d="M352.500004991889,791.5000192970037C372.500004991889,791.5000192970037,372.500004991889,778.5000192970037,392.500004991889,778.5000192970037"></path><path id="kity_path_77" fill="none" stroke="rgb(115, 161, 191)" stroke-width="1" d="M352.500004991889,791.5000192970037C372.500004991889,791.5000192970037,372.500004991889,830.5000192970037,392.500004991889,830.5000192970037"></path><path id="kity_path_79" fill="none" stroke="rgb(115, 161, 191)" stroke-width="1" d="M352.500004991889,791.5000192970037C372.500004991889,791.5000192970037,372.500004991889,882.5000192970037,392.500004991889,882.5000192970037"></path><path id="kity_path_81" fill="none" stroke="rgb(115, 161, 191)" stroke-width="1" d="M92.500004991889,757.5000192970037A190,317,0,0,0,282.500004991889,1074.5000192970037"></path><path id="kity_path_83" fill="none" stroke="rgb(115, 161, 191)" stroke-width="1" d="M353.500004991889,1074.5000192970037C373.500004991889,1074.5000192970037,373.500004991889,996.5000192970037,393.500004991889,996.5000192970037"></path><path id="kity_path_85" fill="none" stroke="rgb(115, 161, 191)" stroke-width="1" d="M462.500004991889,996.5000192970037C482.500004991889,996.5000192970037,482.500004991889,944.5000192970037,502.500004991889,944.5000192970037"></path><path id="kity_path_87" fill="none" stroke="rgb(115, 161, 191)" stroke-width="1" d="M462.500004991889,996.5000192970037C482.500004991889,996.5000192970037,482.500004991889,996.5000192970037,502.500004991889,996.5000192970037"></path><path id="kity_path_89" fill="none" stroke="rgb(115, 161, 191)" stroke-width="1" d="M462.500004991889,996.5000192970037C482.500004991889,996.5000192970037,482.500004991889,1048.5000192970037,502.500004991889,1048.5000192970037"></path><path id="kity_path_91" fill="none" stroke="rgb(115, 161, 191)" stroke-width="1" d="M353.500004991889,1074.5000192970037C373.500004991889,1074.5000192970037,373.500004991889,1100.5000192970037,393.500004991889,1100.5000192970037"></path><path id="kity_path_93" fill="none" stroke="rgb(115, 161, 191)" stroke-width="1" d="M353.500004991889,1074.5000192970037C373.500004991889,1074.5000192970037,373.500004991889,1152.5000192970037,393.500004991889,1152.5000192970037"></path><path id="kity_path_95" fill="none" stroke="rgb(115, 161, 191)" stroke-width="1" d="M92.500004991889,757.5000192970037A190,509,0,0,0,282.500004991889,1266.5000192970037"></path><path id="kity_path_97" fill="none" stroke="rgb(115, 161, 191)" stroke-width="1" d="M352.500004991889,1266.5000192970037C372.500004991889,1266.5000192970037,372.500004991889,1214.5000192970037,392.500004991889,1214.5000192970037"></path><path id="kity_path_99" fill="none" stroke="rgb(115, 161, 191)" stroke-width="1" d="M352.500004991889,1266.5000192970037C372.500004991889,1266.5000192970037,372.500004991889,1266.5000192970037,392.500004991889,1266.5000192970037"></path><path id="kity_path_101" fill="none" stroke="rgb(115, 161, 191)" stroke-width="1" d="M352.500004991889,1266.5000192970037C372.500004991889,1266.5000192970037,372.500004991889,1318.5000192970037,392.500004991889,1318.5000192970037"></path><path id="kity_path_103" fill="none" stroke="rgb(115, 161, 191)" stroke-width="1" d="M92.500004991889,757.5000192970037A190,701,0,0,0,282.500004991889,1458.5000192970037"></path><path id="kity_path_105" fill="none" stroke="rgb(115, 161, 191)" stroke-width="1" d="M353.500004991889,1458.5000192970037C373.500004991889,1458.5000192970037,373.500004991889,1380.5000192970037,393.500004991889,1380.5000192970037"></path><path id="kity_path_107" fill="none" stroke="rgb(115, 161, 191)" stroke-width="1" d="M438.500004991889,1380.5000192970037C458.500004991889,1380.5000192970037,458.500004991889,1380.5000192970037,478.500004991889,1380.5000192970037"></path><path id="kity_path_109" fill="none" stroke="rgb(115, 161, 191)" stroke-width="1" d="M353.500004991889,1458.5000192970037C373.500004991889,1458.5000192970037,373.500004991889,1432.5000192970037,393.500004991889,1432.5000192970037"></path><path id="kity_path_111" fill="none" stroke="rgb(115, 161, 191)" stroke-width="1" d="M353.500004991889,1458.5000192970037C373.500004991889,1458.5000192970037,373.500004991889,1484.5000192970037,393.500004991889,1484.5000192970037"></path><path id="kity_path_113" fill="none" stroke="rgb(115, 161, 191)" stroke-width="1" d="M353.500004991889,1458.5000192970037C373.500004991889,1458.5000192970037,373.500004991889,1536.5000192970037,393.500004991889,1536.5000192970037"></path><path id="kity_path_367" fill="none" stroke="rgb(115, 161, 191)" stroke-width="1" d="M353.500004991889,56.500019297003746C373.500004991889,56.500019297003746,373.500004991889,30.500019297003746,393.500004991889,30.500019297003746"></path><path id="kity_path_375" fill="none" stroke="rgb(115, 161, 191)" stroke-width="1" d="M571.500004991889,30.500019297003746C591.500004991889,30.500019297003746,591.500004991889,30.500019297003746,611.500004991889,30.500019297003746"></path><path id="kity_path_376" fill="none" stroke="rgb(115, 161, 191)" stroke-width="1" d="M462.500004991889,30.500019297003746C482.500004991889,30.500019297003746,482.500004991889,30.500019297003746,502.500004991889,30.500019297003746"></path></g><g id="minder_node1"><path id="node_outline1" fill="rgb(115, 161, 191)" stroke="rgb(115, 161, 191)" d="M25.500004991889,737.5000192970037h134a5,5,0,0,1,5,5v30a5,5,0,0,1,-5,5h-134a5,5,0,0,1,-5,-5v-30a5,5,0,0,1,5,-5z" stroke-width="3"></path><g id="node_text1" fill="white"><text id="kity_text_22" text-rendering="inherit" font-size="16" dy=".8em" y="747.1000191301107" x="44.500004991889">编程语言导图</text></g></g><g id="kity_g_14" display="none"><path id="kity_path_15" fill="rgba(0, 92, 153, 0.5)" stroke="none" d="M393.500004991889,-0.49998070299625397h93v15h-93z"></path><path id="kity_path_16" fill="none" stroke="rgb(0, 76, 128)" d="M393.500004991889,14.500019297003746L486.500004991889,14.500019297003746" stroke-width="1"></path></g><g id="minder_node2"><g id="node_expander4" style="cursor: pointer;"><path id="kity_path_250" fill="white" stroke="gray" d="M283.5000119358301,56.49999840557575A6,6,0,1,1,271.5000119358301,56.49999840557575A6,6,0,1,1,283.5000119358301,56.49999840557575"></path><path id="kity_path_251" fill="none" stroke="gray" d="M273.0000119358301,56.49999840557575L282.0000119358301,56.49999840557575"></path></g><path id="node_outline5" fill="rgb(238, 243, 246)" stroke="rgb(115, 161, 191)" d="M287.5000127404928,43.49999840557575h63a3,3,0,0,1,3,3v20a3,3,0,0,1,-3,3h-63a3,3,0,0,1,-3,-3v-20a3,3,0,0,1,3,-3z" stroke-width="1"></path><g id="node_text5" fill="black"><text id="kity_text_121" text-rendering="inherit" font-size="14" dy=".8em" y="47.39999843835831" x="304.5000127404928">常识</text></g></g><g id="minder_node5"><g id="node_expander3" style="cursor: pointer;" display="none"><path id="kity_path_247" fill="white" stroke="gray" d="M393.5000152140856,82.49999918043613A6,6,0,1,1,381.5000152140856,82.49999918043613A6,6,0,1,1,393.5000152140856,82.49999918043613"></path><path id="kity_path_248" fill="none" stroke="gray"></path></g><path id="node_outline4" fill="none" stroke="none" d="M398.50001569092274,71.49999918043613h95a5,5,0,0,1,5,5v12a5,5,0,0,1,-5,5h-95a5,5,0,0,1,-5,-5v-12a5,5,0,0,1,5,-5z" stroke-width="3"></path><g id="node_text4" fill="black"><text id="kity_text_119" text-rendering="inherit" font-size="12" dy=".8em" y="74.69999925394853" x="403.50001569092274">特定语言的规范</text></g></g><g id="minder_node6"><g id="node_expander18" style="cursor: pointer;"><path id="kity_path_292" fill="white" stroke="gray" d="M283.5000119358301,352.5000072270632A6,6,0,1,1,271.5000119358301,352.5000072270632A6,6,0,1,1,283.5000119358301,352.5000072270632"></path><path id="kity_path_293" fill="none" stroke="gray" d="M273.0000119358301,352.5000072270632L282.0000119358301,352.5000072270632"></path></g><path id="node_outline19" fill="rgb(238, 243, 246)" stroke="rgb(115, 161, 191)" d="M287.5000127404928,339.5000072270632h62a3,3,0,0,1,3,3v20a3,3,0,0,1,-3,3h-62a3,3,0,0,1,-3,-3v-20a3,3,0,0,1,3,-3z" stroke-width="1"></path><g id="node_text19" fill="black"><text id="kity_text_149" text-rendering="inherit" font-size="14" dy=".8em" y="343.4000072598457" x="304.5000127404928">基础</text></g></g><g id="minder_node7"><g id="node_expander5" style="cursor: pointer;" display="none"><path id="kity_path_253" fill="white" stroke="gray" d="M392.50001518428326,144.50000102818012A6,6,0,1,1,380.50001518428326,144.50000102818012A6,6,0,1,1,392.50001518428326,144.50000102818012"></path><path id="kity_path_254" fill="none" stroke="gray"></path></g><path id="node_outline6" fill="none" stroke="none" d="M397.5000156611204,133.50000102818012h59a5,5,0,0,1,5,5v12a5,5,0,0,1,-5,5h-59a5,5,0,0,1,-5,-5v-12a5,5,0,0,1,5,-5z"></path><g id="node_text6" fill="black"><text id="kity_text_123" text-rendering="inherit" font-size="12" dy=".8em" y="136.70000110169252" x="402.5000156611204">命名规范</text></g></g><g id="minder_node8"><g id="node_expander6" style="cursor: pointer;" display="none"><path id="kity_path_256" fill="white" stroke="gray" d="M392.50001518428326,196.5000025779009A6,6,0,1,1,380.50001518428326,196.5000025779009A6,6,0,1,1,392.50001518428326,196.5000025779009"></path><path id="kity_path_257" fill="none" stroke="gray"></path></g><path id="node_outline7" fill="none" stroke="none" d="M397.5000156611204,185.5000025779009h35a5,5,0,0,1,5,5v12a5,5,0,0,1,-5,5h-35a5,5,0,0,1,-5,-5v-12a5,5,0,0,1,5,-5z"></path><g id="node_text7" fill="black"><text id="kity_text_125" text-rendering="inherit" font-size="12" dy=".8em" y="188.70000265141329" x="402.5000156611204">注释</text></g></g><g id="minder_node9"><g id="node_expander13" style="cursor: pointer;"><path id="kity_path_277" fill="white" stroke="gray" d="M392.50001518428326,339.500006839633A6,6,0,1,1,380.50001518428326,339.500006839633A6,6,0,1,1,392.50001518428326,339.500006839633"></path><path id="kity_path_278" fill="none" stroke="gray" d="M382.00001518428326,339.500006839633L391.00001518428326,339.500006839633"></path></g><path id="node_outline14" fill="none" stroke="none" d="M397.5000156611204,328.500006839633h83a5,5,0,0,1,5,5v12a5,5,0,0,1,-5,5h-83a5,5,0,0,1,-5,-5v-12a5,5,0,0,1,5,-5z"></path><g id="node_text14" fill="black"><text id="kity_text_139" text-rendering="inherit" font-size="12" dy=".8em" y="331.7000069131454" x="402.5000156611204">基本数据类型</text></g></g><g id="minder_node10"><g id="node_expander7" style="cursor: pointer;" display="none"><path id="kity_path_259" fill="white" stroke="gray" d="M525.5000191479921,248.50000412762165A6,6,0,1,1,513.5000191479921,248.50000412762165A6,6,0,1,1,525.5000191479921,248.50000412762165"></path><path id="kity_path_260" fill="none" stroke="gray"></path></g><path id="node_outline8" fill="none" stroke="none" d="M530.5000196248293,237.50000412762165h47a5,5,0,0,1,5,5v12a5,5,0,0,1,-5,5h-47a5,5,0,0,1,-5,-5v-12a5,5,0,0,1,5,-5z"></path><g id="node_text8" fill="black"><text id="kity_text_127" text-rendering="inherit" font-size="12" dy=".8em" y="240.70000420113405" x="535.5000196248293">字面值</text></g></g><g id="minder_node11"><g id="node_expander8" style="cursor: pointer;" display="none"><path id="kity_path_262" fill="white" stroke="gray" d="M525.5000191479921,300.5000056773424A6,6,0,1,1,513.5000191479921,300.5000056773424A6,6,0,1,1,525.5000191479921,300.5000056773424"></path><path id="kity_path_263" fill="none" stroke="gray"></path></g><path id="node_outline9" fill="none" stroke="none" d="M530.5000196248293,289.5000056773424h35a5,5,0,0,1,5,5v12a5,5,0,0,1,-5,5h-35a5,5,0,0,1,-5,-5v-12a5,5,0,0,1,5,-5z"></path><g id="node_text9" fill="black"><text id="kity_text_129" text-rendering="inherit" font-size="12" dy=".8em" y="292.7000057508548" x="535.5000196248293">值域</text></g></g><g id="minder_node12"><g id="node_expander9" style="cursor: pointer;" display="none"><path id="kity_path_265" fill="white" stroke="gray" d="M525.5000191479921,352.5000072270632A6,6,0,1,1,513.5000191479921,352.5000072270632A6,6,0,1,1,525.5000191479921,352.5000072270632"></path><path id="kity_path_266" fill="none" stroke="gray"></path></g><path id="node_outline10" fill="none" stroke="none" d="M530.5000196248293,341.5000072270632h35a5,5,0,0,1,5,5v12a5,5,0,0,1,-5,5h-35a5,5,0,0,1,-5,-5v-12a5,5,0,0,1,5,-5z"></path><g id="node_text10" fill="black"><text id="kity_text_131" text-rendering="inherit" font-size="12" dy=".8em" y="344.7000073005756" x="535.5000196248293">运算</text></g></g><g id="minder_node13"><g id="node_expander12" style="cursor: pointer;"><path id="kity_path_274" fill="white" stroke="gray" d="M525.5000191479921,430.5000095516443A6,6,0,1,1,513.5000191479921,430.5000095516443A6,6,0,1,1,525.5000191479921,430.5000095516443"></path><path id="kity_path_275" fill="none" stroke="gray" d="M515.0000191479921,430.5000095516443L524.0000191479921,430.5000095516443"></path></g><path id="node_outline13" fill="none" stroke="none" d="M530.5000196248293,419.5000095516443h59a5,5,0,0,1,5,5v12a5,5,0,0,1,-5,5h-59a5,5,0,0,1,-5,-5v-12a5,5,0,0,1,5,-5z"></path><g id="node_text13" fill="black"><text id="kity_text_137" text-rendering="inherit" font-size="12" dy=".8em" y="422.7000096251567" x="535.5000196248293">类型转换</text></g></g><g id="minder_node14"><g id="node_expander10" style="cursor: pointer;" display="none"><path id="kity_path_268" fill="white" stroke="gray" d="M634.5000223964453,404.50000877678394A6,6,0,1,1,622.5000223964453,404.50000877678394A6,6,0,1,1,634.5000223964453,404.50000877678394"></path><path id="kity_path_269" fill="none" stroke="gray"></path></g><path id="node_outline11" fill="none" stroke="none" d="M639.5000228732824,393.50000877678394h83a5,5,0,0,1,5,5v12a5,5,0,0,1,-5,5h-83a5,5,0,0,1,-5,-5v-12a5,5,0,0,1,5,-5z"></path><g id="node_text11" fill="black"><text id="kity_text_133" text-rendering="inherit" font-size="12" dy=".8em" y="396.70000885029634" x="644.5000228732824">自动类型转换</text></g></g><g id="minder_node15"><g id="node_expander11" style="cursor: pointer;" display="none"><path id="kity_path_271" fill="white" stroke="gray" d="M634.5000223964453,456.5000103265047A6,6,0,1,1,622.5000223964453,456.5000103265047A6,6,0,1,1,634.5000223964453,456.5000103265047"></path><path id="kity_path_272" fill="none" stroke="gray"></path></g><path id="node_outline12" fill="none" stroke="none" d="M639.5000228732824,445.5000103265047h83a5,5,0,0,1,5,5v12a5,5,0,0,1,-5,5h-83a5,5,0,0,1,-5,-5v-12a5,5,0,0,1,5,-5z"></path><g id="node_text12" fill="black"><text id="kity_text_135" text-rendering="inherit" font-size="12" dy=".8em" y="448.7000104000171" x="644.5000228732824">强制类型转换</text></g></g><g id="minder_node16"><g id="node_expander17" style="cursor: pointer;"><path id="kity_path_289" fill="white" stroke="gray" d="M392.50001518428326,560.5000134259462A6,6,0,1,1,380.50001518428326,560.5000134259462A6,6,0,1,1,392.50001518428326,560.5000134259462"></path><path id="kity_path_290" fill="none" stroke="gray" d="M382.00001518428326,560.5000134259462L391.00001518428326,560.5000134259462"></path></g><path id="node_outline18" fill="none" stroke="none" d="M397.5000156611204,549.5000134259462h83a5,5,0,0,1,5,5v12a5,5,0,0,1,-5,5h-83a5,5,0,0,1,-5,-5v-12a5,5,0,0,1,5,-5z"></path><g id="node_text18" fill="black"><text id="kity_text_147" text-rendering="inherit" font-size="12" dy=".8em" y="552.7000134994587" x="402.5000156611204">复合数据类型</text></g></g><g id="minder_node17"><g id="node_expander14" style="cursor: pointer;" display="none"><path id="kity_path_280" fill="white" stroke="gray" d="M525.5000191479921,508.50001187622547A6,6,0,1,1,513.5000191479921,508.50001187622547A6,6,0,1,1,525.5000191479921,508.50001187622547"></path><path id="kity_path_281" fill="none" stroke="gray"></path></g><path id="node_outline15" fill="none" stroke="none" d="M530.5000196248293,497.50001187622547h35a5,5,0,0,1,5,5v12a5,5,0,0,1,-5,5h-35a5,5,0,0,1,-5,-5v-12a5,5,0,0,1,5,-5z"></path><g id="node_text15" fill="black"><text id="kity_text_141" text-rendering="inherit" font-size="12" dy=".8em" y="500.70001194973787" x="535.5000196248293">数组</text></g></g><g id="minder_node18"><g id="node_expander15" style="cursor: pointer;" display="none"><path id="kity_path_283" fill="white" stroke="gray" d="M525.5000191479921,560.5000134259462A6,6,0,1,1,513.5000191479921,560.5000134259462A6,6,0,1,1,525.5000191479921,560.5000134259462"></path><path id="kity_path_284" fill="none" stroke="gray"></path></g><path id="node_outline16" fill="none" stroke="none" d="M530.5000196248293,549.5000134259462h35a5,5,0,0,1,5,5v12a5,5,0,0,1,-5,5h-35a5,5,0,0,1,-5,-5v-12a5,5,0,0,1,5,-5z"></path><g id="node_text16" fill="black"><text id="kity_text_143" text-rendering="inherit" font-size="12" dy=".8em" y="552.7000134994587" x="535.5000196248293">枚举</text></g></g><g id="minder_node19"><g id="node_expander16" style="cursor: pointer;" display="none"><path id="kity_path_286" fill="white" stroke="gray" d="M525.5000191479921,612.500014975667A6,6,0,1,1,513.5000191479921,612.500014975667A6,6,0,1,1,525.5000191479921,612.500014975667"></path><path id="kity_path_287" fill="none" stroke="gray"></path></g><path id="node_outline17" fill="none" stroke="none" d="M530.5000196248293,601.500014975667h35a5,5,0,0,1,5,5v12a5,5,0,0,1,-5,5h-35a5,5,0,0,1,-5,-5v-12a5,5,0,0,1,5,-5z"></path><g id="node_text17" fill="black"><text id="kity_text_145" text-rendering="inherit" font-size="12" dy=".8em" y="604.7000150491795" x="535.5000196248293">元组</text></g></g><g id="minder_node20"><g id="node_expander25" style="cursor: pointer;"><path id="kity_path_313" fill="white" stroke="gray" d="M283.5000119358301,791.5000203102827A6,6,0,1,1,271.5000119358301,791.5000203102827A6,6,0,1,1,283.5000119358301,791.5000203102827"></path><path id="kity_path_314" fill="none" stroke="gray" d="M273.0000119358301,791.5000203102827L282.0000119358301,791.5000203102827"></path></g><path id="node_outline26" fill="rgb(238, 243, 246)" stroke="rgb(115, 161, 191)" d="M287.5000127404928,778.5000203102827h62a3,3,0,0,1,3,3v20a3,3,0,0,1,-3,3h-62a3,3,0,0,1,-3,-3v-20a3,3,0,0,1,3,-3z" stroke-width="1"></path><g id="node_text26" fill="black"><text id="kity_text_163" text-rendering="inherit" font-size="14" dy=".8em" y="782.4000203430653" x="304.5000127404928">语句</text></g></g><g id="minder_node21"><g id="node_expander21" style="cursor: pointer;"><path id="kity_path_301" fill="white" stroke="gray" d="M392.50001518428326,700.5000175982714A6,6,0,1,1,380.50001518428326,700.5000175982714A6,6,0,1,1,392.50001518428326,700.5000175982714"></path><path id="kity_path_302" fill="none" stroke="gray" d="M382.00001518428326,700.5000175982714L391.00001518428326,700.5000175982714"></path></g><path id="node_outline22" fill="none" stroke="none" d="M397.5000156611204,689.5000175982714h59a5,5,0,0,1,5,5v12a5,5,0,0,1,-5,5h-59a5,5,0,0,1,-5,-5v-12a5,5,0,0,1,5,-5z"></path><g id="node_text22" fill="black"><text id="kity_text_155" text-rendering="inherit" font-size="12" dy=".8em" y="692.7000176717838" x="402.5000156611204">顺序语句</text></g></g><g id="minder_node22"><g id="node_expander19" style="cursor: pointer;" display="none"><path id="kity_path_295" fill="white" stroke="gray" d="M501.5000184327364,674.500016823411A6,6,0,1,1,489.5000184327364,674.500016823411A6,6,0,1,1,501.5000184327364,674.500016823411"></path><path id="kity_path_296" fill="none" stroke="gray"></path></g><path id="node_outline20" fill="none" stroke="none" d="M506.50001890957355,663.500016823411h58a5,5,0,0,1,5,5v12a5,5,0,0,1,-5,5h-58a5,5,0,0,1,-5,-5v-12a5,5,0,0,1,5,-5z"></path><g id="node_text20" fill="black"><text id="kity_text_151" text-rendering="inherit" font-size="12" dy=".8em" y="666.7000168969234" x="511.50001890957355">声明语句</text></g></g><g id="minder_node23"><g id="node_expander20" style="cursor: pointer;" display="none"><path id="kity_path_298" fill="white" stroke="gray" d="M501.5000184327364,726.5000183731318A6,6,0,1,1,489.5000184327364,726.5000183731318A6,6,0,1,1,501.5000184327364,726.5000183731318"></path><path id="kity_path_299" fill="none" stroke="gray"></path></g><path id="node_outline21" fill="none" stroke="none" d="M506.50001890957355,715.5000183731318h58a5,5,0,0,1,5,5v12a5,5,0,0,1,-5,5h-58a5,5,0,0,1,-5,-5v-12a5,5,0,0,1,5,-5z"></path><g id="node_text21" fill="black"><text id="kity_text_153" text-rendering="inherit" font-size="12" dy=".8em" y="718.7000184466442" x="511.50001890957355">赋值语句</text></g></g><g id="minder_node24"><g id="node_expander22" style="cursor: pointer;" display="none"><path id="kity_path_304" fill="white" stroke="gray" d="M392.50001518428326,778.5000199228525A6,6,0,1,1,380.50001518428326,778.5000199228525A6,6,0,1,1,392.50001518428326,778.5000199228525"></path><path id="kity_path_305" fill="none" stroke="gray"></path></g><path id="node_outline23" fill="none" stroke="none" d="M397.5000156611204,767.5000199228525h59a5,5,0,0,1,5,5v12a5,5,0,0,1,-5,5h-59a5,5,0,0,1,-5,-5v-12a5,5,0,0,1,5,-5z"></path><g id="node_text23" fill="black"><text id="kity_text_157" text-rendering="inherit" font-size="12" dy=".8em" y="770.700019996365" x="402.5000156611204">分支语句</text></g></g><g id="minder_node25"><g id="node_expander23" style="cursor: pointer;" display="none"><path id="kity_path_307" fill="white" stroke="gray" d="M392.50001518428326,830.5000214725733A6,6,0,1,1,380.50001518428326,830.5000214725733A6,6,0,1,1,392.50001518428326,830.5000214725733"></path><path id="kity_path_308" fill="none" stroke="gray"></path></g><path id="node_outline24" fill="none" stroke="none" d="M397.5000156611204,819.5000214725733h59a5,5,0,0,1,5,5v12a5,5,0,0,1,-5,5h-59a5,5,0,0,1,-5,-5v-12a5,5,0,0,1,5,-5z"></path><g id="node_text24" fill="black"><text id="kity_text_159" text-rendering="inherit" font-size="12" dy=".8em" y="822.7000215460857" x="402.5000156611204">循环语句</text></g></g><g id="minder_node26"><g id="node_expander24" style="cursor: pointer;" display="none"><path id="kity_path_310" fill="white" stroke="gray" d="M392.50001518428326,882.500023022294A6,6,0,1,1,380.50001518428326,882.500023022294A6,6,0,1,1,392.50001518428326,882.500023022294"></path><path id="kity_path_311" fill="none" stroke="gray"></path></g><path id="node_outline25" fill="none" stroke="none" d="M397.5000156611204,871.500023022294h58a5,5,0,0,1,5,5v12a5,5,0,0,1,-5,5h-58a5,5,0,0,1,-5,-5v-12a5,5,0,0,1,5,-5z"></path><g id="node_text25" fill="black"><text id="kity_text_161" text-rendering="inherit" font-size="12" dy=".8em" y="874.7000230958065" x="402.5000156611204">异常控制</text></g></g><g id="minder_node27"><g id="node_expander32" style="cursor: pointer;"><path id="kity_path_334" fill="white" stroke="gray" d="M283.5000119358301,1074.50002874434A6,6,0,1,1,271.5000119358301,1074.50002874434A6,6,0,1,1,283.5000119358301,1074.50002874434"></path><path id="kity_path_335" fill="none" stroke="gray" d="M273.0000119358301,1074.50002874434L282.0000119358301,1074.50002874434"></path></g><path id="node_outline33" fill="rgb(238, 243, 246)" stroke="rgb(115, 161, 191)" d="M287.5000127404928,1061.50002874434h63a3,3,0,0,1,3,3v20a3,3,0,0,1,-3,3h-63a3,3,0,0,1,-3,-3v-20a3,3,0,0,1,3,-3z" stroke-width="1"></path><g id="node_text33" fill="black"><text id="kity_text_177" text-rendering="inherit" font-size="14" dy=".8em" y="1065.4000287771225" x="304.5000127404928">模块</text></g></g><g id="minder_node28"><g id="node_expander29" style="cursor: pointer;"><path id="kity_path_325" fill="white" stroke="gray" d="M393.5000152140856,996.5000264197588A6,6,0,1,1,381.5000152140856,996.5000264197588A6,6,0,1,1,393.5000152140856,996.5000264197588"></path><path id="kity_path_326" fill="none" stroke="gray" d="M383.0000152140856,996.5000264197588L392.0000152140856,996.5000264197588"></path></g><path id="node_outline30" fill="none" stroke="none" d="M398.50001569092274,985.5000264197588h59a5,5,0,0,1,5,5v12a5,5,0,0,1,-5,5h-59a5,5,0,0,1,-5,-5v-12a5,5,0,0,1,5,-5z"></path><g id="node_text30" fill="black"><text id="kity_text_171" text-rendering="inherit" font-size="12" dy=".8em" y="988.7000264932713" x="403.50001569092274">命名空间</text></g></g><g id="minder_node29"><g id="node_expander26" style="cursor: pointer;" display="none"><path id="kity_path_316" fill="white" stroke="gray" d="M502.5000184625387,944.500024870038A6,6,0,1,1,490.5000184625387,944.500024870038A6,6,0,1,1,502.5000184625387,944.500024870038"></path><path id="kity_path_317" fill="none" stroke="gray"></path></g><path id="node_outline27" fill="none" stroke="none" d="M507.5000189393759,933.500024870038h58a5,5,0,0,1,5,5v12a5,5,0,0,1,-5,5h-58a5,5,0,0,1,-5,-5v-12a5,5,0,0,1,5,-5z"></path><g id="node_text27" fill="black"><text id="kity_text_165" text-rendering="inherit" font-size="12" dy=".8em" y="936.7000249435505" x="512.5000189393759">组织模块</text></g></g><g id="minder_node30"><g id="node_expander27" style="cursor: pointer;" display="none"><path id="kity_path_319" fill="white" stroke="gray" d="M502.5000184625387,996.5000264197588A6,6,0,1,1,490.5000184625387,996.5000264197588A6,6,0,1,1,502.5000184625387,996.5000264197588"></path><path id="kity_path_320" fill="none" stroke="gray"></path></g><path id="node_outline28" fill="none" stroke="none" d="M507.5000189393759,985.5000264197588h59a5,5,0,0,1,5,5v12a5,5,0,0,1,-5,5h-59a5,5,0,0,1,-5,-5v-12a5,5,0,0,1,5,-5z"></path><g id="node_text28" fill="black"><text id="kity_text_167" text-rendering="inherit" font-size="12" dy=".8em" y="988.7000264932713" x="512.5000189393759">导入名称</text></g></g><g id="minder_node31"><g id="node_expander28" style="cursor: pointer;" display="none"><path id="kity_path_322" fill="white" stroke="gray" d="M502.5000184625387,1048.5000279694796A6,6,0,1,1,490.5000184625387,1048.5000279694796A6,6,0,1,1,502.5000184625387,1048.5000279694796"></path><path id="kity_path_323" fill="none" stroke="gray"></path></g><path id="node_outline29" fill="none" stroke="none" d="M507.5000189393759,1037.5000279694796h59a5,5,0,0,1,5,5v12a5,5,0,0,1,-5,5h-59a5,5,0,0,1,-5,-5v-12a5,5,0,0,1,5,-5z"></path><g id="node_text29" fill="black"><text id="kity_text_169" text-rendering="inherit" font-size="12" dy=".8em" y="1040.700028042992" x="512.5000189393759">导出名称</text></g></g><g id="minder_node32"><g id="node_expander30" style="cursor: pointer;" display="none"><path id="kity_path_328" fill="white" stroke="gray" d="M393.5000152140856,1100.5000295192003A6,6,0,1,1,381.5000152140856,1100.5000295192003A6,6,0,1,1,393.5000152140856,1100.5000295192003"></path><path id="kity_path_329" fill="none" stroke="gray"></path></g><path id="node_outline31" fill="none" stroke="none" d="M398.50001569092274,1089.5000295192003h35a5,5,0,0,1,5,5v12a5,5,0,0,1,-5,5h-35a5,5,0,0,1,-5,-5v-12a5,5,0,0,1,5,-5z"></path><g id="node_text31" fill="black"><text id="kity_text_173" text-rendering="inherit" font-size="12" dy=".8em" y="1092.7000295927128" x="403.50001569092274">函数</text></g></g><g id="minder_node33"><g id="node_expander31" style="cursor: pointer;" display="none"><path id="kity_path_331" fill="white" stroke="gray" d="M393.5000152140856,1152.500031068921A6,6,0,1,1,381.5000152140856,1152.500031068921A6,6,0,1,1,393.5000152140856,1152.500031068921"></path><path id="kity_path_332" fill="none" stroke="gray"></path></g><path id="node_outline32" fill="none" stroke="none" d="M398.50001569092274,1141.500031068921h23a5,5,0,0,1,5,5v12a5,5,0,0,1,-5,5h-23a5,5,0,0,1,-5,-5v-12a5,5,0,0,1,5,-5z"></path><g id="node_text32" fill="black"><text id="kity_text_175" text-rendering="inherit" font-size="12" dy=".8em" y="1144.7000311424335" x="403.50001569092274">类</text></g></g><g id="minder_node34"><g id="node_expander36" style="cursor: pointer;"><path id="kity_path_346" fill="white" stroke="gray" d="M283.5000119358301,1266.5000344663858A6,6,0,1,1,271.5000119358301,1266.5000344663858A6,6,0,1,1,283.5000119358301,1266.5000344663858"></path><path id="kity_path_347" fill="none" stroke="gray" d="M273.0000119358301,1266.5000344663858L282.0000119358301,1266.5000344663858"></path></g><path id="node_outline37" fill="rgb(238, 243, 246)" stroke="rgb(115, 161, 191)" d="M287.5000127404928,1253.5000344663858h62a3,3,0,0,1,3,3v20a3,3,0,0,1,-3,3h-62a3,3,0,0,1,-3,-3v-20a3,3,0,0,1,3,-3z" stroke-width="1"></path><g id="node_text37" fill="black"><text id="kity_text_185" text-rendering="inherit" font-size="14" dy=".8em" y="1257.4000344991684" x="304.5000127404928">工具</text></g></g><g id="minder_node35"><g id="node_expander33" style="cursor: pointer;" display="none"><path id="kity_path_337" fill="white" stroke="gray" d="M392.50001518428326,1214.500032916665A6,6,0,1,1,380.50001518428326,1214.500032916665A6,6,0,1,1,392.50001518428326,1214.500032916665"></path><path id="kity_path_338" fill="none" stroke="gray"></path></g><path id="node_outline34" fill="none" stroke="none" d="M397.5000156611204,1203.500032916665h82a5,5,0,0,1,5,5v12a5,5,0,0,1,-5,5h-82a5,5,0,0,1,-5,-5v-12a5,5,0,0,1,5,-5z"></path><g id="node_text34" fill="black"><text id="kity_text_179" text-rendering="inherit" font-size="12" dy=".8em" y="1206.7000329901775" x="402.5000156611204">输入输出工具</text></g></g><g id="minder_node36"><g id="node_expander34" style="cursor: pointer;" display="none"><path id="kity_path_340" fill="white" stroke="gray" d="M392.50001518428326,1266.5000344663858A6,6,0,1,1,380.50001518428326,1266.5000344663858A6,6,0,1,1,392.50001518428326,1266.5000344663858"></path><path id="kity_path_341" fill="none" stroke="gray"></path></g><path id="node_outline35" fill="none" stroke="none" d="M397.5000156611204,1255.5000344663858h70a5,5,0,0,1,5,5v12a5,5,0,0,1,-5,5h-70a5,5,0,0,1,-5,-5v-12a5,5,0,0,1,5,-5z"></path><g id="node_text35" fill="black"><text id="kity_text_181" text-rendering="inherit" font-size="12" dy=".8em" y="1258.7000345398983" x="402.5000156611204">字符串工具</text></g></g><g id="minder_node37"><g id="node_expander35" style="cursor: pointer;" display="none"><path id="kity_path_343" fill="white" stroke="gray" d="M392.50001518428326,1318.5000360161066A6,6,0,1,1,380.50001518428326,1318.5000360161066A6,6,0,1,1,392.50001518428326,1318.5000360161066"></path><path id="kity_path_344" fill="none" stroke="gray"></path></g><path id="node_outline36" fill="none" stroke="none" d="M397.5000156611204,1307.5000360161066h59a5,5,0,0,1,5,5v12a5,5,0,0,1,-5,5h-59a5,5,0,0,1,-5,-5v-12a5,5,0,0,1,5,-5z"></path><g id="node_text36" fill="black"><text id="kity_text_183" text-rendering="inherit" font-size="12" dy=".8em" y="1310.700036089619" x="402.5000156611204">数据结构</text></g></g><g id="minder_node38"><g id="node_expander42" style="cursor: pointer;"><path id="kity_path_364" fill="white" stroke="gray" d="M283.5000119358301,1458.5000401884317A6,6,0,1,1,271.5000119358301,1458.5000401884317A6,6,0,1,1,283.5000119358301,1458.5000401884317"></path><path id="kity_path_365" fill="none" stroke="gray" d="M273.0000119358301,1458.5000401884317L282.0000119358301,1458.5000401884317"></path></g><path id="node_outline43" fill="rgb(238, 243, 246)" stroke="rgb(115, 161, 191)" d="M287.5000127404928,1445.5000401884317h63a3,3,0,0,1,3,3v20a3,3,0,0,1,-3,3h-63a3,3,0,0,1,-3,-3v-20a3,3,0,0,1,3,-3z" stroke-width="1"></path><g id="node_text43" fill="black"><text id="kity_text_197" text-rendering="inherit" font-size="14" dy=".8em" y="1449.4000402212143" x="304.5000127404928">类库</text></g></g><g id="minder_node39"><g id="node_expander38" style="cursor: pointer;"><path id="kity_path_352" fill="white" stroke="gray" d="M393.5000152140856,1380.5000378638506A6,6,0,1,1,381.5000152140856,1380.5000378638506A6,6,0,1,1,393.5000152140856,1380.5000378638506"></path><path id="kity_path_353" fill="none" stroke="gray" d="M383.0000152140856,1380.5000378638506L392.0000152140856,1380.5000378638506"></path></g><path id="node_outline39" fill="none" stroke="none" d="M398.50001569092274,1369.5000378638506h35a5,5,0,0,1,5,5v12a5,5,0,0,1,-5,5h-35a5,5,0,0,1,-5,-5v-12a5,5,0,0,1,5,-5z"></path><g id="node_text39" fill="black"><text id="kity_text_189" text-rendering="inherit" font-size="12" dy=".8em" y="1372.700037937363" x="403.50001569092274">数学</text></g></g><g id="minder_node40"><g id="node_expander37" style="cursor: pointer;" display="none"><path id="kity_path_349" fill="white" stroke="gray" d="M478.500017747283,1380.5000378638506A6,6,0,1,1,466.500017747283,1380.5000378638506A6,6,0,1,1,478.500017747283,1380.5000378638506"></path><path id="kity_path_350" fill="none" stroke="gray"></path></g><path id="node_outline38" fill="none" stroke="none" d="M483.50001822412014,1369.5000378638506h71a5,5,0,0,1,5,5v12a5,5,0,0,1,-5,5h-71a5,5,0,0,1,-5,-5v-12a5,5,0,0,1,5,-5z"></path><g id="node_text38" fill="black"><text id="kity_text_187" text-rendering="inherit" font-size="12" dy=".8em" y="1372.700037937363" x="488.50001822412014">高精度运算</text></g></g><g id="minder_node41"><g id="node_expander39" style="cursor: pointer;" display="none"><path id="kity_path_355" fill="white" stroke="gray" d="M393.5000152140856,1432.5000394135714A6,6,0,1,1,381.5000152140856,1432.5000394135714A6,6,0,1,1,393.5000152140856,1432.5000394135714"></path><path id="kity_path_356" fill="none" stroke="gray"></path></g><path id="node_outline40" fill="none" stroke="none" d="M398.50001569092274,1421.5000394135714h70a5,5,0,0,1,5,5v12a5,5,0,0,1,-5,5h-70a5,5,0,0,1,-5,-5v-12a5,5,0,0,1,5,-5z"></path><g id="node_text40" fill="black"><text id="kity_text_191" text-rendering="inherit" font-size="12" dy=".8em" y="1424.7000394870838" x="403.50001569092274">日期和时间</text></g></g><g id="minder_node42"><g id="node_expander40" style="cursor: pointer;" display="none"><path id="kity_path_358" fill="white" stroke="gray" d="M393.5000152140856,1484.5000409632921A6,6,0,1,1,381.5000152140856,1484.5000409632921A6,6,0,1,1,393.5000152140856,1484.5000409632921"></path><path id="kity_path_359" fill="none" stroke="gray"></path></g><path id="node_outline41" fill="none" stroke="none" d="M398.50001569092274,1473.5000409632921h35a5,5,0,0,1,5,5v12a5,5,0,0,1,-5,5h-35a5,5,0,0,1,-5,-5v-12a5,5,0,0,1,5,-5z"></path><g id="node_text41" fill="black"><text id="kity_text_193" text-rendering="inherit" font-size="12" dy=".8em" y="1476.7000410368046" x="403.50001569092274">文件</text></g></g><g id="minder_node43"><g id="node_expander41" style="cursor: pointer;" display="none"><path id="kity_path_361" fill="white" stroke="gray" d="M393.5000152140856,1536.5000425130129A6,6,0,1,1,381.5000152140856,1536.5000425130129A6,6,0,1,1,393.5000152140856,1536.5000425130129"></path><path id="kity_path_362" fill="none" stroke="gray"></path></g><path id="node_outline42" fill="none" stroke="none" d="M398.50001569092274,1525.5000425130129h35a5,5,0,0,1,5,5v12a5,5,0,0,1,-5,5h-35a5,5,0,0,1,-5,-5v-12a5,5,0,0,1,5,-5z"></path><g id="node_text42" fill="black"><text id="kity_text_195" text-rendering="inherit" font-size="12" dy=".8em" y="1528.7000425865253" x="403.50001569092274">网络</text></g></g><g id="minder_node44" opacity="1"><g id="node_expander43" style="cursor: pointer;"><path id="kity_path_372" fill="white" stroke="gray" d="M393.5000152140856,30.49999763071537A6,6,0,1,1,381.5000152140856,30.49999763071537A6,6,0,1,1,393.5000152140856,30.49999763071537"></path><path id="kity_path_373" fill="none" stroke="gray" d="M383.0000152140856,30.49999763071537L392.0000152140856,30.49999763071537"></path></g><path id="node_outline44" fill="none" stroke="none" d="M398.50001569092274,19.49999763071537h59a5,5,0,0,1,5,5v12a5,5,0,0,1,-5,5h-59a5,5,0,0,1,-5,-5v-12a5,5,0,0,1,5,-5z" stroke-width="3"></path><g id="node_text44" fill="black"><text id="kity_text_369" text-rendering="inherit" font-size="12" dy=".8em" y="22.69999770422777" x="403.50001569092274">通用模式</text></g></g><g id="kity_g_12" display="none"><path id="kity_path_13" fill="none" stroke="rgb(66, 94, 112)" d="M398.500004991889,19.500019297003746h83a5,5,0,0,1,5,5v12a5,5,0,0,1,-5,5h-83a5,5,0,0,1,-5,-5v-12a5,5,0,0,1,5,-5z" stroke-width="5"></path></g><g id="minder_node4"><g id="node_expander1" style="cursor: pointer;" display="none"><path id="kity_path_241" fill="white" stroke="gray" d="M611.5000217109919,30.49999763071537A6,6,0,1,1,599.5000217109919,30.49999763071537A6,6,0,1,1,611.5000217109919,30.49999763071537"></path><path id="kity_path_242" fill="none" stroke="gray"></path></g><path id="node_outline2" fill="none" stroke="none" d="M616.500022187829,19.49999763071537h83a5,5,0,0,1,5,5v12a5,5,0,0,1,-5,5h-83a5,5,0,0,1,-5,-5v-12a5,5,0,0,1,5,-5z" stroke-width="3"></path><g id="node_text2" fill="black"><text id="kity_text_115" text-rendering="inherit" font-size="12" dy=".8em" y="22.69999770422777" x="621.500022187829">开放闭合原则</text></g></g><g id="minder_node3" opacity="1"><g id="node_expander2" style="cursor: pointer;"><path id="kity_path_244" fill="white" stroke="gray" d="M502.5000184625387,30.49999763071537A6,6,0,1,1,490.5000184625387,30.49999763071537A6,6,0,1,1,502.5000184625387,30.49999763071537"></path><path id="kity_path_245" fill="none" stroke="gray" d="M492.0000184625387,30.49999763071537L501.0000184625387,30.49999763071537"></path></g><path id="node_outline3" fill="none" stroke="none" d="M507.5000189393759,19.49999763071537h59a5,5,0,0,1,5,5v12a5,5,0,0,1,-5,5h-59a5,5,0,0,1,-5,-5v-12a5,5,0,0,1,5,-5z" stroke-width="3"></path><g id="node_text3" fill="black"><text id="kity_text_117" text-rendering="inherit" font-size="12" dy=".8em" y="22.69999770422777" x="512.5000189393759">编程原则</text></g></g></g></g></svg>