<svg id="kity_svg_6" xmlns="http://www.w3.org/2000/svg" xmlns:xlink="http://www.w3.org/1999/xlink" version="1.1" width="881" height="2040" style="background: rgb(251, 251, 251); visibility: visible;" viewBox="0 0 881 2040"><defs id="kity_defs_7"><linearGradient id="kity_linearGradient_17" x1="0" y1="0" x2="0" y2="1"><stop id="kity_stop_18" offset="0" stop-color="rgb(255, 255, 255)"></stop><stop id="kity_stop_19" offset="1" stop-color="rgb(204, 204, 204)"></stop></linearGradient><marker id="kity_marker_2" orient="auto" refX="6" refY="0" viewBox="-7 -7 14 14" markerWidth="7" markerHeight="7" markerUnits="userSpaceOnUse"><path id="kity_path_3" fill="rgb(115, 161, 191)" stroke="none" d="M6,0A6,6,0,1,1,-6,0A6,6,0,1,1,6,0"></path></marker></defs><g id="kity_g_8"><g id="minder1" text-rendering="optimize-speed"><g id="minder_connect_group1"><path id="kity_path_31" fill="none" stroke="rgb(115, 161, 191)" stroke-width="1" d="M73,1073.5A170.5,907,0,0,1,243.5,166.5"></path><path id="kity_path_33" fill="none" stroke="rgb(115, 161, 191)" stroke-width="1" d="M315.5,166.5C335.5,166.5,335.5,31.5,355.5,31.5"></path><path id="kity_path_35" fill="none" stroke="rgb(115, 161, 191)" stroke-width="1" d="M315.5,166.5C335.5,166.5,335.5,86,355.5,86"></path><path id="kity_path_37" fill="none" stroke="rgb(115, 161, 191)" stroke-width="1" d="M315.5,166.5C335.5,166.5,335.5,143,355.5,143"></path><path id="kity_path_39" fill="none" stroke="rgb(115, 161, 191)" stroke-width="1" d="M315.5,166.5C335.5,166.5,335.5,197.5,355.5,197.5"></path><path id="kity_path_41" fill="none" stroke="rgb(115, 161, 191)" stroke-width="1" d="M315.5,166.5C335.5,166.5,335.5,249.5,355.5,249.5"></path><path id="kity_path_43" fill="none" stroke="rgb(115, 161, 191)" stroke-width="1" d="M315.5,166.5C335.5,166.5,335.5,301.5,355.5,301.5"></path><path id="kity_path_45" fill="none" stroke="rgb(115, 161, 191)" stroke-width="1" d="M73,1073.5A170.5,707,0,0,1,243.5,366.5"></path><path id="kity_path_47" fill="none" stroke="rgb(115, 161, 191)" stroke-width="1" d="M314.5,366.5C334.5,366.5,334.5,367,354.5,367"></path><path id="kity_path_49" fill="none" stroke="rgb(115, 161, 191)" stroke-width="1" d="M73,1073.5A170.5,219.5,0,0,1,243.5,854"></path><path id="kity_path_51" fill="none" stroke="rgb(115, 161, 191)" stroke-width="1" d="M336.5,854.5C356.5,854,356.5,433,376.5,433"></path><path id="kity_path_53" fill="none" stroke="rgb(115, 161, 191)" stroke-width="1" d="M463.5,433.5C483.5,433,483.5,433.5,503.5,433.5"></path><path id="kity_path_55" fill="none" stroke="rgb(115, 161, 191)" stroke-width="1" d="M336.5,854.5C356.5,854,356.5,487.5,376.5,487.5"></path><path id="kity_path_57" fill="none" stroke="rgb(115, 161, 191)" stroke-width="1" d="M336.5,854.5C356.5,854,356.5,542,376.5,542"></path><path id="kity_path_59" fill="none" stroke="rgb(115, 161, 191)" stroke-width="1" d="M336.5,854.5C356.5,854,356.5,596.5,376.5,596.5"></path><path id="kity_path_61" fill="none" stroke="rgb(115, 161, 191)" stroke-width="1" d="M576.5,596.5C596.5,596.5,596.5,596.5,616.5,596.5"></path><path id="kity_path_63" fill="none" stroke="rgb(115, 161, 191)" stroke-width="1" d="M336.5,854.5C356.5,854,356.5,648.5,376.5,648.5"></path><path id="kity_path_65" fill="none" stroke="rgb(115, 161, 191)" stroke-width="1" d="M446.5,648.5C466.5,648.5,466.5,648.5,486.5,648.5"></path><path id="kity_path_67" fill="none" stroke="rgb(115, 161, 191)" stroke-width="1" d="M336.5,854.5C356.5,854,356.5,753,376.5,753"></path><path id="kity_path_69" fill="none" stroke="rgb(115, 161, 191)" stroke-width="1" d="M516.5,753.5C536.5,753,536.5,701.5,556.5,701.5"></path><path id="kity_path_71" fill="none" stroke="rgb(115, 161, 191)" stroke-width="1" d="M516.5,753.5C536.5,753,536.5,753.5,556.5,753.5"></path><path id="kity_path_73" fill="none" stroke="rgb(115, 161, 191)" stroke-width="1" d="M516.5,753.5C536.5,753,536.5,805.5,556.5,805.5"></path><path id="kity_path_75" fill="none" stroke="rgb(115, 161, 191)" stroke-width="1" d="M336.5,854.5C356.5,854,356.5,934.5,376.5,934.5"></path><path id="kity_path_77" fill="none" stroke="rgb(115, 161, 191)" stroke-width="1" d="M626.5,934.5C646.5,934.5,646.5,856.5,666.5,856.5"></path><path id="kity_path_79" fill="none" stroke="rgb(115, 161, 191)" stroke-width="1" d="M626.5,934.5C646.5,934.5,646.5,908.5,666.5,908.5"></path><path id="kity_path_81" fill="none" stroke="rgb(115, 161, 191)" stroke-width="1" d="M626.5,934.5C646.5,934.5,646.5,960.5,666.5,960.5"></path><path id="kity_path_83" fill="none" stroke="rgb(115, 161, 191)" stroke-width="1" d="M626.5,934.5C646.5,934.5,646.5,1012.5,666.5,1012.5"></path><path id="kity_path_85" fill="none" stroke="rgb(115, 161, 191)" stroke-width="1" d="M336.5,854.5C356.5,854,356.5,1064.5,376.5,1064.5"></path><path id="kity_path_87" fill="none" stroke="rgb(115, 161, 191)" stroke-width="1" d="M448.5,1064.5C468.5,1064.5,468.5,1064.5,488.5,1064.5"></path><path id="kity_path_89" fill="none" stroke="rgb(115, 161, 191)" stroke-width="1" d="M336.5,854.5C356.5,854,356.5,1142.5,376.5,1142.5"></path><path id="kity_path_91" fill="none" stroke="rgb(115, 161, 191)" stroke-width="1" d="M438.5,1142.5C458.5,1142.5,458.5,1116.5,478.5,1116.5"></path><path id="kity_path_93" fill="none" stroke="rgb(115, 161, 191)" stroke-width="1" d="M438.5,1142.5C458.5,1142.5,458.5,1168.5,478.5,1168.5"></path><path id="kity_path_95" fill="none" stroke="rgb(115, 161, 191)" stroke-width="1" d="M336.5,854.5C356.5,854,356.5,1223,376.5,1223"></path><path id="kity_path_97" fill="none" stroke="rgb(115, 161, 191)" stroke-width="1" d="M336.5,854.5C356.5,854,356.5,1277.5,376.5,1277.5"></path><path id="kity_path_99" fill="none" stroke="rgb(115, 161, 191)" stroke-width="1" d="M421.5,1277.5C441.5,1277.5,441.5,1277.5,461.5,1277.5"></path><path id="kity_path_101" fill="none" stroke="rgb(115, 161, 191)" stroke-width="1" d="M73,1073.5A170.5,411,0,0,0,243.5,1484.5"></path><path id="kity_path_103" fill="none" stroke="rgb(115, 161, 191)" stroke-width="1" d="M314.5,1484.5C334.5,1484.5,334.5,1392.5,354.5,1392.5"></path><path id="kity_path_105" fill="none" stroke="rgb(115, 161, 191)" stroke-width="1" d="M488.5,1392.5C508.5,1392.5,508.5,1340.5,528.5,1340.5"></path><path id="kity_path_107" fill="none" stroke="rgb(115, 161, 191)" stroke-width="1" d="M488.5,1392.5C508.5,1392.5,508.5,1392.5,528.5,1392.5"></path><path id="kity_path_109" fill="none" stroke="rgb(115, 161, 191)" stroke-width="1" d="M488.5,1392.5C508.5,1392.5,508.5,1444.5,528.5,1444.5"></path><path id="kity_path_111" fill="none" stroke="rgb(115, 161, 191)" stroke-width="1" d="M664.5,1444.5C684.5,1444.5,684.5,1444.5,704.5,1444.5"></path><path id="kity_path_113" fill="none" stroke="rgb(115, 161, 191)" stroke-width="1" d="M314.5,1484.5C334.5,1484.5,334.5,1496.5,354.5,1496.5"></path><path id="kity_path_115" fill="none" stroke="rgb(115, 161, 191)" stroke-width="1" d="M608.5,1496.5C628.5,1496.5,628.5,1496.5,648.5,1496.5"></path><path id="kity_path_117" fill="none" stroke="rgb(115, 161, 191)" stroke-width="1" d="M314.5,1484.5C334.5,1484.5,334.5,1576.5,354.5,1576.5"></path><path id="kity_path_119" fill="none" stroke="rgb(115, 161, 191)" stroke-width="1" d="M400.5,1576.5C420.5,1576.5,420.5,1551,440.5,1551"></path><path id="kity_path_121" fill="none" stroke="rgb(115, 161, 191)" stroke-width="1" d="M400.5,1576.5C420.5,1576.5,420.5,1605.5,440.5,1605.5"></path><path id="kity_path_123" fill="none" stroke="rgb(115, 161, 191)" stroke-width="1" d="M73,1073.5A170.5,705,0,0,0,243.5,1778.5"></path><path id="kity_path_125" fill="none" stroke="rgb(115, 161, 191)" stroke-width="1" d="M315.5,1778.5C335.5,1778.5,335.5,1778.5,355.5,1778.5"></path><path id="kity_path_127" fill="none" stroke="rgb(115, 161, 191)" stroke-width="1" d="M420.5,1778.5C440.5,1778.5,440.5,1667.5,460.5,1667.5"></path><path id="kity_path_129" fill="none" stroke="rgb(115, 161, 191)" stroke-width="1" d="M420.5,1778.5C440.5,1778.5,440.5,1719.5,460.5,1719.5"></path><path id="kity_path_131" fill="none" stroke="rgb(115, 161, 191)" stroke-width="1" d="M420.5,1778.5C440.5,1778.5,440.5,1774,460.5,1774"></path><path id="kity_path_133" fill="none" stroke="rgb(115, 161, 191)" stroke-width="1" d="M420.5,1778.5C440.5,1778.5,440.5,1831,460.5,1831"></path><path id="kity_path_135" fill="none" stroke="rgb(115, 161, 191)" stroke-width="1" d="M420.5,1778.5C440.5,1778.5,440.5,1888,460.5,1888"></path><path id="kity_path_137" fill="none" stroke="rgb(115, 161, 191)" stroke-width="1" d="M73,1073.5A170.5,907,0,0,0,243.5,1980.5"></path><path id="kity_path_139" fill="none" stroke="rgb(115, 161, 191)" stroke-width="1" d="M343.5,1980.5C363.5,1980.5,363.5,1952.5,383.5,1952.5"></path><path id="kity_path_141" fill="none" stroke="rgb(115, 161, 191)" stroke-width="1" d="M343.5,1980.5C363.5,1980.5,363.5,2007,383.5,2007"></path></g><g id="minder_node1"><path id="node_outline1" fill="rgb(115, 161, 191)" stroke="rgb(57, 80, 96)" d="M25.5,1053.5h95a5,5,0,0,1,5,5v30a5,5,0,0,1,-5,5h-95a5,5,0,0,1,-5,-5v-30a5,5,0,0,1,5,-5z" stroke-width="3"></path><g id="node_text1" fill="white"><text id="kity_text_22" text-rendering="inherit" font-size="16" dy=".8em" y="1063.0999999046326" x="44.5">Numpy</text></g></g><g id="kity_g_12"><path id="kity_path_13" fill="none" stroke="none" d="M44.5,1073.5h0v0h0z"></path></g><g id="kity_g_14"><path id="kity_path_15" fill="none" stroke="none" d="M44.5,1073.5h0v0h0z"></path><path id="kity_path_16" fill="none" stroke="none"></path></g><g id="minder_node2"><g id="node_expander7" style="cursor: pointer;"><path id="kity_path_368" fill="white" stroke="gray" d="M244.5,166.5A6,6,0,1,1,232.5,166.5A6,6,0,1,1,244.5,166.5"></path><path id="kity_path_369" fill="none" stroke="gray" d="M234,166.5L243,166.5"></path></g><path id="node_outline8" fill="rgb(238, 243, 246)" stroke="rgb(115, 161, 191)" d="M248.5,153.5h64a3,3,0,0,1,3,3v20a3,3,0,0,1,-3,3h-64a3,3,0,0,1,-3,-3v-20a3,3,0,0,1,3,-3z" stroke-width="1"></path><g id="node_text8" fill="black"><text id="kity_text_155" text-rendering="inherit" font-size="14" dy=".8em" y="157.40000009536743" x="265.5">创建</text></g></g><g id="minder_node3"><g id="node_expander1" display="none" style="cursor: pointer;"><path id="kity_path_350" fill="white" stroke="gray" d="M355.5,31.5A6,6,0,1,1,343.5,31.5A6,6,0,1,1,355.5,31.5"></path><path id="kity_path_351" fill="none" stroke="gray"></path></g><path id="node_outline2" fill="none" stroke="none" d="M360.5,20.5h55a5,5,0,0,1,5,5v12a5,5,0,0,1,-5,5h-55a5,5,0,0,1,-5,-5v-12a5,5,0,0,1,5,-5z"></path><g id="node_text2" fill="black"><text id="kity_text_143" text-rendering="inherit" font-size="12" dy=".8em" y="23.700000047683716" x="365.5">arrange</text></g></g><g id="minder_node4"><g id="node_expander2" display="none" style="cursor: pointer;"><path id="kity_path_353" fill="white" stroke="gray" d="M355.5,86A6,6,0,1,1,343.5,86A6,6,0,1,1,355.5,86"></path><path id="kity_path_354" fill="none" stroke="gray"></path></g><path id="node_outline3" fill="none" stroke="none" d="M360.5,72.5h178a5,5,0,0,1,5,5v17a5,5,0,0,1,-5,5h-178a5,5,0,0,1,-5,-5v-17a5,5,0,0,1,5,-5z"></path><g id="node_text3" fill="black"><text id="kity_text_145" text-rendering="inherit" font-size="12" dy=".8em" y="77.70000004768372" x="365.5">linespace(from, to, count)</text></g><g id="kity_g_254" style="cursor: pointer;"><path id="kity_path_255" fill="none" stroke="none" d="M520,77h12a2,2,0,0,1,2,2v13a2,2,0,0,1,-2,2h-12a2,2,0,0,1,-2,-2v-13a2,2,0,0,1,2,-2z"></path><path id="kity_path_256" fill="black" stroke="none" d="M529,88H523V87h6L529,88L529,88zM529,86H523V85h6V86zM529,84H523V83h6V84zM528.5,90H522V81h8v7.5M529,91l2,-2V80H521v11"></path></g></g><g id="minder_node5"><g id="node_expander3" display="none" style="cursor: pointer;"><path id="kity_path_356" fill="white" stroke="gray" d="M355.5,143A6,6,0,1,1,343.5,143A6,6,0,1,1,355.5,143"></path><path id="kity_path_357" fill="none" stroke="gray"></path></g><path id="node_outline4" fill="none" stroke="none" d="M360.5,129.5h60a5,5,0,0,1,5,5v17a5,5,0,0,1,-5,5h-60a5,5,0,0,1,-5,-5v-17a5,5,0,0,1,5,-5z"></path><g id="node_text4" fill="black"><text id="kity_text_147" text-rendering="inherit" font-size="12" dy=".8em" y="134.70000004768372" x="365.5">array</text></g><g id="kity_g_257" style="cursor: pointer;"><path id="kity_path_258" fill="none" stroke="none" d="M402,134h12a2,2,0,0,1,2,2v13a2,2,0,0,1,-2,2h-12a2,2,0,0,1,-2,-2v-13a2,2,0,0,1,2,-2z"></path><path id="kity_path_259" fill="black" stroke="none" d="M411,145H405V144h6L411,145L411,145zM411,143H405V142h6V143zM411,141H405V140h6V141zM410.5,147H404V138h8v7.5M411,148l2,-2V137H403v11"></path></g></g><g id="minder_node6"><g id="node_expander4" display="none" style="cursor: pointer;"><path id="kity_path_359" fill="white" stroke="gray" d="M355.5,197.5A6,6,0,1,1,343.5,197.5A6,6,0,1,1,355.5,197.5"></path><path id="kity_path_360" fill="none" stroke="gray"></path></g><path id="node_outline5" fill="none" stroke="none" d="M360.5,186.5h82a5,5,0,0,1,5,5v12a5,5,0,0,1,-5,5h-82a5,5,0,0,1,-5,-5v-12a5,5,0,0,1,5,-5z"></path><g id="node_text5" fill="black"><text id="kity_text_149" text-rendering="inherit" font-size="12" dy=".8em" y="189.70000004768372" x="365.5">zeros / ones</text></g></g><g id="minder_node7"><g id="node_expander5" display="none" style="cursor: pointer;"><path id="kity_path_362" fill="white" stroke="gray" d="M355.5,249.5A6,6,0,1,1,343.5,249.5A6,6,0,1,1,355.5,249.5"></path><path id="kity_path_363" fill="none" stroke="gray"></path></g><path id="node_outline6" fill="none" stroke="none" d="M360.5,238.5h131a5,5,0,0,1,5,5v12a5,5,0,0,1,-5,5h-131a5,5,0,0,1,-5,-5v-12a5,5,0,0,1,5,-5z"></path><g id="node_text6" fill="black"><text id="kity_text_151" text-rendering="inherit" font-size="12" dy=".8em" y="241.70000004768372" x="365.5">zeros_like / ones_like</text></g></g><g id="minder_node8"><g id="node_expander6" display="none" style="cursor: pointer;"><path id="kity_path_365" fill="white" stroke="gray" d="M355.5,301.5A6,6,0,1,1,343.5,301.5A6,6,0,1,1,355.5,301.5"></path><path id="kity_path_366" fill="none" stroke="gray"></path></g><path id="node_outline7" fill="none" stroke="none" d="M360.5,290.5h85a5,5,0,0,1,5,5v12a5,5,0,0,1,-5,5h-85a5,5,0,0,1,-5,-5v-12a5,5,0,0,1,5,-5z"></path><g id="node_text7" fill="black"><text id="kity_text_153" text-rendering="inherit" font-size="12" dy=".8em" y="293.7000000476837" x="365.5">fromfunction</text></g></g><g id="minder_node9"><g id="node_expander9" style="cursor: pointer;"><path id="kity_path_374" fill="white" stroke="gray" d="M244.5,366.5A6,6,0,1,1,232.5,366.5A6,6,0,1,1,244.5,366.5"></path><path id="kity_path_375" fill="none" stroke="gray" d="M234,366.5L243,366.5"></path></g><path id="node_outline10" fill="rgb(238, 243, 246)" stroke="rgb(115, 161, 191)" d="M248.5,353.5h63a3,3,0,0,1,3,3v20a3,3,0,0,1,-3,3h-63a3,3,0,0,1,-3,-3v-20a3,3,0,0,1,3,-3z" stroke-width="1"></path><g id="node_text10" fill="black"><text id="kity_text_159" text-rendering="inherit" font-size="14" dy=".8em" y="357.40000009536743" x="265.5">打印</text></g></g><g id="minder_node10"><g id="node_expander8" display="none" style="cursor: pointer;"><path id="kity_path_371" fill="white" stroke="gray" d="M354.5,367A6,6,0,1,1,342.5,367A6,6,0,1,1,354.5,367"></path><path id="kity_path_372" fill="none" stroke="gray"></path></g><path id="node_outline9" fill="none" stroke="none" d="M359.5,353.5h283a5,5,0,0,1,5,5v17a5,5,0,0,1,-5,5h-283a5,5,0,0,1,-5,-5v-17a5,5,0,0,1,5,-5z"></path><g id="node_text9" fill="black"><text id="kity_text_157" text-rendering="inherit" font-size="12" dy=".8em" y="358.7000000476837" x="364.5">np.set_printoptions(threshold=sys.maxisize)</text></g><g id="kity_g_260" style="cursor: pointer;"><path id="kity_path_261" fill="none" stroke="none" d="M624,358h12a2,2,0,0,1,2,2v13a2,2,0,0,1,-2,2h-12a2,2,0,0,1,-2,-2v-13a2,2,0,0,1,2,-2z"></path><path id="kity_path_262" fill="black" stroke="none" d="M633,369H627V368h6L633,369L633,369zM633,367H627V366h6V367zM633,365H627V364h6V365zM632.5,371H626V362h8v7.5M633,372l2,-2V361H625v11"></path></g></g><g id="minder_node11"><g id="node_expander35" style="cursor: pointer;"><path id="kity_path_452" fill="white" stroke="gray" d="M244.5,854A6,6,0,1,1,232.5,854A6,6,0,1,1,244.5,854"></path><path id="kity_path_453" fill="none" stroke="gray" d="M234,854L243,854"></path></g><path id="node_outline36" fill="rgb(238, 243, 246)" stroke="rgb(115, 161, 191)" d="M248.5,839.5h85a3,3,0,0,1,3,3v23a3,3,0,0,1,-3,3h-85a3,3,0,0,1,-3,-3v-23a3,3,0,0,1,3,-3z" stroke-width="1"></path><g id="node_text36" fill="black"><text id="kity_text_211" text-rendering="inherit" font-size="14" dy=".8em" y="844.4000000953674" x="265.5">修改</text></g><g id="kity_g_275" style="cursor: pointer;"><path id="kity_path_276" fill="none" stroke="none" d="M303,845h12a2,2,0,0,1,2,2v13a2,2,0,0,1,-2,2h-12a2,2,0,0,1,-2,-2v-13a2,2,0,0,1,2,-2z"></path><path id="kity_path_277" fill="black" stroke="none" d="M312,856H306V855h6L312,856L312,856zM312,854H306V853h6V854zM312,852H306V851h6V852zM311.5,858H305V849h8v7.5M312,859l2,-2V848H304v11"></path></g></g><g id="minder_node12"><g id="node_expander11" style="cursor: pointer;"><path id="kity_path_380" fill="white" stroke="gray" d="M376.5,433A6,6,0,1,1,364.5,433A6,6,0,1,1,376.5,433"></path><path id="kity_path_381" fill="none" stroke="gray" d="M366,433L375,433"></path></g><path id="node_outline12" fill="none" stroke="none" d="M381.5,419.5h77a5,5,0,0,1,5,5v17a5,5,0,0,1,-5,5h-77a5,5,0,0,1,-5,-5v-17a5,5,0,0,1,5,-5z"></path><g id="node_text12" fill="black"><text id="kity_text_163" text-rendering="inherit" font-size="12" dy=".8em" y="424.7000000476837" x="386.5">reshape</text></g><g id="kity_g_263" style="cursor: pointer;"><path id="kity_path_264" fill="none" stroke="none" d="M440,424h12a2,2,0,0,1,2,2v13a2,2,0,0,1,-2,2h-12a2,2,0,0,1,-2,-2v-13a2,2,0,0,1,2,-2z"></path><path id="kity_path_265" fill="black" stroke="none" d="M449,435H443V434h6L449,435L449,435zM449,433H443V432h6V433zM449,431H443V430h6V431zM448.5,437H442V428h8v7.5M449,438l2,-2V427H441v11"></path></g></g><g id="minder_node13"><g id="node_expander10" display="none" style="cursor: pointer;"><path id="kity_path_377" fill="white" stroke="gray" d="M503.5,433.5A6,6,0,1,1,491.5,433.5A6,6,0,1,1,503.5,433.5"></path><path id="kity_path_378" fill="none" stroke="gray"></path></g><path id="node_outline11" fill="none" stroke="none" d="M508.5,422.5h132a5,5,0,0,1,5,5v12a5,5,0,0,1,-5,5h-132a5,5,0,0,1,-5,-5v-12a5,5,0,0,1,5,-5z"></path><g id="node_text11" fill="black"><text id="kity_text_161" text-rendering="inherit" font-size="12" dy=".8em" y="425.7000000476837" x="513.5">resize 就地改变 shape</text></g></g><g id="minder_node14"><g id="node_expander12" display="none" style="cursor: pointer;"><path id="kity_path_383" fill="white" stroke="gray" d="M376.5,487.5A6,6,0,1,1,364.5,487.5A6,6,0,1,1,376.5,487.5"></path><path id="kity_path_384" fill="none" stroke="gray"></path></g><path id="node_outline13" fill="none" stroke="none" d="M381.5,476.5h64a5,5,0,0,1,5,5v12a5,5,0,0,1,-5,5h-64a5,5,0,0,1,-5,-5v-12a5,5,0,0,1,5,-5z"></path><g id="node_text13" fill="black"><text id="kity_text_165" text-rendering="inherit" font-size="12" dy=".8em" y="479.7000000476837" x="386.5">arr.T 转置</text></g></g><g id="minder_node15"><g id="node_expander13" display="none" style="cursor: pointer;"><path id="kity_path_386" fill="white" stroke="gray" d="M376.5,542A6,6,0,1,1,364.5,542A6,6,0,1,1,376.5,542"></path><path id="kity_path_387" fill="none" stroke="gray"></path></g><path id="node_outline14" fill="none" stroke="none" d="M381.5,528.5h137a5,5,0,0,1,5,5v17a5,5,0,0,1,-5,5h-137a5,5,0,0,1,-5,-5v-17a5,5,0,0,1,5,-5z"></path><g id="node_text14" fill="black"><text id="kity_text_167" text-rendering="inherit" font-size="12" dy=".8em" y="533.7000000476837" x="386.5">arr.ravel 展开为1维</text></g><g id="kity_g_266" style="cursor: pointer;"><path id="kity_path_267" fill="none" stroke="none" d="M500,533h12a2,2,0,0,1,2,2v13a2,2,0,0,1,-2,2h-12a2,2,0,0,1,-2,-2v-13a2,2,0,0,1,2,-2z"></path><path id="kity_path_268" fill="black" stroke="none" d="M509,544H503V543h6L509,544L509,544zM509,542H503V541h6V542zM509,540H503V539h6V540zM508.5,546H502V537h8v7.5M509,547l2,-2V536H501v11"></path></g></g><g id="minder_node16"><g id="node_expander15" style="cursor: pointer;"><path id="kity_path_392" fill="white" stroke="gray" d="M376.5,596.5A6,6,0,1,1,364.5,596.5A6,6,0,1,1,376.5,596.5"></path><path id="kity_path_393" fill="none" stroke="gray" d="M366,596.5L375,596.5"></path></g><path id="node_outline16" fill="none" stroke="none" d="M381.5,585.5h190a5,5,0,0,1,5,5v12a5,5,0,0,1,-5,5h-190a5,5,0,0,1,-5,-5v-12a5,5,0,0,1,5,-5z"></path><g id="node_text16" fill="black"><text id="kity_text_171" text-rendering="inherit" font-size="12" dy=".8em" y="588.7000000476837" x="386.5">ndarray 间的 element-wise 操作</text></g></g><g id="minder_node17"><g id="node_expander14" display="none" style="cursor: pointer;"><path id="kity_path_389" fill="white" stroke="gray" d="M616.5,596.5A6,6,0,1,1,604.5,596.5A6,6,0,1,1,616.5,596.5"></path><path id="kity_path_390" fill="none" stroke="gray"></path></g><path id="node_outline15" fill="none" stroke="none" d="M621.5,585.5h46a5,5,0,0,1,5,5v12a5,5,0,0,1,-5,5h-46a5,5,0,0,1,-5,-5v-12a5,5,0,0,1,5,-5z"></path><g id="node_text15" fill="black"><text id="kity_text_169" text-rendering="inherit" font-size="12" dy=".8em" y="588.7000000476837" x="626.5">+ - * /</text></g></g><g id="minder_node18"><g id="node_expander17" style="cursor: pointer;"><path id="kity_path_398" fill="white" stroke="gray" d="M376.5,648.5A6,6,0,1,1,364.5,648.5A6,6,0,1,1,376.5,648.5"></path><path id="kity_path_399" fill="none" stroke="gray" d="M366,648.5L375,648.5"></path></g><path id="node_outline18" fill="none" stroke="none" d="M381.5,637.5h60a5,5,0,0,1,5,5v12a5,5,0,0,1,-5,5h-60a5,5,0,0,1,-5,-5v-12a5,5,0,0,1,5,-5z"></path><g id="node_text18" fill="black"><text id="kity_text_175" text-rendering="inherit" font-size="12" dy=".8em" y="640.7000000476837" x="386.5">矩阵乘法</text></g></g><g id="minder_node19"><g id="node_expander16" display="none" style="cursor: pointer;"><path id="kity_path_395" fill="white" stroke="gray" d="M486.5,648.5A6,6,0,1,1,474.5,648.5A6,6,0,1,1,486.5,648.5"></path><path id="kity_path_396" fill="none" stroke="gray"></path></g><path id="node_outline17" fill="none" stroke="none" d="M491.5,637.5h61a5,5,0,0,1,5,5v12a5,5,0,0,1,-5,5h-61a5,5,0,0,1,-5,-5v-12a5,5,0,0,1,5,-5z"></path><g id="node_text17" fill="black"><text id="kity_text_173" text-rendering="inherit" font-size="12" dy=".8em" y="640.7000000476837" x="496.5">dot 或 @</text></g></g><g id="minder_node20"><g id="node_expander21" style="cursor: pointer;"><path id="kity_path_410" fill="white" stroke="gray" d="M376.5,753A6,6,0,1,1,364.5,753A6,6,0,1,1,376.5,753"></path><path id="kity_path_411" fill="none" stroke="gray" d="M366,753L375,753"></path></g><path id="node_outline22" fill="none" stroke="none" d="M381.5,739.5h130a5,5,0,0,1,5,5v17a5,5,0,0,1,-5,5h-130a5,5,0,0,1,-5,-5v-17a5,5,0,0,1,5,-5z"></path><g id="node_text22" fill="black"><text id="kity_text_183" text-rendering="inherit" font-size="12" dy=".8em" y="744.7000000476837" x="386.5">aggregation 操作</text></g><g id="kity_g_269" style="cursor: pointer;"><path id="kity_path_270" fill="none" stroke="none" d="M493,744h12a2,2,0,0,1,2,2v13a2,2,0,0,1,-2,2h-12a2,2,0,0,1,-2,-2v-13a2,2,0,0,1,2,-2z"></path><path id="kity_path_271" fill="black" stroke="none" d="M502,755H496V754h6L502,755L502,755zM502,753H496V752h6V753zM502,751H496V750h6V751zM501.5,757H495V748h8v7.5M502,758l2,-2V747H494v11"></path></g></g><g id="minder_node21"><g id="node_expander18" display="none" style="cursor: pointer;"><path id="kity_path_401" fill="white" stroke="gray" d="M556.5,701.5A6,6,0,1,1,544.5,701.5A6,6,0,1,1,556.5,701.5"></path><path id="kity_path_402" fill="none" stroke="gray"></path></g><path id="node_outline19" fill="none" stroke="none" d="M561.5,690.5h34a5,5,0,0,1,5,5v12a5,5,0,0,1,-5,5h-34a5,5,0,0,1,-5,-5v-12a5,5,0,0,1,5,-5z"></path><g id="node_text19" fill="black"><text id="kity_text_177" text-rendering="inherit" font-size="12" dy=".8em" y="693.7000000476837" x="566.5">sum</text></g></g><g id="minder_node22"><g id="node_expander19" display="none" style="cursor: pointer;"><path id="kity_path_404" fill="white" stroke="gray" d="M556.5,753.5A6,6,0,1,1,544.5,753.5A6,6,0,1,1,556.5,753.5"></path><path id="kity_path_405" fill="none" stroke="gray"></path></g><path id="node_outline20" fill="none" stroke="none" d="M561.5,742.5h32a5,5,0,0,1,5,5v12a5,5,0,0,1,-5,5h-32a5,5,0,0,1,-5,-5v-12a5,5,0,0,1,5,-5z"></path><g id="node_text20" fill="black"><text id="kity_text_179" text-rendering="inherit" font-size="12" dy=".8em" y="745.7000000476837" x="566.5">min</text></g></g><g id="minder_node23"><g id="node_expander20" display="none" style="cursor: pointer;"><path id="kity_path_407" fill="white" stroke="gray" d="M556.5,805.5A6,6,0,1,1,544.5,805.5A6,6,0,1,1,556.5,805.5"></path><path id="kity_path_408" fill="none" stroke="gray"></path></g><path id="node_outline21" fill="none" stroke="none" d="M561.5,794.5h98a5,5,0,0,1,5,5v12a5,5,0,0,1,-5,5h-98a5,5,0,0,1,-5,-5v-12a5,5,0,0,1,5,-5z"></path><g id="node_text21" fill="black"><text id="kity_text_181" text-rendering="inherit" font-size="12" dy=".8em" y="797.7000000476837" x="566.5">cumsum 积累和</text></g></g><g id="minder_node24"><g id="node_expander26" style="cursor: pointer;"><path id="kity_path_425" fill="white" stroke="gray" d="M376.5,934.5A6,6,0,1,1,364.5,934.5A6,6,0,1,1,376.5,934.5"></path><path id="kity_path_426" fill="none" stroke="gray" d="M366,934.5L375,934.5"></path></g><path id="node_outline27" fill="none" stroke="none" d="M381.5,923.5h240a5,5,0,0,1,5,5v12a5,5,0,0,1,-5,5h-240a5,5,0,0,1,-5,-5v-12a5,5,0,0,1,5,-5z"></path><g id="node_text27" fill="black"><text id="kity_text_193" text-rendering="inherit" font-size="12" dy=".8em" y="926.7000000476837" x="386.5">Element-wise Universal Function `ufunc`</text></g></g><g id="minder_node25"><g id="node_expander22" display="none" style="cursor: pointer;"><path id="kity_path_413" fill="white" stroke="gray" d="M666.5,856.5A6,6,0,1,1,654.5,856.5A6,6,0,1,1,666.5,856.5"></path><path id="kity_path_414" fill="none" stroke="gray"></path></g><path id="node_outline23" fill="none" stroke="none" d="M671.5,845.5h104a5,5,0,0,1,5,5v12a5,5,0,0,1,-5,5h-104a5,5,0,0,1,-5,-5v-12a5,5,0,0,1,5,-5z"></path><g id="node_text23" fill="black"><text id="kity_text_185" text-rendering="inherit" font-size="12" dy=".8em" y="848.7000000476837" x="676.5">floor, ceil, round</text></g></g><g id="minder_node26"><g id="node_expander23" display="none" style="cursor: pointer;"><path id="kity_path_416" fill="white" stroke="gray" d="M666.5,908.5A6,6,0,1,1,654.5,908.5A6,6,0,1,1,666.5,908.5"></path><path id="kity_path_417" fill="none" stroke="gray"></path></g><path id="node_outline24" fill="none" stroke="none" d="M671.5,897.5h31a5,5,0,0,1,5,5v12a5,5,0,0,1,-5,5h-31a5,5,0,0,1,-5,-5v-12a5,5,0,0,1,5,-5z"></path><g id="node_text24" fill="black"><text id="kity_text_187" text-rendering="inherit" font-size="12" dy=".8em" y="900.7000000476837" x="676.5">exp</text></g></g><g id="minder_node27"><g id="node_expander24" display="none" style="cursor: pointer;"><path id="kity_path_419" fill="white" stroke="gray" d="M666.5,960.5A6,6,0,1,1,654.5,960.5A6,6,0,1,1,666.5,960.5"></path><path id="kity_path_420" fill="none" stroke="gray"></path></g><path id="node_outline25" fill="none" stroke="none" d="M671.5,949.5h33a5,5,0,0,1,5,5v12a5,5,0,0,1,-5,5h-33a5,5,0,0,1,-5,-5v-12a5,5,0,0,1,5,-5z"></path><g id="node_text25" fill="black"><text id="kity_text_189" text-rendering="inherit" font-size="12" dy=".8em" y="952.7000000476837" x="676.5">sqrt</text></g></g><g id="minder_node28"><g id="node_expander25" display="none" style="cursor: pointer;"><path id="kity_path_422" fill="white" stroke="gray" d="M666.5,1012.5A6,6,0,1,1,654.5,1012.5A6,6,0,1,1,666.5,1012.5"></path><path id="kity_path_423" fill="none" stroke="gray"></path></g><path id="node_outline26" fill="none" stroke="none" d="M671.5,1001.5h51a5,5,0,0,1,5,5v12a5,5,0,0,1,-5,5h-51a5,5,0,0,1,-5,-5v-12a5,5,0,0,1,5,-5z"></path><g id="node_text26" fill="black"><text id="kity_text_191" text-rendering="inherit" font-size="12" dy=".8em" y="1004.7000000476837" x="676.5">argmin</text></g></g><g id="minder_node29"><g id="node_expander28" style="cursor: pointer;"><path id="kity_path_431" fill="white" stroke="gray" d="M376.5,1064.5A6,6,0,1,1,364.5,1064.5A6,6,0,1,1,376.5,1064.5"></path><path id="kity_path_432" fill="none" stroke="gray" d="M366,1064.5L375,1064.5"></path></g><path id="node_outline29" fill="none" stroke="none" d="M381.5,1053.5h62a5,5,0,0,1,5,5v12a5,5,0,0,1,-5,5h-62a5,5,0,0,1,-5,-5v-12a5,5,0,0,1,5,-5z"></path><g id="node_text29" fill="black"><text id="kity_text_197" text-rendering="inherit" font-size="12" dy=".8em" y="1056.7000000476837" x="386.5">statcking</text></g></g><g id="minder_node30"><g id="node_expander27" display="none" style="cursor: pointer;"><path id="kity_path_428" fill="white" stroke="gray" d="M488.5,1064.5A6,6,0,1,1,476.5,1064.5A6,6,0,1,1,488.5,1064.5"></path><path id="kity_path_429" fill="none" stroke="gray"></path></g><path id="node_outline28" fill="none" stroke="none" d="M493.5,1053.5h96a5,5,0,0,1,5,5v12a5,5,0,0,1,-5,5h-96a5,5,0,0,1,-5,-5v-12a5,5,0,0,1,5,-5z"></path><g id="node_text28" fill="black"><text id="kity_text_195" text-rendering="inherit" font-size="12" dy=".8em" y="1056.7000000476837" x="498.5">vstack / hstack</text></g></g><g id="minder_node31"><g id="node_expander31" style="cursor: pointer;"><path id="kity_path_440" fill="white" stroke="gray" d="M376.5,1142.5A6,6,0,1,1,364.5,1142.5A6,6,0,1,1,376.5,1142.5"></path><path id="kity_path_441" fill="none" stroke="gray" d="M366,1142.5L375,1142.5"></path></g><path id="node_outline32" fill="none" stroke="none" d="M381.5,1131.5h52a5,5,0,0,1,5,5v12a5,5,0,0,1,-5,5h-52a5,5,0,0,1,-5,-5v-12a5,5,0,0,1,5,-5z"></path><g id="node_text32" fill="black"><text id="kity_text_203" text-rendering="inherit" font-size="12" dy=".8em" y="1134.7000000476837" x="386.5">spliting</text></g></g><g id="minder_node32"><g id="node_expander29" display="none" style="cursor: pointer;"><path id="kity_path_434" fill="white" stroke="gray" d="M478.5,1116.5A6,6,0,1,1,466.5,1116.5A6,6,0,1,1,478.5,1116.5"></path><path id="kity_path_435" fill="none" stroke="gray"></path></g><path id="node_outline30" fill="none" stroke="none" d="M483.5,1105.5h85a5,5,0,0,1,5,5v12a5,5,0,0,1,-5,5h-85a5,5,0,0,1,-5,-5v-12a5,5,0,0,1,5,-5z"></path><g id="node_text30" fill="black"><text id="kity_text_199" text-rendering="inherit" font-size="12" dy=".8em" y="1108.7000000476837" x="488.5">hsplit / vsplit</text></g></g><g id="minder_node33"><g id="node_expander30" display="none" style="cursor: pointer;"><path id="kity_path_437" fill="white" stroke="gray" d="M478.5,1168.5A6,6,0,1,1,466.5,1168.5A6,6,0,1,1,478.5,1168.5"></path><path id="kity_path_438" fill="none" stroke="gray"></path></g><path id="node_outline31" fill="none" stroke="none" d="M483.5,1157.5h69a5,5,0,0,1,5,5v12a5,5,0,0,1,-5,5h-69a5,5,0,0,1,-5,-5v-12a5,5,0,0,1,5,-5z"></path><g id="node_text31" fill="black"><text id="kity_text_201" text-rendering="inherit" font-size="12" dy=".8em" y="1160.7000000476837" x="488.5">array_split</text></g></g><g id="minder_node34"><g id="node_expander32" display="none" style="cursor: pointer;"><path id="kity_path_443" fill="white" stroke="gray" d="M376.5,1223A6,6,0,1,1,364.5,1223A6,6,0,1,1,376.5,1223"></path><path id="kity_path_444" fill="none" stroke="gray"></path></g><path id="node_outline33" fill="none" stroke="none" d="M381.5,1209.5h58a5,5,0,0,1,5,5v17a5,5,0,0,1,-5,5h-58a5,5,0,0,1,-5,-5v-17a5,5,0,0,1,5,-5z"></path><g id="node_text33" fill="black"><text id="kity_text_205" text-rendering="inherit" font-size="12" dy=".8em" y="1214.7000000476837" x="386.5">view</text></g><g id="kity_g_272" style="cursor: pointer;"><path id="kity_path_273" fill="none" stroke="none" d="M421,1214h12a2,2,0,0,1,2,2v13a2,2,0,0,1,-2,2h-12a2,2,0,0,1,-2,-2v-13a2,2,0,0,1,2,-2z"></path><path id="kity_path_274" fill="black" stroke="none" d="M430,1225H424V1224h6L430,1225L430,1225zM430,1223H424V1222h6V1223zM430,1221H424V1220h6V1221zM429.5,1227H423V1218h8v7.5M430,1228l2,-2V1217H422v11"></path></g></g><g id="minder_node35"><g id="node_expander34" style="cursor: pointer;"><path id="kity_path_449" fill="white" stroke="gray" d="M376.5,1277.5A6,6,0,1,1,364.5,1277.5A6,6,0,1,1,376.5,1277.5"></path><path id="kity_path_450" fill="none" stroke="gray" d="M366,1277.5L375,1277.5"></path></g><path id="node_outline35" fill="none" stroke="none" d="M381.5,1266.5h35a5,5,0,0,1,5,5v12a5,5,0,0,1,-5,5h-35a5,5,0,0,1,-5,-5v-12a5,5,0,0,1,5,-5z"></path><g id="node_text35" fill="black"><text id="kity_text_209" text-rendering="inherit" font-size="12" dy=".8em" y="1269.7000000476837" x="386.5">复制</text></g></g><g id="minder_node36"><g id="node_expander33" display="none" style="cursor: pointer;"><path id="kity_path_446" fill="white" stroke="gray" d="M461.5,1277.5A6,6,0,1,1,449.5,1277.5A6,6,0,1,1,461.5,1277.5"></path><path id="kity_path_447" fill="none" stroke="gray"></path></g><path id="node_outline34" fill="none" stroke="none" d="M466.5,1266.5h137a5,5,0,0,1,5,5v12a5,5,0,0,1,-5,5h-137a5,5,0,0,1,-5,-5v-12a5,5,0,0,1,5,-5z"></path><g id="node_text34" fill="black"><text id="kity_text_207" text-rendering="inherit" font-size="12" dy=".8em" y="1269.7000000476837" x="471.5">copy 递归调用的深复制</text></g></g><g id="minder_node37"><g id="node_expander46" style="cursor: pointer;"><path id="kity_path_485" fill="white" stroke="gray" d="M244.5,1484.5A6,6,0,1,1,232.5,1484.5A6,6,0,1,1,244.5,1484.5"></path><path id="kity_path_486" fill="none" stroke="gray" d="M234,1484.5L243,1484.5"></path></g><path id="node_outline47" fill="rgb(238, 243, 246)" stroke="rgb(115, 161, 191)" d="M248.5,1471.5h63a3,3,0,0,1,3,3v20a3,3,0,0,1,-3,3h-63a3,3,0,0,1,-3,-3v-20a3,3,0,0,1,3,-3z" stroke-width="1"></path><g id="node_text47" fill="black"><text id="kity_text_233" text-rendering="inherit" font-size="14" dy=".8em" y="1475.4000000953674" x="265.5">索引</text></g></g><g id="minder_node38"><g id="node_expander40" style="cursor: pointer;"><path id="kity_path_467" fill="white" stroke="gray" d="M354.5,1392.5A6,6,0,1,1,342.5,1392.5A6,6,0,1,1,354.5,1392.5"></path><path id="kity_path_468" fill="none" stroke="gray" d="M344,1392.5L353,1392.5"></path></g><path id="node_outline41" fill="none" stroke="none" d="M359.5,1381.5h124a5,5,0,0,1,5,5v12a5,5,0,0,1,-5,5h-124a5,5,0,0,1,-5,-5v-12a5,5,0,0,1,5,-5z"></path><g id="node_text41" fill="black"><text id="kity_text_221" text-rendering="inherit" font-size="12" dy=".8em" y="1384.7000000476837" x="364.5">一维索引 中括号语法</text></g></g><g id="minder_node39"><g id="node_expander36" display="none" style="cursor: pointer;"><path id="kity_path_455" fill="white" stroke="gray" d="M528.5,1340.5A6,6,0,1,1,516.5,1340.5A6,6,0,1,1,528.5,1340.5"></path><path id="kity_path_456" fill="none" stroke="gray"></path></g><path id="node_outline37" fill="none" stroke="none" d="M533.5,1329.5h51a5,5,0,0,1,5,5v12a5,5,0,0,1,-5,5h-51a5,5,0,0,1,-5,-5v-12a5,5,0,0,1,5,-5z"></path><g id="node_text37" fill="black"><text id="kity_text_213" text-rendering="inherit" font-size="12" dy=".8em" y="1332.7000000476837" x="538.5">arr[idx]</text></g></g><g id="minder_node40"><g id="node_expander37" display="none" style="cursor: pointer;"><path id="kity_path_458" fill="white" stroke="gray" d="M528.5,1392.5A6,6,0,1,1,516.5,1392.5A6,6,0,1,1,528.5,1392.5"></path><path id="kity_path_459" fill="none" stroke="gray"></path></g><path id="node_outline38" fill="none" stroke="none" d="M533.5,1381.5h167a5,5,0,0,1,5,5v12a5,5,0,0,1,-5,5h-167a5,5,0,0,1,-5,-5v-12a5,5,0,0,1,5,-5z"></path><g id="node_text38" fill="black"><text id="kity_text_215" text-rendering="inherit" font-size="12" dy=".8em" y="1384.7000000476837" x="538.5">arr[start : end] 左闭右开区间</text></g></g><g id="minder_node41"><g id="node_expander39" style="cursor: pointer;"><path id="kity_path_464" fill="white" stroke="gray" d="M528.5,1444.5A6,6,0,1,1,516.5,1444.5A6,6,0,1,1,528.5,1444.5"></path><path id="kity_path_465" fill="none" stroke="gray" d="M518,1444.5L527,1444.5"></path></g><path id="node_outline40" fill="none" stroke="none" d="M533.5,1433.5h126a5,5,0,0,1,5,5v12a5,5,0,0,1,-5,5h-126a5,5,0,0,1,-5,-5v-12a5,5,0,0,1,5,-5z"></path><g id="node_text40" fill="black"><text id="kity_text_219" text-rendering="inherit" font-size="12" dy=".8em" y="1436.7000000476837" x="538.5">arr[start : end : step]</text></g></g><g id="minder_node42"><g id="node_expander38" display="none" style="cursor: pointer;"><path id="kity_path_461" fill="white" stroke="gray" d="M704.5,1444.5A6,6,0,1,1,692.5,1444.5A6,6,0,1,1,704.5,1444.5"></path><path id="kity_path_462" fill="none" stroke="gray"></path></g><path id="node_outline39" fill="none" stroke="none" d="M709.5,1433.5h65a5,5,0,0,1,5,5v12a5,5,0,0,1,-5,5h-65a5,5,0,0,1,-5,-5v-12a5,5,0,0,1,5,-5z"></path><g id="node_text39" fill="black"><text id="kity_text_217" text-rendering="inherit" font-size="12" dy=".8em" y="1436.7000000476837" x="714.5">[::-1] 逆序</text></g></g><g id="minder_node43"><g id="node_expander42" style="cursor: pointer;"><path id="kity_path_473" fill="white" stroke="gray" d="M354.5,1496.5A6,6,0,1,1,342.5,1496.5A6,6,0,1,1,354.5,1496.5"></path><path id="kity_path_474" fill="none" stroke="gray" d="M344,1496.5L353,1496.5"></path></g><path id="node_outline43" fill="none" stroke="none" d="M359.5,1485.5h244a5,5,0,0,1,5,5v12a5,5,0,0,1,-5,5h-244a5,5,0,0,1,-5,-5v-12a5,5,0,0,1,5,-5z"></path><g id="node_text43" fill="black"><text id="kity_text_225" text-rendering="inherit" font-size="12" dy=".8em" y="1488.7000000476837" x="364.5">高维索引 在一维索引的基础上使用逗号隔开</text></g></g><g id="minder_node44"><g id="node_expander41" display="none" style="cursor: pointer;"><path id="kity_path_470" fill="white" stroke="gray" d="M648.5,1496.5A6,6,0,1,1,636.5,1496.5A6,6,0,1,1,648.5,1496.5"></path><path id="kity_path_471" fill="none" stroke="gray"></path></g><path id="node_outline42" fill="none" stroke="none" d="M653.5,1485.5h203a5,5,0,0,1,5,5v12a5,5,0,0,1,-5,5h-203a5,5,0,0,1,-5,-5v-12a5,5,0,0,1,5,-5z"></path><g id="node_text42" fill="black"><text id="kity_text_223" text-rendering="inherit" font-size="12" dy=".8em" y="1488.7000000476837" x="658.5">... 自动补全进行完整索引所需的维度</text></g></g><g id="minder_node45"><g id="node_expander45" style="cursor: pointer;"><path id="kity_path_482" fill="white" stroke="gray" d="M354.5,1576.5A6,6,0,1,1,342.5,1576.5A6,6,0,1,1,354.5,1576.5"></path><path id="kity_path_483" fill="none" stroke="gray" d="M344,1576.5L353,1576.5"></path></g><path id="node_outline46" fill="none" stroke="none" d="M359.5,1565.5h36a5,5,0,0,1,5,5v12a5,5,0,0,1,-5,5h-36a5,5,0,0,1,-5,-5v-12a5,5,0,0,1,5,-5z"></path><g id="node_text46" fill="black"><text id="kity_text_231" text-rendering="inherit" font-size="12" dy=".8em" y="1568.7000000476837" x="364.5">迭代</text></g></g><g id="minder_node46"><g id="node_expander43" display="none" style="cursor: pointer;"><path id="kity_path_476" fill="white" stroke="gray" d="M440.5,1551A6,6,0,1,1,428.5,1551A6,6,0,1,1,440.5,1551"></path><path id="kity_path_477" fill="none" stroke="gray"></path></g><path id="node_outline44" fill="none" stroke="none" d="M445.5,1537.5h172a5,5,0,0,1,5,5v17a5,5,0,0,1,-5,5h-172a5,5,0,0,1,-5,-5v-17a5,5,0,0,1,5,-5z"></path><g id="node_text44" fill="black"><text id="kity_text_227" text-rendering="inherit" font-size="12" dy=".8em" y="1542.7000000476837" x="450.5">直接 for 迭代会展开第0维</text></g><g id="kity_g_278" style="cursor: pointer;"><path id="kity_path_279" fill="none" stroke="none" d="M599,1542h12a2,2,0,0,1,2,2v13a2,2,0,0,1,-2,2h-12a2,2,0,0,1,-2,-2v-13a2,2,0,0,1,2,-2z"></path><path id="kity_path_280" fill="black" stroke="none" d="M608,1553H602V1552h6L608,1553L608,1553zM608,1551H602V1550h6V1551zM608,1549H602V1548h6V1549zM607.5,1555H601V1546h8v7.5M608,1556l2,-2V1545H600v11"></path></g></g><g id="minder_node47"><g id="node_expander44" display="none" style="cursor: pointer;"><path id="kity_path_479" fill="white" stroke="gray" d="M440.5,1605.5A6,6,0,1,1,428.5,1605.5A6,6,0,1,1,440.5,1605.5"></path><path id="kity_path_480" fill="none" stroke="gray"></path></g><path id="node_outline45" fill="none" stroke="none" d="M445.5,1594.5h48a5,5,0,0,1,5,5v12a5,5,0,0,1,-5,5h-48a5,5,0,0,1,-5,-5v-12a5,5,0,0,1,5,-5z"></path><g id="node_text45" fill="black"><text id="kity_text_229" text-rendering="inherit" font-size="12" dy=".8em" y="1597.7000000476837" x="450.5">arr.flat</text></g></g><g id="minder_node48"><g id="node_expander53" style="cursor: pointer;"><path id="kity_path_506" fill="white" stroke="gray" d="M244.5,1778.5A6,6,0,1,1,232.5,1778.5A6,6,0,1,1,244.5,1778.5"></path><path id="kity_path_507" fill="none" stroke="gray" d="M234,1778.5L243,1778.5"></path></g><path id="node_outline54" fill="rgb(238, 243, 246)" stroke="rgb(115, 161, 191)" d="M248.5,1765.5h64a3,3,0,0,1,3,3v20a3,3,0,0,1,-3,3h-64a3,3,0,0,1,-3,-3v-20a3,3,0,0,1,3,-3z" stroke-width="1"></path><g id="node_text54" fill="black"><text id="kity_text_247" text-rendering="inherit" font-size="14" dy=".8em" y="1769.4000000953674" x="265.5">对象</text></g></g><g id="minder_node49"><g id="node_expander52" style="cursor: pointer;"><path id="kity_path_503" fill="white" stroke="gray" d="M355.5,1778.5A6,6,0,1,1,343.5,1778.5A6,6,0,1,1,355.5,1778.5"></path><path id="kity_path_504" fill="none" stroke="gray" d="M345,1778.5L354,1778.5"></path></g><path id="node_outline53" fill="none" stroke="none" d="M360.5,1767.5h55a5,5,0,0,1,5,5v12a5,5,0,0,1,-5,5h-55a5,5,0,0,1,-5,-5v-12a5,5,0,0,1,5,-5z"></path><g id="node_text53" fill="black"><text id="kity_text_245" text-rendering="inherit" font-size="12" dy=".8em" y="1770.7000000476837" x="365.5">ndarray</text></g></g><g id="minder_node50"><g id="node_expander47" display="none" style="cursor: pointer;"><path id="kity_path_488" fill="white" stroke="gray" d="M460.5,1667.5A6,6,0,1,1,448.5,1667.5A6,6,0,1,1,460.5,1667.5"></path><path id="kity_path_489" fill="none" stroke="gray"></path></g><path id="node_outline48" fill="none" stroke="none" d="M465.5,1656.5h40a5,5,0,0,1,5,5v12a5,5,0,0,1,-5,5h-40a5,5,0,0,1,-5,-5v-12a5,5,0,0,1,5,-5z"></path><g id="node_text48" fill="black"><text id="kity_text_235" text-rendering="inherit" font-size="12" dy=".8em" y="1659.7000000476837" x="470.5">ndim</text></g></g><g id="minder_node51"><g id="node_expander48" display="none" style="cursor: pointer;"><path id="kity_path_491" fill="white" stroke="gray" d="M460.5,1719.5A6,6,0,1,1,448.5,1719.5A6,6,0,1,1,460.5,1719.5"></path><path id="kity_path_492" fill="none" stroke="gray"></path></g><path id="node_outline49" fill="none" stroke="none" d="M465.5,1708.5h44a5,5,0,0,1,5,5v12a5,5,0,0,1,-5,5h-44a5,5,0,0,1,-5,-5v-12a5,5,0,0,1,5,-5z"></path><g id="node_text49" fill="black"><text id="kity_text_237" text-rendering="inherit" font-size="12" dy=".8em" y="1711.7000000476837" x="470.5">shape</text></g></g><g id="minder_node52"><g id="node_expander49" display="none" style="cursor: pointer;"><path id="kity_path_494" fill="white" stroke="gray" d="M460.5,1774A6,6,0,1,1,448.5,1774A6,6,0,1,1,460.5,1774"></path><path id="kity_path_495" fill="none" stroke="gray"></path></g><path id="node_outline50" fill="none" stroke="none" d="M465.5,1760.5h53a5,5,0,0,1,5,5v17a5,5,0,0,1,-5,5h-53a5,5,0,0,1,-5,-5v-17a5,5,0,0,1,5,-5z"></path><g id="node_text50" fill="black"><text id="kity_text_239" text-rendering="inherit" font-size="12" dy=".8em" y="1765.7000000476837" x="470.5">size</text></g><g id="kity_g_281" style="cursor: pointer;"><path id="kity_path_282" fill="none" stroke="none" d="M500,1765h12a2,2,0,0,1,2,2v13a2,2,0,0,1,-2,2h-12a2,2,0,0,1,-2,-2v-13a2,2,0,0,1,2,-2z"></path><path id="kity_path_283" fill="black" stroke="none" d="M509,1776H503V1775h6L509,1776L509,1776zM509,1774H503V1773h6V1774zM509,1772H503V1771h6V1772zM508.5,1778H502V1769h8v7.5M509,1779l2,-2V1768H501v11"></path></g></g><g id="minder_node53"><g id="node_expander50" display="none" style="cursor: pointer;"><path id="kity_path_497" fill="white" stroke="gray" d="M460.5,1831A6,6,0,1,1,448.5,1831A6,6,0,1,1,460.5,1831"></path><path id="kity_path_498" fill="none" stroke="gray"></path></g><path id="node_outline51" fill="none" stroke="none" d="M465.5,1817.5h78a5,5,0,0,1,5,5v17a5,5,0,0,1,-5,5h-78a5,5,0,0,1,-5,-5v-17a5,5,0,0,1,5,-5z"></path><g id="node_text51" fill="black"><text id="kity_text_241" text-rendering="inherit" font-size="12" dy=".8em" y="1822.7000000476837" x="470.5">itemsize</text></g><g id="kity_g_284" style="cursor: pointer;"><path id="kity_path_285" fill="none" stroke="none" d="M525,1822h12a2,2,0,0,1,2,2v13a2,2,0,0,1,-2,2h-12a2,2,0,0,1,-2,-2v-13a2,2,0,0,1,2,-2z"></path><path id="kity_path_286" fill="black" stroke="none" d="M534,1833H528V1832h6L534,1833L534,1833zM534,1831H528V1830h6V1831zM534,1829H528V1828h6V1829zM533.5,1835H527V1826h8v7.5M534,1836l2,-2V1825H526v11"></path></g></g><g id="minder_node54"><g id="node_expander51" display="none" style="cursor: pointer;"><path id="kity_path_500" fill="white" stroke="gray" d="M460.5,1888A6,6,0,1,1,448.5,1888A6,6,0,1,1,460.5,1888"></path><path id="kity_path_501" fill="none" stroke="gray"></path></g><path id="node_outline52" fill="none" stroke="none" d="M465.5,1874.5h57a5,5,0,0,1,5,5v17a5,5,0,0,1,-5,5h-57a5,5,0,0,1,-5,-5v-17a5,5,0,0,1,5,-5z"></path><g id="node_text52" fill="black"><text id="kity_text_243" text-rendering="inherit" font-size="12" dy=".8em" y="1879.7000000476837" x="470.5">data</text></g><g id="kity_g_287" style="cursor: pointer;"><path id="kity_path_288" fill="none" stroke="none" d="M504,1879h12a2,2,0,0,1,2,2v13a2,2,0,0,1,-2,2h-12a2,2,0,0,1,-2,-2v-13a2,2,0,0,1,2,-2z"></path><path id="kity_path_289" fill="black" stroke="none" d="M513,1890H507V1889h6L513,1890L513,1890zM513,1888H507V1887h6V1888zM513,1886H507V1885h6V1886zM512.5,1892H506V1883h8v7.5M513,1893l2,-2V1882H505v11"></path></g></g><g id="minder_node55"><g id="node_expander56" style="cursor: pointer;"><path id="kity_path_515" fill="white" stroke="gray" d="M244.5,1980.5A6,6,0,1,1,232.5,1980.5A6,6,0,1,1,244.5,1980.5"></path><path id="kity_path_516" fill="none" stroke="gray" d="M234,1980.5L243,1980.5"></path></g><path id="node_outline57" fill="rgb(238, 243, 246)" stroke="rgb(115, 161, 191)" d="M248.5,1967.5h92a3,3,0,0,1,3,3v20a3,3,0,0,1,-3,3h-92a3,3,0,0,1,-3,-3v-20a3,3,0,0,1,3,-3z" stroke-width="1"></path><g id="node_text57" fill="black"><text id="kity_text_253" text-rendering="inherit" font-size="14" dy=".8em" y="1971.4000000953674" x="265.5">转换格式</text></g></g><g id="minder_node56"><g id="node_expander54" display="none" style="cursor: pointer;"><path id="kity_path_509" fill="white" stroke="gray" d="M383.5,1952.5A6,6,0,1,1,371.5,1952.5A6,6,0,1,1,383.5,1952.5"></path><path id="kity_path_510" fill="none" stroke="gray"></path></g><path id="node_outline55" fill="none" stroke="none" d="M388.5,1941.5h50a5,5,0,0,1,5,5v12a5,5,0,0,1,-5,5h-50a5,5,0,0,1,-5,-5v-12a5,5,0,0,1,5,-5z"></path><g id="node_text55" fill="black"><text id="kity_text_249" text-rendering="inherit" font-size="12" dy=".8em" y="1944.7000000476837" x="393.5">list(arr)</text></g></g><g id="minder_node57"><g id="node_expander55" display="none" style="cursor: pointer;"><path id="kity_path_512" fill="white" stroke="gray" d="M383.5,2007A6,6,0,1,1,371.5,2007A6,6,0,1,1,383.5,2007"></path><path id="kity_path_513" fill="none" stroke="gray"></path></g><path id="node_outline56" fill="none" stroke="none" d="M388.5,1993.5h61a5,5,0,0,1,5,5v17a5,5,0,0,1,-5,5h-61a5,5,0,0,1,-5,-5v-17a5,5,0,0,1,5,-5z"></path><g id="node_text56" fill="black"><text id="kity_text_251" text-rendering="inherit" font-size="12" dy=".8em" y="1998.7000000476837" x="393.5">tolist</text></g><g id="kity_g_290" style="cursor: pointer;"><path id="kity_path_291" fill="none" stroke="none" d="M431,1998h12a2,2,0,0,1,2,2v13a2,2,0,0,1,-2,2h-12a2,2,0,0,1,-2,-2v-13a2,2,0,0,1,2,-2z"></path><path id="kity_path_292" fill="black" stroke="none" d="M440,2009H434V2008h6L440,2009L440,2009zM440,2007H434V2006h6V2007zM440,2005H434V2004h6V2005zM439.5,2011H433V2002h8v7.5M440,2012l2,-2V2001H432v11"></path></g></g></g></g></svg>