<svg id="kity_svg_6" xmlns="http://www.w3.org/2000/svg" xmlns:xlink="http://www.w3.org/1999/xlink" version="1.1" width="747" height="1520" style="background: rgb(251, 251, 251); visibility: visible;" viewBox="0 0 747 1520"><defs id="kity_defs_7"><linearGradient id="kity_linearGradient_17" x1="0" y1="0" x2="0" y2="1"><stop id="kity_stop_18" offset="0" stop-color="rgb(255, 255, 255)"></stop><stop id="kity_stop_19" offset="1" stop-color="rgb(204, 204, 204)"></stop></linearGradient><marker id="kity_marker_2" orient="auto" refX="6" refY="0" viewBox="-7 -7 14 14" markerWidth="7" markerHeight="7" markerUnits="userSpaceOnUse"><path id="kity_path_3" fill="rgb(115, 161, 191)" stroke="none" d="M6,0A6,6,0,1,1,-6,0A6,6,0,1,1,6,0"></path></marker></defs><g id="kity_g_8"><g id="minder1" text-rendering="optimize-speed"><g id="minder_connect_group1"><path id="kity_path_31" fill="none" stroke="rgb(115, 161, 191)" stroke-width="1" d="M92.50000332295895,722.4999935775995A190,689,0,0,1,282.50000332295895,33.499993577599525"></path><path id="kity_path_33" fill="none" stroke="rgb(115, 161, 191)" stroke-width="1" d="M353.50000332295895,33.499993577599525C373.50000332295895,33.499993577599525,373.50000332295895,33.499993577599525,393.50000332295895,33.499993577599525"></path><path id="kity_path_35" fill="none" stroke="rgb(115, 161, 191)" stroke-width="1" d="M462.50000332295895,33.499993577599525C482.50000332295895,33.499993577599525,482.50000332295895,33.499993577599525,502.50000332295895,33.499993577599525"></path><path id="kity_path_37" fill="none" stroke="rgb(115, 161, 191)" stroke-width="1" d="M92.50000332295895,722.4999935775995A190,417,0,0,1,282.50000332295895,305.4999935775995"></path><path id="kity_path_39" fill="none" stroke="rgb(115, 161, 191)" stroke-width="1" d="M352.50000332295895,305.4999935775995C372.50000332295895,305.4999935775995,372.50000332295895,97.49999357759953,392.50000332295895,97.49999357759953"></path><path id="kity_path_41" fill="none" stroke="rgb(115, 161, 191)" stroke-width="1" d="M352.50000332295895,305.4999935775995C372.50000332295895,305.4999935775995,372.50000332295895,149.49999357759953,392.50000332295895,149.49999357759953"></path><path id="kity_path_43" fill="none" stroke="rgb(115, 161, 191)" stroke-width="1" d="M352.50000332295895,305.4999935775995C372.50000332295895,305.4999935775995,372.50000332295895,292.4999935775995,392.50000332295895,292.4999935775995"></path><path id="kity_path_45" fill="none" stroke="rgb(115, 161, 191)" stroke-width="1" d="M485.50000332295895,292.4999935775995C505.50000332295895,292.4999935775995,505.50000332295895,201.49999357759953,525.500003322959,201.49999357759953"></path><path id="kity_path_47" fill="none" stroke="rgb(115, 161, 191)" stroke-width="1" d="M485.50000332295895,292.4999935775995C505.50000332295895,292.4999935775995,505.50000332295895,253.49999357759953,525.500003322959,253.49999357759953"></path><path id="kity_path_49" fill="none" stroke="rgb(115, 161, 191)" stroke-width="1" d="M485.50000332295895,292.4999935775995C505.50000332295895,292.4999935775995,505.50000332295895,305.4999935775995,525.500003322959,305.4999935775995"></path><path id="kity_path_51" fill="none" stroke="rgb(115, 161, 191)" stroke-width="1" d="M485.50000332295895,292.4999935775995C505.50000332295895,292.4999935775995,505.50000332295895,383.4999935775995,525.500003322959,383.4999935775995"></path><path id="kity_path_53" fill="none" stroke="rgb(115, 161, 191)" stroke-width="1" d="M594.500003322959,383.4999935775995C614.500003322959,383.4999935775995,614.500003322959,357.4999935775995,634.500003322959,357.4999935775995"></path><path id="kity_path_55" fill="none" stroke="rgb(115, 161, 191)" stroke-width="1" d="M594.500003322959,383.4999935775995C614.500003322959,383.4999935775995,614.500003322959,409.4999935775995,634.500003322959,409.4999935775995"></path><path id="kity_path_57" fill="none" stroke="rgb(115, 161, 191)" stroke-width="1" d="M352.50000332295895,305.4999935775995C372.50000332295895,305.4999935775995,372.50000332295895,513.4999935775995,392.50000332295895,513.4999935775995"></path><path id="kity_path_59" fill="none" stroke="rgb(115, 161, 191)" stroke-width="1" d="M485.50000332295895,513.4999935775995C505.50000332295895,513.4999935775995,505.50000332295895,461.4999935775995,525.500003322959,461.4999935775995"></path><path id="kity_path_61" fill="none" stroke="rgb(115, 161, 191)" stroke-width="1" d="M485.50000332295895,513.4999935775995C505.50000332295895,513.4999935775995,505.50000332295895,513.4999935775995,525.500003322959,513.4999935775995"></path><path id="kity_path_63" fill="none" stroke="rgb(115, 161, 191)" stroke-width="1" d="M485.50000332295895,513.4999935775995C505.50000332295895,513.4999935775995,505.50000332295895,565.4999935775995,525.500003322959,565.4999935775995"></path><path id="kity_path_65" fill="none" stroke="rgb(115, 161, 191)" stroke-width="1" d="M92.50000332295895,722.4999935775995A190,22,0,0,0,282.50000332295895,744.4999935775995"></path><path id="kity_path_67" fill="none" stroke="rgb(115, 161, 191)" stroke-width="1" d="M352.50000332295895,744.4999935775995C372.50000332295895,744.4999935775995,372.50000332295895,653.4999935775995,392.50000332295895,653.4999935775995"></path><path id="kity_path_69" fill="none" stroke="rgb(115, 161, 191)" stroke-width="1" d="M461.50000332295895,653.4999935775995C481.50000332295895,653.4999935775995,481.50000332295895,627.4999935775995,501.50000332295895,627.4999935775995"></path><path id="kity_path_71" fill="none" stroke="rgb(115, 161, 191)" stroke-width="1" d="M461.50000332295895,653.4999935775995C481.50000332295895,653.4999935775995,481.50000332295895,679.4999935775995,501.50000332295895,679.4999935775995"></path><path id="kity_path_73" fill="none" stroke="rgb(115, 161, 191)" stroke-width="1" d="M352.50000332295895,744.4999935775995C372.50000332295895,744.4999935775995,372.50000332295895,731.4999935775995,392.50000332295895,731.4999935775995"></path><path id="kity_path_75" fill="none" stroke="rgb(115, 161, 191)" stroke-width="1" d="M352.50000332295895,744.4999935775995C372.50000332295895,744.4999935775995,372.50000332295895,783.4999935775995,392.50000332295895,783.4999935775995"></path><path id="kity_path_77" fill="none" stroke="rgb(115, 161, 191)" stroke-width="1" d="M352.50000332295895,744.4999935775995C372.50000332295895,744.4999935775995,372.50000332295895,835.4999935775995,392.50000332295895,835.4999935775995"></path><path id="kity_path_79" fill="none" stroke="rgb(115, 161, 191)" stroke-width="1" d="M92.50000332295895,722.4999935775995A190,305,0,0,0,282.50000332295895,1027.4999935775995"></path><path id="kity_path_81" fill="none" stroke="rgb(115, 161, 191)" stroke-width="1" d="M353.50000332295895,1027.4999935775995C373.50000332295895,1027.4999935775995,373.50000332295895,949.4999935775995,393.50000332295895,949.4999935775995"></path><path id="kity_path_83" fill="none" stroke="rgb(115, 161, 191)" stroke-width="1" d="M462.50000332295895,949.4999935775995C482.50000332295895,949.4999935775995,482.50000332295895,897.4999935775995,502.50000332295895,897.4999935775995"></path><path id="kity_path_85" fill="none" stroke="rgb(115, 161, 191)" stroke-width="1" d="M462.50000332295895,949.4999935775995C482.50000332295895,949.4999935775995,482.50000332295895,949.4999935775995,502.50000332295895,949.4999935775995"></path><path id="kity_path_87" fill="none" stroke="rgb(115, 161, 191)" stroke-width="1" d="M462.50000332295895,949.4999935775995C482.50000332295895,949.4999935775995,482.50000332295895,1001.4999935775995,502.50000332295895,1001.4999935775995"></path><path id="kity_path_89" fill="none" stroke="rgb(115, 161, 191)" stroke-width="1" d="M353.50000332295895,1027.4999935775995C373.50000332295895,1027.4999935775995,373.50000332295895,1053.4999935775995,393.50000332295895,1053.4999935775995"></path><path id="kity_path_91" fill="none" stroke="rgb(115, 161, 191)" stroke-width="1" d="M353.50000332295895,1027.4999935775995C373.50000332295895,1027.4999935775995,373.50000332295895,1105.4999935775995,393.50000332295895,1105.4999935775995"></path><path id="kity_path_93" fill="none" stroke="rgb(115, 161, 191)" stroke-width="1" d="M92.50000332295895,722.4999935775995A190,497,0,0,0,282.50000332295895,1219.4999935775995"></path><path id="kity_path_95" fill="none" stroke="rgb(115, 161, 191)" stroke-width="1" d="M352.50000332295895,1219.4999935775995C372.50000332295895,1219.4999935775995,372.50000332295895,1167.4999935775995,392.50000332295895,1167.4999935775995"></path><path id="kity_path_97" fill="none" stroke="rgb(115, 161, 191)" stroke-width="1" d="M352.50000332295895,1219.4999935775995C372.50000332295895,1219.4999935775995,372.50000332295895,1219.4999935775995,392.50000332295895,1219.4999935775995"></path><path id="kity_path_99" fill="none" stroke="rgb(115, 161, 191)" stroke-width="1" d="M352.50000332295895,1219.4999935775995C372.50000332295895,1219.4999935775995,372.50000332295895,1271.4999935775995,392.50000332295895,1271.4999935775995"></path><path id="kity_path_101" fill="none" stroke="rgb(115, 161, 191)" stroke-width="1" d="M92.50000332295895,722.4999935775995A190,689,0,0,0,282.50000332295895,1411.4999935775995"></path><path id="kity_path_103" fill="none" stroke="rgb(115, 161, 191)" stroke-width="1" d="M353.50000332295895,1411.4999935775995C373.50000332295895,1411.4999935775995,373.50000332295895,1333.4999935775995,393.50000332295895,1333.4999935775995"></path><path id="kity_path_105" fill="none" stroke="rgb(115, 161, 191)" stroke-width="1" d="M438.50000332295895,1333.4999935775995C458.50000332295895,1333.4999935775995,458.50000332295895,1333.4999935775995,478.50000332295895,1333.4999935775995"></path><path id="kity_path_107" fill="none" stroke="rgb(115, 161, 191)" stroke-width="1" d="M353.50000332295895,1411.4999935775995C373.50000332295895,1411.4999935775995,373.50000332295895,1385.4999935775995,393.50000332295895,1385.4999935775995"></path><path id="kity_path_109" fill="none" stroke="rgb(115, 161, 191)" stroke-width="1" d="M353.50000332295895,1411.4999935775995C373.50000332295895,1411.4999935775995,373.50000332295895,1437.4999935775995,393.50000332295895,1437.4999935775995"></path><path id="kity_path_111" fill="none" stroke="rgb(115, 161, 191)" stroke-width="1" d="M353.50000332295895,1411.4999935775995C373.50000332295895,1411.4999935775995,373.50000332295895,1489.4999935775995,393.50000332295895,1489.4999935775995"></path></g><g id="minder_node1"><path id="node_outline1" fill="rgb(115, 161, 191)" stroke="rgb(115, 161, 191)" d="M25.500003322958946,702.4999935775995h134a5,5,0,0,1,5,5v30a5,5,0,0,1,-5,5h-134a5,5,0,0,1,-5,-5v-30a5,5,0,0,1,5,-5z" stroke-width="3"></path><g id="node_text1" fill="white"><text id="kity_text_22" text-rendering="inherit" font-size="16" dy=".8em" y="712.0999934107065" x="44.500003322958946">编程语言导图</text></g></g><g id="kity_g_12"><path id="kity_path_13" fill="none" stroke="none" d="M44.500003322958946,722.4999935775995h0v0h0z"></path></g><g id="kity_g_14"><path id="kity_path_15" fill="none" stroke="none" d="M44.500003322958946,722.4999935775995h0v0h0z"></path><path id="kity_path_16" fill="none" stroke="none"></path></g><g id="minder_node2"><g id="node_expander3" style="cursor: pointer;"><path id="kity_path_242" fill="white" stroke="gray" d="M283.50001026690006,33.4999730437994A6,6,0,1,1,271.50001026690006,33.4999730437994A6,6,0,1,1,283.50001026690006,33.4999730437994"></path><path id="kity_path_243" fill="none" stroke="gray" d="M273.00001026690006,33.4999730437994L282.00001026690006,33.4999730437994"></path></g><path id="node_outline4" fill="rgb(238, 243, 246)" stroke="rgb(115, 161, 191)" d="M287.50001107156277,20.4999730437994h63a3,3,0,0,1,3,3v20a3,3,0,0,1,-3,3h-63a3,3,0,0,1,-3,-3v-20a3,3,0,0,1,3,-3z" stroke-width="1"></path><g id="node_text4" fill="black"><text id="kity_text_117" text-rendering="inherit" font-size="14" dy=".8em" y="24.399973076581958" x="304.50001107156277">常识</text></g></g><g id="minder_node3"><g id="node_expander2" style="cursor: pointer;"><path id="kity_path_239" fill="white" stroke="gray" d="M393.5000135451555,33.4999730437994A6,6,0,1,1,381.5000135451555,33.4999730437994A6,6,0,1,1,393.5000135451555,33.4999730437994"></path><path id="kity_path_240" fill="none" stroke="gray" d="M383.0000135451555,33.4999730437994L392.0000135451555,33.4999730437994"></path></g><path id="node_outline3" fill="none" stroke="none" d="M398.5000140219927,22.4999730437994h59a5,5,0,0,1,5,5v12a5,5,0,0,1,-5,5h-59a5,5,0,0,1,-5,-5v-12a5,5,0,0,1,5,-5z"></path><g id="node_text3" fill="black"><text id="kity_text_115" text-rendering="inherit" font-size="12" dy=".8em" y="25.6999731173118" x="403.5000140219927">编程原则</text></g></g><g id="minder_node4"><g id="node_expander1" style="cursor: pointer;" display="none"><path id="kity_path_236" fill="white" stroke="gray" d="M502.50001679360867,33.4999730437994A6,6,0,1,1,490.50001679360867,33.4999730437994A6,6,0,1,1,502.50001679360867,33.4999730437994"></path><path id="kity_path_237" fill="none" stroke="gray"></path></g><path id="node_outline2" fill="none" stroke="none" d="M507.5000172704458,22.4999730437994h83a5,5,0,0,1,5,5v12a5,5,0,0,1,-5,5h-83a5,5,0,0,1,-5,-5v-12a5,5,0,0,1,5,-5z"></path><g id="node_text2" fill="black"><text id="kity_text_113" text-rendering="inherit" font-size="12" dy=".8em" y="25.6999731173118" x="512.5000172704458">开放闭合原则</text></g></g><g id="minder_node5"><g id="node_expander17" style="cursor: pointer;"><path id="kity_path_284" fill="white" stroke="gray" d="M283.50001026690006,305.4999811500311A6,6,0,1,1,271.50001026690006,305.4999811500311A6,6,0,1,1,283.50001026690006,305.4999811500311"></path><path id="kity_path_285" fill="none" stroke="gray" d="M273.00001026690006,305.4999811500311L282.00001026690006,305.4999811500311"></path></g><path id="node_outline18" fill="rgb(238, 243, 246)" stroke="rgb(115, 161, 191)" d="M287.50001107156277,292.4999811500311h62a3,3,0,0,1,3,3v20a3,3,0,0,1,-3,3h-62a3,3,0,0,1,-3,-3v-20a3,3,0,0,1,3,-3z" stroke-width="1"></path><g id="node_text18" fill="black"><text id="kity_text_145" text-rendering="inherit" font-size="14" dy=".8em" y="296.39998118281363" x="304.50001107156277">基础</text></g></g><g id="minder_node6"><g id="node_expander4" style="cursor: pointer;" display="none"><path id="kity_path_245" fill="white" stroke="gray" d="M392.5000135153532,97.49997495114803A6,6,0,1,1,380.5000135153532,97.49997495114803A6,6,0,1,1,392.5000135153532,97.49997495114803"></path><path id="kity_path_246" fill="none" stroke="gray"></path></g><path id="node_outline5" fill="none" stroke="none" d="M397.50001399219036,86.49997495114803h59a5,5,0,0,1,5,5v12a5,5,0,0,1,-5,5h-59a5,5,0,0,1,-5,-5v-12a5,5,0,0,1,5,-5z"></path><g id="node_text5" fill="black"><text id="kity_text_119" text-rendering="inherit" font-size="12" dy=".8em" y="89.69997502466043" x="402.50001399219036">命名规范</text></g></g><g id="minder_node7"><g id="node_expander5" style="cursor: pointer;" display="none"><path id="kity_path_248" fill="white" stroke="gray" d="M392.5000135153532,149.4999765008688A6,6,0,1,1,380.5000135153532,149.4999765008688A6,6,0,1,1,392.5000135153532,149.4999765008688"></path><path id="kity_path_249" fill="none" stroke="gray"></path></g><path id="node_outline6" fill="none" stroke="none" d="M397.50001399219036,138.4999765008688h35a5,5,0,0,1,5,5v12a5,5,0,0,1,-5,5h-35a5,5,0,0,1,-5,-5v-12a5,5,0,0,1,5,-5z"></path><g id="node_text6" fill="black"><text id="kity_text_121" text-rendering="inherit" font-size="12" dy=".8em" y="141.6999765743812" x="402.50001399219036">注释</text></g></g><g id="minder_node8"><g id="node_expander12" style="cursor: pointer;"><path id="kity_path_269" fill="white" stroke="gray" d="M392.5000135153532,292.4999807626009A6,6,0,1,1,380.5000135153532,292.4999807626009A6,6,0,1,1,392.5000135153532,292.4999807626009"></path><path id="kity_path_270" fill="none" stroke="gray" d="M382.0000135153532,292.4999807626009L391.0000135153532,292.4999807626009"></path></g><path id="node_outline13" fill="none" stroke="none" d="M397.50001399219036,281.4999807626009h83a5,5,0,0,1,5,5v12a5,5,0,0,1,-5,5h-83a5,5,0,0,1,-5,-5v-12a5,5,0,0,1,5,-5z"></path><g id="node_text13" fill="black"><text id="kity_text_135" text-rendering="inherit" font-size="12" dy=".8em" y="284.6999808361133" x="402.50001399219036">基本数据类型</text></g></g><g id="minder_node9"><g id="node_expander6" style="cursor: pointer;" display="none"><path id="kity_path_251" fill="white" stroke="gray" d="M525.5000174790621,201.49997805058956A6,6,0,1,1,513.5000174790621,201.49997805058956A6,6,0,1,1,525.5000174790621,201.49997805058956"></path><path id="kity_path_252" fill="none" stroke="gray"></path></g><path id="node_outline7" fill="none" stroke="none" d="M530.5000179558992,190.49997805058956h47a5,5,0,0,1,5,5v12a5,5,0,0,1,-5,5h-47a5,5,0,0,1,-5,-5v-12a5,5,0,0,1,5,-5z"></path><g id="node_text7" fill="black"><text id="kity_text_123" text-rendering="inherit" font-size="12" dy=".8em" y="193.69997812410196" x="535.5000179558992">字面值</text></g></g><g id="minder_node10"><g id="node_expander7" style="cursor: pointer;" display="none"><path id="kity_path_254" fill="white" stroke="gray" d="M525.5000174790621,253.49997960031033A6,6,0,1,1,513.5000174790621,253.49997960031033A6,6,0,1,1,525.5000174790621,253.49997960031033"></path><path id="kity_path_255" fill="none" stroke="gray"></path></g><path id="node_outline8" fill="none" stroke="none" d="M530.5000179558992,242.49997960031033h35a5,5,0,0,1,5,5v12a5,5,0,0,1,-5,5h-35a5,5,0,0,1,-5,-5v-12a5,5,0,0,1,5,-5z"></path><g id="node_text8" fill="black"><text id="kity_text_125" text-rendering="inherit" font-size="12" dy=".8em" y="245.69997967382272" x="535.5000179558992">值域</text></g></g><g id="minder_node11"><g id="node_expander8" style="cursor: pointer;" display="none"><path id="kity_path_257" fill="white" stroke="gray" d="M525.5000174790621,305.4999811500311A6,6,0,1,1,513.5000174790621,305.4999811500311A6,6,0,1,1,525.5000174790621,305.4999811500311"></path><path id="kity_path_258" fill="none" stroke="gray"></path></g><path id="node_outline9" fill="none" stroke="none" d="M530.5000179558992,294.4999811500311h35a5,5,0,0,1,5,5v12a5,5,0,0,1,-5,5h-35a5,5,0,0,1,-5,-5v-12a5,5,0,0,1,5,-5z"></path><g id="node_text9" fill="black"><text id="kity_text_127" text-rendering="inherit" font-size="12" dy=".8em" y="297.6999812235435" x="535.5000179558992">运算</text></g></g><g id="minder_node12"><g id="node_expander11" style="cursor: pointer;"><path id="kity_path_266" fill="white" stroke="gray" d="M525.5000174790621,383.49998347461224A6,6,0,1,1,513.5000174790621,383.49998347461224A6,6,0,1,1,525.5000174790621,383.49998347461224"></path><path id="kity_path_267" fill="none" stroke="gray" d="M515.0000174790621,383.49998347461224L524.0000174790621,383.49998347461224"></path></g><path id="node_outline12" fill="none" stroke="none" d="M530.5000179558992,372.49998347461224h59a5,5,0,0,1,5,5v12a5,5,0,0,1,-5,5h-59a5,5,0,0,1,-5,-5v-12a5,5,0,0,1,5,-5z"></path><g id="node_text12" fill="black"><text id="kity_text_133" text-rendering="inherit" font-size="12" dy=".8em" y="375.69998354812464" x="535.5000179558992">类型转换</text></g></g><g id="minder_node13"><g id="node_expander9" style="cursor: pointer;" display="none"><path id="kity_path_260" fill="white" stroke="gray" d="M634.5000207275152,357.49998269975185A6,6,0,1,1,622.5000207275152,357.49998269975185A6,6,0,1,1,634.5000207275152,357.49998269975185"></path><path id="kity_path_261" fill="none" stroke="gray"></path></g><path id="node_outline10" fill="none" stroke="none" d="M639.5000212043524,346.49998269975185h83a5,5,0,0,1,5,5v12a5,5,0,0,1,-5,5h-83a5,5,0,0,1,-5,-5v-12a5,5,0,0,1,5,-5z"></path><g id="node_text10" fill="black"><text id="kity_text_129" text-rendering="inherit" font-size="12" dy=".8em" y="349.69998277326425" x="644.5000212043524">自动类型转换</text></g></g><g id="minder_node14"><g id="node_expander10" style="cursor: pointer;" display="none"><path id="kity_path_263" fill="white" stroke="gray" d="M634.5000207275152,409.4999842494726A6,6,0,1,1,622.5000207275152,409.4999842494726A6,6,0,1,1,634.5000207275152,409.4999842494726"></path><path id="kity_path_264" fill="none" stroke="gray"></path></g><path id="node_outline11" fill="none" stroke="none" d="M639.5000212043524,398.4999842494726h83a5,5,0,0,1,5,5v12a5,5,0,0,1,-5,5h-83a5,5,0,0,1,-5,-5v-12a5,5,0,0,1,5,-5z"></path><g id="node_text11" fill="black"><text id="kity_text_131" text-rendering="inherit" font-size="12" dy=".8em" y="401.699984322985" x="644.5000212043524">强制类型转换</text></g></g><g id="minder_node15"><g id="node_expander16" style="cursor: pointer;"><path id="kity_path_281" fill="white" stroke="gray" d="M392.5000135153532,513.4999873489141A6,6,0,1,1,380.5000135153532,513.4999873489141A6,6,0,1,1,392.5000135153532,513.4999873489141"></path><path id="kity_path_282" fill="none" stroke="gray" d="M382.0000135153532,513.4999873489141L391.0000135153532,513.4999873489141"></path></g><path id="node_outline17" fill="none" stroke="none" d="M397.50001399219036,502.49998734891415h83a5,5,0,0,1,5,5v12a5,5,0,0,1,-5,5h-83a5,5,0,0,1,-5,-5v-12a5,5,0,0,1,5,-5z"></path><g id="node_text17" fill="black"><text id="kity_text_143" text-rendering="inherit" font-size="12" dy=".8em" y="505.69998742242655" x="402.50001399219036">复合数据类型</text></g></g><g id="minder_node16"><g id="node_expander13" style="cursor: pointer;" display="none"><path id="kity_path_272" fill="white" stroke="gray" d="M525.5000174790621,461.4999857991934A6,6,0,1,1,513.5000174790621,461.4999857991934A6,6,0,1,1,525.5000174790621,461.4999857991934"></path><path id="kity_path_273" fill="none" stroke="gray"></path></g><path id="node_outline14" fill="none" stroke="none" d="M530.5000179558992,450.4999857991934h35a5,5,0,0,1,5,5v12a5,5,0,0,1,-5,5h-35a5,5,0,0,1,-5,-5v-12a5,5,0,0,1,5,-5z"></path><g id="node_text14" fill="black"><text id="kity_text_137" text-rendering="inherit" font-size="12" dy=".8em" y="453.6999858727058" x="535.5000179558992">数组</text></g></g><g id="minder_node17"><g id="node_expander14" style="cursor: pointer;" display="none"><path id="kity_path_275" fill="white" stroke="gray" d="M525.5000174790621,513.4999873489141A6,6,0,1,1,513.5000174790621,513.4999873489141A6,6,0,1,1,525.5000174790621,513.4999873489141"></path><path id="kity_path_276" fill="none" stroke="gray"></path></g><path id="node_outline15" fill="none" stroke="none" d="M530.5000179558992,502.49998734891415h35a5,5,0,0,1,5,5v12a5,5,0,0,1,-5,5h-35a5,5,0,0,1,-5,-5v-12a5,5,0,0,1,5,-5z"></path><g id="node_text15" fill="black"><text id="kity_text_139" text-rendering="inherit" font-size="12" dy=".8em" y="505.69998742242655" x="535.5000179558992">枚举</text></g></g><g id="minder_node18"><g id="node_expander15" style="cursor: pointer;" display="none"><path id="kity_path_278" fill="white" stroke="gray" d="M525.5000174790621,565.4999888986349A6,6,0,1,1,513.5000174790621,565.4999888986349A6,6,0,1,1,525.5000174790621,565.4999888986349"></path><path id="kity_path_279" fill="none" stroke="gray"></path></g><path id="node_outline16" fill="none" stroke="none" d="M530.5000179558992,554.4999888986349h35a5,5,0,0,1,5,5v12a5,5,0,0,1,-5,5h-35a5,5,0,0,1,-5,-5v-12a5,5,0,0,1,5,-5z"></path><g id="node_text16" fill="black"><text id="kity_text_141" text-rendering="inherit" font-size="12" dy=".8em" y="557.6999889721474" x="535.5000179558992">元组</text></g></g><g id="minder_node19"><g id="node_expander24" style="cursor: pointer;"><path id="kity_path_305" fill="white" stroke="gray" d="M283.50001026690006,744.4999942332506A6,6,0,1,1,271.50001026690006,744.4999942332506A6,6,0,1,1,283.50001026690006,744.4999942332506"></path><path id="kity_path_306" fill="none" stroke="gray" d="M273.00001026690006,744.4999942332506L282.00001026690006,744.4999942332506"></path></g><path id="node_outline25" fill="rgb(238, 243, 246)" stroke="rgb(115, 161, 191)" d="M287.50001107156277,731.4999942332506h62a3,3,0,0,1,3,3v20a3,3,0,0,1,-3,3h-62a3,3,0,0,1,-3,-3v-20a3,3,0,0,1,3,-3z" stroke-width="1"></path><g id="node_text25" fill="black"><text id="kity_text_159" text-rendering="inherit" font-size="14" dy=".8em" y="735.3999942660332" x="304.50001107156277">语句</text></g></g><g id="minder_node20"><g id="node_expander20" style="cursor: pointer;"><path id="kity_path_293" fill="white" stroke="gray" d="M392.5000135153532,653.4999915212393A6,6,0,1,1,380.5000135153532,653.4999915212393A6,6,0,1,1,392.5000135153532,653.4999915212393"></path><path id="kity_path_294" fill="none" stroke="gray" d="M382.0000135153532,653.4999915212393L391.0000135153532,653.4999915212393"></path></g><path id="node_outline21" fill="none" stroke="none" d="M397.50001399219036,642.4999915212393h59a5,5,0,0,1,5,5v12a5,5,0,0,1,-5,5h-59a5,5,0,0,1,-5,-5v-12a5,5,0,0,1,5,-5z"></path><g id="node_text21" fill="black"><text id="kity_text_151" text-rendering="inherit" font-size="12" dy=".8em" y="645.6999915947517" x="402.50001399219036">顺序语句</text></g></g><g id="minder_node21"><g id="node_expander18" style="cursor: pointer;" display="none"><path id="kity_path_287" fill="white" stroke="gray" d="M501.50001676380634,627.4999907463789A6,6,0,1,1,489.50001676380634,627.4999907463789A6,6,0,1,1,501.50001676380634,627.4999907463789"></path><path id="kity_path_288" fill="none" stroke="gray"></path></g><path id="node_outline19" fill="none" stroke="none" d="M506.5000172406435,616.4999907463789h58a5,5,0,0,1,5,5v12a5,5,0,0,1,-5,5h-58a5,5,0,0,1,-5,-5v-12a5,5,0,0,1,5,-5z"></path><g id="node_text19" fill="black"><text id="kity_text_147" text-rendering="inherit" font-size="12" dy=".8em" y="619.6999908198914" x="511.5000172406435">声明语句</text></g></g><g id="minder_node22"><g id="node_expander19" style="cursor: pointer;" display="none"><path id="kity_path_290" fill="white" stroke="gray" d="M501.50001676380634,679.4999922960997A6,6,0,1,1,489.50001676380634,679.4999922960997A6,6,0,1,1,501.50001676380634,679.4999922960997"></path><path id="kity_path_291" fill="none" stroke="gray"></path></g><path id="node_outline20" fill="none" stroke="none" d="M506.5000172406435,668.4999922960997h58a5,5,0,0,1,5,5v12a5,5,0,0,1,-5,5h-58a5,5,0,0,1,-5,-5v-12a5,5,0,0,1,5,-5z"></path><g id="node_text20" fill="black"><text id="kity_text_149" text-rendering="inherit" font-size="12" dy=".8em" y="671.6999923696121" x="511.5000172406435">赋值语句</text></g></g><g id="minder_node23"><g id="node_expander21" style="cursor: pointer;" display="none"><path id="kity_path_296" fill="white" stroke="gray" d="M392.5000135153532,731.4999938458204A6,6,0,1,1,380.5000135153532,731.4999938458204A6,6,0,1,1,392.5000135153532,731.4999938458204"></path><path id="kity_path_297" fill="none" stroke="gray"></path></g><path id="node_outline22" fill="none" stroke="none" d="M397.50001399219036,720.4999938458204h59a5,5,0,0,1,5,5v12a5,5,0,0,1,-5,5h-59a5,5,0,0,1,-5,-5v-12a5,5,0,0,1,5,-5z"></path><g id="node_text22" fill="black"><text id="kity_text_153" text-rendering="inherit" font-size="12" dy=".8em" y="723.6999939193329" x="402.50001399219036">分支语句</text></g></g><g id="minder_node24"><g id="node_expander22" style="cursor: pointer;" display="none"><path id="kity_path_299" fill="white" stroke="gray" d="M392.5000135153532,783.4999953955412A6,6,0,1,1,380.5000135153532,783.4999953955412A6,6,0,1,1,392.5000135153532,783.4999953955412"></path><path id="kity_path_300" fill="none" stroke="gray"></path></g><path id="node_outline23" fill="none" stroke="none" d="M397.50001399219036,772.4999953955412h59a5,5,0,0,1,5,5v12a5,5,0,0,1,-5,5h-59a5,5,0,0,1,-5,-5v-12a5,5,0,0,1,5,-5z"></path><g id="node_text23" fill="black"><text id="kity_text_155" text-rendering="inherit" font-size="12" dy=".8em" y="775.6999954690536" x="402.50001399219036">循环语句</text></g></g><g id="minder_node25"><g id="node_expander23" style="cursor: pointer;" display="none"><path id="kity_path_302" fill="white" stroke="gray" d="M392.5000135153532,835.499996945262A6,6,0,1,1,380.5000135153532,835.499996945262A6,6,0,1,1,392.5000135153532,835.499996945262"></path><path id="kity_path_303" fill="none" stroke="gray"></path></g><path id="node_outline24" fill="none" stroke="none" d="M397.50001399219036,824.499996945262h58a5,5,0,0,1,5,5v12a5,5,0,0,1,-5,5h-58a5,5,0,0,1,-5,-5v-12a5,5,0,0,1,5,-5z"></path><g id="node_text24" fill="black"><text id="kity_text_157" text-rendering="inherit" font-size="12" dy=".8em" y="827.6999970187744" x="402.50001399219036">异常控制</text></g></g><g id="minder_node26"><g id="node_expander31" style="cursor: pointer;"><path id="kity_path_326" fill="white" stroke="gray" d="M283.50001026690006,1027.5000026673079A6,6,0,1,1,271.50001026690006,1027.5000026673079A6,6,0,1,1,283.50001026690006,1027.5000026673079"></path><path id="kity_path_327" fill="none" stroke="gray" d="M273.00001026690006,1027.5000026673079L282.00001026690006,1027.5000026673079"></path></g><path id="node_outline32" fill="rgb(238, 243, 246)" stroke="rgb(115, 161, 191)" d="M287.50001107156277,1014.5000026673079h63a3,3,0,0,1,3,3v20a3,3,0,0,1,-3,3h-63a3,3,0,0,1,-3,-3v-20a3,3,0,0,1,3,-3z" stroke-width="1"></path><g id="node_text32" fill="black"><text id="kity_text_173" text-rendering="inherit" font-size="14" dy=".8em" y="1018.4000027000905" x="304.50001107156277">模块</text></g></g><g id="minder_node27"><g id="node_expander28" style="cursor: pointer;"><path id="kity_path_317" fill="white" stroke="gray" d="M393.5000135451555,949.5000003427267A6,6,0,1,1,381.5000135451555,949.5000003427267A6,6,0,1,1,393.5000135451555,949.5000003427267"></path><path id="kity_path_318" fill="none" stroke="gray" d="M383.0000135451555,949.5000003427267L392.0000135451555,949.5000003427267"></path></g><path id="node_outline29" fill="none" stroke="none" d="M398.5000140219927,938.5000003427267h59a5,5,0,0,1,5,5v12a5,5,0,0,1,-5,5h-59a5,5,0,0,1,-5,-5v-12a5,5,0,0,1,5,-5z"></path><g id="node_text29" fill="black"><text id="kity_text_167" text-rendering="inherit" font-size="12" dy=".8em" y="941.7000004162392" x="403.5000140219927">命名空间</text></g></g><g id="minder_node28"><g id="node_expander25" style="cursor: pointer;" display="none"><path id="kity_path_308" fill="white" stroke="gray" d="M502.50001679360867,897.499998793006A6,6,0,1,1,490.50001679360867,897.499998793006A6,6,0,1,1,502.50001679360867,897.499998793006"></path><path id="kity_path_309" fill="none" stroke="gray"></path></g><path id="node_outline26" fill="none" stroke="none" d="M507.5000172704458,886.499998793006h58a5,5,0,0,1,5,5v12a5,5,0,0,1,-5,5h-58a5,5,0,0,1,-5,-5v-12a5,5,0,0,1,5,-5z"></path><g id="node_text26" fill="black"><text id="kity_text_161" text-rendering="inherit" font-size="12" dy=".8em" y="889.6999988665184" x="512.5000172704458">组织模块</text></g></g><g id="minder_node29"><g id="node_expander26" style="cursor: pointer;" display="none"><path id="kity_path_311" fill="white" stroke="gray" d="M502.50001679360867,949.5000003427267A6,6,0,1,1,490.50001679360867,949.5000003427267A6,6,0,1,1,502.50001679360867,949.5000003427267"></path><path id="kity_path_312" fill="none" stroke="gray"></path></g><path id="node_outline27" fill="none" stroke="none" d="M507.5000172704458,938.5000003427267h59a5,5,0,0,1,5,5v12a5,5,0,0,1,-5,5h-59a5,5,0,0,1,-5,-5v-12a5,5,0,0,1,5,-5z"></path><g id="node_text27" fill="black"><text id="kity_text_163" text-rendering="inherit" font-size="12" dy=".8em" y="941.7000004162392" x="512.5000172704458">导入名称</text></g></g><g id="minder_node30"><g id="node_expander27" style="cursor: pointer;" display="none"><path id="kity_path_314" fill="white" stroke="gray" d="M502.50001679360867,1001.5000018924475A6,6,0,1,1,490.50001679360867,1001.5000018924475A6,6,0,1,1,502.50001679360867,1001.5000018924475"></path><path id="kity_path_315" fill="none" stroke="gray"></path></g><path id="node_outline28" fill="none" stroke="none" d="M507.5000172704458,990.5000018924475h59a5,5,0,0,1,5,5v12a5,5,0,0,1,-5,5h-59a5,5,0,0,1,-5,-5v-12a5,5,0,0,1,5,-5z"></path><g id="node_text28" fill="black"><text id="kity_text_165" text-rendering="inherit" font-size="12" dy=".8em" y="993.7000019659599" x="512.5000172704458">导出名称</text></g></g><g id="minder_node31"><g id="node_expander29" style="cursor: pointer;" display="none"><path id="kity_path_320" fill="white" stroke="gray" d="M393.5000135451555,1053.5000034421682A6,6,0,1,1,381.5000135451555,1053.5000034421682A6,6,0,1,1,393.5000135451555,1053.5000034421682"></path><path id="kity_path_321" fill="none" stroke="gray"></path></g><path id="node_outline30" fill="none" stroke="none" d="M398.5000140219927,1042.5000034421682h35a5,5,0,0,1,5,5v12a5,5,0,0,1,-5,5h-35a5,5,0,0,1,-5,-5v-12a5,5,0,0,1,5,-5z"></path><g id="node_text30" fill="black"><text id="kity_text_169" text-rendering="inherit" font-size="12" dy=".8em" y="1045.7000035156807" x="403.5000140219927">函数</text></g></g><g id="minder_node32"><g id="node_expander30" style="cursor: pointer;" display="none"><path id="kity_path_323" fill="white" stroke="gray" d="M393.5000135451555,1105.500004991889A6,6,0,1,1,381.5000135451555,1105.500004991889A6,6,0,1,1,393.5000135451555,1105.500004991889"></path><path id="kity_path_324" fill="none" stroke="gray"></path></g><path id="node_outline31" fill="none" stroke="none" d="M398.5000140219927,1094.500004991889h23a5,5,0,0,1,5,5v12a5,5,0,0,1,-5,5h-23a5,5,0,0,1,-5,-5v-12a5,5,0,0,1,5,-5z"></path><g id="node_text31" fill="black"><text id="kity_text_171" text-rendering="inherit" font-size="12" dy=".8em" y="1097.7000050654015" x="403.5000140219927">类</text></g></g><g id="minder_node33"><g id="node_expander35" style="cursor: pointer;"><path id="kity_path_338" fill="white" stroke="gray" d="M283.50001026690006,1219.5000083893538A6,6,0,1,1,271.50001026690006,1219.5000083893538A6,6,0,1,1,283.50001026690006,1219.5000083893538"></path><path id="kity_path_339" fill="none" stroke="gray" d="M273.00001026690006,1219.5000083893538L282.00001026690006,1219.5000083893538"></path></g><path id="node_outline36" fill="rgb(238, 243, 246)" stroke="rgb(115, 161, 191)" d="M287.50001107156277,1206.5000083893538h62a3,3,0,0,1,3,3v20a3,3,0,0,1,-3,3h-62a3,3,0,0,1,-3,-3v-20a3,3,0,0,1,3,-3z" stroke-width="1"></path><g id="node_text36" fill="black"><text id="kity_text_181" text-rendering="inherit" font-size="14" dy=".8em" y="1210.4000084221364" x="304.50001107156277">工具</text></g></g><g id="minder_node34"><g id="node_expander32" style="cursor: pointer;" display="none"><path id="kity_path_329" fill="white" stroke="gray" d="M392.5000135153532,1167.500006839633A6,6,0,1,1,380.5000135153532,1167.500006839633A6,6,0,1,1,392.5000135153532,1167.500006839633"></path><path id="kity_path_330" fill="none" stroke="gray"></path></g><path id="node_outline33" fill="none" stroke="none" d="M397.50001399219036,1156.500006839633h82a5,5,0,0,1,5,5v12a5,5,0,0,1,-5,5h-82a5,5,0,0,1,-5,-5v-12a5,5,0,0,1,5,-5z"></path><g id="node_text33" fill="black"><text id="kity_text_175" text-rendering="inherit" font-size="12" dy=".8em" y="1159.7000069131454" x="402.50001399219036">输入输出工具</text></g></g><g id="minder_node35"><g id="node_expander33" style="cursor: pointer;" display="none"><path id="kity_path_332" fill="white" stroke="gray" d="M392.5000135153532,1219.5000083893538A6,6,0,1,1,380.5000135153532,1219.5000083893538A6,6,0,1,1,392.5000135153532,1219.5000083893538"></path><path id="kity_path_333" fill="none" stroke="gray"></path></g><path id="node_outline34" fill="none" stroke="none" d="M397.50001399219036,1208.5000083893538h70a5,5,0,0,1,5,5v12a5,5,0,0,1,-5,5h-70a5,5,0,0,1,-5,-5v-12a5,5,0,0,1,5,-5z"></path><g id="node_text34" fill="black"><text id="kity_text_177" text-rendering="inherit" font-size="12" dy=".8em" y="1211.7000084628662" x="402.50001399219036">字符串工具</text></g></g><g id="minder_node36"><g id="node_expander34" style="cursor: pointer;" display="none"><path id="kity_path_335" fill="white" stroke="gray" d="M392.5000135153532,1271.5000099390745A6,6,0,1,1,380.5000135153532,1271.5000099390745A6,6,0,1,1,392.5000135153532,1271.5000099390745"></path><path id="kity_path_336" fill="none" stroke="gray"></path></g><path id="node_outline35" fill="none" stroke="none" d="M397.50001399219036,1260.5000099390745h59a5,5,0,0,1,5,5v12a5,5,0,0,1,-5,5h-59a5,5,0,0,1,-5,-5v-12a5,5,0,0,1,5,-5z" stroke-width="3"></path><g id="node_text35" fill="black"><text id="kity_text_179" text-rendering="inherit" font-size="12" dy=".8em" y="1263.700010012587" x="402.50001399219036">数据结构</text></g></g><g id="minder_node37"><g id="node_expander41" style="cursor: pointer;"><path id="kity_path_356" fill="white" stroke="gray" d="M283.50001026690006,1411.5000141113997A6,6,0,1,1,271.50001026690006,1411.5000141113997A6,6,0,1,1,283.50001026690006,1411.5000141113997"></path><path id="kity_path_357" fill="none" stroke="gray" d="M273.00001026690006,1411.5000141113997L282.00001026690006,1411.5000141113997"></path></g><path id="node_outline42" fill="rgb(238, 243, 246)" stroke="rgb(115, 161, 191)" d="M287.50001107156277,1398.5000141113997h63a3,3,0,0,1,3,3v20a3,3,0,0,1,-3,3h-63a3,3,0,0,1,-3,-3v-20a3,3,0,0,1,3,-3z" stroke-width="1"></path><g id="node_text42" fill="black"><text id="kity_text_193" text-rendering="inherit" font-size="14" dy=".8em" y="1402.4000141441823" x="304.50001107156277">类库</text></g></g><g id="minder_node38"><g id="node_expander37" style="cursor: pointer;"><path id="kity_path_344" fill="white" stroke="gray" d="M393.5000135451555,1333.5000117868185A6,6,0,1,1,381.5000135451555,1333.5000117868185A6,6,0,1,1,393.5000135451555,1333.5000117868185"></path><path id="kity_path_345" fill="none" stroke="gray" d="M383.0000135451555,1333.5000117868185L392.0000135451555,1333.5000117868185"></path></g><path id="node_outline38" fill="none" stroke="none" d="M398.5000140219927,1322.5000117868185h35a5,5,0,0,1,5,5v12a5,5,0,0,1,-5,5h-35a5,5,0,0,1,-5,-5v-12a5,5,0,0,1,5,-5z"></path><g id="node_text38" fill="black"><text id="kity_text_185" text-rendering="inherit" font-size="12" dy=".8em" y="1325.700011860331" x="403.5000140219927">数学</text></g></g><g id="minder_node39"><g id="node_expander36" style="cursor: pointer;" display="none"><path id="kity_path_341" fill="white" stroke="gray" d="M478.5000160783529,1333.5000117868185A6,6,0,1,1,466.5000160783529,1333.5000117868185A6,6,0,1,1,478.5000160783529,1333.5000117868185"></path><path id="kity_path_342" fill="none" stroke="gray"></path></g><path id="node_outline37" fill="none" stroke="none" d="M483.5000165551901,1322.5000117868185h71a5,5,0,0,1,5,5v12a5,5,0,0,1,-5,5h-71a5,5,0,0,1,-5,-5v-12a5,5,0,0,1,5,-5z"></path><g id="node_text37" fill="black"><text id="kity_text_183" text-rendering="inherit" font-size="12" dy=".8em" y="1325.700011860331" x="488.5000165551901">高精度运算</text></g></g><g id="minder_node40"><g id="node_expander38" style="cursor: pointer;" display="none"><path id="kity_path_347" fill="white" stroke="gray" d="M393.5000135451555,1385.5000133365393A6,6,0,1,1,381.5000135451555,1385.5000133365393A6,6,0,1,1,393.5000135451555,1385.5000133365393"></path><path id="kity_path_348" fill="none" stroke="gray"></path></g><path id="node_outline39" fill="none" stroke="none" d="M398.5000140219927,1374.5000133365393h70a5,5,0,0,1,5,5v12a5,5,0,0,1,-5,5h-70a5,5,0,0,1,-5,-5v-12a5,5,0,0,1,5,-5z"></path><g id="node_text39" fill="black"><text id="kity_text_187" text-rendering="inherit" font-size="12" dy=".8em" y="1377.7000134100517" x="403.5000140219927">日期和时间</text></g></g><g id="minder_node41"><g id="node_expander39" style="cursor: pointer;" display="none"><path id="kity_path_350" fill="white" stroke="gray" d="M393.5000135451555,1437.50001488626A6,6,0,1,1,381.5000135451555,1437.50001488626A6,6,0,1,1,393.5000135451555,1437.50001488626"></path><path id="kity_path_351" fill="none" stroke="gray"></path></g><path id="node_outline40" fill="none" stroke="none" d="M398.5000140219927,1426.50001488626h35a5,5,0,0,1,5,5v12a5,5,0,0,1,-5,5h-35a5,5,0,0,1,-5,-5v-12a5,5,0,0,1,5,-5z"></path><g id="node_text40" fill="black"><text id="kity_text_189" text-rendering="inherit" font-size="12" dy=".8em" y="1429.7000149597725" x="403.5000140219927">文件</text></g></g><g id="minder_node42"><g id="node_expander40" style="cursor: pointer;" display="none"><path id="kity_path_353" fill="white" stroke="gray" d="M393.5000135451555,1489.5000164359808A6,6,0,1,1,381.5000135451555,1489.5000164359808A6,6,0,1,1,393.5000135451555,1489.5000164359808"></path><path id="kity_path_354" fill="none" stroke="gray"></path></g><path id="node_outline41" fill="none" stroke="none" d="M398.5000140219927,1478.5000164359808h35a5,5,0,0,1,5,5v12a5,5,0,0,1,-5,5h-35a5,5,0,0,1,-5,-5v-12a5,5,0,0,1,5,-5z"></path><g id="node_text41" fill="black"><text id="kity_text_191" text-rendering="inherit" font-size="12" dy=".8em" y="1481.7000165094933" x="403.5000140219927">网络</text></g></g></g></g></svg>