<svg id="kity_svg_6" xmlns="http://www.w3.org/2000/svg" xmlns:xlink="http://www.w3.org/1999/xlink" version="1.1" width="614" height="1364" style="background: rgb(251, 251, 251); visibility: visible;" viewBox="0 0 614 1364"><defs id="kity_defs_7"><linearGradient id="kity_linearGradient_17" x1="0" y1="0" x2="0" y2="1"><stop id="kity_stop_18" offset="0" stop-color="rgb(255, 255, 255)"></stop><stop id="kity_stop_19" offset="1" stop-color="rgb(204, 204, 204)"></stop></linearGradient><marker id="kity_marker_2" orient="auto" refX="6" refY="0" viewBox="-7 -7 14 14" markerWidth="7" markerHeight="7" markerUnits="userSpaceOnUse"><path id="kity_path_3" fill="rgb(115, 161, 191)" stroke="none" d="M6,0A6,6,0,1,1,-6,0A6,6,0,1,1,6,0"></path></marker></defs><g id="kity_g_8"><g id="minder1" text-rendering="optimize-speed"><g id="minder_connect_group1"><path id="kity_path_31" fill="none" stroke="rgb(115, 161, 191)" stroke-width="1" d="M92.50000623613596,657.5000127181411A190,624,0,0,1,282.50000623613596,33.50001271814108"></path><path id="kity_path_33" fill="none" stroke="rgb(115, 161, 191)" stroke-width="1" d="M353.50000623613596,33.50001271814108C373.50000623613596,33.50001271814108,373.50000623613596,33.50001271814108,393.50000623613596,33.50001271814108"></path><path id="kity_path_35" fill="none" stroke="rgb(115, 161, 191)" stroke-width="1" d="M462.50000623613596,33.50001271814108C482.50000623613596,33.50001271814108,482.50000623613596,33.50001271814108,502.50000623613596,33.50001271814108"></path><path id="kity_path_37" fill="none" stroke="rgb(115, 161, 191)" stroke-width="1" d="M92.50000623613596,657.5000127181411A190,404,0,0,1,282.50000623613596,253.50001271814108"></path><path id="kity_path_39" fill="none" stroke="rgb(115, 161, 191)" stroke-width="1" d="M352.50000623613596,253.50001271814108C372.50000623613596,253.50001271814108,372.50000623613596,97.50001271814108,392.50000623613596,97.50001271814108"></path><path id="kity_path_41" fill="none" stroke="rgb(115, 161, 191)" stroke-width="1" d="M352.50000623613596,253.50001271814108C372.50000623613596,253.50001271814108,372.50000623613596,149.50001271814108,392.50000623613596,149.50001271814108"></path><path id="kity_path_43" fill="none" stroke="rgb(115, 161, 191)" stroke-width="1" d="M352.50000623613596,253.50001271814108C372.50000623613596,253.50001271814108,372.50000623613596,253.50001271814108,392.50000623613596,253.50001271814108"></path><path id="kity_path_45" fill="none" stroke="rgb(115, 161, 191)" stroke-width="1" d="M484.50000623613596,253.50001271814108C504.50000623613596,253.50001271814108,504.50000623613596,201.50001271814108,524.500006236136,201.50001271814108"></path><path id="kity_path_47" fill="none" stroke="rgb(115, 161, 191)" stroke-width="1" d="M484.50000623613596,253.50001271814108C504.50000623613596,253.50001271814108,504.50000623613596,253.50001271814108,524.500006236136,253.50001271814108"></path><path id="kity_path_49" fill="none" stroke="rgb(115, 161, 191)" stroke-width="1" d="M484.50000623613596,253.50001271814108C504.50000623613596,253.50001271814108,504.50000623613596,305.5000127181411,524.500006236136,305.5000127181411"></path><path id="kity_path_51" fill="none" stroke="rgb(115, 161, 191)" stroke-width="1" d="M352.50000623613596,253.50001271814108C372.50000623613596,253.50001271814108,372.50000623613596,409.5000127181411,392.50000623613596,409.5000127181411"></path><path id="kity_path_53" fill="none" stroke="rgb(115, 161, 191)" stroke-width="1" d="M485.50000623613596,409.5000127181411C505.50000623613596,409.5000127181411,505.50000623613596,357.5000127181411,525.500006236136,357.5000127181411"></path><path id="kity_path_55" fill="none" stroke="rgb(115, 161, 191)" stroke-width="1" d="M485.50000623613596,409.5000127181411C505.50000623613596,409.5000127181411,505.50000623613596,409.5000127181411,525.500006236136,409.5000127181411"></path><path id="kity_path_57" fill="none" stroke="rgb(115, 161, 191)" stroke-width="1" d="M485.50000623613596,409.5000127181411C505.50000623613596,409.5000127181411,505.50000623613596,461.5000127181411,525.500006236136,461.5000127181411"></path><path id="kity_path_59" fill="none" stroke="rgb(115, 161, 191)" stroke-width="1" d="M92.50000623613596,657.5000127181411A190,17,0,0,1,282.50000623613596,640.5000127181411"></path><path id="kity_path_61" fill="none" stroke="rgb(115, 161, 191)" stroke-width="1" d="M352.50000623613596,640.5000127181411C372.50000623613596,640.5000127181411,372.50000623613596,549.5000127181411,392.50000623613596,549.5000127181411"></path><path id="kity_path_63" fill="none" stroke="rgb(115, 161, 191)" stroke-width="1" d="M461.50000623613596,549.5000127181411C481.50000623613596,549.5000127181411,481.50000623613596,523.5000127181411,501.50000623613596,523.5000127181411"></path><path id="kity_path_65" fill="none" stroke="rgb(115, 161, 191)" stroke-width="1" d="M461.50000623613596,549.5000127181411C481.50000623613596,549.5000127181411,481.50000623613596,575.5000127181411,501.50000623613596,575.5000127181411"></path><path id="kity_path_67" fill="none" stroke="rgb(115, 161, 191)" stroke-width="1" d="M352.50000623613596,640.5000127181411C372.50000623613596,640.5000127181411,372.50000623613596,627.5000127181411,392.50000623613596,627.5000127181411"></path><path id="kity_path_69" fill="none" stroke="rgb(115, 161, 191)" stroke-width="1" d="M352.50000623613596,640.5000127181411C372.50000623613596,640.5000127181411,372.50000623613596,679.5000127181411,392.50000623613596,679.5000127181411"></path><path id="kity_path_71" fill="none" stroke="rgb(115, 161, 191)" stroke-width="1" d="M352.50000623613596,640.5000127181411C372.50000623613596,640.5000127181411,372.50000623613596,731.5000127181411,392.50000623613596,731.5000127181411"></path><path id="kity_path_73" fill="none" stroke="rgb(115, 161, 191)" stroke-width="1" d="M92.50000623613596,657.5000127181411A190,266,0,0,0,282.50000623613596,923.5000127181411"></path><path id="kity_path_75" fill="none" stroke="rgb(115, 161, 191)" stroke-width="1" d="M353.50000623613596,923.5000127181411C373.50000623613596,923.5000127181411,373.50000623613596,845.5000127181411,393.50000623613596,845.5000127181411"></path><path id="kity_path_77" fill="none" stroke="rgb(115, 161, 191)" stroke-width="1" d="M461.50000623613596,845.5000127181411C481.50000623613596,845.5000127181411,481.50000623613596,793.5000127181411,501.50000623613596,793.5000127181411"></path><path id="kity_path_79" fill="none" stroke="rgb(115, 161, 191)" stroke-width="1" d="M461.50000623613596,845.5000127181411C481.50000623613596,845.5000127181411,481.50000623613596,845.5000127181411,501.50000623613596,845.5000127181411"></path><path id="kity_path_81" fill="none" stroke="rgb(115, 161, 191)" stroke-width="1" d="M461.50000623613596,845.5000127181411C481.50000623613596,845.5000127181411,481.50000623613596,897.5000127181411,501.50000623613596,897.5000127181411"></path><path id="kity_path_83" fill="none" stroke="rgb(115, 161, 191)" stroke-width="1" d="M353.50000623613596,923.5000127181411C373.50000623613596,923.5000127181411,373.50000623613596,949.5000127181411,393.50000623613596,949.5000127181411"></path><path id="kity_path_85" fill="none" stroke="rgb(115, 161, 191)" stroke-width="1" d="M353.50000623613596,923.5000127181411C373.50000623613596,923.5000127181411,373.50000623613596,1001.5000127181411,393.50000623613596,1001.5000127181411"></path><path id="kity_path_87" fill="none" stroke="rgb(115, 161, 191)" stroke-width="1" d="M92.50000623613596,657.5000127181411A190,458,0,0,0,282.50000623613596,1115.500012718141"></path><path id="kity_path_89" fill="none" stroke="rgb(115, 161, 191)" stroke-width="1" d="M352.50000623613596,1115.500012718141C372.50000623613596,1115.500012718141,372.50000623613596,1063.500012718141,392.50000623613596,1063.500012718141"></path><path id="kity_path_91" fill="none" stroke="rgb(115, 161, 191)" stroke-width="1" d="M352.50000623613596,1115.500012718141C372.50000623613596,1115.500012718141,372.50000623613596,1115.500012718141,392.50000623613596,1115.500012718141"></path><path id="kity_path_93" fill="none" stroke="rgb(115, 161, 191)" stroke-width="1" d="M352.50000623613596,1115.500012718141C372.50000623613596,1115.500012718141,372.50000623613596,1167.500012718141,392.50000623613596,1167.500012718141"></path><path id="kity_path_95" fill="none" stroke="rgb(115, 161, 191)" stroke-width="1" d="M92.50000623613596,657.5000127181411A190,624,0,0,0,282.50000623613596,1281.500012718141"></path><path id="kity_path_97" fill="none" stroke="rgb(115, 161, 191)" stroke-width="1" d="M352.50000623613596,1281.500012718141C372.50000623613596,1281.500012718141,372.50000623613596,1229.500012718141,392.50000623613596,1229.500012718141"></path><path id="kity_path_99" fill="none" stroke="rgb(115, 161, 191)" stroke-width="1" d="M437.50000623613596,1229.500012718141C457.50000623613596,1229.500012718141,457.50000623613596,1229.500012718141,477.50000623613596,1229.500012718141"></path><path id="kity_path_101" fill="none" stroke="rgb(115, 161, 191)" stroke-width="1" d="M352.50000623613596,1281.500012718141C372.50000623613596,1281.500012718141,372.50000623613596,1281.500012718141,392.50000623613596,1281.500012718141"></path><path id="kity_path_103" fill="none" stroke="rgb(115, 161, 191)" stroke-width="1" d="M352.50000623613596,1281.500012718141C372.50000623613596,1281.500012718141,372.50000623613596,1333.500012718141,392.50000623613596,1333.500012718141"></path></g><g id="minder_node1"><path id="node_outline1" fill="rgb(115, 161, 191)" stroke="rgb(115, 161, 191)" d="M25.50000623613596,637.5000127181411h134a5,5,0,0,1,5,5v30a5,5,0,0,1,-5,5h-134a5,5,0,0,1,-5,-5v-30a5,5,0,0,1,5,-5z" stroke-width="3"></path><g id="node_text1" fill="white"><text id="kity_text_22" text-rendering="inherit" font-size="16" dy=".8em" y="647.1000124473657" x="44.50000623613596">编程语言导图</text></g></g><g id="kity_g_12"><path id="kity_path_13" fill="none" stroke="none" d="M44.50000623613596,657.5000127181411h0v0h0z"></path></g><g id="kity_g_14"><path id="kity_path_15" fill="none" stroke="none" d="M44.50000623613596,657.5000127181411h0v0h0z"></path><path id="kity_path_16" fill="none" stroke="none"></path></g><g id="minder_node2"><g id="node_expander3" style="cursor: pointer;"><path id="kity_path_222" fill="white" stroke="gray" d="M283.50001665204763,33.499984823167324A6,6,0,1,1,271.50001665204763,33.499984823167324A6,6,0,1,1,283.50001665204763,33.499984823167324"></path><path id="kity_path_223" fill="none" stroke="gray" d="M273.00001665204763,33.499984823167324L282.00001665204763,33.499984823167324"></path></g><path id="node_outline4" fill="rgb(238, 243, 246)" stroke="rgb(115, 161, 191)" d="M287.5000178590417,20.499984823167324h63a3,3,0,0,1,3,3v20a3,3,0,0,1,-3,3h-63a3,3,0,0,1,-3,-3v-20a3,3,0,0,1,3,-3z" stroke-width="1"></path><g id="node_text4" fill="black"><text id="kity_text_109" text-rendering="inherit" font-size="14" dy=".8em" y="24.39998489277704" x="304.5000178590417">常识</text></g></g><g id="minder_node3"><g id="node_expander2" style="cursor: pointer;"><path id="kity_path_219" fill="white" stroke="gray" d="M393.5000215694308,33.499984823167324A6,6,0,1,1,381.5000215694308,33.499984823167324A6,6,0,1,1,393.5000215694308,33.499984823167324"></path><path id="kity_path_220" fill="none" stroke="gray" d="M383.0000215694308,33.499984823167324L392.0000215694308,33.499984823167324"></path></g><path id="node_outline3" fill="none" stroke="none" d="M398.50002228468657,22.499984823167324h59a5,5,0,0,1,5,5v12a5,5,0,0,1,-5,5h-59a5,5,0,0,1,-5,-5v-12a5,5,0,0,1,5,-5z"></path><g id="node_text3" fill="black"><text id="kity_text_107" text-rendering="inherit" font-size="12" dy=".8em" y="25.69998482444457" x="403.50002228468657">编程原则</text></g></g><g id="minder_node4"><g id="node_expander1" style="cursor: pointer;" display="none"><path id="kity_path_216" fill="white" stroke="gray" d="M502.50002644211054,33.499984823167324A6,6,0,1,1,490.50002644211054,33.499984823167324A6,6,0,1,1,502.50002644211054,33.499984823167324"></path><path id="kity_path_217" fill="none" stroke="gray"></path></g><path id="node_outline2" fill="none" stroke="none" d="M507.5000271573663,22.499984823167324h82a5,5,0,0,1,5,5v12a5,5,0,0,1,-5,5h-82a5,5,0,0,1,-5,-5v-12a5,5,0,0,1,5,-5z"></path><g id="node_text2" fill="black"><text id="kity_text_105" text-rendering="inherit" font-size="12" dy=".8em" y="25.69998482444457" x="512.5000271573663">开放闭合原则</text></g></g><g id="minder_node5"><g id="node_expander14" style="cursor: pointer;"><path id="kity_path_255" fill="white" stroke="gray" d="M283.50001665204763,253.4999946579337A6,6,0,1,1,271.50001665204763,253.4999946579337A6,6,0,1,1,283.50001665204763,253.4999946579337"></path><path id="kity_path_256" fill="none" stroke="gray" d="M273.00001665204763,253.4999946579337L282.00001665204763,253.4999946579337"></path></g><path id="node_outline15" fill="rgb(238, 243, 246)" stroke="rgb(115, 161, 191)" d="M287.5000178590417,240.4999946579337h62a3,3,0,0,1,3,3v20a3,3,0,0,1,-3,3h-62a3,3,0,0,1,-3,-3v-20a3,3,0,0,1,3,-3z" stroke-width="1"></path><g id="node_text15" fill="black"><text id="kity_text_131" text-rendering="inherit" font-size="14" dy=".8em" y="244.39999472754343" x="304.5000178590417">基础</text></g></g><g id="minder_node6"><g id="node_expander4" style="cursor: pointer;" display="none"><path id="kity_path_225" fill="white" stroke="gray" d="M392.50002152472734,97.49998768419027A6,6,0,1,1,380.50002152472734,97.49998768419027A6,6,0,1,1,392.50002152472734,97.49998768419027"></path><path id="kity_path_226" fill="none" stroke="gray"></path></g><path id="node_outline5" fill="none" stroke="none" d="M397.5000222399831,86.49998768419027h58a5,5,0,0,1,5,5v12a5,5,0,0,1,-5,5h-58a5,5,0,0,1,-5,-5v-12a5,5,0,0,1,5,-5z"></path><g id="node_text5" fill="black"><text id="kity_text_111" text-rendering="inherit" font-size="12" dy=".8em" y="89.69998768546752" x="402.5000222399831">命名规范</text></g></g><g id="minder_node7"><g id="node_expander5" style="cursor: pointer;" display="none"><path id="kity_path_228" fill="white" stroke="gray" d="M392.50002152472734,149.49999000877142A6,6,0,1,1,380.50002152472734,149.49999000877142A6,6,0,1,1,392.50002152472734,149.49999000877142"></path><path id="kity_path_229" fill="none" stroke="gray"></path></g><path id="node_outline6" fill="none" stroke="none" d="M397.5000222399831,138.49999000877142h47a5,5,0,0,1,5,5v12a5,5,0,0,1,-5,5h-47a5,5,0,0,1,-5,-5v-12a5,5,0,0,1,5,-5z"></path><g id="node_text6" fill="black"><text id="kity_text_113" text-rendering="inherit" font-size="12" dy=".8em" y="141.69999001004868" x="402.5000222399831">字面值</text></g></g><g id="minder_node8"><g id="node_expander9" style="cursor: pointer;"><path id="kity_path_240" fill="white" stroke="gray" d="M392.50002152472734,253.4999946579337A6,6,0,1,1,380.50002152472734,253.4999946579337A6,6,0,1,1,392.50002152472734,253.4999946579337"></path><path id="kity_path_241" fill="none" stroke="gray" d="M382.00002152472734,253.4999946579337L391.00002152472734,253.4999946579337"></path></g><path id="node_outline10" fill="none" stroke="none" d="M397.5000222399831,242.4999946579337h82a5,5,0,0,1,5,5v12a5,5,0,0,1,-5,5h-82a5,5,0,0,1,-5,-5v-12a5,5,0,0,1,5,-5z"></path><g id="node_text10" fill="black"><text id="kity_text_121" text-rendering="inherit" font-size="12" dy=".8em" y="245.69999465921097" x="402.5000222399831">基本数据类型</text></g></g><g id="minder_node9"><g id="node_expander6" style="cursor: pointer;" display="none"><path id="kity_path_231" fill="white" stroke="gray" d="M524.5000274255872,201.49999233335257A6,6,0,1,1,512.5000274255872,201.49999233335257A6,6,0,1,1,524.5000274255872,201.49999233335257"></path><path id="kity_path_232" fill="none" stroke="gray"></path></g><path id="node_outline7" fill="none" stroke="none" d="M529.5000281408429,190.49999233335257h35a5,5,0,0,1,5,5v12a5,5,0,0,1,-5,5h-35a5,5,0,0,1,-5,-5v-12a5,5,0,0,1,5,-5z"></path><g id="node_text7" fill="black"><text id="kity_text_115" text-rendering="inherit" font-size="12" dy=".8em" y="193.69999233462983" x="534.5000281408429">值域</text></g></g><g id="minder_node10"><g id="node_expander7" style="cursor: pointer;" display="none"><path id="kity_path_234" fill="white" stroke="gray" d="M524.5000274255872,253.4999946579337A6,6,0,1,1,512.5000274255872,253.4999946579337A6,6,0,1,1,524.5000274255872,253.4999946579337"></path><path id="kity_path_235" fill="none" stroke="gray"></path></g><path id="node_outline8" fill="none" stroke="none" d="M529.5000281408429,242.4999946579337h35a5,5,0,0,1,5,5v12a5,5,0,0,1,-5,5h-35a5,5,0,0,1,-5,-5v-12a5,5,0,0,1,5,-5z"></path><g id="node_text8" fill="black"><text id="kity_text_117" text-rendering="inherit" font-size="12" dy=".8em" y="245.69999465921097" x="534.5000281408429">运算</text></g></g><g id="minder_node11"><g id="node_expander8" style="cursor: pointer;" display="none"><path id="kity_path_237" fill="white" stroke="gray" d="M524.5000274255872,305.49999698251486A6,6,0,1,1,512.5000274255872,305.49999698251486A6,6,0,1,1,524.5000274255872,305.49999698251486"></path><path id="kity_path_238" fill="none" stroke="gray"></path></g><path id="node_outline9" fill="none" stroke="none" d="M529.5000281408429,294.49999698251486h35a5,5,0,0,1,5,5v12a5,5,0,0,1,-5,5h-35a5,5,0,0,1,-5,-5v-12a5,5,0,0,1,5,-5z"></path><g id="node_text9" fill="black"><text id="kity_text_119" text-rendering="inherit" font-size="12" dy=".8em" y="297.6999969837921" x="534.5000281408429">转换</text></g></g><g id="minder_node12"><g id="node_expander13" style="cursor: pointer;"><path id="kity_path_252" fill="white" stroke="gray" d="M392.50002152472734,409.50000163167715A6,6,0,1,1,380.50002152472734,409.50000163167715A6,6,0,1,1,392.50002152472734,409.50000163167715"></path><path id="kity_path_253" fill="none" stroke="gray" d="M382.00002152472734,409.50000163167715L391.00002152472734,409.50000163167715"></path></g><path id="node_outline14" fill="none" stroke="none" d="M397.5000222399831,398.50000163167715h83a5,5,0,0,1,5,5v12a5,5,0,0,1,-5,5h-83a5,5,0,0,1,-5,-5v-12a5,5,0,0,1,5,-5z"></path><g id="node_text14" fill="black"><text id="kity_text_129" text-rendering="inherit" font-size="12" dy=".8em" y="401.7000016329544" x="402.5000222399831">复合数据类型</text></g></g><g id="minder_node13"><g id="node_expander10" style="cursor: pointer;" display="none"><path id="kity_path_243" fill="white" stroke="gray" d="M525.5000274702907,357.499999307096A6,6,0,1,1,513.5000274702907,357.499999307096A6,6,0,1,1,525.5000274702907,357.499999307096"></path><path id="kity_path_244" fill="none" stroke="gray"></path></g><path id="node_outline11" fill="none" stroke="none" d="M530.5000281855464,346.499999307096h35a5,5,0,0,1,5,5v12a5,5,0,0,1,-5,5h-35a5,5,0,0,1,-5,-5v-12a5,5,0,0,1,5,-5z"></path><g id="node_text11" fill="black"><text id="kity_text_123" text-rendering="inherit" font-size="12" dy=".8em" y="349.69999930837326" x="535.5000281855464">数组</text></g></g><g id="minder_node14"><g id="node_expander11" style="cursor: pointer;" display="none"><path id="kity_path_246" fill="white" stroke="gray" d="M525.5000274702907,409.50000163167715A6,6,0,1,1,513.5000274702907,409.50000163167715A6,6,0,1,1,525.5000274702907,409.50000163167715"></path><path id="kity_path_247" fill="none" stroke="gray"></path></g><path id="node_outline12" fill="none" stroke="none" d="M530.5000281855464,398.50000163167715h35a5,5,0,0,1,5,5v12a5,5,0,0,1,-5,5h-35a5,5,0,0,1,-5,-5v-12a5,5,0,0,1,5,-5z"></path><g id="node_text12" fill="black"><text id="kity_text_125" text-rendering="inherit" font-size="12" dy=".8em" y="401.7000016329544" x="535.5000281855464">枚举</text></g></g><g id="minder_node15"><g id="node_expander12" style="cursor: pointer;" display="none"><path id="kity_path_249" fill="white" stroke="gray" d="M525.5000274702907,461.5000039562583A6,6,0,1,1,513.5000274702907,461.5000039562583A6,6,0,1,1,525.5000274702907,461.5000039562583"></path><path id="kity_path_250" fill="none" stroke="gray"></path></g><path id="node_outline13" fill="none" stroke="none" d="M530.5000281855464,450.5000039562583h35a5,5,0,0,1,5,5v12a5,5,0,0,1,-5,5h-35a5,5,0,0,1,-5,-5v-12a5,5,0,0,1,5,-5z"></path><g id="node_text13" fill="black"><text id="kity_text_127" text-rendering="inherit" font-size="12" dy=".8em" y="453.70000395753556" x="535.5000281855464">元组</text></g></g><g id="minder_node16"><g id="node_expander21" style="cursor: pointer;"><path id="kity_path_276" fill="white" stroke="gray" d="M283.50001665204763,640.5000119581819A6,6,0,1,1,271.50001665204763,640.5000119581819A6,6,0,1,1,283.50001665204763,640.5000119581819"></path><path id="kity_path_277" fill="none" stroke="gray" d="M273.00001665204763,640.5000119581819L282.00001665204763,640.5000119581819"></path></g><path id="node_outline22" fill="rgb(238, 243, 246)" stroke="rgb(115, 161, 191)" d="M287.5000178590417,627.5000119581819h62a3,3,0,0,1,3,3v20a3,3,0,0,1,-3,3h-62a3,3,0,0,1,-3,-3v-20a3,3,0,0,1,3,-3z" stroke-width="1"></path><g id="node_text22" fill="black"><text id="kity_text_145" text-rendering="inherit" font-size="14" dy=".8em" y="631.4000120277916" x="304.5000178590417">语句</text></g></g><g id="minder_node17"><g id="node_expander17" style="cursor: pointer;"><path id="kity_path_264" fill="white" stroke="gray" d="M392.50002152472734,549.5000078901649A6,6,0,1,1,380.50002152472734,549.5000078901649A6,6,0,1,1,392.50002152472734,549.5000078901649"></path><path id="kity_path_265" fill="none" stroke="gray" d="M382.00002152472734,549.5000078901649L391.00002152472734,549.5000078901649"></path></g><path id="node_outline18" fill="none" stroke="none" d="M397.5000222399831,538.5000078901649h59a5,5,0,0,1,5,5v12a5,5,0,0,1,-5,5h-59a5,5,0,0,1,-5,-5v-12a5,5,0,0,1,5,-5z" stroke-width="3"></path><g id="node_text18" fill="black"><text id="kity_text_137" text-rendering="inherit" font-size="12" dy=".8em" y="541.700007891442" x="402.5000222399831">顺序语句</text></g></g><g id="minder_node18"><g id="node_expander15" style="cursor: pointer;" display="none"><path id="kity_path_258" fill="white" stroke="gray" d="M501.50002639740705,523.5000067278743A6,6,0,1,1,489.50002639740705,523.5000067278743A6,6,0,1,1,501.50002639740705,523.5000067278743"></path><path id="kity_path_259" fill="none" stroke="gray"></path></g><path id="node_outline16" fill="none" stroke="none" d="M506.5000271126628,512.5000067278743h58a5,5,0,0,1,5,5v12a5,5,0,0,1,-5,5h-58a5,5,0,0,1,-5,-5v-12a5,5,0,0,1,5,-5z" stroke-width="3"></path><g id="node_text16" fill="black"><text id="kity_text_133" text-rendering="inherit" font-size="12" dy=".8em" y="515.7000067291515" x="511.5000271126628">声明语句</text></g></g><g id="minder_node19"><g id="node_expander16" style="cursor: pointer;" display="none"><path id="kity_path_261" fill="white" stroke="gray" d="M501.50002639740705,575.5000090524554A6,6,0,1,1,489.50002639740705,575.5000090524554A6,6,0,1,1,501.50002639740705,575.5000090524554"></path><path id="kity_path_262" fill="none" stroke="gray"></path></g><path id="node_outline17" fill="none" stroke="none" d="M506.5000271126628,564.5000090524554h58a5,5,0,0,1,5,5v12a5,5,0,0,1,-5,5h-58a5,5,0,0,1,-5,-5v-12a5,5,0,0,1,5,-5z" stroke-width="3"></path><g id="node_text17" fill="black"><text id="kity_text_135" text-rendering="inherit" font-size="12" dy=".8em" y="567.7000090537326" x="511.5000271126628">赋值语句</text></g></g><g id="minder_node20"><g id="node_expander18" style="cursor: pointer;" display="none"><path id="kity_path_267" fill="white" stroke="gray" d="M392.50002152472734,627.5000113770366A6,6,0,1,1,380.50002152472734,627.5000113770366A6,6,0,1,1,392.50002152472734,627.5000113770366"></path><path id="kity_path_268" fill="none" stroke="gray"></path></g><path id="node_outline19" fill="none" stroke="none" d="M397.5000222399831,616.5000113770366h59a5,5,0,0,1,5,5v12a5,5,0,0,1,-5,5h-59a5,5,0,0,1,-5,-5v-12a5,5,0,0,1,5,-5z" stroke-width="3"></path><g id="node_text19" fill="black"><text id="kity_text_139" text-rendering="inherit" font-size="12" dy=".8em" y="619.7000113783138" x="402.5000222399831">分支语句</text></g></g><g id="minder_node21"><g id="node_expander19" style="cursor: pointer;" display="none"><path id="kity_path_270" fill="white" stroke="gray" d="M392.50002152472734,679.5000137016177A6,6,0,1,1,380.50002152472734,679.5000137016177A6,6,0,1,1,392.50002152472734,679.5000137016177"></path><path id="kity_path_271" fill="none" stroke="gray"></path></g><path id="node_outline20" fill="none" stroke="none" d="M397.5000222399831,668.5000137016177h58a5,5,0,0,1,5,5v12a5,5,0,0,1,-5,5h-58a5,5,0,0,1,-5,-5v-12a5,5,0,0,1,5,-5z" stroke-width="3"></path><g id="node_text20" fill="black"><text id="kity_text_141" text-rendering="inherit" font-size="12" dy=".8em" y="671.7000137028949" x="402.5000222399831">循环语句</text></g></g><g id="minder_node22"><g id="node_expander20" style="cursor: pointer;" display="none"><path id="kity_path_273" fill="white" stroke="gray" d="M392.50002152472734,731.5000160261989A6,6,0,1,1,380.50002152472734,731.5000160261989A6,6,0,1,1,392.50002152472734,731.5000160261989"></path><path id="kity_path_274" fill="none" stroke="gray"></path></g><path id="node_outline21" fill="none" stroke="none" d="M397.5000222399831,720.5000160261989h58a5,5,0,0,1,5,5v12a5,5,0,0,1,-5,5h-58a5,5,0,0,1,-5,-5v-12a5,5,0,0,1,5,-5z" stroke-width="3"></path><g id="node_text21" fill="black"><text id="kity_text_143" text-rendering="inherit" font-size="12" dy=".8em" y="723.7000160274761" x="402.5000222399831">异常控制</text></g></g><g id="minder_node23"><g id="node_expander28" style="cursor: pointer;"><path id="kity_path_297" fill="white" stroke="gray" d="M283.50001665204763,923.5000246092677A6,6,0,1,1,271.50001665204763,923.5000246092677A6,6,0,1,1,283.50001665204763,923.5000246092677"></path><path id="kity_path_298" fill="none" stroke="gray" d="M273.00001665204763,923.5000246092677L282.00001665204763,923.5000246092677"></path></g><path id="node_outline29" fill="rgb(238, 243, 246)" stroke="rgb(115, 161, 191)" d="M287.5000178590417,910.5000246092677h63a3,3,0,0,1,3,3v20a3,3,0,0,1,-3,3h-63a3,3,0,0,1,-3,-3v-20a3,3,0,0,1,3,-3z" stroke-width="1"></path><g id="node_text29" fill="black"><text id="kity_text_159" text-rendering="inherit" font-size="14" dy=".8em" y="914.4000246788775" x="304.5000178590417">模块</text></g></g><g id="minder_node24"><g id="node_expander25" style="cursor: pointer;"><path id="kity_path_288" fill="white" stroke="gray" d="M393.5000215694308,845.500021122396A6,6,0,1,1,381.5000215694308,845.500021122396A6,6,0,1,1,393.5000215694308,845.500021122396"></path><path id="kity_path_289" fill="none" stroke="gray" d="M383.0000215694308,845.500021122396L392.0000215694308,845.500021122396"></path></g><path id="node_outline26" fill="none" stroke="none" d="M398.50002228468657,834.500021122396h58a5,5,0,0,1,5,5v12a5,5,0,0,1,-5,5h-58a5,5,0,0,1,-5,-5v-12a5,5,0,0,1,5,-5z"></path><g id="node_text26" fill="black"><text id="kity_text_153" text-rendering="inherit" font-size="12" dy=".8em" y="837.7000211236732" x="403.50002228468657">命名空间</text></g></g><g id="minder_node25"><g id="node_expander22" style="cursor: pointer;" display="none"><path id="kity_path_279" fill="white" stroke="gray" d="M501.50002639740705,793.5000187978148A6,6,0,1,1,489.50002639740705,793.5000187978148A6,6,0,1,1,501.50002639740705,793.5000187978148"></path><path id="kity_path_280" fill="none" stroke="gray"></path></g><path id="node_outline23" fill="none" stroke="none" d="M506.5000271126628,782.5000187978148h58a5,5,0,0,1,5,5v12a5,5,0,0,1,-5,5h-58a5,5,0,0,1,-5,-5v-12a5,5,0,0,1,5,-5z" stroke-width="3"></path><g id="node_text23" fill="black"><text id="kity_text_147" text-rendering="inherit" font-size="12" dy=".8em" y="785.700018799092" x="511.5000271126628">组织模块</text></g></g><g id="minder_node26"><g id="node_expander23" style="cursor: pointer;" display="none"><path id="kity_path_282" fill="white" stroke="gray" d="M501.50002639740705,845.500021122396A6,6,0,1,1,489.50002639740705,845.500021122396A6,6,0,1,1,501.50002639740705,845.500021122396"></path><path id="kity_path_283" fill="none" stroke="gray"></path></g><path id="node_outline24" fill="none" stroke="none" d="M506.5000271126628,834.500021122396h59a5,5,0,0,1,5,5v12a5,5,0,0,1,-5,5h-59a5,5,0,0,1,-5,-5v-12a5,5,0,0,1,5,-5z" stroke-width="3"></path><g id="node_text24" fill="black"><text id="kity_text_149" text-rendering="inherit" font-size="12" dy=".8em" y="837.7000211236732" x="511.5000271126628">导入名称</text></g></g><g id="minder_node27"><g id="node_expander24" style="cursor: pointer;" display="none"><path id="kity_path_285" fill="white" stroke="gray" d="M501.50002639740705,897.5000234469771A6,6,0,1,1,489.50002639740705,897.5000234469771A6,6,0,1,1,501.50002639740705,897.5000234469771"></path><path id="kity_path_286" fill="none" stroke="gray"></path></g><path id="node_outline25" fill="none" stroke="none" d="M506.5000271126628,886.5000234469771h59a5,5,0,0,1,5,5v12a5,5,0,0,1,-5,5h-59a5,5,0,0,1,-5,-5v-12a5,5,0,0,1,5,-5z" stroke-width="3"></path><g id="node_text25" fill="black"><text id="kity_text_151" text-rendering="inherit" font-size="12" dy=".8em" y="889.7000234482543" x="511.5000271126628">导出名称</text></g></g><g id="minder_node28"><g id="node_expander26" style="cursor: pointer;" display="none"><path id="kity_path_291" fill="white" stroke="gray" d="M393.5000215694308,949.5000257715583A6,6,0,1,1,381.5000215694308,949.5000257715583A6,6,0,1,1,393.5000215694308,949.5000257715583"></path><path id="kity_path_292" fill="none" stroke="gray"></path></g><path id="node_outline27" fill="none" stroke="none" d="M398.50002228468657,938.5000257715583h35a5,5,0,0,1,5,5v12a5,5,0,0,1,-5,5h-35a5,5,0,0,1,-5,-5v-12a5,5,0,0,1,5,-5z"></path><g id="node_text27" fill="black"><text id="kity_text_155" text-rendering="inherit" font-size="12" dy=".8em" y="941.7000257728355" x="403.50002228468657">函数</text></g></g><g id="minder_node29"><g id="node_expander27" style="cursor: pointer;" display="none"><path id="kity_path_294" fill="white" stroke="gray" d="M393.5000215694308,1001.5000280961394A6,6,0,1,1,381.5000215694308,1001.5000280961394A6,6,0,1,1,393.5000215694308,1001.5000280961394"></path><path id="kity_path_295" fill="none" stroke="gray"></path></g><path id="node_outline28" fill="none" stroke="none" d="M398.50002228468657,990.5000280961394h23a5,5,0,0,1,5,5v12a5,5,0,0,1,-5,5h-23a5,5,0,0,1,-5,-5v-12a5,5,0,0,1,5,-5z"></path><g id="node_text28" fill="black"><text id="kity_text_157" text-rendering="inherit" font-size="12" dy=".8em" y="993.7000280974166" x="403.50002228468657">类</text></g></g><g id="minder_node30"><g id="node_expander32" style="cursor: pointer;"><path id="kity_path_309" fill="white" stroke="gray" d="M283.50001665204763,1115.5000331923366A6,6,0,1,1,271.50001665204763,1115.5000331923366A6,6,0,1,1,283.50001665204763,1115.5000331923366"></path><path id="kity_path_310" fill="none" stroke="gray" d="M273.00001665204763,1115.5000331923366L282.00001665204763,1115.5000331923366"></path></g><path id="node_outline33" fill="rgb(238, 243, 246)" stroke="rgb(115, 161, 191)" d="M287.5000178590417,1102.5000331923366h62a3,3,0,0,1,3,3v20a3,3,0,0,1,-3,3h-62a3,3,0,0,1,-3,-3v-20a3,3,0,0,1,3,-3z" stroke-width="1"></path><g id="node_text33" fill="black"><text id="kity_text_167" text-rendering="inherit" font-size="14" dy=".8em" y="1106.4000332619462" x="304.5000178590417">工具</text></g></g><g id="minder_node31"><g id="node_expander29" style="cursor: pointer;" display="none"><path id="kity_path_300" fill="white" stroke="gray" d="M392.50002152472734,1063.5000308677554A6,6,0,1,1,380.50002152472734,1063.5000308677554A6,6,0,1,1,392.50002152472734,1063.5000308677554"></path><path id="kity_path_301" fill="none" stroke="gray"></path></g><path id="node_outline30" fill="none" stroke="none" d="M397.5000222399831,1052.5000308677554h82a5,5,0,0,1,5,5v12a5,5,0,0,1,-5,5h-82a5,5,0,0,1,-5,-5v-12a5,5,0,0,1,5,-5z"></path><g id="node_text30" fill="black"><text id="kity_text_161" text-rendering="inherit" font-size="12" dy=".8em" y="1055.7000308690326" x="402.5000222399831">输入输出工具</text></g></g><g id="minder_node32"><g id="node_expander30" style="cursor: pointer;" display="none"><path id="kity_path_303" fill="white" stroke="gray" d="M392.50002152472734,1115.5000331923366A6,6,0,1,1,380.50002152472734,1115.5000331923366A6,6,0,1,1,392.50002152472734,1115.5000331923366"></path><path id="kity_path_304" fill="none" stroke="gray"></path></g><path id="node_outline31" fill="none" stroke="none" d="M397.5000222399831,1104.5000331923366h70a5,5,0,0,1,5,5v12a5,5,0,0,1,-5,5h-70a5,5,0,0,1,-5,-5v-12a5,5,0,0,1,5,-5z"></path><g id="node_text31" fill="black"><text id="kity_text_163" text-rendering="inherit" font-size="12" dy=".8em" y="1107.7000331936138" x="402.5000222399831">字符串工具</text></g></g><g id="minder_node33"><g id="node_expander31" style="cursor: pointer;" display="none"><path id="kity_path_306" fill="white" stroke="gray" d="M392.50002152472734,1167.5000355169177A6,6,0,1,1,380.50002152472734,1167.5000355169177A6,6,0,1,1,392.50002152472734,1167.5000355169177"></path><path id="kity_path_307" fill="none" stroke="gray"></path></g><path id="node_outline32" fill="none" stroke="none" d="M397.5000222399831,1156.5000355169177h59a5,5,0,0,1,5,5v12a5,5,0,0,1,-5,5h-59a5,5,0,0,1,-5,-5v-12a5,5,0,0,1,5,-5z"></path><g id="node_text32" fill="black"><text id="kity_text_165" text-rendering="inherit" font-size="12" dy=".8em" y="1159.700035518195" x="402.5000222399831">数组工具</text></g></g><g id="minder_node34"><g id="node_expander37" style="cursor: pointer;"><path id="kity_path_324" fill="white" stroke="gray" d="M283.50001665204763,1281.5000406131148A6,6,0,1,1,271.50001665204763,1281.5000406131148A6,6,0,1,1,283.50001665204763,1281.5000406131148"></path><path id="kity_path_325" fill="none" stroke="gray" d="M273.00001665204763,1281.5000406131148L282.00001665204763,1281.5000406131148"></path></g><path id="node_outline38" fill="rgb(238, 243, 246)" stroke="rgb(115, 161, 191)" d="M287.5000178590417,1268.5000406131148h62a3,3,0,0,1,3,3v20a3,3,0,0,1,-3,3h-62a3,3,0,0,1,-3,-3v-20a3,3,0,0,1,3,-3z" stroke-width="1"></path><g id="node_text38" fill="black"><text id="kity_text_177" text-rendering="inherit" font-size="14" dy=".8em" y="1272.4000406827245" x="304.5000178590417">类库</text></g></g><g id="minder_node35"><g id="node_expander34" style="cursor: pointer;"><path id="kity_path_315" fill="white" stroke="gray" d="M392.50002152472734,1229.5000382885337A6,6,0,1,1,380.50002152472734,1229.5000382885337A6,6,0,1,1,392.50002152472734,1229.5000382885337"></path><path id="kity_path_316" fill="none" stroke="gray" d="M382.00002152472734,1229.5000382885337L391.00002152472734,1229.5000382885337"></path></g><path id="node_outline35" fill="none" stroke="none" d="M397.5000222399831,1218.5000382885337h35a5,5,0,0,1,5,5v12a5,5,0,0,1,-5,5h-35a5,5,0,0,1,-5,-5v-12a5,5,0,0,1,5,-5z"></path><g id="node_text35" fill="black"><text id="kity_text_171" text-rendering="inherit" font-size="12" dy=".8em" y="1221.700038289811" x="402.5000222399831">数学</text></g></g><g id="minder_node36"><g id="node_expander33" style="cursor: pointer;" display="none"><path id="kity_path_312" fill="white" stroke="gray" d="M477.50002532452345,1229.5000382885337A6,6,0,1,1,465.50002532452345,1229.5000382885337A6,6,0,1,1,477.50002532452345,1229.5000382885337"></path><path id="kity_path_313" fill="none" stroke="gray"></path></g><path id="node_outline34" fill="none" stroke="none" d="M482.5000260397792,1218.5000382885337h71a5,5,0,0,1,5,5v12a5,5,0,0,1,-5,5h-71a5,5,0,0,1,-5,-5v-12a5,5,0,0,1,5,-5z"></path><g id="node_text34" fill="black"><text id="kity_text_169" text-rendering="inherit" font-size="12" dy=".8em" y="1221.700038289811" x="487.5000260397792">高精度运算</text></g></g><g id="minder_node37"><g id="node_expander35" style="cursor: pointer;" display="none"><path id="kity_path_318" fill="white" stroke="gray" d="M392.50002152472734,1281.5000406131148A6,6,0,1,1,380.50002152472734,1281.5000406131148A6,6,0,1,1,392.50002152472734,1281.5000406131148"></path><path id="kity_path_319" fill="none" stroke="gray"></path></g><path id="node_outline36" fill="none" stroke="none" d="M397.5000222399831,1270.5000406131148h70a5,5,0,0,1,5,5v12a5,5,0,0,1,-5,5h-70a5,5,0,0,1,-5,-5v-12a5,5,0,0,1,5,-5z"></path><g id="node_text36" fill="black"><text id="kity_text_173" text-rendering="inherit" font-size="12" dy=".8em" y="1273.700040614392" x="402.5000222399831">日期和时间</text></g></g><g id="minder_node38"><g id="node_expander36" style="cursor: pointer;" display="none"><path id="kity_path_321" fill="white" stroke="gray" d="M392.50002152472734,1333.500042937696A6,6,0,1,1,380.50002152472734,1333.500042937696A6,6,0,1,1,392.50002152472734,1333.500042937696"></path><path id="kity_path_322" fill="none" stroke="gray"></path></g><path id="node_outline37" fill="none" stroke="none" d="M397.5000222399831,1322.500042937696h34a5,5,0,0,1,5,5v12a5,5,0,0,1,-5,5h-34a5,5,0,0,1,-5,-5v-12a5,5,0,0,1,5,-5z"></path><g id="node_text37" fill="black"><text id="kity_text_175" text-rendering="inherit" font-size="12" dy=".8em" y="1325.7000429389732" x="402.5000222399831">网络</text></g></g></g></g></svg>