<svg id="kity_svg_6" xmlns="http://www.w3.org/2000/svg" xmlns:xlink="http://www.w3.org/1999/xlink" version="1.1" width="746" height="1520" style="background: rgb(251, 251, 251); visibility: visible;" viewBox="0 0 746 1520"><defs id="kity_defs_7"><linearGradient id="kity_linearGradient_17" x1="0" y1="0" x2="0" y2="1"><stop id="kity_stop_18" offset="0" stop-color="rgb(255, 255, 255)"></stop><stop id="kity_stop_19" offset="1" stop-color="rgb(204, 204, 204)"></stop></linearGradient><marker id="kity_marker_2" orient="auto" refX="6" refY="0" viewBox="-7 -7 14 14" markerWidth="7" markerHeight="7" markerUnits="userSpaceOnUse"><path id="kity_path_3" fill="rgb(115, 161, 191)" stroke="none" d="M6,0A6,6,0,1,1,-6,0A6,6,0,1,1,6,0"></path></marker></defs><g id="kity_g_8"><g id="minder1" text-rendering="optimize-speed"><g id="minder_connect_group1"><path id="kity_path_31" fill="none" stroke="rgb(115, 161, 191)" stroke-width="1" d="M92.50001781433821,722.5000177696347A190,689,0,0,1,282.5000178143382,33.500017769634724"></path><path id="kity_path_33" fill="none" stroke="rgb(115, 161, 191)" stroke-width="1" d="M353.5000178143382,33.500017769634724C373.5000178143382,33.500017769634724,373.5000178143382,33.500017769634724,393.5000178143382,33.500017769634724"></path><path id="kity_path_35" fill="none" stroke="rgb(115, 161, 191)" stroke-width="1" d="M462.5000178143382,33.500017769634724C482.5000178143382,33.500017769634724,482.5000178143382,33.500017769634724,502.5000178143382,33.500017769634724"></path><path id="kity_path_37" fill="none" stroke="rgb(115, 161, 191)" stroke-width="1" d="M92.50001781433821,722.5000177696347A190,417,0,0,1,282.5000178143382,305.5000177696347"></path><path id="kity_path_39" fill="none" stroke="rgb(115, 161, 191)" stroke-width="1" d="M352.5000178143382,305.5000177696347C372.5000178143382,305.5000177696347,372.5000178143382,97.50001776963472,392.5000178143382,97.50001776963472"></path><path id="kity_path_41" fill="none" stroke="rgb(115, 161, 191)" stroke-width="1" d="M352.5000178143382,305.5000177696347C372.5000178143382,305.5000177696347,372.5000178143382,149.50001776963472,392.5000178143382,149.50001776963472"></path><path id="kity_path_43" fill="none" stroke="rgb(115, 161, 191)" stroke-width="1" d="M352.5000178143382,305.5000177696347C372.5000178143382,305.5000177696347,372.5000178143382,292.5000177696347,392.5000178143382,292.5000177696347"></path><path id="kity_path_45" fill="none" stroke="rgb(115, 161, 191)" stroke-width="1" d="M484.5000178143382,292.5000177696347C504.5000178143382,292.5000177696347,504.5000178143382,201.50001776963472,524.5000178143382,201.50001776963472"></path><path id="kity_path_47" fill="none" stroke="rgb(115, 161, 191)" stroke-width="1" d="M484.5000178143382,292.5000177696347C504.5000178143382,292.5000177696347,504.5000178143382,253.50001776963472,524.5000178143382,253.50001776963472"></path><path id="kity_path_49" fill="none" stroke="rgb(115, 161, 191)" stroke-width="1" d="M484.5000178143382,292.5000177696347C504.5000178143382,292.5000177696347,504.5000178143382,305.5000177696347,524.5000178143382,305.5000177696347"></path><path id="kity_path_51" fill="none" stroke="rgb(115, 161, 191)" stroke-width="1" d="M484.5000178143382,292.5000177696347C504.5000178143382,292.5000177696347,504.5000178143382,383.5000177696347,524.5000178143382,383.5000177696347"></path><path id="kity_path_53" fill="none" stroke="rgb(115, 161, 191)" stroke-width="1" d="M593.5000178143382,383.5000177696347C613.5000178143382,383.5000177696347,613.5000178143382,357.5000177696347,633.5000178143382,357.5000177696347"></path><path id="kity_path_55" fill="none" stroke="rgb(115, 161, 191)" stroke-width="1" d="M593.5000178143382,383.5000177696347C613.5000178143382,383.5000177696347,613.5000178143382,409.5000177696347,633.5000178143382,409.5000177696347"></path><path id="kity_path_57" fill="none" stroke="rgb(115, 161, 191)" stroke-width="1" d="M352.5000178143382,305.5000177696347C372.5000178143382,305.5000177696347,372.5000178143382,513.5000177696347,392.5000178143382,513.5000177696347"></path><path id="kity_path_59" fill="none" stroke="rgb(115, 161, 191)" stroke-width="1" d="M485.5000178143382,513.5000177696347C505.5000178143382,513.5000177696347,505.5000178143382,461.5000177696347,525.5000178143382,461.5000177696347"></path><path id="kity_path_61" fill="none" stroke="rgb(115, 161, 191)" stroke-width="1" d="M485.5000178143382,513.5000177696347C505.5000178143382,513.5000177696347,505.5000178143382,513.5000177696347,525.5000178143382,513.5000177696347"></path><path id="kity_path_63" fill="none" stroke="rgb(115, 161, 191)" stroke-width="1" d="M485.5000178143382,513.5000177696347C505.5000178143382,513.5000177696347,505.5000178143382,565.5000177696347,525.5000178143382,565.5000177696347"></path><path id="kity_path_65" fill="none" stroke="rgb(115, 161, 191)" stroke-width="1" d="M92.50001781433821,722.5000177696347A190,22,0,0,0,282.5000178143382,744.5000177696347"></path><path id="kity_path_67" fill="none" stroke="rgb(115, 161, 191)" stroke-width="1" d="M352.5000178143382,744.5000177696347C372.5000178143382,744.5000177696347,372.5000178143382,653.5000177696347,392.5000178143382,653.5000177696347"></path><path id="kity_path_69" fill="none" stroke="rgb(115, 161, 191)" stroke-width="1" d="M461.5000178143382,653.5000177696347C481.5000178143382,653.5000177696347,481.5000178143382,627.5000177696347,501.5000178143382,627.5000177696347"></path><path id="kity_path_71" fill="none" stroke="rgb(115, 161, 191)" stroke-width="1" d="M461.5000178143382,653.5000177696347C481.5000178143382,653.5000177696347,481.5000178143382,679.5000177696347,501.5000178143382,679.5000177696347"></path><path id="kity_path_73" fill="none" stroke="rgb(115, 161, 191)" stroke-width="1" d="M352.5000178143382,744.5000177696347C372.5000178143382,744.5000177696347,372.5000178143382,731.5000177696347,392.5000178143382,731.5000177696347"></path><path id="kity_path_75" fill="none" stroke="rgb(115, 161, 191)" stroke-width="1" d="M352.5000178143382,744.5000177696347C372.5000178143382,744.5000177696347,372.5000178143382,783.5000177696347,392.5000178143382,783.5000177696347"></path><path id="kity_path_77" fill="none" stroke="rgb(115, 161, 191)" stroke-width="1" d="M352.5000178143382,744.5000177696347C372.5000178143382,744.5000177696347,372.5000178143382,835.5000177696347,392.5000178143382,835.5000177696347"></path><path id="kity_path_79" fill="none" stroke="rgb(115, 161, 191)" stroke-width="1" d="M92.50001781433821,722.5000177696347A190,305,0,0,0,282.5000178143382,1027.5000177696347"></path><path id="kity_path_81" fill="none" stroke="rgb(115, 161, 191)" stroke-width="1" d="M353.5000178143382,1027.5000177696347C373.5000178143382,1027.5000177696347,373.5000178143382,949.5000177696347,393.5000178143382,949.5000177696347"></path><path id="kity_path_83" fill="none" stroke="rgb(115, 161, 191)" stroke-width="1" d="M461.5000178143382,949.5000177696347C481.5000178143382,949.5000177696347,481.5000178143382,897.5000177696347,501.5000178143382,897.5000177696347"></path><path id="kity_path_85" fill="none" stroke="rgb(115, 161, 191)" stroke-width="1" d="M461.5000178143382,949.5000177696347C481.5000178143382,949.5000177696347,481.5000178143382,949.5000177696347,501.5000178143382,949.5000177696347"></path><path id="kity_path_87" fill="none" stroke="rgb(115, 161, 191)" stroke-width="1" d="M461.5000178143382,949.5000177696347C481.5000178143382,949.5000177696347,481.5000178143382,1001.5000177696347,501.5000178143382,1001.5000177696347"></path><path id="kity_path_89" fill="none" stroke="rgb(115, 161, 191)" stroke-width="1" d="M353.5000178143382,1027.5000177696347C373.5000178143382,1027.5000177696347,373.5000178143382,1053.5000177696347,393.5000178143382,1053.5000177696347"></path><path id="kity_path_91" fill="none" stroke="rgb(115, 161, 191)" stroke-width="1" d="M353.5000178143382,1027.5000177696347C373.5000178143382,1027.5000177696347,373.5000178143382,1105.5000177696347,393.5000178143382,1105.5000177696347"></path><path id="kity_path_93" fill="none" stroke="rgb(115, 161, 191)" stroke-width="1" d="M92.50001781433821,722.5000177696347A190,497,0,0,0,282.5000178143382,1219.5000177696347"></path><path id="kity_path_95" fill="none" stroke="rgb(115, 161, 191)" stroke-width="1" d="M352.5000178143382,1219.5000177696347C372.5000178143382,1219.5000177696347,372.5000178143382,1167.5000177696347,392.5000178143382,1167.5000177696347"></path><path id="kity_path_97" fill="none" stroke="rgb(115, 161, 191)" stroke-width="1" d="M352.5000178143382,1219.5000177696347C372.5000178143382,1219.5000177696347,372.5000178143382,1219.5000177696347,392.5000178143382,1219.5000177696347"></path><path id="kity_path_99" fill="none" stroke="rgb(115, 161, 191)" stroke-width="1" d="M352.5000178143382,1219.5000177696347C372.5000178143382,1219.5000177696347,372.5000178143382,1271.5000177696347,392.5000178143382,1271.5000177696347"></path><path id="kity_path_101" fill="none" stroke="rgb(115, 161, 191)" stroke-width="1" d="M92.50001781433821,722.5000177696347A190,689,0,0,0,282.5000178143382,1411.5000177696347"></path><path id="kity_path_103" fill="none" stroke="rgb(115, 161, 191)" stroke-width="1" d="M352.5000178143382,1411.5000177696347C372.5000178143382,1411.5000177696347,372.5000178143382,1333.5000177696347,392.5000178143382,1333.5000177696347"></path><path id="kity_path_105" fill="none" stroke="rgb(115, 161, 191)" stroke-width="1" d="M437.5000178143382,1333.5000177696347C457.5000178143382,1333.5000177696347,457.5000178143382,1333.5000177696347,477.5000178143382,1333.5000177696347"></path><path id="kity_path_107" fill="none" stroke="rgb(115, 161, 191)" stroke-width="1" d="M352.5000178143382,1411.5000177696347C372.5000178143382,1411.5000177696347,372.5000178143382,1385.5000177696347,392.5000178143382,1385.5000177696347"></path><path id="kity_path_109" fill="none" stroke="rgb(115, 161, 191)" stroke-width="1" d="M352.5000178143382,1411.5000177696347C372.5000178143382,1411.5000177696347,372.5000178143382,1437.5000177696347,392.5000178143382,1437.5000177696347"></path><path id="kity_path_111" fill="none" stroke="rgb(115, 161, 191)" stroke-width="1" d="M352.5000178143382,1411.5000177696347C372.5000178143382,1411.5000177696347,372.5000178143382,1489.5000177696347,392.5000178143382,1489.5000177696347"></path></g><g id="minder_node1"><path id="node_outline1" fill="rgb(115, 161, 191)" stroke="rgb(115, 161, 191)" d="M25.500017814338207,702.5000177696347h134a5,5,0,0,1,5,5v30a5,5,0,0,1,-5,5h-134a5,5,0,0,1,-5,-5v-30a5,5,0,0,1,5,-5z" stroke-width="3"></path><g id="node_text1" fill="white"><text id="kity_text_22" text-rendering="inherit" font-size="16" dy=".8em" y="712.1000174988593" x="44.50001781433821">编程语言导图</text></g></g><g id="kity_g_12"><path id="kity_path_13" fill="none" stroke="none" d="M44.50001781433821,722.5000177696347h0v0h0z"></path></g><g id="kity_g_14"><path id="kity_path_15" fill="none" stroke="none" d="M44.50001781433821,722.5000177696347h0v0h0z"></path><path id="kity_path_16" fill="none" stroke="none"></path></g><g id="minder_node2"><g id="node_expander3" style="cursor: pointer;"><path id="kity_path_242" fill="white" stroke="gray" d="M283.5000282302499,33.499986968934536A6,6,0,1,1,271.5000282302499,33.499986968934536A6,6,0,1,1,283.5000282302499,33.499986968934536"></path><path id="kity_path_243" fill="none" stroke="gray" d="M273.0000282302499,33.499986968934536L282.0000282302499,33.499986968934536"></path></g><path id="node_outline4" fill="rgb(238, 243, 246)" stroke="rgb(115, 161, 191)" d="M287.50002943724394,20.499986968934536h63a3,3,0,0,1,3,3v20a3,3,0,0,1,-3,3h-63a3,3,0,0,1,-3,-3v-20a3,3,0,0,1,3,-3z" stroke-width="1"></path><g id="node_text4" fill="black"><text id="kity_text_117" text-rendering="inherit" font-size="14" dy=".8em" y="24.399987038544253" x="304.50002943724394">常识</text></g></g><g id="minder_node3"><g id="node_expander2" style="cursor: pointer;"><path id="kity_path_239" fill="white" stroke="gray" d="M393.5000331476331,33.499986968934536A6,6,0,1,1,381.5000331476331,33.499986968934536A6,6,0,1,1,393.5000331476331,33.499986968934536"></path><path id="kity_path_240" fill="none" stroke="gray" d="M383.0000331476331,33.499986968934536L392.0000331476331,33.499986968934536"></path></g><path id="node_outline3" fill="none" stroke="none" d="M398.5000338628888,22.499986968934536h59a5,5,0,0,1,5,5v12a5,5,0,0,1,-5,5h-59a5,5,0,0,1,-5,-5v-12a5,5,0,0,1,5,-5z"></path><g id="node_text3" fill="black"><text id="kity_text_115" text-rendering="inherit" font-size="12" dy=".8em" y="25.699986970211782" x="403.5000338628888">编程原则</text></g></g><g id="minder_node4"><g id="node_expander1" display="none" style="cursor: pointer;"><path id="kity_path_236" fill="white" stroke="gray" d="M502.5000380203128,33.499986968934536A6,6,0,1,1,490.5000380203128,33.499986968934536A6,6,0,1,1,502.5000380203128,33.499986968934536"></path><path id="kity_path_237" fill="none" stroke="gray"></path></g><path id="node_outline2" fill="none" stroke="none" d="M507.5000387355685,22.499986968934536h82a5,5,0,0,1,5,5v12a5,5,0,0,1,-5,5h-82a5,5,0,0,1,-5,-5v-12a5,5,0,0,1,5,-5z"></path><g id="node_text2" fill="black"><text id="kity_text_113" text-rendering="inherit" font-size="12" dy=".8em" y="25.699986970211782" x="512.5000387355685">开放闭合原则</text></g></g><g id="minder_node5"><g id="node_expander17" style="cursor: pointer;"><path id="kity_path_284" fill="white" stroke="gray" d="M283.5000282302499,305.49999912828207A6,6,0,1,1,271.5000282302499,305.49999912828207A6,6,0,1,1,283.5000282302499,305.49999912828207"></path><path id="kity_path_285" fill="none" stroke="gray" d="M273.0000282302499,305.49999912828207L282.0000282302499,305.49999912828207"></path></g><path id="node_outline18" fill="rgb(238, 243, 246)" stroke="rgb(115, 161, 191)" d="M287.50002943724394,292.49999912828207h62a3,3,0,0,1,3,3v20a3,3,0,0,1,-3,3h-62a3,3,0,0,1,-3,-3v-20a3,3,0,0,1,3,-3z" stroke-width="1"></path><g id="node_text18" fill="black"><text id="kity_text_145" text-rendering="inherit" font-size="14" dy=".8em" y="296.3999991978918" x="304.50002943724394">基础</text></g></g><g id="minder_node6"><g id="node_expander4" display="none" style="cursor: pointer;"><path id="kity_path_245" fill="white" stroke="gray" d="M392.5000331029296,97.49998982995749A6,6,0,1,1,380.5000331029296,97.49998982995749A6,6,0,1,1,392.5000331029296,97.49998982995749"></path><path id="kity_path_246" fill="none" stroke="gray"></path></g><path id="node_outline5" fill="none" stroke="none" d="M397.50003381818533,86.49998982995749h58a5,5,0,0,1,5,5v12a5,5,0,0,1,-5,5h-58a5,5,0,0,1,-5,-5v-12a5,5,0,0,1,5,-5z"></path><g id="node_text5" fill="black"><text id="kity_text_119" text-rendering="inherit" font-size="12" dy=".8em" y="89.69998983123473" x="402.50003381818533">命名规范</text></g></g><g id="minder_node7"><g id="node_expander5" display="none" style="cursor: pointer;"><path id="kity_path_248" fill="white" stroke="gray" d="M392.5000331029296,149.49999215453863A6,6,0,1,1,380.5000331029296,149.49999215453863A6,6,0,1,1,392.5000331029296,149.49999215453863"></path><path id="kity_path_249" fill="none" stroke="gray"></path></g><path id="node_outline6" fill="none" stroke="none" d="M397.50003381818533,138.49999215453863h35a5,5,0,0,1,5,5v12a5,5,0,0,1,-5,5h-35a5,5,0,0,1,-5,-5v-12a5,5,0,0,1,5,-5z"></path><g id="node_text6" fill="black"><text id="kity_text_121" text-rendering="inherit" font-size="12" dy=".8em" y="141.6999921558159" x="402.50003381818533">注释</text></g></g><g id="minder_node8"><g id="node_expander12" style="cursor: pointer;"><path id="kity_path_269" fill="white" stroke="gray" d="M392.5000331029296,292.4999985471368A6,6,0,1,1,380.5000331029296,292.4999985471368A6,6,0,1,1,392.5000331029296,292.4999985471368"></path><path id="kity_path_270" fill="none" stroke="gray" d="M382.0000331029296,292.4999985471368L391.0000331029296,292.4999985471368"></path></g><path id="node_outline13" fill="none" stroke="none" d="M397.50003381818533,281.4999985471368h82a5,5,0,0,1,5,5v12a5,5,0,0,1,-5,5h-82a5,5,0,0,1,-5,-5v-12a5,5,0,0,1,5,-5z"></path><g id="node_text13" fill="black"><text id="kity_text_135" text-rendering="inherit" font-size="12" dy=".8em" y="284.69999854841404" x="402.50003381818533">基本数据类型</text></g></g><g id="minder_node9"><g id="node_expander6" display="none" style="cursor: pointer;"><path id="kity_path_251" fill="white" stroke="gray" d="M524.5000390037894,201.49999447911978A6,6,0,1,1,512.5000390037894,201.49999447911978A6,6,0,1,1,524.5000390037894,201.49999447911978"></path><path id="kity_path_252" fill="none" stroke="gray"></path></g><path id="node_outline7" fill="none" stroke="none" d="M529.5000397190452,190.49999447911978h47a5,5,0,0,1,5,5v12a5,5,0,0,1,-5,5h-47a5,5,0,0,1,-5,-5v-12a5,5,0,0,1,5,-5z"></path><g id="node_text7" fill="black"><text id="kity_text_123" text-rendering="inherit" font-size="12" dy=".8em" y="193.69999448039704" x="534.5000397190452">字面值</text></g></g><g id="minder_node10"><g id="node_expander7" display="none" style="cursor: pointer;"><path id="kity_path_254" fill="white" stroke="gray" d="M524.5000390037894,253.49999680370092A6,6,0,1,1,512.5000390037894,253.49999680370092A6,6,0,1,1,524.5000390037894,253.49999680370092"></path><path id="kity_path_255" fill="none" stroke="gray"></path></g><path id="node_outline8" fill="none" stroke="none" d="M529.5000397190452,242.49999680370092h35a5,5,0,0,1,5,5v12a5,5,0,0,1,-5,5h-35a5,5,0,0,1,-5,-5v-12a5,5,0,0,1,5,-5z"></path><g id="node_text8" fill="black"><text id="kity_text_125" text-rendering="inherit" font-size="12" dy=".8em" y="245.69999680497818" x="534.5000397190452">值域</text></g></g><g id="minder_node11"><g id="node_expander8" display="none" style="cursor: pointer;"><path id="kity_path_257" fill="white" stroke="gray" d="M524.5000390037894,305.49999912828207A6,6,0,1,1,512.5000390037894,305.49999912828207A6,6,0,1,1,524.5000390037894,305.49999912828207"></path><path id="kity_path_258" fill="none" stroke="gray"></path></g><path id="node_outline9" fill="none" stroke="none" d="M529.5000397190452,294.49999912828207h35a5,5,0,0,1,5,5v12a5,5,0,0,1,-5,5h-35a5,5,0,0,1,-5,-5v-12a5,5,0,0,1,5,-5z"></path><g id="node_text9" fill="black"><text id="kity_text_127" text-rendering="inherit" font-size="12" dy=".8em" y="297.69999912955933" x="534.5000397190452">运算</text></g></g><g id="minder_node12"><g id="node_expander11" style="cursor: pointer;"><path id="kity_path_266" fill="white" stroke="gray" d="M524.5000390037894,383.5000026151538A6,6,0,1,1,512.5000390037894,383.5000026151538A6,6,0,1,1,524.5000390037894,383.5000026151538"></path><path id="kity_path_267" fill="none" stroke="gray" d="M514.0000390037894,383.5000026151538L523.0000390037894,383.5000026151538"></path></g><path id="node_outline12" fill="none" stroke="none" d="M529.5000397190452,372.5000026151538h59a5,5,0,0,1,5,5v12a5,5,0,0,1,-5,5h-59a5,5,0,0,1,-5,-5v-12a5,5,0,0,1,5,-5z"></path><g id="node_text12" fill="black"><text id="kity_text_133" text-rendering="inherit" font-size="12" dy=".8em" y="375.70000261643105" x="534.5000397190452">类型转换</text></g></g><g id="minder_node13"><g id="node_expander9" display="none" style="cursor: pointer;"><path id="kity_path_260" fill="white" stroke="gray" d="M633.5000438764691,357.5000014528632A6,6,0,1,1,621.5000438764691,357.5000014528632A6,6,0,1,1,633.5000438764691,357.5000014528632"></path><path id="kity_path_261" fill="none" stroke="gray"></path></g><path id="node_outline10" fill="none" stroke="none" d="M638.5000445917249,346.5000014528632h83a5,5,0,0,1,5,5v12a5,5,0,0,1,-5,5h-83a5,5,0,0,1,-5,-5v-12a5,5,0,0,1,5,-5z"></path><g id="node_text10" fill="black"><text id="kity_text_129" text-rendering="inherit" font-size="12" dy=".8em" y="349.7000014541405" x="643.5000445917249">自动类型转换</text></g></g><g id="minder_node14"><g id="node_expander10" display="none" style="cursor: pointer;"><path id="kity_path_263" fill="white" stroke="gray" d="M633.5000438764691,409.50000377744436A6,6,0,1,1,621.5000438764691,409.50000377744436A6,6,0,1,1,633.5000438764691,409.50000377744436"></path><path id="kity_path_264" fill="none" stroke="gray"></path></g><path id="node_outline11" fill="none" stroke="none" d="M638.5000445917249,398.50000377744436h83a5,5,0,0,1,5,5v12a5,5,0,0,1,-5,5h-83a5,5,0,0,1,-5,-5v-12a5,5,0,0,1,5,-5z"></path><g id="node_text11" fill="black"><text id="kity_text_131" text-rendering="inherit" font-size="12" dy=".8em" y="401.7000037787216" x="643.5000445917249">强制类型转换</text></g></g><g id="minder_node15"><g id="node_expander16" style="cursor: pointer;"><path id="kity_path_281" fill="white" stroke="gray" d="M392.5000331029296,513.5000084266067A6,6,0,1,1,380.5000331029296,513.5000084266067A6,6,0,1,1,392.5000331029296,513.5000084266067"></path><path id="kity_path_282" fill="none" stroke="gray" d="M382.0000331029296,513.5000084266067L391.0000331029296,513.5000084266067"></path></g><path id="node_outline17" fill="none" stroke="none" d="M397.50003381818533,502.50000842660666h83a5,5,0,0,1,5,5v12a5,5,0,0,1,-5,5h-83a5,5,0,0,1,-5,-5v-12a5,5,0,0,1,5,-5z"></path><g id="node_text17" fill="black"><text id="kity_text_143" text-rendering="inherit" font-size="12" dy=".8em" y="505.7000084278839" x="402.50003381818533">复合数据类型</text></g></g><g id="minder_node16"><g id="node_expander13" display="none" style="cursor: pointer;"><path id="kity_path_272" fill="white" stroke="gray" d="M525.5000390484929,461.5000061020255A6,6,0,1,1,513.5000390484929,461.5000061020255A6,6,0,1,1,525.5000390484929,461.5000061020255"></path><path id="kity_path_273" fill="none" stroke="gray"></path></g><path id="node_outline14" fill="none" stroke="none" d="M530.5000397637486,450.5000061020255h35a5,5,0,0,1,5,5v12a5,5,0,0,1,-5,5h-35a5,5,0,0,1,-5,-5v-12a5,5,0,0,1,5,-5z"></path><g id="node_text14" fill="black"><text id="kity_text_137" text-rendering="inherit" font-size="12" dy=".8em" y="453.70000610330277" x="535.5000397637486">数组</text></g></g><g id="minder_node17"><g id="node_expander14" display="none" style="cursor: pointer;"><path id="kity_path_275" fill="white" stroke="gray" d="M525.5000390484929,513.5000084266067A6,6,0,1,1,513.5000390484929,513.5000084266067A6,6,0,1,1,525.5000390484929,513.5000084266067"></path><path id="kity_path_276" fill="none" stroke="gray"></path></g><path id="node_outline15" fill="none" stroke="none" d="M530.5000397637486,502.50000842660666h35a5,5,0,0,1,5,5v12a5,5,0,0,1,-5,5h-35a5,5,0,0,1,-5,-5v-12a5,5,0,0,1,5,-5z"></path><g id="node_text15" fill="black"><text id="kity_text_139" text-rendering="inherit" font-size="12" dy=".8em" y="505.7000084278839" x="535.5000397637486">枚举</text></g></g><g id="minder_node18"><g id="node_expander15" display="none" style="cursor: pointer;"><path id="kity_path_278" fill="white" stroke="gray" d="M525.5000390484929,565.5000107511878A6,6,0,1,1,513.5000390484929,565.5000107511878A6,6,0,1,1,525.5000390484929,565.5000107511878"></path><path id="kity_path_279" fill="none" stroke="gray"></path></g><path id="node_outline16" fill="none" stroke="none" d="M530.5000397637486,554.5000107511878h35a5,5,0,0,1,5,5v12a5,5,0,0,1,-5,5h-35a5,5,0,0,1,-5,-5v-12a5,5,0,0,1,5,-5z"></path><g id="node_text16" fill="black"><text id="kity_text_141" text-rendering="inherit" font-size="12" dy=".8em" y="557.700010752465" x="535.5000397637486">元组</text></g></g><g id="minder_node19"><g id="node_expander24" style="cursor: pointer;"><path id="kity_path_305" fill="white" stroke="gray" d="M283.5000282302499,744.5000187531114A6,6,0,1,1,271.5000282302499,744.5000187531114A6,6,0,1,1,283.5000282302499,744.5000187531114"></path><path id="kity_path_306" fill="none" stroke="gray" d="M273.0000282302499,744.5000187531114L282.0000282302499,744.5000187531114"></path></g><path id="node_outline25" fill="rgb(238, 243, 246)" stroke="rgb(115, 161, 191)" d="M287.50002943724394,731.5000187531114h62a3,3,0,0,1,3,3v20a3,3,0,0,1,-3,3h-62a3,3,0,0,1,-3,-3v-20a3,3,0,0,1,3,-3z" stroke-width="1"></path><g id="node_text25" fill="black"><text id="kity_text_159" text-rendering="inherit" font-size="14" dy=".8em" y="735.4000188227211" x="304.50002943724394">语句</text></g></g><g id="minder_node20"><g id="node_expander20" style="cursor: pointer;"><path id="kity_path_293" fill="white" stroke="gray" d="M392.5000331029296,653.5000146850944A6,6,0,1,1,380.5000331029296,653.5000146850944A6,6,0,1,1,392.5000331029296,653.5000146850944"></path><path id="kity_path_294" fill="none" stroke="gray" d="M382.0000331029296,653.5000146850944L391.0000331029296,653.5000146850944"></path></g><path id="node_outline21" fill="none" stroke="none" d="M397.50003381818533,642.5000146850944h59a5,5,0,0,1,5,5v12a5,5,0,0,1,-5,5h-59a5,5,0,0,1,-5,-5v-12a5,5,0,0,1,5,-5z"></path><g id="node_text21" fill="black"><text id="kity_text_151" text-rendering="inherit" font-size="12" dy=".8em" y="645.7000146863716" x="402.50003381818533">顺序语句</text></g></g><g id="minder_node21"><g id="node_expander18" display="none" style="cursor: pointer;"><path id="kity_path_287" fill="white" stroke="gray" d="M501.5000379756093,627.5000135228038A6,6,0,1,1,489.5000379756093,627.5000135228038A6,6,0,1,1,501.5000379756093,627.5000135228038"></path><path id="kity_path_288" fill="none" stroke="gray"></path></g><path id="node_outline19" fill="none" stroke="none" d="M506.50003869086504,616.5000135228038h58a5,5,0,0,1,5,5v12a5,5,0,0,1,-5,5h-58a5,5,0,0,1,-5,-5v-12a5,5,0,0,1,5,-5z"></path><g id="node_text19" fill="black"><text id="kity_text_147" text-rendering="inherit" font-size="12" dy=".8em" y="619.700013524081" x="511.50003869086504">声明语句</text></g></g><g id="minder_node22"><g id="node_expander19" display="none" style="cursor: pointer;"><path id="kity_path_290" fill="white" stroke="gray" d="M501.5000379756093,679.5000158473849A6,6,0,1,1,489.5000379756093,679.5000158473849A6,6,0,1,1,501.5000379756093,679.5000158473849"></path><path id="kity_path_291" fill="none" stroke="gray"></path></g><path id="node_outline20" fill="none" stroke="none" d="M506.50003869086504,668.5000158473849h58a5,5,0,0,1,5,5v12a5,5,0,0,1,-5,5h-58a5,5,0,0,1,-5,-5v-12a5,5,0,0,1,5,-5z"></path><g id="node_text20" fill="black"><text id="kity_text_149" text-rendering="inherit" font-size="12" dy=".8em" y="671.7000158486621" x="511.50003869086504">赋值语句</text></g></g><g id="minder_node23"><g id="node_expander21" display="none" style="cursor: pointer;"><path id="kity_path_296" fill="white" stroke="gray" d="M392.5000331029296,731.5000181719661A6,6,0,1,1,380.5000331029296,731.5000181719661A6,6,0,1,1,392.5000331029296,731.5000181719661"></path><path id="kity_path_297" fill="none" stroke="gray"></path></g><path id="node_outline22" fill="none" stroke="none" d="M397.50003381818533,720.5000181719661h59a5,5,0,0,1,5,5v12a5,5,0,0,1,-5,5h-59a5,5,0,0,1,-5,-5v-12a5,5,0,0,1,5,-5z"></path><g id="node_text22" fill="black"><text id="kity_text_153" text-rendering="inherit" font-size="12" dy=".8em" y="723.7000181732433" x="402.50003381818533">分支语句</text></g></g><g id="minder_node24"><g id="node_expander22" display="none" style="cursor: pointer;"><path id="kity_path_299" fill="white" stroke="gray" d="M392.5000331029296,783.5000204965472A6,6,0,1,1,380.5000331029296,783.5000204965472A6,6,0,1,1,392.5000331029296,783.5000204965472"></path><path id="kity_path_300" fill="none" stroke="gray"></path></g><path id="node_outline23" fill="none" stroke="none" d="M397.50003381818533,772.5000204965472h58a5,5,0,0,1,5,5v12a5,5,0,0,1,-5,5h-58a5,5,0,0,1,-5,-5v-12a5,5,0,0,1,5,-5z"></path><g id="node_text23" fill="black"><text id="kity_text_155" text-rendering="inherit" font-size="12" dy=".8em" y="775.7000204978244" x="402.50003381818533">循环语句</text></g></g><g id="minder_node25"><g id="node_expander23" display="none" style="cursor: pointer;"><path id="kity_path_302" fill="white" stroke="gray" d="M392.5000331029296,835.5000228211284A6,6,0,1,1,380.5000331029296,835.5000228211284A6,6,0,1,1,392.5000331029296,835.5000228211284"></path><path id="kity_path_303" fill="none" stroke="gray"></path></g><path id="node_outline24" fill="none" stroke="none" d="M397.50003381818533,824.5000228211284h58a5,5,0,0,1,5,5v12a5,5,0,0,1,-5,5h-58a5,5,0,0,1,-5,-5v-12a5,5,0,0,1,5,-5z"></path><g id="node_text24" fill="black"><text id="kity_text_157" text-rendering="inherit" font-size="12" dy=".8em" y="827.7000228224056" x="402.50003381818533">异常控制</text></g></g><g id="minder_node26"><g id="node_expander31" style="cursor: pointer;"><path id="kity_path_326" fill="white" stroke="gray" d="M283.5000282302499,1027.5000314041972A6,6,0,1,1,271.5000282302499,1027.5000314041972A6,6,0,1,1,283.5000282302499,1027.5000314041972"></path><path id="kity_path_327" fill="none" stroke="gray" d="M273.0000282302499,1027.5000314041972L282.0000282302499,1027.5000314041972"></path></g><path id="node_outline32" fill="rgb(238, 243, 246)" stroke="rgb(115, 161, 191)" d="M287.50002943724394,1014.5000314041972h63a3,3,0,0,1,3,3v20a3,3,0,0,1,-3,3h-63a3,3,0,0,1,-3,-3v-20a3,3,0,0,1,3,-3z" stroke-width="1"></path><g id="node_text32" fill="black"><text id="kity_text_173" text-rendering="inherit" font-size="14" dy=".8em" y="1018.4000314738068" x="304.50002943724394">模块</text></g></g><g id="minder_node27"><g id="node_expander28" style="cursor: pointer;"><path id="kity_path_317" fill="white" stroke="gray" d="M393.5000331476331,949.5000279173255A6,6,0,1,1,381.5000331476331,949.5000279173255A6,6,0,1,1,393.5000331476331,949.5000279173255"></path><path id="kity_path_318" fill="none" stroke="gray" d="M383.0000331476331,949.5000279173255L392.0000331476331,949.5000279173255"></path></g><path id="node_outline29" fill="none" stroke="none" d="M398.5000338628888,938.5000279173255h58a5,5,0,0,1,5,5v12a5,5,0,0,1,-5,5h-58a5,5,0,0,1,-5,-5v-12a5,5,0,0,1,5,-5z"></path><g id="node_text29" fill="black"><text id="kity_text_167" text-rendering="inherit" font-size="12" dy=".8em" y="941.7000279186027" x="403.5000338628888">命名空间</text></g></g><g id="minder_node28"><g id="node_expander25" display="none" style="cursor: pointer;"><path id="kity_path_308" fill="white" stroke="gray" d="M501.5000379756093,897.5000255927444A6,6,0,1,1,489.5000379756093,897.5000255927444A6,6,0,1,1,501.5000379756093,897.5000255927444"></path><path id="kity_path_309" fill="none" stroke="gray"></path></g><path id="node_outline26" fill="none" stroke="none" d="M506.50003869086504,886.5000255927444h58a5,5,0,0,1,5,5v12a5,5,0,0,1,-5,5h-58a5,5,0,0,1,-5,-5v-12a5,5,0,0,1,5,-5z"></path><g id="node_text26" fill="black"><text id="kity_text_161" text-rendering="inherit" font-size="12" dy=".8em" y="889.7000255940216" x="511.50003869086504">组织模块</text></g></g><g id="minder_node29"><g id="node_expander26" display="none" style="cursor: pointer;"><path id="kity_path_311" fill="white" stroke="gray" d="M501.5000379756093,949.5000279173255A6,6,0,1,1,489.5000379756093,949.5000279173255A6,6,0,1,1,501.5000379756093,949.5000279173255"></path><path id="kity_path_312" fill="none" stroke="gray"></path></g><path id="node_outline27" fill="none" stroke="none" d="M506.50003869086504,938.5000279173255h59a5,5,0,0,1,5,5v12a5,5,0,0,1,-5,5h-59a5,5,0,0,1,-5,-5v-12a5,5,0,0,1,5,-5z"></path><g id="node_text27" fill="black"><text id="kity_text_163" text-rendering="inherit" font-size="12" dy=".8em" y="941.7000279186027" x="511.50003869086504">导入名称</text></g></g><g id="minder_node30"><g id="node_expander27" display="none" style="cursor: pointer;"><path id="kity_path_314" fill="white" stroke="gray" d="M501.5000379756093,1001.5000302419066A6,6,0,1,1,489.5000379756093,1001.5000302419066A6,6,0,1,1,501.5000379756093,1001.5000302419066"></path><path id="kity_path_315" fill="none" stroke="gray"></path></g><path id="node_outline28" fill="none" stroke="none" d="M506.50003869086504,990.5000302419066h59a5,5,0,0,1,5,5v12a5,5,0,0,1,-5,5h-59a5,5,0,0,1,-5,-5v-12a5,5,0,0,1,5,-5z"></path><g id="node_text28" fill="black"><text id="kity_text_165" text-rendering="inherit" font-size="12" dy=".8em" y="993.7000302431838" x="511.50003869086504">导出名称</text></g></g><g id="minder_node31"><g id="node_expander29" display="none" style="cursor: pointer;"><path id="kity_path_320" fill="white" stroke="gray" d="M393.5000331476331,1053.5000325664878A6,6,0,1,1,381.5000331476331,1053.5000325664878A6,6,0,1,1,393.5000331476331,1053.5000325664878"></path><path id="kity_path_321" fill="none" stroke="gray"></path></g><path id="node_outline30" fill="none" stroke="none" d="M398.5000338628888,1042.5000325664878h35a5,5,0,0,1,5,5v12a5,5,0,0,1,-5,5h-35a5,5,0,0,1,-5,-5v-12a5,5,0,0,1,5,-5z"></path><g id="node_text30" fill="black"><text id="kity_text_169" text-rendering="inherit" font-size="12" dy=".8em" y="1045.700032567765" x="403.5000338628888">函数</text></g></g><g id="minder_node32"><g id="node_expander30" display="none" style="cursor: pointer;"><path id="kity_path_323" fill="white" stroke="gray" d="M393.5000331476331,1105.500034891069A6,6,0,1,1,381.5000331476331,1105.500034891069A6,6,0,1,1,393.5000331476331,1105.500034891069"></path><path id="kity_path_324" fill="none" stroke="gray"></path></g><path id="node_outline31" fill="none" stroke="none" d="M398.5000338628888,1094.500034891069h23a5,5,0,0,1,5,5v12a5,5,0,0,1,-5,5h-23a5,5,0,0,1,-5,-5v-12a5,5,0,0,1,5,-5z"></path><g id="node_text31" fill="black"><text id="kity_text_171" text-rendering="inherit" font-size="12" dy=".8em" y="1097.7000348923461" x="403.5000338628888">类</text></g></g><g id="minder_node33"><g id="node_expander35" style="cursor: pointer;"><path id="kity_path_338" fill="white" stroke="gray" d="M283.5000282302499,1219.500039987266A6,6,0,1,1,271.5000282302499,1219.500039987266A6,6,0,1,1,283.5000282302499,1219.500039987266"></path><path id="kity_path_339" fill="none" stroke="gray" d="M273.0000282302499,1219.500039987266L282.0000282302499,1219.500039987266"></path></g><path id="node_outline36" fill="rgb(238, 243, 246)" stroke="rgb(115, 161, 191)" d="M287.50002943724394,1206.500039987266h62a3,3,0,0,1,3,3v20a3,3,0,0,1,-3,3h-62a3,3,0,0,1,-3,-3v-20a3,3,0,0,1,3,-3z" stroke-width="1"></path><g id="node_text36" fill="black"><text id="kity_text_181" text-rendering="inherit" font-size="14" dy=".8em" y="1210.4000400568757" x="304.50002943724394">工具</text></g></g><g id="minder_node34"><g id="node_expander32" display="none" style="cursor: pointer;"><path id="kity_path_329" fill="white" stroke="gray" d="M392.5000331029296,1167.500037662685A6,6,0,1,1,380.5000331029296,1167.500037662685A6,6,0,1,1,392.5000331029296,1167.500037662685"></path><path id="kity_path_330" fill="none" stroke="gray"></path></g><path id="node_outline33" fill="none" stroke="none" d="M397.50003381818533,1156.500037662685h82a5,5,0,0,1,5,5v12a5,5,0,0,1,-5,5h-82a5,5,0,0,1,-5,-5v-12a5,5,0,0,1,5,-5z"></path><g id="node_text33" fill="black"><text id="kity_text_175" text-rendering="inherit" font-size="12" dy=".8em" y="1159.7000376639621" x="402.50003381818533">输入输出工具</text></g></g><g id="minder_node35"><g id="node_expander33" display="none" style="cursor: pointer;"><path id="kity_path_332" fill="white" stroke="gray" d="M392.5000331029296,1219.500039987266A6,6,0,1,1,380.5000331029296,1219.500039987266A6,6,0,1,1,392.5000331029296,1219.500039987266"></path><path id="kity_path_333" fill="none" stroke="gray"></path></g><path id="node_outline34" fill="none" stroke="none" d="M397.50003381818533,1208.500039987266h70a5,5,0,0,1,5,5v12a5,5,0,0,1,-5,5h-70a5,5,0,0,1,-5,-5v-12a5,5,0,0,1,5,-5z"></path><g id="node_text34" fill="black"><text id="kity_text_177" text-rendering="inherit" font-size="12" dy=".8em" y="1211.7000399885433" x="402.50003381818533">字符串工具</text></g></g><g id="minder_node36"><g id="node_expander34" display="none" style="cursor: pointer;"><path id="kity_path_335" fill="white" stroke="gray" d="M392.5000331029296,1271.5000423118472A6,6,0,1,1,380.5000331029296,1271.5000423118472A6,6,0,1,1,392.5000331029296,1271.5000423118472"></path><path id="kity_path_336" fill="none" stroke="gray"></path></g><path id="node_outline35" fill="none" stroke="none" d="M397.50003381818533,1260.5000423118472h59a5,5,0,0,1,5,5v12a5,5,0,0,1,-5,5h-59a5,5,0,0,1,-5,-5v-12a5,5,0,0,1,5,-5z"></path><g id="node_text35" fill="black"><text id="kity_text_179" text-rendering="inherit" font-size="12" dy=".8em" y="1263.7000423131244" x="402.50003381818533">数组工具</text></g></g><g id="minder_node37"><g id="node_expander41" style="cursor: pointer;"><path id="kity_path_356" fill="white" stroke="gray" d="M283.5000282302499,1411.500048570335A6,6,0,1,1,271.5000282302499,1411.500048570335A6,6,0,1,1,283.5000282302499,1411.500048570335"></path><path id="kity_path_357" fill="none" stroke="gray" d="M273.0000282302499,1411.500048570335L282.0000282302499,1411.500048570335"></path></g><path id="node_outline42" fill="rgb(238, 243, 246)" stroke="rgb(115, 161, 191)" d="M287.50002943724394,1398.500048570335h62a3,3,0,0,1,3,3v20a3,3,0,0,1,-3,3h-62a3,3,0,0,1,-3,-3v-20a3,3,0,0,1,3,-3z" stroke-width="1"></path><g id="node_text42" fill="black"><text id="kity_text_193" text-rendering="inherit" font-size="14" dy=".8em" y="1402.4000486399445" x="304.50002943724394">类库</text></g></g><g id="minder_node38"><g id="node_expander37" style="cursor: pointer;"><path id="kity_path_344" fill="white" stroke="gray" d="M392.5000331029296,1333.5000450834632A6,6,0,1,1,380.5000331029296,1333.5000450834632A6,6,0,1,1,392.5000331029296,1333.5000450834632"></path><path id="kity_path_345" fill="none" stroke="gray" d="M382.0000331029296,1333.5000450834632L391.0000331029296,1333.5000450834632"></path></g><path id="node_outline38" fill="none" stroke="none" d="M397.50003381818533,1322.5000450834632h35a5,5,0,0,1,5,5v12a5,5,0,0,1,-5,5h-35a5,5,0,0,1,-5,-5v-12a5,5,0,0,1,5,-5z"></path><g id="node_text38" fill="black"><text id="kity_text_185" text-rendering="inherit" font-size="12" dy=".8em" y="1325.7000450847404" x="402.50003381818533">数学</text></g></g><g id="minder_node39"><g id="node_expander36" display="none" style="cursor: pointer;"><path id="kity_path_341" fill="white" stroke="gray" d="M477.5000369027257,1333.5000450834632A6,6,0,1,1,465.5000369027257,1333.5000450834632A6,6,0,1,1,477.5000369027257,1333.5000450834632"></path><path id="kity_path_342" fill="none" stroke="gray"></path></g><path id="node_outline37" fill="none" stroke="none" d="M482.50003761798143,1322.5000450834632h71a5,5,0,0,1,5,5v12a5,5,0,0,1,-5,5h-71a5,5,0,0,1,-5,-5v-12a5,5,0,0,1,5,-5z"></path><g id="node_text37" fill="black"><text id="kity_text_183" text-rendering="inherit" font-size="12" dy=".8em" y="1325.7000450847404" x="487.50003761798143">高精度运算</text></g></g><g id="minder_node40"><g id="node_expander38" display="none" style="cursor: pointer;"><path id="kity_path_347" fill="white" stroke="gray" d="M392.5000331029296,1385.5000474080443A6,6,0,1,1,380.5000331029296,1385.5000474080443A6,6,0,1,1,392.5000331029296,1385.5000474080443"></path><path id="kity_path_348" fill="none" stroke="gray"></path></g><path id="node_outline39" fill="none" stroke="none" d="M397.50003381818533,1374.5000474080443h70a5,5,0,0,1,5,5v12a5,5,0,0,1,-5,5h-70a5,5,0,0,1,-5,-5v-12a5,5,0,0,1,5,-5z"></path><g id="node_text39" fill="black"><text id="kity_text_187" text-rendering="inherit" font-size="12" dy=".8em" y="1377.7000474093215" x="402.50003381818533">日期和时间</text></g></g><g id="minder_node41"><g id="node_expander39" display="none" style="cursor: pointer;"><path id="kity_path_350" fill="white" stroke="gray" d="M392.5000331029296,1437.5000497326255A6,6,0,1,1,380.5000331029296,1437.5000497326255A6,6,0,1,1,392.5000331029296,1437.5000497326255"></path><path id="kity_path_351" fill="none" stroke="gray"></path></g><path id="node_outline40" fill="none" stroke="none" d="M397.50003381818533,1426.5000497326255h35a5,5,0,0,1,5,5v12a5,5,0,0,1,-5,5h-35a5,5,0,0,1,-5,-5v-12a5,5,0,0,1,5,-5z"></path><g id="node_text40" fill="black"><text id="kity_text_189" text-rendering="inherit" font-size="12" dy=".8em" y="1429.7000497339027" x="402.50003381818533">文件</text></g></g><g id="minder_node42"><g id="node_expander40" display="none" style="cursor: pointer;"><path id="kity_path_353" fill="white" stroke="gray" d="M392.5000331029296,1489.5000520572066A6,6,0,1,1,380.5000331029296,1489.5000520572066A6,6,0,1,1,392.5000331029296,1489.5000520572066"></path><path id="kity_path_354" fill="none" stroke="gray"></path></g><path id="node_outline41" fill="none" stroke="none" d="M397.50003381818533,1478.5000520572066h34a5,5,0,0,1,5,5v12a5,5,0,0,1,-5,5h-34a5,5,0,0,1,-5,-5v-12a5,5,0,0,1,5,-5z"></path><g id="node_text41" fill="black"><text id="kity_text_191" text-rendering="inherit" font-size="12" dy=".8em" y="1481.7000520584838" x="402.50003381818533">网络</text></g></g></g></g></svg>