<svg id="kity_svg_6" xmlns="http://www.w3.org/2000/svg" xmlns:xlink="http://www.w3.org/1999/xlink" version="1.1" width="614" height="1468" style="background: rgb(251, 251, 251); visibility: visible;" viewBox="0 0 614 1468"><defs id="kity_defs_7"><linearGradient id="kity_linearGradient_17" x1="0" y1="0" x2="0" y2="1"><stop id="kity_stop_18" offset="0" stop-color="rgb(255, 255, 255)"></stop><stop id="kity_stop_19" offset="1" stop-color="rgb(204, 204, 204)"></stop></linearGradient><marker id="kity_marker_2" orient="auto" refX="6" refY="0" viewBox="-7 -7 14 14" markerWidth="7" markerHeight="7" markerUnits="userSpaceOnUse"><path id="kity_path_3" fill="rgb(115, 161, 191)" stroke="none" d="M6,0A6,6,0,1,1,-6,0A6,6,0,1,1,6,0"></path></marker></defs><g id="kity_g_8"><g id="minder1" text-rendering="optimize-speed"><g id="minder_connect_group1"><path id="kity_path_31" fill="none" stroke="rgb(115, 161, 191)" stroke-width="1" d="M92.50000690668821,695.5000308677554A190,663,0,0,1,282.5000069066882,32.50003086775541"></path><path id="kity_path_33" fill="none" stroke="rgb(115, 161, 191)" stroke-width="1" d="M353.5000069066882,32.50003086775541C373.5000069066882,32.50003086775541,373.5000069066882,32.50003086775541,393.5000069066882,32.50003086775541"></path><path id="kity_path_35" fill="none" stroke="rgb(115, 161, 191)" stroke-width="1" d="M462.5000069066882,32.50003086775541C482.5000069066882,32.50003086775541,482.5000069066882,32.50003086775541,502.5000069066882,32.50003086775541"></path><path id="kity_path_37" fill="none" stroke="rgb(115, 161, 191)" stroke-width="1" d="M92.50000690668821,695.5000308677554A190,404,0,0,1,282.5000069066882,291.5000308677554"></path><path id="kity_path_39" fill="none" stroke="rgb(115, 161, 191)" stroke-width="1" d="M352.5000069066882,291.5000308677554C372.5000069066882,291.5000308677554,372.5000069066882,96.50003086775541,392.5000069066882,96.50003086775541"></path><path id="kity_path_41" fill="none" stroke="rgb(115, 161, 191)" stroke-width="1" d="M484.5000069066882,200.5000308677554C504.5000069066882,200.5000308677554,504.5000069066882,148.5000308677554,524.5000069066882,148.5000308677554"></path><path id="kity_path_43" fill="none" stroke="rgb(115, 161, 191)" stroke-width="1" d="M352.5000069066882,291.5000308677554C372.5000069066882,291.5000308677554,372.5000069066882,200.5000308677554,392.5000069066882,200.5000308677554"></path><path id="kity_path_45" fill="none" stroke="rgb(115, 161, 191)" stroke-width="1" d="M484.5000069066882,200.5000308677554C504.5000069066882,200.5000308677554,504.5000069066882,200.5000308677554,524.5000069066882,200.5000308677554"></path><path id="kity_path_47" fill="none" stroke="rgb(115, 161, 191)" stroke-width="1" d="M484.5000069066882,200.5000308677554C504.5000069066882,200.5000308677554,504.5000069066882,252.5000308677554,524.5000069066882,252.5000308677554"></path><path id="kity_path_49" fill="none" stroke="rgb(115, 161, 191)" stroke-width="1" d="M352.5000069066882,291.5000308677554C372.5000069066882,291.5000308677554,372.5000069066882,486.5000308677554,392.5000069066882,486.5000308677554"></path><path id="kity_path_51" fill="none" stroke="rgb(115, 161, 191)" stroke-width="1" d="M352.5000069066882,291.5000308677554C372.5000069066882,291.5000308677554,372.5000069066882,356.5000308677554,392.5000069066882,356.5000308677554"></path><path id="kity_path_53" fill="none" stroke="rgb(115, 161, 191)" stroke-width="1" d="M485.5000069066882,356.5000308677554C505.5000069066882,356.5000308677554,505.5000069066882,304.5000308677554,525.5000069066882,304.5000308677554"></path><path id="kity_path_55" fill="none" stroke="rgb(115, 161, 191)" stroke-width="1" d="M485.5000069066882,356.5000308677554C505.5000069066882,356.5000308677554,505.5000069066882,356.5000308677554,525.5000069066882,356.5000308677554"></path><path id="kity_path_57" fill="none" stroke="rgb(115, 161, 191)" stroke-width="1" d="M485.5000069066882,356.5000308677554C505.5000069066882,356.5000308677554,505.5000069066882,408.5000308677554,525.5000069066882,408.5000308677554"></path><path id="kity_path_59" fill="none" stroke="rgb(115, 161, 191)" stroke-width="1" d="M92.50000690668821,695.5000308677554A190,4,0,0,1,282.5000069066882,691.5000308677554"></path><path id="kity_path_61" fill="none" stroke="rgb(115, 161, 191)" stroke-width="1" d="M352.5000069066882,691.5000308677554C372.5000069066882,691.5000308677554,372.5000069066882,600.5000308677554,392.5000069066882,600.5000308677554"></path><path id="kity_path_63" fill="none" stroke="rgb(115, 161, 191)" stroke-width="1" d="M461.5000069066882,600.5000308677554C481.5000069066882,600.5000308677554,481.5000069066882,574.5000308677554,501.5000069066882,574.5000308677554"></path><path id="kity_path_65" fill="none" stroke="rgb(115, 161, 191)" stroke-width="1" d="M461.5000069066882,600.5000308677554C481.5000069066882,600.5000308677554,481.5000069066882,626.5000308677554,501.5000069066882,626.5000308677554"></path><path id="kity_path_67" fill="none" stroke="rgb(115, 161, 191)" stroke-width="1" d="M352.5000069066882,691.5000308677554C372.5000069066882,691.5000308677554,372.5000069066882,678.5000308677554,392.5000069066882,678.5000308677554"></path><path id="kity_path_69" fill="none" stroke="rgb(115, 161, 191)" stroke-width="1" d="M352.5000069066882,691.5000308677554C372.5000069066882,691.5000308677554,372.5000069066882,730.5000308677554,392.5000069066882,730.5000308677554"></path><path id="kity_path_71" fill="none" stroke="rgb(115, 161, 191)" stroke-width="1" d="M352.5000069066882,691.5000308677554C372.5000069066882,691.5000308677554,372.5000069066882,782.5000308677554,392.5000069066882,782.5000308677554"></path><path id="kity_path_73" fill="none" stroke="rgb(115, 161, 191)" stroke-width="1" d="M92.50000690668821,695.5000308677554A190,279,0,0,0,282.5000069066882,974.5000308677554"></path><path id="kity_path_75" fill="none" stroke="rgb(115, 161, 191)" stroke-width="1" d="M353.5000069066882,974.5000308677554C373.5000069066882,974.5000308677554,373.5000069066882,896.5000308677554,393.5000069066882,896.5000308677554"></path><path id="kity_path_77" fill="none" stroke="rgb(115, 161, 191)" stroke-width="1" d="M461.5000069066882,896.5000308677554C481.5000069066882,896.5000308677554,481.5000069066882,844.5000308677554,501.5000069066882,844.5000308677554"></path><path id="kity_path_79" fill="none" stroke="rgb(115, 161, 191)" stroke-width="1" d="M461.5000069066882,896.5000308677554C481.5000069066882,896.5000308677554,481.5000069066882,896.5000308677554,501.5000069066882,896.5000308677554"></path><path id="kity_path_81" fill="none" stroke="rgb(115, 161, 191)" stroke-width="1" d="M461.5000069066882,896.5000308677554C481.5000069066882,896.5000308677554,481.5000069066882,948.5000308677554,501.5000069066882,948.5000308677554"></path><path id="kity_path_83" fill="none" stroke="rgb(115, 161, 191)" stroke-width="1" d="M353.5000069066882,974.5000308677554C373.5000069066882,974.5000308677554,373.5000069066882,1000.5000308677554,393.5000069066882,1000.5000308677554"></path><path id="kity_path_85" fill="none" stroke="rgb(115, 161, 191)" stroke-width="1" d="M353.5000069066882,974.5000308677554C373.5000069066882,974.5000308677554,373.5000069066882,1052.5000308677554,393.5000069066882,1052.5000308677554"></path><path id="kity_path_87" fill="none" stroke="rgb(115, 161, 191)" stroke-width="1" d="M92.50000690668821,695.5000308677554A190,471,0,0,0,282.5000069066882,1166.5000308677554"></path><path id="kity_path_89" fill="none" stroke="rgb(115, 161, 191)" stroke-width="1" d="M352.5000069066882,1166.5000308677554C372.5000069066882,1166.5000308677554,372.5000069066882,1114.5000308677554,392.5000069066882,1114.5000308677554"></path><path id="kity_path_91" fill="none" stroke="rgb(115, 161, 191)" stroke-width="1" d="M352.5000069066882,1166.5000308677554C372.5000069066882,1166.5000308677554,372.5000069066882,1166.5000308677554,392.5000069066882,1166.5000308677554"></path><path id="kity_path_93" fill="none" stroke="rgb(115, 161, 191)" stroke-width="1" d="M352.5000069066882,1166.5000308677554C372.5000069066882,1166.5000308677554,372.5000069066882,1218.5000308677554,392.5000069066882,1218.5000308677554"></path><path id="kity_path_95" fill="none" stroke="rgb(115, 161, 191)" stroke-width="1" d="M92.50000690668821,695.5000308677554A190,663,0,0,0,282.5000069066882,1358.5000308677554"></path><path id="kity_path_97" fill="none" stroke="rgb(115, 161, 191)" stroke-width="1" d="M352.5000069066882,1358.5000308677554C372.5000069066882,1358.5000308677554,372.5000069066882,1280.5000308677554,392.5000069066882,1280.5000308677554"></path><path id="kity_path_99" fill="none" stroke="rgb(115, 161, 191)" stroke-width="1" d="M437.5000069066882,1280.5000308677554C457.5000069066882,1280.5000308677554,457.5000069066882,1280.5000308677554,477.5000069066882,1280.5000308677554"></path><path id="kity_path_101" fill="none" stroke="rgb(115, 161, 191)" stroke-width="1" d="M352.5000069066882,1358.5000308677554C372.5000069066882,1358.5000308677554,372.5000069066882,1332.5000308677554,392.5000069066882,1332.5000308677554"></path><path id="kity_path_103" fill="none" stroke="rgb(115, 161, 191)" stroke-width="1" d="M352.5000069066882,1358.5000308677554C372.5000069066882,1358.5000308677554,372.5000069066882,1384.5000308677554,392.5000069066882,1384.5000308677554"></path><path id="kity_path_105" fill="none" stroke="rgb(115, 161, 191)" stroke-width="1" d="M352.5000069066882,1358.5000308677554C372.5000069066882,1358.5000308677554,372.5000069066882,1436.5000308677554,392.5000069066882,1436.5000308677554"></path><path id="kity_path_335" fill="none" stroke="rgb(115, 161, 191)" stroke-width="1" d="M461.5000069066882,486.5000308677554C481.5000069066882,486.5000308677554,481.5000069066882,460.5000308677554,501.5000069066882,460.5000308677554"></path><path id="kity_path_343" fill="none" stroke="rgb(115, 161, 191)" stroke-width="1" d="M461.5000069066882,486.5000308677554C481.5000069066882,486.5000308677554,481.5000069066882,512.5000308677554,501.5000069066882,512.5000308677554"></path></g><g id="minder_node1"><path id="node_outline1" fill="rgb(115, 161, 191)" stroke="rgb(115, 161, 191)" d="M25.500006906688213,675.5000308677554h134a5,5,0,0,1,5,5v30a5,5,0,0,1,-5,5h-134a5,5,0,0,1,-5,-5v-30a5,5,0,0,1,5,-5z" stroke-width="3"></path><g id="node_text1" fill="white"><text id="kity_text_22" text-rendering="inherit" font-size="16" dy=".8em" y="685.10003059698" x="44.50000690668821">编程语言导图</text></g></g><g id="kity_g_14" display="none"><path id="kity_path_15" fill="rgba(0, 92, 153, 0.5)" stroke="none" d="M524.5000069066882,143.5000308677554h45v15h-45z"></path><path id="kity_path_16" fill="none" stroke="rgb(0, 76, 128)" d="M524.5000069066882,158.5000308677554L569.5000069066882,158.5000308677554" stroke-width="1"></path></g><g id="minder_node2"><g id="node_expander3" style="cursor: pointer;"><path id="kity_path_227" fill="white" stroke="gray" d="M283.5000173225999,32.5000012293458A6,6,0,1,1,271.5000173225999,32.5000012293458A6,6,0,1,1,283.5000173225999,32.5000012293458"></path><path id="kity_path_228" fill="none" stroke="gray" d="M273.0000173225999,32.5000012293458L282.0000173225999,32.5000012293458"></path></g><path id="node_outline4" fill="rgb(238, 243, 246)" stroke="rgb(115, 161, 191)" d="M287.50001852959394,19.5000012293458h63a3,3,0,0,1,3,3v20a3,3,0,0,1,-3,3h-63a3,3,0,0,1,-3,-3v-20a3,3,0,0,1,3,-3z" stroke-width="1"></path><g id="node_text4" fill="black"><text id="kity_text_111" text-rendering="inherit" font-size="14" dy=".8em" y="23.400001298955516" x="304.50001852959394">常识</text></g></g><g id="minder_node3"><g id="node_expander2" style="cursor: pointer;"><path id="kity_path_224" fill="white" stroke="gray" d="M393.5000222399831,32.5000012293458A6,6,0,1,1,381.5000222399831,32.5000012293458A6,6,0,1,1,393.5000222399831,32.5000012293458"></path><path id="kity_path_225" fill="none" stroke="gray" d="M383.0000222399831,32.5000012293458L392.0000222399831,32.5000012293458"></path></g><path id="node_outline3" fill="none" stroke="none" d="M398.5000229552388,21.5000012293458h59a5,5,0,0,1,5,5v12a5,5,0,0,1,-5,5h-59a5,5,0,0,1,-5,-5v-12a5,5,0,0,1,5,-5z"></path><g id="node_text3" fill="black"><text id="kity_text_109" text-rendering="inherit" font-size="12" dy=".8em" y="24.700001230623045" x="403.5000229552388">编程原则</text></g></g><g id="minder_node4"><g id="node_expander1" style="cursor: pointer;" display="none"><path id="kity_path_221" fill="white" stroke="gray" d="M502.5000271126628,32.5000012293458A6,6,0,1,1,490.5000271126628,32.5000012293458A6,6,0,1,1,502.5000271126628,32.5000012293458"></path><path id="kity_path_222" fill="none" stroke="gray"></path></g><path id="node_outline2" fill="none" stroke="none" d="M507.50002782791853,21.5000012293458h82a5,5,0,0,1,5,5v12a5,5,0,0,1,-5,5h-82a5,5,0,0,1,-5,-5v-12a5,5,0,0,1,5,-5z"></path><g id="node_text2" fill="black"><text id="kity_text_107" text-rendering="inherit" font-size="12" dy=".8em" y="24.700001230623045" x="512.5000278279185">开放闭合原则</text></g></g><g id="minder_node5"><g id="node_expander14" style="cursor: pointer;"><path id="kity_path_260" fill="white" stroke="gray" d="M283.5000173225999,291.50001280754805A6,6,0,1,1,271.5000173225999,291.50001280754805A6,6,0,1,1,283.5000173225999,291.50001280754805"></path><path id="kity_path_261" fill="none" stroke="gray" d="M273.0000173225999,291.50001280754805L282.0000173225999,291.50001280754805"></path></g><path id="node_outline15" fill="rgb(238, 243, 246)" stroke="rgb(115, 161, 191)" d="M287.50001852959394,278.50001280754805h62a3,3,0,0,1,3,3v20a3,3,0,0,1,-3,3h-62a3,3,0,0,1,-3,-3v-20a3,3,0,0,1,3,-3z" stroke-width="1"></path><g id="node_text15" fill="black"><text id="kity_text_133" text-rendering="inherit" font-size="14" dy=".8em" y="282.4000128771578" x="304.50001852959394">基础</text></g></g><g id="minder_node6"><g id="node_expander4" style="cursor: pointer;" display="none"><path id="kity_path_230" fill="white" stroke="gray" d="M392.5000221952796,96.50000409036875A6,6,0,1,1,380.5000221952796,96.50000409036875A6,6,0,1,1,392.5000221952796,96.50000409036875"></path><path id="kity_path_231" fill="none" stroke="gray"></path></g><path id="node_outline5" fill="none" stroke="none" d="M397.50002291053534,85.50000409036875h58a5,5,0,0,1,5,5v12a5,5,0,0,1,-5,5h-58a5,5,0,0,1,-5,-5v-12a5,5,0,0,1,5,-5z" stroke-width="3"></path><g id="node_text5" fill="black"><text id="kity_text_113" text-rendering="inherit" font-size="12" dy=".8em" y="88.700004091646" x="402.50002291053534">命名规范</text></g></g><g id="minder_node7" opacity="1"><g id="node_expander5" style="cursor: pointer;" display="none"><path id="kity_path_233" fill="white" stroke="gray" d="M524.5000280961394,148.5000064149499A6,6,0,1,1,512.5000280961394,148.5000064149499A6,6,0,1,1,524.5000280961394,148.5000064149499"></path><path id="kity_path_234" fill="none" stroke="gray"></path></g><path id="node_outline6" fill="none" stroke="none" d="M529.5000288113952,137.5000064149499h47a5,5,0,0,1,5,5v12a5,5,0,0,1,-5,5h-47a5,5,0,0,1,-5,-5v-12a5,5,0,0,1,5,-5z" stroke-width="3"></path><g id="node_text6" fill="black"><text id="kity_text_115" text-rendering="inherit" font-size="12" dy=".8em" y="140.70000641622715" x="534.5000288113952">字面值</text></g></g><g id="minder_node8"><g id="node_expander9" style="cursor: pointer;"><path id="kity_path_245" fill="white" stroke="gray" d="M392.5000221952796,200.50000873953104A6,6,0,1,1,380.5000221952796,200.50000873953104A6,6,0,1,1,392.5000221952796,200.50000873953104"></path><path id="kity_path_246" fill="none" stroke="gray" d="M382.0000221952796,200.50000873953104L391.0000221952796,200.50000873953104"></path></g><path id="node_outline10" fill="none" stroke="none" d="M397.50002291053534,189.50000873953104h82a5,5,0,0,1,5,5v12a5,5,0,0,1,-5,5h-82a5,5,0,0,1,-5,-5v-12a5,5,0,0,1,5,-5z" stroke-width="3"></path><g id="node_text10" fill="black"><text id="kity_text_123" text-rendering="inherit" font-size="12" dy=".8em" y="192.7000087408083" x="402.50002291053534">基本数据类型</text></g></g><g id="minder_node9"><g id="node_expander6" style="cursor: pointer;" display="none"><path id="kity_path_236" fill="white" stroke="gray" d="M524.5000280961394,200.50000873953104A6,6,0,1,1,512.5000280961394,200.50000873953104A6,6,0,1,1,524.5000280961394,200.50000873953104"></path><path id="kity_path_237" fill="none" stroke="gray"></path></g><path id="node_outline7" fill="none" stroke="none" d="M529.5000288113952,189.50000873953104h35a5,5,0,0,1,5,5v12a5,5,0,0,1,-5,5h-35a5,5,0,0,1,-5,-5v-12a5,5,0,0,1,5,-5z" stroke-width="3"></path><g id="node_text7" fill="black"><text id="kity_text_117" text-rendering="inherit" font-size="12" dy=".8em" y="192.7000087408083" x="534.5000288113952">值域</text></g></g><g id="minder_node10"><g id="node_expander7" style="cursor: pointer;" display="none"><path id="kity_path_239" fill="white" stroke="gray" d="M524.5000280961394,252.5000110641122A6,6,0,1,1,512.5000280961394,252.5000110641122A6,6,0,1,1,524.5000280961394,252.5000110641122"></path><path id="kity_path_240" fill="none" stroke="gray" d="M514.0000280961394,252.5000110641122L523.0000280961394,252.5000110641122"></path></g><path id="node_outline8" fill="none" stroke="none" d="M529.5000288113952,241.5000110641122h35a5,5,0,0,1,5,5v12a5,5,0,0,1,-5,5h-35a5,5,0,0,1,-5,-5v-12a5,5,0,0,1,5,-5z" stroke-width="3"></path><g id="node_text8" fill="black"><text id="kity_text_119" text-rendering="inherit" font-size="12" dy=".8em" y="244.70001106538945" x="534.5000288113952">运算</text></g></g><g id="minder_node11" opacity="1"><g id="node_expander8" style="cursor: pointer;"><path id="kity_path_242" fill="white" stroke="gray" d="M392.5000221952796,486.50002152472734A6,6,0,1,1,380.5000221952796,486.50002152472734A6,6,0,1,1,392.5000221952796,486.50002152472734"></path><path id="kity_path_243" fill="none" stroke="gray" d="M382.0000221952796,486.50002152472734L391.0000221952796,486.50002152472734"></path></g><path id="node_outline9" fill="none" stroke="none" d="M397.50002291053534,475.50002152472734h59a5,5,0,0,1,5,5v12a5,5,0,0,1,-5,5h-59a5,5,0,0,1,-5,-5v-12a5,5,0,0,1,5,-5z" stroke-width="3"></path><g id="node_text9" fill="black"><text id="kity_text_121" text-rendering="inherit" font-size="12" dy=".8em" y="478.7000215260046" x="402.50002291053534">类型转换</text></g></g><g id="minder_node12"><g id="node_expander13" style="cursor: pointer;"><path id="kity_path_257" fill="white" stroke="gray" d="M392.5000221952796,356.5000157132745A6,6,0,1,1,380.5000221952796,356.5000157132745A6,6,0,1,1,392.5000221952796,356.5000157132745"></path><path id="kity_path_258" fill="none" stroke="gray" d="M382.0000221952796,356.5000157132745L391.0000221952796,356.5000157132745"></path></g><path id="node_outline14" fill="none" stroke="none" d="M397.50002291053534,345.5000157132745h83a5,5,0,0,1,5,5v12a5,5,0,0,1,-5,5h-83a5,5,0,0,1,-5,-5v-12a5,5,0,0,1,5,-5z"></path><g id="node_text14" fill="black"><text id="kity_text_131" text-rendering="inherit" font-size="12" dy=".8em" y="348.70001571455174" x="402.50002291053534">复合数据类型</text></g></g><g id="minder_node13"><g id="node_expander10" style="cursor: pointer;" display="none"><path id="kity_path_248" fill="white" stroke="gray" d="M525.5000281408429,304.50001338869333A6,6,0,1,1,513.5000281408429,304.50001338869333A6,6,0,1,1,525.5000281408429,304.50001338869333"></path><path id="kity_path_249" fill="none" stroke="gray"></path></g><path id="node_outline11" fill="none" stroke="none" d="M530.5000288560987,293.50001338869333h35a5,5,0,0,1,5,5v12a5,5,0,0,1,-5,5h-35a5,5,0,0,1,-5,-5v-12a5,5,0,0,1,5,-5z" stroke-width="3"></path><g id="node_text11" fill="black"><text id="kity_text_125" text-rendering="inherit" font-size="12" dy=".8em" y="296.7000133899706" x="535.5000288560987">数组</text></g></g><g id="minder_node14"><g id="node_expander11" style="cursor: pointer;" display="none"><path id="kity_path_251" fill="white" stroke="gray" d="M525.5000281408429,356.5000157132745A6,6,0,1,1,513.5000281408429,356.5000157132745A6,6,0,1,1,525.5000281408429,356.5000157132745"></path><path id="kity_path_252" fill="none" stroke="gray"></path></g><path id="node_outline12" fill="none" stroke="none" d="M530.5000288560987,345.5000157132745h35a5,5,0,0,1,5,5v12a5,5,0,0,1,-5,5h-35a5,5,0,0,1,-5,-5v-12a5,5,0,0,1,5,-5z" stroke-width="3"></path><g id="node_text12" fill="black"><text id="kity_text_127" text-rendering="inherit" font-size="12" dy=".8em" y="348.70001571455174" x="535.5000288560987">枚举</text></g></g><g id="minder_node15"><g id="node_expander12" style="cursor: pointer;" display="none"><path id="kity_path_254" fill="white" stroke="gray" d="M525.5000281408429,408.5000180378556A6,6,0,1,1,513.5000281408429,408.5000180378556A6,6,0,1,1,525.5000281408429,408.5000180378556"></path><path id="kity_path_255" fill="none" stroke="gray"></path></g><path id="node_outline13" fill="none" stroke="none" d="M530.5000288560987,397.5000180378556h35a5,5,0,0,1,5,5v12a5,5,0,0,1,-5,5h-35a5,5,0,0,1,-5,-5v-12a5,5,0,0,1,5,-5z" stroke-width="3"></path><g id="node_text13" fill="black"><text id="kity_text_129" text-rendering="inherit" font-size="12" dy=".8em" y="400.7000180391329" x="535.5000288560987">元组</text></g></g><g id="minder_node16"><g id="node_expander21" style="cursor: pointer;"><path id="kity_path_281" fill="white" stroke="gray" d="M283.5000173225999,691.5000306889415A6,6,0,1,1,271.5000173225999,691.5000306889415A6,6,0,1,1,283.5000173225999,691.5000306889415"></path><path id="kity_path_282" fill="none" stroke="gray" d="M273.0000173225999,691.5000306889415L282.0000173225999,691.5000306889415"></path></g><path id="node_outline22" fill="rgb(238, 243, 246)" stroke="rgb(115, 161, 191)" d="M287.50001852959394,678.5000306889415h62a3,3,0,0,1,3,3v20a3,3,0,0,1,-3,3h-62a3,3,0,0,1,-3,-3v-20a3,3,0,0,1,3,-3z" stroke-width="1"></path><g id="node_text22" fill="black"><text id="kity_text_147" text-rendering="inherit" font-size="14" dy=".8em" y="682.4000307585512" x="304.50001852959394">语句</text></g></g><g id="minder_node17"><g id="node_expander17" style="cursor: pointer;"><path id="kity_path_269" fill="white" stroke="gray" d="M392.5000221952796,600.5000266209245A6,6,0,1,1,380.5000221952796,600.5000266209245A6,6,0,1,1,392.5000221952796,600.5000266209245"></path><path id="kity_path_270" fill="none" stroke="gray" d="M382.0000221952796,600.5000266209245L391.0000221952796,600.5000266209245"></path></g><path id="node_outline18" fill="none" stroke="none" d="M397.50002291053534,589.5000266209245h59a5,5,0,0,1,5,5v12a5,5,0,0,1,-5,5h-59a5,5,0,0,1,-5,-5v-12a5,5,0,0,1,5,-5z"></path><g id="node_text18" fill="black"><text id="kity_text_139" text-rendering="inherit" font-size="12" dy=".8em" y="592.7000266222017" x="402.50002291053534">顺序语句</text></g></g><g id="minder_node18"><g id="node_expander15" style="cursor: pointer;" display="none"><path id="kity_path_263" fill="white" stroke="gray" d="M501.5000270679593,574.5000254586339A6,6,0,1,1,489.5000270679593,574.5000254586339A6,6,0,1,1,501.5000270679593,574.5000254586339"></path><path id="kity_path_264" fill="none" stroke="gray"></path></g><path id="node_outline16" fill="none" stroke="none" d="M506.50002778321505,563.5000254586339h58a5,5,0,0,1,5,5v12a5,5,0,0,1,-5,5h-58a5,5,0,0,1,-5,-5v-12a5,5,0,0,1,5,-5z"></path><g id="node_text16" fill="black"><text id="kity_text_135" text-rendering="inherit" font-size="12" dy=".8em" y="566.7000254599111" x="511.50002778321505">声明语句</text></g></g><g id="minder_node19"><g id="node_expander16" style="cursor: pointer;" display="none"><path id="kity_path_266" fill="white" stroke="gray" d="M501.5000270679593,626.500027783215A6,6,0,1,1,489.5000270679593,626.500027783215A6,6,0,1,1,501.5000270679593,626.500027783215"></path><path id="kity_path_267" fill="none" stroke="gray"></path></g><path id="node_outline17" fill="none" stroke="none" d="M506.50002778321505,615.500027783215h58a5,5,0,0,1,5,5v12a5,5,0,0,1,-5,5h-58a5,5,0,0,1,-5,-5v-12a5,5,0,0,1,5,-5z"></path><g id="node_text17" fill="black"><text id="kity_text_137" text-rendering="inherit" font-size="12" dy=".8em" y="618.7000277844922" x="511.50002778321505">赋值语句</text></g></g><g id="minder_node20"><g id="node_expander18" style="cursor: pointer;" display="none"><path id="kity_path_272" fill="white" stroke="gray" d="M392.5000221952796,678.5000301077962A6,6,0,1,1,380.5000221952796,678.5000301077962A6,6,0,1,1,392.5000221952796,678.5000301077962"></path><path id="kity_path_273" fill="none" stroke="gray"></path></g><path id="node_outline19" fill="none" stroke="none" d="M397.50002291053534,667.5000301077962h59a5,5,0,0,1,5,5v12a5,5,0,0,1,-5,5h-59a5,5,0,0,1,-5,-5v-12a5,5,0,0,1,5,-5z"></path><g id="node_text19" fill="black"><text id="kity_text_141" text-rendering="inherit" font-size="12" dy=".8em" y="670.7000301090734" x="402.50002291053534">分支语句</text></g></g><g id="minder_node21"><g id="node_expander19" style="cursor: pointer;" display="none"><path id="kity_path_275" fill="white" stroke="gray" d="M392.5000221952796,730.5000324323773A6,6,0,1,1,380.5000221952796,730.5000324323773A6,6,0,1,1,392.5000221952796,730.5000324323773"></path><path id="kity_path_276" fill="none" stroke="gray"></path></g><path id="node_outline20" fill="none" stroke="none" d="M397.50002291053534,719.5000324323773h58a5,5,0,0,1,5,5v12a5,5,0,0,1,-5,5h-58a5,5,0,0,1,-5,-5v-12a5,5,0,0,1,5,-5z"></path><g id="node_text20" fill="black"><text id="kity_text_143" text-rendering="inherit" font-size="12" dy=".8em" y="722.7000324336545" x="402.50002291053534">循环语句</text></g></g><g id="minder_node22"><g id="node_expander20" style="cursor: pointer;" display="none"><path id="kity_path_278" fill="white" stroke="gray" d="M392.5000221952796,782.5000347569585A6,6,0,1,1,380.5000221952796,782.5000347569585A6,6,0,1,1,392.5000221952796,782.5000347569585"></path><path id="kity_path_279" fill="none" stroke="gray"></path></g><path id="node_outline21" fill="none" stroke="none" d="M397.50002291053534,771.5000347569585h58a5,5,0,0,1,5,5v12a5,5,0,0,1,-5,5h-58a5,5,0,0,1,-5,-5v-12a5,5,0,0,1,5,-5z"></path><g id="node_text21" fill="black"><text id="kity_text_145" text-rendering="inherit" font-size="12" dy=".8em" y="774.7000347582357" x="402.50002291053534">异常控制</text></g></g><g id="minder_node23"><g id="node_expander28" style="cursor: pointer;"><path id="kity_path_302" fill="white" stroke="gray" d="M283.5000173225999,974.5000433400273A6,6,0,1,1,271.5000173225999,974.5000433400273A6,6,0,1,1,283.5000173225999,974.5000433400273"></path><path id="kity_path_303" fill="none" stroke="gray" d="M273.0000173225999,974.5000433400273L282.0000173225999,974.5000433400273"></path></g><path id="node_outline29" fill="rgb(238, 243, 246)" stroke="rgb(115, 161, 191)" d="M287.50001852959394,961.5000433400273h63a3,3,0,0,1,3,3v20a3,3,0,0,1,-3,3h-63a3,3,0,0,1,-3,-3v-20a3,3,0,0,1,3,-3z" stroke-width="1"></path><g id="node_text29" fill="black"><text id="kity_text_161" text-rendering="inherit" font-size="14" dy=".8em" y="965.4000434096371" x="304.50001852959394">模块</text></g></g><g id="minder_node24"><g id="node_expander25" style="cursor: pointer;"><path id="kity_path_293" fill="white" stroke="gray" d="M393.5000222399831,896.5000398531556A6,6,0,1,1,381.5000222399831,896.5000398531556A6,6,0,1,1,393.5000222399831,896.5000398531556"></path><path id="kity_path_294" fill="none" stroke="gray" d="M383.0000222399831,896.5000398531556L392.0000222399831,896.5000398531556"></path></g><path id="node_outline26" fill="none" stroke="none" d="M398.5000229552388,885.5000398531556h58a5,5,0,0,1,5,5v12a5,5,0,0,1,-5,5h-58a5,5,0,0,1,-5,-5v-12a5,5,0,0,1,5,-5z"></path><g id="node_text26" fill="black"><text id="kity_text_155" text-rendering="inherit" font-size="12" dy=".8em" y="888.7000398544328" x="403.5000229552388">命名空间</text></g></g><g id="minder_node25"><g id="node_expander22" style="cursor: pointer;" display="none"><path id="kity_path_284" fill="white" stroke="gray" d="M501.5000270679593,844.5000375285745A6,6,0,1,1,489.5000270679593,844.5000375285745A6,6,0,1,1,501.5000270679593,844.5000375285745"></path><path id="kity_path_285" fill="none" stroke="gray"></path></g><path id="node_outline23" fill="none" stroke="none" d="M506.50002778321505,833.5000375285745h58a5,5,0,0,1,5,5v12a5,5,0,0,1,-5,5h-58a5,5,0,0,1,-5,-5v-12a5,5,0,0,1,5,-5z"></path><g id="node_text23" fill="black"><text id="kity_text_149" text-rendering="inherit" font-size="12" dy=".8em" y="836.7000375298517" x="511.50002778321505">组织模块</text></g></g><g id="minder_node26"><g id="node_expander23" style="cursor: pointer;" display="none"><path id="kity_path_287" fill="white" stroke="gray" d="M501.5000270679593,896.5000398531556A6,6,0,1,1,489.5000270679593,896.5000398531556A6,6,0,1,1,501.5000270679593,896.5000398531556"></path><path id="kity_path_288" fill="none" stroke="gray"></path></g><path id="node_outline24" fill="none" stroke="none" d="M506.50002778321505,885.5000398531556h59a5,5,0,0,1,5,5v12a5,5,0,0,1,-5,5h-59a5,5,0,0,1,-5,-5v-12a5,5,0,0,1,5,-5z"></path><g id="node_text24" fill="black"><text id="kity_text_151" text-rendering="inherit" font-size="12" dy=".8em" y="888.7000398544328" x="511.50002778321505">导入名称</text></g></g><g id="minder_node27"><g id="node_expander24" style="cursor: pointer;" display="none"><path id="kity_path_290" fill="white" stroke="gray" d="M501.5000270679593,948.5000421777368A6,6,0,1,1,489.5000270679593,948.5000421777368A6,6,0,1,1,501.5000270679593,948.5000421777368"></path><path id="kity_path_291" fill="none" stroke="gray"></path></g><path id="node_outline25" fill="none" stroke="none" d="M506.50002778321505,937.5000421777368h59a5,5,0,0,1,5,5v12a5,5,0,0,1,-5,5h-59a5,5,0,0,1,-5,-5v-12a5,5,0,0,1,5,-5z"></path><g id="node_text25" fill="black"><text id="kity_text_153" text-rendering="inherit" font-size="12" dy=".8em" y="940.700042179014" x="511.50002778321505">导出名称</text></g></g><g id="minder_node28"><g id="node_expander26" style="cursor: pointer;" display="none"><path id="kity_path_296" fill="white" stroke="gray" d="M393.5000222399831,1000.5000445023179A6,6,0,1,1,381.5000222399831,1000.5000445023179A6,6,0,1,1,393.5000222399831,1000.5000445023179"></path><path id="kity_path_297" fill="none" stroke="gray"></path></g><path id="node_outline27" fill="none" stroke="none" d="M398.5000229552388,989.5000445023179h35a5,5,0,0,1,5,5v12a5,5,0,0,1,-5,5h-35a5,5,0,0,1,-5,-5v-12a5,5,0,0,1,5,-5z"></path><g id="node_text27" fill="black"><text id="kity_text_157" text-rendering="inherit" font-size="12" dy=".8em" y="992.7000445035951" x="403.5000229552388">函数</text></g></g><g id="minder_node29"><g id="node_expander27" style="cursor: pointer;" display="none"><path id="kity_path_299" fill="white" stroke="gray" d="M393.5000222399831,1052.500046826899A6,6,0,1,1,381.5000222399831,1052.500046826899A6,6,0,1,1,393.5000222399831,1052.500046826899"></path><path id="kity_path_300" fill="none" stroke="gray"></path></g><path id="node_outline28" fill="none" stroke="none" d="M398.5000229552388,1041.500046826899h23a5,5,0,0,1,5,5v12a5,5,0,0,1,-5,5h-23a5,5,0,0,1,-5,-5v-12a5,5,0,0,1,5,-5z"></path><g id="node_text28" fill="black"><text id="kity_text_159" text-rendering="inherit" font-size="12" dy=".8em" y="1044.7000468281763" x="403.5000229552388">类</text></g></g><g id="minder_node30"><g id="node_expander32" style="cursor: pointer;"><path id="kity_path_314" fill="white" stroke="gray" d="M283.5000173225999,1166.5000519230962A6,6,0,1,1,271.5000173225999,1166.5000519230962A6,6,0,1,1,283.5000173225999,1166.5000519230962"></path><path id="kity_path_315" fill="none" stroke="gray" d="M273.0000173225999,1166.5000519230962L282.0000173225999,1166.5000519230962"></path></g><path id="node_outline33" fill="rgb(238, 243, 246)" stroke="rgb(115, 161, 191)" d="M287.50001852959394,1153.5000519230962h62a3,3,0,0,1,3,3v20a3,3,0,0,1,-3,3h-62a3,3,0,0,1,-3,-3v-20a3,3,0,0,1,3,-3z" stroke-width="1"></path><g id="node_text33" fill="black"><text id="kity_text_169" text-rendering="inherit" font-size="14" dy=".8em" y="1157.4000519927058" x="304.50001852959394">工具</text></g></g><g id="minder_node31"><g id="node_expander29" style="cursor: pointer;" display="none"><path id="kity_path_305" fill="white" stroke="gray" d="M392.5000221952796,1114.500049598515A6,6,0,1,1,380.5000221952796,1114.500049598515A6,6,0,1,1,392.5000221952796,1114.500049598515"></path><path id="kity_path_306" fill="none" stroke="gray"></path></g><path id="node_outline30" fill="none" stroke="none" d="M397.50002291053534,1103.500049598515h82a5,5,0,0,1,5,5v12a5,5,0,0,1,-5,5h-82a5,5,0,0,1,-5,-5v-12a5,5,0,0,1,5,-5z"></path><g id="node_text30" fill="black"><text id="kity_text_163" text-rendering="inherit" font-size="12" dy=".8em" y="1106.7000495997922" x="402.50002291053534">输入输出工具</text></g></g><g id="minder_node32"><g id="node_expander30" style="cursor: pointer;" display="none"><path id="kity_path_308" fill="white" stroke="gray" d="M392.5000221952796,1166.5000519230962A6,6,0,1,1,380.5000221952796,1166.5000519230962A6,6,0,1,1,392.5000221952796,1166.5000519230962"></path><path id="kity_path_309" fill="none" stroke="gray"></path></g><path id="node_outline31" fill="none" stroke="none" d="M397.50002291053534,1155.5000519230962h70a5,5,0,0,1,5,5v12a5,5,0,0,1,-5,5h-70a5,5,0,0,1,-5,-5v-12a5,5,0,0,1,5,-5z"></path><g id="node_text31" fill="black"><text id="kity_text_165" text-rendering="inherit" font-size="12" dy=".8em" y="1158.7000519243734" x="402.50002291053534">字符串工具</text></g></g><g id="minder_node33"><g id="node_expander31" style="cursor: pointer;" display="none"><path id="kity_path_311" fill="white" stroke="gray" d="M392.5000221952796,1218.5000542476773A6,6,0,1,1,380.5000221952796,1218.5000542476773A6,6,0,1,1,392.5000221952796,1218.5000542476773"></path><path id="kity_path_312" fill="none" stroke="gray"></path></g><path id="node_outline32" fill="none" stroke="none" d="M397.50002291053534,1207.5000542476773h59a5,5,0,0,1,5,5v12a5,5,0,0,1,-5,5h-59a5,5,0,0,1,-5,-5v-12a5,5,0,0,1,5,-5z"></path><g id="node_text32" fill="black"><text id="kity_text_167" text-rendering="inherit" font-size="12" dy=".8em" y="1210.7000542489545" x="402.50002291053534">数组工具</text></g></g><g id="minder_node34"><g id="node_expander38" style="cursor: pointer;"><path id="kity_path_332" fill="white" stroke="gray" d="M283.5000173225999,1358.500060506165A6,6,0,1,1,271.5000173225999,1358.500060506165A6,6,0,1,1,283.5000173225999,1358.500060506165"></path><path id="kity_path_333" fill="none" stroke="gray" d="M273.0000173225999,1358.500060506165L282.0000173225999,1358.500060506165"></path></g><path id="node_outline39" fill="rgb(238, 243, 246)" stroke="rgb(115, 161, 191)" d="M287.50001852959394,1345.500060506165h62a3,3,0,0,1,3,3v20a3,3,0,0,1,-3,3h-62a3,3,0,0,1,-3,-3v-20a3,3,0,0,1,3,-3z" stroke-width="1"></path><g id="node_text39" fill="black"><text id="kity_text_181" text-rendering="inherit" font-size="14" dy=".8em" y="1349.4000605757747" x="304.50001852959394">类库</text></g></g><g id="minder_node35"><g id="node_expander34" style="cursor: pointer;"><path id="kity_path_320" fill="white" stroke="gray" d="M392.5000221952796,1280.5000570192933A6,6,0,1,1,380.5000221952796,1280.5000570192933A6,6,0,1,1,392.5000221952796,1280.5000570192933"></path><path id="kity_path_321" fill="none" stroke="gray" d="M382.0000221952796,1280.5000570192933L391.0000221952796,1280.5000570192933"></path></g><path id="node_outline35" fill="none" stroke="none" d="M397.50002291053534,1269.5000570192933h35a5,5,0,0,1,5,5v12a5,5,0,0,1,-5,5h-35a5,5,0,0,1,-5,-5v-12a5,5,0,0,1,5,-5z"></path><g id="node_text35" fill="black"><text id="kity_text_173" text-rendering="inherit" font-size="12" dy=".8em" y="1272.7000570205705" x="402.50002291053534">数学</text></g></g><g id="minder_node36"><g id="node_expander33" style="cursor: pointer;" display="none"><path id="kity_path_317" fill="white" stroke="gray" d="M477.5000259950757,1280.5000570192933A6,6,0,1,1,465.5000259950757,1280.5000570192933A6,6,0,1,1,477.5000259950757,1280.5000570192933"></path><path id="kity_path_318" fill="none" stroke="gray"></path></g><path id="node_outline34" fill="none" stroke="none" d="M482.50002671033144,1269.5000570192933h71a5,5,0,0,1,5,5v12a5,5,0,0,1,-5,5h-71a5,5,0,0,1,-5,-5v-12a5,5,0,0,1,5,-5z"></path><g id="node_text34" fill="black"><text id="kity_text_171" text-rendering="inherit" font-size="12" dy=".8em" y="1272.7000570205705" x="487.50002671033144">高精度运算</text></g></g><g id="minder_node37"><g id="node_expander35" style="cursor: pointer;" display="none"><path id="kity_path_323" fill="white" stroke="gray" d="M392.5000221952796,1332.5000593438745A6,6,0,1,1,380.5000221952796,1332.5000593438745A6,6,0,1,1,392.5000221952796,1332.5000593438745"></path><path id="kity_path_324" fill="none" stroke="gray"></path></g><path id="node_outline36" fill="none" stroke="none" d="M397.50002291053534,1321.5000593438745h70a5,5,0,0,1,5,5v12a5,5,0,0,1,-5,5h-70a5,5,0,0,1,-5,-5v-12a5,5,0,0,1,5,-5z"></path><g id="node_text36" fill="black"><text id="kity_text_175" text-rendering="inherit" font-size="12" dy=".8em" y="1324.7000593451517" x="402.50002291053534">日期和时间</text></g></g><g id="minder_node38"><g id="node_expander36" style="cursor: pointer;" display="none"><path id="kity_path_326" fill="white" stroke="gray" d="M392.5000221952796,1384.5000616684556A6,6,0,1,1,380.5000221952796,1384.5000616684556A6,6,0,1,1,392.5000221952796,1384.5000616684556"></path><path id="kity_path_327" fill="none" stroke="gray"></path></g><path id="node_outline37" fill="none" stroke="none" d="M397.50002291053534,1373.5000616684556h35a5,5,0,0,1,5,5v12a5,5,0,0,1,-5,5h-35a5,5,0,0,1,-5,-5v-12a5,5,0,0,1,5,-5z"></path><g id="node_text37" fill="black"><text id="kity_text_177" text-rendering="inherit" font-size="12" dy=".8em" y="1376.7000616697328" x="402.50002291053534">文件</text></g></g><g id="minder_node39"><g id="node_expander37" style="cursor: pointer;" display="none"><path id="kity_path_329" fill="white" stroke="gray" d="M392.5000221952796,1436.5000639930367A6,6,0,1,1,380.5000221952796,1436.5000639930367A6,6,0,1,1,392.5000221952796,1436.5000639930367"></path><path id="kity_path_330" fill="none" stroke="gray"></path></g><path id="node_outline38" fill="none" stroke="none" d="M397.50002291053534,1425.5000639930367h34a5,5,0,0,1,5,5v12a5,5,0,0,1,-5,5h-34a5,5,0,0,1,-5,-5v-12a5,5,0,0,1,5,-5z"></path><g id="node_text38" fill="black"><text id="kity_text_179" text-rendering="inherit" font-size="12" dy=".8em" y="1428.700063994314" x="402.50002291053534">网络</text></g></g><g id="kity_g_12" display="none"><path id="kity_path_13" fill="none" stroke="rgb(66, 94, 112)" d="M287.5000069066882,265.5000308677554h62a3,3,0,0,1,3,3v20a3,3,0,0,1,-3,3h-62a3,3,0,0,1,-3,-3v-20a3,3,0,0,1,3,-3z" stroke-width="5"></path></g><g id="minder_node40"><g id="node_expander39" style="cursor: pointer;" display="none"><path id="kity_path_340" fill="white" stroke="gray" d="M501.5000270679593,460.50002036243677A6,6,0,1,1,489.5000270679593,460.50002036243677A6,6,0,1,1,501.5000270679593,460.50002036243677"></path><path id="kity_path_341" fill="none" stroke="gray"></path></g><path id="node_outline40" fill="none" stroke="none" d="M506.50002778321505,449.50002036243677h83a5,5,0,0,1,5,5v12a5,5,0,0,1,-5,5h-83a5,5,0,0,1,-5,-5v-12a5,5,0,0,1,5,-5z" stroke-width="3"></path><g id="node_text40" fill="black"><text id="kity_text_337" text-rendering="inherit" font-size="12" dy=".8em" y="452.70002036371403" x="511.50002778321505">自动类型转换</text></g></g><g id="minder_node41"><g id="node_expander40" style="cursor: pointer;" display="none"><path id="kity_path_348" fill="white" stroke="gray" d="M501.5000270679593,512.5000226870179A6,6,0,1,1,489.5000270679593,512.5000226870179A6,6,0,1,1,501.5000270679593,512.5000226870179"></path><path id="kity_path_349" fill="none" stroke="gray"></path></g><path id="node_outline41" fill="none" stroke="none" d="M506.50002778321505,501.5000226870179h83a5,5,0,0,1,5,5v12a5,5,0,0,1,-5,5h-83a5,5,0,0,1,-5,-5v-12a5,5,0,0,1,5,-5z" stroke-width="3"></path><g id="node_text41" fill="black"><text id="kity_text_345" text-rendering="inherit" font-size="12" dy=".8em" y="504.7000226882952" x="511.50002778321505">强制类型转换</text></g></g></g></g></svg>