<svg id="kity_svg_6" xmlns="http://www.w3.org/2000/svg" xmlns:xlink="http://www.w3.org/1999/xlink" version="1.1" width="746" height="1468" style="background: rgb(251, 251, 251); visibility: visible;" viewBox="0 0 746 1468"><defs id="kity_defs_7"><linearGradient id="kity_linearGradient_17" x1="0" y1="0" x2="0" y2="1"><stop id="kity_stop_18" offset="0" stop-color="rgb(255, 255, 255)"></stop><stop id="kity_stop_19" offset="1" stop-color="rgb(204, 204, 204)"></stop></linearGradient><marker id="kity_marker_2" orient="auto" refX="6" refY="0" viewBox="-7 -7 14 14" markerWidth="7" markerHeight="7" markerUnits="userSpaceOnUse"><path id="kity_path_3" fill="rgb(115, 161, 191)" stroke="none" d="M6,0A6,6,0,1,1,-6,0A6,6,0,1,1,6,0"></path></marker></defs><g id="kity_g_8"><g id="minder1" text-rendering="optimize-speed"><g id="minder_connect_group1"><path id="kity_path_31" fill="none" stroke="rgb(115, 161, 191)" stroke-width="1" d="M92.50001535564661,696.5000340417027A190,663,0,0,1,282.5000153556466,33.50003404170275"></path><path id="kity_path_33" fill="none" stroke="rgb(115, 161, 191)" stroke-width="1" d="M353.5000153556466,33.50003404170275C373.5000153556466,33.50003404170275,373.5000153556466,33.50003404170275,393.5000153556466,33.50003404170275"></path><path id="kity_path_35" fill="none" stroke="rgb(115, 161, 191)" stroke-width="1" d="M462.5000153556466,33.50003404170275C482.5000153556466,33.50003404170275,482.5000153556466,33.50003404170275,502.5000153556466,33.50003404170275"></path><path id="kity_path_37" fill="none" stroke="rgb(115, 161, 191)" stroke-width="1" d="M92.50001535564661,696.5000340417027A190,417,0,0,1,282.5000153556466,279.50003404170275"></path><path id="kity_path_39" fill="none" stroke="rgb(115, 161, 191)" stroke-width="1" d="M352.5000153556466,279.50003404170275C372.5000153556466,279.50003404170275,372.5000153556466,97.50003404170275,392.5000153556466,97.50003404170275"></path><path id="kity_path_41" fill="none" stroke="rgb(115, 161, 191)" stroke-width="1" d="M484.5000153556466,240.50003404170275C504.5000153556466,240.50003404170275,504.5000153556466,149.50003404170275,524.5000153556466,149.50003404170275"></path><path id="kity_path_43" fill="none" stroke="rgb(115, 161, 191)" stroke-width="1" d="M352.5000153556466,279.50003404170275C372.5000153556466,279.50003404170275,372.5000153556466,240.50003404170275,392.5000153556466,240.50003404170275"></path><path id="kity_path_45" fill="none" stroke="rgb(115, 161, 191)" stroke-width="1" d="M484.5000153556466,240.50003404170275C504.5000153556466,240.50003404170275,504.5000153556466,201.50003404170275,524.5000153556466,201.50003404170275"></path><path id="kity_path_47" fill="none" stroke="rgb(115, 161, 191)" stroke-width="1" d="M484.5000153556466,240.50003404170275C504.5000153556466,240.50003404170275,504.5000153556466,253.50003404170275,524.5000153556466,253.50003404170275"></path><path id="kity_path_49" fill="none" stroke="rgb(115, 161, 191)" stroke-width="1" d="M484.5000153556466,240.50003404170275C504.5000153556466,240.50003404170275,504.5000153556466,331.50003404170275,524.5000153556466,331.50003404170275"></path><path id="kity_path_51" fill="none" stroke="rgb(115, 161, 191)" stroke-width="1" d="M352.5000153556466,279.50003404170275C372.5000153556466,279.50003404170275,372.5000153556466,461.50003404170275,392.5000153556466,461.50003404170275"></path><path id="kity_path_53" fill="none" stroke="rgb(115, 161, 191)" stroke-width="1" d="M485.5000153556466,461.50003404170275C505.5000153556466,461.50003404170275,505.5000153556466,409.50003404170275,525.5000153556466,409.50003404170275"></path><path id="kity_path_55" fill="none" stroke="rgb(115, 161, 191)" stroke-width="1" d="M485.5000153556466,461.50003404170275C505.5000153556466,461.50003404170275,505.5000153556466,461.50003404170275,525.5000153556466,461.50003404170275"></path><path id="kity_path_57" fill="none" stroke="rgb(115, 161, 191)" stroke-width="1" d="M485.5000153556466,461.50003404170275C505.5000153556466,461.50003404170275,505.5000153556466,513.5000340417027,525.5000153556466,513.5000340417027"></path><path id="kity_path_59" fill="none" stroke="rgb(115, 161, 191)" stroke-width="1" d="M92.50001535564661,696.5000340417027A190,4,0,0,1,282.5000153556466,692.5000340417027"></path><path id="kity_path_61" fill="none" stroke="rgb(115, 161, 191)" stroke-width="1" d="M352.5000153556466,692.5000340417027C372.5000153556466,692.5000340417027,372.5000153556466,601.5000340417027,392.5000153556466,601.5000340417027"></path><path id="kity_path_63" fill="none" stroke="rgb(115, 161, 191)" stroke-width="1" d="M461.5000153556466,601.5000340417027C481.5000153556466,601.5000340417027,481.5000153556466,575.5000340417027,501.5000153556466,575.5000340417027"></path><path id="kity_path_65" fill="none" stroke="rgb(115, 161, 191)" stroke-width="1" d="M461.5000153556466,601.5000340417027C481.5000153556466,601.5000340417027,481.5000153556466,627.5000340417027,501.5000153556466,627.5000340417027"></path><path id="kity_path_67" fill="none" stroke="rgb(115, 161, 191)" stroke-width="1" d="M352.5000153556466,692.5000340417027C372.5000153556466,692.5000340417027,372.5000153556466,679.5000340417027,392.5000153556466,679.5000340417027"></path><path id="kity_path_69" fill="none" stroke="rgb(115, 161, 191)" stroke-width="1" d="M352.5000153556466,692.5000340417027C372.5000153556466,692.5000340417027,372.5000153556466,731.5000340417027,392.5000153556466,731.5000340417027"></path><path id="kity_path_71" fill="none" stroke="rgb(115, 161, 191)" stroke-width="1" d="M352.5000153556466,692.5000340417027C372.5000153556466,692.5000340417027,372.5000153556466,783.5000340417027,392.5000153556466,783.5000340417027"></path><path id="kity_path_73" fill="none" stroke="rgb(115, 161, 191)" stroke-width="1" d="M92.50001535564661,696.5000340417027A190,279,0,0,0,282.5000153556466,975.5000340417027"></path><path id="kity_path_75" fill="none" stroke="rgb(115, 161, 191)" stroke-width="1" d="M353.5000153556466,975.5000340417027C373.5000153556466,975.5000340417027,373.5000153556466,897.5000340417027,393.5000153556466,897.5000340417027"></path><path id="kity_path_77" fill="none" stroke="rgb(115, 161, 191)" stroke-width="1" d="M461.5000153556466,897.5000340417027C481.5000153556466,897.5000340417027,481.5000153556466,845.5000340417027,501.5000153556466,845.5000340417027"></path><path id="kity_path_79" fill="none" stroke="rgb(115, 161, 191)" stroke-width="1" d="M461.5000153556466,897.5000340417027C481.5000153556466,897.5000340417027,481.5000153556466,897.5000340417027,501.5000153556466,897.5000340417027"></path><path id="kity_path_81" fill="none" stroke="rgb(115, 161, 191)" stroke-width="1" d="M461.5000153556466,897.5000340417027C481.5000153556466,897.5000340417027,481.5000153556466,949.5000340417027,501.5000153556466,949.5000340417027"></path><path id="kity_path_83" fill="none" stroke="rgb(115, 161, 191)" stroke-width="1" d="M353.5000153556466,975.5000340417027C373.5000153556466,975.5000340417027,373.5000153556466,1001.5000340417027,393.5000153556466,1001.5000340417027"></path><path id="kity_path_85" fill="none" stroke="rgb(115, 161, 191)" stroke-width="1" d="M353.5000153556466,975.5000340417027C373.5000153556466,975.5000340417027,373.5000153556466,1053.5000340417027,393.5000153556466,1053.5000340417027"></path><path id="kity_path_87" fill="none" stroke="rgb(115, 161, 191)" stroke-width="1" d="M92.50001535564661,696.5000340417027A190,471,0,0,0,282.5000153556466,1167.5000340417027"></path><path id="kity_path_89" fill="none" stroke="rgb(115, 161, 191)" stroke-width="1" d="M352.5000153556466,1167.5000340417027C372.5000153556466,1167.5000340417027,372.5000153556466,1115.5000340417027,392.5000153556466,1115.5000340417027"></path><path id="kity_path_91" fill="none" stroke="rgb(115, 161, 191)" stroke-width="1" d="M352.5000153556466,1167.5000340417027C372.5000153556466,1167.5000340417027,372.5000153556466,1167.5000340417027,392.5000153556466,1167.5000340417027"></path><path id="kity_path_93" fill="none" stroke="rgb(115, 161, 191)" stroke-width="1" d="M352.5000153556466,1167.5000340417027C372.5000153556466,1167.5000340417027,372.5000153556466,1219.5000340417027,392.5000153556466,1219.5000340417027"></path><path id="kity_path_95" fill="none" stroke="rgb(115, 161, 191)" stroke-width="1" d="M92.50001535564661,696.5000340417027A190,663,0,0,0,282.5000153556466,1359.5000340417027"></path><path id="kity_path_97" fill="none" stroke="rgb(115, 161, 191)" stroke-width="1" d="M352.5000153556466,1359.5000340417027C372.5000153556466,1359.5000340417027,372.5000153556466,1281.5000340417027,392.5000153556466,1281.5000340417027"></path><path id="kity_path_99" fill="none" stroke="rgb(115, 161, 191)" stroke-width="1" d="M437.5000153556466,1281.5000340417027C457.5000153556466,1281.5000340417027,457.5000153556466,1281.5000340417027,477.5000153556466,1281.5000340417027"></path><path id="kity_path_101" fill="none" stroke="rgb(115, 161, 191)" stroke-width="1" d="M352.5000153556466,1359.5000340417027C372.5000153556466,1359.5000340417027,372.5000153556466,1333.5000340417027,392.5000153556466,1333.5000340417027"></path><path id="kity_path_103" fill="none" stroke="rgb(115, 161, 191)" stroke-width="1" d="M352.5000153556466,1359.5000340417027C372.5000153556466,1359.5000340417027,372.5000153556466,1385.5000340417027,392.5000153556466,1385.5000340417027"></path><path id="kity_path_105" fill="none" stroke="rgb(115, 161, 191)" stroke-width="1" d="M352.5000153556466,1359.5000340417027C372.5000153556466,1359.5000340417027,372.5000153556466,1437.5000340417027,392.5000153556466,1437.5000340417027"></path><path id="kity_path_350" fill="none" stroke="rgb(115, 161, 191)" stroke-width="1" d="M593.5000153556466,331.50003404170275C613.5000153556466,331.50003404170275,613.5000153556466,305.50003404170275,633.5000153556466,305.50003404170275"></path><path id="kity_path_351" fill="none" stroke="rgb(115, 161, 191)" stroke-width="1" d="M593.5000153556466,331.50003404170275C613.5000153556466,331.50003404170275,613.5000153556466,357.50003404170275,633.5000153556466,357.50003404170275"></path></g><g id="minder_node1"><path id="node_outline1" fill="rgb(115, 161, 191)" stroke="rgb(115, 161, 191)" d="M25.50001535564661,676.5000340417027h134a5,5,0,0,1,5,5v30a5,5,0,0,1,-5,5h-134a5,5,0,0,1,-5,-5v-30a5,5,0,0,1,5,-5z" stroke-width="3"></path><g id="node_text1" fill="white"><text id="kity_text_22" text-rendering="inherit" font-size="16" dy=".8em" y="686.1000337709273" x="44.50001535564661">编程语言导图</text></g></g><g id="kity_g_14" display="none"><path id="kity_path_15" fill="rgba(0, 92, 153, 0.5)" stroke="none" d="M392.5000153556466,217.50003404170275h92v15h-92z"></path><path id="kity_path_16" fill="none" stroke="rgb(0, 76, 128)" d="M392.5000153556466,217.50003404170275L484.5000153556466,217.50003404170275" stroke-width="1"></path></g><g id="minder_node2"><g id="node_expander3" style="cursor: pointer;"><path id="kity_path_227" fill="white" stroke="gray" d="M283.5000257715583,33.50000440329313A6,6,0,1,1,271.5000257715583,33.50000440329313A6,6,0,1,1,283.5000257715583,33.50000440329313"></path><path id="kity_path_228" fill="none" stroke="gray" d="M273.0000257715583,33.50000440329313L282.0000257715583,33.50000440329313"></path></g><path id="node_outline4" fill="rgb(238, 243, 246)" stroke="rgb(115, 161, 191)" d="M287.50002697855234,20.500004403293133h63a3,3,0,0,1,3,3v20a3,3,0,0,1,-3,3h-63a3,3,0,0,1,-3,-3v-20a3,3,0,0,1,3,-3z" stroke-width="1"></path><g id="node_text4" fill="black"><text id="kity_text_111" text-rendering="inherit" font-size="14" dy=".8em" y="24.40000447290285" x="304.50002697855234">常识</text></g></g><g id="minder_node3"><g id="node_expander2" style="cursor: pointer;"><path id="kity_path_224" fill="white" stroke="gray" d="M393.5000306889415,33.50000440329313A6,6,0,1,1,381.5000306889415,33.50000440329313A6,6,0,1,1,393.5000306889415,33.50000440329313"></path><path id="kity_path_225" fill="none" stroke="gray" d="M383.0000306889415,33.50000440329313L392.0000306889415,33.50000440329313"></path></g><path id="node_outline3" fill="none" stroke="none" d="M398.5000314041972,22.500004403293133h59a5,5,0,0,1,5,5v12a5,5,0,0,1,-5,5h-59a5,5,0,0,1,-5,-5v-12a5,5,0,0,1,5,-5z" stroke-width="3"></path><g id="node_text3" fill="black"><text id="kity_text_109" text-rendering="inherit" font-size="12" dy=".8em" y="25.70000440457038" x="403.5000314041972">编程原则</text></g></g><g id="minder_node4"><g id="node_expander1" style="cursor: pointer;" display="none"><path id="kity_path_221" fill="white" stroke="gray" d="M502.5000355616212,33.50000440329313A6,6,0,1,1,490.5000355616212,33.50000440329313A6,6,0,1,1,502.5000355616212,33.50000440329313"></path><path id="kity_path_222" fill="none" stroke="gray"></path></g><path id="node_outline2" fill="none" stroke="none" d="M507.5000362768769,22.500004403293133h82a5,5,0,0,1,5,5v12a5,5,0,0,1,-5,5h-82a5,5,0,0,1,-5,-5v-12a5,5,0,0,1,5,-5z" stroke-width="3"></path><g id="node_text2" fill="black"><text id="kity_text_107" text-rendering="inherit" font-size="12" dy=".8em" y="25.70000440457038" x="512.5000362768769">开放闭合原则</text></g></g><g id="minder_node5"><g id="node_expander14" style="cursor: pointer;"><path id="kity_path_260" fill="white" stroke="gray" d="M283.5000257715583,279.5000154003501A6,6,0,1,1,271.5000257715583,279.5000154003501A6,6,0,1,1,283.5000257715583,279.5000154003501"></path><path id="kity_path_261" fill="none" stroke="gray" d="M273.0000257715583,279.5000154003501L282.0000257715583,279.5000154003501"></path></g><path id="node_outline15" fill="rgb(238, 243, 246)" stroke="rgb(115, 161, 191)" d="M287.50002697855234,266.5000154003501h62a3,3,0,0,1,3,3v20a3,3,0,0,1,-3,3h-62a3,3,0,0,1,-3,-3v-20a3,3,0,0,1,3,-3z" stroke-width="1"></path><g id="node_text15" fill="black"><text id="kity_text_133" text-rendering="inherit" font-size="14" dy=".8em" y="270.40001546995984" x="304.50002697855234">基础</text></g></g><g id="minder_node6"><g id="node_expander4" style="cursor: pointer;" display="none"><path id="kity_path_230" fill="white" stroke="gray" d="M392.500030644238,97.50000726431608A6,6,0,1,1,380.500030644238,97.50000726431608A6,6,0,1,1,392.500030644238,97.50000726431608"></path><path id="kity_path_231" fill="none" stroke="gray"></path></g><path id="node_outline5" fill="none" stroke="none" d="M397.50003135949373,86.50000726431608h58a5,5,0,0,1,5,5v12a5,5,0,0,1,-5,5h-58a5,5,0,0,1,-5,-5v-12a5,5,0,0,1,5,-5z" stroke-width="3"></path><g id="node_text5" fill="black"><text id="kity_text_113" text-rendering="inherit" font-size="12" dy=".8em" y="89.70000726559333" x="402.50003135949373">命名规范</text></g></g><g id="minder_node7" opacity="1"><g id="node_expander5" style="cursor: pointer;" display="none"><path id="kity_path_233" fill="white" stroke="gray" d="M524.5000365450978,149.50000958889723A6,6,0,1,1,512.5000365450978,149.50000958889723A6,6,0,1,1,524.5000365450978,149.50000958889723"></path><path id="kity_path_234" fill="none" stroke="gray"></path></g><path id="node_outline6" fill="none" stroke="none" d="M529.5000372603536,138.50000958889723h47a5,5,0,0,1,5,5v12a5,5,0,0,1,-5,5h-47a5,5,0,0,1,-5,-5v-12a5,5,0,0,1,5,-5z" stroke-width="3"></path><g id="node_text6" fill="black"><text id="kity_text_115" text-rendering="inherit" font-size="12" dy=".8em" y="141.7000095901745" x="534.5000372603536">字面值</text></g></g><g id="minder_node8"><g id="node_expander9" style="cursor: pointer;"><path id="kity_path_245" fill="white" stroke="gray" d="M392.500030644238,240.50001365691423A6,6,0,1,1,380.500030644238,240.50001365691423A6,6,0,1,1,392.500030644238,240.50001365691423"></path><path id="kity_path_246" fill="none" stroke="gray" d="M382.000030644238,240.50001365691423L391.000030644238,240.50001365691423"></path></g><path id="node_outline10" fill="none" stroke="none" d="M397.50003135949373,229.50001365691423h82a5,5,0,0,1,5,5v12a5,5,0,0,1,-5,5h-82a5,5,0,0,1,-5,-5v-12a5,5,0,0,1,5,-5z" stroke-width="3"></path><g id="node_text10" fill="black"><text id="kity_text_123" text-rendering="inherit" font-size="12" dy=".8em" y="232.7000136581915" x="402.50003135949373">基本数据类型</text></g></g><g id="minder_node9"><g id="node_expander6" style="cursor: pointer;" display="none"><path id="kity_path_236" fill="white" stroke="gray" d="M524.5000365450978,201.50001191347837A6,6,0,1,1,512.5000365450978,201.50001191347837A6,6,0,1,1,524.5000365450978,201.50001191347837"></path><path id="kity_path_237" fill="none" stroke="gray"></path></g><path id="node_outline7" fill="none" stroke="none" d="M529.5000372603536,190.50001191347837h35a5,5,0,0,1,5,5v12a5,5,0,0,1,-5,5h-35a5,5,0,0,1,-5,-5v-12a5,5,0,0,1,5,-5z" stroke-width="3"></path><g id="node_text7" fill="black"><text id="kity_text_117" text-rendering="inherit" font-size="12" dy=".8em" y="193.70001191475563" x="534.5000372603536">值域</text></g></g><g id="minder_node10"><g id="node_expander7" style="cursor: pointer;" display="none"><path id="kity_path_239" fill="white" stroke="gray" d="M524.5000365450978,253.50001423805952A6,6,0,1,1,512.5000365450978,253.50001423805952A6,6,0,1,1,524.5000365450978,253.50001423805952"></path><path id="kity_path_240" fill="none" stroke="gray" d="M514.0000365450978,253.50001423805952L523.0000365450978,253.50001423805952"></path></g><path id="node_outline8" fill="none" stroke="none" d="M529.5000372603536,242.50001423805952h35a5,5,0,0,1,5,5v12a5,5,0,0,1,-5,5h-35a5,5,0,0,1,-5,-5v-12a5,5,0,0,1,5,-5z" stroke-width="3"></path><g id="node_text8" fill="black"><text id="kity_text_119" text-rendering="inherit" font-size="12" dy=".8em" y="245.70001423933678" x="534.5000372603536">运算</text></g></g><g id="minder_node11" opacity="1"><g id="node_expander8" style="cursor: pointer;"><path id="kity_path_242" fill="white" stroke="gray" d="M524.5000365450978,331.50001772493124A6,6,0,1,1,512.5000365450978,331.50001772493124A6,6,0,1,1,524.5000365450978,331.50001772493124"></path><path id="kity_path_243" fill="none" stroke="gray" d="M514.0000365450978,331.50001772493124L523.0000365450978,331.50001772493124"></path></g><path id="node_outline9" fill="none" stroke="none" d="M529.5000372603536,320.50001772493124h59a5,5,0,0,1,5,5v12a5,5,0,0,1,-5,5h-59a5,5,0,0,1,-5,-5v-12a5,5,0,0,1,5,-5z" stroke-width="3"></path><g id="node_text9" fill="black"><text id="kity_text_121" text-rendering="inherit" font-size="12" dy=".8em" y="323.7000177262085" x="534.5000372603536">类型转换</text></g></g><g id="minder_node12"><g id="node_expander13" style="cursor: pointer;"><path id="kity_path_257" fill="white" stroke="gray" d="M392.500030644238,461.5000235363841A6,6,0,1,1,380.500030644238,461.5000235363841A6,6,0,1,1,392.500030644238,461.5000235363841"></path><path id="kity_path_258" fill="none" stroke="gray" d="M382.000030644238,461.5000235363841L391.000030644238,461.5000235363841"></path></g><path id="node_outline14" fill="none" stroke="none" d="M397.50003135949373,450.5000235363841h83a5,5,0,0,1,5,5v12a5,5,0,0,1,-5,5h-83a5,5,0,0,1,-5,-5v-12a5,5,0,0,1,5,-5z"></path><g id="node_text14" fill="black"><text id="kity_text_131" text-rendering="inherit" font-size="12" dy=".8em" y="453.70002353766137" x="402.50003135949373">复合数据类型</text></g></g><g id="minder_node13"><g id="node_expander10" style="cursor: pointer;" display="none"><path id="kity_path_248" fill="white" stroke="gray" d="M525.5000365898013,409.50002121180296A6,6,0,1,1,513.5000365898013,409.50002121180296A6,6,0,1,1,525.5000365898013,409.50002121180296"></path><path id="kity_path_249" fill="none" stroke="gray"></path></g><path id="node_outline11" fill="none" stroke="none" d="M530.500037305057,398.50002121180296h35a5,5,0,0,1,5,5v12a5,5,0,0,1,-5,5h-35a5,5,0,0,1,-5,-5v-12a5,5,0,0,1,5,-5z" stroke-width="3"></path><g id="node_text11" fill="black"><text id="kity_text_125" text-rendering="inherit" font-size="12" dy=".8em" y="401.7000212130802" x="535.500037305057">数组</text></g></g><g id="minder_node14"><g id="node_expander11" style="cursor: pointer;" display="none"><path id="kity_path_251" fill="white" stroke="gray" d="M525.5000365898013,461.5000235363841A6,6,0,1,1,513.5000365898013,461.5000235363841A6,6,0,1,1,525.5000365898013,461.5000235363841"></path><path id="kity_path_252" fill="none" stroke="gray"></path></g><path id="node_outline12" fill="none" stroke="none" d="M530.500037305057,450.5000235363841h35a5,5,0,0,1,5,5v12a5,5,0,0,1,-5,5h-35a5,5,0,0,1,-5,-5v-12a5,5,0,0,1,5,-5z" stroke-width="3"></path><g id="node_text12" fill="black"><text id="kity_text_127" text-rendering="inherit" font-size="12" dy=".8em" y="453.70002353766137" x="535.500037305057">枚举</text></g></g><g id="minder_node15"><g id="node_expander12" style="cursor: pointer;" display="none"><path id="kity_path_254" fill="white" stroke="gray" d="M525.5000365898013,513.5000258609653A6,6,0,1,1,513.5000365898013,513.5000258609653A6,6,0,1,1,525.5000365898013,513.5000258609653"></path><path id="kity_path_255" fill="none" stroke="gray"></path></g><path id="node_outline13" fill="none" stroke="none" d="M530.500037305057,502.50002586096525h35a5,5,0,0,1,5,5v12a5,5,0,0,1,-5,5h-35a5,5,0,0,1,-5,-5v-12a5,5,0,0,1,5,-5z" stroke-width="3"></path><g id="node_text13" fill="black"><text id="kity_text_129" text-rendering="inherit" font-size="12" dy=".8em" y="505.7000258622425" x="535.500037305057">元组</text></g></g><g id="minder_node16"><g id="node_expander21" style="cursor: pointer;"><path id="kity_path_281" fill="white" stroke="gray" d="M283.5000257715583,692.5000338628888A6,6,0,1,1,271.5000257715583,692.5000338628888A6,6,0,1,1,283.5000257715583,692.5000338628888"></path><path id="kity_path_282" fill="none" stroke="gray" d="M273.0000257715583,692.5000338628888L282.0000257715583,692.5000338628888"></path></g><path id="node_outline22" fill="rgb(238, 243, 246)" stroke="rgb(115, 161, 191)" d="M287.50002697855234,679.5000338628888h62a3,3,0,0,1,3,3v20a3,3,0,0,1,-3,3h-62a3,3,0,0,1,-3,-3v-20a3,3,0,0,1,3,-3z" stroke-width="1"></path><g id="node_text22" fill="black"><text id="kity_text_147" text-rendering="inherit" font-size="14" dy=".8em" y="683.4000339324986" x="304.50002697855234">语句</text></g></g><g id="minder_node17"><g id="node_expander17" style="cursor: pointer;"><path id="kity_path_269" fill="white" stroke="gray" d="M392.500030644238,601.5000297948718A6,6,0,1,1,380.500030644238,601.5000297948718A6,6,0,1,1,392.500030644238,601.5000297948718"></path><path id="kity_path_270" fill="none" stroke="gray" d="M382.000030644238,601.5000297948718L391.000030644238,601.5000297948718"></path></g><path id="node_outline18" fill="none" stroke="none" d="M397.50003135949373,590.5000297948718h59a5,5,0,0,1,5,5v12a5,5,0,0,1,-5,5h-59a5,5,0,0,1,-5,-5v-12a5,5,0,0,1,5,-5z"></path><g id="node_text18" fill="black"><text id="kity_text_139" text-rendering="inherit" font-size="12" dy=".8em" y="593.700029796149" x="402.50003135949373">顺序语句</text></g></g><g id="minder_node18"><g id="node_expander15" style="cursor: pointer;" display="none"><path id="kity_path_263" fill="white" stroke="gray" d="M501.5000355169177,575.5000286325812A6,6,0,1,1,489.5000355169177,575.5000286325812A6,6,0,1,1,501.5000355169177,575.5000286325812"></path><path id="kity_path_264" fill="none" stroke="gray"></path></g><path id="node_outline16" fill="none" stroke="none" d="M506.50003623217344,564.5000286325812h58a5,5,0,0,1,5,5v12a5,5,0,0,1,-5,5h-58a5,5,0,0,1,-5,-5v-12a5,5,0,0,1,5,-5z"></path><g id="node_text16" fill="black"><text id="kity_text_135" text-rendering="inherit" font-size="12" dy=".8em" y="567.7000286338584" x="511.50003623217344">声明语句</text></g></g><g id="minder_node19"><g id="node_expander16" style="cursor: pointer;" display="none"><path id="kity_path_266" fill="white" stroke="gray" d="M501.5000355169177,627.5000309571624A6,6,0,1,1,489.5000355169177,627.5000309571624A6,6,0,1,1,501.5000355169177,627.5000309571624"></path><path id="kity_path_267" fill="none" stroke="gray"></path></g><path id="node_outline17" fill="none" stroke="none" d="M506.50003623217344,616.5000309571624h58a5,5,0,0,1,5,5v12a5,5,0,0,1,-5,5h-58a5,5,0,0,1,-5,-5v-12a5,5,0,0,1,5,-5z"></path><g id="node_text17" fill="black"><text id="kity_text_137" text-rendering="inherit" font-size="12" dy=".8em" y="619.7000309584396" x="511.50003623217344">赋值语句</text></g></g><g id="minder_node20"><g id="node_expander18" style="cursor: pointer;" display="none"><path id="kity_path_272" fill="white" stroke="gray" d="M392.500030644238,679.5000332817435A6,6,0,1,1,380.500030644238,679.5000332817435A6,6,0,1,1,392.500030644238,679.5000332817435"></path><path id="kity_path_273" fill="none" stroke="gray"></path></g><path id="node_outline19" fill="none" stroke="none" d="M397.50003135949373,668.5000332817435h59a5,5,0,0,1,5,5v12a5,5,0,0,1,-5,5h-59a5,5,0,0,1,-5,-5v-12a5,5,0,0,1,5,-5z"></path><g id="node_text19" fill="black"><text id="kity_text_141" text-rendering="inherit" font-size="12" dy=".8em" y="671.7000332830207" x="402.50003135949373">分支语句</text></g></g><g id="minder_node21"><g id="node_expander19" style="cursor: pointer;" display="none"><path id="kity_path_275" fill="white" stroke="gray" d="M392.500030644238,731.5000356063247A6,6,0,1,1,380.500030644238,731.5000356063247A6,6,0,1,1,392.500030644238,731.5000356063247"></path><path id="kity_path_276" fill="none" stroke="gray"></path></g><path id="node_outline20" fill="none" stroke="none" d="M397.50003135949373,720.5000356063247h58a5,5,0,0,1,5,5v12a5,5,0,0,1,-5,5h-58a5,5,0,0,1,-5,-5v-12a5,5,0,0,1,5,-5z"></path><g id="node_text20" fill="black"><text id="kity_text_143" text-rendering="inherit" font-size="12" dy=".8em" y="723.7000356076019" x="402.50003135949373">循环语句</text></g></g><g id="minder_node22"><g id="node_expander20" style="cursor: pointer;" display="none"><path id="kity_path_278" fill="white" stroke="gray" d="M392.500030644238,783.5000379309058A6,6,0,1,1,380.500030644238,783.5000379309058A6,6,0,1,1,392.500030644238,783.5000379309058"></path><path id="kity_path_279" fill="none" stroke="gray"></path></g><path id="node_outline21" fill="none" stroke="none" d="M397.50003135949373,772.5000379309058h58a5,5,0,0,1,5,5v12a5,5,0,0,1,-5,5h-58a5,5,0,0,1,-5,-5v-12a5,5,0,0,1,5,-5z"></path><g id="node_text21" fill="black"><text id="kity_text_145" text-rendering="inherit" font-size="12" dy=".8em" y="775.700037932183" x="402.50003135949373">异常控制</text></g></g><g id="minder_node23"><g id="node_expander28" style="cursor: pointer;"><path id="kity_path_302" fill="white" stroke="gray" d="M283.5000257715583,975.5000465139747A6,6,0,1,1,271.5000257715583,975.5000465139747A6,6,0,1,1,283.5000257715583,975.5000465139747"></path><path id="kity_path_303" fill="none" stroke="gray" d="M273.0000257715583,975.5000465139747L282.0000257715583,975.5000465139747"></path></g><path id="node_outline29" fill="rgb(238, 243, 246)" stroke="rgb(115, 161, 191)" d="M287.50002697855234,962.5000465139747h63a3,3,0,0,1,3,3v20a3,3,0,0,1,-3,3h-63a3,3,0,0,1,-3,-3v-20a3,3,0,0,1,3,-3z" stroke-width="1"></path><g id="node_text29" fill="black"><text id="kity_text_161" text-rendering="inherit" font-size="14" dy=".8em" y="966.4000465835844" x="304.50002697855234">模块</text></g></g><g id="minder_node24"><g id="node_expander25" style="cursor: pointer;"><path id="kity_path_293" fill="white" stroke="gray" d="M393.5000306889415,897.500043027103A6,6,0,1,1,381.5000306889415,897.500043027103A6,6,0,1,1,393.5000306889415,897.500043027103"></path><path id="kity_path_294" fill="none" stroke="gray" d="M383.0000306889415,897.500043027103L392.0000306889415,897.500043027103"></path></g><path id="node_outline26" fill="none" stroke="none" d="M398.5000314041972,886.500043027103h58a5,5,0,0,1,5,5v12a5,5,0,0,1,-5,5h-58a5,5,0,0,1,-5,-5v-12a5,5,0,0,1,5,-5z"></path><g id="node_text26" fill="black"><text id="kity_text_155" text-rendering="inherit" font-size="12" dy=".8em" y="889.7000430283802" x="403.5000314041972">命名空间</text></g></g><g id="minder_node25"><g id="node_expander22" style="cursor: pointer;" display="none"><path id="kity_path_284" fill="white" stroke="gray" d="M501.5000355169177,845.5000407025218A6,6,0,1,1,489.5000355169177,845.5000407025218A6,6,0,1,1,501.5000355169177,845.5000407025218"></path><path id="kity_path_285" fill="none" stroke="gray"></path></g><path id="node_outline23" fill="none" stroke="none" d="M506.50003623217344,834.5000407025218h58a5,5,0,0,1,5,5v12a5,5,0,0,1,-5,5h-58a5,5,0,0,1,-5,-5v-12a5,5,0,0,1,5,-5z"></path><g id="node_text23" fill="black"><text id="kity_text_149" text-rendering="inherit" font-size="12" dy=".8em" y="837.700040703799" x="511.50003623217344">组织模块</text></g></g><g id="minder_node26"><g id="node_expander23" style="cursor: pointer;" display="none"><path id="kity_path_287" fill="white" stroke="gray" d="M501.5000355169177,897.500043027103A6,6,0,1,1,489.5000355169177,897.500043027103A6,6,0,1,1,501.5000355169177,897.500043027103"></path><path id="kity_path_288" fill="none" stroke="gray"></path></g><path id="node_outline24" fill="none" stroke="none" d="M506.50003623217344,886.500043027103h59a5,5,0,0,1,5,5v12a5,5,0,0,1,-5,5h-59a5,5,0,0,1,-5,-5v-12a5,5,0,0,1,5,-5z"></path><g id="node_text24" fill="black"><text id="kity_text_151" text-rendering="inherit" font-size="12" dy=".8em" y="889.7000430283802" x="511.50003623217344">导入名称</text></g></g><g id="minder_node27"><g id="node_expander24" style="cursor: pointer;" display="none"><path id="kity_path_290" fill="white" stroke="gray" d="M501.5000355169177,949.5000453516841A6,6,0,1,1,489.5000355169177,949.5000453516841A6,6,0,1,1,501.5000355169177,949.5000453516841"></path><path id="kity_path_291" fill="none" stroke="gray"></path></g><path id="node_outline25" fill="none" stroke="none" d="M506.50003623217344,938.5000453516841h59a5,5,0,0,1,5,5v12a5,5,0,0,1,-5,5h-59a5,5,0,0,1,-5,-5v-12a5,5,0,0,1,5,-5z"></path><g id="node_text25" fill="black"><text id="kity_text_153" text-rendering="inherit" font-size="12" dy=".8em" y="941.7000453529613" x="511.50003623217344">导出名称</text></g></g><g id="minder_node28"><g id="node_expander26" style="cursor: pointer;" display="none"><path id="kity_path_296" fill="white" stroke="gray" d="M393.5000306889415,1001.5000476762652A6,6,0,1,1,381.5000306889415,1001.5000476762652A6,6,0,1,1,393.5000306889415,1001.5000476762652"></path><path id="kity_path_297" fill="none" stroke="gray"></path></g><path id="node_outline27" fill="none" stroke="none" d="M398.5000314041972,990.5000476762652h35a5,5,0,0,1,5,5v12a5,5,0,0,1,-5,5h-35a5,5,0,0,1,-5,-5v-12a5,5,0,0,1,5,-5z"></path><g id="node_text27" fill="black"><text id="kity_text_157" text-rendering="inherit" font-size="12" dy=".8em" y="993.7000476775424" x="403.5000314041972">函数</text></g></g><g id="minder_node29"><g id="node_expander27" style="cursor: pointer;" display="none"><path id="kity_path_299" fill="white" stroke="gray" d="M393.5000306889415,1053.5000500008464A6,6,0,1,1,381.5000306889415,1053.5000500008464A6,6,0,1,1,393.5000306889415,1053.5000500008464"></path><path id="kity_path_300" fill="none" stroke="gray"></path></g><path id="node_outline28" fill="none" stroke="none" d="M398.5000314041972,1042.5000500008464h23a5,5,0,0,1,5,5v12a5,5,0,0,1,-5,5h-23a5,5,0,0,1,-5,-5v-12a5,5,0,0,1,5,-5z"></path><g id="node_text28" fill="black"><text id="kity_text_159" text-rendering="inherit" font-size="12" dy=".8em" y="1045.7000500021236" x="403.5000314041972">类</text></g></g><g id="minder_node30"><g id="node_expander32" style="cursor: pointer;"><path id="kity_path_314" fill="white" stroke="gray" d="M283.5000257715583,1167.5000550970435A6,6,0,1,1,271.5000257715583,1167.5000550970435A6,6,0,1,1,283.5000257715583,1167.5000550970435"></path><path id="kity_path_315" fill="none" stroke="gray" d="M273.0000257715583,1167.5000550970435L282.0000257715583,1167.5000550970435"></path></g><path id="node_outline33" fill="rgb(238, 243, 246)" stroke="rgb(115, 161, 191)" d="M287.50002697855234,1154.5000550970435h62a3,3,0,0,1,3,3v20a3,3,0,0,1,-3,3h-62a3,3,0,0,1,-3,-3v-20a3,3,0,0,1,3,-3z" stroke-width="1"></path><g id="node_text33" fill="black"><text id="kity_text_169" text-rendering="inherit" font-size="14" dy=".8em" y="1158.4000551666531" x="304.50002697855234">工具</text></g></g><g id="minder_node31"><g id="node_expander29" style="cursor: pointer;" display="none"><path id="kity_path_305" fill="white" stroke="gray" d="M392.500030644238,1115.5000527724624A6,6,0,1,1,380.500030644238,1115.5000527724624A6,6,0,1,1,392.500030644238,1115.5000527724624"></path><path id="kity_path_306" fill="none" stroke="gray"></path></g><path id="node_outline30" fill="none" stroke="none" d="M397.50003135949373,1104.5000527724624h82a5,5,0,0,1,5,5v12a5,5,0,0,1,-5,5h-82a5,5,0,0,1,-5,-5v-12a5,5,0,0,1,5,-5z"></path><g id="node_text30" fill="black"><text id="kity_text_163" text-rendering="inherit" font-size="12" dy=".8em" y="1107.7000527737396" x="402.50003135949373">输入输出工具</text></g></g><g id="minder_node32"><g id="node_expander30" style="cursor: pointer;" display="none"><path id="kity_path_308" fill="white" stroke="gray" d="M392.500030644238,1167.5000550970435A6,6,0,1,1,380.500030644238,1167.5000550970435A6,6,0,1,1,392.500030644238,1167.5000550970435"></path><path id="kity_path_309" fill="none" stroke="gray"></path></g><path id="node_outline31" fill="none" stroke="none" d="M397.50003135949373,1156.5000550970435h70a5,5,0,0,1,5,5v12a5,5,0,0,1,-5,5h-70a5,5,0,0,1,-5,-5v-12a5,5,0,0,1,5,-5z"></path><g id="node_text31" fill="black"><text id="kity_text_165" text-rendering="inherit" font-size="12" dy=".8em" y="1159.7000550983207" x="402.50003135949373">字符串工具</text></g></g><g id="minder_node33"><g id="node_expander31" style="cursor: pointer;" display="none"><path id="kity_path_311" fill="white" stroke="gray" d="M392.500030644238,1219.5000574216247A6,6,0,1,1,380.500030644238,1219.5000574216247A6,6,0,1,1,392.500030644238,1219.5000574216247"></path><path id="kity_path_312" fill="none" stroke="gray"></path></g><path id="node_outline32" fill="none" stroke="none" d="M397.50003135949373,1208.5000574216247h59a5,5,0,0,1,5,5v12a5,5,0,0,1,-5,5h-59a5,5,0,0,1,-5,-5v-12a5,5,0,0,1,5,-5z"></path><g id="node_text32" fill="black"><text id="kity_text_167" text-rendering="inherit" font-size="12" dy=".8em" y="1211.7000574229019" x="402.50003135949373">数组工具</text></g></g><g id="minder_node34"><g id="node_expander38" style="cursor: pointer;"><path id="kity_path_332" fill="white" stroke="gray" d="M283.5000257715583,1359.5000636801124A6,6,0,1,1,271.5000257715583,1359.5000636801124A6,6,0,1,1,283.5000257715583,1359.5000636801124"></path><path id="kity_path_333" fill="none" stroke="gray" d="M273.0000257715583,1359.5000636801124L282.0000257715583,1359.5000636801124"></path></g><path id="node_outline39" fill="rgb(238, 243, 246)" stroke="rgb(115, 161, 191)" d="M287.50002697855234,1346.5000636801124h62a3,3,0,0,1,3,3v20a3,3,0,0,1,-3,3h-62a3,3,0,0,1,-3,-3v-20a3,3,0,0,1,3,-3z" stroke-width="1"></path><g id="node_text39" fill="black"><text id="kity_text_181" text-rendering="inherit" font-size="14" dy=".8em" y="1350.400063749722" x="304.50002697855234">类库</text></g></g><g id="minder_node35"><g id="node_expander34" style="cursor: pointer;"><path id="kity_path_320" fill="white" stroke="gray" d="M392.500030644238,1281.5000601932406A6,6,0,1,1,380.500030644238,1281.5000601932406A6,6,0,1,1,392.500030644238,1281.5000601932406"></path><path id="kity_path_321" fill="none" stroke="gray" d="M382.000030644238,1281.5000601932406L391.000030644238,1281.5000601932406"></path></g><path id="node_outline35" fill="none" stroke="none" d="M397.50003135949373,1270.5000601932406h35a5,5,0,0,1,5,5v12a5,5,0,0,1,-5,5h-35a5,5,0,0,1,-5,-5v-12a5,5,0,0,1,5,-5z"></path><g id="node_text35" fill="black"><text id="kity_text_173" text-rendering="inherit" font-size="12" dy=".8em" y="1273.7000601945178" x="402.50003135949373">数学</text></g></g><g id="minder_node36"><g id="node_expander33" style="cursor: pointer;" display="none"><path id="kity_path_317" fill="white" stroke="gray" d="M477.5000344440341,1281.5000601932406A6,6,0,1,1,465.5000344440341,1281.5000601932406A6,6,0,1,1,477.5000344440341,1281.5000601932406"></path><path id="kity_path_318" fill="none" stroke="gray"></path></g><path id="node_outline34" fill="none" stroke="none" d="M482.50003515928984,1270.5000601932406h71a5,5,0,0,1,5,5v12a5,5,0,0,1,-5,5h-71a5,5,0,0,1,-5,-5v-12a5,5,0,0,1,5,-5z"></path><g id="node_text34" fill="black"><text id="kity_text_171" text-rendering="inherit" font-size="12" dy=".8em" y="1273.7000601945178" x="487.50003515928984">高精度运算</text></g></g><g id="minder_node37"><g id="node_expander35" style="cursor: pointer;" display="none"><path id="kity_path_323" fill="white" stroke="gray" d="M392.500030644238,1333.5000625178218A6,6,0,1,1,380.500030644238,1333.5000625178218A6,6,0,1,1,392.500030644238,1333.5000625178218"></path><path id="kity_path_324" fill="none" stroke="gray"></path></g><path id="node_outline36" fill="none" stroke="none" d="M397.50003135949373,1322.5000625178218h70a5,5,0,0,1,5,5v12a5,5,0,0,1,-5,5h-70a5,5,0,0,1,-5,-5v-12a5,5,0,0,1,5,-5z"></path><g id="node_text36" fill="black"><text id="kity_text_175" text-rendering="inherit" font-size="12" dy=".8em" y="1325.700062519099" x="402.50003135949373">日期和时间</text></g></g><g id="minder_node38"><g id="node_expander36" style="cursor: pointer;" display="none"><path id="kity_path_326" fill="white" stroke="gray" d="M392.500030644238,1385.500064842403A6,6,0,1,1,380.500030644238,1385.500064842403A6,6,0,1,1,392.500030644238,1385.500064842403"></path><path id="kity_path_327" fill="none" stroke="gray"></path></g><path id="node_outline37" fill="none" stroke="none" d="M397.50003135949373,1374.500064842403h35a5,5,0,0,1,5,5v12a5,5,0,0,1,-5,5h-35a5,5,0,0,1,-5,-5v-12a5,5,0,0,1,5,-5z"></path><g id="node_text37" fill="black"><text id="kity_text_177" text-rendering="inherit" font-size="12" dy=".8em" y="1377.7000648436801" x="402.50003135949373">文件</text></g></g><g id="minder_node39"><g id="node_expander37" style="cursor: pointer;" display="none"><path id="kity_path_329" fill="white" stroke="gray" d="M392.500030644238,1437.500067166984A6,6,0,1,1,380.500030644238,1437.500067166984A6,6,0,1,1,392.500030644238,1437.500067166984"></path><path id="kity_path_330" fill="none" stroke="gray"></path></g><path id="node_outline38" fill="none" stroke="none" d="M397.50003135949373,1426.500067166984h34a5,5,0,0,1,5,5v12a5,5,0,0,1,-5,5h-34a5,5,0,0,1,-5,-5v-12a5,5,0,0,1,5,-5z"></path><g id="node_text38" fill="black"><text id="kity_text_179" text-rendering="inherit" font-size="12" dy=".8em" y="1429.7000671682613" x="402.50003135949373">网络</text></g></g><g id="kity_g_12" display="none"><path id="kity_path_13" fill="none" stroke="rgb(66, 94, 112)" d="M397.5000153556466,190.50003404170275h82a5,5,0,0,1,5,5v12a5,5,0,0,1,-5,5h-82a5,5,0,0,1,-5,-5v-12a5,5,0,0,1,5,-5z" stroke-width="5"></path></g><g id="minder_node40"><g id="node_expander39" style="cursor: pointer;" display="none"><path id="kity_path_340" fill="white" stroke="gray" d="M633.5000414177775,305.50001656264067A6,6,0,1,1,621.5000414177775,305.50001656264067A6,6,0,1,1,633.5000414177775,305.50001656264067"></path><path id="kity_path_341" fill="none" stroke="gray"></path></g><path id="node_outline40" fill="none" stroke="none" d="M638.5000421330333,294.50001656264067h83a5,5,0,0,1,5,5v12a5,5,0,0,1,-5,5h-83a5,5,0,0,1,-5,-5v-12a5,5,0,0,1,5,-5z" stroke-width="3"></path><g id="node_text40" fill="black"><text id="kity_text_337" text-rendering="inherit" font-size="12" dy=".8em" y="297.7000165639179" x="643.5000421330333">自动类型转换</text></g></g><g id="minder_node41"><g id="node_expander40" style="cursor: pointer;" display="none"><path id="kity_path_348" fill="white" stroke="gray" d="M633.5000414177775,357.5000188872218A6,6,0,1,1,621.5000414177775,357.5000188872218A6,6,0,1,1,633.5000414177775,357.5000188872218"></path><path id="kity_path_349" fill="none" stroke="gray"></path></g><path id="node_outline41" fill="none" stroke="none" d="M638.5000421330333,346.5000188872218h83a5,5,0,0,1,5,5v12a5,5,0,0,1,-5,5h-83a5,5,0,0,1,-5,-5v-12a5,5,0,0,1,5,-5z" stroke-width="3"></path><g id="node_text41" fill="black"><text id="kity_text_345" text-rendering="inherit" font-size="12" dy=".8em" y="349.7000188884991" x="643.5000421330333">强制类型转换</text></g></g></g></g></svg>