<svg id="kity_svg_6" xmlns="http://www.w3.org/2000/svg" xmlns:xlink="http://www.w3.org/1999/xlink" version="1.1" width="614" height="1416" style="background: rgb(251, 251, 251); visibility: visible;" viewBox="0 0 614 1416"><defs id="kity_defs_7"><linearGradient id="kity_linearGradient_17" x1="0" y1="0" x2="0" y2="1"><stop id="kity_stop_18" offset="0" stop-color="rgb(255, 255, 255)"></stop><stop id="kity_stop_19" offset="1" stop-color="rgb(204, 204, 204)"></stop></linearGradient><marker id="kity_marker_2" orient="auto" refX="6" refY="0" viewBox="-7 -7 14 14" markerWidth="7" markerHeight="7" markerUnits="userSpaceOnUse"><path id="kity_path_3" fill="rgb(115, 161, 191)" stroke="none" d="M6,0A6,6,0,1,1,-6,0A6,6,0,1,1,6,0"></path></marker></defs><g id="kity_g_8"><g id="minder1" text-rendering="optimize-speed"><g id="minder_connect_group1"><path id="kity_path_31" fill="none" stroke="rgb(115, 161, 191)" stroke-width="1" d="M92.50000623613596,670.5000060126185A190,637,0,0,1,282.50000623613596,33.50000601261854"></path><path id="kity_path_33" fill="none" stroke="rgb(115, 161, 191)" stroke-width="1" d="M353.50000623613596,33.50000601261854C373.50000623613596,33.50000601261854,373.50000623613596,33.50000601261854,393.50000623613596,33.50000601261854"></path><path id="kity_path_35" fill="none" stroke="rgb(115, 161, 191)" stroke-width="1" d="M462.50000623613596,33.50000601261854C482.50000623613596,33.50000601261854,482.50000623613596,33.50000601261854,502.50000623613596,33.50000601261854"></path><path id="kity_path_37" fill="none" stroke="rgb(115, 161, 191)" stroke-width="1" d="M92.50000623613596,670.5000060126185A190,417,0,0,1,282.50000623613596,253.50000601261854"></path><path id="kity_path_39" fill="none" stroke="rgb(115, 161, 191)" stroke-width="1" d="M352.50000623613596,253.50000601261854C372.50000623613596,253.50000601261854,372.50000623613596,97.50000601261854,392.50000623613596,97.50000601261854"></path><path id="kity_path_41" fill="none" stroke="rgb(115, 161, 191)" stroke-width="1" d="M352.50000623613596,253.50000601261854C372.50000623613596,253.50000601261854,372.50000623613596,149.50000601261854,392.50000623613596,149.50000601261854"></path><path id="kity_path_43" fill="none" stroke="rgb(115, 161, 191)" stroke-width="1" d="M352.50000623613596,253.50000601261854C372.50000623613596,253.50000601261854,372.50000623613596,253.50000601261854,392.50000623613596,253.50000601261854"></path><path id="kity_path_45" fill="none" stroke="rgb(115, 161, 191)" stroke-width="1" d="M484.50000623613596,253.50000601261854C504.50000623613596,253.50000601261854,504.50000623613596,201.50000601261854,524.500006236136,201.50000601261854"></path><path id="kity_path_47" fill="none" stroke="rgb(115, 161, 191)" stroke-width="1" d="M484.50000623613596,253.50000601261854C504.50000623613596,253.50000601261854,504.50000623613596,253.50000601261854,524.500006236136,253.50000601261854"></path><path id="kity_path_49" fill="none" stroke="rgb(115, 161, 191)" stroke-width="1" d="M484.50000623613596,253.50000601261854C504.50000623613596,253.50000601261854,504.50000623613596,305.50000601261854,524.500006236136,305.50000601261854"></path><path id="kity_path_51" fill="none" stroke="rgb(115, 161, 191)" stroke-width="1" d="M352.50000623613596,253.50000601261854C372.50000623613596,253.50000601261854,372.50000623613596,409.50000601261854,392.50000623613596,409.50000601261854"></path><path id="kity_path_53" fill="none" stroke="rgb(115, 161, 191)" stroke-width="1" d="M485.50000623613596,409.50000601261854C505.50000623613596,409.50000601261854,505.50000623613596,357.50000601261854,525.500006236136,357.50000601261854"></path><path id="kity_path_55" fill="none" stroke="rgb(115, 161, 191)" stroke-width="1" d="M485.50000623613596,409.50000601261854C505.50000623613596,409.50000601261854,505.50000623613596,409.50000601261854,525.500006236136,409.50000601261854"></path><path id="kity_path_57" fill="none" stroke="rgb(115, 161, 191)" stroke-width="1" d="M485.50000623613596,409.50000601261854C505.50000623613596,409.50000601261854,505.50000623613596,461.50000601261854,525.500006236136,461.50000601261854"></path><path id="kity_path_59" fill="none" stroke="rgb(115, 161, 191)" stroke-width="1" d="M92.50000623613596,670.5000060126185A190,30,0,0,1,282.50000623613596,640.5000060126185"></path><path id="kity_path_61" fill="none" stroke="rgb(115, 161, 191)" stroke-width="1" d="M352.50000623613596,640.5000060126185C372.50000623613596,640.5000060126185,372.50000623613596,549.5000060126185,392.50000623613596,549.5000060126185"></path><path id="kity_path_63" fill="none" stroke="rgb(115, 161, 191)" stroke-width="1" d="M461.50000623613596,549.5000060126185C481.50000623613596,549.5000060126185,481.50000623613596,523.5000060126185,501.50000623613596,523.5000060126185"></path><path id="kity_path_65" fill="none" stroke="rgb(115, 161, 191)" stroke-width="1" d="M461.50000623613596,549.5000060126185C481.50000623613596,549.5000060126185,481.50000623613596,575.5000060126185,501.50000623613596,575.5000060126185"></path><path id="kity_path_67" fill="none" stroke="rgb(115, 161, 191)" stroke-width="1" d="M352.50000623613596,640.5000060126185C372.50000623613596,640.5000060126185,372.50000623613596,627.5000060126185,392.50000623613596,627.5000060126185"></path><path id="kity_path_69" fill="none" stroke="rgb(115, 161, 191)" stroke-width="1" d="M352.50000623613596,640.5000060126185C372.50000623613596,640.5000060126185,372.50000623613596,679.5000060126185,392.50000623613596,679.5000060126185"></path><path id="kity_path_71" fill="none" stroke="rgb(115, 161, 191)" stroke-width="1" d="M352.50000623613596,640.5000060126185C372.50000623613596,640.5000060126185,372.50000623613596,731.5000060126185,392.50000623613596,731.5000060126185"></path><path id="kity_path_73" fill="none" stroke="rgb(115, 161, 191)" stroke-width="1" d="M92.50000623613596,670.5000060126185A190,253,0,0,0,282.50000623613596,923.5000060126185"></path><path id="kity_path_75" fill="none" stroke="rgb(115, 161, 191)" stroke-width="1" d="M353.50000623613596,923.5000060126185C373.50000623613596,923.5000060126185,373.50000623613596,845.5000060126185,393.50000623613596,845.5000060126185"></path><path id="kity_path_77" fill="none" stroke="rgb(115, 161, 191)" stroke-width="1" d="M461.50000623613596,845.5000060126185C481.50000623613596,845.5000060126185,481.50000623613596,793.5000060126185,501.50000623613596,793.5000060126185"></path><path id="kity_path_79" fill="none" stroke="rgb(115, 161, 191)" stroke-width="1" d="M461.50000623613596,845.5000060126185C481.50000623613596,845.5000060126185,481.50000623613596,845.5000060126185,501.50000623613596,845.5000060126185"></path><path id="kity_path_81" fill="none" stroke="rgb(115, 161, 191)" stroke-width="1" d="M461.50000623613596,845.5000060126185C481.50000623613596,845.5000060126185,481.50000623613596,897.5000060126185,501.50000623613596,897.5000060126185"></path><path id="kity_path_83" fill="none" stroke="rgb(115, 161, 191)" stroke-width="1" d="M353.50000623613596,923.5000060126185C373.50000623613596,923.5000060126185,373.50000623613596,949.5000060126185,393.50000623613596,949.5000060126185"></path><path id="kity_path_85" fill="none" stroke="rgb(115, 161, 191)" stroke-width="1" d="M353.50000623613596,923.5000060126185C373.50000623613596,923.5000060126185,373.50000623613596,1001.5000060126185,393.50000623613596,1001.5000060126185"></path><path id="kity_path_87" fill="none" stroke="rgb(115, 161, 191)" stroke-width="1" d="M92.50000623613596,670.5000060126185A190,445,0,0,0,282.50000623613596,1115.5000060126185"></path><path id="kity_path_89" fill="none" stroke="rgb(115, 161, 191)" stroke-width="1" d="M352.50000623613596,1115.5000060126185C372.50000623613596,1115.5000060126185,372.50000623613596,1063.5000060126185,392.50000623613596,1063.5000060126185"></path><path id="kity_path_91" fill="none" stroke="rgb(115, 161, 191)" stroke-width="1" d="M352.50000623613596,1115.5000060126185C372.50000623613596,1115.5000060126185,372.50000623613596,1115.5000060126185,392.50000623613596,1115.5000060126185"></path><path id="kity_path_93" fill="none" stroke="rgb(115, 161, 191)" stroke-width="1" d="M352.50000623613596,1115.5000060126185C372.50000623613596,1115.5000060126185,372.50000623613596,1167.5000060126185,392.50000623613596,1167.5000060126185"></path><path id="kity_path_95" fill="none" stroke="rgb(115, 161, 191)" stroke-width="1" d="M92.50000623613596,670.5000060126185A190,637,0,0,0,282.50000623613596,1307.5000060126185"></path><path id="kity_path_97" fill="none" stroke="rgb(115, 161, 191)" stroke-width="1" d="M352.50000623613596,1307.5000060126185C372.50000623613596,1307.5000060126185,372.50000623613596,1229.5000060126185,392.50000623613596,1229.5000060126185"></path><path id="kity_path_99" fill="none" stroke="rgb(115, 161, 191)" stroke-width="1" d="M437.50000623613596,1229.5000060126185C457.50000623613596,1229.5000060126185,457.50000623613596,1229.5000060126185,477.50000623613596,1229.5000060126185"></path><path id="kity_path_101" fill="none" stroke="rgb(115, 161, 191)" stroke-width="1" d="M352.50000623613596,1307.5000060126185C372.50000623613596,1307.5000060126185,372.50000623613596,1281.5000060126185,392.50000623613596,1281.5000060126185"></path><path id="kity_path_103" fill="none" stroke="rgb(115, 161, 191)" stroke-width="1" d="M352.50000623613596,1307.5000060126185C372.50000623613596,1307.5000060126185,372.50000623613596,1333.5000060126185,392.50000623613596,1333.5000060126185"></path><path id="kity_path_105" fill="none" stroke="rgb(115, 161, 191)" stroke-width="1" d="M352.50000623613596,1307.5000060126185C372.50000623613596,1307.5000060126185,372.50000623613596,1385.5000060126185,392.50000623613596,1385.5000060126185"></path></g><g id="minder_node1"><path id="node_outline1" fill="rgb(115, 161, 191)" stroke="rgb(115, 161, 191)" d="M25.50000623613596,650.5000060126185h134a5,5,0,0,1,5,5v30a5,5,0,0,1,-5,5h-134a5,5,0,0,1,-5,-5v-30a5,5,0,0,1,5,-5z" stroke-width="3"></path><g id="node_text1" fill="white"><text id="kity_text_22" text-rendering="inherit" font-size="16" dy=".8em" y="660.1000057418431" x="44.50000623613596">编程语言导图</text></g></g><g id="kity_g_12"><path id="kity_path_13" fill="none" stroke="none" d="M44.50000623613596,670.5000060126185h0v0h0z"></path></g><g id="kity_g_14"><path id="kity_path_15" fill="none" stroke="none" d="M44.50000623613596,670.5000060126185h0v0h0z"></path><path id="kity_path_16" fill="none" stroke="none"></path></g><g id="minder_node2"><g id="node_expander3" style="cursor: pointer;"><path id="kity_path_227" fill="white" stroke="gray" d="M283.50001665204763,33.4999775364995A6,6,0,1,1,271.50001665204763,33.4999775364995A6,6,0,1,1,283.50001665204763,33.4999775364995"></path><path id="kity_path_228" fill="none" stroke="gray" d="M273.00001665204763,33.4999775364995L282.00001665204763,33.4999775364995"></path></g><path id="node_outline4" fill="rgb(238, 243, 246)" stroke="rgb(115, 161, 191)" d="M287.5000178590417,20.4999775364995h63a3,3,0,0,1,3,3v20a3,3,0,0,1,-3,3h-63a3,3,0,0,1,-3,-3v-20a3,3,0,0,1,3,-3z" stroke-width="1"></path><g id="node_text4" fill="black"><text id="kity_text_111" text-rendering="inherit" font-size="14" dy=".8em" y="24.399977606109218" x="304.5000178590417">常识</text></g></g><g id="minder_node3"><g id="node_expander2" style="cursor: pointer;"><path id="kity_path_224" fill="white" stroke="gray" d="M393.5000215694308,33.4999775364995A6,6,0,1,1,381.5000215694308,33.4999775364995A6,6,0,1,1,393.5000215694308,33.4999775364995"></path><path id="kity_path_225" fill="none" stroke="gray" d="M383.0000215694308,33.4999775364995L392.0000215694308,33.4999775364995"></path></g><path id="node_outline3" fill="none" stroke="none" d="M398.50002228468657,22.4999775364995h59a5,5,0,0,1,5,5v12a5,5,0,0,1,-5,5h-59a5,5,0,0,1,-5,-5v-12a5,5,0,0,1,5,-5z"></path><g id="node_text3" fill="black"><text id="kity_text_109" text-rendering="inherit" font-size="12" dy=".8em" y="25.699977537776746" x="403.50002228468657">编程原则</text></g></g><g id="minder_node4"><g id="node_expander1" display="none" style="cursor: pointer;"><path id="kity_path_221" fill="white" stroke="gray" d="M502.50002644211054,33.4999775364995A6,6,0,1,1,490.50002644211054,33.4999775364995A6,6,0,1,1,502.50002644211054,33.4999775364995"></path><path id="kity_path_222" fill="none" stroke="gray"></path></g><path id="node_outline2" fill="none" stroke="none" d="M507.5000271573663,22.4999775364995h82a5,5,0,0,1,5,5v12a5,5,0,0,1,-5,5h-82a5,5,0,0,1,-5,-5v-12a5,5,0,0,1,5,-5z"></path><g id="node_text2" fill="black"><text id="kity_text_107" text-rendering="inherit" font-size="12" dy=".8em" y="25.699977537776746" x="512.5000271573663">开放闭合原则</text></g></g><g id="minder_node5"><g id="node_expander14" style="cursor: pointer;"><path id="kity_path_260" fill="white" stroke="gray" d="M283.50001665204763,253.4999873712659A6,6,0,1,1,271.50001665204763,253.4999873712659A6,6,0,1,1,283.50001665204763,253.4999873712659"></path><path id="kity_path_261" fill="none" stroke="gray" d="M273.00001665204763,253.4999873712659L282.00001665204763,253.4999873712659"></path></g><path id="node_outline15" fill="rgb(238, 243, 246)" stroke="rgb(115, 161, 191)" d="M287.5000178590417,240.4999873712659h62a3,3,0,0,1,3,3v20a3,3,0,0,1,-3,3h-62a3,3,0,0,1,-3,-3v-20a3,3,0,0,1,3,-3z" stroke-width="1"></path><g id="node_text15" fill="black"><text id="kity_text_133" text-rendering="inherit" font-size="14" dy=".8em" y="244.3999874408756" x="304.5000178590417">基础</text></g></g><g id="minder_node6"><g id="node_expander4" display="none" style="cursor: pointer;"><path id="kity_path_230" fill="white" stroke="gray" d="M392.50002152472734,97.49998039752245A6,6,0,1,1,380.50002152472734,97.49998039752245A6,6,0,1,1,392.50002152472734,97.49998039752245"></path><path id="kity_path_231" fill="none" stroke="gray"></path></g><path id="node_outline5" fill="none" stroke="none" d="M397.5000222399831,86.49998039752245h58a5,5,0,0,1,5,5v12a5,5,0,0,1,-5,5h-58a5,5,0,0,1,-5,-5v-12a5,5,0,0,1,5,-5z"></path><g id="node_text5" fill="black"><text id="kity_text_113" text-rendering="inherit" font-size="12" dy=".8em" y="89.6999803987997" x="402.5000222399831">命名规范</text></g></g><g id="minder_node7"><g id="node_expander5" display="none" style="cursor: pointer;"><path id="kity_path_233" fill="white" stroke="gray" d="M392.50002152472734,149.4999827221036A6,6,0,1,1,380.50002152472734,149.4999827221036A6,6,0,1,1,392.50002152472734,149.4999827221036"></path><path id="kity_path_234" fill="none" stroke="gray"></path></g><path id="node_outline6" fill="none" stroke="none" d="M397.5000222399831,138.4999827221036h47a5,5,0,0,1,5,5v12a5,5,0,0,1,-5,5h-47a5,5,0,0,1,-5,-5v-12a5,5,0,0,1,5,-5z"></path><g id="node_text6" fill="black"><text id="kity_text_115" text-rendering="inherit" font-size="12" dy=".8em" y="141.69998272338086" x="402.5000222399831">字面值</text></g></g><g id="minder_node8"><g id="node_expander9" style="cursor: pointer;"><path id="kity_path_245" fill="white" stroke="gray" d="M392.50002152472734,253.4999873712659A6,6,0,1,1,380.50002152472734,253.4999873712659A6,6,0,1,1,392.50002152472734,253.4999873712659"></path><path id="kity_path_246" fill="none" stroke="gray" d="M382.00002152472734,253.4999873712659L391.00002152472734,253.4999873712659"></path></g><path id="node_outline10" fill="none" stroke="none" d="M397.5000222399831,242.4999873712659h82a5,5,0,0,1,5,5v12a5,5,0,0,1,-5,5h-82a5,5,0,0,1,-5,-5v-12a5,5,0,0,1,5,-5z"></path><g id="node_text10" fill="black"><text id="kity_text_123" text-rendering="inherit" font-size="12" dy=".8em" y="245.69998737254315" x="402.5000222399831">基本数据类型</text></g></g><g id="minder_node9"><g id="node_expander6" display="none" style="cursor: pointer;"><path id="kity_path_236" fill="white" stroke="gray" d="M524.5000274255872,201.49998504668474A6,6,0,1,1,512.5000274255872,201.49998504668474A6,6,0,1,1,524.5000274255872,201.49998504668474"></path><path id="kity_path_237" fill="none" stroke="gray"></path></g><path id="node_outline7" fill="none" stroke="none" d="M529.5000281408429,190.49998504668474h35a5,5,0,0,1,5,5v12a5,5,0,0,1,-5,5h-35a5,5,0,0,1,-5,-5v-12a5,5,0,0,1,5,-5z"></path><g id="node_text7" fill="black"><text id="kity_text_117" text-rendering="inherit" font-size="12" dy=".8em" y="193.699985047962" x="534.5000281408429">值域</text></g></g><g id="minder_node10"><g id="node_expander7" display="none" style="cursor: pointer;"><path id="kity_path_239" fill="white" stroke="gray" d="M524.5000274255872,253.4999873712659A6,6,0,1,1,512.5000274255872,253.4999873712659A6,6,0,1,1,524.5000274255872,253.4999873712659"></path><path id="kity_path_240" fill="none" stroke="gray"></path></g><path id="node_outline8" fill="none" stroke="none" d="M529.5000281408429,242.4999873712659h35a5,5,0,0,1,5,5v12a5,5,0,0,1,-5,5h-35a5,5,0,0,1,-5,-5v-12a5,5,0,0,1,5,-5z"></path><g id="node_text8" fill="black"><text id="kity_text_119" text-rendering="inherit" font-size="12" dy=".8em" y="245.69998737254315" x="534.5000281408429">运算</text></g></g><g id="minder_node11"><g id="node_expander8" display="none" style="cursor: pointer;"><path id="kity_path_242" fill="white" stroke="gray" d="M524.5000274255872,305.49998969584703A6,6,0,1,1,512.5000274255872,305.49998969584703A6,6,0,1,1,524.5000274255872,305.49998969584703"></path><path id="kity_path_243" fill="none" stroke="gray"></path></g><path id="node_outline9" fill="none" stroke="none" d="M529.5000281408429,294.49998969584703h35a5,5,0,0,1,5,5v12a5,5,0,0,1,-5,5h-35a5,5,0,0,1,-5,-5v-12a5,5,0,0,1,5,-5z"></path><g id="node_text9" fill="black"><text id="kity_text_121" text-rendering="inherit" font-size="12" dy=".8em" y="297.6999896971243" x="534.5000281408429">转换</text></g></g><g id="minder_node12"><g id="node_expander13" style="cursor: pointer;"><path id="kity_path_257" fill="white" stroke="gray" d="M392.50002152472734,409.4999943450093A6,6,0,1,1,380.50002152472734,409.4999943450093A6,6,0,1,1,392.50002152472734,409.4999943450093"></path><path id="kity_path_258" fill="none" stroke="gray" d="M382.00002152472734,409.4999943450093L391.00002152472734,409.4999943450093"></path></g><path id="node_outline14" fill="none" stroke="none" d="M397.5000222399831,398.4999943450093h83a5,5,0,0,1,5,5v12a5,5,0,0,1,-5,5h-83a5,5,0,0,1,-5,-5v-12a5,5,0,0,1,5,-5z"></path><g id="node_text14" fill="black"><text id="kity_text_131" text-rendering="inherit" font-size="12" dy=".8em" y="401.6999943462866" x="402.5000222399831">复合数据类型</text></g></g><g id="minder_node13"><g id="node_expander10" display="none" style="cursor: pointer;"><path id="kity_path_248" fill="white" stroke="gray" d="M525.5000274702907,357.4999920204282A6,6,0,1,1,513.5000274702907,357.4999920204282A6,6,0,1,1,525.5000274702907,357.4999920204282"></path><path id="kity_path_249" fill="none" stroke="gray"></path></g><path id="node_outline11" fill="none" stroke="none" d="M530.5000281855464,346.4999920204282h35a5,5,0,0,1,5,5v12a5,5,0,0,1,-5,5h-35a5,5,0,0,1,-5,-5v-12a5,5,0,0,1,5,-5z"></path><g id="node_text11" fill="black"><text id="kity_text_125" text-rendering="inherit" font-size="12" dy=".8em" y="349.69999202170544" x="535.5000281855464">数组</text></g></g><g id="minder_node14"><g id="node_expander11" display="none" style="cursor: pointer;"><path id="kity_path_251" fill="white" stroke="gray" d="M525.5000274702907,409.4999943450093A6,6,0,1,1,513.5000274702907,409.4999943450093A6,6,0,1,1,525.5000274702907,409.4999943450093"></path><path id="kity_path_252" fill="none" stroke="gray"></path></g><path id="node_outline12" fill="none" stroke="none" d="M530.5000281855464,398.4999943450093h35a5,5,0,0,1,5,5v12a5,5,0,0,1,-5,5h-35a5,5,0,0,1,-5,-5v-12a5,5,0,0,1,5,-5z"></path><g id="node_text12" fill="black"><text id="kity_text_127" text-rendering="inherit" font-size="12" dy=".8em" y="401.6999943462866" x="535.5000281855464">枚举</text></g></g><g id="minder_node15"><g id="node_expander12" display="none" style="cursor: pointer;"><path id="kity_path_254" fill="white" stroke="gray" d="M525.5000274702907,461.4999966695905A6,6,0,1,1,513.5000274702907,461.4999966695905A6,6,0,1,1,525.5000274702907,461.4999966695905"></path><path id="kity_path_255" fill="none" stroke="gray"></path></g><path id="node_outline13" fill="none" stroke="none" d="M530.5000281855464,450.4999966695905h35a5,5,0,0,1,5,5v12a5,5,0,0,1,-5,5h-35a5,5,0,0,1,-5,-5v-12a5,5,0,0,1,5,-5z"></path><g id="node_text13" fill="black"><text id="kity_text_129" text-rendering="inherit" font-size="12" dy=".8em" y="453.69999667086773" x="535.5000281855464">元组</text></g></g><g id="minder_node16"><g id="node_expander21" style="cursor: pointer;"><path id="kity_path_281" fill="white" stroke="gray" d="M283.50001665204763,640.500004671514A6,6,0,1,1,271.50001665204763,640.500004671514A6,6,0,1,1,283.50001665204763,640.500004671514"></path><path id="kity_path_282" fill="none" stroke="gray" d="M273.00001665204763,640.500004671514L282.00001665204763,640.500004671514"></path></g><path id="node_outline22" fill="rgb(238, 243, 246)" stroke="rgb(115, 161, 191)" d="M287.5000178590417,627.500004671514h62a3,3,0,0,1,3,3v20a3,3,0,0,1,-3,3h-62a3,3,0,0,1,-3,-3v-20a3,3,0,0,1,3,-3z" stroke-width="1"></path><g id="node_text22" fill="black"><text id="kity_text_147" text-rendering="inherit" font-size="14" dy=".8em" y="631.4000047411238" x="304.5000178590417">语句</text></g></g><g id="minder_node17"><g id="node_expander17" style="cursor: pointer;"><path id="kity_path_269" fill="white" stroke="gray" d="M392.50002152472734,549.500000603497A6,6,0,1,1,380.50002152472734,549.500000603497A6,6,0,1,1,392.50002152472734,549.500000603497"></path><path id="kity_path_270" fill="none" stroke="gray" d="M382.00002152472734,549.500000603497L391.00002152472734,549.500000603497"></path></g><path id="node_outline18" fill="none" stroke="none" d="M397.5000222399831,538.500000603497h59a5,5,0,0,1,5,5v12a5,5,0,0,1,-5,5h-59a5,5,0,0,1,-5,-5v-12a5,5,0,0,1,5,-5z"></path><g id="node_text18" fill="black"><text id="kity_text_139" text-rendering="inherit" font-size="12" dy=".8em" y="541.7000006047742" x="402.5000222399831">顺序语句</text></g></g><g id="minder_node18"><g id="node_expander15" display="none" style="cursor: pointer;"><path id="kity_path_263" fill="white" stroke="gray" d="M501.50002639740705,523.4999994412065A6,6,0,1,1,489.50002639740705,523.4999994412065A6,6,0,1,1,501.50002639740705,523.4999994412065"></path><path id="kity_path_264" fill="none" stroke="gray"></path></g><path id="node_outline16" fill="none" stroke="none" d="M506.5000271126628,512.4999994412065h58a5,5,0,0,1,5,5v12a5,5,0,0,1,-5,5h-58a5,5,0,0,1,-5,-5v-12a5,5,0,0,1,5,-5z"></path><g id="node_text16" fill="black"><text id="kity_text_135" text-rendering="inherit" font-size="12" dy=".8em" y="515.6999994424837" x="511.5000271126628">声明语句</text></g></g><g id="minder_node19"><g id="node_expander16" display="none" style="cursor: pointer;"><path id="kity_path_266" fill="white" stroke="gray" d="M501.50002639740705,575.5000017657876A6,6,0,1,1,489.50002639740705,575.5000017657876A6,6,0,1,1,501.50002639740705,575.5000017657876"></path><path id="kity_path_267" fill="none" stroke="gray"></path></g><path id="node_outline17" fill="none" stroke="none" d="M506.5000271126628,564.5000017657876h58a5,5,0,0,1,5,5v12a5,5,0,0,1,-5,5h-58a5,5,0,0,1,-5,-5v-12a5,5,0,0,1,5,-5z"></path><g id="node_text17" fill="black"><text id="kity_text_137" text-rendering="inherit" font-size="12" dy=".8em" y="567.7000017670648" x="511.5000271126628">赋值语句</text></g></g><g id="minder_node20"><g id="node_expander18" display="none" style="cursor: pointer;"><path id="kity_path_272" fill="white" stroke="gray" d="M392.50002152472734,627.5000040903687A6,6,0,1,1,380.50002152472734,627.5000040903687A6,6,0,1,1,392.50002152472734,627.5000040903687"></path><path id="kity_path_273" fill="none" stroke="gray"></path></g><path id="node_outline19" fill="none" stroke="none" d="M397.5000222399831,616.5000040903687h59a5,5,0,0,1,5,5v12a5,5,0,0,1,-5,5h-59a5,5,0,0,1,-5,-5v-12a5,5,0,0,1,5,-5z"></path><g id="node_text19" fill="black"><text id="kity_text_141" text-rendering="inherit" font-size="12" dy=".8em" y="619.700004091646" x="402.5000222399831">分支语句</text></g></g><g id="minder_node21"><g id="node_expander19" display="none" style="cursor: pointer;"><path id="kity_path_275" fill="white" stroke="gray" d="M392.50002152472734,679.5000064149499A6,6,0,1,1,380.50002152472734,679.5000064149499A6,6,0,1,1,392.50002152472734,679.5000064149499"></path><path id="kity_path_276" fill="none" stroke="gray"></path></g><path id="node_outline20" fill="none" stroke="none" d="M397.5000222399831,668.5000064149499h58a5,5,0,0,1,5,5v12a5,5,0,0,1,-5,5h-58a5,5,0,0,1,-5,-5v-12a5,5,0,0,1,5,-5z"></path><g id="node_text20" fill="black"><text id="kity_text_143" text-rendering="inherit" font-size="12" dy=".8em" y="671.7000064162271" x="402.5000222399831">循环语句</text></g></g><g id="minder_node22"><g id="node_expander20" display="none" style="cursor: pointer;"><path id="kity_path_278" fill="white" stroke="gray" d="M392.50002152472734,731.500008739531A6,6,0,1,1,380.50002152472734,731.500008739531A6,6,0,1,1,392.50002152472734,731.500008739531"></path><path id="kity_path_279" fill="none" stroke="gray"></path></g><path id="node_outline21" fill="none" stroke="none" d="M397.5000222399831,720.500008739531h58a5,5,0,0,1,5,5v12a5,5,0,0,1,-5,5h-58a5,5,0,0,1,-5,-5v-12a5,5,0,0,1,5,-5z"></path><g id="node_text21" fill="black"><text id="kity_text_145" text-rendering="inherit" font-size="12" dy=".8em" y="723.7000087408082" x="402.5000222399831">异常控制</text></g></g><g id="minder_node23"><g id="node_expander28" style="cursor: pointer;"><path id="kity_path_302" fill="white" stroke="gray" d="M283.50001665204763,923.5000173225999A6,6,0,1,1,271.50001665204763,923.5000173225999A6,6,0,1,1,283.50001665204763,923.5000173225999"></path><path id="kity_path_303" fill="none" stroke="gray" d="M273.00001665204763,923.5000173225999L282.00001665204763,923.5000173225999"></path></g><path id="node_outline29" fill="rgb(238, 243, 246)" stroke="rgb(115, 161, 191)" d="M287.5000178590417,910.5000173225999h63a3,3,0,0,1,3,3v20a3,3,0,0,1,-3,3h-63a3,3,0,0,1,-3,-3v-20a3,3,0,0,1,3,-3z" stroke-width="1"></path><g id="node_text29" fill="black"><text id="kity_text_161" text-rendering="inherit" font-size="14" dy=".8em" y="914.4000173922096" x="304.5000178590417">模块</text></g></g><g id="minder_node24"><g id="node_expander25" style="cursor: pointer;"><path id="kity_path_293" fill="white" stroke="gray" d="M393.5000215694308,845.5000138357282A6,6,0,1,1,381.5000215694308,845.5000138357282A6,6,0,1,1,393.5000215694308,845.5000138357282"></path><path id="kity_path_294" fill="none" stroke="gray" d="M383.0000215694308,845.5000138357282L392.0000215694308,845.5000138357282"></path></g><path id="node_outline26" fill="none" stroke="none" d="M398.50002228468657,834.5000138357282h58a5,5,0,0,1,5,5v12a5,5,0,0,1,-5,5h-58a5,5,0,0,1,-5,-5v-12a5,5,0,0,1,5,-5z"></path><g id="node_text26" fill="black"><text id="kity_text_155" text-rendering="inherit" font-size="12" dy=".8em" y="837.7000138370054" x="403.50002228468657">命名空间</text></g></g><g id="minder_node25"><g id="node_expander22" display="none" style="cursor: pointer;"><path id="kity_path_284" fill="white" stroke="gray" d="M501.50002639740705,793.500011511147A6,6,0,1,1,489.50002639740705,793.500011511147A6,6,0,1,1,501.50002639740705,793.500011511147"></path><path id="kity_path_285" fill="none" stroke="gray"></path></g><path id="node_outline23" fill="none" stroke="none" d="M506.5000271126628,782.500011511147h58a5,5,0,0,1,5,5v12a5,5,0,0,1,-5,5h-58a5,5,0,0,1,-5,-5v-12a5,5,0,0,1,5,-5z"></path><g id="node_text23" fill="black"><text id="kity_text_149" text-rendering="inherit" font-size="12" dy=".8em" y="785.7000115124242" x="511.5000271126628">组织模块</text></g></g><g id="minder_node26"><g id="node_expander23" display="none" style="cursor: pointer;"><path id="kity_path_287" fill="white" stroke="gray" d="M501.50002639740705,845.5000138357282A6,6,0,1,1,489.50002639740705,845.5000138357282A6,6,0,1,1,501.50002639740705,845.5000138357282"></path><path id="kity_path_288" fill="none" stroke="gray"></path></g><path id="node_outline24" fill="none" stroke="none" d="M506.5000271126628,834.5000138357282h59a5,5,0,0,1,5,5v12a5,5,0,0,1,-5,5h-59a5,5,0,0,1,-5,-5v-12a5,5,0,0,1,5,-5z"></path><g id="node_text24" fill="black"><text id="kity_text_151" text-rendering="inherit" font-size="12" dy=".8em" y="837.7000138370054" x="511.5000271126628">导入名称</text></g></g><g id="minder_node27"><g id="node_expander24" display="none" style="cursor: pointer;"><path id="kity_path_290" fill="white" stroke="gray" d="M501.50002639740705,897.5000161603093A6,6,0,1,1,489.50002639740705,897.5000161603093A6,6,0,1,1,501.50002639740705,897.5000161603093"></path><path id="kity_path_291" fill="none" stroke="gray"></path></g><path id="node_outline25" fill="none" stroke="none" d="M506.5000271126628,886.5000161603093h59a5,5,0,0,1,5,5v12a5,5,0,0,1,-5,5h-59a5,5,0,0,1,-5,-5v-12a5,5,0,0,1,5,-5z"></path><g id="node_text25" fill="black"><text id="kity_text_153" text-rendering="inherit" font-size="12" dy=".8em" y="889.7000161615865" x="511.5000271126628">导出名称</text></g></g><g id="minder_node28"><g id="node_expander26" display="none" style="cursor: pointer;"><path id="kity_path_296" fill="white" stroke="gray" d="M393.5000215694308,949.5000184848905A6,6,0,1,1,381.5000215694308,949.5000184848905A6,6,0,1,1,393.5000215694308,949.5000184848905"></path><path id="kity_path_297" fill="none" stroke="gray"></path></g><path id="node_outline27" fill="none" stroke="none" d="M398.50002228468657,938.5000184848905h35a5,5,0,0,1,5,5v12a5,5,0,0,1,-5,5h-35a5,5,0,0,1,-5,-5v-12a5,5,0,0,1,5,-5z"></path><g id="node_text27" fill="black"><text id="kity_text_157" text-rendering="inherit" font-size="12" dy=".8em" y="941.7000184861677" x="403.50002228468657">函数</text></g></g><g id="minder_node29"><g id="node_expander27" display="none" style="cursor: pointer;"><path id="kity_path_299" fill="white" stroke="gray" d="M393.5000215694308,1001.5000208094716A6,6,0,1,1,381.5000215694308,1001.5000208094716A6,6,0,1,1,393.5000215694308,1001.5000208094716"></path><path id="kity_path_300" fill="none" stroke="gray"></path></g><path id="node_outline28" fill="none" stroke="none" d="M398.50002228468657,990.5000208094716h23a5,5,0,0,1,5,5v12a5,5,0,0,1,-5,5h-23a5,5,0,0,1,-5,-5v-12a5,5,0,0,1,5,-5z"></path><g id="node_text28" fill="black"><text id="kity_text_159" text-rendering="inherit" font-size="12" dy=".8em" y="993.7000208107488" x="403.50002228468657">类</text></g></g><g id="minder_node30"><g id="node_expander32" style="cursor: pointer;"><path id="kity_path_314" fill="white" stroke="gray" d="M283.50001665204763,1115.5000259056687A6,6,0,1,1,271.50001665204763,1115.5000259056687A6,6,0,1,1,283.50001665204763,1115.5000259056687"></path><path id="kity_path_315" fill="none" stroke="gray" d="M273.00001665204763,1115.5000259056687L282.00001665204763,1115.5000259056687"></path></g><path id="node_outline33" fill="rgb(238, 243, 246)" stroke="rgb(115, 161, 191)" d="M287.5000178590417,1102.5000259056687h62a3,3,0,0,1,3,3v20a3,3,0,0,1,-3,3h-62a3,3,0,0,1,-3,-3v-20a3,3,0,0,1,3,-3z" stroke-width="1"></path><g id="node_text33" fill="black"><text id="kity_text_169" text-rendering="inherit" font-size="14" dy=".8em" y="1106.4000259752784" x="304.5000178590417">工具</text></g></g><g id="minder_node31"><g id="node_expander29" display="none" style="cursor: pointer;"><path id="kity_path_305" fill="white" stroke="gray" d="M392.50002152472734,1063.5000235810876A6,6,0,1,1,380.50002152472734,1063.5000235810876A6,6,0,1,1,392.50002152472734,1063.5000235810876"></path><path id="kity_path_306" fill="none" stroke="gray"></path></g><path id="node_outline30" fill="none" stroke="none" d="M397.5000222399831,1052.5000235810876h82a5,5,0,0,1,5,5v12a5,5,0,0,1,-5,5h-82a5,5,0,0,1,-5,-5v-12a5,5,0,0,1,5,-5z"></path><g id="node_text30" fill="black"><text id="kity_text_163" text-rendering="inherit" font-size="12" dy=".8em" y="1055.7000235823648" x="402.5000222399831">输入输出工具</text></g></g><g id="minder_node32"><g id="node_expander30" display="none" style="cursor: pointer;"><path id="kity_path_308" fill="white" stroke="gray" d="M392.50002152472734,1115.5000259056687A6,6,0,1,1,380.50002152472734,1115.5000259056687A6,6,0,1,1,392.50002152472734,1115.5000259056687"></path><path id="kity_path_309" fill="none" stroke="gray"></path></g><path id="node_outline31" fill="none" stroke="none" d="M397.5000222399831,1104.5000259056687h70a5,5,0,0,1,5,5v12a5,5,0,0,1,-5,5h-70a5,5,0,0,1,-5,-5v-12a5,5,0,0,1,5,-5z"></path><g id="node_text31" fill="black"><text id="kity_text_165" text-rendering="inherit" font-size="12" dy=".8em" y="1107.700025906946" x="402.5000222399831">字符串工具</text></g></g><g id="minder_node33"><g id="node_expander31" display="none" style="cursor: pointer;"><path id="kity_path_311" fill="white" stroke="gray" d="M392.50002152472734,1167.5000282302499A6,6,0,1,1,380.50002152472734,1167.5000282302499A6,6,0,1,1,392.50002152472734,1167.5000282302499"></path><path id="kity_path_312" fill="none" stroke="gray"></path></g><path id="node_outline32" fill="none" stroke="none" d="M397.5000222399831,1156.5000282302499h59a5,5,0,0,1,5,5v12a5,5,0,0,1,-5,5h-59a5,5,0,0,1,-5,-5v-12a5,5,0,0,1,5,-5z"></path><g id="node_text32" fill="black"><text id="kity_text_167" text-rendering="inherit" font-size="12" dy=".8em" y="1159.700028231527" x="402.5000222399831">数组工具</text></g></g><g id="minder_node34"><g id="node_expander38" style="cursor: pointer;"><path id="kity_path_332" fill="white" stroke="gray" d="M283.50001665204763,1307.5000344887376A6,6,0,1,1,271.50001665204763,1307.5000344887376A6,6,0,1,1,283.50001665204763,1307.5000344887376"></path><path id="kity_path_333" fill="none" stroke="gray" d="M273.00001665204763,1307.5000344887376L282.00001665204763,1307.5000344887376"></path></g><path id="node_outline39" fill="rgb(238, 243, 246)" stroke="rgb(115, 161, 191)" d="M287.5000178590417,1294.5000344887376h62a3,3,0,0,1,3,3v20a3,3,0,0,1,-3,3h-62a3,3,0,0,1,-3,-3v-20a3,3,0,0,1,3,-3z" stroke-width="1"></path><g id="node_text39" fill="black"><text id="kity_text_181" text-rendering="inherit" font-size="14" dy=".8em" y="1298.4000345583472" x="304.5000178590417">类库</text></g></g><g id="minder_node35"><g id="node_expander34" style="cursor: pointer;"><path id="kity_path_320" fill="white" stroke="gray" d="M392.50002152472734,1229.5000310018659A6,6,0,1,1,380.50002152472734,1229.5000310018659A6,6,0,1,1,392.50002152472734,1229.5000310018659"></path><path id="kity_path_321" fill="none" stroke="gray" d="M382.00002152472734,1229.5000310018659L391.00002152472734,1229.5000310018659"></path></g><path id="node_outline35" fill="none" stroke="none" d="M397.5000222399831,1218.5000310018659h35a5,5,0,0,1,5,5v12a5,5,0,0,1,-5,5h-35a5,5,0,0,1,-5,-5v-12a5,5,0,0,1,5,-5z"></path><g id="node_text35" fill="black"><text id="kity_text_173" text-rendering="inherit" font-size="12" dy=".8em" y="1221.700031003143" x="402.5000222399831">数学</text></g></g><g id="minder_node36"><g id="node_expander33" display="none" style="cursor: pointer;"><path id="kity_path_317" fill="white" stroke="gray" d="M477.50002532452345,1229.5000310018659A6,6,0,1,1,465.50002532452345,1229.5000310018659A6,6,0,1,1,477.50002532452345,1229.5000310018659"></path><path id="kity_path_318" fill="none" stroke="gray"></path></g><path id="node_outline34" fill="none" stroke="none" d="M482.5000260397792,1218.5000310018659h71a5,5,0,0,1,5,5v12a5,5,0,0,1,-5,5h-71a5,5,0,0,1,-5,-5v-12a5,5,0,0,1,5,-5z"></path><g id="node_text34" fill="black"><text id="kity_text_171" text-rendering="inherit" font-size="12" dy=".8em" y="1221.700031003143" x="487.5000260397792">高精度运算</text></g></g><g id="minder_node37"><g id="node_expander35" display="none" style="cursor: pointer;"><path id="kity_path_323" fill="white" stroke="gray" d="M392.50002152472734,1281.500033326447A6,6,0,1,1,380.50002152472734,1281.500033326447A6,6,0,1,1,392.50002152472734,1281.500033326447"></path><path id="kity_path_324" fill="none" stroke="gray"></path></g><path id="node_outline36" fill="none" stroke="none" d="M397.5000222399831,1270.500033326447h70a5,5,0,0,1,5,5v12a5,5,0,0,1,-5,5h-70a5,5,0,0,1,-5,-5v-12a5,5,0,0,1,5,-5z"></path><g id="node_text36" fill="black"><text id="kity_text_175" text-rendering="inherit" font-size="12" dy=".8em" y="1273.7000333277242" x="402.5000222399831">日期和时间</text></g></g><g id="minder_node38"><g id="node_expander36" display="none" style="cursor: pointer;"><path id="kity_path_326" fill="white" stroke="gray" d="M392.50002152472734,1333.5000356510282A6,6,0,1,1,380.50002152472734,1333.5000356510282A6,6,0,1,1,392.50002152472734,1333.5000356510282"></path><path id="kity_path_327" fill="none" stroke="gray"></path></g><path id="node_outline37" fill="none" stroke="none" d="M397.5000222399831,1322.5000356510282h35a5,5,0,0,1,5,5v12a5,5,0,0,1,-5,5h-35a5,5,0,0,1,-5,-5v-12a5,5,0,0,1,5,-5z"></path><g id="node_text37" fill="black"><text id="kity_text_177" text-rendering="inherit" font-size="12" dy=".8em" y="1325.7000356523054" x="402.5000222399831">文件</text></g></g><g id="minder_node39"><g id="node_expander37" display="none" style="cursor: pointer;"><path id="kity_path_329" fill="white" stroke="gray" d="M392.50002152472734,1385.5000379756093A6,6,0,1,1,380.50002152472734,1385.5000379756093A6,6,0,1,1,392.50002152472734,1385.5000379756093"></path><path id="kity_path_330" fill="none" stroke="gray"></path></g><path id="node_outline38" fill="none" stroke="none" d="M397.5000222399831,1374.5000379756093h34a5,5,0,0,1,5,5v12a5,5,0,0,1,-5,5h-34a5,5,0,0,1,-5,-5v-12a5,5,0,0,1,5,-5z"></path><g id="node_text38" fill="black"><text id="kity_text_179" text-rendering="inherit" font-size="12" dy=".8em" y="1377.7000379768865" x="402.5000222399831">网络</text></g></g></g></g></svg>