<svg id="kity_svg_6" xmlns="http://www.w3.org/2000/svg" xmlns:xlink="http://www.w3.org/1999/xlink" version="1.1" width="751" height="1672" style="background: rgb(251, 251, 251); visibility: visible;" viewBox="0 0 751 1672"><defs id="kity_defs_7"><linearGradient id="kity_linearGradient_17" x1="0" y1="0" x2="0" y2="1"><stop id="kity_stop_18" offset="0" stop-color="rgb(255, 255, 255)"></stop><stop id="kity_stop_19" offset="1" stop-color="rgb(204, 204, 204)"></stop></linearGradient><marker id="kity_marker_2" orient="auto" refX="6" refY="0" viewBox="-7 -7 14 14" markerWidth="7" markerHeight="7" markerUnits="userSpaceOnUse"><path id="kity_path_3" fill="rgb(115, 161, 191)" stroke="none" d="M6,0A6,6,0,1,1,-6,0A6,6,0,1,1,6,0"></path></marker></defs><g id="kity_g_8"><g id="minder1" text-rendering="optimize-speed"><g id="minder_connect_group1"><path id="kity_path_31" fill="none" stroke="rgb(115, 161, 191)" stroke-width="1" d="M93.0000034267643,823.4999875694258A190.5,740,0,0,1,283.5000034267643,83.4999875694258"></path><path id="kity_path_33" fill="none" stroke="rgb(115, 161, 191)" stroke-width="1" d="M354.5000034267643,83.4999875694258C374.5000034267643,83.4999875694258,374.5000034267643,31.499987569425798,394.5000034267643,31.499987569425798"></path><path id="kity_path_35" fill="none" stroke="rgb(115, 161, 191)" stroke-width="1" d="M463.5000034267643,31.499987569425798C483.5000034267643,31.499987569425798,483.5000034267643,31.499987569425798,503.5000034267643,31.499987569425798"></path><path id="kity_path_37" fill="none" stroke="rgb(115, 161, 191)" stroke-width="1" d="M354.5000034267643,83.4999875694258C374.5000034267643,83.4999875694258,374.5000034267643,83.4999875694258,394.5000034267643,83.4999875694258"></path><path id="kity_path_39" fill="none" stroke="rgb(115, 161, 191)" stroke-width="1" d="M354.5000034267643,83.4999875694258C374.5000034267643,83.4999875694258,374.5000034267643,135.4999875694258,394.5000034267643,135.4999875694258"></path><path id="kity_path_41" fill="none" stroke="rgb(115, 161, 191)" stroke-width="1" d="M93.0000034267643,823.4999875694258A190.5,444,0,0,1,283.5000034267643,379.4999875694258"></path><path id="kity_path_43" fill="none" stroke="rgb(115, 161, 191)" stroke-width="1" d="M354.5000034267643,379.4999875694258C374.5000034267643,379.4999875694258,374.5000034267643,197.4999875694258,394.5000034267643,197.4999875694258"></path><path id="kity_path_45" fill="none" stroke="rgb(115, 161, 191)" stroke-width="1" d="M354.5000034267643,379.4999875694258C374.5000034267643,379.4999875694258,374.5000034267643,249.4999875694258,394.5000034267643,249.4999875694258"></path><path id="kity_path_47" fill="none" stroke="rgb(115, 161, 191)" stroke-width="1" d="M354.5000034267643,379.4999875694258C374.5000034267643,379.4999875694258,374.5000034267643,366.4999875694258,394.5000034267643,366.4999875694258"></path><path id="kity_path_49" fill="none" stroke="rgb(115, 161, 191)" stroke-width="1" d="M488.5000034267643,366.4999875694258C508.5000034267643,366.4999875694258,508.5000034267643,301.4999875694258,528.5000034267644,301.4999875694258"></path><path id="kity_path_51" fill="none" stroke="rgb(115, 161, 191)" stroke-width="1" d="M488.5000034267643,366.4999875694258C508.5000034267643,366.4999875694258,508.5000034267643,353.4999875694258,528.5000034267644,353.4999875694258"></path><path id="kity_path_53" fill="none" stroke="rgb(115, 161, 191)" stroke-width="1" d="M488.5000034267643,366.4999875694258C508.5000034267643,366.4999875694258,508.5000034267643,431.4999875694258,528.5000034267644,431.4999875694258"></path><path id="kity_path_55" fill="none" stroke="rgb(115, 161, 191)" stroke-width="1" d="M598.5000034267644,431.4999875694258C618.5000034267644,431.4999875694258,618.5000034267644,405.4999875694258,638.5000034267644,405.4999875694258"></path><path id="kity_path_57" fill="none" stroke="rgb(115, 161, 191)" stroke-width="1" d="M598.5000034267644,431.4999875694258C618.5000034267644,431.4999875694258,618.5000034267644,457.4999875694258,638.5000034267644,457.4999875694258"></path><path id="kity_path_59" fill="none" stroke="rgb(115, 161, 191)" stroke-width="1" d="M354.5000034267643,379.4999875694258C374.5000034267643,379.4999875694258,374.5000034267643,561.4999875694258,394.5000034267643,561.4999875694258"></path><path id="kity_path_61" fill="none" stroke="rgb(115, 161, 191)" stroke-width="1" d="M488.5000034267643,561.4999875694258C508.5000034267643,561.4999875694258,508.5000034267643,509.4999875694258,528.5000034267644,509.4999875694258"></path><path id="kity_path_63" fill="none" stroke="rgb(115, 161, 191)" stroke-width="1" d="M488.5000034267643,561.4999875694258C508.5000034267643,561.4999875694258,508.5000034267643,561.4999875694258,528.5000034267644,561.4999875694258"></path><path id="kity_path_65" fill="none" stroke="rgb(115, 161, 191)" stroke-width="1" d="M488.5000034267643,561.4999875694258C508.5000034267643,561.4999875694258,508.5000034267643,613.4999875694258,528.5000034267644,613.4999875694258"></path><path id="kity_path_67" fill="none" stroke="rgb(115, 161, 191)" stroke-width="1" d="M93.0000034267643,823.4999875694258A190.5,34,0,0,0,283.5000034267643,857.4999875694258"></path><path id="kity_path_69" fill="none" stroke="rgb(115, 161, 191)" stroke-width="1" d="M354.5000034267643,857.4999875694258C374.5000034267643,857.4999875694258,374.5000034267643,727.4999875694258,394.5000034267643,727.4999875694258"></path><path id="kity_path_71" fill="none" stroke="rgb(115, 161, 191)" stroke-width="1" d="M452.5000034267643,727.4999875694258C472.5000034267643,727.4999875694258,472.5000034267643,675.4999875694258,492.5000034267643,675.4999875694258"></path><path id="kity_path_73" fill="none" stroke="rgb(115, 161, 191)" stroke-width="1" d="M452.5000034267643,727.4999875694258C472.5000034267643,727.4999875694258,472.5000034267643,727.4999875694258,492.5000034267643,727.4999875694258"></path><path id="kity_path_75" fill="none" stroke="rgb(115, 161, 191)" stroke-width="1" d="M452.5000034267643,727.4999875694258C472.5000034267643,727.4999875694258,472.5000034267643,779.4999875694258,492.5000034267643,779.4999875694258"></path><path id="kity_path_77" fill="none" stroke="rgb(115, 161, 191)" stroke-width="1" d="M354.5000034267643,857.4999875694258C374.5000034267643,857.4999875694258,374.5000034267643,831.4999875694258,394.5000034267643,831.4999875694258"></path><path id="kity_path_79" fill="none" stroke="rgb(115, 161, 191)" stroke-width="1" d="M354.5000034267643,857.4999875694258C374.5000034267643,857.4999875694258,374.5000034267643,883.4999875694258,394.5000034267643,883.4999875694258"></path><path id="kity_path_81" fill="none" stroke="rgb(115, 161, 191)" stroke-width="1" d="M354.5000034267643,857.4999875694258C374.5000034267643,857.4999875694258,374.5000034267643,935.4999875694258,394.5000034267643,935.4999875694258"></path><path id="kity_path_83" fill="none" stroke="rgb(115, 161, 191)" stroke-width="1" d="M354.5000034267643,857.4999875694258C374.5000034267643,857.4999875694258,374.5000034267643,987.4999875694258,394.5000034267643,987.4999875694258"></path><path id="kity_path_85" fill="none" stroke="rgb(115, 161, 191)" stroke-width="1" d="M93.0000034267643,823.4999875694258A190.5,356,0,0,0,283.5000034267643,1179.4999875694257"></path><path id="kity_path_87" fill="none" stroke="rgb(115, 161, 191)" stroke-width="1" d="M354.5000034267643,1179.4999875694257C374.5000034267643,1179.4999875694257,374.5000034267643,1101.4999875694257,394.5000034267643,1101.4999875694257"></path><path id="kity_path_89" fill="none" stroke="rgb(115, 161, 191)" stroke-width="1" d="M463.5000034267643,1101.4999875694257C483.5000034267643,1101.4999875694257,483.5000034267643,1049.4999875694257,503.5000034267643,1049.4999875694257"></path><path id="kity_path_91" fill="none" stroke="rgb(115, 161, 191)" stroke-width="1" d="M463.5000034267643,1101.4999875694257C483.5000034267643,1101.4999875694257,483.5000034267643,1101.4999875694257,503.5000034267643,1101.4999875694257"></path><path id="kity_path_93" fill="none" stroke="rgb(115, 161, 191)" stroke-width="1" d="M463.5000034267643,1101.4999875694257C483.5000034267643,1101.4999875694257,483.5000034267643,1153.4999875694257,503.5000034267643,1153.4999875694257"></path><path id="kity_path_95" fill="none" stroke="rgb(115, 161, 191)" stroke-width="1" d="M354.5000034267643,1179.4999875694257C374.5000034267643,1179.4999875694257,374.5000034267643,1205.4999875694257,394.5000034267643,1205.4999875694257"></path><path id="kity_path_97" fill="none" stroke="rgb(115, 161, 191)" stroke-width="1" d="M354.5000034267643,1179.4999875694257C374.5000034267643,1179.4999875694257,374.5000034267643,1257.4999875694257,394.5000034267643,1257.4999875694257"></path><path id="kity_path_99" fill="none" stroke="rgb(115, 161, 191)" stroke-width="1" d="M93.0000034267643,823.4999875694258A190.5,548,0,0,0,283.5000034267643,1371.4999875694257"></path><path id="kity_path_101" fill="none" stroke="rgb(115, 161, 191)" stroke-width="1" d="M353.5000034267643,1371.4999875694257C373.5000034267643,1371.4999875694257,373.5000034267643,1319.4999875694257,393.5000034267643,1319.4999875694257"></path><path id="kity_path_103" fill="none" stroke="rgb(115, 161, 191)" stroke-width="1" d="M353.5000034267643,1371.4999875694257C373.5000034267643,1371.4999875694257,373.5000034267643,1371.4999875694257,393.5000034267643,1371.4999875694257"></path><path id="kity_path_105" fill="none" stroke="rgb(115, 161, 191)" stroke-width="1" d="M353.5000034267643,1371.4999875694257C373.5000034267643,1371.4999875694257,373.5000034267643,1423.4999875694257,393.5000034267643,1423.4999875694257"></path><path id="kity_path_107" fill="none" stroke="rgb(115, 161, 191)" stroke-width="1" d="M93.0000034267643,823.4999875694258A190.5,740,0,0,0,283.5000034267643,1563.4999875694257"></path><path id="kity_path_109" fill="none" stroke="rgb(115, 161, 191)" stroke-width="1" d="M354.5000034267643,1563.4999875694257C374.5000034267643,1563.4999875694257,374.5000034267643,1485.4999875694257,394.5000034267643,1485.4999875694257"></path><path id="kity_path_111" fill="none" stroke="rgb(115, 161, 191)" stroke-width="1" d="M439.5000034267643,1485.4999875694257C459.5000034267643,1485.4999875694257,459.5000034267643,1485.4999875694257,479.5000034267643,1485.4999875694257"></path><path id="kity_path_113" fill="none" stroke="rgb(115, 161, 191)" stroke-width="1" d="M354.5000034267643,1563.4999875694257C374.5000034267643,1563.4999875694257,374.5000034267643,1537.4999875694257,394.5000034267643,1537.4999875694257"></path><path id="kity_path_115" fill="none" stroke="rgb(115, 161, 191)" stroke-width="1" d="M354.5000034267643,1563.4999875694257C374.5000034267643,1563.4999875694257,374.5000034267643,1589.4999875694257,394.5000034267643,1589.4999875694257"></path><path id="kity_path_117" fill="none" stroke="rgb(115, 161, 191)" stroke-width="1" d="M354.5000034267643,1563.4999875694257C374.5000034267643,1563.4999875694257,374.5000034267643,1641.4999875694257,394.5000034267643,1641.4999875694257"></path></g><g id="minder_node1"><path id="node_outline1" fill="rgb(115, 161, 191)" stroke="rgb(57, 80, 96)" d="M25.500003426764295,803.4999875694258h135a5,5,0,0,1,5,5v30a5,5,0,0,1,-5,5h-135a5,5,0,0,1,-5,-5v-30a5,5,0,0,1,5,-5z" stroke-width="3"></path><g id="node_text1" fill="white"><text id="kity_text_22" text-rendering="inherit" font-size="16" dy=".8em" y="813.0999875970743" x="44.500003426764295">编程语言导图</text></g></g><g id="kity_g_12"><path id="kity_path_13" fill="none" stroke="none" d="M44.500003426764295,823.4999875694258h0v0h0z"></path></g><g id="kity_g_14"><path id="kity_path_15" fill="none" stroke="none" d="M44.500003426764295,823.4999875694258h0v0h0z"></path><path id="kity_path_16" fill="none" stroke="none"></path></g><g id="minder_node2"><g id="node_expander5" style="cursor: pointer;"><path id="kity_path_263" fill="white" stroke="gray" d="M284.49999784596594,83.50000795521748A6,6,0,1,1,272.49999784596594,83.50000795521748A6,6,0,1,1,284.49999784596594,83.50000795521748"></path><path id="kity_path_264" fill="none" stroke="gray" d="M273.99999784596594,83.50000795521748L282.99999784596594,83.50000795521748"></path></g><path id="node_outline6" fill="rgb(238, 243, 246)" stroke="rgb(115, 161, 191)" d="M288.4999962366405,70.50000795521748h63a3,3,0,0,1,3,3v20a3,3,0,0,1,-3,3h-63a3,3,0,0,1,-3,-3v-20a3,3,0,0,1,3,-3z" stroke-width="1"></path><g id="node_text6" fill="black"><text id="kity_text_127" text-rendering="inherit" font-size="14" dy=".8em" y="74.40000819578984" x="305.4999962366405">常识</text></g></g><g id="minder_node3"><g id="node_expander2" style="cursor: pointer;"><path id="kity_path_254" fill="white" stroke="gray" d="M394.499993950126,31.500009387732575A6,6,0,1,1,382.499993950126,31.500009387732575A6,6,0,1,1,394.499993950126,31.500009387732575"></path><path id="kity_path_255" fill="none" stroke="gray" d="M383.999993950126,31.500009387732575L392.999993950126,31.500009387732575"></path></g><path id="node_outline3" fill="none" stroke="none" d="M399.4999935093521,20.500009387732575h59a5,5,0,0,1,5,5v12a5,5,0,0,1,-5,5h-59a5,5,0,0,1,-5,-5v-12a5,5,0,0,1,5,-5z"></path><g id="node_text3" fill="black"><text id="kity_text_121" text-rendering="inherit" font-size="12" dy=".8em" y="23.700009456553403" x="404.4999935093521">设计模式</text></g></g><g id="minder_node4"><g id="node_expander1" display="none" style="cursor: pointer;"><path id="kity_path_251" fill="white" stroke="gray" d="M503.49999094735404,31.500009387732575A6,6,0,1,1,491.49999094735404,31.500009387732575A6,6,0,1,1,503.49999094735404,31.500009387732575"></path><path id="kity_path_252" fill="none" stroke="gray"></path></g><path id="node_outline2" fill="none" stroke="none" d="M508.49999050658016,20.500009387732575h83a5,5,0,0,1,5,5v12a5,5,0,0,1,-5,5h-83a5,5,0,0,1,-5,-5v-12a5,5,0,0,1,5,-5z"></path><g id="node_text2" fill="black"><text id="kity_text_119" text-rendering="inherit" font-size="12" dy=".8em" y="23.700009456553403" x="513.4999905065802">开放闭合原则</text></g></g><g id="minder_node5"><g id="node_expander3" display="none" style="cursor: pointer;"><path id="kity_path_257" fill="white" stroke="gray" d="M394.499993950126,83.50000795521748A6,6,0,1,1,382.499993950126,83.50000795521748A6,6,0,1,1,394.499993950126,83.50000795521748"></path><path id="kity_path_258" fill="none" stroke="gray"></path></g><path id="node_outline4" fill="none" stroke="none" d="M399.4999935093521,72.50000795521748h59a5,5,0,0,1,5,5v12a5,5,0,0,1,-5,5h-59a5,5,0,0,1,-5,-5v-12a5,5,0,0,1,5,-5z"></path><g id="node_text4" fill="black"><text id="kity_text_123" text-rendering="inherit" font-size="12" dy=".8em" y="75.70000802403831" x="404.4999935093521">编码原则</text></g></g><g id="minder_node6"><g id="node_expander4" display="none" style="cursor: pointer;"><path id="kity_path_260" fill="white" stroke="gray" d="M394.499993950126,135.5000065227024A6,6,0,1,1,382.499993950126,135.5000065227024A6,6,0,1,1,394.499993950126,135.5000065227024"></path><path id="kity_path_261" fill="none" stroke="gray"></path></g><path id="node_outline5" fill="none" stroke="none" d="M399.4999935093521,124.50000652270239h60a5,5,0,0,1,5,5v12a5,5,0,0,1,-5,5h-60a5,5,0,0,1,-5,-5v-12a5,5,0,0,1,5,-5z"></path><g id="node_text5" fill="black"><text id="kity_text_125" text-rendering="inherit" font-size="12" dy=".8em" y="127.70000659152322" x="404.4999935093521">编程经验</text></g></g><g id="minder_node7"><g id="node_expander18" style="cursor: pointer;"><path id="kity_path_302" fill="white" stroke="gray" d="M284.49999784596594,379.4999998009008A6,6,0,1,1,272.49999784596594,379.4999998009008A6,6,0,1,1,284.49999784596594,379.4999998009008"></path><path id="kity_path_303" fill="none" stroke="gray" d="M273.99999784596594,379.4999998009008L282.99999784596594,379.4999998009008"></path></g><path id="node_outline19" fill="rgb(238, 243, 246)" stroke="rgb(115, 161, 191)" d="M288.4999962366405,366.4999998009008h63a3,3,0,0,1,3,3v20a3,3,0,0,1,-3,3h-63a3,3,0,0,1,-3,-3v-20a3,3,0,0,1,3,-3z" stroke-width="1"></path><g id="node_text19" fill="black"><text id="kity_text_153" text-rendering="inherit" font-size="14" dy=".8em" y="370.40000004147316" x="305.4999962366405">基础</text></g></g><g id="minder_node8"><g id="node_expander6" display="none" style="cursor: pointer;"><path id="kity_path_266" fill="white" stroke="gray" d="M394.499993950126,197.50000481470363A6,6,0,1,1,382.499993950126,197.50000481470363A6,6,0,1,1,394.499993950126,197.50000481470363"></path><path id="kity_path_267" fill="none" stroke="gray"></path></g><path id="node_outline7" fill="none" stroke="none" d="M399.4999935093521,186.50000481470363h60a5,5,0,0,1,5,5v12a5,5,0,0,1,-5,5h-60a5,5,0,0,1,-5,-5v-12a5,5,0,0,1,5,-5z"></path><g id="node_text7" fill="black"><text id="kity_text_129" text-rendering="inherit" font-size="12" dy=".8em" y="189.70000488352446" x="404.4999935093521">命名规范</text></g></g><g id="minder_node9"><g id="node_expander7" display="none" style="cursor: pointer;"><path id="kity_path_269" fill="white" stroke="gray" d="M394.499993950126,249.50000338218854A6,6,0,1,1,382.499993950126,249.50000338218854A6,6,0,1,1,394.499993950126,249.50000338218854"></path><path id="kity_path_270" fill="none" stroke="gray"></path></g><path id="node_outline8" fill="none" stroke="none" d="M399.4999935093521,238.50000338218854h36a5,5,0,0,1,5,5v12a5,5,0,0,1,-5,5h-36a5,5,0,0,1,-5,-5v-12a5,5,0,0,1,5,-5z"></path><g id="node_text8" fill="black"><text id="kity_text_131" text-rendering="inherit" font-size="12" dy=".8em" y="241.70000345100937" x="404.4999935093521">注释</text></g></g><g id="minder_node10"><g id="node_expander13" style="cursor: pointer;"><path id="kity_path_287" fill="white" stroke="gray" d="M394.499993950126,366.5000001590296A6,6,0,1,1,382.499993950126,366.5000001590296A6,6,0,1,1,394.499993950126,366.5000001590296"></path><path id="kity_path_288" fill="none" stroke="gray" d="M383.999993950126,366.5000001590296L392.999993950126,366.5000001590296"></path></g><path id="node_outline14" fill="none" stroke="none" d="M399.4999935093521,355.5000001590296h84a5,5,0,0,1,5,5v12a5,5,0,0,1,-5,5h-84a5,5,0,0,1,-5,-5v-12a5,5,0,0,1,5,-5z"></path><g id="node_text14" fill="black"><text id="kity_text_143" text-rendering="inherit" font-size="12" dy=".8em" y="358.7000002278504" x="404.4999935093521">基本数据类型</text></g></g><g id="minder_node11"><g id="node_expander8" display="none" style="cursor: pointer;"><path id="kity_path_272" fill="white" stroke="gray" d="M528.4999902586449,301.50000194967345A6,6,0,1,1,516.4999902586449,301.50000194967345A6,6,0,1,1,528.4999902586449,301.50000194967345"></path><path id="kity_path_273" fill="none" stroke="gray"></path></g><path id="node_outline9" fill="none" stroke="none" d="M533.499989817871,290.50000194967345h47a5,5,0,0,1,5,5v12a5,5,0,0,1,-5,5h-47a5,5,0,0,1,-5,-5v-12a5,5,0,0,1,5,-5z"></path><g id="node_text9" fill="black"><text id="kity_text_133" text-rendering="inherit" font-size="12" dy=".8em" y="293.7000020184943" x="538.499989817871">字面值</text></g></g><g id="minder_node12"><g id="node_expander9" display="none" style="cursor: pointer;"><path id="kity_path_275" fill="white" stroke="gray" d="M528.4999902586449,353.5000005171583A6,6,0,1,1,516.4999902586449,353.5000005171583A6,6,0,1,1,528.4999902586449,353.5000005171583"></path><path id="kity_path_276" fill="none" stroke="gray"></path></g><path id="node_outline10" fill="none" stroke="none" d="M533.499989817871,342.5000005171583h36a5,5,0,0,1,5,5v12a5,5,0,0,1,-5,5h-36a5,5,0,0,1,-5,-5v-12a5,5,0,0,1,5,-5z"></path><g id="node_text10" fill="black"><text id="kity_text_135" text-rendering="inherit" font-size="12" dy=".8em" y="345.7000005859791" x="538.499989817871">值域</text></g></g><g id="minder_node13"><g id="node_expander12" style="cursor: pointer;"><path id="kity_path_284" fill="white" stroke="gray" d="M528.4999902586449,431.49999836838566A6,6,0,1,1,516.4999902586449,431.49999836838566A6,6,0,1,1,528.4999902586449,431.49999836838566"></path><path id="kity_path_285" fill="none" stroke="gray" d="M517.9999902586449,431.49999836838566L526.9999902586449,431.49999836838566"></path></g><path id="node_outline13" fill="none" stroke="none" d="M533.499989817871,420.49999836838566h60a5,5,0,0,1,5,5v12a5,5,0,0,1,-5,5h-60a5,5,0,0,1,-5,-5v-12a5,5,0,0,1,5,-5z"></path><g id="node_text13" fill="black"><text id="kity_text_141" text-rendering="inherit" font-size="12" dy=".8em" y="423.6999984372065" x="538.499989817871">类型转换</text></g></g><g id="minder_node14"><g id="node_expander10" display="none" style="cursor: pointer;"><path id="kity_path_278" fill="white" stroke="gray" d="M638.4999872283245,405.4999990846432A6,6,0,1,1,626.4999872283245,405.4999990846432A6,6,0,1,1,638.4999872283245,405.4999990846432"></path><path id="kity_path_279" fill="none" stroke="gray"></path></g><path id="node_outline11" fill="none" stroke="none" d="M643.4999867875506,394.4999990846432h83a5,5,0,0,1,5,5v12a5,5,0,0,1,-5,5h-83a5,5,0,0,1,-5,-5v-12a5,5,0,0,1,5,-5z"></path><g id="node_text11" fill="black"><text id="kity_text_137" text-rendering="inherit" font-size="12" dy=".8em" y="397.69999915346403" x="648.4999867875506">自动类型转换</text></g></g><g id="minder_node15"><g id="node_expander11" display="none" style="cursor: pointer;"><path id="kity_path_281" fill="white" stroke="gray" d="M638.4999872283245,457.4999976521282A6,6,0,1,1,626.4999872283245,457.4999976521282A6,6,0,1,1,638.4999872283245,457.4999976521282"></path><path id="kity_path_282" fill="none" stroke="gray"></path></g><path id="node_outline12" fill="none" stroke="none" d="M643.4999867875506,446.4999976521282h83a5,5,0,0,1,5,5v12a5,5,0,0,1,-5,5h-83a5,5,0,0,1,-5,-5v-12a5,5,0,0,1,5,-5z"></path><g id="node_text12" fill="black"><text id="kity_text_139" text-rendering="inherit" font-size="12" dy=".8em" y="449.699997720949" x="648.4999867875506">强制类型转换</text></g></g><g id="minder_node16"><g id="node_expander17" style="cursor: pointer;"><path id="kity_path_299" fill="white" stroke="gray" d="M394.499993950126,561.499994787098A6,6,0,1,1,382.499993950126,561.499994787098A6,6,0,1,1,394.499993950126,561.499994787098"></path><path id="kity_path_300" fill="none" stroke="gray" d="M383.999993950126,561.499994787098L392.999993950126,561.499994787098"></path></g><path id="node_outline18" fill="none" stroke="none" d="M399.4999935093521,550.499994787098h84a5,5,0,0,1,5,5v12a5,5,0,0,1,-5,5h-84a5,5,0,0,1,-5,-5v-12a5,5,0,0,1,5,-5z"></path><g id="node_text18" fill="black"><text id="kity_text_151" text-rendering="inherit" font-size="12" dy=".8em" y="553.6999948559188" x="404.4999935093521">复合数据类型</text></g></g><g id="minder_node17"><g id="node_expander14" display="none" style="cursor: pointer;"><path id="kity_path_290" fill="white" stroke="gray" d="M528.4999902586449,509.499996219613A6,6,0,1,1,516.4999902586449,509.499996219613A6,6,0,1,1,528.4999902586449,509.499996219613"></path><path id="kity_path_291" fill="none" stroke="gray"></path></g><path id="node_outline15" fill="none" stroke="none" d="M533.499989817871,498.499996219613h36a5,5,0,0,1,5,5v12a5,5,0,0,1,-5,5h-36a5,5,0,0,1,-5,-5v-12a5,5,0,0,1,5,-5z"></path><g id="node_text15" fill="black"><text id="kity_text_145" text-rendering="inherit" font-size="12" dy=".8em" y="501.69999628843385" x="538.499989817871">数组</text></g></g><g id="minder_node18"><g id="node_expander15" display="none" style="cursor: pointer;"><path id="kity_path_293" fill="white" stroke="gray" d="M528.4999902586449,561.499994787098A6,6,0,1,1,516.4999902586449,561.499994787098A6,6,0,1,1,528.4999902586449,561.499994787098"></path><path id="kity_path_294" fill="none" stroke="gray"></path></g><path id="node_outline16" fill="none" stroke="none" d="M533.499989817871,550.499994787098h36a5,5,0,0,1,5,5v12a5,5,0,0,1,-5,5h-36a5,5,0,0,1,-5,-5v-12a5,5,0,0,1,5,-5z"></path><g id="node_text16" fill="black"><text id="kity_text_147" text-rendering="inherit" font-size="12" dy=".8em" y="553.6999948559188" x="538.499989817871">枚举</text></g></g><g id="minder_node19"><g id="node_expander16" display="none" style="cursor: pointer;"><path id="kity_path_296" fill="white" stroke="gray" d="M528.4999902586449,613.4999933545829A6,6,0,1,1,516.4999902586449,613.4999933545829A6,6,0,1,1,528.4999902586449,613.4999933545829"></path><path id="kity_path_297" fill="none" stroke="gray"></path></g><path id="node_outline17" fill="none" stroke="none" d="M533.499989817871,602.4999933545829h36a5,5,0,0,1,5,5v12a5,5,0,0,1,-5,5h-36a5,5,0,0,1,-5,-5v-12a5,5,0,0,1,5,-5z"></path><g id="node_text17" fill="black"><text id="kity_text_149" text-rendering="inherit" font-size="12" dy=".8em" y="605.6999934234037" x="538.499989817871">元组</text></g></g><g id="minder_node20"><g id="node_expander27" style="cursor: pointer;"><path id="kity_path_329" fill="white" stroke="gray" d="M284.49999784596594,857.4999866327813A6,6,0,1,1,272.49999784596594,857.4999866327813A6,6,0,1,1,284.49999784596594,857.4999866327813"></path><path id="kity_path_330" fill="none" stroke="gray" d="M273.99999784596594,857.4999866327813L282.99999784596594,857.4999866327813"></path></g><path id="node_outline28" fill="rgb(238, 243, 246)" stroke="rgb(115, 161, 191)" d="M288.4999962366405,844.4999866327813h63a3,3,0,0,1,3,3v20a3,3,0,0,1,-3,3h-63a3,3,0,0,1,-3,-3v-20a3,3,0,0,1,3,-3z" stroke-width="1"></path><g id="node_text28" fill="black"><text id="kity_text_171" text-rendering="inherit" font-size="14" dy=".8em" y="848.3999868733537" x="305.4999962366405">语句</text></g></g><g id="minder_node21"><g id="node_expander22" style="cursor: pointer;"><path id="kity_path_314" fill="white" stroke="gray" d="M394.499993950126,727.499990214069A6,6,0,1,1,382.499993950126,727.499990214069A6,6,0,1,1,394.499993950126,727.499990214069"></path><path id="kity_path_315" fill="none" stroke="gray" d="M383.999993950126,727.499990214069L392.999993950126,727.499990214069"></path></g><path id="node_outline23" fill="none" stroke="none" d="M399.4999935093521,716.499990214069h48a5,5,0,0,1,5,5v12a5,5,0,0,1,-5,5h-48a5,5,0,0,1,-5,-5v-12a5,5,0,0,1,5,-5z"></path><g id="node_text23" fill="black"><text id="kity_text_161" text-rendering="inherit" font-size="12" dy=".8em" y="719.6999902828899" x="404.4999935093521">表达式</text></g></g><g id="minder_node22"><g id="node_expander19" display="none" style="cursor: pointer;"><path id="kity_path_305" fill="white" stroke="gray" d="M492.499991250386,675.4999916465841A6,6,0,1,1,480.499991250386,675.4999916465841A6,6,0,1,1,492.499991250386,675.4999916465841"></path><path id="kity_path_306" fill="none" stroke="gray"></path></g><path id="node_outline20" fill="none" stroke="none" d="M497.49999080961214,664.4999916465841h35a5,5,0,0,1,5,5v12a5,5,0,0,1,-5,5h-35a5,5,0,0,1,-5,-5v-12a5,5,0,0,1,5,-5z"></path><g id="node_text20" fill="black"><text id="kity_text_155" text-rendering="inherit" font-size="12" dy=".8em" y="667.699991715405" x="502.49999080961214">声明</text></g></g><g id="minder_node23"><g id="node_expander20" display="none" style="cursor: pointer;"><path id="kity_path_308" fill="white" stroke="gray" d="M492.499991250386,727.499990214069A6,6,0,1,1,480.499991250386,727.499990214069A6,6,0,1,1,492.499991250386,727.499990214069"></path><path id="kity_path_309" fill="none" stroke="gray"></path></g><path id="node_outline21" fill="none" stroke="none" d="M497.49999080961214,716.499990214069h36a5,5,0,0,1,5,5v12a5,5,0,0,1,-5,5h-36a5,5,0,0,1,-5,-5v-12a5,5,0,0,1,5,-5z"></path><g id="node_text21" fill="black"><text id="kity_text_157" text-rendering="inherit" font-size="12" dy=".8em" y="719.6999902828899" x="502.49999080961214">计算</text></g></g><g id="minder_node24"><g id="node_expander21" display="none" style="cursor: pointer;"><path id="kity_path_311" fill="white" stroke="gray" d="M492.499991250386,779.499988781554A6,6,0,1,1,480.499991250386,779.499988781554A6,6,0,1,1,492.499991250386,779.499988781554"></path><path id="kity_path_312" fill="none" stroke="gray"></path></g><path id="node_outline22" fill="none" stroke="none" d="M497.49999080961214,768.499988781554h36a5,5,0,0,1,5,5v12a5,5,0,0,1,-5,5h-36a5,5,0,0,1,-5,-5v-12a5,5,0,0,1,5,-5z"></path><g id="node_text22" fill="black"><text id="kity_text_159" text-rendering="inherit" font-size="12" dy=".8em" y="771.6999888503748" x="502.49999080961214">赋值</text></g></g><g id="minder_node25"><g id="node_expander23" display="none" style="cursor: pointer;"><path id="kity_path_317" fill="white" stroke="gray" d="M394.499993950126,831.4999873490389A6,6,0,1,1,382.499993950126,831.4999873490389A6,6,0,1,1,394.499993950126,831.4999873490389"></path><path id="kity_path_318" fill="none" stroke="gray"></path></g><path id="node_outline24" fill="none" stroke="none" d="M399.4999935093521,820.4999873490389h59a5,5,0,0,1,5,5v12a5,5,0,0,1,-5,5h-59a5,5,0,0,1,-5,-5v-12a5,5,0,0,1,5,-5z"></path><g id="node_text24" fill="black"><text id="kity_text_163" text-rendering="inherit" font-size="12" dy=".8em" y="823.6999874178597" x="404.4999935093521">顺序语句</text></g></g><g id="minder_node26"><g id="node_expander24" display="none" style="cursor: pointer;"><path id="kity_path_320" fill="white" stroke="gray" d="M394.499993950126,883.4999859165238A6,6,0,1,1,382.499993950126,883.4999859165238A6,6,0,1,1,394.499993950126,883.4999859165238"></path><path id="kity_path_321" fill="none" stroke="gray"></path></g><path id="node_outline25" fill="none" stroke="none" d="M399.4999935093521,872.4999859165238h59a5,5,0,0,1,5,5v12a5,5,0,0,1,-5,5h-59a5,5,0,0,1,-5,-5v-12a5,5,0,0,1,5,-5z"></path><g id="node_text25" fill="black"><text id="kity_text_165" text-rendering="inherit" font-size="12" dy=".8em" y="875.6999859853446" x="404.4999935093521">分支语句</text></g></g><g id="minder_node27"><g id="node_expander25" display="none" style="cursor: pointer;"><path id="kity_path_323" fill="white" stroke="gray" d="M394.499993950126,935.4999844840087A6,6,0,1,1,382.499993950126,935.4999844840087A6,6,0,1,1,394.499993950126,935.4999844840087"></path><path id="kity_path_324" fill="none" stroke="gray"></path></g><path id="node_outline26" fill="none" stroke="none" d="M399.4999935093521,924.4999844840087h59a5,5,0,0,1,5,5v12a5,5,0,0,1,-5,5h-59a5,5,0,0,1,-5,-5v-12a5,5,0,0,1,5,-5z"></path><g id="node_text26" fill="black"><text id="kity_text_167" text-rendering="inherit" font-size="12" dy=".8em" y="927.6999845528295" x="404.4999935093521">循环语句</text></g></g><g id="minder_node28"><g id="node_expander26" display="none" style="cursor: pointer;"><path id="kity_path_326" fill="white" stroke="gray" d="M394.499993950126,987.4999830514936A6,6,0,1,1,382.499993950126,987.4999830514936A6,6,0,1,1,394.499993950126,987.4999830514936"></path><path id="kity_path_327" fill="none" stroke="gray"></path></g><path id="node_outline27" fill="none" stroke="none" d="M399.4999935093521,976.4999830514936h58a5,5,0,0,1,5,5v12a5,5,0,0,1,-5,5h-58a5,5,0,0,1,-5,-5v-12a5,5,0,0,1,5,-5z"></path><g id="node_text27" fill="black"><text id="kity_text_169" text-rendering="inherit" font-size="12" dy=".8em" y="979.6999831203144" x="404.4999935093521">异常控制</text></g></g><g id="minder_node29"><g id="node_expander34" style="cursor: pointer;"><path id="kity_path_350" fill="white" stroke="gray" d="M284.49999784596594,1179.499977762207A6,6,0,1,1,272.49999784596594,1179.499977762207A6,6,0,1,1,284.49999784596594,1179.499977762207"></path><path id="kity_path_351" fill="none" stroke="gray" d="M273.99999784596594,1179.499977762207L282.99999784596594,1179.499977762207"></path></g><path id="node_outline35" fill="rgb(238, 243, 246)" stroke="rgb(115, 161, 191)" d="M288.4999962366405,1166.499977762207h63a3,3,0,0,1,3,3v20a3,3,0,0,1,-3,3h-63a3,3,0,0,1,-3,-3v-20a3,3,0,0,1,3,-3z" stroke-width="1"></path><g id="node_text35" fill="black"><text id="kity_text_185" text-rendering="inherit" font-size="14" dy=".8em" y="1170.3999780027793" x="305.4999962366405">模块</text></g></g><g id="minder_node30"><g id="node_expander31" style="cursor: pointer;"><path id="kity_path_341" fill="white" stroke="gray" d="M394.499993950126,1101.4999799109796A6,6,0,1,1,382.499993950126,1101.4999799109796A6,6,0,1,1,394.499993950126,1101.4999799109796"></path><path id="kity_path_342" fill="none" stroke="gray" d="M383.999993950126,1101.4999799109796L392.999993950126,1101.4999799109796"></path></g><path id="node_outline32" fill="none" stroke="none" d="M399.4999935093521,1090.4999799109796h59a5,5,0,0,1,5,5v12a5,5,0,0,1,-5,5h-59a5,5,0,0,1,-5,-5v-12a5,5,0,0,1,5,-5z"></path><g id="node_text32" fill="black"><text id="kity_text_179" text-rendering="inherit" font-size="12" dy=".8em" y="1093.6999799798004" x="404.4999935093521">命名空间</text></g></g><g id="minder_node31"><g id="node_expander28" display="none" style="cursor: pointer;"><path id="kity_path_332" fill="white" stroke="gray" d="M503.49999094735404,1049.4999813434947A6,6,0,1,1,491.49999094735404,1049.4999813434947A6,6,0,1,1,503.49999094735404,1049.4999813434947"></path><path id="kity_path_333" fill="none" stroke="gray"></path></g><path id="node_outline29" fill="none" stroke="none" d="M508.49999050658016,1038.4999813434947h58a5,5,0,0,1,5,5v12a5,5,0,0,1,-5,5h-58a5,5,0,0,1,-5,-5v-12a5,5,0,0,1,5,-5z"></path><g id="node_text29" fill="black"><text id="kity_text_173" text-rendering="inherit" font-size="12" dy=".8em" y="1041.6999814123155" x="513.4999905065802">组织模块</text></g></g><g id="minder_node32"><g id="node_expander29" display="none" style="cursor: pointer;"><path id="kity_path_335" fill="white" stroke="gray" d="M503.49999094735404,1101.4999799109796A6,6,0,1,1,491.49999094735404,1101.4999799109796A6,6,0,1,1,503.49999094735404,1101.4999799109796"></path><path id="kity_path_336" fill="none" stroke="gray"></path></g><path id="node_outline30" fill="none" stroke="none" d="M508.49999050658016,1090.4999799109796h60a5,5,0,0,1,5,5v12a5,5,0,0,1,-5,5h-60a5,5,0,0,1,-5,-5v-12a5,5,0,0,1,5,-5z"></path><g id="node_text30" fill="black"><text id="kity_text_175" text-rendering="inherit" font-size="12" dy=".8em" y="1093.6999799798004" x="513.4999905065802">导入名称</text></g></g><g id="minder_node33"><g id="node_expander30" display="none" style="cursor: pointer;"><path id="kity_path_338" fill="white" stroke="gray" d="M503.49999094735404,1153.4999784784648A6,6,0,1,1,491.49999094735404,1153.4999784784648A6,6,0,1,1,503.49999094735404,1153.4999784784648"></path><path id="kity_path_339" fill="none" stroke="gray"></path></g><path id="node_outline31" fill="none" stroke="none" d="M508.49999050658016,1142.4999784784648h60a5,5,0,0,1,5,5v12a5,5,0,0,1,-5,5h-60a5,5,0,0,1,-5,-5v-12a5,5,0,0,1,5,-5z"></path><g id="node_text31" fill="black"><text id="kity_text_177" text-rendering="inherit" font-size="12" dy=".8em" y="1145.6999785472856" x="513.4999905065802">导出名称</text></g></g><g id="minder_node34"><g id="node_expander32" display="none" style="cursor: pointer;"><path id="kity_path_344" fill="white" stroke="gray" d="M394.499993950126,1205.4999770459494A6,6,0,1,1,382.499993950126,1205.4999770459494A6,6,0,1,1,394.499993950126,1205.4999770459494"></path><path id="kity_path_345" fill="none" stroke="gray"></path></g><path id="node_outline33" fill="none" stroke="none" d="M399.4999935093521,1194.4999770459494h35a5,5,0,0,1,5,5v12a5,5,0,0,1,-5,5h-35a5,5,0,0,1,-5,-5v-12a5,5,0,0,1,5,-5z"></path><g id="node_text33" fill="black"><text id="kity_text_181" text-rendering="inherit" font-size="12" dy=".8em" y="1197.6999771147703" x="404.4999935093521">函数</text></g></g><g id="minder_node35"><g id="node_expander33" display="none" style="cursor: pointer;"><path id="kity_path_347" fill="white" stroke="gray" d="M394.499993950126,1257.4999756134346A6,6,0,1,1,382.499993950126,1257.4999756134346A6,6,0,1,1,394.499993950126,1257.4999756134346"></path><path id="kity_path_348" fill="none" stroke="gray"></path></g><path id="node_outline34" fill="none" stroke="none" d="M399.4999935093521,1246.4999756134346h24a5,5,0,0,1,5,5v12a5,5,0,0,1,-5,5h-24a5,5,0,0,1,-5,-5v-12a5,5,0,0,1,5,-5z"></path><g id="node_text34" fill="black"><text id="kity_text_183" text-rendering="inherit" font-size="12" dy=".8em" y="1249.6999756822554" x="404.4999935093521">类</text></g></g><g id="minder_node36"><g id="node_expander38" style="cursor: pointer;"><path id="kity_path_362" fill="white" stroke="gray" d="M284.49999784596594,1371.4999724729207A6,6,0,1,1,272.49999784596594,1371.4999724729207A6,6,0,1,1,284.49999784596594,1371.4999724729207"></path><path id="kity_path_363" fill="none" stroke="gray" d="M273.99999784596594,1371.4999724729207L282.99999784596594,1371.4999724729207"></path></g><path id="node_outline39" fill="rgb(238, 243, 246)" stroke="rgb(115, 161, 191)" d="M288.4999962366405,1358.4999724729207h62a3,3,0,0,1,3,3v20a3,3,0,0,1,-3,3h-62a3,3,0,0,1,-3,-3v-20a3,3,0,0,1,3,-3z" stroke-width="1"></path><g id="node_text39" fill="black"><text id="kity_text_193" text-rendering="inherit" font-size="14" dy=".8em" y="1362.399972713493" x="305.4999962366405">工具</text></g></g><g id="minder_node37"><g id="node_expander35" display="none" style="cursor: pointer;"><path id="kity_path_353" fill="white" stroke="gray" d="M393.49999397767436,1319.4999739054358A6,6,0,1,1,381.49999397767436,1319.4999739054358A6,6,0,1,1,393.49999397767436,1319.4999739054358"></path><path id="kity_path_354" fill="none" stroke="gray"></path></g><path id="node_outline36" fill="none" stroke="none" d="M398.4999935369005,1308.4999739054358h84a5,5,0,0,1,5,5v12a5,5,0,0,1,-5,5h-84a5,5,0,0,1,-5,-5v-12a5,5,0,0,1,5,-5z"></path><g id="node_text36" fill="black"><text id="kity_text_187" text-rendering="inherit" font-size="12" dy=".8em" y="1311.6999739742566" x="403.4999935369005">输入输出工具</text></g></g><g id="minder_node38"><g id="node_expander36" display="none" style="cursor: pointer;"><path id="kity_path_356" fill="white" stroke="gray" d="M393.49999397767436,1371.4999724729207A6,6,0,1,1,381.49999397767436,1371.4999724729207A6,6,0,1,1,393.49999397767436,1371.4999724729207"></path><path id="kity_path_357" fill="none" stroke="gray"></path></g><path id="node_outline37" fill="none" stroke="none" d="M398.4999935369005,1360.4999724729207h71a5,5,0,0,1,5,5v12a5,5,0,0,1,-5,5h-71a5,5,0,0,1,-5,-5v-12a5,5,0,0,1,5,-5z"></path><g id="node_text37" fill="black"><text id="kity_text_189" text-rendering="inherit" font-size="12" dy=".8em" y="1363.6999725417415" x="403.4999935369005">字符串工具</text></g></g><g id="minder_node39"><g id="node_expander37" display="none" style="cursor: pointer;"><path id="kity_path_359" fill="white" stroke="gray" d="M393.49999397767436,1423.4999710404056A6,6,0,1,1,381.49999397767436,1423.4999710404056A6,6,0,1,1,393.49999397767436,1423.4999710404056"></path><path id="kity_path_360" fill="none" stroke="gray"></path></g><path id="node_outline38" fill="none" stroke="none" d="M398.4999935369005,1412.4999710404056h59a5,5,0,0,1,5,5v12a5,5,0,0,1,-5,5h-59a5,5,0,0,1,-5,-5v-12a5,5,0,0,1,5,-5z"></path><g id="node_text38" fill="black"><text id="kity_text_191" text-rendering="inherit" font-size="12" dy=".8em" y="1415.6999711092265" x="403.4999935369005">数据结构</text></g></g><g id="minder_node40"><g id="node_expander44" style="cursor: pointer;"><path id="kity_path_380" fill="white" stroke="gray" d="M284.49999784596594,1563.4999671836342A6,6,0,1,1,272.49999784596594,1563.4999671836342A6,6,0,1,1,284.49999784596594,1563.4999671836342"></path><path id="kity_path_381" fill="none" stroke="gray" d="M273.99999784596594,1563.4999671836342L282.99999784596594,1563.4999671836342"></path></g><path id="node_outline45" fill="rgb(238, 243, 246)" stroke="rgb(115, 161, 191)" d="M288.4999962366405,1550.4999671836342h63a3,3,0,0,1,3,3v20a3,3,0,0,1,-3,3h-63a3,3,0,0,1,-3,-3v-20a3,3,0,0,1,3,-3z" stroke-width="1"></path><g id="node_text45" fill="black"><text id="kity_text_205" text-rendering="inherit" font-size="14" dy=".8em" y="1554.3999674242066" x="305.4999962366405">类库</text></g></g><g id="minder_node41"><g id="node_expander40" style="cursor: pointer;"><path id="kity_path_368" fill="white" stroke="gray" d="M394.499993950126,1485.4999693324066A6,6,0,1,1,382.499993950126,1485.4999693324066A6,6,0,1,1,394.499993950126,1485.4999693324066"></path><path id="kity_path_369" fill="none" stroke="gray" d="M383.999993950126,1485.4999693324066L392.999993950126,1485.4999693324066"></path></g><path id="node_outline41" fill="none" stroke="none" d="M399.4999935093521,1474.4999693324066h35a5,5,0,0,1,5,5v12a5,5,0,0,1,-5,5h-35a5,5,0,0,1,-5,-5v-12a5,5,0,0,1,5,-5z"></path><g id="node_text41" fill="black"><text id="kity_text_197" text-rendering="inherit" font-size="12" dy=".8em" y="1477.6999694012275" x="404.4999935093521">数学</text></g></g><g id="minder_node42"><g id="node_expander39" display="none" style="cursor: pointer;"><path id="kity_path_365" fill="white" stroke="gray" d="M479.4999916085148,1485.4999693324066A6,6,0,1,1,467.4999916085148,1485.4999693324066A6,6,0,1,1,479.4999916085148,1485.4999693324066"></path><path id="kity_path_366" fill="none" stroke="gray"></path></g><path id="node_outline40" fill="none" stroke="none" d="M484.4999911677409,1474.4999693324066h71a5,5,0,0,1,5,5v12a5,5,0,0,1,-5,5h-71a5,5,0,0,1,-5,-5v-12a5,5,0,0,1,5,-5z"></path><g id="node_text40" fill="black"><text id="kity_text_195" text-rendering="inherit" font-size="12" dy=".8em" y="1477.6999694012275" x="489.4999911677409">高精度运算</text></g></g><g id="minder_node43"><g id="node_expander41" display="none" style="cursor: pointer;"><path id="kity_path_371" fill="white" stroke="gray" d="M394.499993950126,1537.4999678998918A6,6,0,1,1,382.499993950126,1537.4999678998918A6,6,0,1,1,394.499993950126,1537.4999678998918"></path><path id="kity_path_372" fill="none" stroke="gray"></path></g><path id="node_outline42" fill="none" stroke="none" d="M399.4999935093521,1526.4999678998918h70a5,5,0,0,1,5,5v12a5,5,0,0,1,-5,5h-70a5,5,0,0,1,-5,-5v-12a5,5,0,0,1,5,-5z"></path><g id="node_text42" fill="black"><text id="kity_text_199" text-rendering="inherit" font-size="12" dy=".8em" y="1529.6999679687126" x="404.4999935093521">日期和时间</text></g></g><g id="minder_node44"><g id="node_expander42" display="none" style="cursor: pointer;"><path id="kity_path_374" fill="white" stroke="gray" d="M394.499993950126,1589.4999664673767A6,6,0,1,1,382.499993950126,1589.4999664673767A6,6,0,1,1,394.499993950126,1589.4999664673767"></path><path id="kity_path_375" fill="none" stroke="gray"></path></g><path id="node_outline43" fill="none" stroke="none" d="M399.4999935093521,1578.4999664673767h36a5,5,0,0,1,5,5v12a5,5,0,0,1,-5,5h-36a5,5,0,0,1,-5,-5v-12a5,5,0,0,1,5,-5z"></path><g id="node_text43" fill="black"><text id="kity_text_201" text-rendering="inherit" font-size="12" dy=".8em" y="1581.6999665361975" x="404.4999935093521">文件</text></g></g><g id="minder_node45"><g id="node_expander43" display="none" style="cursor: pointer;"><path id="kity_path_377" fill="white" stroke="gray" d="M394.499993950126,1641.4999650348616A6,6,0,1,1,382.499993950126,1641.4999650348616A6,6,0,1,1,394.499993950126,1641.4999650348616"></path><path id="kity_path_378" fill="none" stroke="gray"></path></g><path id="node_outline44" fill="none" stroke="none" d="M399.4999935093521,1630.4999650348616h35a5,5,0,0,1,5,5v12a5,5,0,0,1,-5,5h-35a5,5,0,0,1,-5,-5v-12a5,5,0,0,1,5,-5z"></path><g id="node_text44" fill="black"><text id="kity_text_203" text-rendering="inherit" font-size="12" dy=".8em" y="1633.6999651036824" x="404.4999935093521">网络</text></g></g></g></g></svg>