<svg id="kity_svg_6" xmlns="http://www.w3.org/2000/svg" xmlns:xlink="http://www.w3.org/1999/xlink" version="1.1" width="924" height="2972" style="background: rgb(251, 251, 251); visibility: visible;" viewBox="0 0 924 2972"><defs id="kity_defs_7"><linearGradient id="kity_linearGradient_17" x1="0" y1="0" x2="0" y2="1"><stop id="kity_stop_18" offset="0" stop-color="rgb(255, 255, 255)"></stop><stop id="kity_stop_19" offset="1" stop-color="rgb(204, 204, 204)"></stop></linearGradient><marker id="kity_marker_2" orient="auto" refX="6" refY="0" viewBox="-7 -7 14 14" markerWidth="7" markerHeight="7" markerUnits="userSpaceOnUse"><path id="kity_path_3" fill="rgb(115, 161, 191)" stroke="none" d="M6,0A6,6,0,1,1,-6,0A6,6,0,1,1,6,0"></path></marker></defs><g id="kity_g_8"><g id="minder1" text-rendering="optimize-speed"><g id="minder_connect_group1"><path id="kity_path_31" fill="none" stroke="rgb(115, 161, 191)" stroke-width="1" d="M93.0000034267643,1824.4999875694257A190.5,1039,0,0,1,283.5000034267643,785.4999875694257"></path><path id="kity_path_33" fill="none" stroke="rgb(115, 161, 191)" stroke-width="1" d="M354.5000034267643,785.4999875694257C374.5000034267643,785.4999875694257,374.5000034267643,135.49998756942568,394.5000034267643,135.49998756942568"></path><path id="kity_path_35" fill="none" stroke="rgb(115, 161, 191)" stroke-width="1" d="M463.5000034267643,135.49998756942568C483.5000034267643,135.49998756942568,483.5000034267643,135.49998756942568,503.5000034267643,135.49998756942568"></path><path id="kity_path_37" fill="none" stroke="rgb(115, 161, 191)" stroke-width="1" d="M586.5000034267644,135.49998756942568C606.5000034267644,135.49998756942568,606.5000034267644,31.499987569425684,626.5000034267644,31.499987569425684"></path><path id="kity_path_39" fill="none" stroke="rgb(115, 161, 191)" stroke-width="1" d="M586.5000034267644,135.49998756942568C606.5000034267644,135.49998756942568,606.5000034267644,83.49998756942568,626.5000034267644,83.49998756942568"></path><path id="kity_path_41" fill="none" stroke="rgb(115, 161, 191)" stroke-width="1" d="M586.5000034267644,135.49998756942568C606.5000034267644,135.49998756942568,606.5000034267644,135.49998756942568,626.5000034267644,135.49998756942568"></path><path id="kity_path_43" fill="none" stroke="rgb(115, 161, 191)" stroke-width="1" d="M586.5000034267644,135.49998756942568C606.5000034267644,135.49998756942568,606.5000034267644,187.49998756942568,626.5000034267644,187.49998756942568"></path><path id="kity_path_45" fill="none" stroke="rgb(115, 161, 191)" stroke-width="1" d="M586.5000034267644,135.49998756942568C606.5000034267644,135.49998756942568,606.5000034267644,239.49998756942568,626.5000034267644,239.49998756942568"></path><path id="kity_path_47" fill="none" stroke="rgb(115, 161, 191)" stroke-width="1" d="M354.5000034267643,785.4999875694257C374.5000034267643,785.4999875694257,374.5000034267643,746.4999875694257,394.5000034267643,746.4999875694257"></path><path id="kity_path_49" fill="none" stroke="rgb(115, 161, 191)" stroke-width="1" d="M463.5000034267643,746.4999875694257C483.5000034267643,746.4999875694257,483.5000034267643,369.4999875694257,503.5000034267643,369.4999875694257"></path><path id="kity_path_51" fill="none" stroke="rgb(115, 161, 191)" stroke-width="1" d="M585.5000034267644,369.4999875694257C605.5000034267644,369.4999875694257,605.5000034267644,291.4999875694257,625.5000034267644,291.4999875694257"></path><path id="kity_path_53" fill="none" stroke="rgb(115, 161, 191)" stroke-width="1" d="M694.5000034267644,291.4999875694257C714.5000034267644,291.4999875694257,714.5000034267644,291.4999875694257,734.5000034267644,291.4999875694257"></path><path id="kity_path_55" fill="none" stroke="rgb(115, 161, 191)" stroke-width="1" d="M585.5000034267644,369.4999875694257C605.5000034267644,369.4999875694257,605.5000034267644,343.4999875694257,625.5000034267644,343.4999875694257"></path><path id="kity_path_57" fill="none" stroke="rgb(115, 161, 191)" stroke-width="1" d="M585.5000034267644,369.4999875694257C605.5000034267644,369.4999875694257,605.5000034267644,395.4999875694257,625.5000034267644,395.4999875694257"></path><path id="kity_path_59" fill="none" stroke="rgb(115, 161, 191)" stroke-width="1" d="M585.5000034267644,369.4999875694257C605.5000034267644,369.4999875694257,605.5000034267644,447.4999875694257,625.5000034267644,447.4999875694257"></path><path id="kity_path_61" fill="none" stroke="rgb(115, 161, 191)" stroke-width="1" d="M463.5000034267643,746.4999875694257C483.5000034267643,746.4999875694257,483.5000034267643,655.4999875694257,503.5000034267643,655.4999875694257"></path><path id="kity_path_63" fill="none" stroke="rgb(115, 161, 191)" stroke-width="1" d="M585.5000034267644,655.4999875694257C605.5000034267644,655.4999875694257,605.5000034267644,499.4999875694257,625.5000034267644,499.4999875694257"></path><path id="kity_path_65" fill="none" stroke="rgb(115, 161, 191)" stroke-width="1" d="M585.5000034267644,655.4999875694257C605.5000034267644,655.4999875694257,605.5000034267644,551.4999875694257,625.5000034267644,551.4999875694257"></path><path id="kity_path_67" fill="none" stroke="rgb(115, 161, 191)" stroke-width="1" d="M585.5000034267644,655.4999875694257C605.5000034267644,655.4999875694257,605.5000034267644,603.4999875694257,625.5000034267644,603.4999875694257"></path><path id="kity_path_69" fill="none" stroke="rgb(115, 161, 191)" stroke-width="1" d="M585.5000034267644,655.4999875694257C605.5000034267644,655.4999875694257,605.5000034267644,655.4999875694257,625.5000034267644,655.4999875694257"></path><path id="kity_path_71" fill="none" stroke="rgb(115, 161, 191)" stroke-width="1" d="M585.5000034267644,655.4999875694257C605.5000034267644,655.4999875694257,605.5000034267644,707.4999875694257,625.5000034267644,707.4999875694257"></path><path id="kity_path_73" fill="none" stroke="rgb(115, 161, 191)" stroke-width="1" d="M585.5000034267644,655.4999875694257C605.5000034267644,655.4999875694257,605.5000034267644,759.4999875694257,625.5000034267644,759.4999875694257"></path><path id="kity_path_75" fill="none" stroke="rgb(115, 161, 191)" stroke-width="1" d="M585.5000034267644,655.4999875694257C605.5000034267644,655.4999875694257,605.5000034267644,811.4999875694257,625.5000034267644,811.4999875694257"></path><path id="kity_path_77" fill="none" stroke="rgb(115, 161, 191)" stroke-width="1" d="M463.5000034267643,746.4999875694257C483.5000034267643,746.4999875694257,483.5000034267643,1123.4999875694257,503.5000034267643,1123.4999875694257"></path><path id="kity_path_79" fill="none" stroke="rgb(115, 161, 191)" stroke-width="1" d="M585.5000034267644,1123.4999875694257C605.5000034267644,1123.4999875694257,605.5000034267644,863.4999875694257,625.5000034267644,863.4999875694257"></path><path id="kity_path_81" fill="none" stroke="rgb(115, 161, 191)" stroke-width="1" d="M585.5000034267644,1123.4999875694257C605.5000034267644,1123.4999875694257,605.5000034267644,915.4999875694257,625.5000034267644,915.4999875694257"></path><path id="kity_path_83" fill="none" stroke="rgb(115, 161, 191)" stroke-width="1" d="M585.5000034267644,1123.4999875694257C605.5000034267644,1123.4999875694257,605.5000034267644,967.4999875694257,625.5000034267644,967.4999875694257"></path><path id="kity_path_85" fill="none" stroke="rgb(115, 161, 191)" stroke-width="1" d="M585.5000034267644,1123.4999875694257C605.5000034267644,1123.4999875694257,605.5000034267644,1019.4999875694257,625.5000034267644,1019.4999875694257"></path><path id="kity_path_87" fill="none" stroke="rgb(115, 161, 191)" stroke-width="1" d="M585.5000034267644,1123.4999875694257C605.5000034267644,1123.4999875694257,605.5000034267644,1071.4999875694257,625.5000034267644,1071.4999875694257"></path><path id="kity_path_89" fill="none" stroke="rgb(115, 161, 191)" stroke-width="1" d="M585.5000034267644,1123.4999875694257C605.5000034267644,1123.4999875694257,605.5000034267644,1123.4999875694257,625.5000034267644,1123.4999875694257"></path><path id="kity_path_91" fill="none" stroke="rgb(115, 161, 191)" stroke-width="1" d="M585.5000034267644,1123.4999875694257C605.5000034267644,1123.4999875694257,605.5000034267644,1175.4999875694257,625.5000034267644,1175.4999875694257"></path><path id="kity_path_93" fill="none" stroke="rgb(115, 161, 191)" stroke-width="1" d="M585.5000034267644,1123.4999875694257C605.5000034267644,1123.4999875694257,605.5000034267644,1227.4999875694257,625.5000034267644,1227.4999875694257"></path><path id="kity_path_95" fill="none" stroke="rgb(115, 161, 191)" stroke-width="1" d="M585.5000034267644,1123.4999875694257C605.5000034267644,1123.4999875694257,605.5000034267644,1279.4999875694257,625.5000034267644,1279.4999875694257"></path><path id="kity_path_97" fill="none" stroke="rgb(115, 161, 191)" stroke-width="1" d="M585.5000034267644,1123.4999875694257C605.5000034267644,1123.4999875694257,605.5000034267644,1331.4999875694257,625.5000034267644,1331.4999875694257"></path><path id="kity_path_99" fill="none" stroke="rgb(115, 161, 191)" stroke-width="1" d="M585.5000034267644,1123.4999875694257C605.5000034267644,1123.4999875694257,605.5000034267644,1383.4999875694257,625.5000034267644,1383.4999875694257"></path><path id="kity_path_101" fill="none" stroke="rgb(115, 161, 191)" stroke-width="1" d="M354.5000034267643,785.4999875694257C374.5000034267643,785.4999875694257,374.5000034267643,1435.4999875694257,394.5000034267643,1435.4999875694257"></path><path id="kity_path_103" fill="none" stroke="rgb(115, 161, 191)" stroke-width="1" d="M93.0000034267643,1824.4999875694257A190.5,145,0,0,1,283.5000034267643,1679.4999875694257"></path><path id="kity_path_105" fill="none" stroke="rgb(115, 161, 191)" stroke-width="1" d="M354.5000034267643,1679.4999875694257C374.5000034267643,1679.4999875694257,374.5000034267643,1497.4999875694257,394.5000034267643,1497.4999875694257"></path><path id="kity_path_107" fill="none" stroke="rgb(115, 161, 191)" stroke-width="1" d="M354.5000034267643,1679.4999875694257C374.5000034267643,1679.4999875694257,374.5000034267643,1549.4999875694257,394.5000034267643,1549.4999875694257"></path><path id="kity_path_109" fill="none" stroke="rgb(115, 161, 191)" stroke-width="1" d="M354.5000034267643,1679.4999875694257C374.5000034267643,1679.4999875694257,374.5000034267643,1666.4999875694257,394.5000034267643,1666.4999875694257"></path><path id="kity_path_111" fill="none" stroke="rgb(115, 161, 191)" stroke-width="1" d="M488.5000034267643,1666.4999875694257C508.5000034267643,1666.4999875694257,508.5000034267643,1601.4999875694257,528.5000034267644,1601.4999875694257"></path><path id="kity_path_113" fill="none" stroke="rgb(115, 161, 191)" stroke-width="1" d="M488.5000034267643,1666.4999875694257C508.5000034267643,1666.4999875694257,508.5000034267643,1653.4999875694257,528.5000034267644,1653.4999875694257"></path><path id="kity_path_115" fill="none" stroke="rgb(115, 161, 191)" stroke-width="1" d="M488.5000034267643,1666.4999875694257C508.5000034267643,1666.4999875694257,508.5000034267643,1731.4999875694257,528.5000034267644,1731.4999875694257"></path><path id="kity_path_117" fill="none" stroke="rgb(115, 161, 191)" stroke-width="1" d="M598.5000034267644,1731.4999875694257C618.5000034267644,1731.4999875694257,618.5000034267644,1705.4999875694257,638.5000034267644,1705.4999875694257"></path><path id="kity_path_119" fill="none" stroke="rgb(115, 161, 191)" stroke-width="1" d="M598.5000034267644,1731.4999875694257C618.5000034267644,1731.4999875694257,618.5000034267644,1757.4999875694257,638.5000034267644,1757.4999875694257"></path><path id="kity_path_121" fill="none" stroke="rgb(115, 161, 191)" stroke-width="1" d="M354.5000034267643,1679.4999875694257C374.5000034267643,1679.4999875694257,374.5000034267643,1861.4999875694257,394.5000034267643,1861.4999875694257"></path><path id="kity_path_123" fill="none" stroke="rgb(115, 161, 191)" stroke-width="1" d="M488.5000034267643,1861.4999875694257C508.5000034267643,1861.4999875694257,508.5000034267643,1809.4999875694257,528.5000034267644,1809.4999875694257"></path><path id="kity_path_125" fill="none" stroke="rgb(115, 161, 191)" stroke-width="1" d="M488.5000034267643,1861.4999875694257C508.5000034267643,1861.4999875694257,508.5000034267643,1861.4999875694257,528.5000034267644,1861.4999875694257"></path><path id="kity_path_127" fill="none" stroke="rgb(115, 161, 191)" stroke-width="1" d="M488.5000034267643,1861.4999875694257C508.5000034267643,1861.4999875694257,508.5000034267643,1913.4999875694257,528.5000034267644,1913.4999875694257"></path><path id="kity_path_129" fill="none" stroke="rgb(115, 161, 191)" stroke-width="1" d="M93.0000034267643,1824.4999875694257A190.5,333,0,0,0,283.5000034267643,2157.4999875694257"></path><path id="kity_path_131" fill="none" stroke="rgb(115, 161, 191)" stroke-width="1" d="M354.5000034267643,2157.4999875694257C374.5000034267643,2157.4999875694257,374.5000034267643,2027.4999875694257,394.5000034267643,2027.4999875694257"></path><path id="kity_path_133" fill="none" stroke="rgb(115, 161, 191)" stroke-width="1" d="M452.5000034267643,2027.4999875694257C472.5000034267643,2027.4999875694257,472.5000034267643,1975.4999875694257,492.5000034267643,1975.4999875694257"></path><path id="kity_path_135" fill="none" stroke="rgb(115, 161, 191)" stroke-width="1" d="M452.5000034267643,2027.4999875694257C472.5000034267643,2027.4999875694257,472.5000034267643,2027.4999875694257,492.5000034267643,2027.4999875694257"></path><path id="kity_path_137" fill="none" stroke="rgb(115, 161, 191)" stroke-width="1" d="M452.5000034267643,2027.4999875694257C472.5000034267643,2027.4999875694257,472.5000034267643,2079.4999875694257,492.5000034267643,2079.4999875694257"></path><path id="kity_path_139" fill="none" stroke="rgb(115, 161, 191)" stroke-width="1" d="M354.5000034267643,2157.4999875694257C374.5000034267643,2157.4999875694257,374.5000034267643,2131.4999875694257,394.5000034267643,2131.4999875694257"></path><path id="kity_path_141" fill="none" stroke="rgb(115, 161, 191)" stroke-width="1" d="M354.5000034267643,2157.4999875694257C374.5000034267643,2157.4999875694257,374.5000034267643,2183.4999875694257,394.5000034267643,2183.4999875694257"></path><path id="kity_path_143" fill="none" stroke="rgb(115, 161, 191)" stroke-width="1" d="M354.5000034267643,2157.4999875694257C374.5000034267643,2157.4999875694257,374.5000034267643,2235.4999875694257,394.5000034267643,2235.4999875694257"></path><path id="kity_path_145" fill="none" stroke="rgb(115, 161, 191)" stroke-width="1" d="M354.5000034267643,2157.4999875694257C374.5000034267643,2157.4999875694257,374.5000034267643,2287.4999875694257,394.5000034267643,2287.4999875694257"></path><path id="kity_path_147" fill="none" stroke="rgb(115, 161, 191)" stroke-width="1" d="M93.0000034267643,1824.4999875694257A190.5,655,0,0,0,283.5000034267643,2479.4999875694257"></path><path id="kity_path_149" fill="none" stroke="rgb(115, 161, 191)" stroke-width="1" d="M354.5000034267643,2479.4999875694257C374.5000034267643,2479.4999875694257,374.5000034267643,2401.4999875694257,394.5000034267643,2401.4999875694257"></path><path id="kity_path_151" fill="none" stroke="rgb(115, 161, 191)" stroke-width="1" d="M463.5000034267643,2401.4999875694257C483.5000034267643,2401.4999875694257,483.5000034267643,2349.4999875694257,503.5000034267643,2349.4999875694257"></path><path id="kity_path_153" fill="none" stroke="rgb(115, 161, 191)" stroke-width="1" d="M463.5000034267643,2401.4999875694257C483.5000034267643,2401.4999875694257,483.5000034267643,2401.4999875694257,503.5000034267643,2401.4999875694257"></path><path id="kity_path_155" fill="none" stroke="rgb(115, 161, 191)" stroke-width="1" d="M463.5000034267643,2401.4999875694257C483.5000034267643,2401.4999875694257,483.5000034267643,2453.4999875694257,503.5000034267643,2453.4999875694257"></path><path id="kity_path_157" fill="none" stroke="rgb(115, 161, 191)" stroke-width="1" d="M354.5000034267643,2479.4999875694257C374.5000034267643,2479.4999875694257,374.5000034267643,2505.4999875694257,394.5000034267643,2505.4999875694257"></path><path id="kity_path_159" fill="none" stroke="rgb(115, 161, 191)" stroke-width="1" d="M354.5000034267643,2479.4999875694257C374.5000034267643,2479.4999875694257,374.5000034267643,2557.4999875694257,394.5000034267643,2557.4999875694257"></path><path id="kity_path_161" fill="none" stroke="rgb(115, 161, 191)" stroke-width="1" d="M93.0000034267643,1824.4999875694257A190.5,847,0,0,0,283.5000034267643,2671.4999875694257"></path><path id="kity_path_163" fill="none" stroke="rgb(115, 161, 191)" stroke-width="1" d="M353.5000034267643,2671.4999875694257C373.5000034267643,2671.4999875694257,373.5000034267643,2619.4999875694257,393.5000034267643,2619.4999875694257"></path><path id="kity_path_165" fill="none" stroke="rgb(115, 161, 191)" stroke-width="1" d="M353.5000034267643,2671.4999875694257C373.5000034267643,2671.4999875694257,373.5000034267643,2671.4999875694257,393.5000034267643,2671.4999875694257"></path><path id="kity_path_167" fill="none" stroke="rgb(115, 161, 191)" stroke-width="1" d="M353.5000034267643,2671.4999875694257C373.5000034267643,2671.4999875694257,373.5000034267643,2723.4999875694257,393.5000034267643,2723.4999875694257"></path><path id="kity_path_169" fill="none" stroke="rgb(115, 161, 191)" stroke-width="1" d="M93.0000034267643,1824.4999875694257A190.5,1039,0,0,0,283.5000034267643,2863.4999875694257"></path><path id="kity_path_171" fill="none" stroke="rgb(115, 161, 191)" stroke-width="1" d="M354.5000034267643,2863.4999875694257C374.5000034267643,2863.4999875694257,374.5000034267643,2785.4999875694257,394.5000034267643,2785.4999875694257"></path><path id="kity_path_173" fill="none" stroke="rgb(115, 161, 191)" stroke-width="1" d="M439.5000034267643,2785.4999875694257C459.5000034267643,2785.4999875694257,459.5000034267643,2785.4999875694257,479.5000034267643,2785.4999875694257"></path><path id="kity_path_175" fill="none" stroke="rgb(115, 161, 191)" stroke-width="1" d="M354.5000034267643,2863.4999875694257C374.5000034267643,2863.4999875694257,374.5000034267643,2837.4999875694257,394.5000034267643,2837.4999875694257"></path><path id="kity_path_177" fill="none" stroke="rgb(115, 161, 191)" stroke-width="1" d="M354.5000034267643,2863.4999875694257C374.5000034267643,2863.4999875694257,374.5000034267643,2889.4999875694257,394.5000034267643,2889.4999875694257"></path><path id="kity_path_179" fill="none" stroke="rgb(115, 161, 191)" stroke-width="1" d="M354.5000034267643,2863.4999875694257C374.5000034267643,2863.4999875694257,374.5000034267643,2941.4999875694257,394.5000034267643,2941.4999875694257"></path></g><g id="minder_node1"><path id="node_outline1" fill="rgb(115, 161, 191)" stroke="rgb(57, 80, 96)" d="M25.500003426764295,1804.4999875694257h135a5,5,0,0,1,5,5v30a5,5,0,0,1,-5,5h-135a5,5,0,0,1,-5,-5v-30a5,5,0,0,1,5,-5z" stroke-width="3"></path><g id="node_text1" fill="white"><text id="kity_text_22" text-rendering="inherit" font-size="16" dy=".8em" y="1814.0999875970742" x="44.500003426764295">编程语言导图</text></g></g><g id="kity_g_12"><path id="kity_path_13" fill="none" stroke="none" d="M44.500003426764295,1824.4999875694257h0v0h0z"></path></g><g id="kity_g_14"><path id="kity_path_15" fill="none" stroke="none" d="M44.500003426764295,1824.4999875694257h0v0h0z"></path><path id="kity_path_16" fill="none" stroke="none"></path></g><g id="minder_node2"><g id="node_expander36" style="cursor: pointer;"><path id="kity_path_511" fill="white" stroke="gray" d="M284.4999978459659,785.5000161921789A6,6,0,1,1,272.4999978459659,785.5000161921789A6,6,0,1,1,284.4999978459659,785.5000161921789"></path><path id="kity_path_512" fill="none" stroke="gray" d="M273.9999978459659,785.5000161921789L282.9999978459659,785.5000161921789"></path></g><path id="node_outline37" fill="rgb(238, 243, 246)" stroke="rgb(115, 161, 191)" d="M288.49999623664047,772.5000161921789h63a3,3,0,0,1,3,3v20a3,3,0,0,1,-3,3h-63a3,3,0,0,1,-3,-3v-20a3,3,0,0,1,3,-3z" stroke-width="1"></path><g id="node_text37" fill="black"><text id="kity_text_251" text-rendering="inherit" font-size="14" dy=".8em" y="776.4000164327513" x="305.49999623664047">常识</text></g></g><g id="minder_node3"><g id="node_expander7" style="cursor: pointer;"><path id="kity_path_424" fill="white" stroke="gray" d="M394.49999395012605,135.5000340986178A6,6,0,1,1,382.49999395012605,135.5000340986178A6,6,0,1,1,394.49999395012605,135.5000340986178"></path><path id="kity_path_425" fill="none" stroke="gray" d="M383.99999395012605,135.5000340986178L392.99999395012605,135.5000340986178"></path></g><path id="node_outline8" fill="none" stroke="none" d="M399.4999935093522,124.50003409861779h59a5,5,0,0,1,5,5v12a5,5,0,0,1,-5,5h-59a5,5,0,0,1,-5,-5v-12a5,5,0,0,1,5,-5z"></path><g id="node_text8" fill="black"><text id="kity_text_193" text-rendering="inherit" font-size="12" dy=".8em" y="127.70003416743862" x="404.4999935093522">设计模式</text></g></g><g id="minder_node4"><g id="node_expander6" style="cursor: pointer;"><path id="kity_path_421" fill="white" stroke="gray" d="M503.49999094735404,135.5000340986178A6,6,0,1,1,491.49999094735404,135.5000340986178A6,6,0,1,1,503.49999094735404,135.5000340986178"></path><path id="kity_path_422" fill="none" stroke="gray" d="M492.99999094735404,135.5000340986178L501.99999094735404,135.5000340986178"></path></g><path id="node_outline7" fill="none" stroke="none" d="M508.49999050658016,124.50003409861779h73a5,5,0,0,1,5,5v12a5,5,0,0,1,-5,5h-73a5,5,0,0,1,-5,-5v-12a5,5,0,0,1,5,-5z"></path><g id="node_text7" fill="black"><text id="kity_text_191" text-rendering="inherit" font-size="12" dy=".8em" y="127.70003416743862" x="513.4999905065802">SOLID 原则</text></g></g><g id="minder_node5"><g id="node_expander1" display="none" style="cursor: pointer;"><path id="kity_path_406" fill="white" stroke="gray" d="M626.4999875589049,31.500036963647972A6,6,0,1,1,614.4999875589049,31.500036963647972A6,6,0,1,1,626.4999875589049,31.500036963647972"></path><path id="kity_path_407" fill="none" stroke="gray"></path></g><path id="node_outline2" fill="none" stroke="none" d="M631.499987118131,20.500036963647972h256a5,5,0,0,1,5,5v12a5,5,0,0,1,-5,5h-256a5,5,0,0,1,-5,-5v-12a5,5,0,0,1,5,-5z"></path><g id="node_text2" fill="black"><text id="kity_text_181" text-rendering="inherit" font-size="12" dy=".8em" y="23.7000370324688" x="636.499987118131">单一职责原则&#xa0;Single-responsibility&#xa0;Principle</text></g></g><g id="minder_node6"><g id="node_expander2" display="none" style="cursor: pointer;"><path id="kity_path_409" fill="white" stroke="gray" d="M626.4999875589049,83.50003553113288A6,6,0,1,1,614.4999875589049,83.50003553113288A6,6,0,1,1,626.4999875589049,83.50003553113288"></path><path id="kity_path_410" fill="none" stroke="gray"></path></g><path id="node_outline3" fill="none" stroke="none" d="M631.499987118131,72.50003553113288h213a5,5,0,0,1,5,5v12a5,5,0,0,1,-5,5h-213a5,5,0,0,1,-5,-5v-12a5,5,0,0,1,5,-5z"></path><g id="node_text3" fill="black"><text id="kity_text_183" text-rendering="inherit" font-size="12" dy=".8em" y="75.70003559995371" x="636.499987118131">开放闭合原则&#xa0;Open-closed&#xa0;Principle</text></g></g><g id="minder_node7"><g id="node_expander3" display="none" style="cursor: pointer;"><path id="kity_path_412" fill="white" stroke="gray" d="M626.4999875589049,135.5000340986178A6,6,0,1,1,614.4999875589049,135.5000340986178A6,6,0,1,1,626.4999875589049,135.5000340986178"></path><path id="kity_path_413" fill="none" stroke="gray"></path></g><path id="node_outline4" fill="none" stroke="none" d="M631.499987118131,124.50003409861779h248a5,5,0,0,1,5,5v12a5,5,0,0,1,-5,5h-248a5,5,0,0,1,-5,-5v-12a5,5,0,0,1,5,-5z"></path><g id="node_text4" fill="black"><text id="kity_text_185" text-rendering="inherit" font-size="12" dy=".8em" y="127.70003416743862" x="636.499987118131">里氏替换原则&#xa0;Liskov&#xa0;Substitution&#xa0;Principle</text></g></g><g id="minder_node8"><g id="node_expander4" display="none" style="cursor: pointer;"><path id="kity_path_415" fill="white" stroke="gray" d="M626.4999875589049,187.5000326661027A6,6,0,1,1,614.4999875589049,187.5000326661027A6,6,0,1,1,626.4999875589049,187.5000326661027"></path><path id="kity_path_416" fill="none" stroke="gray"></path></g><path id="node_outline5" fill="none" stroke="none" d="M631.499987118131,176.5000326661027h263a5,5,0,0,1,5,5v12a5,5,0,0,1,-5,5h-263a5,5,0,0,1,-5,-5v-12a5,5,0,0,1,5,-5z"></path><g id="node_text5" fill="black"><text id="kity_text_187" text-rendering="inherit" font-size="12" dy=".8em" y="179.70003273492352" x="636.499987118131">接口隔离原则&#xa0;Interface&#xa0;Segregation&#xa0;Principle</text></g></g><g id="minder_node9"><g id="node_expander5" display="none" style="cursor: pointer;"><path id="kity_path_418" fill="white" stroke="gray" d="M626.4999875589049,239.5000312335876A6,6,0,1,1,614.4999875589049,239.5000312335876A6,6,0,1,1,626.4999875589049,239.5000312335876"></path><path id="kity_path_419" fill="none" stroke="gray"></path></g><path id="node_outline6" fill="none" stroke="none" d="M631.499987118131,228.5000312335876h268a5,5,0,0,1,5,5v12a5,5,0,0,1,-5,5h-268a5,5,0,0,1,-5,-5v-12a5,5,0,0,1,5,-5z"></path><g id="node_text6" fill="black"><text id="kity_text_189" text-rendering="inherit" font-size="12" dy=".8em" y="231.70003130240843" x="636.499987118131">依赖倒置原则&#xa0;Dependency&#xa0;Inversion&#xa0;Principle</text></g></g><g id="minder_node10"><g id="node_expander34" style="cursor: pointer;"><path id="kity_path_505" fill="white" stroke="gray" d="M394.49999395012605,746.5000172665655A6,6,0,1,1,382.49999395012605,746.5000172665655A6,6,0,1,1,394.49999395012605,746.5000172665655"></path><path id="kity_path_506" fill="none" stroke="gray" d="M383.99999395012605,746.5000172665655L392.99999395012605,746.5000172665655"></path></g><path id="node_outline35" fill="none" stroke="none" d="M399.4999935093522,735.5000172665655h59a5,5,0,0,1,5,5v12a5,5,0,0,1,-5,5h-59a5,5,0,0,1,-5,-5v-12a5,5,0,0,1,5,-5z"></path><g id="node_text35" fill="black"><text id="kity_text_247" text-rendering="inherit" font-size="12" dy=".8em" y="738.7000173353863" x="404.4999935093522">编码原则</text></g></g><g id="minder_node11"><g id="node_expander13" style="cursor: pointer;"><path id="kity_path_442" fill="white" stroke="gray" d="M503.49999094735404,369.50002765229965A6,6,0,1,1,491.49999094735404,369.50002765229965A6,6,0,1,1,503.49999094735404,369.50002765229965"></path><path id="kity_path_443" fill="none" stroke="gray" d="M492.99999094735404,369.50002765229965L501.99999094735404,369.50002765229965"></path></g><path id="node_outline14" fill="none" stroke="none" d="M508.49999050658016,358.50002765229965h72a5,5,0,0,1,5,5v12a5,5,0,0,1,-5,5h-72a5,5,0,0,1,-5,-5v-12a5,5,0,0,1,5,-5z"></path><g id="node_text14" fill="black"><text id="kity_text_205" text-rendering="inherit" font-size="12" dy=".8em" y="361.7000277211205" x="513.4999905065802">构建型模式</text></g></g><g id="minder_node12"><g id="node_expander9" style="cursor: pointer;"><path id="kity_path_430" fill="white" stroke="gray" d="M625.4999875864532,291.5000298010725A6,6,0,1,1,613.4999875864532,291.5000298010725A6,6,0,1,1,625.4999875864532,291.5000298010725"></path><path id="kity_path_431" fill="none" stroke="gray" d="M614.9999875864532,291.5000298010725L623.9999875864532,291.5000298010725"></path></g><path id="node_outline10" fill="none" stroke="none" d="M630.4999871456794,280.5000298010725h59a5,5,0,0,1,5,5v12a5,5,0,0,1,-5,5h-59a5,5,0,0,1,-5,-5v-12a5,5,0,0,1,5,-5z"></path><g id="node_text10" fill="black"><text id="kity_text_197" text-rendering="inherit" font-size="12" dy=".8em" y="283.70002986989334" x="635.4999871456794">工厂模式</text></g></g><g id="minder_node13"><g id="node_expander8" display="none" style="cursor: pointer;"><path id="kity_path_427" fill="white" stroke="gray" d="M734.4999845836812,291.5000298010725A6,6,0,1,1,722.4999845836812,291.5000298010725A6,6,0,1,1,734.4999845836812,291.5000298010725"></path><path id="kity_path_428" fill="none" stroke="gray"></path></g><path id="node_outline9" fill="none" stroke="none" d="M739.4999841429074,280.5000298010725h84a5,5,0,0,1,5,5v12a5,5,0,0,1,-5,5h-84a5,5,0,0,1,-5,-5v-12a5,5,0,0,1,5,-5z"></path><g id="node_text9" fill="black"><text id="kity_text_195" text-rendering="inherit" font-size="12" dy=".8em" y="283.70002986989334" x="744.4999841429074">抽象工厂模式</text></g></g><g id="minder_node14"><g id="node_expander10" display="none" style="cursor: pointer;"><path id="kity_path_433" fill="white" stroke="gray" d="M625.4999875864532,343.5000283685574A6,6,0,1,1,613.4999875864532,343.5000283685574A6,6,0,1,1,625.4999875864532,343.5000283685574"></path><path id="kity_path_434" fill="none" stroke="gray"></path></g><path id="node_outline11" fill="none" stroke="none" d="M630.4999871456794,332.5000283685574h59a5,5,0,0,1,5,5v12a5,5,0,0,1,-5,5h-59a5,5,0,0,1,-5,-5v-12a5,5,0,0,1,5,-5z"></path><g id="node_text11" fill="black"><text id="kity_text_199" text-rendering="inherit" font-size="12" dy=".8em" y="335.70002843737825" x="635.4999871456794">单例模式</text></g></g><g id="minder_node15"><g id="node_expander11" display="none" style="cursor: pointer;"><path id="kity_path_436" fill="white" stroke="gray" d="M625.4999875864532,395.50002693604233A6,6,0,1,1,613.4999875864532,395.50002693604233A6,6,0,1,1,625.4999875864532,395.50002693604233"></path><path id="kity_path_437" fill="none" stroke="gray"></path></g><path id="node_outline12" fill="none" stroke="none" d="M630.4999871456794,384.50002693604233h72a5,5,0,0,1,5,5v12a5,5,0,0,1,-5,5h-72a5,5,0,0,1,-5,-5v-12a5,5,0,0,1,5,-5z"></path><g id="node_text12" fill="black"><text id="kity_text_201" text-rendering="inherit" font-size="12" dy=".8em" y="387.70002700486316" x="635.4999871456794">建造者模式</text></g></g><g id="minder_node16"><g id="node_expander12" display="none" style="cursor: pointer;"><path id="kity_path_439" fill="white" stroke="gray" d="M625.4999875864532,447.50002550352724A6,6,0,1,1,613.4999875864532,447.50002550352724A6,6,0,1,1,625.4999875864532,447.50002550352724"></path><path id="kity_path_440" fill="none" stroke="gray"></path></g><path id="node_outline13" fill="none" stroke="none" d="M630.4999871456794,436.50002550352724h60a5,5,0,0,1,5,5v12a5,5,0,0,1,-5,5h-60a5,5,0,0,1,-5,-5v-12a5,5,0,0,1,5,-5z"></path><g id="node_text13" fill="black"><text id="kity_text_203" text-rendering="inherit" font-size="12" dy=".8em" y="439.70002557234807" x="635.4999871456794">原型模式</text></g></g><g id="minder_node17"><g id="node_expander21" style="cursor: pointer;"><path id="kity_path_466" fill="white" stroke="gray" d="M503.49999094735404,655.5000197734669A6,6,0,1,1,491.49999094735404,655.5000197734669A6,6,0,1,1,503.49999094735404,655.5000197734669"></path><path id="kity_path_467" fill="none" stroke="gray" d="M492.99999094735404,655.5000197734669L501.99999094735404,655.5000197734669"></path></g><path id="node_outline22" fill="none" stroke="none" d="M508.49999050658016,644.5000197734669h72a5,5,0,0,1,5,5v12a5,5,0,0,1,-5,5h-72a5,5,0,0,1,-5,-5v-12a5,5,0,0,1,5,-5z"></path><g id="node_text22" fill="black"><text id="kity_text_221" text-rendering="inherit" font-size="12" dy=".8em" y="647.7000198422877" x="513.4999905065802">结构型模式</text></g></g><g id="minder_node18"><g id="node_expander14" display="none" style="cursor: pointer;"><path id="kity_path_445" fill="white" stroke="gray" d="M625.4999875864532,499.50002407101215A6,6,0,1,1,613.4999875864532,499.50002407101215A6,6,0,1,1,625.4999875864532,499.50002407101215"></path><path id="kity_path_446" fill="none" stroke="gray"></path></g><path id="node_outline15" fill="none" stroke="none" d="M630.4999871456794,488.50002407101215h72a5,5,0,0,1,5,5v12a5,5,0,0,1,-5,5h-72a5,5,0,0,1,-5,-5v-12a5,5,0,0,1,5,-5z"></path><g id="node_text15" fill="black"><text id="kity_text_207" text-rendering="inherit" font-size="12" dy=".8em" y="491.700024139833" x="635.4999871456794">适配器模式</text></g></g><g id="minder_node19"><g id="node_expander15" display="none" style="cursor: pointer;"><path id="kity_path_448" fill="white" stroke="gray" d="M625.4999875864532,551.5000226384971A6,6,0,1,1,613.4999875864532,551.5000226384971A6,6,0,1,1,625.4999875864532,551.5000226384971"></path><path id="kity_path_449" fill="none" stroke="gray"></path></g><path id="node_outline16" fill="none" stroke="none" d="M630.4999871456794,540.5000226384971h60a5,5,0,0,1,5,5v12a5,5,0,0,1,-5,5h-60a5,5,0,0,1,-5,-5v-12a5,5,0,0,1,5,-5z"></path><g id="node_text16" fill="black"><text id="kity_text_209" text-rendering="inherit" font-size="12" dy=".8em" y="543.7000227073179" x="635.4999871456794">桥接模式</text></g></g><g id="minder_node20"><g id="node_expander16" display="none" style="cursor: pointer;"><path id="kity_path_451" fill="white" stroke="gray" d="M625.4999875864532,603.500021205982A6,6,0,1,1,613.4999875864532,603.500021205982A6,6,0,1,1,625.4999875864532,603.500021205982"></path><path id="kity_path_452" fill="none" stroke="gray"></path></g><path id="node_outline17" fill="none" stroke="none" d="M630.4999871456794,592.500021205982h59a5,5,0,0,1,5,5v12a5,5,0,0,1,-5,5h-59a5,5,0,0,1,-5,-5v-12a5,5,0,0,1,5,-5z"></path><g id="node_text17" fill="black"><text id="kity_text_211" text-rendering="inherit" font-size="12" dy=".8em" y="595.7000212748028" x="635.4999871456794">组合模式</text></g></g><g id="minder_node21"><g id="node_expander17" display="none" style="cursor: pointer;"><path id="kity_path_454" fill="white" stroke="gray" d="M625.4999875864532,655.5000197734669A6,6,0,1,1,613.4999875864532,655.5000197734669A6,6,0,1,1,625.4999875864532,655.5000197734669"></path><path id="kity_path_455" fill="none" stroke="gray"></path></g><path id="node_outline18" fill="none" stroke="none" d="M630.4999871456794,644.5000197734669h60a5,5,0,0,1,5,5v12a5,5,0,0,1,-5,5h-60a5,5,0,0,1,-5,-5v-12a5,5,0,0,1,5,-5z"></path><g id="node_text18" fill="black"><text id="kity_text_213" text-rendering="inherit" font-size="12" dy=".8em" y="647.7000198422877" x="635.4999871456794">装饰模式</text></g></g><g id="minder_node22"><g id="node_expander18" display="none" style="cursor: pointer;"><path id="kity_path_457" fill="white" stroke="gray" d="M625.4999875864532,707.5000183409518A6,6,0,1,1,613.4999875864532,707.5000183409518A6,6,0,1,1,625.4999875864532,707.5000183409518"></path><path id="kity_path_458" fill="none" stroke="gray"></path></g><path id="node_outline19" fill="none" stroke="none" d="M630.4999871456794,696.5000183409518h60a5,5,0,0,1,5,5v12a5,5,0,0,1,-5,5h-60a5,5,0,0,1,-5,-5v-12a5,5,0,0,1,5,-5z"></path><g id="node_text19" fill="black"><text id="kity_text_215" text-rendering="inherit" font-size="12" dy=".8em" y="699.7000184097726" x="635.4999871456794">外观模式</text></g></g><g id="minder_node23"><g id="node_expander19" display="none" style="cursor: pointer;"><path id="kity_path_460" fill="white" stroke="gray" d="M625.4999875864532,759.5000169084367A6,6,0,1,1,613.4999875864532,759.5000169084367A6,6,0,1,1,625.4999875864532,759.5000169084367"></path><path id="kity_path_461" fill="none" stroke="gray"></path></g><path id="node_outline20" fill="none" stroke="none" d="M630.4999871456794,748.5000169084367h59a5,5,0,0,1,5,5v12a5,5,0,0,1,-5,5h-59a5,5,0,0,1,-5,-5v-12a5,5,0,0,1,5,-5z"></path><g id="node_text20" fill="black"><text id="kity_text_217" text-rendering="inherit" font-size="12" dy=".8em" y="751.7000169772575" x="635.4999871456794">享元模式</text></g></g><g id="minder_node24"><g id="node_expander20" display="none" style="cursor: pointer;"><path id="kity_path_463" fill="white" stroke="gray" d="M625.4999875864532,811.5000154759216A6,6,0,1,1,613.4999875864532,811.5000154759216A6,6,0,1,1,625.4999875864532,811.5000154759216"></path><path id="kity_path_464" fill="none" stroke="gray"></path></g><path id="node_outline21" fill="none" stroke="none" d="M630.4999871456794,800.5000154759216h60a5,5,0,0,1,5,5v12a5,5,0,0,1,-5,5h-60a5,5,0,0,1,-5,-5v-12a5,5,0,0,1,5,-5z"></path><g id="node_text21" fill="black"><text id="kity_text_219" text-rendering="inherit" font-size="12" dy=".8em" y="803.7000155447424" x="635.4999871456794">代理模式</text></g></g><g id="minder_node25"><g id="node_expander33" style="cursor: pointer;"><path id="kity_path_502" fill="white" stroke="gray" d="M503.49999094735404,1123.500006880831A6,6,0,1,1,491.49999094735404,1123.500006880831A6,6,0,1,1,503.49999094735404,1123.500006880831"></path><path id="kity_path_503" fill="none" stroke="gray" d="M492.99999094735404,1123.500006880831L501.99999094735404,1123.500006880831"></path></g><path id="node_outline34" fill="none" stroke="none" d="M508.49999050658016,1112.500006880831h72a5,5,0,0,1,5,5v12a5,5,0,0,1,-5,5h-72a5,5,0,0,1,-5,-5v-12a5,5,0,0,1,5,-5z"></path><g id="node_text34" fill="black"><text id="kity_text_245" text-rendering="inherit" font-size="12" dy=".8em" y="1115.7000069496519" x="513.4999905065802">行为型模式</text></g></g><g id="minder_node26"><g id="node_expander22" display="none" style="cursor: pointer;"><path id="kity_path_469" fill="white" stroke="gray" d="M625.4999875864532,863.5000140434065A6,6,0,1,1,613.4999875864532,863.5000140434065A6,6,0,1,1,625.4999875864532,863.5000140434065"></path><path id="kity_path_470" fill="none" stroke="gray"></path></g><path id="node_outline23" fill="none" stroke="none" d="M630.4999871456794,852.5000140434065h72a5,5,0,0,1,5,5v12a5,5,0,0,1,-5,5h-72a5,5,0,0,1,-5,-5v-12a5,5,0,0,1,5,-5z"></path><g id="node_text23" fill="black"><text id="kity_text_223" text-rendering="inherit" font-size="12" dy=".8em" y="855.7000141122273" x="635.4999871456794">责任链模式</text></g></g><g id="minder_node27"><g id="node_expander23" display="none" style="cursor: pointer;"><path id="kity_path_472" fill="white" stroke="gray" d="M625.4999875864532,915.5000126108914A6,6,0,1,1,613.4999875864532,915.5000126108914A6,6,0,1,1,625.4999875864532,915.5000126108914"></path><path id="kity_path_473" fill="none" stroke="gray"></path></g><path id="node_outline24" fill="none" stroke="none" d="M630.4999871456794,904.5000126108914h60a5,5,0,0,1,5,5v12a5,5,0,0,1,-5,5h-60a5,5,0,0,1,-5,-5v-12a5,5,0,0,1,5,-5z"></path><g id="node_text24" fill="black"><text id="kity_text_225" text-rendering="inherit" font-size="12" dy=".8em" y="907.7000126797122" x="635.4999871456794">命令模式</text></g></g><g id="minder_node28"><g id="node_expander24" display="none" style="cursor: pointer;"><path id="kity_path_475" fill="white" stroke="gray" d="M625.4999875864532,967.5000111783763A6,6,0,1,1,613.4999875864532,967.5000111783763A6,6,0,1,1,625.4999875864532,967.5000111783763"></path><path id="kity_path_476" fill="none" stroke="gray"></path></g><path id="node_outline25" fill="none" stroke="none" d="M630.4999871456794,956.5000111783763h72a5,5,0,0,1,5,5v12a5,5,0,0,1,-5,5h-72a5,5,0,0,1,-5,-5v-12a5,5,0,0,1,5,-5z"></path><g id="node_text25" fill="black"><text id="kity_text_227" text-rendering="inherit" font-size="12" dy=".8em" y="959.7000112471972" x="635.4999871456794">解释器模式</text></g></g><g id="minder_node29"><g id="node_expander25" display="none" style="cursor: pointer;"><path id="kity_path_478" fill="white" stroke="gray" d="M625.4999875864532,1019.5000097458612A6,6,0,1,1,613.4999875864532,1019.5000097458612A6,6,0,1,1,625.4999875864532,1019.5000097458612"></path><path id="kity_path_479" fill="none" stroke="gray"></path></g><path id="node_outline26" fill="none" stroke="none" d="M630.4999871456794,1008.5000097458612h72a5,5,0,0,1,5,5v12a5,5,0,0,1,-5,5h-72a5,5,0,0,1,-5,-5v-12a5,5,0,0,1,5,-5z"></path><g id="node_text26" fill="black"><text id="kity_text_229" text-rendering="inherit" font-size="12" dy=".8em" y="1011.7000098146821" x="635.4999871456794">迭代器模式</text></g></g><g id="minder_node30"><g id="node_expander26" display="none" style="cursor: pointer;"><path id="kity_path_481" fill="white" stroke="gray" d="M625.4999875864532,1071.5000083133461A6,6,0,1,1,613.4999875864532,1071.5000083133461A6,6,0,1,1,625.4999875864532,1071.5000083133461"></path><path id="kity_path_482" fill="none" stroke="gray"></path></g><path id="node_outline27" fill="none" stroke="none" d="M630.4999871456794,1060.5000083133461h72a5,5,0,0,1,5,5v12a5,5,0,0,1,-5,5h-72a5,5,0,0,1,-5,-5v-12a5,5,0,0,1,5,-5z"></path><g id="node_text27" fill="black"><text id="kity_text_231" text-rendering="inherit" font-size="12" dy=".8em" y="1063.700008382167" x="635.4999871456794">观察者模式</text></g></g><g id="minder_node31"><g id="node_expander27" display="none" style="cursor: pointer;"><path id="kity_path_484" fill="white" stroke="gray" d="M625.4999875864532,1123.500006880831A6,6,0,1,1,613.4999875864532,1123.500006880831A6,6,0,1,1,625.4999875864532,1123.500006880831"></path><path id="kity_path_485" fill="none" stroke="gray"></path></g><path id="node_outline28" fill="none" stroke="none" d="M630.4999871456794,1112.500006880831h72a5,5,0,0,1,5,5v12a5,5,0,0,1,-5,5h-72a5,5,0,0,1,-5,-5v-12a5,5,0,0,1,5,-5z"></path><g id="node_text28" fill="black"><text id="kity_text_233" text-rendering="inherit" font-size="12" dy=".8em" y="1115.7000069496519" x="635.4999871456794">备忘录模式</text></g></g><g id="minder_node32"><g id="node_expander28" display="none" style="cursor: pointer;"><path id="kity_path_487" fill="white" stroke="gray" d="M625.4999875864532,1175.500005448316A6,6,0,1,1,613.4999875864532,1175.500005448316A6,6,0,1,1,625.4999875864532,1175.500005448316"></path><path id="kity_path_488" fill="none" stroke="gray"></path></g><path id="node_outline29" fill="none" stroke="none" d="M630.4999871456794,1164.500005448316h72a5,5,0,0,1,5,5v12a5,5,0,0,1,-5,5h-72a5,5,0,0,1,-5,-5v-12a5,5,0,0,1,5,-5z"></path><g id="node_text29" fill="black"><text id="kity_text_235" text-rendering="inherit" font-size="12" dy=".8em" y="1167.7000055171368" x="635.4999871456794">终结者模式</text></g></g><g id="minder_node33"><g id="node_expander29" display="none" style="cursor: pointer;"><path id="kity_path_490" fill="white" stroke="gray" d="M625.4999875864532,1227.5000040158009A6,6,0,1,1,613.4999875864532,1227.5000040158009A6,6,0,1,1,625.4999875864532,1227.5000040158009"></path><path id="kity_path_491" fill="none" stroke="gray"></path></g><path id="node_outline30" fill="none" stroke="none" d="M630.4999871456794,1216.5000040158009h60a5,5,0,0,1,5,5v12a5,5,0,0,1,-5,5h-60a5,5,0,0,1,-5,-5v-12a5,5,0,0,1,5,-5z"></path><g id="node_text30" fill="black"><text id="kity_text_237" text-rendering="inherit" font-size="12" dy=".8em" y="1219.7000040846217" x="635.4999871456794">状态模式</text></g></g><g id="minder_node34"><g id="node_expander30" display="none" style="cursor: pointer;"><path id="kity_path_493" fill="white" stroke="gray" d="M625.4999875864532,1279.5000025832858A6,6,0,1,1,613.4999875864532,1279.5000025832858A6,6,0,1,1,625.4999875864532,1279.5000025832858"></path><path id="kity_path_494" fill="none" stroke="gray"></path></g><path id="node_outline31" fill="none" stroke="none" d="M630.4999871456794,1268.5000025832858h60a5,5,0,0,1,5,5v12a5,5,0,0,1,-5,5h-60a5,5,0,0,1,-5,-5v-12a5,5,0,0,1,5,-5z"></path><g id="node_text31" fill="black"><text id="kity_text_239" text-rendering="inherit" font-size="12" dy=".8em" y="1271.7000026521066" x="635.4999871456794">策略模式</text></g></g><g id="minder_node35"><g id="node_expander31" display="none" style="cursor: pointer;"><path id="kity_path_496" fill="white" stroke="gray" d="M625.4999875864532,1331.5000011507707A6,6,0,1,1,613.4999875864532,1331.5000011507707A6,6,0,1,1,625.4999875864532,1331.5000011507707"></path><path id="kity_path_497" fill="none" stroke="gray"></path></g><path id="node_outline32" fill="none" stroke="none" d="M630.4999871456794,1320.5000011507707h84a5,5,0,0,1,5,5v12a5,5,0,0,1,-5,5h-84a5,5,0,0,1,-5,-5v-12a5,5,0,0,1,5,-5z"></path><g id="node_text32" fill="black"><text id="kity_text_241" text-rendering="inherit" font-size="12" dy=".8em" y="1323.7000012195915" x="635.4999871456794">模板方法模式</text></g></g><g id="minder_node36"><g id="node_expander32" display="none" style="cursor: pointer;"><path id="kity_path_499" fill="white" stroke="gray" d="M625.4999875864532,1383.4999997182556A6,6,0,1,1,613.4999875864532,1383.4999997182556A6,6,0,1,1,625.4999875864532,1383.4999997182556"></path><path id="kity_path_500" fill="none" stroke="gray"></path></g><path id="node_outline33" fill="none" stroke="none" d="M630.4999871456794,1372.4999997182556h71a5,5,0,0,1,5,5v12a5,5,0,0,1,-5,5h-71a5,5,0,0,1,-5,-5v-12a5,5,0,0,1,5,-5z"></path><g id="node_text33" fill="black"><text id="kity_text_243" text-rendering="inherit" font-size="12" dy=".8em" y="1375.6999997870764" x="635.4999871456794">访问者模式</text></g></g><g id="minder_node37"><g id="node_expander35" display="none" style="cursor: pointer;"><path id="kity_path_508" fill="white" stroke="gray" d="M394.49999395012605,1435.4999982857405A6,6,0,1,1,382.49999395012605,1435.4999982857405A6,6,0,1,1,394.49999395012605,1435.4999982857405"></path><path id="kity_path_509" fill="none" stroke="gray"></path></g><path id="node_outline36" fill="none" stroke="none" d="M399.4999935093522,1424.4999982857405h60a5,5,0,0,1,5,5v12a5,5,0,0,1,-5,5h-60a5,5,0,0,1,-5,-5v-12a5,5,0,0,1,5,-5z"></path><g id="node_text36" fill="black"><text id="kity_text_249" text-rendering="inherit" font-size="12" dy=".8em" y="1427.6999983545613" x="404.4999935093522">编程经验</text></g></g><g id="minder_node38"><g id="node_expander49" style="cursor: pointer;"><path id="kity_path_550" fill="white" stroke="gray" d="M284.4999978459659,1679.499991563939A6,6,0,1,1,272.4999978459659,1679.499991563939A6,6,0,1,1,284.4999978459659,1679.499991563939"></path><path id="kity_path_551" fill="none" stroke="gray" d="M273.9999978459659,1679.499991563939L282.9999978459659,1679.499991563939"></path></g><path id="node_outline50" fill="rgb(238, 243, 246)" stroke="rgb(115, 161, 191)" d="M288.49999623664047,1666.499991563939h63a3,3,0,0,1,3,3v20a3,3,0,0,1,-3,3h-63a3,3,0,0,1,-3,-3v-20a3,3,0,0,1,3,-3z" stroke-width="1"></path><g id="node_text50" fill="black"><text id="kity_text_277" text-rendering="inherit" font-size="14" dy=".8em" y="1670.3999918045113" x="305.49999623664047">基础</text></g></g><g id="minder_node39"><g id="node_expander37" display="none" style="cursor: pointer;"><path id="kity_path_514" fill="white" stroke="gray" d="M394.49999395012605,1497.4999965777417A6,6,0,1,1,382.49999395012605,1497.4999965777417A6,6,0,1,1,394.49999395012605,1497.4999965777417"></path><path id="kity_path_515" fill="none" stroke="gray"></path></g><path id="node_outline38" fill="none" stroke="none" d="M399.4999935093522,1486.4999965777417h60a5,5,0,0,1,5,5v12a5,5,0,0,1,-5,5h-60a5,5,0,0,1,-5,-5v-12a5,5,0,0,1,5,-5z"></path><g id="node_text38" fill="black"><text id="kity_text_253" text-rendering="inherit" font-size="12" dy=".8em" y="1489.6999966465626" x="404.4999935093522">命名规范</text></g></g><g id="minder_node40"><g id="node_expander38" display="none" style="cursor: pointer;"><path id="kity_path_517" fill="white" stroke="gray" d="M394.49999395012605,1549.4999951452266A6,6,0,1,1,382.49999395012605,1549.4999951452266A6,6,0,1,1,394.49999395012605,1549.4999951452266"></path><path id="kity_path_518" fill="none" stroke="gray"></path></g><path id="node_outline39" fill="none" stroke="none" d="M399.4999935093522,1538.4999951452266h36a5,5,0,0,1,5,5v12a5,5,0,0,1,-5,5h-36a5,5,0,0,1,-5,-5v-12a5,5,0,0,1,5,-5z"></path><g id="node_text39" fill="black"><text id="kity_text_255" text-rendering="inherit" font-size="12" dy=".8em" y="1541.6999952140475" x="404.4999935093522">注释</text></g></g><g id="minder_node41"><g id="node_expander44" style="cursor: pointer;"><path id="kity_path_535" fill="white" stroke="gray" d="M394.49999395012605,1666.4999919220677A6,6,0,1,1,382.49999395012605,1666.4999919220677A6,6,0,1,1,394.49999395012605,1666.4999919220677"></path><path id="kity_path_536" fill="none" stroke="gray" d="M383.99999395012605,1666.4999919220677L392.99999395012605,1666.4999919220677"></path></g><path id="node_outline45" fill="none" stroke="none" d="M399.4999935093522,1655.4999919220677h84a5,5,0,0,1,5,5v12a5,5,0,0,1,-5,5h-84a5,5,0,0,1,-5,-5v-12a5,5,0,0,1,5,-5z"></path><g id="node_text45" fill="black"><text id="kity_text_267" text-rendering="inherit" font-size="12" dy=".8em" y="1658.6999919908885" x="404.4999935093522">基本数据类型</text></g></g><g id="minder_node42"><g id="node_expander39" display="none" style="cursor: pointer;"><path id="kity_path_520" fill="white" stroke="gray" d="M528.4999902586449,1601.4999937127116A6,6,0,1,1,516.4999902586449,1601.4999937127116A6,6,0,1,1,528.4999902586449,1601.4999937127116"></path><path id="kity_path_521" fill="none" stroke="gray"></path></g><path id="node_outline40" fill="none" stroke="none" d="M533.499989817871,1590.4999937127116h47a5,5,0,0,1,5,5v12a5,5,0,0,1,-5,5h-47a5,5,0,0,1,-5,-5v-12a5,5,0,0,1,5,-5z"></path><g id="node_text40" fill="black"><text id="kity_text_257" text-rendering="inherit" font-size="12" dy=".8em" y="1593.6999937815324" x="538.499989817871">字面值</text></g></g><g id="minder_node43"><g id="node_expander40" display="none" style="cursor: pointer;"><path id="kity_path_523" fill="white" stroke="gray" d="M528.4999902586449,1653.4999922801965A6,6,0,1,1,516.4999902586449,1653.4999922801965A6,6,0,1,1,528.4999902586449,1653.4999922801965"></path><path id="kity_path_524" fill="none" stroke="gray"></path></g><path id="node_outline41" fill="none" stroke="none" d="M533.499989817871,1642.4999922801965h36a5,5,0,0,1,5,5v12a5,5,0,0,1,-5,5h-36a5,5,0,0,1,-5,-5v-12a5,5,0,0,1,5,-5z"></path><g id="node_text41" fill="black"><text id="kity_text_259" text-rendering="inherit" font-size="12" dy=".8em" y="1645.6999923490173" x="538.499989817871">值域</text></g></g><g id="minder_node44"><g id="node_expander43" style="cursor: pointer;"><path id="kity_path_532" fill="white" stroke="gray" d="M528.4999902586449,1731.4999901314238A6,6,0,1,1,516.4999902586449,1731.4999901314238A6,6,0,1,1,528.4999902586449,1731.4999901314238"></path><path id="kity_path_533" fill="none" stroke="gray" d="M517.9999902586449,1731.4999901314238L526.9999902586449,1731.4999901314238"></path></g><path id="node_outline44" fill="none" stroke="none" d="M533.499989817871,1720.4999901314238h60a5,5,0,0,1,5,5v12a5,5,0,0,1,-5,5h-60a5,5,0,0,1,-5,-5v-12a5,5,0,0,1,5,-5z"></path><g id="node_text44" fill="black"><text id="kity_text_265" text-rendering="inherit" font-size="12" dy=".8em" y="1723.6999902002447" x="538.499989817871">类型转换</text></g></g><g id="minder_node45"><g id="node_expander41" display="none" style="cursor: pointer;"><path id="kity_path_526" fill="white" stroke="gray" d="M638.4999872283245,1705.4999908476814A6,6,0,1,1,626.4999872283245,1705.4999908476814A6,6,0,1,1,638.4999872283245,1705.4999908476814"></path><path id="kity_path_527" fill="none" stroke="gray"></path></g><path id="node_outline42" fill="none" stroke="none" d="M643.4999867875506,1694.4999908476814h83a5,5,0,0,1,5,5v12a5,5,0,0,1,-5,5h-83a5,5,0,0,1,-5,-5v-12a5,5,0,0,1,5,-5z"></path><g id="node_text42" fill="black"><text id="kity_text_261" text-rendering="inherit" font-size="12" dy=".8em" y="1697.6999909165022" x="648.4999867875506">自动类型转换</text></g></g><g id="minder_node46"><g id="node_expander42" display="none" style="cursor: pointer;"><path id="kity_path_529" fill="white" stroke="gray" d="M638.4999872283245,1757.4999894151663A6,6,0,1,1,626.4999872283245,1757.4999894151663A6,6,0,1,1,638.4999872283245,1757.4999894151663"></path><path id="kity_path_530" fill="none" stroke="gray"></path></g><path id="node_outline43" fill="none" stroke="none" d="M643.4999867875506,1746.4999894151663h83a5,5,0,0,1,5,5v12a5,5,0,0,1,-5,5h-83a5,5,0,0,1,-5,-5v-12a5,5,0,0,1,5,-5z"></path><g id="node_text43" fill="black"><text id="kity_text_263" text-rendering="inherit" font-size="12" dy=".8em" y="1749.699989483987" x="648.4999867875506">强制类型转换</text></g></g><g id="minder_node47"><g id="node_expander48" style="cursor: pointer;"><path id="kity_path_547" fill="white" stroke="gray" d="M394.49999395012605,1861.499986550136A6,6,0,1,1,382.49999395012605,1861.499986550136A6,6,0,1,1,394.49999395012605,1861.499986550136"></path><path id="kity_path_548" fill="none" stroke="gray" d="M383.99999395012605,1861.499986550136L392.99999395012605,1861.499986550136"></path></g><path id="node_outline49" fill="none" stroke="none" d="M399.4999935093522,1850.499986550136h84a5,5,0,0,1,5,5v12a5,5,0,0,1,-5,5h-84a5,5,0,0,1,-5,-5v-12a5,5,0,0,1,5,-5z"></path><g id="node_text49" fill="black"><text id="kity_text_275" text-rendering="inherit" font-size="12" dy=".8em" y="1853.699986618957" x="404.4999935093522">复合数据类型</text></g></g><g id="minder_node48"><g id="node_expander45" display="none" style="cursor: pointer;"><path id="kity_path_538" fill="white" stroke="gray" d="M528.4999902586449,1809.4999879826512A6,6,0,1,1,516.4999902586449,1809.4999879826512A6,6,0,1,1,528.4999902586449,1809.4999879826512"></path><path id="kity_path_539" fill="none" stroke="gray"></path></g><path id="node_outline46" fill="none" stroke="none" d="M533.499989817871,1798.4999879826512h36a5,5,0,0,1,5,5v12a5,5,0,0,1,-5,5h-36a5,5,0,0,1,-5,-5v-12a5,5,0,0,1,5,-5z"></path><g id="node_text46" fill="black"><text id="kity_text_269" text-rendering="inherit" font-size="12" dy=".8em" y="1801.699988051472" x="538.499989817871">数组</text></g></g><g id="minder_node49"><g id="node_expander46" display="none" style="cursor: pointer;"><path id="kity_path_541" fill="white" stroke="gray" d="M528.4999902586449,1861.499986550136A6,6,0,1,1,516.4999902586449,1861.499986550136A6,6,0,1,1,528.4999902586449,1861.499986550136"></path><path id="kity_path_542" fill="none" stroke="gray"></path></g><path id="node_outline47" fill="none" stroke="none" d="M533.499989817871,1850.499986550136h36a5,5,0,0,1,5,5v12a5,5,0,0,1,-5,5h-36a5,5,0,0,1,-5,-5v-12a5,5,0,0,1,5,-5z"></path><g id="node_text47" fill="black"><text id="kity_text_271" text-rendering="inherit" font-size="12" dy=".8em" y="1853.699986618957" x="538.499989817871">枚举</text></g></g><g id="minder_node50"><g id="node_expander47" display="none" style="cursor: pointer;"><path id="kity_path_544" fill="white" stroke="gray" d="M528.4999902586449,1913.499985117621A6,6,0,1,1,516.4999902586449,1913.499985117621A6,6,0,1,1,528.4999902586449,1913.499985117621"></path><path id="kity_path_545" fill="none" stroke="gray"></path></g><path id="node_outline48" fill="none" stroke="none" d="M533.499989817871,1902.499985117621h36a5,5,0,0,1,5,5v12a5,5,0,0,1,-5,5h-36a5,5,0,0,1,-5,-5v-12a5,5,0,0,1,5,-5z"></path><g id="node_text48" fill="black"><text id="kity_text_273" text-rendering="inherit" font-size="12" dy=".8em" y="1905.6999851864418" x="538.499989817871">元组</text></g></g><g id="minder_node51"><g id="node_expander58" style="cursor: pointer;"><path id="kity_path_577" fill="white" stroke="gray" d="M284.4999978459659,2157.499978395819A6,6,0,1,1,272.4999978459659,2157.499978395819A6,6,0,1,1,284.4999978459659,2157.499978395819"></path><path id="kity_path_578" fill="none" stroke="gray" d="M273.9999978459659,2157.499978395819L282.9999978459659,2157.499978395819"></path></g><path id="node_outline59" fill="rgb(238, 243, 246)" stroke="rgb(115, 161, 191)" d="M288.49999623664047,2144.499978395819h63a3,3,0,0,1,3,3v20a3,3,0,0,1,-3,3h-63a3,3,0,0,1,-3,-3v-20a3,3,0,0,1,3,-3z" stroke-width="1"></path><g id="node_text59" fill="black"><text id="kity_text_295" text-rendering="inherit" font-size="14" dy=".8em" y="2148.3999786363916" x="305.49999623664047">语句</text></g></g><g id="minder_node52"><g id="node_expander53" style="cursor: pointer;"><path id="kity_path_562" fill="white" stroke="gray" d="M394.49999395012605,2027.4999819771072A6,6,0,1,1,382.49999395012605,2027.4999819771072A6,6,0,1,1,394.49999395012605,2027.4999819771072"></path><path id="kity_path_563" fill="none" stroke="gray" d="M383.99999395012605,2027.4999819771072L392.99999395012605,2027.4999819771072"></path></g><path id="node_outline54" fill="none" stroke="none" d="M399.4999935093522,2016.4999819771072h48a5,5,0,0,1,5,5v12a5,5,0,0,1,-5,5h-48a5,5,0,0,1,-5,-5v-12a5,5,0,0,1,5,-5z"></path><g id="node_text54" fill="black"><text id="kity_text_285" text-rendering="inherit" font-size="12" dy=".8em" y="2019.699982045928" x="404.4999935093522">表达式</text></g></g><g id="minder_node53"><g id="node_expander50" display="none" style="cursor: pointer;"><path id="kity_path_553" fill="white" stroke="gray" d="M492.4999912503861,1975.4999834096222A6,6,0,1,1,480.4999912503861,1975.4999834096222A6,6,0,1,1,492.4999912503861,1975.4999834096222"></path><path id="kity_path_554" fill="none" stroke="gray"></path></g><path id="node_outline51" fill="none" stroke="none" d="M497.4999908096122,1964.4999834096222h35a5,5,0,0,1,5,5v12a5,5,0,0,1,-5,5h-35a5,5,0,0,1,-5,-5v-12a5,5,0,0,1,5,-5z"></path><g id="node_text51" fill="black"><text id="kity_text_279" text-rendering="inherit" font-size="12" dy=".8em" y="1967.699983478443" x="502.4999908096122">声明</text></g></g><g id="minder_node54"><g id="node_expander51" display="none" style="cursor: pointer;"><path id="kity_path_556" fill="white" stroke="gray" d="M492.4999912503861,2027.4999819771072A6,6,0,1,1,480.4999912503861,2027.4999819771072A6,6,0,1,1,492.4999912503861,2027.4999819771072"></path><path id="kity_path_557" fill="none" stroke="gray"></path></g><path id="node_outline52" fill="none" stroke="none" d="M497.4999908096122,2016.4999819771072h36a5,5,0,0,1,5,5v12a5,5,0,0,1,-5,5h-36a5,5,0,0,1,-5,-5v-12a5,5,0,0,1,5,-5z"></path><g id="node_text52" fill="black"><text id="kity_text_281" text-rendering="inherit" font-size="12" dy=".8em" y="2019.699982045928" x="502.4999908096122">计算</text></g></g><g id="minder_node55"><g id="node_expander52" display="none" style="cursor: pointer;"><path id="kity_path_559" fill="white" stroke="gray" d="M492.4999912503861,2079.4999805445923A6,6,0,1,1,480.4999912503861,2079.4999805445923A6,6,0,1,1,492.4999912503861,2079.4999805445923"></path><path id="kity_path_560" fill="none" stroke="gray"></path></g><path id="node_outline53" fill="none" stroke="none" d="M497.4999908096122,2068.4999805445923h36a5,5,0,0,1,5,5v12a5,5,0,0,1,-5,5h-36a5,5,0,0,1,-5,-5v-12a5,5,0,0,1,5,-5z"></path><g id="node_text53" fill="black"><text id="kity_text_283" text-rendering="inherit" font-size="12" dy=".8em" y="2071.699980613413" x="502.4999908096122">赋值</text></g></g><g id="minder_node56"><g id="node_expander54" display="none" style="cursor: pointer;"><path id="kity_path_565" fill="white" stroke="gray" d="M394.49999395012605,2131.499979112077A6,6,0,1,1,382.49999395012605,2131.499979112077A6,6,0,1,1,394.49999395012605,2131.499979112077"></path><path id="kity_path_566" fill="none" stroke="gray"></path></g><path id="node_outline55" fill="none" stroke="none" d="M399.4999935093522,2120.499979112077h59a5,5,0,0,1,5,5v12a5,5,0,0,1,-5,5h-59a5,5,0,0,1,-5,-5v-12a5,5,0,0,1,5,-5z"></path><g id="node_text55" fill="black"><text id="kity_text_287" text-rendering="inherit" font-size="12" dy=".8em" y="2123.699979180898" x="404.4999935093522">顺序语句</text></g></g><g id="minder_node57"><g id="node_expander55" display="none" style="cursor: pointer;"><path id="kity_path_568" fill="white" stroke="gray" d="M394.49999395012605,2183.499977679562A6,6,0,1,1,382.49999395012605,2183.499977679562A6,6,0,1,1,394.49999395012605,2183.499977679562"></path><path id="kity_path_569" fill="none" stroke="gray"></path></g><path id="node_outline56" fill="none" stroke="none" d="M399.4999935093522,2172.499977679562h59a5,5,0,0,1,5,5v12a5,5,0,0,1,-5,5h-59a5,5,0,0,1,-5,-5v-12a5,5,0,0,1,5,-5z"></path><g id="node_text56" fill="black"><text id="kity_text_289" text-rendering="inherit" font-size="12" dy=".8em" y="2175.699977748383" x="404.4999935093522">分支语句</text></g></g><g id="minder_node58"><g id="node_expander56" display="none" style="cursor: pointer;"><path id="kity_path_571" fill="white" stroke="gray" d="M394.49999395012605,2235.499976247047A6,6,0,1,1,382.49999395012605,2235.499976247047A6,6,0,1,1,394.49999395012605,2235.499976247047"></path><path id="kity_path_572" fill="none" stroke="gray"></path></g><path id="node_outline57" fill="none" stroke="none" d="M399.4999935093522,2224.499976247047h59a5,5,0,0,1,5,5v12a5,5,0,0,1,-5,5h-59a5,5,0,0,1,-5,-5v-12a5,5,0,0,1,5,-5z"></path><g id="node_text57" fill="black"><text id="kity_text_291" text-rendering="inherit" font-size="12" dy=".8em" y="2227.699976315868" x="404.4999935093522">循环语句</text></g></g><g id="minder_node59"><g id="node_expander57" display="none" style="cursor: pointer;"><path id="kity_path_574" fill="white" stroke="gray" d="M394.49999395012605,2287.499974814532A6,6,0,1,1,382.49999395012605,2287.499974814532A6,6,0,1,1,394.49999395012605,2287.499974814532"></path><path id="kity_path_575" fill="none" stroke="gray"></path></g><path id="node_outline58" fill="none" stroke="none" d="M399.4999935093522,2276.499974814532h58a5,5,0,0,1,5,5v12a5,5,0,0,1,-5,5h-58a5,5,0,0,1,-5,-5v-12a5,5,0,0,1,5,-5z"></path><g id="node_text58" fill="black"><text id="kity_text_293" text-rendering="inherit" font-size="12" dy=".8em" y="2279.6999748833528" x="404.4999935093522">异常控制</text></g></g><g id="minder_node60"><g id="node_expander65" style="cursor: pointer;"><path id="kity_path_598" fill="white" stroke="gray" d="M284.4999978459659,2479.4999695252454A6,6,0,1,1,272.4999978459659,2479.4999695252454A6,6,0,1,1,284.4999978459659,2479.4999695252454"></path><path id="kity_path_599" fill="none" stroke="gray" d="M273.9999978459659,2479.4999695252454L282.9999978459659,2479.4999695252454"></path></g><path id="node_outline66" fill="rgb(238, 243, 246)" stroke="rgb(115, 161, 191)" d="M288.49999623664047,2466.4999695252454h63a3,3,0,0,1,3,3v20a3,3,0,0,1,-3,3h-63a3,3,0,0,1,-3,-3v-20a3,3,0,0,1,3,-3z" stroke-width="1"></path><g id="node_text66" fill="black"><text id="kity_text_309" text-rendering="inherit" font-size="14" dy=".8em" y="2470.399969765818" x="305.49999623664047">模块</text></g></g><g id="minder_node61"><g id="node_expander62" style="cursor: pointer;"><path id="kity_path_589" fill="white" stroke="gray" d="M394.49999395012605,2401.4999716740176A6,6,0,1,1,382.49999395012605,2401.4999716740176A6,6,0,1,1,394.49999395012605,2401.4999716740176"></path><path id="kity_path_590" fill="none" stroke="gray" d="M383.99999395012605,2401.4999716740176L392.99999395012605,2401.4999716740176"></path></g><path id="node_outline63" fill="none" stroke="none" d="M399.4999935093522,2390.4999716740176h59a5,5,0,0,1,5,5v12a5,5,0,0,1,-5,5h-59a5,5,0,0,1,-5,-5v-12a5,5,0,0,1,5,-5z"></path><g id="node_text63" fill="black"><text id="kity_text_303" text-rendering="inherit" font-size="12" dy=".8em" y="2393.6999717428384" x="404.4999935093522">命名空间</text></g></g><g id="minder_node62"><g id="node_expander59" display="none" style="cursor: pointer;"><path id="kity_path_580" fill="white" stroke="gray" d="M503.49999094735404,2349.4999731065327A6,6,0,1,1,491.49999094735404,2349.4999731065327A6,6,0,1,1,503.49999094735404,2349.4999731065327"></path><path id="kity_path_581" fill="none" stroke="gray"></path></g><path id="node_outline60" fill="none" stroke="none" d="M508.49999050658016,2338.4999731065327h58a5,5,0,0,1,5,5v12a5,5,0,0,1,-5,5h-58a5,5,0,0,1,-5,-5v-12a5,5,0,0,1,5,-5z"></path><g id="node_text60" fill="black"><text id="kity_text_297" text-rendering="inherit" font-size="12" dy=".8em" y="2341.6999731753535" x="513.4999905065802">组织模块</text></g></g><g id="minder_node63"><g id="node_expander60" display="none" style="cursor: pointer;"><path id="kity_path_583" fill="white" stroke="gray" d="M503.49999094735404,2401.4999716740176A6,6,0,1,1,491.49999094735404,2401.4999716740176A6,6,0,1,1,503.49999094735404,2401.4999716740176"></path><path id="kity_path_584" fill="none" stroke="gray"></path></g><path id="node_outline61" fill="none" stroke="none" d="M508.49999050658016,2390.4999716740176h60a5,5,0,0,1,5,5v12a5,5,0,0,1,-5,5h-60a5,5,0,0,1,-5,-5v-12a5,5,0,0,1,5,-5z"></path><g id="node_text61" fill="black"><text id="kity_text_299" text-rendering="inherit" font-size="12" dy=".8em" y="2393.6999717428384" x="513.4999905065802">导入名称</text></g></g><g id="minder_node64"><g id="node_expander61" display="none" style="cursor: pointer;"><path id="kity_path_586" fill="white" stroke="gray" d="M503.49999094735404,2453.4999702415025A6,6,0,1,1,491.49999094735404,2453.4999702415025A6,6,0,1,1,503.49999094735404,2453.4999702415025"></path><path id="kity_path_587" fill="none" stroke="gray"></path></g><path id="node_outline62" fill="none" stroke="none" d="M508.49999050658016,2442.4999702415025h60a5,5,0,0,1,5,5v12a5,5,0,0,1,-5,5h-60a5,5,0,0,1,-5,-5v-12a5,5,0,0,1,5,-5z"></path><g id="node_text62" fill="black"><text id="kity_text_301" text-rendering="inherit" font-size="12" dy=".8em" y="2445.6999703103234" x="513.4999905065802">导出名称</text></g></g><g id="minder_node65"><g id="node_expander63" display="none" style="cursor: pointer;"><path id="kity_path_592" fill="white" stroke="gray" d="M394.49999395012605,2505.4999688089874A6,6,0,1,1,382.49999395012605,2505.4999688089874A6,6,0,1,1,394.49999395012605,2505.4999688089874"></path><path id="kity_path_593" fill="none" stroke="gray"></path></g><path id="node_outline64" fill="none" stroke="none" d="M399.4999935093522,2494.4999688089874h35a5,5,0,0,1,5,5v12a5,5,0,0,1,-5,5h-35a5,5,0,0,1,-5,-5v-12a5,5,0,0,1,5,-5z"></path><g id="node_text64" fill="black"><text id="kity_text_305" text-rendering="inherit" font-size="12" dy=".8em" y="2497.6999688778083" x="404.4999935093522">函数</text></g></g><g id="minder_node66"><g id="node_expander64" display="none" style="cursor: pointer;"><path id="kity_path_595" fill="white" stroke="gray" d="M394.49999395012605,2557.4999673764723A6,6,0,1,1,382.49999395012605,2557.4999673764723A6,6,0,1,1,394.49999395012605,2557.4999673764723"></path><path id="kity_path_596" fill="none" stroke="gray"></path></g><path id="node_outline65" fill="none" stroke="none" d="M399.4999935093522,2546.4999673764723h24a5,5,0,0,1,5,5v12a5,5,0,0,1,-5,5h-24a5,5,0,0,1,-5,-5v-12a5,5,0,0,1,5,-5z"></path><g id="node_text65" fill="black"><text id="kity_text_307" text-rendering="inherit" font-size="12" dy=".8em" y="2549.699967445293" x="404.4999935093522">类</text></g></g><g id="minder_node67"><g id="node_expander69" style="cursor: pointer;"><path id="kity_path_610" fill="white" stroke="gray" d="M284.4999978459659,2671.499964235959A6,6,0,1,1,272.4999978459659,2671.499964235959A6,6,0,1,1,284.4999978459659,2671.499964235959"></path><path id="kity_path_611" fill="none" stroke="gray" d="M273.9999978459659,2671.499964235959L282.9999978459659,2671.499964235959"></path></g><path id="node_outline70" fill="rgb(238, 243, 246)" stroke="rgb(115, 161, 191)" d="M288.49999623664047,2658.499964235959h62a3,3,0,0,1,3,3v20a3,3,0,0,1,-3,3h-62a3,3,0,0,1,-3,-3v-20a3,3,0,0,1,3,-3z" stroke-width="1"></path><g id="node_text70" fill="black"><text id="kity_text_317" text-rendering="inherit" font-size="14" dy=".8em" y="2662.3999644765313" x="305.49999623664047">工具</text></g></g><g id="minder_node68"><g id="node_expander66" display="none" style="cursor: pointer;"><path id="kity_path_601" fill="white" stroke="gray" d="M393.49999397767436,2619.499965668474A6,6,0,1,1,381.49999397767436,2619.499965668474A6,6,0,1,1,393.49999397767436,2619.499965668474"></path><path id="kity_path_602" fill="none" stroke="gray"></path></g><path id="node_outline67" fill="none" stroke="none" d="M398.4999935369005,2608.499965668474h84a5,5,0,0,1,5,5v12a5,5,0,0,1,-5,5h-84a5,5,0,0,1,-5,-5v-12a5,5,0,0,1,5,-5z"></path><g id="node_text67" fill="black"><text id="kity_text_311" text-rendering="inherit" font-size="12" dy=".8em" y="2611.699965737295" x="403.4999935369005">输入输出工具</text></g></g><g id="minder_node69"><g id="node_expander67" display="none" style="cursor: pointer;"><path id="kity_path_604" fill="white" stroke="gray" d="M393.49999397767436,2671.499964235959A6,6,0,1,1,381.49999397767436,2671.499964235959A6,6,0,1,1,393.49999397767436,2671.499964235959"></path><path id="kity_path_605" fill="none" stroke="gray"></path></g><path id="node_outline68" fill="none" stroke="none" d="M398.4999935369005,2660.499964235959h71a5,5,0,0,1,5,5v12a5,5,0,0,1,-5,5h-71a5,5,0,0,1,-5,-5v-12a5,5,0,0,1,5,-5z"></path><g id="node_text68" fill="black"><text id="kity_text_313" text-rendering="inherit" font-size="12" dy=".8em" y="2663.6999643047798" x="403.4999935369005">字符串工具</text></g></g><g id="minder_node70"><g id="node_expander68" display="none" style="cursor: pointer;"><path id="kity_path_607" fill="white" stroke="gray" d="M393.49999397767436,2723.499962803444A6,6,0,1,1,381.49999397767436,2723.499962803444A6,6,0,1,1,393.49999397767436,2723.499962803444"></path><path id="kity_path_608" fill="none" stroke="gray"></path></g><path id="node_outline69" fill="none" stroke="none" d="M398.4999935369005,2712.499962803444h59a5,5,0,0,1,5,5v12a5,5,0,0,1,-5,5h-59a5,5,0,0,1,-5,-5v-12a5,5,0,0,1,5,-5z"></path><g id="node_text69" fill="black"><text id="kity_text_315" text-rendering="inherit" font-size="12" dy=".8em" y="2715.6999628722647" x="403.4999935369005">数据结构</text></g></g><g id="minder_node71"><g id="node_expander75" style="cursor: pointer;"><path id="kity_path_628" fill="white" stroke="gray" d="M284.4999978459659,2863.4999589466725A6,6,0,1,1,272.4999978459659,2863.4999589466725A6,6,0,1,1,284.4999978459659,2863.4999589466725"></path><path id="kity_path_629" fill="none" stroke="gray" d="M273.9999978459659,2863.4999589466725L282.9999978459659,2863.4999589466725"></path></g><path id="node_outline76" fill="rgb(238, 243, 246)" stroke="rgb(115, 161, 191)" d="M288.49999623664047,2850.4999589466725h63a3,3,0,0,1,3,3v20a3,3,0,0,1,-3,3h-63a3,3,0,0,1,-3,-3v-20a3,3,0,0,1,3,-3z" stroke-width="1"></path><g id="node_text76" fill="black"><text id="kity_text_329" text-rendering="inherit" font-size="14" dy=".8em" y="2854.399959187245" x="305.49999623664047">类库</text></g></g><g id="minder_node72"><g id="node_expander71" style="cursor: pointer;"><path id="kity_path_616" fill="white" stroke="gray" d="M394.49999395012605,2785.4999610954446A6,6,0,1,1,382.49999395012605,2785.4999610954446A6,6,0,1,1,394.49999395012605,2785.4999610954446"></path><path id="kity_path_617" fill="none" stroke="gray" d="M383.99999395012605,2785.4999610954446L392.99999395012605,2785.4999610954446"></path></g><path id="node_outline72" fill="none" stroke="none" d="M399.4999935093522,2774.4999610954446h35a5,5,0,0,1,5,5v12a5,5,0,0,1,-5,5h-35a5,5,0,0,1,-5,-5v-12a5,5,0,0,1,5,-5z"></path><g id="node_text72" fill="black"><text id="kity_text_321" text-rendering="inherit" font-size="12" dy=".8em" y="2777.6999611642655" x="404.4999935093522">数学</text></g></g><g id="minder_node73"><g id="node_expander70" display="none" style="cursor: pointer;"><path id="kity_path_613" fill="white" stroke="gray" d="M479.49999160851485,2785.4999610954446A6,6,0,1,1,467.49999160851485,2785.4999610954446A6,6,0,1,1,479.49999160851485,2785.4999610954446"></path><path id="kity_path_614" fill="none" stroke="gray"></path></g><path id="node_outline71" fill="none" stroke="none" d="M484.499991167741,2774.4999610954446h71a5,5,0,0,1,5,5v12a5,5,0,0,1,-5,5h-71a5,5,0,0,1,-5,-5v-12a5,5,0,0,1,5,-5z"></path><g id="node_text71" fill="black"><text id="kity_text_319" text-rendering="inherit" font-size="12" dy=".8em" y="2777.6999611642655" x="489.499991167741">高精度运算</text></g></g><g id="minder_node74"><g id="node_expander72" display="none" style="cursor: pointer;"><path id="kity_path_619" fill="white" stroke="gray" d="M394.49999395012605,2837.4999596629295A6,6,0,1,1,382.49999395012605,2837.4999596629295A6,6,0,1,1,394.49999395012605,2837.4999596629295"></path><path id="kity_path_620" fill="none" stroke="gray"></path></g><path id="node_outline73" fill="none" stroke="none" d="M399.4999935093522,2826.4999596629295h70a5,5,0,0,1,5,5v12a5,5,0,0,1,-5,5h-70a5,5,0,0,1,-5,-5v-12a5,5,0,0,1,5,-5z"></path><g id="node_text73" fill="black"><text id="kity_text_323" text-rendering="inherit" font-size="12" dy=".8em" y="2829.6999597317504" x="404.4999935093522">日期和时间</text></g></g><g id="minder_node75"><g id="node_expander73" display="none" style="cursor: pointer;"><path id="kity_path_622" fill="white" stroke="gray" d="M394.49999395012605,2889.4999582304144A6,6,0,1,1,382.49999395012605,2889.4999582304144A6,6,0,1,1,394.49999395012605,2889.4999582304144"></path><path id="kity_path_623" fill="none" stroke="gray"></path></g><path id="node_outline74" fill="none" stroke="none" d="M399.4999935093522,2878.4999582304144h36a5,5,0,0,1,5,5v12a5,5,0,0,1,-5,5h-36a5,5,0,0,1,-5,-5v-12a5,5,0,0,1,5,-5z"></path><g id="node_text74" fill="black"><text id="kity_text_325" text-rendering="inherit" font-size="12" dy=".8em" y="2881.6999582992353" x="404.4999935093522">文件</text></g></g><g id="minder_node76"><g id="node_expander74" display="none" style="cursor: pointer;"><path id="kity_path_625" fill="white" stroke="gray" d="M394.49999395012605,2941.4999567978994A6,6,0,1,1,382.49999395012605,2941.4999567978994A6,6,0,1,1,394.49999395012605,2941.4999567978994"></path><path id="kity_path_626" fill="none" stroke="gray"></path></g><path id="node_outline75" fill="none" stroke="none" d="M399.4999935093522,2930.4999567978994h35a5,5,0,0,1,5,5v12a5,5,0,0,1,-5,5h-35a5,5,0,0,1,-5,-5v-12a5,5,0,0,1,5,-5z"></path><g id="node_text75" fill="black"><text id="kity_text_327" text-rendering="inherit" font-size="12" dy=".8em" y="2933.69995686672" x="404.4999935093522">网络</text></g></g></g></g></svg>