<svg id="kity_svg_6" xmlns="http://www.w3.org/2000/svg" xmlns:xlink="http://www.w3.org/1999/xlink" version="1.1" width="720" height="1818" style="background: rgb(251, 251, 251); visibility: visible;" viewBox="0 0 720 1818"><defs id="kity_defs_7"><linearGradient id="kity_linearGradient_17" x1="0" y1="0" x2="0" y2="1"><stop id="kity_stop_18" offset="0" stop-color="rgb(255, 255, 255)"></stop><stop id="kity_stop_19" offset="1" stop-color="rgb(204, 204, 204)"></stop></linearGradient><marker id="kity_marker_2" orient="auto" refX="6" refY="0" viewBox="-7 -7 14 14" markerWidth="7" markerHeight="7" markerUnits="userSpaceOnUse"><path id="kity_path_3" fill="rgb(115, 161, 191)" stroke="none" d="M6,0A6,6,0,1,1,-6,0A6,6,0,1,1,6,0"></path></marker></defs><g id="kity_g_8"><g id="minder1" text-rendering="optimize-speed"><g id="minder_connect_group1"><path id="kity_path_31" fill="none" stroke="rgb(115, 161, 191)" stroke-width="1" d="M77,987.5A174.5,722,0,0,1,251.5,265.5"></path><path id="kity_path_33" fill="none" stroke="rgb(115, 161, 191)" stroke-width="1" d="M322.5,265.5C342.5,265.5,342.5,31.5,362.5,31.5"></path><path id="kity_path_35" fill="none" stroke="rgb(115, 161, 191)" stroke-width="1" d="M322.5,265.5C342.5,265.5,342.5,135.5,362.5,135.5"></path><path id="kity_path_37" fill="none" stroke="rgb(115, 161, 191)" stroke-width="1" d="M408.5,135.5C428.5,135.5,428.5,83.5,448.5,83.5"></path><path id="kity_path_39" fill="none" stroke="rgb(115, 161, 191)" stroke-width="1" d="M408.5,135.5C428.5,135.5,428.5,135.5,448.5,135.5"></path><path id="kity_path_41" fill="none" stroke="rgb(115, 161, 191)" stroke-width="1" d="M408.5,135.5C428.5,135.5,428.5,187.5,448.5,187.5"></path><path id="kity_path_43" fill="none" stroke="rgb(115, 161, 191)" stroke-width="1" d="M322.5,265.5C342.5,265.5,342.5,304.5,362.5,304.5"></path><path id="kity_path_45" fill="none" stroke="rgb(115, 161, 191)" stroke-width="1" d="M456.5,304.5C476.5,304.5,476.5,239.5,496.5,239.5"></path><path id="kity_path_47" fill="none" stroke="rgb(115, 161, 191)" stroke-width="1" d="M456.5,304.5C476.5,304.5,476.5,291.5,496.5,291.5"></path><path id="kity_path_49" fill="none" stroke="rgb(115, 161, 191)" stroke-width="1" d="M456.5,304.5C476.5,304.5,476.5,369.5,496.5,369.5"></path><path id="kity_path_51" fill="none" stroke="rgb(115, 161, 191)" stroke-width="1" d="M566.5,369.5C586.5,369.5,586.5,343.5,606.5,343.5"></path><path id="kity_path_53" fill="none" stroke="rgb(115, 161, 191)" stroke-width="1" d="M566.5,369.5C586.5,369.5,586.5,395.5,606.5,395.5"></path><path id="kity_path_55" fill="none" stroke="rgb(115, 161, 191)" stroke-width="1" d="M322.5,265.5C342.5,265.5,342.5,499.5,362.5,499.5"></path><path id="kity_path_57" fill="none" stroke="rgb(115, 161, 191)" stroke-width="1" d="M456.5,499.5C476.5,499.5,476.5,447.5,496.5,447.5"></path><path id="kity_path_59" fill="none" stroke="rgb(115, 161, 191)" stroke-width="1" d="M456.5,499.5C476.5,499.5,476.5,499.5,496.5,499.5"></path><path id="kity_path_61" fill="none" stroke="rgb(115, 161, 191)" stroke-width="1" d="M456.5,499.5C476.5,499.5,476.5,551.5,496.5,551.5"></path><path id="kity_path_63" fill="none" stroke="rgb(115, 161, 191)" stroke-width="1" d="M77,987.5A174.5,231,0,0,1,251.5,756.5"></path><path id="kity_path_65" fill="none" stroke="rgb(115, 161, 191)" stroke-width="1" d="M322.5,756.5C342.5,756.5,342.5,639.5,362.5,639.5"></path><path id="kity_path_67" fill="none" stroke="rgb(115, 161, 191)" stroke-width="1" d="M420.5,639.5C440.5,639.5,440.5,613.5,460.5,613.5"></path><path id="kity_path_69" fill="none" stroke="rgb(115, 161, 191)" stroke-width="1" d="M420.5,639.5C440.5,639.5,440.5,665.5,460.5,665.5"></path><path id="kity_path_71" fill="none" stroke="rgb(115, 161, 191)" stroke-width="1" d="M322.5,756.5C342.5,756.5,342.5,717.5,362.5,717.5"></path><path id="kity_path_73" fill="none" stroke="rgb(115, 161, 191)" stroke-width="1" d="M322.5,756.5C342.5,756.5,342.5,769.5,362.5,769.5"></path><path id="kity_path_75" fill="none" stroke="rgb(115, 161, 191)" stroke-width="1" d="M322.5,756.5C342.5,756.5,342.5,821.5,362.5,821.5"></path><path id="kity_path_77" fill="none" stroke="rgb(115, 161, 191)" stroke-width="1" d="M322.5,756.5C342.5,756.5,342.5,873.5,362.5,873.5"></path><path id="kity_path_79" fill="none" stroke="rgb(115, 161, 191)" stroke-width="1" d="M77,987.5A174.5,26,0,0,0,251.5,1013.5"></path><path id="kity_path_81" fill="none" stroke="rgb(115, 161, 191)" stroke-width="1" d="M322.5,1013.5C342.5,1013.5,342.5,935.5,362.5,935.5"></path><path id="kity_path_83" fill="none" stroke="rgb(115, 161, 191)" stroke-width="1" d="M322.5,1013.5C342.5,1013.5,342.5,987.5,362.5,987.5"></path><path id="kity_path_85" fill="none" stroke="rgb(115, 161, 191)" stroke-width="1" d="M322.5,1013.5C342.5,1013.5,342.5,1091.5,362.5,1091.5"></path><path id="kity_path_87" fill="none" stroke="rgb(115, 161, 191)" stroke-width="1" d="M431.5,1091.5C451.5,1091.5,451.5,1039.5,471.5,1039.5"></path><path id="kity_path_89" fill="none" stroke="rgb(115, 161, 191)" stroke-width="1" d="M431.5,1091.5C451.5,1091.5,451.5,1091.5,471.5,1091.5"></path><path id="kity_path_91" fill="none" stroke="rgb(115, 161, 191)" stroke-width="1" d="M431.5,1091.5C451.5,1091.5,451.5,1143.5,471.5,1143.5"></path><path id="kity_path_93" fill="none" stroke="rgb(115, 161, 191)" stroke-width="1" d="M77,987.5A174.5,400,0,0,0,251.5,1387.5"></path><path id="kity_path_95" fill="none" stroke="rgb(115, 161, 191)" stroke-width="1" d="M322.5,1387.5C342.5,1387.5,342.5,1205.5,362.5,1205.5"></path><path id="kity_path_97" fill="none" stroke="rgb(115, 161, 191)" stroke-width="1" d="M322.5,1387.5C342.5,1387.5,342.5,1257.5,362.5,1257.5"></path><path id="kity_path_99" fill="none" stroke="rgb(115, 161, 191)" stroke-width="1" d="M322.5,1387.5C342.5,1387.5,342.5,1309.5,362.5,1309.5"></path><path id="kity_path_101" fill="none" stroke="rgb(115, 161, 191)" stroke-width="1" d="M322.5,1387.5C342.5,1387.5,342.5,1361.5,362.5,1361.5"></path><path id="kity_path_103" fill="none" stroke="rgb(115, 161, 191)" stroke-width="1" d="M322.5,1387.5C342.5,1387.5,342.5,1465.5,362.5,1465.5"></path><path id="kity_path_105" fill="none" stroke="rgb(115, 161, 191)" stroke-width="1" d="M455.5,1465.5C475.5,1465.5,475.5,1413.5,495.5,1413.5"></path><path id="kity_path_107" fill="none" stroke="rgb(115, 161, 191)" stroke-width="1" d="M455.5,1465.5C475.5,1465.5,475.5,1465.5,495.5,1465.5"></path><path id="kity_path_109" fill="none" stroke="rgb(115, 161, 191)" stroke-width="1" d="M455.5,1465.5C475.5,1465.5,475.5,1517.5,495.5,1517.5"></path><path id="kity_path_111" fill="none" stroke="rgb(115, 161, 191)" stroke-width="1" d="M322.5,1387.5C342.5,1387.5,342.5,1569.5,362.5,1569.5"></path><path id="kity_path_113" fill="none" stroke="rgb(115, 161, 191)" stroke-width="1" d="M77,987.5A174.5,722,0,0,0,251.5,1709.5"></path><path id="kity_path_115" fill="none" stroke="rgb(115, 161, 191)" stroke-width="1" d="M322.5,1709.5C342.5,1709.5,342.5,1631.5,362.5,1631.5"></path><path id="kity_path_117" fill="none" stroke="rgb(115, 161, 191)" stroke-width="1" d="M407.5,1631.5C427.5,1631.5,427.5,1631.5,447.5,1631.5"></path><path id="kity_path_119" fill="none" stroke="rgb(115, 161, 191)" stroke-width="1" d="M322.5,1709.5C342.5,1709.5,342.5,1683.5,362.5,1683.5"></path><path id="kity_path_121" fill="none" stroke="rgb(115, 161, 191)" stroke-width="1" d="M322.5,1709.5C342.5,1709.5,342.5,1735.5,362.5,1735.5"></path><path id="kity_path_123" fill="none" stroke="rgb(115, 161, 191)" stroke-width="1" d="M322.5,1709.5C342.5,1709.5,342.5,1787.5,362.5,1787.5"></path></g><g id="minder_node1"><path id="node_outline1" fill="rgb(115, 161, 191)" stroke="rgb(57, 80, 96)" d="M25.5,967.5h103a5,5,0,0,1,5,5v30a5,5,0,0,1,-5,5h-103a5,5,0,0,1,-5,-5v-30a5,5,0,0,1,5,-5z" stroke-width="3"></path><g id="node_text1" fill="white"><text id="kity_text_22" text-rendering="inherit" font-size="16" dy=".8em" y="977.0999999046326" x="44.5">编程语言</text></g></g><g id="kity_g_12"><path id="kity_path_13" fill="none" stroke="none" d="M44.5,987.5h0v0h0z"></path></g><g id="kity_g_14"><path id="kity_path_15" fill="none" stroke="none" d="M44.5,987.5h0v0h0z"></path><path id="kity_path_16" fill="none" stroke="none"></path></g><g id="minder_node2"><g id="node_expander16" style="cursor: pointer;"><path id="kity_path_311" fill="white" stroke="gray" d="M252.5,265.5A6,6,0,1,1,240.5,265.5A6,6,0,1,1,252.5,265.5"></path><path id="kity_path_312" fill="none" stroke="gray" d="M242,265.5L251,265.5"></path></g><path id="node_outline17" fill="rgb(238, 243, 246)" stroke="rgb(115, 161, 191)" d="M256.5,252.5h63a3,3,0,0,1,3,3v20a3,3,0,0,1,-3,3h-63a3,3,0,0,1,-3,-3v-20a3,3,0,0,1,3,-3z" stroke-width="1"></path><g id="node_text17" fill="black"><text id="kity_text_155" text-rendering="inherit" font-size="14" dy=".8em" y="256.40000009536743" x="273.5">基础</text></g></g><g id="minder_node3"><g id="node_expander1" display="none" style="cursor: pointer;"><path id="kity_path_266" fill="white" stroke="gray" d="M362.5,31.5A6,6,0,1,1,350.5,31.5A6,6,0,1,1,362.5,31.5"></path><path id="kity_path_267" fill="none" stroke="gray"></path></g><path id="node_outline2" fill="none" stroke="none" d="M367.5,20.5h36a5,5,0,0,1,5,5v12a5,5,0,0,1,-5,5h-36a5,5,0,0,1,-5,-5v-12a5,5,0,0,1,5,-5z"></path><g id="node_text2" fill="black"><text id="kity_text_125" text-rendering="inherit" font-size="12" dy=".8em" y="23.700000047683716" x="372.5">注释</text></g></g><g id="minder_node4"><g id="node_expander5" style="cursor: pointer;"><path id="kity_path_278" fill="white" stroke="gray" d="M362.5,135.5A6,6,0,1,1,350.5,135.5A6,6,0,1,1,362.5,135.5"></path><path id="kity_path_279" fill="none" stroke="gray" d="M352,135.5L361,135.5"></path></g><path id="node_outline6" fill="none" stroke="none" d="M367.5,124.5h36a5,5,0,0,1,5,5v12a5,5,0,0,1,-5,5h-36a5,5,0,0,1,-5,-5v-12a5,5,0,0,1,5,-5z"></path><g id="node_text6" fill="black"><text id="kity_text_133" text-rendering="inherit" font-size="12" dy=".8em" y="127.70000004768372" x="372.5">变量</text></g></g><g id="minder_node5"><g id="node_expander2" display="none" style="cursor: pointer;"><path id="kity_path_269" fill="white" stroke="gray" d="M448.5,83.5A6,6,0,1,1,436.5,83.5A6,6,0,1,1,448.5,83.5"></path><path id="kity_path_270" fill="none" stroke="gray"></path></g><path id="node_outline3" fill="none" stroke="none" d="M453.5,72.5h35a5,5,0,0,1,5,5v12a5,5,0,0,1,-5,5h-35a5,5,0,0,1,-5,-5v-12a5,5,0,0,1,5,-5z"></path><g id="node_text3" fill="black"><text id="kity_text_127" text-rendering="inherit" font-size="12" dy=".8em" y="75.70000004768372" x="458.5">声明</text></g></g><g id="minder_node6"><g id="node_expander3" display="none" style="cursor: pointer;"><path id="kity_path_272" fill="white" stroke="gray" d="M448.5,135.5A6,6,0,1,1,436.5,135.5A6,6,0,1,1,448.5,135.5"></path><path id="kity_path_273" fill="none" stroke="gray"></path></g><path id="node_outline4" fill="none" stroke="none" d="M453.5,124.5h34a5,5,0,0,1,5,5v12a5,5,0,0,1,-5,5h-34a5,5,0,0,1,-5,-5v-12a5,5,0,0,1,5,-5z"></path><g id="node_text4" fill="black"><text id="kity_text_129" text-rendering="inherit" font-size="12" dy=".8em" y="127.70000004768372" x="458.5">引用</text></g></g><g id="minder_node7"><g id="node_expander4" display="none" style="cursor: pointer;"><path id="kity_path_275" fill="white" stroke="gray" d="M448.5,187.5A6,6,0,1,1,436.5,187.5A6,6,0,1,1,448.5,187.5"></path><path id="kity_path_276" fill="none" stroke="gray"></path></g><path id="node_outline5" fill="none" stroke="none" d="M453.5,176.5h60a5,5,0,0,1,5,5v12a5,5,0,0,1,-5,5h-60a5,5,0,0,1,-5,-5v-12a5,5,0,0,1,5,-5z"></path><g id="node_text5" fill="black"><text id="kity_text_131" text-rendering="inherit" font-size="12" dy=".8em" y="179.70000004768372" x="458.5">命名规范</text></g></g><g id="minder_node8"><g id="node_expander11" style="cursor: pointer;"><path id="kity_path_296" fill="white" stroke="gray" d="M362.5,304.5A6,6,0,1,1,350.5,304.5A6,6,0,1,1,362.5,304.5"></path><path id="kity_path_297" fill="none" stroke="gray" d="M352,304.5L361,304.5"></path></g><path id="node_outline12" fill="none" stroke="none" d="M367.5,293.5h84a5,5,0,0,1,5,5v12a5,5,0,0,1,-5,5h-84a5,5,0,0,1,-5,-5v-12a5,5,0,0,1,5,-5z"></path><g id="node_text12" fill="black"><text id="kity_text_145" text-rendering="inherit" font-size="12" dy=".8em" y="296.7000000476837" x="372.5">基本数据类型</text></g></g><g id="minder_node9"><g id="node_expander6" display="none" style="cursor: pointer;"><path id="kity_path_281" fill="white" stroke="gray" d="M496.5,239.5A6,6,0,1,1,484.5,239.5A6,6,0,1,1,496.5,239.5"></path><path id="kity_path_282" fill="none" stroke="gray"></path></g><path id="node_outline7" fill="none" stroke="none" d="M501.5,228.5h48a5,5,0,0,1,5,5v12a5,5,0,0,1,-5,5h-48a5,5,0,0,1,-5,-5v-12a5,5,0,0,1,5,-5z"></path><g id="node_text7" fill="black"><text id="kity_text_135" text-rendering="inherit" font-size="12" dy=".8em" y="231.70000004768372" x="506.5">字面值</text></g></g><g id="minder_node10"><g id="node_expander7" display="none" style="cursor: pointer;"><path id="kity_path_284" fill="white" stroke="gray" d="M496.5,291.5A6,6,0,1,1,484.5,291.5A6,6,0,1,1,496.5,291.5"></path><path id="kity_path_285" fill="none" stroke="gray"></path></g><path id="node_outline8" fill="none" stroke="none" d="M501.5,280.5h36a5,5,0,0,1,5,5v12a5,5,0,0,1,-5,5h-36a5,5,0,0,1,-5,-5v-12a5,5,0,0,1,5,-5z"></path><g id="node_text8" fill="black"><text id="kity_text_137" text-rendering="inherit" font-size="12" dy=".8em" y="283.7000000476837" x="506.5">值域</text></g></g><g id="minder_node11"><g id="node_expander10" style="cursor: pointer;"><path id="kity_path_293" fill="white" stroke="gray" d="M496.5,369.5A6,6,0,1,1,484.5,369.5A6,6,0,1,1,496.5,369.5"></path><path id="kity_path_294" fill="none" stroke="gray" d="M486,369.5L495,369.5"></path></g><path id="node_outline11" fill="none" stroke="none" d="M501.5,358.5h60a5,5,0,0,1,5,5v12a5,5,0,0,1,-5,5h-60a5,5,0,0,1,-5,-5v-12a5,5,0,0,1,5,-5z"></path><g id="node_text11" fill="black"><text id="kity_text_143" text-rendering="inherit" font-size="12" dy=".8em" y="361.7000000476837" x="506.5">类型转换</text></g></g><g id="minder_node12"><g id="node_expander8" display="none" style="cursor: pointer;"><path id="kity_path_287" fill="white" stroke="gray" d="M606.5,343.5A6,6,0,1,1,594.5,343.5A6,6,0,1,1,606.5,343.5"></path><path id="kity_path_288" fill="none" stroke="gray"></path></g><path id="node_outline9" fill="none" stroke="none" d="M611.5,332.5h83a5,5,0,0,1,5,5v12a5,5,0,0,1,-5,5h-83a5,5,0,0,1,-5,-5v-12a5,5,0,0,1,5,-5z"></path><g id="node_text9" fill="black"><text id="kity_text_139" text-rendering="inherit" font-size="12" dy=".8em" y="335.7000000476837" x="616.5">自动类型转换</text></g></g><g id="minder_node13"><g id="node_expander9" display="none" style="cursor: pointer;"><path id="kity_path_290" fill="white" stroke="gray" d="M606.5,395.5A6,6,0,1,1,594.5,395.5A6,6,0,1,1,606.5,395.5"></path><path id="kity_path_291" fill="none" stroke="gray"></path></g><path id="node_outline10" fill="none" stroke="none" d="M611.5,384.5h84a5,5,0,0,1,5,5v12a5,5,0,0,1,-5,5h-84a5,5,0,0,1,-5,-5v-12a5,5,0,0,1,5,-5z"></path><g id="node_text10" fill="black"><text id="kity_text_141" text-rendering="inherit" font-size="12" dy=".8em" y="387.7000000476837" x="616.5">强制类型转换</text></g></g><g id="minder_node14"><g id="node_expander15" style="cursor: pointer;"><path id="kity_path_308" fill="white" stroke="gray" d="M362.5,499.5A6,6,0,1,1,350.5,499.5A6,6,0,1,1,362.5,499.5"></path><path id="kity_path_309" fill="none" stroke="gray" d="M352,499.5L361,499.5"></path></g><path id="node_outline16" fill="none" stroke="none" d="M367.5,488.5h84a5,5,0,0,1,5,5v12a5,5,0,0,1,-5,5h-84a5,5,0,0,1,-5,-5v-12a5,5,0,0,1,5,-5z"></path><g id="node_text16" fill="black"><text id="kity_text_153" text-rendering="inherit" font-size="12" dy=".8em" y="491.7000000476837" x="372.5">复合数据类型</text></g></g><g id="minder_node15"><g id="node_expander12" display="none" style="cursor: pointer;"><path id="kity_path_299" fill="white" stroke="gray" d="M496.5,447.5A6,6,0,1,1,484.5,447.5A6,6,0,1,1,496.5,447.5"></path><path id="kity_path_300" fill="none" stroke="gray"></path></g><path id="node_outline13" fill="none" stroke="none" d="M501.5,436.5h36a5,5,0,0,1,5,5v12a5,5,0,0,1,-5,5h-36a5,5,0,0,1,-5,-5v-12a5,5,0,0,1,5,-5z"></path><g id="node_text13" fill="black"><text id="kity_text_147" text-rendering="inherit" font-size="12" dy=".8em" y="439.7000000476837" x="506.5">数组</text></g></g><g id="minder_node16"><g id="node_expander13" display="none" style="cursor: pointer;"><path id="kity_path_302" fill="white" stroke="gray" d="M496.5,499.5A6,6,0,1,1,484.5,499.5A6,6,0,1,1,496.5,499.5"></path><path id="kity_path_303" fill="none" stroke="gray"></path></g><path id="node_outline14" fill="none" stroke="none" d="M501.5,488.5h36a5,5,0,0,1,5,5v12a5,5,0,0,1,-5,5h-36a5,5,0,0,1,-5,-5v-12a5,5,0,0,1,5,-5z"></path><g id="node_text14" fill="black"><text id="kity_text_149" text-rendering="inherit" font-size="12" dy=".8em" y="491.7000000476837" x="506.5">枚举</text></g></g><g id="minder_node17"><g id="node_expander14" display="none" style="cursor: pointer;"><path id="kity_path_305" fill="white" stroke="gray" d="M496.5,551.5A6,6,0,1,1,484.5,551.5A6,6,0,1,1,496.5,551.5"></path><path id="kity_path_306" fill="none" stroke="gray"></path></g><path id="node_outline15" fill="none" stroke="none" d="M501.5,540.5h36a5,5,0,0,1,5,5v12a5,5,0,0,1,-5,5h-36a5,5,0,0,1,-5,-5v-12a5,5,0,0,1,5,-5z"></path><g id="node_text15" fill="black"><text id="kity_text_151" text-rendering="inherit" font-size="12" dy=".8em" y="543.7000000476837" x="506.5">元组</text></g></g><g id="minder_node18"><g id="node_expander24" style="cursor: pointer;"><path id="kity_path_335" fill="white" stroke="gray" d="M252.5,756.5A6,6,0,1,1,240.5,756.5A6,6,0,1,1,252.5,756.5"></path><path id="kity_path_336" fill="none" stroke="gray" d="M242,756.5L251,756.5"></path></g><path id="node_outline25" fill="rgb(238, 243, 246)" stroke="rgb(115, 161, 191)" d="M256.5,743.5h63a3,3,0,0,1,3,3v20a3,3,0,0,1,-3,3h-63a3,3,0,0,1,-3,-3v-20a3,3,0,0,1,3,-3z" stroke-width="1"></path><g id="node_text25" fill="black"><text id="kity_text_171" text-rendering="inherit" font-size="14" dy=".8em" y="747.4000000953674" x="273.5">语句</text></g></g><g id="minder_node19"><g id="node_expander19" style="cursor: pointer;"><path id="kity_path_320" fill="white" stroke="gray" d="M362.5,639.5A6,6,0,1,1,350.5,639.5A6,6,0,1,1,362.5,639.5"></path><path id="kity_path_321" fill="none" stroke="gray" d="M352,639.5L361,639.5"></path></g><path id="node_outline20" fill="none" stroke="none" d="M367.5,628.5h48a5,5,0,0,1,5,5v12a5,5,0,0,1,-5,5h-48a5,5,0,0,1,-5,-5v-12a5,5,0,0,1,5,-5z"></path><g id="node_text20" fill="black"><text id="kity_text_161" text-rendering="inherit" font-size="12" dy=".8em" y="631.7000000476837" x="372.5">表达式</text></g></g><g id="minder_node20"><g id="node_expander17" display="none" style="cursor: pointer;"><path id="kity_path_314" fill="white" stroke="gray" d="M460.5,613.5A6,6,0,1,1,448.5,613.5A6,6,0,1,1,460.5,613.5"></path><path id="kity_path_315" fill="none" stroke="gray"></path></g><path id="node_outline18" fill="none" stroke="none" d="M465.5,602.5h48a5,5,0,0,1,5,5v12a5,5,0,0,1,-5,5h-48a5,5,0,0,1,-5,-5v-12a5,5,0,0,1,5,-5z"></path><g id="node_text18" fill="black"><text id="kity_text_157" text-rendering="inherit" font-size="12" dy=".8em" y="605.7000000476837" x="470.5">运算符</text></g></g><g id="minder_node21"><g id="node_expander18" display="none" style="cursor: pointer;"><path id="kity_path_317" fill="white" stroke="gray" d="M460.5,665.5A6,6,0,1,1,448.5,665.5A6,6,0,1,1,460.5,665.5"></path><path id="kity_path_318" fill="none" stroke="gray"></path></g><path id="node_outline19" fill="none" stroke="none" d="M465.5,654.5h36a5,5,0,0,1,5,5v12a5,5,0,0,1,-5,5h-36a5,5,0,0,1,-5,-5v-12a5,5,0,0,1,5,-5z"></path><g id="node_text19" fill="black"><text id="kity_text_159" text-rendering="inherit" font-size="12" dy=".8em" y="657.7000000476837" x="470.5">赋值</text></g></g><g id="minder_node22"><g id="node_expander20" display="none" style="cursor: pointer;"><path id="kity_path_323" fill="white" stroke="gray" d="M362.5,717.5A6,6,0,1,1,350.5,717.5A6,6,0,1,1,362.5,717.5"></path><path id="kity_path_324" fill="none" stroke="gray"></path></g><path id="node_outline21" fill="none" stroke="none" d="M367.5,706.5h59a5,5,0,0,1,5,5v12a5,5,0,0,1,-5,5h-59a5,5,0,0,1,-5,-5v-12a5,5,0,0,1,5,-5z"></path><g id="node_text21" fill="black"><text id="kity_text_163" text-rendering="inherit" font-size="12" dy=".8em" y="709.7000000476837" x="372.5">顺序语句</text></g></g><g id="minder_node23"><g id="node_expander21" display="none" style="cursor: pointer;"><path id="kity_path_326" fill="white" stroke="gray" d="M362.5,769.5A6,6,0,1,1,350.5,769.5A6,6,0,1,1,362.5,769.5"></path><path id="kity_path_327" fill="none" stroke="gray"></path></g><path id="node_outline22" fill="none" stroke="none" d="M367.5,758.5h59a5,5,0,0,1,5,5v12a5,5,0,0,1,-5,5h-59a5,5,0,0,1,-5,-5v-12a5,5,0,0,1,5,-5z"></path><g id="node_text22" fill="black"><text id="kity_text_165" text-rendering="inherit" font-size="12" dy=".8em" y="761.7000000476837" x="372.5">分支语句</text></g></g><g id="minder_node24"><g id="node_expander22" display="none" style="cursor: pointer;"><path id="kity_path_329" fill="white" stroke="gray" d="M362.5,821.5A6,6,0,1,1,350.5,821.5A6,6,0,1,1,362.5,821.5"></path><path id="kity_path_330" fill="none" stroke="gray"></path></g><path id="node_outline23" fill="none" stroke="none" d="M367.5,810.5h59a5,5,0,0,1,5,5v12a5,5,0,0,1,-5,5h-59a5,5,0,0,1,-5,-5v-12a5,5,0,0,1,5,-5z"></path><g id="node_text23" fill="black"><text id="kity_text_167" text-rendering="inherit" font-size="12" dy=".8em" y="813.7000000476837" x="372.5">循环语句</text></g></g><g id="minder_node25"><g id="node_expander23" display="none" style="cursor: pointer;"><path id="kity_path_332" fill="white" stroke="gray" d="M362.5,873.5A6,6,0,1,1,350.5,873.5A6,6,0,1,1,362.5,873.5"></path><path id="kity_path_333" fill="none" stroke="gray"></path></g><path id="node_outline24" fill="none" stroke="none" d="M367.5,862.5h58a5,5,0,0,1,5,5v12a5,5,0,0,1,-5,5h-58a5,5,0,0,1,-5,-5v-12a5,5,0,0,1,5,-5z"></path><g id="node_text24" fill="black"><text id="kity_text_169" text-rendering="inherit" font-size="12" dy=".8em" y="865.7000000476837" x="372.5">异常控制</text></g></g><g id="minder_node26"><g id="node_expander31" style="cursor: pointer;"><path id="kity_path_356" fill="white" stroke="gray" d="M252.5,1013.5A6,6,0,1,1,240.5,1013.5A6,6,0,1,1,252.5,1013.5"></path><path id="kity_path_357" fill="none" stroke="gray" d="M242,1013.5L251,1013.5"></path></g><path id="node_outline32" fill="rgb(238, 243, 246)" stroke="rgb(115, 161, 191)" d="M256.5,1000.5h63a3,3,0,0,1,3,3v20a3,3,0,0,1,-3,3h-63a3,3,0,0,1,-3,-3v-20a3,3,0,0,1,3,-3z" stroke-width="1"></path><g id="node_text32" fill="black"><text id="kity_text_185" text-rendering="inherit" font-size="14" dy=".8em" y="1004.4000000953674" x="273.5">模块</text></g></g><g id="minder_node27"><g id="node_expander25" display="none" style="cursor: pointer;"><path id="kity_path_338" fill="white" stroke="gray" d="M362.5,935.5A6,6,0,1,1,350.5,935.5A6,6,0,1,1,362.5,935.5"></path><path id="kity_path_339" fill="none" stroke="gray"></path></g><path id="node_outline26" fill="none" stroke="none" d="M367.5,924.5h35a5,5,0,0,1,5,5v12a5,5,0,0,1,-5,5h-35a5,5,0,0,1,-5,-5v-12a5,5,0,0,1,5,-5z"></path><g id="node_text26" fill="black"><text id="kity_text_173" text-rendering="inherit" font-size="12" dy=".8em" y="927.7000000476837" x="372.5">函数</text></g></g><g id="minder_node28"><g id="node_expander26" display="none" style="cursor: pointer;"><path id="kity_path_341" fill="white" stroke="gray" d="M362.5,987.5A6,6,0,1,1,350.5,987.5A6,6,0,1,1,362.5,987.5"></path><path id="kity_path_342" fill="none" stroke="gray"></path></g><path id="node_outline27" fill="none" stroke="none" d="M367.5,976.5h24a5,5,0,0,1,5,5v12a5,5,0,0,1,-5,5h-24a5,5,0,0,1,-5,-5v-12a5,5,0,0,1,5,-5z"></path><g id="node_text27" fill="black"><text id="kity_text_175" text-rendering="inherit" font-size="12" dy=".8em" y="979.7000000476837" x="372.5">类</text></g></g><g id="minder_node29"><g id="node_expander30" style="cursor: pointer;"><path id="kity_path_353" fill="white" stroke="gray" d="M362.5,1091.5A6,6,0,1,1,350.5,1091.5A6,6,0,1,1,362.5,1091.5"></path><path id="kity_path_354" fill="none" stroke="gray" d="M352,1091.5L361,1091.5"></path></g><path id="node_outline31" fill="none" stroke="none" d="M367.5,1080.5h59a5,5,0,0,1,5,5v12a5,5,0,0,1,-5,5h-59a5,5,0,0,1,-5,-5v-12a5,5,0,0,1,5,-5z"></path><g id="node_text31" fill="black"><text id="kity_text_183" text-rendering="inherit" font-size="12" dy=".8em" y="1083.7000000476837" x="372.5">命名空间</text></g></g><g id="minder_node30"><g id="node_expander27" display="none" style="cursor: pointer;"><path id="kity_path_344" fill="white" stroke="gray" d="M471.5,1039.5A6,6,0,1,1,459.5,1039.5A6,6,0,1,1,471.5,1039.5"></path><path id="kity_path_345" fill="none" stroke="gray"></path></g><path id="node_outline28" fill="none" stroke="none" d="M476.5,1028.5h58a5,5,0,0,1,5,5v12a5,5,0,0,1,-5,5h-58a5,5,0,0,1,-5,-5v-12a5,5,0,0,1,5,-5z"></path><g id="node_text28" fill="black"><text id="kity_text_177" text-rendering="inherit" font-size="12" dy=".8em" y="1031.7000000476837" x="481.5">组织模块</text></g></g><g id="minder_node31"><g id="node_expander28" display="none" style="cursor: pointer;"><path id="kity_path_347" fill="white" stroke="gray" d="M471.5,1091.5A6,6,0,1,1,459.5,1091.5A6,6,0,1,1,471.5,1091.5"></path><path id="kity_path_348" fill="none" stroke="gray"></path></g><path id="node_outline29" fill="none" stroke="none" d="M476.5,1080.5h60a5,5,0,0,1,5,5v12a5,5,0,0,1,-5,5h-60a5,5,0,0,1,-5,-5v-12a5,5,0,0,1,5,-5z"></path><g id="node_text29" fill="black"><text id="kity_text_179" text-rendering="inherit" font-size="12" dy=".8em" y="1083.7000000476837" x="481.5">导入名称</text></g></g><g id="minder_node32"><g id="node_expander29" display="none" style="cursor: pointer;"><path id="kity_path_350" fill="white" stroke="gray" d="M471.5,1143.5A6,6,0,1,1,459.5,1143.5A6,6,0,1,1,471.5,1143.5"></path><path id="kity_path_351" fill="none" stroke="gray"></path></g><path id="node_outline30" fill="none" stroke="none" d="M476.5,1132.5h60a5,5,0,0,1,5,5v12a5,5,0,0,1,-5,5h-60a5,5,0,0,1,-5,-5v-12a5,5,0,0,1,5,-5z"></path><g id="node_text30" fill="black"><text id="kity_text_181" text-rendering="inherit" font-size="12" dy=".8em" y="1135.7000000476837" x="481.5">导出名称</text></g></g><g id="minder_node33"><g id="node_expander41" style="cursor: pointer;"><path id="kity_path_386" fill="white" stroke="gray" d="M252.5,1387.5A6,6,0,1,1,240.5,1387.5A6,6,0,1,1,252.5,1387.5"></path><path id="kity_path_387" fill="none" stroke="gray" d="M242,1387.5L251,1387.5"></path></g><path id="node_outline42" fill="rgb(238, 243, 246)" stroke="rgb(115, 161, 191)" d="M256.5,1374.5h63a3,3,0,0,1,3,3v20a3,3,0,0,1,-3,3h-63a3,3,0,0,1,-3,-3v-20a3,3,0,0,1,3,-3z" stroke-width="1"></path><g id="node_text42" fill="black"><text id="kity_text_205" text-rendering="inherit" font-size="14" dy=".8em" y="1378.4000000953674" x="273.5">工具</text></g></g><g id="minder_node34"><g id="node_expander32" display="none" style="cursor: pointer;"><path id="kity_path_359" fill="white" stroke="gray" d="M362.5,1205.5A6,6,0,1,1,350.5,1205.5A6,6,0,1,1,362.5,1205.5"></path><path id="kity_path_360" fill="none" stroke="gray"></path></g><path id="node_outline33" fill="none" stroke="none" d="M367.5,1194.5h84a5,5,0,0,1,5,5v12a5,5,0,0,1,-5,5h-84a5,5,0,0,1,-5,-5v-12a5,5,0,0,1,5,-5z"></path><g id="node_text33" fill="black"><text id="kity_text_187" text-rendering="inherit" font-size="12" dy=".8em" y="1197.7000000476837" x="372.5">输入输出工具</text></g></g><g id="minder_node35"><g id="node_expander33" display="none" style="cursor: pointer;"><path id="kity_path_362" fill="white" stroke="gray" d="M362.5,1257.5A6,6,0,1,1,350.5,1257.5A6,6,0,1,1,362.5,1257.5"></path><path id="kity_path_363" fill="none" stroke="gray"></path></g><path id="node_outline34" fill="none" stroke="none" d="M367.5,1246.5h72a5,5,0,0,1,5,5v12a5,5,0,0,1,-5,5h-72a5,5,0,0,1,-5,-5v-12a5,5,0,0,1,5,-5z"></path><g id="node_text34" fill="black"><text id="kity_text_189" text-rendering="inherit" font-size="12" dy=".8em" y="1249.7000000476837" x="372.5">字符串工具</text></g></g><g id="minder_node36"><g id="node_expander34" display="none" style="cursor: pointer;"><path id="kity_path_365" fill="white" stroke="gray" d="M362.5,1309.5A6,6,0,1,1,350.5,1309.5A6,6,0,1,1,362.5,1309.5"></path><path id="kity_path_366" fill="none" stroke="gray"></path></g><path id="node_outline35" fill="none" stroke="none" d="M367.5,1298.5h72a5,5,0,0,1,5,5v12a5,5,0,0,1,-5,5h-72a5,5,0,0,1,-5,-5v-12a5,5,0,0,1,5,-5z"></path><g id="node_text35" fill="black"><text id="kity_text_191" text-rendering="inherit" font-size="12" dy=".8em" y="1301.7000000476837" x="372.5">正则表达式</text></g></g><g id="minder_node37"><g id="node_expander35" display="none" style="cursor: pointer;"><path id="kity_path_368" fill="white" stroke="gray" d="M362.5,1361.5A6,6,0,1,1,350.5,1361.5A6,6,0,1,1,362.5,1361.5"></path><path id="kity_path_369" fill="none" stroke="gray"></path></g><path id="node_outline36" fill="none" stroke="none" d="M367.5,1350.5h83a5,5,0,0,1,5,5v12a5,5,0,0,1,-5,5h-83a5,5,0,0,1,-5,-5v-12a5,5,0,0,1,5,-5z"></path><g id="node_text36" fill="black"><text id="kity_text_193" text-rendering="inherit" font-size="12" dy=".8em" y="1353.7000000476837" x="372.5">操作系统接口</text></g></g><g id="minder_node38"><g id="node_expander39" style="cursor: pointer;"><path id="kity_path_380" fill="white" stroke="gray" d="M362.5,1465.5A6,6,0,1,1,350.5,1465.5A6,6,0,1,1,362.5,1465.5"></path><path id="kity_path_381" fill="none" stroke="gray" d="M352,1465.5L361,1465.5"></path></g><path id="node_outline40" fill="none" stroke="none" d="M367.5,1454.5h83a5,5,0,0,1,5,5v12a5,5,0,0,1,-5,5h-83a5,5,0,0,1,-5,-5v-12a5,5,0,0,1,5,-5z"></path><g id="node_text40" fill="black"><text id="kity_text_201" text-rendering="inherit" font-size="12" dy=".8em" y="1457.7000000476837" x="372.5">进阶数据结构</text></g></g><g id="minder_node39"><g id="node_expander36" display="none" style="cursor: pointer;"><path id="kity_path_371" fill="white" stroke="gray" d="M495.5,1413.5A6,6,0,1,1,483.5,1413.5A6,6,0,1,1,495.5,1413.5"></path><path id="kity_path_372" fill="none" stroke="gray"></path></g><path id="node_outline37" fill="none" stroke="none" d="M500.5,1402.5h24a5,5,0,0,1,5,5v12a5,5,0,0,1,-5,5h-24a5,5,0,0,1,-5,-5v-12a5,5,0,0,1,5,-5z"></path><g id="node_text37" fill="black"><text id="kity_text_195" text-rendering="inherit" font-size="12" dy=".8em" y="1405.7000000476837" x="505.5">堆</text></g></g><g id="minder_node40"><g id="node_expander37" display="none" style="cursor: pointer;"><path id="kity_path_374" fill="white" stroke="gray" d="M495.5,1465.5A6,6,0,1,1,483.5,1465.5A6,6,0,1,1,495.5,1465.5"></path><path id="kity_path_375" fill="none" stroke="gray"></path></g><path id="node_outline38" fill="none" stroke="none" d="M500.5,1454.5h24a5,5,0,0,1,5,5v12a5,5,0,0,1,-5,5h-24a5,5,0,0,1,-5,-5v-12a5,5,0,0,1,5,-5z"></path><g id="node_text38" fill="black"><text id="kity_text_197" text-rendering="inherit" font-size="12" dy=".8em" y="1457.7000000476837" x="505.5">栈</text></g></g><g id="minder_node41"><g id="node_expander38" display="none" style="cursor: pointer;"><path id="kity_path_377" fill="white" stroke="gray" d="M495.5,1517.5A6,6,0,1,1,483.5,1517.5A6,6,0,1,1,495.5,1517.5"></path><path id="kity_path_378" fill="none" stroke="gray"></path></g><path id="node_outline39" fill="none" stroke="none" d="M500.5,1506.5h34a5,5,0,0,1,5,5v12a5,5,0,0,1,-5,5h-34a5,5,0,0,1,-5,-5v-12a5,5,0,0,1,5,-5z"></path><g id="node_text39" fill="black"><text id="kity_text_199" text-rendering="inherit" font-size="12" dy=".8em" y="1509.7000000476837" x="505.5">队列</text></g></g><g id="minder_node42"><g id="node_expander40" display="none" style="cursor: pointer;"><path id="kity_path_383" fill="white" stroke="gray" d="M362.5,1569.5A6,6,0,1,1,350.5,1569.5A6,6,0,1,1,362.5,1569.5"></path><path id="kity_path_384" fill="none" stroke="gray"></path></g><path id="node_outline41" fill="none" stroke="none" d="M367.5,1558.5h84a5,5,0,0,1,5,5v12a5,5,0,0,1,-5,5h-84a5,5,0,0,1,-5,-5v-12a5,5,0,0,1,5,-5z"></path><g id="node_text41" fill="black"><text id="kity_text_203" text-rendering="inherit" font-size="12" dy=".8em" y="1561.7000000476837" x="372.5">经典算法工具</text></g></g><g id="minder_node43"><g id="node_expander47" style="cursor: pointer;"><path id="kity_path_404" fill="white" stroke="gray" d="M252.5,1709.5A6,6,0,1,1,240.5,1709.5A6,6,0,1,1,252.5,1709.5"></path><path id="kity_path_405" fill="none" stroke="gray" d="M242,1709.5L251,1709.5"></path></g><path id="node_outline48" fill="rgb(238, 243, 246)" stroke="rgb(115, 161, 191)" d="M256.5,1696.5h63a3,3,0,0,1,3,3v20a3,3,0,0,1,-3,3h-63a3,3,0,0,1,-3,-3v-20a3,3,0,0,1,3,-3z" stroke-width="1"></path><g id="node_text48" fill="black"><text id="kity_text_217" text-rendering="inherit" font-size="14" dy=".8em" y="1700.4000000953674" x="273.5">类库</text></g></g><g id="minder_node44"><g id="node_expander43" style="cursor: pointer;"><path id="kity_path_392" fill="white" stroke="gray" d="M362.5,1631.5A6,6,0,1,1,350.5,1631.5A6,6,0,1,1,362.5,1631.5"></path><path id="kity_path_393" fill="none" stroke="gray" d="M352,1631.5L361,1631.5"></path></g><path id="node_outline44" fill="none" stroke="none" d="M367.5,1620.5h35a5,5,0,0,1,5,5v12a5,5,0,0,1,-5,5h-35a5,5,0,0,1,-5,-5v-12a5,5,0,0,1,5,-5z"></path><g id="node_text44" fill="black"><text id="kity_text_209" text-rendering="inherit" font-size="12" dy=".8em" y="1623.7000000476837" x="372.5">数学</text></g></g><g id="minder_node45"><g id="node_expander42" display="none" style="cursor: pointer;"><path id="kity_path_389" fill="white" stroke="gray" d="M447.5,1631.5A6,6,0,1,1,435.5,1631.5A6,6,0,1,1,447.5,1631.5"></path><path id="kity_path_390" fill="none" stroke="gray"></path></g><path id="node_outline43" fill="none" stroke="none" d="M452.5,1620.5h72a5,5,0,0,1,5,5v12a5,5,0,0,1,-5,5h-72a5,5,0,0,1,-5,-5v-12a5,5,0,0,1,5,-5z"></path><g id="node_text43" fill="black"><text id="kity_text_207" text-rendering="inherit" font-size="12" dy=".8em" y="1623.7000000476837" x="457.5">高精度运算</text></g></g><g id="minder_node46"><g id="node_expander44" display="none" style="cursor: pointer;"><path id="kity_path_395" fill="white" stroke="gray" d="M362.5,1683.5A6,6,0,1,1,350.5,1683.5A6,6,0,1,1,362.5,1683.5"></path><path id="kity_path_396" fill="none" stroke="gray"></path></g><path id="node_outline45" fill="none" stroke="none" d="M367.5,1672.5h70a5,5,0,0,1,5,5v12a5,5,0,0,1,-5,5h-70a5,5,0,0,1,-5,-5v-12a5,5,0,0,1,5,-5z"></path><g id="node_text45" fill="black"><text id="kity_text_211" text-rendering="inherit" font-size="12" dy=".8em" y="1675.7000000476837" x="372.5">日期和时间</text></g></g><g id="minder_node47"><g id="node_expander45" display="none" style="cursor: pointer;"><path id="kity_path_398" fill="white" stroke="gray" d="M362.5,1735.5A6,6,0,1,1,350.5,1735.5A6,6,0,1,1,362.5,1735.5"></path><path id="kity_path_399" fill="none" stroke="gray"></path></g><path id="node_outline46" fill="none" stroke="none" d="M367.5,1724.5h36a5,5,0,0,1,5,5v12a5,5,0,0,1,-5,5h-36a5,5,0,0,1,-5,-5v-12a5,5,0,0,1,5,-5z"></path><g id="node_text46" fill="black"><text id="kity_text_213" text-rendering="inherit" font-size="12" dy=".8em" y="1727.7000000476837" x="372.5">文件</text></g></g><g id="minder_node48"><g id="node_expander46" display="none" style="cursor: pointer;"><path id="kity_path_401" fill="white" stroke="gray" d="M362.5,1787.5A6,6,0,1,1,350.5,1787.5A6,6,0,1,1,362.5,1787.5"></path><path id="kity_path_402" fill="none" stroke="gray"></path></g><path id="node_outline47" fill="none" stroke="none" d="M367.5,1776.5h35a5,5,0,0,1,5,5v12a5,5,0,0,1,-5,5h-35a5,5,0,0,1,-5,-5v-12a5,5,0,0,1,5,-5z"></path><g id="node_text47" fill="black"><text id="kity_text_215" text-rendering="inherit" font-size="12" dy=".8em" y="1779.7000000476837" x="372.5">网络</text></g></g></g></g></svg>