<svg id="kity_svg_6" xmlns="http://www.w3.org/2000/svg" xmlns:xlink="http://www.w3.org/1999/xlink" version="1.1" width="1332" height="2321" style="background: rgb(251, 251, 251); visibility: visible;" viewBox="0 0 1332 2321"><defs id="kity_defs_7"><linearGradient id="kity_linearGradient_17" x1="0" y1="0" x2="0" y2="1"><stop id="kity_stop_18" offset="0" stop-color="rgb(255, 255, 255)"></stop><stop id="kity_stop_19" offset="1" stop-color="rgb(204, 204, 204)"></stop></linearGradient><marker id="kity_marker_2" orient="auto" refX="6" refY="0" viewBox="-7 -7 14 14" markerWidth="7" markerHeight="7" markerUnits="userSpaceOnUse"><path id="kity_path_3" fill="rgb(115, 161, 191)" stroke="none" d="M6,0A6,6,0,1,1,-6,0A6,6,0,1,1,6,0"></path></marker></defs><g id="kity_g_8"><g id="minder1" text-rendering="optimize-speed"><g id="minder_connect_group1"><path id="kity_path_31" fill="none" stroke="rgb(115, 161, 191)" stroke-width="1" d="M501.00000342676424,1471.4999875694257A190.5,686,0,0,1,691.5000034267642,785.4999875694257"></path><path id="kity_path_33" fill="none" stroke="rgb(115, 161, 191)" stroke-width="1" d="M762.5000034267642,785.4999875694257C777.5000034267642,785.4999875694257,777.5000034267642,149.49998756942568,792.5000034267642,149.49998756942568L871.5000034267642,149.49998756942568"></path><path id="kity_path_35" fill="none" stroke="rgb(115, 161, 191)" stroke-width="1" d="M871.5000034267642,149.49998756942568C886.5000034267642,149.49998756942568,886.5000034267642,149.49998756942568,901.5000034267642,149.49998756942568L994.5000034267642,149.49998756942568"></path><path id="kity_path_37" fill="none" stroke="rgb(115, 161, 191)" stroke-width="1" d="M994.5000034267642,149.49998756942568C1009.5000034267642,149.49998756942568,1009.5000034267642,45.499987569425684,1024.5000034267641,45.499987569425684L1300.5000034267641,45.499987569425684"></path><path id="kity_path_39" fill="none" stroke="rgb(115, 161, 191)" stroke-width="1" d="M994.5000034267642,149.49998756942568C1009.5000034267642,149.49998756942568,1009.5000034267642,97.49998756942568,1024.5000034267641,97.49998756942568L1257.5000034267641,97.49998756942568"></path><path id="kity_path_41" fill="none" stroke="rgb(115, 161, 191)" stroke-width="1" d="M994.5000034267642,149.49998756942568C1009.5000034267642,149.49998756942568,1009.5000034267642,149.49998756942568,1024.5000034267641,149.49998756942568L1292.5000034267641,149.49998756942568"></path><path id="kity_path_43" fill="none" stroke="rgb(115, 161, 191)" stroke-width="1" d="M994.5000034267642,149.49998756942568C1009.5000034267642,149.49998756942568,1009.5000034267642,201.49998756942568,1024.5000034267641,201.49998756942568L1307.5000034267641,201.49998756942568"></path><path id="kity_path_45" fill="none" stroke="rgb(115, 161, 191)" stroke-width="1" d="M994.5000034267642,149.49998756942568C1009.5000034267642,149.49998756942568,1009.5000034267642,253.49998756942568,1024.5000034267641,253.49998756942568L1312.5000034267641,253.49998756942568"></path><path id="kity_path_47" fill="none" stroke="rgb(115, 161, 191)" stroke-width="1" d="M762.5000034267642,785.4999875694257C777.5000034267642,785.4999875694257,777.5000034267642,760.4999875694257,792.5000034267642,760.4999875694257L871.5000034267642,760.4999875694257"></path><path id="kity_path_49" fill="none" stroke="rgb(115, 161, 191)" stroke-width="1" d="M871.5000034267642,760.4999875694257C886.5000034267642,760.4999875694257,886.5000034267642,383.4999875694257,901.5000034267642,383.4999875694257L993.5000034267642,383.4999875694257"></path><path id="kity_path_51" fill="none" stroke="rgb(115, 161, 191)" stroke-width="1" d="M993.5000034267642,383.4999875694257C1008.5000034267642,383.4999875694257,1008.5000034267642,305.4999875694257,1023.5000034267642,305.4999875694257L1102.5000034267641,305.4999875694257"></path><path id="kity_path_53" fill="none" stroke="rgb(115, 161, 191)" stroke-width="1" d="M1102.5000034267641,305.4999875694257C1117.5000034267641,305.4999875694257,1117.5000034267641,305.4999875694257,1132.5000034267641,305.4999875694257L1236.5000034267641,305.4999875694257"></path><path id="kity_path_55" fill="none" stroke="rgb(115, 161, 191)" stroke-width="1" d="M993.5000034267642,383.4999875694257C1008.5000034267642,383.4999875694257,1008.5000034267642,357.4999875694257,1023.5000034267642,357.4999875694257L1102.5000034267641,357.4999875694257"></path><path id="kity_path_57" fill="none" stroke="rgb(115, 161, 191)" stroke-width="1" d="M993.5000034267642,383.4999875694257C1008.5000034267642,383.4999875694257,1008.5000034267642,409.4999875694257,1023.5000034267642,409.4999875694257L1115.5000034267641,409.4999875694257"></path><path id="kity_path_59" fill="none" stroke="rgb(115, 161, 191)" stroke-width="1" d="M993.5000034267642,383.4999875694257C1008.5000034267642,383.4999875694257,1008.5000034267642,461.4999875694257,1023.5000034267642,461.4999875694257L1103.5000034267641,461.4999875694257"></path><path id="kity_path_61" fill="none" stroke="rgb(115, 161, 191)" stroke-width="1" d="M871.5000034267642,760.4999875694257C886.5000034267642,760.4999875694257,886.5000034267642,669.4999875694257,901.5000034267642,669.4999875694257L993.5000034267642,669.4999875694257"></path><path id="kity_path_63" fill="none" stroke="rgb(115, 161, 191)" stroke-width="1" d="M993.5000034267642,669.4999875694257C1008.5000034267642,669.4999875694257,1008.5000034267642,513.4999875694257,1023.5000034267642,513.4999875694257L1115.5000034267641,513.4999875694257"></path><path id="kity_path_65" fill="none" stroke="rgb(115, 161, 191)" stroke-width="1" d="M993.5000034267642,669.4999875694257C1008.5000034267642,669.4999875694257,1008.5000034267642,565.4999875694257,1023.5000034267642,565.4999875694257L1103.5000034267641,565.4999875694257"></path><path id="kity_path_67" fill="none" stroke="rgb(115, 161, 191)" stroke-width="1" d="M993.5000034267642,669.4999875694257C1008.5000034267642,669.4999875694257,1008.5000034267642,617.4999875694257,1023.5000034267642,617.4999875694257L1102.5000034267641,617.4999875694257"></path><path id="kity_path_69" fill="none" stroke="rgb(115, 161, 191)" stroke-width="1" d="M993.5000034267642,669.4999875694257C1008.5000034267642,669.4999875694257,1008.5000034267642,669.4999875694257,1023.5000034267642,669.4999875694257L1103.5000034267641,669.4999875694257"></path><path id="kity_path_71" fill="none" stroke="rgb(115, 161, 191)" stroke-width="1" d="M993.5000034267642,669.4999875694257C1008.5000034267642,669.4999875694257,1008.5000034267642,721.4999875694257,1023.5000034267642,721.4999875694257L1103.5000034267641,721.4999875694257"></path><path id="kity_path_73" fill="none" stroke="rgb(115, 161, 191)" stroke-width="1" d="M993.5000034267642,669.4999875694257C1008.5000034267642,669.4999875694257,1008.5000034267642,773.4999875694257,1023.5000034267642,773.4999875694257L1102.5000034267641,773.4999875694257"></path><path id="kity_path_75" fill="none" stroke="rgb(115, 161, 191)" stroke-width="1" d="M993.5000034267642,669.4999875694257C1008.5000034267642,669.4999875694257,1008.5000034267642,825.4999875694257,1023.5000034267642,825.4999875694257L1103.5000034267641,825.4999875694257"></path><path id="kity_path_77" fill="none" stroke="rgb(115, 161, 191)" stroke-width="1" d="M871.5000034267642,760.4999875694257C886.5000034267642,760.4999875694257,886.5000034267642,1137.4999875694257,901.5000034267642,1137.4999875694257L993.5000034267642,1137.4999875694257"></path><path id="kity_path_79" fill="none" stroke="rgb(115, 161, 191)" stroke-width="1" d="M993.5000034267642,1137.4999875694257C1008.5000034267642,1137.4999875694257,1008.5000034267642,877.4999875694257,1023.5000034267642,877.4999875694257L1115.5000034267641,877.4999875694257"></path><path id="kity_path_81" fill="none" stroke="rgb(115, 161, 191)" stroke-width="1" d="M993.5000034267642,1137.4999875694257C1008.5000034267642,1137.4999875694257,1008.5000034267642,929.4999875694257,1023.5000034267642,929.4999875694257L1103.5000034267641,929.4999875694257"></path><path id="kity_path_83" fill="none" stroke="rgb(115, 161, 191)" stroke-width="1" d="M993.5000034267642,1137.4999875694257C1008.5000034267642,1137.4999875694257,1008.5000034267642,981.4999875694257,1023.5000034267642,981.4999875694257L1115.5000034267641,981.4999875694257"></path><path id="kity_path_85" fill="none" stroke="rgb(115, 161, 191)" stroke-width="1" d="M993.5000034267642,1137.4999875694257C1008.5000034267642,1137.4999875694257,1008.5000034267642,1033.4999875694257,1023.5000034267642,1033.4999875694257L1115.5000034267641,1033.4999875694257"></path><path id="kity_path_87" fill="none" stroke="rgb(115, 161, 191)" stroke-width="1" d="M993.5000034267642,1137.4999875694257C1008.5000034267642,1137.4999875694257,1008.5000034267642,1085.4999875694257,1023.5000034267642,1085.4999875694257L1115.5000034267641,1085.4999875694257"></path><path id="kity_path_89" fill="none" stroke="rgb(115, 161, 191)" stroke-width="1" d="M993.5000034267642,1137.4999875694257C1008.5000034267642,1137.4999875694257,1008.5000034267642,1137.4999875694257,1023.5000034267642,1137.4999875694257L1115.5000034267641,1137.4999875694257"></path><path id="kity_path_91" fill="none" stroke="rgb(115, 161, 191)" stroke-width="1" d="M993.5000034267642,1137.4999875694257C1008.5000034267642,1137.4999875694257,1008.5000034267642,1189.4999875694257,1023.5000034267642,1189.4999875694257L1115.5000034267641,1189.4999875694257"></path><path id="kity_path_93" fill="none" stroke="rgb(115, 161, 191)" stroke-width="1" d="M993.5000034267642,1137.4999875694257C1008.5000034267642,1137.4999875694257,1008.5000034267642,1241.4999875694257,1023.5000034267642,1241.4999875694257L1103.5000034267641,1241.4999875694257"></path><path id="kity_path_95" fill="none" stroke="rgb(115, 161, 191)" stroke-width="1" d="M993.5000034267642,1137.4999875694257C1008.5000034267642,1137.4999875694257,1008.5000034267642,1293.4999875694257,1023.5000034267642,1293.4999875694257L1103.5000034267641,1293.4999875694257"></path><path id="kity_path_97" fill="none" stroke="rgb(115, 161, 191)" stroke-width="1" d="M993.5000034267642,1137.4999875694257C1008.5000034267642,1137.4999875694257,1008.5000034267642,1345.4999875694257,1023.5000034267642,1345.4999875694257L1127.5000034267641,1345.4999875694257"></path><path id="kity_path_99" fill="none" stroke="rgb(115, 161, 191)" stroke-width="1" d="M993.5000034267642,1137.4999875694257C1008.5000034267642,1137.4999875694257,1008.5000034267642,1397.4999875694257,1023.5000034267642,1397.4999875694257L1114.5000034267641,1397.4999875694257"></path><path id="kity_path_101" fill="none" stroke="rgb(115, 161, 191)" stroke-width="1" d="M762.5000034267642,785.4999875694257C777.5000034267642,785.4999875694257,777.5000034267642,1449.4999875694257,792.5000034267642,1449.4999875694257L872.5000034267642,1449.4999875694257"></path><path id="kity_path_103" fill="none" stroke="rgb(115, 161, 191)" stroke-width="1" d="M501.00000342676424,1471.4999875694257A190.5,208,0,0,0,691.5000034267642,1679.4999875694257"></path><path id="kity_path_105" fill="none" stroke="rgb(115, 161, 191)" stroke-width="1" d="M762.5000034267642,1679.4999875694257C777.5000034267642,1679.4999875694257,777.5000034267642,1511.4999875694257,792.5000034267642,1511.4999875694257L872.5000034267642,1511.4999875694257"></path><path id="kity_path_107" fill="none" stroke="rgb(115, 161, 191)" stroke-width="1" d="M762.5000034267642,1679.4999875694257C777.5000034267642,1679.4999875694257,777.5000034267642,1563.4999875694257,792.5000034267642,1563.4999875694257L848.5000034267642,1563.4999875694257"></path><path id="kity_path_109" fill="none" stroke="rgb(115, 161, 191)" stroke-width="1" d="M762.5000034267642,1679.4999875694257C777.5000034267642,1679.4999875694257,777.5000034267642,1680.4999875694257,792.5000034267642,1680.4999875694257L896.5000034267642,1680.4999875694257"></path><path id="kity_path_111" fill="none" stroke="rgb(115, 161, 191)" stroke-width="1" d="M896.5000034267642,1680.4999875694257C911.5000034267642,1680.4999875694257,911.5000034267642,1615.4999875694257,926.5000034267642,1615.4999875694257L993.5000034267642,1615.4999875694257"></path><path id="kity_path_113" fill="none" stroke="rgb(115, 161, 191)" stroke-width="1" d="M896.5000034267642,1680.4999875694257C911.5000034267642,1680.4999875694257,911.5000034267642,1667.4999875694257,926.5000034267642,1667.4999875694257L982.5000034267642,1667.4999875694257"></path><path id="kity_path_115" fill="none" stroke="rgb(115, 161, 191)" stroke-width="1" d="M896.5000034267642,1680.4999875694257C911.5000034267642,1680.4999875694257,911.5000034267642,1745.4999875694257,926.5000034267642,1745.4999875694257L1006.5000034267642,1745.4999875694257"></path><path id="kity_path_117" fill="none" stroke="rgb(115, 161, 191)" stroke-width="1" d="M1006.5000034267642,1745.4999875694257C1021.5000034267642,1745.4999875694257,1021.5000034267642,1719.4999875694257,1036.5000034267641,1719.4999875694257L1139.5000034267641,1719.4999875694257"></path><path id="kity_path_119" fill="none" stroke="rgb(115, 161, 191)" stroke-width="1" d="M1006.5000034267642,1745.4999875694257C1021.5000034267642,1745.4999875694257,1021.5000034267642,1771.4999875694257,1036.5000034267641,1771.4999875694257L1139.5000034267641,1771.4999875694257"></path><path id="kity_path_121" fill="none" stroke="rgb(115, 161, 191)" stroke-width="1" d="M762.5000034267642,1679.4999875694257C777.5000034267642,1679.4999875694257,777.5000034267642,1875.4999875694257,792.5000034267642,1875.4999875694257L896.5000034267642,1875.4999875694257"></path><path id="kity_path_123" fill="none" stroke="rgb(115, 161, 191)" stroke-width="1" d="M896.5000034267642,1875.4999875694257C911.5000034267642,1875.4999875694257,911.5000034267642,1823.4999875694257,926.5000034267642,1823.4999875694257L982.5000034267642,1823.4999875694257"></path><path id="kity_path_125" fill="none" stroke="rgb(115, 161, 191)" stroke-width="1" d="M896.5000034267642,1875.4999875694257C911.5000034267642,1875.4999875694257,911.5000034267642,1875.4999875694257,926.5000034267642,1875.4999875694257L982.5000034267642,1875.4999875694257"></path><path id="kity_path_127" fill="none" stroke="rgb(115, 161, 191)" stroke-width="1" d="M896.5000034267642,1875.4999875694257C911.5000034267642,1875.4999875694257,911.5000034267642,1927.4999875694257,926.5000034267642,1927.4999875694257L982.5000034267642,1927.4999875694257"></path><path id="kity_path_129" fill="none" stroke="rgb(115, 161, 191)" stroke-width="1" d="M501.00000342676424,1471.4999875694257A190.5,686,0,0,0,691.5000034267642,2157.4999875694257"></path><path id="kity_path_131" fill="none" stroke="rgb(115, 161, 191)" stroke-width="1" d="M762.5000034267642,2157.4999875694257C777.5000034267642,2157.4999875694257,777.5000034267642,2041.4999875694257,792.5000034267642,2041.4999875694257L860.5000034267642,2041.4999875694257"></path><path id="kity_path_133" fill="none" stroke="rgb(115, 161, 191)" stroke-width="1" d="M860.5000034267642,2041.4999875694257C875.5000034267642,2041.4999875694257,875.5000034267642,1989.4999875694257,890.5000034267642,1989.4999875694257L945.5000034267642,1989.4999875694257"></path><path id="kity_path_135" fill="none" stroke="rgb(115, 161, 191)" stroke-width="1" d="M860.5000034267642,2041.4999875694257C875.5000034267642,2041.4999875694257,875.5000034267642,2041.4999875694257,890.5000034267642,2041.4999875694257L946.5000034267642,2041.4999875694257"></path><path id="kity_path_137" fill="none" stroke="rgb(115, 161, 191)" stroke-width="1" d="M860.5000034267642,2041.4999875694257C875.5000034267642,2041.4999875694257,875.5000034267642,2093.4999875694257,890.5000034267642,2093.4999875694257L946.5000034267642,2093.4999875694257"></path><path id="kity_path_139" fill="none" stroke="rgb(115, 161, 191)" stroke-width="1" d="M762.5000034267642,2157.4999875694257C777.5000034267642,2157.4999875694257,777.5000034267642,2145.4999875694257,792.5000034267642,2145.4999875694257L871.5000034267642,2145.4999875694257"></path><path id="kity_path_141" fill="none" stroke="rgb(115, 161, 191)" stroke-width="1" d="M762.5000034267642,2157.4999875694257C777.5000034267642,2157.4999875694257,777.5000034267642,2197.4999875694257,792.5000034267642,2197.4999875694257L871.5000034267642,2197.4999875694257"></path><path id="kity_path_143" fill="none" stroke="rgb(115, 161, 191)" stroke-width="1" d="M762.5000034267642,2157.4999875694257C777.5000034267642,2157.4999875694257,777.5000034267642,2249.4999875694257,792.5000034267642,2249.4999875694257L871.5000034267642,2249.4999875694257"></path><path id="kity_path_145" fill="none" stroke="rgb(115, 161, 191)" stroke-width="1" d="M762.5000034267642,2157.4999875694257C777.5000034267642,2157.4999875694257,777.5000034267642,2301.4999875694257,792.5000034267642,2301.4999875694257L870.5000034267642,2301.4999875694257"></path><path id="kity_path_147" fill="none" stroke="rgb(115, 161, 191)" stroke-width="1" d="M501.00000342676424,1471.4999875694257A190.5,192,0,0,0,310.50000342676424,1279.4999875694257"></path><path id="kity_path_149" fill="none" stroke="rgb(115, 161, 191)" stroke-width="1" d="M239.50000342676424,1279.4999875694257C224.50000342676424,1279.4999875694257,224.50000342676424,1215.4999875694257,209.50000342676424,1215.4999875694257L130.50000342676424,1215.4999875694257"></path><path id="kity_path_151" fill="none" stroke="rgb(115, 161, 191)" stroke-width="1" d="M130.50000342676424,1215.4999875694257C115.50000342676424,1215.4999875694257,115.50000342676424,1163.4999875694257,100.50000342676424,1163.4999875694257L22.500003426764238,1163.4999875694257"></path><path id="kity_path_153" fill="none" stroke="rgb(115, 161, 191)" stroke-width="1" d="M130.50000342676424,1215.4999875694257C115.50000342676424,1215.4999875694257,115.50000342676424,1215.4999875694257,100.50000342676424,1215.4999875694257L20.500003426764238,1215.4999875694257"></path><path id="kity_path_155" fill="none" stroke="rgb(115, 161, 191)" stroke-width="1" d="M130.50000342676424,1215.4999875694257C115.50000342676424,1215.4999875694257,115.50000342676424,1267.4999875694257,100.50000342676424,1267.4999875694257L20.500003426764238,1267.4999875694257"></path><path id="kity_path_157" fill="none" stroke="rgb(115, 161, 191)" stroke-width="1" d="M239.50000342676424,1279.4999875694257C224.50000342676424,1279.4999875694257,224.50000342676424,1319.4999875694257,209.50000342676424,1319.4999875694257L154.50000342676424,1319.4999875694257"></path><path id="kity_path_159" fill="none" stroke="rgb(115, 161, 191)" stroke-width="1" d="M239.50000342676424,1279.4999875694257C224.50000342676424,1279.4999875694257,224.50000342676424,1371.4999875694257,209.50000342676424,1371.4999875694257L165.50000342676424,1371.4999875694257"></path><path id="kity_path_161" fill="none" stroke="rgb(115, 161, 191)" stroke-width="1" d="M501.00000342676424,1471.4999875694257A190.5,0,0,0,1,310.50000342676424,1471.4999875694257"></path><path id="kity_path_163" fill="none" stroke="rgb(115, 161, 191)" stroke-width="1" d="M240.50000342676424,1471.4999875694257C225.50000342676424,1471.4999875694257,225.50000342676424,1433.4999875694257,210.50000342676424,1433.4999875694257L106.50000342676424,1433.4999875694257"></path><path id="kity_path_165" fill="none" stroke="rgb(115, 161, 191)" stroke-width="1" d="M240.50000342676424,1471.4999875694257C225.50000342676424,1471.4999875694257,225.50000342676424,1485.4999875694257,210.50000342676424,1485.4999875694257L119.50000342676424,1485.4999875694257"></path><path id="kity_path_167" fill="none" stroke="rgb(115, 161, 191)" stroke-width="1" d="M240.50000342676424,1471.4999875694257C225.50000342676424,1471.4999875694257,225.50000342676424,1537.4999875694257,210.50000342676424,1537.4999875694257L131.50000342676424,1537.4999875694257"></path><path id="kity_path_169" fill="none" stroke="rgb(115, 161, 191)" stroke-width="1" d="M501.00000342676424,1471.4999875694257A190.5,192,0,0,1,310.50000342676424,1663.4999875694257"></path><path id="kity_path_171" fill="none" stroke="rgb(115, 161, 191)" stroke-width="1" d="M239.50000342676424,1663.4999875694257C224.50000342676424,1663.4999875694257,224.50000342676424,1599.4999875694257,209.50000342676424,1599.4999875694257L154.50000342676424,1599.4999875694257"></path><path id="kity_path_173" fill="none" stroke="rgb(115, 161, 191)" stroke-width="1" d="M154.50000342676424,1599.4999875694257C139.50000342676424,1599.4999875694257,139.50000342676424,1599.4999875694257,124.50000342676424,1599.4999875694257L33.50000342676424,1599.4999875694257"></path><path id="kity_path_175" fill="none" stroke="rgb(115, 161, 191)" stroke-width="1" d="M239.50000342676424,1663.4999875694257C224.50000342676424,1663.4999875694257,224.50000342676424,1651.4999875694257,209.50000342676424,1651.4999875694257L119.50000342676424,1651.4999875694257"></path><path id="kity_path_177" fill="none" stroke="rgb(115, 161, 191)" stroke-width="1" d="M239.50000342676424,1663.4999875694257C224.50000342676424,1663.4999875694257,224.50000342676424,1703.4999875694257,209.50000342676424,1703.4999875694257L153.50000342676424,1703.4999875694257"></path><path id="kity_path_179" fill="none" stroke="rgb(115, 161, 191)" stroke-width="1" d="M239.50000342676424,1663.4999875694257C224.50000342676424,1663.4999875694257,224.50000342676424,1755.4999875694257,209.50000342676424,1755.4999875694257L154.50000342676424,1755.4999875694257"></path></g><g id="minder_node1"><path id="node_outline1" fill="rgb(115, 161, 191)" stroke="rgb(57, 80, 96)" d="M433.50000342676424,1451.4999875694257h135a5,5,0,0,1,5,5v30a5,5,0,0,1,-5,5h-135a5,5,0,0,1,-5,-5v-30a5,5,0,0,1,5,-5z" stroke-width="3"></path><g id="node_text1" fill="white"><text id="kity_text_22" text-rendering="inherit" font-size="16" dy=".8em" y="1461.0999875970742" x="452.50000342676424">编程语言导图</text></g></g><g id="kity_g_12"><path id="kity_path_13" fill="none" stroke="none" d="M452.50000342676424,1471.4999875694257h0v0h0z"></path></g><g id="kity_g_14"><path id="kity_path_15" fill="none" stroke="none" d="M452.50000342676424,1471.4999875694257h0v0h0z"></path><path id="kity_path_16" fill="none" stroke="none"></path></g><g id="minder_node2"><g id="node_expander36" style="cursor: pointer;"><path id="kity_path_511" fill="white" stroke="gray" d="M692.4999978459658,785.5000064676057A6,6,0,1,1,680.4999978459658,785.5000064676057A6,6,0,1,1,692.4999978459658,785.5000064676057"></path><path id="kity_path_512" fill="none" stroke="gray" d="M681.9999978459658,785.5000064676057L690.9999978459658,785.5000064676057"></path></g><path id="node_outline37" fill="rgb(238, 243, 246)" stroke="rgb(115, 161, 191)" d="M696.4999962366404,772.5000064676057h63a3,3,0,0,1,3,3v20a3,3,0,0,1,-3,3h-63a3,3,0,0,1,-3,-3v-20a3,3,0,0,1,3,-3z" stroke-width="1"></path><g id="node_text37" fill="black"><text id="kity_text_251" text-rendering="inherit" font-size="14" dy=".8em" y="776.400006708178" x="713.4999962366404">常识</text></g></g><g id="minder_node3"><g id="node_expander7" style="cursor: pointer;"><path id="kity_path_424" fill="white" stroke="gray" d="M802.4999939501259,135.5000243740442A6,6,0,1,1,790.4999939501259,135.5000243740442A6,6,0,1,1,802.4999939501259,135.5000243740442"></path><path id="kity_path_425" fill="none" stroke="gray" d="M791.9999939501259,135.5000243740442L800.9999939501259,135.5000243740442"></path></g><path id="node_outline8" fill="none" stroke="none" d="M807.4999935093521,124.50002437404419h59a5,5,0,0,1,5,5v12a5,5,0,0,1,-5,5h-59a5,5,0,0,1,-5,-5v-12a5,5,0,0,1,5,-5z"></path><g id="node_text8" fill="black"><text id="kity_text_193" text-rendering="inherit" font-size="12" dy=".8em" y="127.70002444286501" x="812.4999935093521">设计模式</text></g></g><g id="minder_node4"><g id="node_expander6" style="cursor: pointer;"><path id="kity_path_421" fill="white" stroke="gray" d="M911.4999909473538,135.5000243740442A6,6,0,1,1,899.4999909473538,135.5000243740442A6,6,0,1,1,911.4999909473538,135.5000243740442"></path><path id="kity_path_422" fill="none" stroke="gray" d="M900.9999909473538,135.5000243740442L909.9999909473538,135.5000243740442"></path></g><path id="node_outline7" fill="none" stroke="none" d="M916.4999905065799,124.50002437404419h73a5,5,0,0,1,5,5v12a5,5,0,0,1,-5,5h-73a5,5,0,0,1,-5,-5v-12a5,5,0,0,1,5,-5z"></path><g id="node_text7" fill="black"><text id="kity_text_191" text-rendering="inherit" font-size="12" dy=".8em" y="127.70002444286501" x="921.4999905065799">SOLID 原则</text></g></g><g id="minder_node5"><g id="node_expander1" display="none" style="cursor: pointer;"><path id="kity_path_406" fill="white" stroke="gray" d="M1034.4999875589046,31.50002723907437A6,6,0,1,1,1022.4999875589046,31.50002723907437A6,6,0,1,1,1034.4999875589046,31.50002723907437"></path><path id="kity_path_407" fill="none" stroke="gray"></path></g><path id="node_outline2" fill="none" stroke="none" d="M1039.4999871181308,20.50002723907437h256a5,5,0,0,1,5,5v12a5,5,0,0,1,-5,5h-256a5,5,0,0,1,-5,-5v-12a5,5,0,0,1,5,-5z"></path><g id="node_text2" fill="black"><text id="kity_text_181" text-rendering="inherit" font-size="12" dy=".8em" y="23.700027307895198" x="1044.4999871181308">单一职责原则&#xa0;Single-responsibility&#xa0;Principle</text></g></g><g id="minder_node6"><g id="node_expander2" display="none" style="cursor: pointer;"><path id="kity_path_409" fill="white" stroke="gray" d="M1034.4999875589046,83.5000258065595A6,6,0,1,1,1022.4999875589046,83.5000258065595A6,6,0,1,1,1034.4999875589046,83.5000258065595"></path><path id="kity_path_410" fill="none" stroke="gray"></path></g><path id="node_outline3" fill="none" stroke="none" d="M1039.4999871181308,72.5000258065595h213a5,5,0,0,1,5,5v12a5,5,0,0,1,-5,5h-213a5,5,0,0,1,-5,-5v-12a5,5,0,0,1,5,-5z"></path><g id="node_text3" fill="black"><text id="kity_text_183" text-rendering="inherit" font-size="12" dy=".8em" y="75.70002587538033" x="1044.4999871181308">开放闭合原则&#xa0;Open-closed&#xa0;Principle</text></g></g><g id="minder_node7"><g id="node_expander3" display="none" style="cursor: pointer;"><path id="kity_path_412" fill="white" stroke="gray" d="M1034.4999875589046,135.5000243740442A6,6,0,1,1,1022.4999875589046,135.5000243740442A6,6,0,1,1,1034.4999875589046,135.5000243740442"></path><path id="kity_path_413" fill="none" stroke="gray"></path></g><path id="node_outline4" fill="none" stroke="none" d="M1039.4999871181308,124.50002437404419h248a5,5,0,0,1,5,5v12a5,5,0,0,1,-5,5h-248a5,5,0,0,1,-5,-5v-12a5,5,0,0,1,5,-5z"></path><g id="node_text4" fill="black"><text id="kity_text_185" text-rendering="inherit" font-size="12" dy=".8em" y="127.70002444286501" x="1044.4999871181308">里氏替换原则&#xa0;Liskov&#xa0;Substitution&#xa0;Principle</text></g></g><g id="minder_node8"><g id="node_expander4" display="none" style="cursor: pointer;"><path id="kity_path_415" fill="white" stroke="gray" d="M1034.4999875589046,187.5000229415291A6,6,0,1,1,1022.4999875589046,187.5000229415291A6,6,0,1,1,1034.4999875589046,187.5000229415291"></path><path id="kity_path_416" fill="none" stroke="gray"></path></g><path id="node_outline5" fill="none" stroke="none" d="M1039.4999871181308,176.5000229415291h263a5,5,0,0,1,5,5v12a5,5,0,0,1,-5,5h-263a5,5,0,0,1,-5,-5v-12a5,5,0,0,1,5,-5z"></path><g id="node_text5" fill="black"><text id="kity_text_187" text-rendering="inherit" font-size="12" dy=".8em" y="179.70002301034992" x="1044.4999871181308">接口隔离原则&#xa0;Interface&#xa0;Segregation&#xa0;Principle</text></g></g><g id="minder_node9"><g id="node_expander5" display="none" style="cursor: pointer;"><path id="kity_path_418" fill="white" stroke="gray" d="M1034.4999875589046,239.500021509014A6,6,0,1,1,1022.4999875589046,239.500021509014A6,6,0,1,1,1034.4999875589046,239.500021509014"></path><path id="kity_path_419" fill="none" stroke="gray"></path></g><path id="node_outline6" fill="none" stroke="none" d="M1039.4999871181308,228.500021509014h268a5,5,0,0,1,5,5v12a5,5,0,0,1,-5,5h-268a5,5,0,0,1,-5,-5v-12a5,5,0,0,1,5,-5z"></path><g id="node_text6" fill="black"><text id="kity_text_189" text-rendering="inherit" font-size="12" dy=".8em" y="231.70002157783483" x="1044.4999871181308">依赖倒置原则&#xa0;Dependency&#xa0;Inversion&#xa0;Principle</text></g></g><g id="minder_node10"><g id="node_expander34" style="cursor: pointer;"><path id="kity_path_505" fill="white" stroke="gray" d="M802.4999939501259,746.500007541992A6,6,0,1,1,790.4999939501259,746.500007541992A6,6,0,1,1,802.4999939501259,746.500007541992"></path><path id="kity_path_506" fill="none" stroke="gray" d="M791.9999939501259,746.500007541992L800.9999939501259,746.500007541992"></path></g><path id="node_outline35" fill="none" stroke="none" d="M807.4999935093521,735.500007541992h59a5,5,0,0,1,5,5v12a5,5,0,0,1,-5,5h-59a5,5,0,0,1,-5,-5v-12a5,5,0,0,1,5,-5z"></path><g id="node_text35" fill="black"><text id="kity_text_247" text-rendering="inherit" font-size="12" dy=".8em" y="738.7000076108128" x="812.4999935093521">编码原则</text></g></g><g id="minder_node11"><g id="node_expander13" style="cursor: pointer;"><path id="kity_path_442" fill="white" stroke="gray" d="M911.4999909473538,369.5000179277265A6,6,0,1,1,899.4999909473538,369.5000179277265A6,6,0,1,1,911.4999909473538,369.5000179277265"></path><path id="kity_path_443" fill="none" stroke="gray" d="M900.9999909473538,369.5000179277265L909.9999909473538,369.5000179277265"></path></g><path id="node_outline14" fill="none" stroke="none" d="M916.4999905065799,358.5000179277265h72a5,5,0,0,1,5,5v12a5,5,0,0,1,-5,5h-72a5,5,0,0,1,-5,-5v-12a5,5,0,0,1,5,-5z"></path><g id="node_text14" fill="black"><text id="kity_text_205" text-rendering="inherit" font-size="12" dy=".8em" y="361.70001799654733" x="921.4999905065799">构建型模式</text></g></g><g id="minder_node12"><g id="node_expander9" style="cursor: pointer;"><path id="kity_path_430" fill="white" stroke="gray" d="M1033.4999875864532,291.50002007649914A6,6,0,1,1,1021.4999875864532,291.50002007649914A6,6,0,1,1,1033.4999875864532,291.50002007649914"></path><path id="kity_path_431" fill="none" stroke="gray" d="M1022.9999875864532,291.50002007649914L1031.9999875864532,291.50002007649914"></path></g><path id="node_outline10" fill="none" stroke="none" d="M1038.4999871456794,280.50002007649914h59a5,5,0,0,1,5,5v12a5,5,0,0,1,-5,5h-59a5,5,0,0,1,-5,-5v-12a5,5,0,0,1,5,-5z"></path><g id="node_text10" fill="black"><text id="kity_text_197" text-rendering="inherit" font-size="12" dy=".8em" y="283.70002014531997" x="1043.4999871456794">工厂模式</text></g></g><g id="minder_node13"><g id="node_expander8" display="none" style="cursor: pointer;"><path id="kity_path_427" fill="white" stroke="gray" d="M1142.499984583681,291.50002007649914A6,6,0,1,1,1130.499984583681,291.50002007649914A6,6,0,1,1,1142.499984583681,291.50002007649914"></path><path id="kity_path_428" fill="none" stroke="gray"></path></g><path id="node_outline9" fill="none" stroke="none" d="M1147.4999841429071,280.50002007649914h84a5,5,0,0,1,5,5v12a5,5,0,0,1,-5,5h-84a5,5,0,0,1,-5,-5v-12a5,5,0,0,1,5,-5z"></path><g id="node_text9" fill="black"><text id="kity_text_195" text-rendering="inherit" font-size="12" dy=".8em" y="283.70002014531997" x="1152.4999841429071">抽象工厂模式</text></g></g><g id="minder_node14"><g id="node_expander10" display="none" style="cursor: pointer;"><path id="kity_path_433" fill="white" stroke="gray" d="M1033.4999875864532,343.5000186439838A6,6,0,1,1,1021.4999875864532,343.5000186439838A6,6,0,1,1,1033.4999875864532,343.5000186439838"></path><path id="kity_path_434" fill="none" stroke="gray"></path></g><path id="node_outline11" fill="none" stroke="none" d="M1038.4999871456794,332.5000186439838h59a5,5,0,0,1,5,5v12a5,5,0,0,1,-5,5h-59a5,5,0,0,1,-5,-5v-12a5,5,0,0,1,5,-5z"></path><g id="node_text11" fill="black"><text id="kity_text_199" text-rendering="inherit" font-size="12" dy=".8em" y="335.70001871280465" x="1043.4999871456794">单例模式</text></g></g><g id="minder_node15"><g id="node_expander11" display="none" style="cursor: pointer;"><path id="kity_path_436" fill="white" stroke="gray" d="M1033.4999875864532,395.50001721146873A6,6,0,1,1,1021.4999875864532,395.50001721146873A6,6,0,1,1,1033.4999875864532,395.50001721146873"></path><path id="kity_path_437" fill="none" stroke="gray"></path></g><path id="node_outline12" fill="none" stroke="none" d="M1038.4999871456794,384.50001721146873h72a5,5,0,0,1,5,5v12a5,5,0,0,1,-5,5h-72a5,5,0,0,1,-5,-5v-12a5,5,0,0,1,5,-5z"></path><g id="node_text12" fill="black"><text id="kity_text_201" text-rendering="inherit" font-size="12" dy=".8em" y="387.70001728028956" x="1043.4999871456794">建造者模式</text></g></g><g id="minder_node16"><g id="node_expander12" display="none" style="cursor: pointer;"><path id="kity_path_439" fill="white" stroke="gray" d="M1033.4999875864532,447.50001577895364A6,6,0,1,1,1021.4999875864532,447.50001577895364A6,6,0,1,1,1033.4999875864532,447.50001577895364"></path><path id="kity_path_440" fill="none" stroke="gray"></path></g><path id="node_outline13" fill="none" stroke="none" d="M1038.4999871456794,436.50001577895364h60a5,5,0,0,1,5,5v12a5,5,0,0,1,-5,5h-60a5,5,0,0,1,-5,-5v-12a5,5,0,0,1,5,-5z"></path><g id="node_text13" fill="black"><text id="kity_text_203" text-rendering="inherit" font-size="12" dy=".8em" y="439.70001584777447" x="1043.4999871456794">原型模式</text></g></g><g id="minder_node17"><g id="node_expander21" style="cursor: pointer;"><path id="kity_path_466" fill="white" stroke="gray" d="M911.4999909473538,655.5000100488933A6,6,0,1,1,899.4999909473538,655.5000100488933A6,6,0,1,1,911.4999909473538,655.5000100488933"></path><path id="kity_path_467" fill="none" stroke="gray" d="M900.9999909473538,655.5000100488933L909.9999909473538,655.5000100488933"></path></g><path id="node_outline22" fill="none" stroke="none" d="M916.4999905065799,644.5000100488933h72a5,5,0,0,1,5,5v12a5,5,0,0,1,-5,5h-72a5,5,0,0,1,-5,-5v-12a5,5,0,0,1,5,-5z"></path><g id="node_text22" fill="black"><text id="kity_text_221" text-rendering="inherit" font-size="12" dy=".8em" y="647.7000101177141" x="921.4999905065799">结构型模式</text></g></g><g id="minder_node18"><g id="node_expander14" display="none" style="cursor: pointer;"><path id="kity_path_445" fill="white" stroke="gray" d="M1033.4999875864532,499.50001434643866A6,6,0,1,1,1021.4999875864532,499.50001434643866A6,6,0,1,1,1033.4999875864532,499.50001434643866"></path><path id="kity_path_446" fill="none" stroke="gray"></path></g><path id="node_outline15" fill="none" stroke="none" d="M1038.4999871456794,488.50001434643866h72a5,5,0,0,1,5,5v12a5,5,0,0,1,-5,5h-72a5,5,0,0,1,-5,-5v-12a5,5,0,0,1,5,-5z"></path><g id="node_text15" fill="black"><text id="kity_text_207" text-rendering="inherit" font-size="12" dy=".8em" y="491.7000144152595" x="1043.4999871456794">适配器模式</text></g></g><g id="minder_node19"><g id="node_expander15" display="none" style="cursor: pointer;"><path id="kity_path_448" fill="white" stroke="gray" d="M1033.4999875864532,551.5000129139235A6,6,0,1,1,1021.4999875864532,551.5000129139235A6,6,0,1,1,1033.4999875864532,551.5000129139235"></path><path id="kity_path_449" fill="none" stroke="gray"></path></g><path id="node_outline16" fill="none" stroke="none" d="M1038.4999871456794,540.5000129139235h60a5,5,0,0,1,5,5v12a5,5,0,0,1,-5,5h-60a5,5,0,0,1,-5,-5v-12a5,5,0,0,1,5,-5z"></path><g id="node_text16" fill="black"><text id="kity_text_209" text-rendering="inherit" font-size="12" dy=".8em" y="543.7000129827443" x="1043.4999871456794">桥接模式</text></g></g><g id="minder_node20"><g id="node_expander16" display="none" style="cursor: pointer;"><path id="kity_path_451" fill="white" stroke="gray" d="M1033.4999875864532,603.5000114814085A6,6,0,1,1,1021.4999875864532,603.5000114814085A6,6,0,1,1,1033.4999875864532,603.5000114814085"></path><path id="kity_path_452" fill="none" stroke="gray"></path></g><path id="node_outline17" fill="none" stroke="none" d="M1038.4999871456794,592.5000114814085h59a5,5,0,0,1,5,5v12a5,5,0,0,1,-5,5h-59a5,5,0,0,1,-5,-5v-12a5,5,0,0,1,5,-5z"></path><g id="node_text17" fill="black"><text id="kity_text_211" text-rendering="inherit" font-size="12" dy=".8em" y="595.7000115502293" x="1043.4999871456794">组合模式</text></g></g><g id="minder_node21"><g id="node_expander17" display="none" style="cursor: pointer;"><path id="kity_path_454" fill="white" stroke="gray" d="M1033.4999875864532,655.5000100488933A6,6,0,1,1,1021.4999875864532,655.5000100488933A6,6,0,1,1,1033.4999875864532,655.5000100488933"></path><path id="kity_path_455" fill="none" stroke="gray"></path></g><path id="node_outline18" fill="none" stroke="none" d="M1038.4999871456794,644.5000100488933h60a5,5,0,0,1,5,5v12a5,5,0,0,1,-5,5h-60a5,5,0,0,1,-5,-5v-12a5,5,0,0,1,5,-5z"></path><g id="node_text18" fill="black"><text id="kity_text_213" text-rendering="inherit" font-size="12" dy=".8em" y="647.7000101177141" x="1043.4999871456794">装饰模式</text></g></g><g id="minder_node22"><g id="node_expander18" display="none" style="cursor: pointer;"><path id="kity_path_457" fill="white" stroke="gray" d="M1033.4999875864532,707.5000086163783A6,6,0,1,1,1021.4999875864532,707.5000086163783A6,6,0,1,1,1033.4999875864532,707.5000086163783"></path><path id="kity_path_458" fill="none" stroke="gray"></path></g><path id="node_outline19" fill="none" stroke="none" d="M1038.4999871456794,696.5000086163783h60a5,5,0,0,1,5,5v12a5,5,0,0,1,-5,5h-60a5,5,0,0,1,-5,-5v-12a5,5,0,0,1,5,-5z"></path><g id="node_text19" fill="black"><text id="kity_text_215" text-rendering="inherit" font-size="12" dy=".8em" y="699.7000086851991" x="1043.4999871456794">外观模式</text></g></g><g id="minder_node23"><g id="node_expander19" display="none" style="cursor: pointer;"><path id="kity_path_460" fill="white" stroke="gray" d="M1033.4999875864532,759.5000071838631A6,6,0,1,1,1021.4999875864532,759.5000071838631A6,6,0,1,1,1033.4999875864532,759.5000071838631"></path><path id="kity_path_461" fill="none" stroke="gray"></path></g><path id="node_outline20" fill="none" stroke="none" d="M1038.4999871456794,748.5000071838631h59a5,5,0,0,1,5,5v12a5,5,0,0,1,-5,5h-59a5,5,0,0,1,-5,-5v-12a5,5,0,0,1,5,-5z"></path><g id="node_text20" fill="black"><text id="kity_text_217" text-rendering="inherit" font-size="12" dy=".8em" y="751.7000072526839" x="1043.4999871456794">享元模式</text></g></g><g id="minder_node24"><g id="node_expander20" display="none" style="cursor: pointer;"><path id="kity_path_463" fill="white" stroke="gray" d="M1033.4999875864532,811.5000057513481A6,6,0,1,1,1021.4999875864532,811.5000057513481A6,6,0,1,1,1033.4999875864532,811.5000057513481"></path><path id="kity_path_464" fill="none" stroke="gray"></path></g><path id="node_outline21" fill="none" stroke="none" d="M1038.4999871456794,800.5000057513481h60a5,5,0,0,1,5,5v12a5,5,0,0,1,-5,5h-60a5,5,0,0,1,-5,-5v-12a5,5,0,0,1,5,-5z"></path><g id="node_text21" fill="black"><text id="kity_text_219" text-rendering="inherit" font-size="12" dy=".8em" y="803.7000058201689" x="1043.4999871456794">代理模式</text></g></g><g id="minder_node25"><g id="node_expander33" style="cursor: pointer;"><path id="kity_path_502" fill="white" stroke="gray" d="M911.4999909473538,1123.4999971562575A6,6,0,1,1,899.4999909473538,1123.4999971562575A6,6,0,1,1,911.4999909473538,1123.4999971562575"></path><path id="kity_path_503" fill="none" stroke="gray" d="M900.9999909473538,1123.4999971562575L909.9999909473538,1123.4999971562575"></path></g><path id="node_outline34" fill="none" stroke="none" d="M916.4999905065799,1112.4999971562575h72a5,5,0,0,1,5,5v12a5,5,0,0,1,-5,5h-72a5,5,0,0,1,-5,-5v-12a5,5,0,0,1,5,-5z"></path><g id="node_text34" fill="black"><text id="kity_text_245" text-rendering="inherit" font-size="12" dy=".8em" y="1115.6999972250783" x="921.4999905065799">行为型模式</text></g></g><g id="minder_node26"><g id="node_expander22" display="none" style="cursor: pointer;"><path id="kity_path_469" fill="white" stroke="gray" d="M1033.4999875864532,863.5000043188329A6,6,0,1,1,1021.4999875864532,863.5000043188329A6,6,0,1,1,1033.4999875864532,863.5000043188329"></path><path id="kity_path_470" fill="none" stroke="gray"></path></g><path id="node_outline23" fill="none" stroke="none" d="M1038.4999871456794,852.5000043188329h72a5,5,0,0,1,5,5v12a5,5,0,0,1,-5,5h-72a5,5,0,0,1,-5,-5v-12a5,5,0,0,1,5,-5z"></path><g id="node_text23" fill="black"><text id="kity_text_223" text-rendering="inherit" font-size="12" dy=".8em" y="855.7000043876537" x="1043.4999871456794">责任链模式</text></g></g><g id="minder_node27"><g id="node_expander23" display="none" style="cursor: pointer;"><path id="kity_path_472" fill="white" stroke="gray" d="M1033.4999875864532,915.5000028863178A6,6,0,1,1,1021.4999875864532,915.5000028863178A6,6,0,1,1,1033.4999875864532,915.5000028863178"></path><path id="kity_path_473" fill="none" stroke="gray"></path></g><path id="node_outline24" fill="none" stroke="none" d="M1038.4999871456794,904.5000028863178h60a5,5,0,0,1,5,5v12a5,5,0,0,1,-5,5h-60a5,5,0,0,1,-5,-5v-12a5,5,0,0,1,5,-5z"></path><g id="node_text24" fill="black"><text id="kity_text_225" text-rendering="inherit" font-size="12" dy=".8em" y="907.7000029551386" x="1043.4999871456794">命令模式</text></g></g><g id="minder_node28"><g id="node_expander24" display="none" style="cursor: pointer;"><path id="kity_path_475" fill="white" stroke="gray" d="M1033.4999875864532,967.5000014538027A6,6,0,1,1,1021.4999875864532,967.5000014538027A6,6,0,1,1,1033.4999875864532,967.5000014538027"></path><path id="kity_path_476" fill="none" stroke="gray"></path></g><path id="node_outline25" fill="none" stroke="none" d="M1038.4999871456794,956.5000014538027h72a5,5,0,0,1,5,5v12a5,5,0,0,1,-5,5h-72a5,5,0,0,1,-5,-5v-12a5,5,0,0,1,5,-5z"></path><g id="node_text25" fill="black"><text id="kity_text_227" text-rendering="inherit" font-size="12" dy=".8em" y="959.7000015226236" x="1043.4999871456794">解释器模式</text></g></g><g id="minder_node29"><g id="node_expander25" display="none" style="cursor: pointer;"><path id="kity_path_478" fill="white" stroke="gray" d="M1033.4999875864532,1019.5000000212876A6,6,0,1,1,1021.4999875864532,1019.5000000212876A6,6,0,1,1,1033.4999875864532,1019.5000000212876"></path><path id="kity_path_479" fill="none" stroke="gray"></path></g><path id="node_outline26" fill="none" stroke="none" d="M1038.4999871456794,1008.5000000212876h72a5,5,0,0,1,5,5v12a5,5,0,0,1,-5,5h-72a5,5,0,0,1,-5,-5v-12a5,5,0,0,1,5,-5z"></path><g id="node_text26" fill="black"><text id="kity_text_229" text-rendering="inherit" font-size="12" dy=".8em" y="1011.7000000901085" x="1043.4999871456794">迭代器模式</text></g></g><g id="minder_node30"><g id="node_expander26" display="none" style="cursor: pointer;"><path id="kity_path_481" fill="white" stroke="gray" d="M1033.4999875864532,1071.4999985887725A6,6,0,1,1,1021.4999875864532,1071.4999985887725A6,6,0,1,1,1033.4999875864532,1071.4999985887725"></path><path id="kity_path_482" fill="none" stroke="gray"></path></g><path id="node_outline27" fill="none" stroke="none" d="M1038.4999871456794,1060.4999985887725h72a5,5,0,0,1,5,5v12a5,5,0,0,1,-5,5h-72a5,5,0,0,1,-5,-5v-12a5,5,0,0,1,5,-5z"></path><g id="node_text27" fill="black"><text id="kity_text_231" text-rendering="inherit" font-size="12" dy=".8em" y="1063.6999986575934" x="1043.4999871456794">观察者模式</text></g></g><g id="minder_node31"><g id="node_expander27" display="none" style="cursor: pointer;"><path id="kity_path_484" fill="white" stroke="gray" d="M1033.4999875864532,1123.4999971562575A6,6,0,1,1,1021.4999875864532,1123.4999971562575A6,6,0,1,1,1033.4999875864532,1123.4999971562575"></path><path id="kity_path_485" fill="none" stroke="gray"></path></g><path id="node_outline28" fill="none" stroke="none" d="M1038.4999871456794,1112.4999971562575h72a5,5,0,0,1,5,5v12a5,5,0,0,1,-5,5h-72a5,5,0,0,1,-5,-5v-12a5,5,0,0,1,5,-5z"></path><g id="node_text28" fill="black"><text id="kity_text_233" text-rendering="inherit" font-size="12" dy=".8em" y="1115.6999972250783" x="1043.4999871456794">备忘录模式</text></g></g><g id="minder_node32"><g id="node_expander28" display="none" style="cursor: pointer;"><path id="kity_path_487" fill="white" stroke="gray" d="M1033.4999875864532,1175.4999957237424A6,6,0,1,1,1021.4999875864532,1175.4999957237424A6,6,0,1,1,1033.4999875864532,1175.4999957237424"></path><path id="kity_path_488" fill="none" stroke="gray"></path></g><path id="node_outline29" fill="none" stroke="none" d="M1038.4999871456794,1164.4999957237424h72a5,5,0,0,1,5,5v12a5,5,0,0,1,-5,5h-72a5,5,0,0,1,-5,-5v-12a5,5,0,0,1,5,-5z"></path><g id="node_text29" fill="black"><text id="kity_text_235" text-rendering="inherit" font-size="12" dy=".8em" y="1167.6999957925632" x="1043.4999871456794">终结者模式</text></g></g><g id="minder_node33"><g id="node_expander29" display="none" style="cursor: pointer;"><path id="kity_path_490" fill="white" stroke="gray" d="M1033.4999875864532,1227.4999942912273A6,6,0,1,1,1021.4999875864532,1227.4999942912273A6,6,0,1,1,1033.4999875864532,1227.4999942912273"></path><path id="kity_path_491" fill="none" stroke="gray"></path></g><path id="node_outline30" fill="none" stroke="none" d="M1038.4999871456794,1216.4999942912273h60a5,5,0,0,1,5,5v12a5,5,0,0,1,-5,5h-60a5,5,0,0,1,-5,-5v-12a5,5,0,0,1,5,-5z"></path><g id="node_text30" fill="black"><text id="kity_text_237" text-rendering="inherit" font-size="12" dy=".8em" y="1219.699994360048" x="1043.4999871456794">状态模式</text></g></g><g id="minder_node34"><g id="node_expander30" display="none" style="cursor: pointer;"><path id="kity_path_493" fill="white" stroke="gray" d="M1033.4999875864532,1279.4999928587122A6,6,0,1,1,1021.4999875864532,1279.4999928587122A6,6,0,1,1,1033.4999875864532,1279.4999928587122"></path><path id="kity_path_494" fill="none" stroke="gray"></path></g><path id="node_outline31" fill="none" stroke="none" d="M1038.4999871456794,1268.4999928587122h60a5,5,0,0,1,5,5v12a5,5,0,0,1,-5,5h-60a5,5,0,0,1,-5,-5v-12a5,5,0,0,1,5,-5z"></path><g id="node_text31" fill="black"><text id="kity_text_239" text-rendering="inherit" font-size="12" dy=".8em" y="1271.699992927533" x="1043.4999871456794">策略模式</text></g></g><g id="minder_node35"><g id="node_expander31" display="none" style="cursor: pointer;"><path id="kity_path_496" fill="white" stroke="gray" d="M1033.4999875864532,1331.499991426197A6,6,0,1,1,1021.4999875864532,1331.499991426197A6,6,0,1,1,1033.4999875864532,1331.499991426197"></path><path id="kity_path_497" fill="none" stroke="gray"></path></g><path id="node_outline32" fill="none" stroke="none" d="M1038.4999871456794,1320.499991426197h84a5,5,0,0,1,5,5v12a5,5,0,0,1,-5,5h-84a5,5,0,0,1,-5,-5v-12a5,5,0,0,1,5,-5z"></path><g id="node_text32" fill="black"><text id="kity_text_241" text-rendering="inherit" font-size="12" dy=".8em" y="1323.699991495018" x="1043.4999871456794">模板方法模式</text></g></g><g id="minder_node36"><g id="node_expander32" display="none" style="cursor: pointer;"><path id="kity_path_499" fill="white" stroke="gray" d="M1033.4999875864532,1383.499989993682A6,6,0,1,1,1021.4999875864532,1383.499989993682A6,6,0,1,1,1033.4999875864532,1383.499989993682"></path><path id="kity_path_500" fill="none" stroke="gray"></path></g><path id="node_outline33" fill="none" stroke="none" d="M1038.4999871456794,1372.499989993682h71a5,5,0,0,1,5,5v12a5,5,0,0,1,-5,5h-71a5,5,0,0,1,-5,-5v-12a5,5,0,0,1,5,-5z"></path><g id="node_text33" fill="black"><text id="kity_text_243" text-rendering="inherit" font-size="12" dy=".8em" y="1375.6999900625028" x="1043.4999871456794">访问者模式</text></g></g><g id="minder_node37"><g id="node_expander35" display="none" style="cursor: pointer;"><path id="kity_path_508" fill="white" stroke="gray" d="M802.4999939501259,1435.499988561167A6,6,0,1,1,790.4999939501259,1435.499988561167A6,6,0,1,1,802.4999939501259,1435.499988561167"></path><path id="kity_path_509" fill="none" stroke="gray"></path></g><path id="node_outline36" fill="none" stroke="none" d="M807.4999935093521,1424.499988561167h60a5,5,0,0,1,5,5v12a5,5,0,0,1,-5,5h-60a5,5,0,0,1,-5,-5v-12a5,5,0,0,1,5,-5z"></path><g id="node_text36" fill="black"><text id="kity_text_249" text-rendering="inherit" font-size="12" dy=".8em" y="1427.6999886299877" x="812.4999935093521">编程经验</text></g></g><g id="minder_node38"><g id="node_expander49" style="cursor: pointer;"><path id="kity_path_550" fill="white" stroke="gray" d="M692.4999978459658,1679.4999818393653A6,6,0,1,1,680.4999978459658,1679.4999818393653A6,6,0,1,1,692.4999978459658,1679.4999818393653"></path><path id="kity_path_551" fill="none" stroke="gray" d="M681.9999978459658,1679.4999818393653L690.9999978459658,1679.4999818393653"></path></g><path id="node_outline50" fill="rgb(238, 243, 246)" stroke="rgb(115, 161, 191)" d="M696.4999962366404,1666.4999818393653h63a3,3,0,0,1,3,3v20a3,3,0,0,1,-3,3h-63a3,3,0,0,1,-3,-3v-20a3,3,0,0,1,3,-3z" stroke-width="1"></path><g id="node_text50" fill="black"><text id="kity_text_277" text-rendering="inherit" font-size="14" dy=".8em" y="1670.3999820799377" x="713.4999962366404">基础</text></g></g><g id="minder_node39"><g id="node_expander37" display="none" style="cursor: pointer;"><path id="kity_path_514" fill="white" stroke="gray" d="M802.4999939501259,1497.4999868531681A6,6,0,1,1,790.4999939501259,1497.4999868531681A6,6,0,1,1,802.4999939501259,1497.4999868531681"></path><path id="kity_path_515" fill="none" stroke="gray"></path></g><path id="node_outline38" fill="none" stroke="none" d="M807.4999935093521,1486.4999868531681h60a5,5,0,0,1,5,5v12a5,5,0,0,1,-5,5h-60a5,5,0,0,1,-5,-5v-12a5,5,0,0,1,5,-5z"></path><g id="node_text38" fill="black"><text id="kity_text_253" text-rendering="inherit" font-size="12" dy=".8em" y="1489.699986921989" x="812.4999935093521">命名规范</text></g></g><g id="minder_node40"><g id="node_expander38" display="none" style="cursor: pointer;"><path id="kity_path_517" fill="white" stroke="gray" d="M802.4999939501259,1549.499985420653A6,6,0,1,1,790.4999939501259,1549.499985420653A6,6,0,1,1,802.4999939501259,1549.499985420653"></path><path id="kity_path_518" fill="none" stroke="gray"></path></g><path id="node_outline39" fill="none" stroke="none" d="M807.4999935093521,1538.499985420653h36a5,5,0,0,1,5,5v12a5,5,0,0,1,-5,5h-36a5,5,0,0,1,-5,-5v-12a5,5,0,0,1,5,-5z"></path><g id="node_text39" fill="black"><text id="kity_text_255" text-rendering="inherit" font-size="12" dy=".8em" y="1541.6999854894739" x="812.4999935093521">注释</text></g></g><g id="minder_node41"><g id="node_expander44" style="cursor: pointer;"><path id="kity_path_535" fill="white" stroke="gray" d="M802.4999939501259,1666.499982197494A6,6,0,1,1,790.4999939501259,1666.499982197494A6,6,0,1,1,802.4999939501259,1666.499982197494"></path><path id="kity_path_536" fill="none" stroke="gray" d="M791.9999939501259,1666.499982197494L800.9999939501259,1666.499982197494"></path></g><path id="node_outline45" fill="none" stroke="none" d="M807.4999935093521,1655.499982197494h84a5,5,0,0,1,5,5v12a5,5,0,0,1,-5,5h-84a5,5,0,0,1,-5,-5v-12a5,5,0,0,1,5,-5z"></path><g id="node_text45" fill="black"><text id="kity_text_267" text-rendering="inherit" font-size="12" dy=".8em" y="1658.699982266315" x="812.4999935093521">基本数据类型</text></g></g><g id="minder_node42"><g id="node_expander39" display="none" style="cursor: pointer;"><path id="kity_path_520" fill="white" stroke="gray" d="M936.4999902586446,1601.499983988138A6,6,0,1,1,924.4999902586446,1601.499983988138A6,6,0,1,1,936.4999902586446,1601.499983988138"></path><path id="kity_path_521" fill="none" stroke="gray"></path></g><path id="node_outline40" fill="none" stroke="none" d="M941.4999898178708,1590.499983988138h47a5,5,0,0,1,5,5v12a5,5,0,0,1,-5,5h-47a5,5,0,0,1,-5,-5v-12a5,5,0,0,1,5,-5z"></path><g id="node_text40" fill="black"><text id="kity_text_257" text-rendering="inherit" font-size="12" dy=".8em" y="1593.6999840569588" x="946.4999898178708">字面值</text></g></g><g id="minder_node43"><g id="node_expander40" display="none" style="cursor: pointer;"><path id="kity_path_523" fill="white" stroke="gray" d="M936.4999902586446,1653.4999825556229A6,6,0,1,1,924.4999902586446,1653.4999825556229A6,6,0,1,1,936.4999902586446,1653.4999825556229"></path><path id="kity_path_524" fill="none" stroke="gray"></path></g><path id="node_outline41" fill="none" stroke="none" d="M941.4999898178708,1642.4999825556229h36a5,5,0,0,1,5,5v12a5,5,0,0,1,-5,5h-36a5,5,0,0,1,-5,-5v-12a5,5,0,0,1,5,-5z"></path><g id="node_text41" fill="black"><text id="kity_text_259" text-rendering="inherit" font-size="12" dy=".8em" y="1645.6999826244437" x="946.4999898178708">值域</text></g></g><g id="minder_node44"><g id="node_expander43" style="cursor: pointer;"><path id="kity_path_532" fill="white" stroke="gray" d="M936.4999902586446,1731.4999804068502A6,6,0,1,1,924.4999902586446,1731.4999804068502A6,6,0,1,1,936.4999902586446,1731.4999804068502"></path><path id="kity_path_533" fill="none" stroke="gray" d="M925.9999902586446,1731.4999804068502L934.9999902586446,1731.4999804068502"></path></g><path id="node_outline44" fill="none" stroke="none" d="M941.4999898178708,1720.4999804068502h60a5,5,0,0,1,5,5v12a5,5,0,0,1,-5,5h-60a5,5,0,0,1,-5,-5v-12a5,5,0,0,1,5,-5z"></path><g id="node_text44" fill="black"><text id="kity_text_265" text-rendering="inherit" font-size="12" dy=".8em" y="1723.699980475671" x="946.4999898178708">类型转换</text></g></g><g id="minder_node45"><g id="node_expander41" display="none" style="cursor: pointer;"><path id="kity_path_526" fill="white" stroke="gray" d="M1046.4999872283242,1705.4999811231078A6,6,0,1,1,1034.4999872283242,1705.4999811231078A6,6,0,1,1,1046.4999872283242,1705.4999811231078"></path><path id="kity_path_527" fill="none" stroke="gray"></path></g><path id="node_outline42" fill="none" stroke="none" d="M1051.4999867875504,1694.4999811231078h83a5,5,0,0,1,5,5v12a5,5,0,0,1,-5,5h-83a5,5,0,0,1,-5,-5v-12a5,5,0,0,1,5,-5z"></path><g id="node_text42" fill="black"><text id="kity_text_261" text-rendering="inherit" font-size="12" dy=".8em" y="1697.6999811919286" x="1056.4999867875504">自动类型转换</text></g></g><g id="minder_node46"><g id="node_expander42" display="none" style="cursor: pointer;"><path id="kity_path_529" fill="white" stroke="gray" d="M1046.4999872283242,1757.4999796905927A6,6,0,1,1,1034.4999872283242,1757.4999796905927A6,6,0,1,1,1046.4999872283242,1757.4999796905927"></path><path id="kity_path_530" fill="none" stroke="gray"></path></g><path id="node_outline43" fill="none" stroke="none" d="M1051.4999867875504,1746.4999796905927h83a5,5,0,0,1,5,5v12a5,5,0,0,1,-5,5h-83a5,5,0,0,1,-5,-5v-12a5,5,0,0,1,5,-5z"></path><g id="node_text43" fill="black"><text id="kity_text_263" text-rendering="inherit" font-size="12" dy=".8em" y="1749.6999797594135" x="1056.4999867875504">强制类型转换</text></g></g><g id="minder_node47"><g id="node_expander48" style="cursor: pointer;"><path id="kity_path_547" fill="white" stroke="gray" d="M802.4999939501259,1861.4999768255625A6,6,0,1,1,790.4999939501259,1861.4999768255625A6,6,0,1,1,802.4999939501259,1861.4999768255625"></path><path id="kity_path_548" fill="none" stroke="gray" d="M791.9999939501259,1861.4999768255625L800.9999939501259,1861.4999768255625"></path></g><path id="node_outline49" fill="none" stroke="none" d="M807.4999935093521,1850.4999768255625h84a5,5,0,0,1,5,5v12a5,5,0,0,1,-5,5h-84a5,5,0,0,1,-5,-5v-12a5,5,0,0,1,5,-5z"></path><g id="node_text49" fill="black"><text id="kity_text_275" text-rendering="inherit" font-size="12" dy=".8em" y="1853.6999768943833" x="812.4999935093521">复合数据类型</text></g></g><g id="minder_node48"><g id="node_expander45" display="none" style="cursor: pointer;"><path id="kity_path_538" fill="white" stroke="gray" d="M936.4999902586446,1809.4999782580776A6,6,0,1,1,924.4999902586446,1809.4999782580776A6,6,0,1,1,936.4999902586446,1809.4999782580776"></path><path id="kity_path_539" fill="none" stroke="gray"></path></g><path id="node_outline46" fill="none" stroke="none" d="M941.4999898178708,1798.4999782580776h36a5,5,0,0,1,5,5v12a5,5,0,0,1,-5,5h-36a5,5,0,0,1,-5,-5v-12a5,5,0,0,1,5,-5z"></path><g id="node_text46" fill="black"><text id="kity_text_269" text-rendering="inherit" font-size="12" dy=".8em" y="1801.6999783268984" x="946.4999898178708">数组</text></g></g><g id="minder_node49"><g id="node_expander46" display="none" style="cursor: pointer;"><path id="kity_path_541" fill="white" stroke="gray" d="M936.4999902586446,1861.4999768255625A6,6,0,1,1,924.4999902586446,1861.4999768255625A6,6,0,1,1,936.4999902586446,1861.4999768255625"></path><path id="kity_path_542" fill="none" stroke="gray"></path></g><path id="node_outline47" fill="none" stroke="none" d="M941.4999898178708,1850.4999768255625h36a5,5,0,0,1,5,5v12a5,5,0,0,1,-5,5h-36a5,5,0,0,1,-5,-5v-12a5,5,0,0,1,5,-5z"></path><g id="node_text47" fill="black"><text id="kity_text_271" text-rendering="inherit" font-size="12" dy=".8em" y="1853.6999768943833" x="946.4999898178708">枚举</text></g></g><g id="minder_node50"><g id="node_expander47" display="none" style="cursor: pointer;"><path id="kity_path_544" fill="white" stroke="gray" d="M936.4999902586446,1913.4999753930474A6,6,0,1,1,924.4999902586446,1913.4999753930474A6,6,0,1,1,936.4999902586446,1913.4999753930474"></path><path id="kity_path_545" fill="none" stroke="gray"></path></g><path id="node_outline48" fill="none" stroke="none" d="M941.4999898178708,1902.4999753930474h36a5,5,0,0,1,5,5v12a5,5,0,0,1,-5,5h-36a5,5,0,0,1,-5,-5v-12a5,5,0,0,1,5,-5z"></path><g id="node_text48" fill="black"><text id="kity_text_273" text-rendering="inherit" font-size="12" dy=".8em" y="1905.6999754618682" x="946.4999898178708">元组</text></g></g><g id="minder_node51"><g id="node_expander58" style="cursor: pointer;"><path id="kity_path_577" fill="white" stroke="gray" d="M692.4999978459658,2157.499968671246A6,6,0,1,1,680.4999978459658,2157.499968671246A6,6,0,1,1,692.4999978459658,2157.499968671246"></path><path id="kity_path_578" fill="none" stroke="gray" d="M681.9999978459658,2157.499968671246L690.9999978459658,2157.499968671246"></path></g><path id="node_outline59" fill="rgb(238, 243, 246)" stroke="rgb(115, 161, 191)" d="M696.4999962366404,2144.499968671246h63a3,3,0,0,1,3,3v20a3,3,0,0,1,-3,3h-63a3,3,0,0,1,-3,-3v-20a3,3,0,0,1,3,-3z" stroke-width="1"></path><g id="node_text59" fill="black"><text id="kity_text_295" text-rendering="inherit" font-size="14" dy=".8em" y="2148.399968911818" x="713.4999962366404">语句</text></g></g><g id="minder_node52"><g id="node_expander53" style="cursor: pointer;"><path id="kity_path_562" fill="white" stroke="gray" d="M802.4999939501259,2027.4999722525336A6,6,0,1,1,790.4999939501259,2027.4999722525336A6,6,0,1,1,802.4999939501259,2027.4999722525336"></path><path id="kity_path_563" fill="none" stroke="gray" d="M791.9999939501259,2027.4999722525336L800.9999939501259,2027.4999722525336"></path></g><path id="node_outline54" fill="none" stroke="none" d="M807.4999935093521,2016.4999722525336h48a5,5,0,0,1,5,5v12a5,5,0,0,1,-5,5h-48a5,5,0,0,1,-5,-5v-12a5,5,0,0,1,5,-5z"></path><g id="node_text54" fill="black"><text id="kity_text_285" text-rendering="inherit" font-size="12" dy=".8em" y="2019.6999723213544" x="812.4999935093521">表达式</text></g></g><g id="minder_node53"><g id="node_expander50" display="none" style="cursor: pointer;"><path id="kity_path_553" fill="white" stroke="gray" d="M900.4999912503858,1975.4999736850486A6,6,0,1,1,888.4999912503858,1975.4999736850486A6,6,0,1,1,900.4999912503858,1975.4999736850486"></path><path id="kity_path_554" fill="none" stroke="gray"></path></g><path id="node_outline51" fill="none" stroke="none" d="M905.499990809612,1964.4999736850486h35a5,5,0,0,1,5,5v12a5,5,0,0,1,-5,5h-35a5,5,0,0,1,-5,-5v-12a5,5,0,0,1,5,-5z"></path><g id="node_text51" fill="black"><text id="kity_text_279" text-rendering="inherit" font-size="12" dy=".8em" y="1967.6999737538695" x="910.499990809612">声明</text></g></g><g id="minder_node54"><g id="node_expander51" display="none" style="cursor: pointer;"><path id="kity_path_556" fill="white" stroke="gray" d="M900.4999912503858,2027.4999722525336A6,6,0,1,1,888.4999912503858,2027.4999722525336A6,6,0,1,1,900.4999912503858,2027.4999722525336"></path><path id="kity_path_557" fill="none" stroke="gray"></path></g><path id="node_outline52" fill="none" stroke="none" d="M905.499990809612,2016.4999722525336h36a5,5,0,0,1,5,5v12a5,5,0,0,1,-5,5h-36a5,5,0,0,1,-5,-5v-12a5,5,0,0,1,5,-5z"></path><g id="node_text52" fill="black"><text id="kity_text_281" text-rendering="inherit" font-size="12" dy=".8em" y="2019.6999723213544" x="910.499990809612">计算</text></g></g><g id="minder_node55"><g id="node_expander52" display="none" style="cursor: pointer;"><path id="kity_path_559" fill="white" stroke="gray" d="M900.4999912503858,2079.4999708200185A6,6,0,1,1,888.4999912503858,2079.4999708200185A6,6,0,1,1,900.4999912503858,2079.4999708200185"></path><path id="kity_path_560" fill="none" stroke="gray"></path></g><path id="node_outline53" fill="none" stroke="none" d="M905.499990809612,2068.4999708200185h36a5,5,0,0,1,5,5v12a5,5,0,0,1,-5,5h-36a5,5,0,0,1,-5,-5v-12a5,5,0,0,1,5,-5z"></path><g id="node_text53" fill="black"><text id="kity_text_283" text-rendering="inherit" font-size="12" dy=".8em" y="2071.6999708888393" x="910.499990809612">赋值</text></g></g><g id="minder_node56"><g id="node_expander54" display="none" style="cursor: pointer;"><path id="kity_path_565" fill="white" stroke="gray" d="M802.4999939501259,2131.4999693875034A6,6,0,1,1,790.4999939501259,2131.4999693875034A6,6,0,1,1,802.4999939501259,2131.4999693875034"></path><path id="kity_path_566" fill="none" stroke="gray"></path></g><path id="node_outline55" fill="none" stroke="none" d="M807.4999935093521,2120.4999693875034h59a5,5,0,0,1,5,5v12a5,5,0,0,1,-5,5h-59a5,5,0,0,1,-5,-5v-12a5,5,0,0,1,5,-5z"></path><g id="node_text55" fill="black"><text id="kity_text_287" text-rendering="inherit" font-size="12" dy=".8em" y="2123.699969456324" x="812.4999935093521">顺序语句</text></g></g><g id="minder_node57"><g id="node_expander55" display="none" style="cursor: pointer;"><path id="kity_path_568" fill="white" stroke="gray" d="M802.4999939501259,2183.4999679549883A6,6,0,1,1,790.4999939501259,2183.4999679549883A6,6,0,1,1,802.4999939501259,2183.4999679549883"></path><path id="kity_path_569" fill="none" stroke="gray"></path></g><path id="node_outline56" fill="none" stroke="none" d="M807.4999935093521,2172.4999679549883h59a5,5,0,0,1,5,5v12a5,5,0,0,1,-5,5h-59a5,5,0,0,1,-5,-5v-12a5,5,0,0,1,5,-5z"></path><g id="node_text56" fill="black"><text id="kity_text_289" text-rendering="inherit" font-size="12" dy=".8em" y="2175.699968023809" x="812.4999935093521">分支语句</text></g></g><g id="minder_node58"><g id="node_expander56" display="none" style="cursor: pointer;"><path id="kity_path_571" fill="white" stroke="gray" d="M802.4999939501259,2235.499966522473A6,6,0,1,1,790.4999939501259,2235.499966522473A6,6,0,1,1,802.4999939501259,2235.499966522473"></path><path id="kity_path_572" fill="none" stroke="gray"></path></g><path id="node_outline57" fill="none" stroke="none" d="M807.4999935093521,2224.499966522473h59a5,5,0,0,1,5,5v12a5,5,0,0,1,-5,5h-59a5,5,0,0,1,-5,-5v-12a5,5,0,0,1,5,-5z"></path><g id="node_text57" fill="black"><text id="kity_text_291" text-rendering="inherit" font-size="12" dy=".8em" y="2227.699966591294" x="812.4999935093521">循环语句</text></g></g><g id="minder_node59"><g id="node_expander57" display="none" style="cursor: pointer;"><path id="kity_path_574" fill="white" stroke="gray" d="M802.4999939501259,2287.499965089958A6,6,0,1,1,790.4999939501259,2287.499965089958A6,6,0,1,1,802.4999939501259,2287.499965089958"></path><path id="kity_path_575" fill="none" stroke="gray"></path></g><path id="node_outline58" fill="none" stroke="none" d="M807.4999935093521,2276.499965089958h58a5,5,0,0,1,5,5v12a5,5,0,0,1,-5,5h-58a5,5,0,0,1,-5,-5v-12a5,5,0,0,1,5,-5z"></path><g id="node_text58" fill="black"><text id="kity_text_293" text-rendering="inherit" font-size="12" dy=".8em" y="2279.699965158779" x="812.4999935093521">异常控制</text></g></g><g id="minder_node60"><g id="node_expander65" style="cursor: pointer;"><path id="kity_path_598" fill="white" stroke="gray" d="M321.5000095089425,1279.4999928587122A6,6,0,1,1,309.5000095089425,1279.4999928587122A6,6,0,1,1,321.5000095089425,1279.4999928587122"></path><path id="kity_path_599" fill="none" stroke="gray" d="M311.0000095089425,1279.4999928587122L320.0000095089425,1279.4999928587122"></path></g><path id="node_outline66" fill="rgb(238, 243, 246)" stroke="rgb(115, 161, 191)" d="M242.5000087435991,1266.4999928587122h63a3,3,0,0,1,3,3v20a3,3,0,0,1,-3,3h-63a3,3,0,0,1,-3,-3v-20a3,3,0,0,1,3,-3z" stroke-width="1"></path><g id="node_text66" fill="black"><text id="kity_text_309" text-rendering="inherit" font-size="14" dy=".8em" y="1270.3999930992845" x="259.5000087435991">模块</text></g></g><g id="minder_node61"><g id="node_expander62" style="cursor: pointer;"><path id="kity_path_589" fill="white" stroke="gray" d="M211.50001225075647,1201.4999950074848A6,6,0,1,1,199.50001225075647,1201.4999950074848A6,6,0,1,1,211.50001225075647,1201.4999950074848"></path><path id="kity_path_590" fill="none" stroke="gray" d="M201.00001225075647,1201.4999950074848L210.00001225075647,1201.4999950074848"></path></g><path id="node_outline63" fill="none" stroke="none" d="M135.50001202185484,1190.4999950074848h59a5,5,0,0,1,5,5v12a5,5,0,0,1,-5,5h-59a5,5,0,0,1,-5,-5v-12a5,5,0,0,1,5,-5z"></path><g id="node_text63" fill="black"><text id="kity_text_303" text-rendering="inherit" font-size="12" dy=".8em" y="1193.6999950763056" x="140.50001202185484">命名空间</text></g></g><g id="minder_node62"><g id="node_expander59" display="none" style="cursor: pointer;"><path id="kity_path_580" fill="white" stroke="gray" d="M102.500013233983,1149.49999644A6,6,0,1,1,90.500013233983,1149.49999644A6,6,0,1,1,102.500013233983,1149.49999644"></path><path id="kity_path_581" fill="none" stroke="gray"></path></g><path id="node_outline60" fill="none" stroke="none" d="M27.500014997078495,1138.49999644h58a5,5,0,0,1,5,5v12a5,5,0,0,1,-5,5h-58a5,5,0,0,1,-5,-5v-12a5,5,0,0,1,5,-5z"></path><g id="node_text60" fill="black"><text id="kity_text_297" text-rendering="inherit" font-size="12" dy=".8em" y="1141.6999965088207" x="32.500014997078495">组织模块</text></g></g><g id="minder_node63"><g id="node_expander60" display="none" style="cursor: pointer;"><path id="kity_path_583" fill="white" stroke="gray" d="M102.50001111826862,1201.4999950074848A6,6,0,1,1,90.50001111826862,1201.4999950074848A6,6,0,1,1,102.50001111826862,1201.4999950074848"></path><path id="kity_path_584" fill="none" stroke="gray"></path></g><path id="node_outline61" fill="none" stroke="none" d="M25.500015052175172,1190.4999950074848h60a5,5,0,0,1,5,5v12a5,5,0,0,1,-5,5h-60a5,5,0,0,1,-5,-5v-12a5,5,0,0,1,5,-5z"></path><g id="node_text61" fill="black"><text id="kity_text_299" text-rendering="inherit" font-size="12" dy=".8em" y="1193.6999950763056" x="30.500015052175172">导入名称</text></g></g><g id="minder_node64"><g id="node_expander61" display="none" style="cursor: pointer;"><path id="kity_path_586" fill="white" stroke="gray" d="M102.50001111826862,1253.4999935749697A6,6,0,1,1,90.50001111826862,1253.4999935749697A6,6,0,1,1,102.50001111826862,1253.4999935749697"></path><path id="kity_path_587" fill="none" stroke="gray"></path></g><path id="node_outline62" fill="none" stroke="none" d="M25.500015052175172,1242.4999935749697h60a5,5,0,0,1,5,5v12a5,5,0,0,1,-5,5h-60a5,5,0,0,1,-5,-5v-12a5,5,0,0,1,5,-5z"></path><g id="node_text62" fill="black"><text id="kity_text_301" text-rendering="inherit" font-size="12" dy=".8em" y="1245.6999936437905" x="30.500015052175172">导出名称</text></g></g><g id="minder_node65"><g id="node_expander63" display="none" style="cursor: pointer;"><path id="kity_path_592" fill="white" stroke="gray" d="M211.50000994270448,1305.4999921424546A6,6,0,1,1,199.50000994270448,1305.4999921424546A6,6,0,1,1,211.50000994270448,1305.4999921424546"></path><path id="kity_path_593" fill="none" stroke="gray"></path></g><path id="node_outline64" fill="none" stroke="none" d="M159.50001136069403,1294.4999921424546h35a5,5,0,0,1,5,5v12a5,5,0,0,1,-5,5h-35a5,5,0,0,1,-5,-5v-12a5,5,0,0,1,5,-5z"></path><g id="node_text64" fill="black"><text id="kity_text_305" text-rendering="inherit" font-size="12" dy=".8em" y="1297.6999922112755" x="164.50001136069403">函数</text></g></g><g id="minder_node66"><g id="node_expander64" display="none" style="cursor: pointer;"><path id="kity_path_595" fill="white" stroke="gray" d="M211.50000926952265,1357.4999907099395A6,6,0,1,1,199.50000926952265,1357.4999907099395A6,6,0,1,1,211.50000926952265,1357.4999907099395"></path><path id="kity_path_596" fill="none" stroke="gray"></path></g><path id="node_outline65" fill="none" stroke="none" d="M170.500011057662,1346.4999907099395h24a5,5,0,0,1,5,5v12a5,5,0,0,1,-5,5h-24a5,5,0,0,1,-5,-5v-12a5,5,0,0,1,5,-5z"></path><g id="node_text65" fill="black"><text id="kity_text_307" text-rendering="inherit" font-size="12" dy=".8em" y="1349.6999907787604" x="175.500011057662">类</text></g></g><g id="minder_node67"><g id="node_expander69" style="cursor: pointer;"><path id="kity_path_610" fill="white" stroke="gray" d="M321.50000748939703,1471.4999875694257A6,6,0,1,1,309.50000748939703,1471.4999875694257A6,6,0,1,1,321.50000748939703,1471.4999875694257"></path><path id="kity_path_611" fill="none" stroke="gray" d="M311.00000748939703,1471.4999875694257L320.00000748939703,1471.4999875694257"></path></g><path id="node_outline70" fill="rgb(238, 243, 246)" stroke="rgb(115, 161, 191)" d="M243.50000871605073,1458.4999875694257h62a3,3,0,0,1,3,3v20a3,3,0,0,1,-3,3h-62a3,3,0,0,1,-3,-3v-20a3,3,0,0,1,3,-3z" stroke-width="1"></path><g id="node_text70" fill="black"><text id="kity_text_317" text-rendering="inherit" font-size="14" dy=".8em" y="1462.399987809998" x="260.50000871605073">工具</text></g></g><g id="minder_node68"><g id="node_expander66" display="none" style="cursor: pointer;"><path id="kity_path_601" fill="white" stroke="gray" d="M212.50000731859762,1419.4999890019408A6,6,0,1,1,200.50000731859762,1419.4999890019408A6,6,0,1,1,212.50000731859762,1419.4999890019408"></path><path id="kity_path_602" fill="none" stroke="gray"></path></g><path id="node_outline67" fill="none" stroke="none" d="M111.50001268301565,1408.4999890019408h84a5,5,0,0,1,5,5v12a5,5,0,0,1,-5,5h-84a5,5,0,0,1,-5,-5v-12a5,5,0,0,1,5,-5z"></path><g id="node_text67" fill="black"><text id="kity_text_311" text-rendering="inherit" font-size="12" dy=".8em" y="1411.6999890707616" x="116.50001268301565">输入输出工具</text></g></g><g id="minder_node69"><g id="node_expander67" display="none" style="cursor: pointer;"><path id="kity_path_604" fill="white" stroke="gray" d="M212.50001183853277,1471.4999875694257A6,6,0,1,1,200.50001183853277,1471.4999875694257A6,6,0,1,1,212.50001183853277,1471.4999875694257"></path><path id="kity_path_605" fill="none" stroke="gray"></path></g><path id="node_outline68" fill="none" stroke="none" d="M124.50001232488688,1460.4999875694257h71a5,5,0,0,1,5,5v12a5,5,0,0,1,-5,5h-71a5,5,0,0,1,-5,-5v-12a5,5,0,0,1,5,-5z"></path><g id="node_text68" fill="black"><text id="kity_text_313" text-rendering="inherit" font-size="12" dy=".8em" y="1463.6999876382465" x="129.50001232488688">字符串工具</text></g></g><g id="minder_node70"><g id="node_expander68" display="none" style="cursor: pointer;"><path id="kity_path_607" fill="white" stroke="gray" d="M212.50001222320805,1523.4999861369106A6,6,0,1,1,200.50001222320805,1523.4999861369106A6,6,0,1,1,212.50001222320805,1523.4999861369106"></path><path id="kity_path_608" fill="none" stroke="gray"></path></g><path id="node_outline69" fill="none" stroke="none" d="M136.50001199430642,1512.4999861369106h59a5,5,0,0,1,5,5v12a5,5,0,0,1,-5,5h-59a5,5,0,0,1,-5,-5v-12a5,5,0,0,1,5,-5z"></path><g id="node_text69" fill="black"><text id="kity_text_315" text-rendering="inherit" font-size="12" dy=".8em" y="1515.6999862057314" x="141.50001199430642">数据结构</text></g></g><g id="minder_node71"><g id="node_expander75" style="cursor: pointer;"><path id="kity_path_628" fill="white" stroke="gray" d="M321.5000095089425,1663.4999822801392A6,6,0,1,1,309.5000095089425,1663.4999822801392A6,6,0,1,1,321.5000095089425,1663.4999822801392"></path><path id="kity_path_629" fill="none" stroke="gray" d="M311.0000095089425,1663.4999822801392L320.0000095089425,1663.4999822801392"></path></g><path id="node_outline76" fill="rgb(238, 243, 246)" stroke="rgb(115, 161, 191)" d="M242.5000087435991,1650.4999822801392h63a3,3,0,0,1,3,3v20a3,3,0,0,1,-3,3h-63a3,3,0,0,1,-3,-3v-20a3,3,0,0,1,3,-3z" stroke-width="1"></path><g id="node_text76" fill="black"><text id="kity_text_329" text-rendering="inherit" font-size="14" dy=".8em" y="1654.3999825207115" x="259.5000087435991">类库</text></g></g><g id="minder_node72"><g id="node_expander71" style="cursor: pointer;"><path id="kity_path_616" fill="white" stroke="gray" d="M211.50000994270448,1585.4999844289118A6,6,0,1,1,199.50000994270448,1585.4999844289118A6,6,0,1,1,211.50000994270448,1585.4999844289118"></path><path id="kity_path_617" fill="none" stroke="gray" d="M201.00000994270448,1585.4999844289118L210.00000994270448,1585.4999844289118"></path></g><path id="node_outline72" fill="none" stroke="none" d="M159.50001136069403,1574.4999844289118h35a5,5,0,0,1,5,5v12a5,5,0,0,1,-5,5h-35a5,5,0,0,1,-5,-5v-12a5,5,0,0,1,5,-5z"></path><g id="node_text72" fill="black"><text id="kity_text_321" text-rendering="inherit" font-size="12" dy=".8em" y="1577.6999844977327" x="164.50001136069403">数学</text></g></g><g id="minder_node73"><g id="node_expander70" display="none" style="cursor: pointer;"><path id="kity_path_613" fill="white" stroke="gray" d="M126.50001420769235,1585.4999844289118A6,6,0,1,1,114.50001420769235,1585.4999844289118A6,6,0,1,1,126.50001420769235,1585.4999844289118"></path><path id="kity_path_614" fill="none" stroke="gray"></path></g><path id="node_outline71" fill="none" stroke="none" d="M38.500014694046456,1574.4999844289118h71a5,5,0,0,1,5,5v12a5,5,0,0,1,-5,5h-71a5,5,0,0,1,-5,-5v-12a5,5,0,0,1,5,-5z"></path><g id="node_text71" fill="black"><text id="kity_text_319" text-rendering="inherit" font-size="12" dy=".8em" y="1577.6999844977327" x="43.500014694046456">高精度运算</text></g></g><g id="minder_node74"><g id="node_expander72" display="none" style="cursor: pointer;"><path id="kity_path_619" fill="white" stroke="gray" d="M211.50000984653565,1637.4999829963967A6,6,0,1,1,199.50000984653565,1637.4999829963967A6,6,0,1,1,211.50000984653565,1637.4999829963967"></path><path id="kity_path_620" fill="none" stroke="gray"></path></g><path id="node_outline73" fill="none" stroke="none" d="M124.50001232488688,1626.4999829963967h70a5,5,0,0,1,5,5v12a5,5,0,0,1,-5,5h-70a5,5,0,0,1,-5,-5v-12a5,5,0,0,1,5,-5z"></path><g id="node_text73" fill="black"><text id="kity_text_323" text-rendering="inherit" font-size="12" dy=".8em" y="1629.6999830652176" x="129.50001232488688">日期和时间</text></g></g><g id="minder_node75"><g id="node_expander73" display="none" style="cursor: pointer;"><path id="kity_path_622" fill="white" stroke="gray" d="M211.50000888484726,1689.4999815638816A6,6,0,1,1,199.50000888484726,1689.4999815638816A6,6,0,1,1,211.50000888484726,1689.4999815638816"></path><path id="kity_path_623" fill="none" stroke="gray"></path></g><path id="node_outline74" fill="none" stroke="none" d="M158.50001138824234,1678.4999815638816h36a5,5,0,0,1,5,5v12a5,5,0,0,1,-5,5h-36a5,5,0,0,1,-5,-5v-12a5,5,0,0,1,5,-5z"></path><g id="node_text74" fill="black"><text id="kity_text_325" text-rendering="inherit" font-size="12" dy=".8em" y="1681.6999816327025" x="163.50001138824234">文件</text></g></g><g id="minder_node76"><g id="node_expander74" display="none" style="cursor: pointer;"><path id="kity_path_625" fill="white" stroke="gray" d="M211.50000994270448,1741.4999801313666A6,6,0,1,1,199.50000994270448,1741.4999801313666A6,6,0,1,1,211.50000994270448,1741.4999801313666"></path><path id="kity_path_626" fill="none" stroke="gray"></path></g><path id="node_outline75" fill="none" stroke="none" d="M159.50001136069403,1730.4999801313666h35a5,5,0,0,1,5,5v12a5,5,0,0,1,-5,5h-35a5,5,0,0,1,-5,-5v-12a5,5,0,0,1,5,-5z"></path><g id="node_text75" fill="black"><text id="kity_text_327" text-rendering="inherit" font-size="12" dy=".8em" y="1733.6999802001874" x="164.50001136069403">网络</text></g></g></g></g></svg>