<svg id="kity_svg_6" xmlns="http://www.w3.org/2000/svg" xmlns:xlink="http://www.w3.org/1999/xlink" version="1.1" width="1130" height="1077" style="background: rgb(251, 251, 251); visibility: visible;" viewBox="0 0 1130 1077"><defs id="kity_defs_7"><linearGradient id="kity_linearGradient_17" x1="0" y1="0" x2="0" y2="1"><stop id="kity_stop_18" offset="0" stop-color="rgb(255, 255, 255)"></stop><stop id="kity_stop_19" offset="1" stop-color="rgb(204, 204, 204)"></stop></linearGradient><marker id="kity_marker_2" orient="auto" refX="6" refY="0" viewBox="-7 -7 14 14" markerWidth="7" markerHeight="7" markerUnits="userSpaceOnUse"><path id="kity_path_3" fill="rgb(115, 161, 191)" stroke="none" d="M6,0A6,6,0,1,1,-6,0A6,6,0,1,1,6,0"></path></marker></defs><g id="kity_g_8"><g id="minder1" text-rendering="optimize-speed"><g id="minder_connect_group1"><path id="kity_path_69" fill="none" stroke="rgb(115, 161, 191)" stroke-width="1" d="M543.0000134740557,498.50001089572913A196.5,91,0,0,1,739.5000134740557,407.50001089572913"></path><path id="kity_path_77" fill="none" stroke="rgb(115, 161, 191)" stroke-width="1" d="M543.0000134740557,498.50001089572913A196.5,38,0,0,0,346.50001347405566,460.50001089572913"></path><path id="kity_path_85" fill="none" stroke="rgb(115, 161, 191)" stroke-width="1" d="M543.0000134740557,498.50001089572913A196.5,466,0,0,1,346.50001347405566,964.5000108957291"></path><path id="kity_path_101" fill="none" stroke="rgb(115, 161, 191)" stroke-width="1" d="M275.50001347405566,964.5000108957291C260.50001347405566,964.5000108957291,260.50001347405566,900.5000108957291,245.50001347405566,900.5000108957291L94.50001347405566,900.5000108957291"></path><path id="kity_path_109" fill="none" stroke="rgb(115, 161, 191)" stroke-width="1" d="M275.50001347405566,964.5000108957291C260.50001347405566,964.5000108957291,260.50001347405566,952.5000108957291,245.50001347405566,952.5000108957291L74.50001347405566,952.5000108957291"></path><path id="kity_path_117" fill="none" stroke="rgb(115, 161, 191)" stroke-width="1" d="M809.5000134740557,407.50001089572913C824.5000134740557,407.50001089572913,824.5000134740557,369.50001089572913,839.5000134740557,369.50001089572913L945.5000134740557,369.50001089572913"></path><path id="kity_path_125" fill="none" stroke="rgb(115, 161, 191)" stroke-width="1" d="M275.50001347405566,964.5000108957291C260.50001347405566,964.5000108957291,260.50001347405566,1004.5000108957291,245.50001347405566,1004.5000108957291L20.500013474055663,1004.5000108957291"></path><path id="kity_path_133" fill="none" stroke="rgb(115, 161, 191)" stroke-width="1" d="M809.5000134740557,407.50001089572913C824.5000134740557,407.50001089572913,824.5000134740557,421.50001089572913,839.5000134740557,421.50001089572913L980.5000134740557,421.50001089572913"></path><path id="kity_path_141" fill="none" stroke="rgb(115, 161, 191)" stroke-width="1" d="M543.0000134740557,498.50001089572913A196.5,25,0,0,0,739.5000134740557,523.5000108957291"></path><path id="kity_path_149" fill="none" stroke="rgb(115, 161, 191)" stroke-width="1" d="M810.5000134740557,523.5000108957291C825.5000134740557,523.5000108957291,825.5000134740557,537.5000108957291,840.5000134740557,537.5000108957291L1030.5000134740558,537.5000108957291"></path><path id="kity_path_157" fill="none" stroke="rgb(115, 161, 191)" stroke-width="1" d="M275.50001347405566,460.50001089572913C260.50001347405566,460.50001089572913,260.50001347405566,110.50001089572913,245.50001347405566,110.50001089572913L121.50001347405566,110.50001089572913"></path><path id="kity_path_165" fill="none" stroke="rgb(115, 161, 191)" stroke-width="1" d="M275.50001347405566,460.50001089572913C260.50001347405566,460.50001089572913,260.50001347405566,162.50001089572913,245.50001347405566,162.50001089572913L146.50001347405566,162.50001089572913"></path><path id="kity_path_173" fill="none" stroke="rgb(115, 161, 191)" stroke-width="1" d="M275.50001347405566,964.5000108957291C260.50001347405566,964.5000108957291,260.50001347405566,1056.5000108957292,245.50001347405566,1056.5000108957292L181.50001347405566,1056.5000108957292"></path><path id="kity_path_181" fill="none" stroke="rgb(115, 161, 191)" stroke-width="1" d="M275.50001347405566,460.50001089572913C260.50001347405566,460.50001089572913,260.50001347405566,214.50001089572913,245.50001347405566,214.50001089572913L136.50001347405566,214.50001089572913"></path><path id="kity_path_189" fill="none" stroke="rgb(115, 161, 191)" stroke-width="1" d="M543.0000134740557,498.50001089572913A196.5,91,0,0,0,739.5000134740557,589.5000108957291"></path><path id="kity_path_197" fill="none" stroke="rgb(115, 161, 191)" stroke-width="1" d="M809.5000134740557,589.5000108957291C824.5000134740557,589.5000108957291,824.5000134740557,603.5000108957291,839.5000134740557,603.5000108957291L919.5000134740557,603.5000108957291"></path><path id="kity_path_205" fill="none" stroke="rgb(115, 161, 191)" stroke-width="1" d="M919.5000134740557,603.5000108957291C934.5000134740557,603.5000108957291,934.5000134740557,603.5000108957291,949.5000134740557,603.5000108957291L1110.5000134740558,603.5000108957291"></path><path id="kity_path_213" fill="none" stroke="rgb(115, 161, 191)" stroke-width="1" d="M543.0000134740557,498.50001089572913A196.5,466,0,0,0,346.50001347405566,32.50001089572913"></path><path id="kity_path_229" fill="none" stroke="rgb(115, 161, 191)" stroke-width="1" d="M275.50001347405566,32.50001089572913C260.50001347405566,32.50001089572913,260.50001347405566,46.50001089572913,245.50001347405566,46.50001089572913L141.50001347405566,46.50001089572913"></path><path id="kity_path_237" fill="none" stroke="rgb(115, 161, 191)" stroke-width="1" d="M275.50001347405566,460.50001089572913C260.50001347405566,460.50001089572913,260.50001347405566,266.50001089572913,245.50001347405566,266.50001089572913L111.50001347405566,266.50001089572913"></path><path id="kity_path_245" fill="none" stroke="rgb(115, 161, 191)" stroke-width="1" d="M275.50001347405566,460.50001089572913C260.50001347405566,460.50001089572913,260.50001347405566,318.50001089572913,245.50001347405566,318.50001089572913L122.50001347405566,318.50001089572913"></path><path id="kity_path_253" fill="none" stroke="rgb(115, 161, 191)" stroke-width="1" d="M275.50001347405566,460.50001089572913C260.50001347405566,460.50001089572913,260.50001347405566,370.50001089572913,245.50001347405566,370.50001089572913L190.50001347405566,370.50001089572913"></path><path id="kity_path_261" fill="none" stroke="rgb(115, 161, 191)" stroke-width="1" d="M275.50001347405566,460.50001089572913C260.50001347405566,460.50001089572913,260.50001347405566,422.50001089572913,245.50001347405566,422.50001089572913L115.50001347405566,422.50001089572913"></path><path id="kity_path_269" fill="none" stroke="rgb(115, 161, 191)" stroke-width="1" d="M275.50001347405566,460.50001089572913C260.50001347405566,460.50001089572913,260.50001347405566,474.50001089572913,245.50001347405566,474.50001089572913L91.50001347405566,474.50001089572913"></path><path id="kity_path_277" fill="none" stroke="rgb(115, 161, 191)" stroke-width="1" d="M275.50001347405566,460.50001089572913C260.50001347405566,460.50001089572913,260.50001347405566,526.5000108957291,245.50001347405566,526.5000108957291L117.50001347405566,526.5000108957291"></path><path id="kity_path_285" fill="none" stroke="rgb(115, 161, 191)" stroke-width="1" d="M809.5000134740557,407.50001089572913C824.5000134740557,407.50001089572913,824.5000134740557,473.50001089572913,839.5000134740557,473.50001089572913L937.5000134740557,473.50001089572913"></path><path id="kity_path_293" fill="none" stroke="rgb(115, 161, 191)" stroke-width="1" d="M275.50001347405566,460.50001089572913C260.50001347405566,460.50001089572913,260.50001347405566,578.5000108957291,245.50001347405566,578.5000108957291L156.50001347405566,578.5000108957291"></path><path id="kity_path_301" fill="none" stroke="rgb(115, 161, 191)" stroke-width="1" d="M275.50001347405566,460.50001089572913C260.50001347405566,460.50001089572913,260.50001347405566,630.5000108957291,245.50001347405566,630.5000108957291L107.50001347405566,630.5000108957291"></path><path id="kity_path_309" fill="none" stroke="rgb(115, 161, 191)" stroke-width="1" d="M275.50001347405566,460.50001089572913C260.50001347405566,460.50001089572913,260.50001347405566,682.5000108957291,245.50001347405566,682.5000108957291L66.50001347405566,682.5000108957291"></path><path id="kity_path_317" fill="none" stroke="rgb(115, 161, 191)" stroke-width="1" d="M275.50001347405566,460.50001089572913C260.50001347405566,460.50001089572913,260.50001347405566,734.5000108957291,245.50001347405566,734.5000108957291L159.50001347405566,734.5000108957291"></path><path id="kity_path_325" fill="none" stroke="rgb(115, 161, 191)" stroke-width="1" d="M275.50001347405566,460.50001089572913C260.50001347405566,460.50001089572913,260.50001347405566,786.5000108957291,245.50001347405566,786.5000108957291L156.50001347405566,786.5000108957291"></path><path id="kity_path_333" fill="none" stroke="rgb(115, 161, 191)" stroke-width="1" d="M275.50001347405566,460.50001089572913C260.50001347405566,460.50001089572913,260.50001347405566,838.5000108957291,245.50001347405566,838.5000108957291L80.50001347405566,838.5000108957291"></path></g><g id="minder_node1"><path id="node_outline1" fill="rgb(115, 161, 191)" stroke="rgb(115, 161, 191)" d="M469.50001347405566,478.50001089572913h147a5,5,0,0,1,5,5v30a5,5,0,0,1,-5,5h-147a5,5,0,0,1,-5,-5v-30a5,5,0,0,1,5,-5z" stroke-width="3"></path><g id="node_text1" fill="white"><text id="kity_text_22" text-rendering="inherit" font-size="16" dy=".8em" y="490.50001089572913" x="488.50001347405566">lightyears1998</text></g></g><g id="kity_g_14" display="none"><path id="kity_path_15" fill="rgba(0, 92, 153, 0.5)" stroke="none" d="M614.5000134740557,474.50001089572913h45v15h-45z"></path><path id="kity_path_16" fill="none" stroke="rgb(0, 76, 128)" d="M614.5000134740557,474.50001089572913L659.5000134740557,474.50001089572913" stroke-width="1"></path></g><g id="minder_node6" opacity="1"><g id="node_expander5" style="cursor: pointer;"><path id="kity_path_74" fill="white" stroke="gray" d="M740.500015234947,407.50001027584085A6,6,0,1,1,728.500015234947,407.50001027584085A6,6,0,1,1,740.500015234947,407.50001027584085"></path><path id="kity_path_75" fill="none" stroke="gray" d="M730.000015234947,407.50001027584085L739.000015234947,407.50001027584085"></path></g><path id="node_outline6" fill="rgb(238, 243, 246)" stroke="rgb(115, 161, 191)" d="M744.5000153337204,394.50001027584085h62a3,3,0,0,1,3,3v20a3,3,0,0,1,-3,3h-62a3,3,0,0,1,-3,-3v-20a3,3,0,0,1,3,-3z" stroke-width="1"></path><g id="node_text6" fill="black"><text id="kity_text_71" text-rendering="inherit" font-size="14" dy=".8em" y="400.50001027584085" x="761.5000153337204">工具</text></g></g><g id="minder_node7" opacity="1"><g id="node_expander6" style="cursor: pointer;"><path id="kity_path_82" fill="white" stroke="gray" d="M357.5000145844052,460.5000106368747A6,6,0,1,1,345.5000145844052,460.5000106368747A6,6,0,1,1,357.5000145844052,460.5000106368747"></path><path id="kity_path_83" fill="none" stroke="gray" d="M347.0000145844052,460.5000106368747L356.0000145844052,460.5000106368747"></path></g><path id="node_outline7" fill="rgb(238, 243, 246)" stroke="rgb(115, 161, 191)" d="M278.50001215934765,447.5000106368747h63a3,3,0,0,1,3,3v20a3,3,0,0,1,-3,3h-63a3,3,0,0,1,-3,-3v-20a3,3,0,0,1,3,-3z" stroke-width="1"></path><g id="node_text7" fill="black"><text id="kity_text_79" text-rendering="inherit" font-size="14" dy=".8em" y="453.5000106368747" x="295.50001215934765">玩具</text></g></g><g id="minder_node8" opacity="1"><g id="node_expander7" style="cursor: pointer;"><path id="kity_path_90" fill="white" stroke="gray" d="M357.5000145844052,964.500014070102A6,6,0,1,1,345.5000145844052,964.500014070102A6,6,0,1,1,357.5000145844052,964.500014070102"></path><path id="kity_path_91" fill="none" stroke="gray" d="M347.0000145844052,964.500014070102L356.0000145844052,964.500014070102"></path></g><path id="node_outline8" fill="rgb(238, 243, 246)" stroke="rgb(115, 161, 191)" d="M278.50001215934765,951.500014070102h63a3,3,0,0,1,3,3v20a3,3,0,0,1,-3,3h-63a3,3,0,0,1,-3,-3v-20a3,3,0,0,1,3,-3z" stroke-width="1"></path><g id="node_text8" fill="black"><text id="kity_text_87" text-rendering="inherit" font-size="14" dy=".8em" y="957.500014070102" x="295.50001215934765">制品</text></g></g><g id="kity_g_12" display="none"><path id="kity_path_13" fill="none" stroke="rgb(66, 94, 112)" d="M469.50001347405566,478.50001089572913h147a5,5,0,0,1,5,5v30a5,5,0,0,1,-5,5h-147a5,5,0,0,1,-5,-5v-30a5,5,0,0,1,5,-5z" stroke-width="5"></path></g><g id="minder_node10"><g id="node_expander9" style="cursor: pointer;" display="none"><path id="kity_path_106" fill="white" stroke="gray" d="M247.500016304425,886.5000135387693A6,6,0,1,1,235.500016304425,886.5000135387693A6,6,0,1,1,247.500016304425,886.5000135387693"></path><path id="kity_path_107" fill="none" stroke="gray"></path></g><path id="node_outline10" fill="none" stroke="none" d="M99.50001085826341,875.5000135387693h131a5,5,0,0,1,5,5v12a5,5,0,0,1,-5,5h-131a5,5,0,0,1,-5,-5v-12a5,5,0,0,1,5,-5z" stroke-width="3"></path><g id="node_text10" fill="black"><text id="kity_text_103" text-rendering="inherit" font-size="12" dy=".8em" y="880.5000135387693" x="104.50001085826341">[undergo] day-primer</text></g></g><g id="minder_node11"><g id="node_expander10" style="cursor: pointer;" display="none"><path id="kity_path_114" fill="white" stroke="gray" d="M247.50001664502295,938.5000138929911A6,6,0,1,1,235.50001664502295,938.5000138929911A6,6,0,1,1,247.50001664502295,938.5000138929911"></path><path id="kity_path_115" fill="none" stroke="gray"></path></g><path id="node_outline11" fill="none" stroke="none" d="M79.50001072202423,927.5000138929911h151a5,5,0,0,1,5,5v12a5,5,0,0,1,-5,5h-151a5,5,0,0,1,-5,-5v-12a5,5,0,0,1,5,-5z" stroke-width="3"></path><g id="node_text11" fill="black"><text id="kity_text_111" text-rendering="inherit" font-size="12" dy=".8em" y="932.5000138929911" x="84.50001072202423">[incomplete] cool-corpus</text></g></g><g id="minder_node12"><g id="node_expander11" style="cursor: pointer;" display="none"><path id="kity_path_122" fill="white" stroke="gray" d="M849.500015892301,355.500009921619A6,6,0,1,1,837.500015892301,355.500009921619A6,6,0,1,1,849.500015892301,355.500009921619"></path><path id="kity_path_123" fill="none" stroke="gray"></path></g><path id="node_outline12" fill="none" stroke="none" d="M854.5000160012924,344.500009921619h86a5,5,0,0,1,5,5v12a5,5,0,0,1,-5,5h-86a5,5,0,0,1,-5,-5v-12a5,5,0,0,1,5,-5z" stroke-width="3"></path><g id="node_text12" fill="black"><text id="kity_text_119" text-rendering="inherit" font-size="12" dy=".8em" y="349.500009921619" x="859.5000160012924">react-scaffold</text></g></g><g id="minder_node13"><g id="node_expander12" style="cursor: pointer;" display="none"><path id="kity_path_130" fill="white" stroke="gray" d="M247.50001102515637,990.5000142472129A6,6,0,1,1,235.50001102515637,990.5000142472129A6,6,0,1,1,247.50001102515637,990.5000142472129"></path><path id="kity_path_131" fill="none" stroke="gray"></path></g><path id="node_outline13" fill="none" stroke="none" d="M25.50001035417847,979.5000142472129h205a5,5,0,0,1,5,5v12a5,5,0,0,1,-5,5h-205a5,5,0,0,1,-5,-5v-12a5,5,0,0,1,5,-5z" stroke-width="3"></path><g id="node_text13" fill="black"><text id="kity_text_127" text-rendering="inherit" font-size="12" dy=".8em" y="984.5000142472129" x="30.50001035417847">[incomplete] 简易学生信息管理系统</text></g></g><g id="minder_node14"><g id="node_expander13" style="cursor: pointer;" display="none"><path id="kity_path_138" fill="white" stroke="gray" d="M849.500015892301,407.50001027584085A6,6,0,1,1,837.500015892301,407.50001027584085A6,6,0,1,1,849.500015892301,407.50001027584085"></path><path id="kity_path_139" fill="none" stroke="gray"></path></g><path id="node_outline14" fill="none" stroke="none" d="M854.5000160012924,396.50001027584085h121a5,5,0,0,1,5,5v12a5,5,0,0,1,-5,5h-121a5,5,0,0,1,-5,-5v-12a5,5,0,0,1,5,-5z" stroke-width="3"></path><g id="node_text14" fill="black"><text id="kity_text_135" text-rendering="inherit" font-size="12" dy=".8em" y="401.50001027584085" x="859.5000160012924">[undergo] typestore</text></g></g><g id="minder_node15"><g id="node_expander14" style="cursor: pointer;"><path id="kity_path_146" fill="white" stroke="gray" d="M740.500015234947,523.5000110660282A6,6,0,1,1,728.500015234947,523.5000110660282A6,6,0,1,1,740.500015234947,523.5000110660282"></path><path id="kity_path_147" fill="none" stroke="gray" d="M730.000015234947,523.5000110660282L739.000015234947,523.5000110660282"></path></g><path id="node_outline15" fill="rgb(238, 243, 246)" stroke="rgb(115, 161, 191)" d="M744.5000153337204,510.50001106602815h63a3,3,0,0,1,3,3v20a3,3,0,0,1,-3,3h-63a3,3,0,0,1,-3,-3v-20a3,3,0,0,1,3,-3z" stroke-width="1"></path><g id="node_text15" fill="black"><text id="kity_text_143" text-rendering="inherit" font-size="14" dy=".8em" y="516.5000110660282" x="761.5000153337204">规范</text></g></g><g id="minder_node16"><g id="node_expander15" style="cursor: pointer;" display="none"><path id="kity_path_154" fill="white" stroke="gray" d="M850.500015899113,523.5000110660282A6,6,0,1,1,838.500015899113,523.5000110660282A6,6,0,1,1,850.500015899113,523.5000110660282"></path><path id="kity_path_155" fill="none" stroke="gray"></path></g><path id="node_outline16" fill="none" stroke="none" d="M855.5000160081044,512.5000110660282h170a5,5,0,0,1,5,5v12a5,5,0,0,1,-5,5h-170a5,5,0,0,1,-5,-5v-12a5,5,0,0,1,5,-5z" stroke-width="3"></path><g id="node_text16" fill="black"><text id="kity_text_151" text-rendering="inherit" font-size="12" dy=".8em" y="517.5000110660282" x="860.5000160081044">eslint-config-lightyears-style</text></g></g><g id="minder_node17"><g id="node_expander16" style="cursor: pointer;" display="none"><path id="kity_path_162" fill="white" stroke="gray" d="M247.50001366479069,96.50000815732164A6,6,0,1,1,235.50001366479069,96.50000815732164A6,6,0,1,1,247.50001366479069,96.50000815732164"></path><path id="kity_path_163" fill="none" stroke="gray"></path></g><path id="node_outline17" fill="none" stroke="none" d="M126.50001104218632,85.50000815732164h104a5,5,0,0,1,5,5v12a5,5,0,0,1,-5,5h-104a5,5,0,0,1,-5,-5v-12a5,5,0,0,1,5,-5z" stroke-width="3"></path><g id="node_text17" fill="black"><text id="kity_text_159" text-rendering="inherit" font-size="12" dy=".8em" y="90.50000815732164" x="131.50001104218632">ts-rotate-backup</text></g></g><g id="minder_node18"><g id="node_expander17" style="cursor: pointer;" display="none"><path id="kity_path_170" fill="white" stroke="gray" d="M247.5000132390432,148.5000085115435A6,6,0,1,1,235.5000132390432,148.5000085115435A6,6,0,1,1,247.5000132390432,148.5000085115435"></path><path id="kity_path_171" fill="none" stroke="gray"></path></g><path id="node_outline18" fill="none" stroke="none" d="M151.50001121248528,137.5000085115435h79a5,5,0,0,1,5,5v12a5,5,0,0,1,-5,5h-79a5,5,0,0,1,-5,-5v-12a5,5,0,0,1,5,-5z" stroke-width="3"></path><g id="node_text18" fill="black"><text id="kity_text_167" text-rendering="inherit" font-size="12" dy=".8em" y="142.5000085115435" x="156.50001121248528">relay-socket</text></g></g><g id="minder_node19"><g id="node_expander18" style="cursor: pointer;" display="none"><path id="kity_path_178" fill="white" stroke="gray" d="M247.5000126429968,1042.500014601435A6,6,0,1,1,235.5000126429968,1042.500014601435A6,6,0,1,1,247.5000126429968,1042.500014601435"></path><path id="kity_path_179" fill="none" stroke="gray"></path></g><path id="node_outline19" fill="none" stroke="none" d="M186.5000114509039,1031.500014601435h44a5,5,0,0,1,5,5v12a5,5,0,0,1,-5,5h-44a5,5,0,0,1,-5,-5v-12a5,5,0,0,1,5,-5z" stroke-width="3"></path><g id="node_text19" fill="black"><text id="kity_text_175" text-rendering="inherit" font-size="12" dy=".8em" y="1036.500014601435" x="191.5000114509039">qnote</text></g></g><g id="minder_node20"><g id="node_expander19" style="cursor: pointer;" display="none"><path id="kity_path_186" fill="white" stroke="gray" d="M247.50001340934216,200.50000886576538A6,6,0,1,1,235.50001340934216,200.50000886576538A6,6,0,1,1,247.50001340934216,200.50000886576538"></path><path id="kity_path_187" fill="none" stroke="gray"></path></g><path id="node_outline20" fill="none" stroke="none" d="M141.50001114436566,189.50000886576538h89a5,5,0,0,1,5,5v12a5,5,0,0,1,-5,5h-89a5,5,0,0,1,-5,-5v-12a5,5,0,0,1,5,-5z" stroke-width="3"></path><g id="node_text20" fill="black"><text id="kity_text_183" text-rendering="inherit" font-size="12" dy=".8em" y="194.50000886576538" x="146.50001114436566">hitokoto-shell</text></g></g><g id="minder_node21"><g id="node_expander20" style="cursor: pointer;"><path id="kity_path_194" fill="white" stroke="gray" d="M740.500015234947,589.5000115156174A6,6,0,1,1,728.500015234947,589.5000115156174A6,6,0,1,1,740.500015234947,589.5000115156174"></path><path id="kity_path_195" fill="none" stroke="gray" d="M730.000015234947,589.5000115156174L739.000015234947,589.5000115156174"></path></g><path id="node_outline21" fill="rgb(238, 243, 246)" stroke="rgb(115, 161, 191)" d="M744.5000153337204,576.5000115156174h62a3,3,0,0,1,3,3v20a3,3,0,0,1,-3,3h-62a3,3,0,0,1,-3,-3v-20a3,3,0,0,1,3,-3z" stroke-width="1"></path><g id="node_text21" fill="black"><text id="kity_text_191" text-rendering="inherit" font-size="14" dy=".8em" y="582.5000115156174" x="761.5000153337204">前端</text></g></g><g id="minder_node22"><g id="node_expander21" style="cursor: pointer;"><path id="kity_path_202" fill="white" stroke="gray" d="M849.500015892301,589.5000115156174A6,6,0,1,1,837.500015892301,589.5000115156174A6,6,0,1,1,849.500015892301,589.5000115156174"></path><path id="kity_path_203" fill="none" stroke="gray" d="M839.000015892301,589.5000115156174L848.000015892301,589.5000115156174"></path></g><path id="node_outline22" fill="none" stroke="none" d="M854.5000160012924,578.5000115156174h60a5,5,0,0,1,5,5v12a5,5,0,0,1,-5,5h-60a5,5,0,0,1,-5,-5v-12a5,5,0,0,1,5,-5z" stroke-width="3"></path><g id="node_text22" fill="black"><text id="kity_text_199" text-rendering="inherit" font-size="12" dy=".8em" y="583.5000115156174" x="859.5000160012924">分支主题</text></g></g><g id="minder_node23"><g id="node_expander22" style="cursor: pointer;" display="none"><path id="kity_path_210" fill="white" stroke="gray" d="M959.5000166416165,589.5000115156174A6,6,0,1,1,947.5000166416165,589.5000115156174A6,6,0,1,1,959.5000166416165,589.5000115156174"></path><path id="kity_path_211" fill="none" stroke="gray"></path></g><path id="node_outline23" fill="none" stroke="none" d="M964.5000167506079,578.5000115156174h141a5,5,0,0,1,5,5v12a5,5,0,0,1,-5,5h-141a5,5,0,0,1,-5,-5v-12a5,5,0,0,1,5,-5z" stroke-width="3"></path><g id="node_text23" fill="black"><text id="kity_text_207" text-rendering="inherit" font-size="12" dy=".8em" y="583.5000115156174" x="969.5000167506079">wordpress-theme-erica</text></g></g><g id="minder_node24"><g id="node_expander23" style="cursor: pointer;"><path id="kity_path_218" fill="white" stroke="gray" d="M357.5000145844052,32.500007721356326A6,6,0,1,1,345.5000145844052,32.500007721356326A6,6,0,1,1,357.5000145844052,32.500007721356326"></path><path id="kity_path_219" fill="none" stroke="gray" d="M347.0000145844052,32.500007721356326L356.0000145844052,32.500007721356326"></path></g><path id="node_outline24" fill="rgb(238, 243, 246)" stroke="rgb(115, 161, 191)" d="M278.50001215934765,19.500007721356326h63a3,3,0,0,1,3,3v20a3,3,0,0,1,-3,3h-63a3,3,0,0,1,-3,-3v-20a3,3,0,0,1,3,-3z" stroke-width="1"></path><g id="node_text24" fill="black"><text id="kity_text_215" text-rendering="inherit" font-size="14" dy=".8em" y="25.500007721356326" x="295.50001215934765">游戏</text></g></g><g id="minder_node26"><g id="node_expander25" style="cursor: pointer;" display="none"><path id="kity_path_234" fill="white" stroke="gray" d="M247.5000133241927,32.500007721356326A6,6,0,1,1,235.5000133241927,32.500007721356326A6,6,0,1,1,247.5000133241927,32.500007721356326"></path><path id="kity_path_235" fill="none" stroke="gray"></path></g><path id="node_outline26" fill="none" stroke="none" d="M146.5000111784255,21.500007721356326h84a5,5,0,0,1,5,5v12a5,5,0,0,1,-5,5h-84a5,5,0,0,1,-5,-5v-12a5,5,0,0,1,5,-5z" stroke-width="3"></path><g id="node_text26" fill="black"><text id="kity_text_231" text-rendering="inherit" font-size="12" dy=".8em" y="26.500007721356326" x="151.5000111784255">[undergo] ltk</text></g></g><g id="minder_node27"><g id="node_expander26" style="cursor: pointer;" display="none"><path id="kity_path_242" fill="white" stroke="gray" d="M247.50001383508965,252.50000921998725A6,6,0,1,1,235.50001383508965,252.50000921998725A6,6,0,1,1,247.50001383508965,252.50000921998725"></path><path id="kity_path_243" fill="none" stroke="gray"></path></g><path id="node_outline27" fill="none" stroke="none" d="M116.5000109740667,241.50000921998725h114a5,5,0,0,1,5,5v12a5,5,0,0,1,-5,5h-114a5,5,0,0,1,-5,-5v-12a5,5,0,0,1,5,-5z" stroke-width="3"></path><g id="node_text27" fill="black"><text id="kity_text_239" text-rendering="inherit" font-size="12" dy=".8em" y="246.50000921998725" x="121.5000109740667">Markov-passphase</text></g></g><g id="minder_node28"><g id="node_expander27" style="cursor: pointer;" display="none"><path id="kity_path_250" fill="white" stroke="gray" d="M247.5000071082796,304.5000095742091A6,6,0,1,1,235.5000071082796,304.5000095742091A6,6,0,1,1,247.5000071082796,304.5000095742091"></path><path id="kity_path_251" fill="none" stroke="gray"></path></g><path id="node_outline28" fill="none" stroke="none" d="M127.50001104899826,293.5000095742091h103a5,5,0,0,1,5,5v12a5,5,0,0,1,-5,5h-103a5,5,0,0,1,-5,-5v-12a5,5,0,0,1,5,-5z" stroke-width="3"></path><g id="node_text28" fill="black"><text id="kity_text_247" text-rendering="inherit" font-size="12" dy=".8em" y="298.5000095742091" x="132.50001104899826">MotionDetection</text></g></g><g id="minder_node29"><g id="node_expander28" style="cursor: pointer;" display="none"><path id="kity_path_258" fill="white" stroke="gray" d="M247.50001085485735,356.5000099284309A6,6,0,1,1,235.50001085485735,356.5000099284309A6,6,0,1,1,247.50001085485735,356.5000099284309"></path><path id="kity_path_259" fill="none" stroke="gray"></path></g><path id="node_outline29" fill="none" stroke="none" d="M195.50001151221147,345.5000099284309h35a5,5,0,0,1,5,5v12a5,5,0,0,1,-5,5h-35a5,5,0,0,1,-5,-5v-12a5,5,0,0,1,5,-5z" stroke-width="3"></path><g id="node_text29" fill="black"><text id="kity_text_255" text-rendering="inherit" font-size="12" dy=".8em" y="350.5000099284309" x="200.50001151221147">Tick</text></g></g><g id="minder_node30"><g id="node_expander29" style="cursor: pointer;" display="none"><path id="kity_path_266" fill="white" stroke="gray" d="M247.50000940731593,408.50001028265285A6,6,0,1,1,235.50000940731593,408.50001028265285A6,6,0,1,1,247.50000940731593,408.50001028265285"></path><path id="kity_path_267" fill="none" stroke="gray"></path></g><path id="node_outline30" fill="none" stroke="none" d="M120.50001100131453,397.50001028265285h110a5,5,0,0,1,5,5v12a5,5,0,0,1,-5,5h-110a5,5,0,0,1,-5,-5v-12a5,5,0,0,1,5,-5z" stroke-width="3"></path><g id="node_text30" fill="black"><text id="kity_text_263" text-rendering="inherit" font-size="12" dy=".8em" y="402.50001028265285" x="125.50001100131453">Wenku8-collector</text></g></g><g id="minder_node31"><g id="node_expander30" style="cursor: pointer;" display="none"><path id="kity_path_274" fill="white" stroke="gray" d="M247.50001417568762,460.5000106368747A6,6,0,1,1,235.50001417568762,460.5000106368747A6,6,0,1,1,247.50001417568762,460.5000106368747"></path><path id="kity_path_275" fill="none" stroke="gray"></path></g><path id="node_outline31" fill="none" stroke="none" d="M96.50001083782752,449.5000106368747h134a5,5,0,0,1,5,5v12a5,5,0,0,1,-5,5h-134a5,5,0,0,1,-5,-5v-12a5,5,0,0,1,5,-5z" stroke-width="3"></path><g id="node_text31" fill="black"><text id="kity_text_271" text-rendering="inherit" font-size="12" dy=".8em" y="454.5000106368747" x="101.50001083782752">gzhu-schedule-export</text></g></g><g id="minder_node32"><g id="node_expander31" style="cursor: pointer;" display="none"><path id="kity_path_282" fill="white" stroke="gray" d="M247.5000071934291,512.5000109910966A6,6,0,1,1,235.5000071934291,512.5000109910966A6,6,0,1,1,247.5000071934291,512.5000109910966"></path><path id="kity_path_283" fill="none" stroke="gray"></path></g><path id="node_outline32" fill="none" stroke="none" d="M122.50001101493848,501.5000109910966h108a5,5,0,0,1,5,5v12a5,5,0,0,1,-5,5h-108a5,5,0,0,1,-5,-5v-12a5,5,0,0,1,5,-5z" stroke-width="3"></path><g id="node_text32" fill="black"><text id="kity_text_279" text-rendering="inherit" font-size="12" dy=".8em" y="506.5000109910966" x="127.50001101493848">college-life-game</text></g></g><g id="minder_node33"><g id="node_expander32" style="cursor: pointer;" display="none"><path id="kity_path_290" fill="white" stroke="gray" d="M849.500015892301,459.5000106300627A6,6,0,1,1,837.500015892301,459.5000106300627A6,6,0,1,1,849.500015892301,459.5000106300627"></path><path id="kity_path_291" fill="none" stroke="gray"></path></g><path id="node_outline33" fill="none" stroke="none" d="M854.5000160012924,448.5000106300627h78a5,5,0,0,1,5,5v12a5,5,0,0,1,-5,5h-78a5,5,0,0,1,-5,-5v-12a5,5,0,0,1,5,-5z" stroke-width="3"></path><g id="node_text33" fill="black"><text id="kity_text_287" text-rendering="inherit" font-size="12" dy=".8em" y="453.5000106300627" x="859.5000160012924">aliyun-ddns</text></g></g><g id="minder_node34"><g id="node_expander33" style="cursor: pointer;" display="none"><path id="kity_path_298" fill="white" stroke="gray" d="M247.50001306874424,564.5000113453184A6,6,0,1,1,235.50001306874424,564.5000113453184A6,6,0,1,1,247.50001306874424,564.5000113453184"></path><path id="kity_path_299" fill="none" stroke="gray"></path></g><path id="node_outline34" fill="none" stroke="none" d="M161.5000112806049,553.5000113453184h69a5,5,0,0,1,5,5v12a5,5,0,0,1,-5,5h-69a5,5,0,0,1,-5,-5v-12a5,5,0,0,1,5,-5z" stroke-width="3"></path><g id="node_text34" fill="black"><text id="kity_text_295" text-rendering="inherit" font-size="12" dy=".8em" y="558.5000113453184" x="166.5000112806049">angelica-c</text></g></g><g id="minder_node35"><g id="node_expander34" style="cursor: pointer;" display="none"><path id="kity_path_306" fill="white" stroke="gray" d="M247.50000736372806,616.5000116995403A6,6,0,1,1,235.50000736372806,616.5000116995403A6,6,0,1,1,247.50000736372806,616.5000116995403"></path><path id="kity_path_307" fill="none" stroke="gray"></path></g><path id="node_outline35" fill="none" stroke="none" d="M112.50001094681886,605.5000116995403h118a5,5,0,0,1,5,5v12a5,5,0,0,1,-5,5h-118a5,5,0,0,1,-5,-5v-12a5,5,0,0,1,5,-5z" stroke-width="3"></path><g id="node_text35" fill="black"><text id="kity_text_303" text-rendering="inherit" font-size="12" dy=".8em" y="610.5000116995403" x="117.50001094681886">509-network-traffic</text></g></g><g id="minder_node36"><g id="node_expander35" style="cursor: pointer;" display="none"><path id="kity_path_314" fill="white" stroke="gray" d="M247.5000146014351,668.5000120537621A6,6,0,1,1,235.5000146014351,668.5000120537621A6,6,0,1,1,247.5000146014351,668.5000120537621"></path><path id="kity_path_315" fill="none" stroke="gray"></path></g><path id="node_outline36" fill="none" stroke="none" d="M71.50001066752856,657.5000120537621h159a5,5,0,0,1,5,5v12a5,5,0,0,1,-5,5h-159a5,5,0,0,1,-5,-5v-12a5,5,0,0,1,5,-5z" stroke-width="3"></path><g id="node_text36" fill="black"><text id="kity_text_311" text-rendering="inherit" font-size="12" dy=".8em" y="662.5000120537621" x="76.50001066752856">student-info-management</text></g></g><g id="minder_node37"><g id="node_expander36" style="cursor: pointer;" display="none"><path id="kity_path_322" fill="white" stroke="gray" d="M247.5000097479139,720.5000124079841A6,6,0,1,1,235.5000097479139,720.5000124079841A6,6,0,1,1,247.5000097479139,720.5000124079841"></path><path id="kity_path_323" fill="none" stroke="gray"></path></g><path id="node_outline37" fill="none" stroke="none" d="M164.50001130104073,709.5000124079841h66a5,5,0,0,1,5,5v12a5,5,0,0,1,-5,5h-66a5,5,0,0,1,-5,-5v-12a5,5,0,0,1,5,-5z" stroke-width="3"></path><g id="node_text37" fill="black"><text id="kity_text_319" text-rendering="inherit" font-size="12" dy=".8em" y="714.5000124079841" x="169.50001130104073">kana-anki</text></g></g><g id="minder_node38"><g id="node_expander37" style="cursor: pointer;" display="none"><path id="kity_path_330" fill="white" stroke="gray" d="M247.50001306874424,772.5000127622059A6,6,0,1,1,235.50001306874424,772.5000127622059A6,6,0,1,1,247.50001306874424,772.5000127622059"></path><path id="kity_path_331" fill="none" stroke="gray"></path></g><path id="node_outline38" fill="none" stroke="none" d="M161.5000112806049,761.5000127622059h69a5,5,0,0,1,5,5v12a5,5,0,0,1,-5,5h-69a5,5,0,0,1,-5,-5v-12a5,5,0,0,1,5,-5z" stroke-width="3"></path><g id="node_text38" fill="black"><text id="kity_text_327" text-rendering="inherit" font-size="12" dy=".8em" y="766.5000127622059" x="166.5000112806049">chat-room</text></g></g><g id="minder_node39"><g id="node_expander38" style="cursor: pointer;" display="none"><path id="kity_path_338" fill="white" stroke="gray" d="M247.50001000336235,824.5000131164278A6,6,0,1,1,235.50001000336235,824.5000131164278A6,6,0,1,1,247.50001000336235,824.5000131164278"></path><path id="kity_path_339" fill="none" stroke="gray"></path></g><path id="node_outline39" fill="none" stroke="none" d="M85.50001076289595,813.5000131164278h145a5,5,0,0,1,5,5v12a5,5,0,0,1,-5,5h-145a5,5,0,0,1,-5,-5v-12a5,5,0,0,1,5,-5z" stroke-width="3"></path><g id="node_text39" fill="black"><text id="kity_text_335" text-rendering="inherit" font-size="12" dy=".8em" y="818.5000131164278" x="90.50001076289595">[broken] livere-collector</text></g></g></g></g></svg>